<?xml version="1.0" encoding="UTF-8" standalone="no"?>
<!DOCTYPE svg PUBLIC "-//W3C//DTD SVG 1.1//EN"
 "http://www.w3.org/Graphics/SVG/1.1/DTD/svg11.dtd">
<!-- Generated by graphviz version 12.2.1 (20241206.2353)
 -->
<!-- Title: dependencies Pages: 1 -->
<svg width="1622pt" height="2377pt"
 viewBox="0.00 0.00 1621.50 2377.00" xmlns="http://www.w3.org/2000/svg" xmlns:xlink="http://www.w3.org/1999/xlink">
<g id="graph0" class="graph" transform="scale(1 1) rotate(0) translate(4 2373)">
<title>dependencies</title>
<polygon fill="white" stroke="none" points="-4,4 -4,-2373 1617.5,-2373 1617.5,4 -4,4"/>
<!-- fortio.org/assert -->
<g id="node1" class="node">
<title>fortio.org/assert</title>
<path fill="lightblue" stroke="black" d="M1399.88,-2193C1399.88,-2193 1314.12,-2193 1314.12,-2193 1308.12,-2193 1302.12,-2187 1302.12,-2181 1302.12,-2181 1302.12,-2169 1302.12,-2169 1302.12,-2163 1308.12,-2157 1314.12,-2157 1314.12,-2157 1399.88,-2157 1399.88,-2157 1405.88,-2157 1411.88,-2163 1411.88,-2169 1411.88,-2169 1411.88,-2181 1411.88,-2181 1411.88,-2187 1405.88,-2193 1399.88,-2193"/>
<text text-anchor="middle" x="1357" y="-2169.2" font-family="Helvetica,sans-Serif" font-size="14.00">fortio.org/assert</text>
</g>
<!-- fortio.org/cli -->
<g id="node2" class="node">
<title>fortio.org/cli</title>
<path fill="lightblue" stroke="black" d="M1188.88,-940C1188.88,-940 1127.12,-940 1127.12,-940 1121.12,-940 1115.12,-934 1115.12,-928 1115.12,-928 1115.12,-916 1115.12,-916 1115.12,-910 1121.12,-904 1127.12,-904 1127.12,-904 1188.88,-904 1188.88,-904 1194.88,-904 1200.88,-910 1200.88,-916 1200.88,-916 1200.88,-928 1200.88,-928 1200.88,-934 1194.88,-940 1188.88,-940"/>
<text text-anchor="middle" x="1158" y="-916.2" font-family="Helvetica,sans-Serif" font-size="14.00">fortio.org/cli</text>
</g>
<!-- fortio.org/log -->
<g id="node7" class="node">
<title>fortio.org/log</title>
<path fill="lightblue" stroke="black" d="M1390.5,-1266C1390.5,-1266 1323.5,-1266 1323.5,-1266 1317.5,-1266 1311.5,-1260 1311.5,-1254 1311.5,-1254 1311.5,-1242 1311.5,-1242 1311.5,-1236 1317.5,-1230 1323.5,-1230 1323.5,-1230 1390.5,-1230 1390.5,-1230 1396.5,-1230 1402.5,-1236 1402.5,-1242 1402.5,-1242 1402.5,-1254 1402.5,-1254 1402.5,-1260 1396.5,-1266 1390.5,-1266"/>
<text text-anchor="middle" x="1357" y="-1242.2" font-family="Helvetica,sans-Serif" font-size="14.00">fortio.org/log</text>
</g>
<!-- fortio.org/cli&#45;&gt;fortio.org/log -->
<g id="edge1" class="edge">
<title>fortio.org/cli&#45;&gt;fortio.org/log</title>
<path fill="none" stroke="black" d="M1191.62,-940.42C1219.03,-957.46 1257.38,-985.18 1280.75,-1018.75 1324.7,-1081.86 1344.31,-1172.36 1351.89,-1218.5"/>
<polygon fill="black" stroke="black" points="1348.42,-1218.92 1353.41,-1228.26 1355.33,-1217.84 1348.42,-1218.92"/>
<text text-anchor="middle" x="1264.62" y="-1020.5" font-family="Helvetica,sans-Serif" font-size="10.00">v1.17.2</text>
</g>
<!-- fortio.org/version -->
<g id="node23" class="node">
<title>fortio.org/version</title>
<path fill="lightblue" stroke="black" d="M1403.25,-217C1403.25,-217 1310.75,-217 1310.75,-217 1304.75,-217 1298.75,-211 1298.75,-205 1298.75,-205 1298.75,-193 1298.75,-193 1298.75,-187 1304.75,-181 1310.75,-181 1310.75,-181 1403.25,-181 1403.25,-181 1409.25,-181 1415.25,-187 1415.25,-193 1415.25,-193 1415.25,-205 1415.25,-205 1415.25,-211 1409.25,-217 1403.25,-217"/>
<text text-anchor="middle" x="1357" y="-193.2" font-family="Helvetica,sans-Serif" font-size="14.00">fortio.org/version</text>
</g>
<!-- fortio.org/cli&#45;&gt;fortio.org/version -->
<g id="edge2" class="edge">
<title>fortio.org/cli&#45;&gt;fortio.org/version</title>
<path fill="none" stroke="black" d="M1163.97,-903.77C1190.48,-806.48 1315.27,-348.48 1348.08,-228.07"/>
<polygon fill="black" stroke="black" points="1351.4,-229.21 1350.65,-218.64 1344.64,-227.37 1351.4,-229.21"/>
<text text-anchor="middle" x="1264.62" y="-583.93" font-family="Helvetica,sans-Serif" font-size="10.00">v1.0.4</text>
</g>
<!-- fortio.org/dflag -->
<g id="node3" class="node">
<title>fortio.org/dflag</title>
<path fill="lightblue" stroke="black" d="M918.62,-1897C918.62,-1897 840.38,-1897 840.38,-1897 834.38,-1897 828.38,-1891 828.38,-1885 828.38,-1885 828.38,-1873 828.38,-1873 828.38,-1867 834.38,-1861 840.38,-1861 840.38,-1861 918.62,-1861 918.62,-1861 924.62,-1861 930.62,-1867 930.62,-1873 930.62,-1873 930.62,-1885 930.62,-1885 930.62,-1891 924.62,-1897 918.62,-1897"/>
<text text-anchor="middle" x="879.5" y="-1873.2" font-family="Helvetica,sans-Serif" font-size="14.00">fortio.org/dflag</text>
</g>
<!-- fortio.org/dflag&#45;&gt;fortio.org/assert -->
<g id="edge3" class="edge">
<title>fortio.org/dflag&#45;&gt;fortio.org/assert</title>
<path fill="none" stroke="black" d="M930.87,-1870.17C1004.21,-1860.24 1141.32,-1853.03 1230.5,-1917.75 1307.87,-1973.9 1339.83,-2090.94 1350.94,-2145.64"/>
<polygon fill="black" stroke="black" points="1347.44,-2145.98 1352.77,-2155.14 1354.31,-2144.66 1347.44,-2145.98"/>
<text text-anchor="middle" x="1158" y="-1919.5" font-family="Helvetica,sans-Serif" font-size="10.00">v1.2.1</text>
</g>
<!-- fortio.org/dflag&#45;&gt;fortio.org/log -->
<g id="edge4" class="edge">
<title>fortio.org/dflag&#45;&gt;fortio.org/log</title>
<path fill="none" stroke="black" d="M930.98,-1870.51C1035.87,-1852.65 1268.74,-1811.78 1280.75,-1799 1352.41,-1722.79 1356.67,-1380.82 1356.29,-1277.59"/>
<polygon fill="black" stroke="black" points="1359.79,-1277.72 1356.23,-1267.74 1352.79,-1277.76 1359.79,-1277.72"/>
<text text-anchor="middle" x="1158" y="-1844.54" font-family="Helvetica,sans-Serif" font-size="10.00">v1.17.2</text>
</g>
<!-- fortio.org/sets -->
<g id="node16" class="node">
<title>fortio.org/sets</title>
<path fill="lightblue" stroke="black" d="M1194.88,-1974C1194.88,-1974 1121.12,-1974 1121.12,-1974 1115.12,-1974 1109.12,-1968 1109.12,-1962 1109.12,-1962 1109.12,-1950 1109.12,-1950 1109.12,-1944 1115.12,-1938 1121.12,-1938 1121.12,-1938 1194.88,-1938 1194.88,-1938 1200.88,-1938 1206.88,-1944 1206.88,-1950 1206.88,-1950 1206.88,-1962 1206.88,-1962 1206.88,-1968 1200.88,-1974 1194.88,-1974"/>
<text text-anchor="middle" x="1158" y="-1950.2" font-family="Helvetica,sans-Serif" font-size="14.00">fortio.org/sets</text>
</g>
<!-- fortio.org/dflag&#45;&gt;fortio.org/sets -->
<g id="edge5" class="edge">
<title>fortio.org/dflag&#45;&gt;fortio.org/sets</title>
<path fill="none" stroke="black" d="M930.93,-1885.25C969.05,-1890.78 1022.34,-1900.26 1067.5,-1914.75 1082.3,-1919.5 1097.87,-1926.07 1111.79,-1932.57"/>
<polygon fill="black" stroke="black" points="1110.18,-1935.69 1120.72,-1936.85 1113.21,-1929.37 1110.18,-1935.69"/>
<text text-anchor="middle" x="1034.88" y="-1916.5" font-family="Helvetica,sans-Serif" font-size="10.00">v1.3.0</text>
</g>
<!-- fortio.org/dnsping -->
<g id="node4" class="node">
<title>fortio.org/dnsping</title>
<path fill="lightblue" stroke="black" d="M167.88,-1267C167.88,-1267 71.62,-1267 71.62,-1267 65.62,-1267 59.62,-1261 59.62,-1255 59.62,-1255 59.62,-1243 59.62,-1243 59.62,-1237 65.62,-1231 71.62,-1231 71.62,-1231 167.88,-1231 167.88,-1231 173.88,-1231 179.88,-1237 179.88,-1243 179.88,-1243 179.88,-1255 179.88,-1255 179.88,-1261 173.88,-1267 167.88,-1267"/>
<text text-anchor="middle" x="119.75" y="-1243.2" font-family="Helvetica,sans-Serif" font-size="14.00">fortio.org/dnsping</text>
</g>
<!-- fortio.org/dnsping&#45;&gt;fortio.org/cli -->
<g id="edge6" class="edge">
<title>fortio.org/dnsping&#45;&gt;fortio.org/cli</title>
<path fill="none" stroke="black" d="M125.19,-1230.56C139.97,-1173.45 193.19,-998.48 307.75,-917 399.48,-851.76 455.96,-921.62 557,-872 566.67,-867.25 564.94,-859.62 575,-855.75 629.55,-834.77 648.07,-854.52 706.5,-855.75 867.05,-859.14 913.17,-826.61 1067.5,-871 1087,-876.61 1106.79,-887.26 1122.79,-897.39"/>
<polygon fill="black" stroke="black" points="1120.68,-900.19 1130.96,-902.75 1124.52,-894.33 1120.68,-900.19"/>
<text text-anchor="middle" x="640.75" y="-857.5" font-family="Helvetica,sans-Serif" font-size="10.00">v1.10.0</text>
</g>
<!-- fortio.org/fortio -->
<g id="node5" class="node">
<title>fortio.org/fortio</title>
<path fill="lightblue" stroke="black" d="M446.75,-1385C446.75,-1385 367.75,-1385 367.75,-1385 361.75,-1385 355.75,-1379 355.75,-1373 355.75,-1373 355.75,-1361 355.75,-1361 355.75,-1355 361.75,-1349 367.75,-1349 367.75,-1349 446.75,-1349 446.75,-1349 452.75,-1349 458.75,-1355 458.75,-1361 458.75,-1361 458.75,-1373 458.75,-1373 458.75,-1379 452.75,-1385 446.75,-1385"/>
<text text-anchor="middle" x="407.25" y="-1361.2" font-family="Helvetica,sans-Serif" font-size="14.00">fortio.org/fortio</text>
</g>
<!-- fortio.org/dnsping&#45;&gt;fortio.org/fortio -->
<g id="edge7" class="edge">
<title>fortio.org/dnsping&#45;&gt;fortio.org/fortio</title>
<path fill="none" stroke="black" d="M164.53,-1267.4C202.4,-1283.28 258.63,-1306.78 307.75,-1327 321.49,-1332.65 336.32,-1338.71 350.21,-1344.35"/>
<polygon fill="black" stroke="black" points="348.62,-1347.48 359.2,-1348 351.25,-1341 348.62,-1347.48"/>
<text text-anchor="middle" x="273.62" y="-1320.37" font-family="Helvetica,sans-Serif" font-size="10.00">v1.69.1</text>
</g>
<!-- fortio.org/dnsping&#45;&gt;fortio.org/log -->
<g id="edge8" class="edge">
<title>fortio.org/dnsping&#45;&gt;fortio.org/log</title>
<path fill="none" stroke="black" d="M138.89,-1267.47C181.58,-1311.02 285.15,-1417.21 289.75,-1427 304.03,-1457.38 284.61,-1552.68 307.75,-1577 338.67,-1609.5 462.62,-1602.93 506.75,-1611 618.11,-1631.37 659.75,-1601.39 756.75,-1659.75 767.65,-1666.31 763.32,-1676.41 774.75,-1682 898.84,-1742.7 947.37,-1686.67 1085.5,-1688 1149.94,-1688.62 1168,-1703.73 1230.5,-1688 1255.09,-1681.81 1265.83,-1681.5 1280.75,-1661 1325.71,-1599.21 1347.5,-1361.56 1353.92,-1277.59"/>
<polygon fill="black" stroke="black" points="1357.39,-1278.1 1354.64,-1267.87 1350.41,-1277.58 1357.39,-1278.1"/>
<text text-anchor="middle" x="740.62" y="-1661.5" font-family="Helvetica,sans-Serif" font-size="10.00">v1.17.2</text>
</g>
<!-- fortio.org/safecast -->
<g id="node14" class="node">
<title>fortio.org/safecast</title>
<path fill="lightblue" stroke="black" d="M1207.62,-467C1207.62,-467 1108.38,-467 1108.38,-467 1102.38,-467 1096.38,-461 1096.38,-455 1096.38,-455 1096.38,-443 1096.38,-443 1096.38,-437 1102.38,-431 1108.38,-431 1108.38,-431 1207.62,-431 1207.62,-431 1213.62,-431 1219.62,-437 1219.62,-443 1219.62,-443 1219.62,-455 1219.62,-455 1219.62,-461 1213.62,-467 1207.62,-467"/>
<text text-anchor="middle" x="1158" y="-443.2" font-family="Helvetica,sans-Serif" font-size="14.00">fortio.org/safecast</text>
</g>
<!-- fortio.org/dnsping&#45;&gt;fortio.org/safecast -->
<g id="edge9" class="edge">
<title>fortio.org/dnsping&#45;&gt;fortio.org/safecast</title>
<path fill="none" stroke="black" d="M122.38,-1230.69C130.77,-1142.89 173.92,-757.7 307.75,-477 338.79,-411.89 334.11,-348 406.25,-348 406.25,-348 406.25,-348 741.62,-348 888.58,-348 937,-336.43 1067.5,-404 1077.55,-409.2 1075.99,-415.86 1085.5,-422 1087.34,-423.19 1089.24,-424.33 1091.18,-425.44"/>
<polygon fill="black" stroke="black" points="1089.37,-428.44 1099.86,-429.94 1092.59,-422.23 1089.37,-428.44"/>
<text text-anchor="middle" x="640.75" y="-349.75" font-family="Helvetica,sans-Serif" font-size="10.00">v1.0.0</text>
</g>
<!-- fortio.org/testscript -->
<g id="node22" class="node">
<title>fortio.org/testscript</title>
<path fill="steelblue" stroke="black" d="M1197.88,-1534C1197.88,-1534 1118.12,-1534 1118.12,-1534 1112.12,-1534 1106.12,-1528 1106.12,-1522 1106.12,-1522 1106.12,-1510 1106.12,-1510 1106.12,-1504 1112.12,-1498 1118.12,-1498 1118.12,-1498 1197.88,-1498 1197.88,-1498 1203.88,-1498 1209.88,-1504 1209.88,-1510 1209.88,-1510 1209.88,-1522 1209.88,-1522 1209.88,-1528 1203.88,-1534 1197.88,-1534"/>
<text text-anchor="middle" x="1158" y="-1510.2" font-family="Helvetica,sans-Serif" font-size="14.00">fortio/testscript</text>
</g>
<!-- fortio.org/dnsping&#45;&gt;fortio.org/testscript -->
<g id="edge10" class="edge">
<title>fortio.org/dnsping&#45;&gt;fortio.org/testscript</title>
<path fill="none" stroke="black" d="M139.58,-1267.46C171.57,-1297.89 239.74,-1358.72 307.75,-1394 389.87,-1436.59 444.05,-1386.98 506.75,-1455 532.04,-1482.43 495.68,-1513.62 524.75,-1537 535.92,-1545.98 544.78,-1544.48 557,-1537 572,-1527.82 560,-1510.93 575,-1501.75 600.63,-1486.06 820.63,-1515.1 1002.25,-1521 1031.23,-1521.94 1038.51,-1521.81 1067.5,-1521 1076.25,-1520.76 1085.48,-1520.38 1094.55,-1519.94"/>
<polygon fill="black" stroke="black" points="1094.59,-1523.44 1104.39,-1519.43 1094.23,-1516.45 1094.59,-1523.44"/>
<text text-anchor="middle" x="640.75" y="-1503.5" font-family="Helvetica,sans-Serif" font-size="10.00">v0.3.2</text>
</g>
<!-- github.com/miekg/dns -->
<g id="node39" class="node">
<title>github.com/miekg/dns</title>
<path fill="coral" stroke="black" d="M442.62,-1318C442.62,-1318 371.88,-1318 371.88,-1318 365.88,-1318 359.88,-1312 359.88,-1306 359.88,-1306 359.88,-1294 359.88,-1294 359.88,-1288 365.88,-1282 371.88,-1282 371.88,-1282 442.62,-1282 442.62,-1282 448.62,-1282 454.62,-1288 454.62,-1294 454.62,-1294 454.62,-1306 454.62,-1306 454.62,-1312 448.62,-1318 442.62,-1318"/>
<text text-anchor="middle" x="407.25" y="-1294.2" font-family="Helvetica,sans-Serif" font-size="14.00">ldemailly/dns</text>
</g>
<!-- fortio.org/dnsping&#45;&gt;github.com/miekg/dns -->
<g id="edge11" class="edge">
<title>fortio.org/dnsping&#45;&gt;github.com/miekg/dns</title>
<path fill="none" stroke="black" d="M128.49,-1230.56C152.14,-1176.63 225.72,-1026.55 289.75,-1084.75 320.85,-1113.02 280.7,-1240.84 307.75,-1273 317.94,-1285.12 333.02,-1292.07 348.32,-1295.98"/>
<polygon fill="black" stroke="black" points="347.45,-1299.38 357.96,-1298.01 348.89,-1292.53 347.45,-1299.38"/>
<text text-anchor="middle" x="273.62" y="-1086.5" font-family="Helvetica,sans-Serif" font-size="10.00">v1.1.65</text>
</g>
<!-- fortio.org/fortio&#45;&gt;fortio.org/assert -->
<g id="edge12" class="edge">
<title>fortio.org/fortio&#45;&gt;fortio.org/assert</title>
<path fill="none" stroke="black" d="M459.13,-1367.38C476.62,-1370.18 494.8,-1376.54 506.75,-1390 530.66,-1416.91 517.62,-1515.71 524.75,-1551 540.35,-1628.23 519.12,-1665.46 575,-1721 618.15,-1763.89 667.14,-1712.61 706.5,-1759 728.51,-1784.93 716.74,-1877.88 724.5,-1911 726.4,-1919.1 768.49,-2046.53 774.75,-2052 922.79,-2181.44 1172.7,-2186.31 1290.65,-2180.35"/>
<polygon fill="black" stroke="black" points="1290.68,-2183.86 1300.47,-2179.81 1290.3,-2176.87 1290.68,-2183.86"/>
<text text-anchor="middle" x="879.5" y="-2155.83" font-family="Helvetica,sans-Serif" font-size="10.00">v1.2.1</text>
</g>
<!-- fortio.org/fortio&#45;&gt;fortio.org/cli -->
<g id="edge13" class="edge">
<title>fortio.org/fortio&#45;&gt;fortio.org/cli</title>
<path fill="none" stroke="black" d="M459.05,-1353.45C475.54,-1347.29 493.08,-1338.7 506.75,-1327 518.56,-1316.89 516.47,-1310.16 524.75,-1297 538.63,-1274.93 544.75,-1271.01 557,-1248 566.74,-1229.71 564.12,-1222.63 575,-1205 628.58,-1118.16 657.11,-1107.38 724.5,-1030.75 746.53,-1005.7 745.28,-990.63 774.75,-975 803.25,-959.89 1005.28,-937.51 1103.56,-927.36"/>
<polygon fill="black" stroke="black" points="1103.63,-930.87 1113.22,-926.37 1102.92,-923.91 1103.63,-930.87"/>
<text text-anchor="middle" x="740.62" y="-1032.5" font-family="Helvetica,sans-Serif" font-size="10.00">v1.10.0</text>
</g>
<!-- fortio.org/fortio&#45;&gt;fortio.org/dflag -->
<g id="edge14" class="edge">
<title>fortio.org/fortio&#45;&gt;fortio.org/dflag</title>
<path fill="none" stroke="black" d="M459.22,-1385.24C491.63,-1399.31 532.06,-1421.86 557,-1454 574.85,-1477.01 561.46,-1491.22 575,-1517 617.75,-1598.42 655.91,-1599.96 706.5,-1676.75 742.89,-1731.98 730.8,-1759.57 774.75,-1809 791.05,-1827.34 813.16,-1843.12 832.78,-1855.03"/>
<polygon fill="black" stroke="black" points="830.77,-1857.91 841.17,-1859.96 834.32,-1851.87 830.77,-1857.91"/>
<text text-anchor="middle" x="640.75" y="-1678.5" font-family="Helvetica,sans-Serif" font-size="10.00">v1.8.1</text>
</g>
<!-- fortio.org/fortio&#45;&gt;fortio.org/log -->
<g id="edge15" class="edge">
<title>fortio.org/fortio&#45;&gt;fortio.org/log</title>
<path fill="none" stroke="black" d="M459.09,-1384.05C487.93,-1393.91 524.63,-1406.75 557,-1419 624.12,-1444.4 650.79,-1434.77 706.5,-1480 748.56,-1514.15 729.22,-1551.64 774.75,-1581 854.13,-1632.19 905.57,-1564.49 984.25,-1616.75 996.65,-1624.99 989.2,-1637.84 1002.25,-1645 1027.68,-1658.95 1038.71,-1648.48 1067.5,-1645 1141.55,-1636.05 1170.5,-1649.32 1230.5,-1605 1337.68,-1525.83 1353.81,-1348.02 1355.88,-1277.57"/>
<polygon fill="black" stroke="black" points="1359.38,-1277.66 1356.09,-1267.59 1352.38,-1277.52 1359.38,-1277.66"/>
<text text-anchor="middle" x="879.5" y="-1618.5" font-family="Helvetica,sans-Serif" font-size="10.00">v1.17.2</text>
</g>
<!-- fortio.org/fortio&#45;&gt;fortio.org/safecast -->
<g id="edge16" class="edge">
<title>fortio.org/fortio&#45;&gt;fortio.org/safecast</title>
<path fill="none" stroke="black" d="M459.17,-1356.95C476.67,-1351.03 494.83,-1341.69 506.75,-1327 535.2,-1291.93 514.64,-1271.01 524.75,-1227 543.26,-1146.47 528.04,-1115.99 575,-1048 616.27,-988.24 652.15,-999.17 706.5,-951 881.55,-795.84 961.44,-776.49 1067.5,-568 1087.18,-529.31 1056.8,-504.57 1085.5,-472 1086.07,-471.36 1086.65,-470.73 1087.25,-470.13"/>
<polygon fill="black" stroke="black" points="1089.12,-473.12 1094.71,-464.12 1084.73,-467.66 1089.12,-473.12"/>
<text text-anchor="middle" x="740.62" y="-935.43" font-family="Helvetica,sans-Serif" font-size="10.00">v1.0.0</text>
</g>
<!-- fortio.org/scli -->
<g id="node15" class="node">
<title>fortio.org/scli</title>
<path fill="lightblue" stroke="black" d="M675,-1250C675,-1250 606.5,-1250 606.5,-1250 600.5,-1250 594.5,-1244 594.5,-1238 594.5,-1238 594.5,-1226 594.5,-1226 594.5,-1220 600.5,-1214 606.5,-1214 606.5,-1214 675,-1214 675,-1214 681,-1214 687,-1220 687,-1226 687,-1226 687,-1238 687,-1238 687,-1244 681,-1250 675,-1250"/>
<text text-anchor="middle" x="640.75" y="-1226.2" font-family="Helvetica,sans-Serif" font-size="14.00">fortio.org/scli</text>
</g>
<!-- fortio.org/fortio&#45;&gt;fortio.org/scli -->
<g id="edge17" class="edge">
<title>fortio.org/fortio&#45;&gt;fortio.org/scli</title>
<path fill="none" stroke="black" d="M459.22,-1348.5C474.77,-1342.28 491.72,-1334.89 506.75,-1327 530.41,-1314.58 535.13,-1309.35 557,-1294 573.79,-1282.21 592.08,-1268.59 607.19,-1257.13"/>
<polygon fill="black" stroke="black" points="609.1,-1260.07 614.93,-1251.22 604.86,-1254.5 609.1,-1260.07"/>
<text text-anchor="middle" x="540.88" y="-1318.47" font-family="Helvetica,sans-Serif" font-size="10.00">v1.16.1</text>
</g>
<!-- fortio.org/fortio&#45;&gt;fortio.org/sets -->
<g id="edge18" class="edge">
<title>fortio.org/fortio&#45;&gt;fortio.org/sets</title>
<path fill="none" stroke="black" d="M459.12,-1367.94C476.41,-1370.83 494.44,-1377.11 506.75,-1390 537.03,-1421.71 514,-1444.49 524.75,-1487 536.2,-1532.27 545.71,-1541.69 557,-1587 568.02,-1631.24 544.49,-1654.11 575,-1688 615.7,-1733.21 666.63,-1680.05 706.5,-1726 744.15,-1769.39 699.31,-1802.37 724.5,-1854 738.59,-1882.88 746.04,-1891.55 774.75,-1906 802.93,-1920.18 996.93,-1940.59 1097.22,-1950.37"/>
<polygon fill="black" stroke="black" points="1096.88,-1953.85 1107.17,-1951.33 1097.55,-1946.88 1096.88,-1953.85"/>
<text text-anchor="middle" x="740.62" y="-1897.44" font-family="Helvetica,sans-Serif" font-size="10.00">v1.3.0</text>
</g>
<!-- fortio.org/fortio&#45;&gt;fortio.org/testscript -->
<g id="edge19" class="edge">
<title>fortio.org/fortio&#45;&gt;fortio.org/testscript</title>
<path fill="none" stroke="black" d="M459.23,-1371.47C487.96,-1374.07 524.5,-1377.52 557,-1381 623.54,-1388.14 640.6,-1387.36 706.5,-1399 729.09,-1402.99 739.37,-1395.78 756.75,-1410.75 773.15,-1424.87 758,-1442.29 774.75,-1456 847.98,-1515.93 893.81,-1466.14 984.25,-1494 992.62,-1496.58 993.78,-1499.8 1002.25,-1502 1031.97,-1509.72 1065.85,-1513.34 1094.32,-1514.99"/>
<polygon fill="black" stroke="black" points="1094.08,-1518.48 1104.24,-1515.48 1094.43,-1511.49 1094.08,-1518.48"/>
<text text-anchor="middle" x="740.62" y="-1412.5" font-family="Helvetica,sans-Serif" font-size="10.00">v0.3.2</text>
</g>
<!-- fortio.org/fortio&#45;&gt;fortio.org/version -->
<g id="edge20" class="edge">
<title>fortio.org/fortio&#45;&gt;fortio.org/version</title>
<path fill="none" stroke="black" d="M459.05,-1358.25C477.09,-1352.47 495.66,-1342.89 506.75,-1327 523.58,-1302.89 521.96,-827.27 524.75,-798 533.5,-706.18 546.72,-684.66 557,-593 560.31,-563.45 557.18,-349.8 575,-326 659.66,-212.95 1112.22,-199.57 1287.03,-198.69"/>
<polygon fill="black" stroke="black" points="1286.88,-202.19 1296.87,-198.65 1286.85,-195.19 1286.88,-202.19"/>
<text text-anchor="middle" x="879.5" y="-240.52" font-family="Helvetica,sans-Serif" font-size="10.00">v1.0.4</text>
</g>
<!-- grol.io/grol -->
<g id="node44" class="node">
<title>grol.io/grol</title>
<path fill="lightgreen" stroke="black" d="M668.25,-529C668.25,-529 613.25,-529 613.25,-529 607.25,-529 601.25,-523 601.25,-517 601.25,-517 601.25,-505 601.25,-505 601.25,-499 607.25,-493 613.25,-493 613.25,-493 668.25,-493 668.25,-493 674.25,-493 680.25,-499 680.25,-505 680.25,-505 680.25,-517 680.25,-517 680.25,-523 674.25,-529 668.25,-529"/>
<text text-anchor="middle" x="640.75" y="-505.2" font-family="Helvetica,sans-Serif" font-size="14.00">grol.io/grol</text>
</g>
<!-- fortio.org/fortio&#45;&gt;grol.io/grol -->
<g id="edge21" class="edge">
<title>fortio.org/fortio&#45;&gt;grol.io/grol</title>
<path fill="none" stroke="black" d="M459.17,-1358.07C477.12,-1352.28 495.58,-1342.72 506.75,-1327 552.79,-1262.2 486.4,-1039.38 524.75,-969.75 533.21,-954.39 548.59,-962.39 557,-947 578.82,-907.08 548.95,-575.29 575,-538 579.07,-532.17 584.66,-527.59 590.86,-524"/>
<polygon fill="black" stroke="black" points="592.11,-527.28 599.6,-519.79 589.07,-520.98 592.11,-527.28"/>
<text text-anchor="middle" x="540.88" y="-971.5" font-family="Helvetica,sans-Serif" font-size="10.00">v0.80.3</text>
</g>
<!-- fortio.org/fortiotel -->
<g id="node6" class="node">
<title>fortio.org/fortiotel</title>
<path fill="lightblue" stroke="black" d="M166.38,-1833C166.38,-1833 73.12,-1833 73.12,-1833 67.12,-1833 61.12,-1827 61.12,-1821 61.12,-1821 61.12,-1809 61.12,-1809 61.12,-1803 67.12,-1797 73.12,-1797 73.12,-1797 166.38,-1797 166.38,-1797 172.38,-1797 178.38,-1803 178.38,-1809 178.38,-1809 178.38,-1821 178.38,-1821 178.38,-1827 172.38,-1833 166.38,-1833"/>
<text text-anchor="middle" x="119.75" y="-1809.2" font-family="Helvetica,sans-Serif" font-size="14.00">fortio.org/fortiotel</text>
</g>
<!-- fortio.org/fortiotel&#45;&gt;fortio.org/cli -->
<g id="edge22" class="edge">
<title>fortio.org/fortiotel&#45;&gt;fortio.org/cli</title>
<path fill="none" stroke="black" d="M130.78,-1796.57C164.44,-1734.4 272.2,-1532.25 289.75,-1461 302.44,-1409.5 272.52,-1023.64 307.75,-984 340.17,-947.52 476.24,-955.37 524.75,-950 738.12,-926.39 994.07,-922.51 1103.33,-921.99"/>
<polygon fill="black" stroke="black" points="1103.18,-925.5 1113.16,-921.96 1103.15,-918.5 1103.18,-925.5"/>
<text text-anchor="middle" x="640.75" y="-946.16" font-family="Helvetica,sans-Serif" font-size="10.00">v1.10.0</text>
</g>
<!-- fortio.org/fortiotel&#45;&gt;fortio.org/dflag -->
<g id="edge23" class="edge">
<title>fortio.org/fortiotel&#45;&gt;fortio.org/dflag</title>
<path fill="none" stroke="black" d="M134.68,-1833.28C157.03,-1860.91 203.86,-1912.19 257.5,-1932 270.95,-1936.97 275.42,-1932.17 289.75,-1932 382.38,-1930.89 619.24,-1953.11 706.5,-1922 716.05,-1918.6 715.26,-1912.17 724.5,-1908 753.4,-1894.97 787.9,-1887.79 816.91,-1883.84"/>
<polygon fill="black" stroke="black" points="817.16,-1887.34 826.65,-1882.62 816.29,-1880.39 817.16,-1887.34"/>
<text text-anchor="middle" x="540.88" y="-1940.41" font-family="Helvetica,sans-Serif" font-size="10.00">v1.8.1</text>
</g>
<!-- fortio.org/fortiotel&#45;&gt;fortio.org/fortio -->
<g id="edge24" class="edge">
<title>fortio.org/fortiotel&#45;&gt;fortio.org/fortio</title>
<path fill="none" stroke="black" d="M132.47,-1796.6C176.9,-1726.9 335.03,-1478.76 388.46,-1394.91"/>
<polygon fill="black" stroke="black" points="391.35,-1396.89 393.77,-1386.58 385.45,-1393.13 391.35,-1396.89"/>
<text text-anchor="middle" x="273.62" y="-1592.75" font-family="Helvetica,sans-Serif" font-size="10.00">v1.69.1</text>
</g>
<!-- fortio.org/fortiotel&#45;&gt;fortio.org/log -->
<g id="edge25" class="edge">
<title>fortio.org/fortiotel&#45;&gt;fortio.org/log</title>
<path fill="none" stroke="black" d="M178.76,-1824.08C257.06,-1835.83 401.01,-1855.67 524.75,-1863 627.15,-1869.06 883.39,-1837.68 984.25,-1819 1118.46,-1794.15 1189.76,-1840.74 1280.75,-1739 1342.3,-1670.18 1353.53,-1373.01 1355.56,-1277.6"/>
<polygon fill="black" stroke="black" points="1359.05,-1277.84 1355.75,-1267.77 1352.06,-1277.7 1359.05,-1277.84"/>
<text text-anchor="middle" x="740.62" y="-1854.88" font-family="Helvetica,sans-Serif" font-size="10.00">v1.17.2</text>
</g>
<!-- fortio.org/struct2env -->
<g id="node18" class="node">
<title>fortio.org/struct2env</title>
<path fill="lightblue" stroke="black" d="M1601.5,-117C1601.5,-117 1490.25,-117 1490.25,-117 1484.25,-117 1478.25,-111 1478.25,-105 1478.25,-105 1478.25,-93 1478.25,-93 1478.25,-87 1484.25,-81 1490.25,-81 1490.25,-81 1601.5,-81 1601.5,-81 1607.5,-81 1613.5,-87 1613.5,-93 1613.5,-93 1613.5,-105 1613.5,-105 1613.5,-111 1607.5,-117 1601.5,-117"/>
<text text-anchor="middle" x="1545.88" y="-93.2" font-family="Helvetica,sans-Serif" font-size="14.00">fortio.org/struct2env</text>
</g>
<!-- fortio.org/log&#45;&gt;fortio.org/struct2env -->
<g id="edge26" class="edge">
<title>fortio.org/log&#45;&gt;fortio.org/struct2env</title>
<path fill="none" stroke="black" d="M1360.94,-1229.95C1382.25,-1098.9 1513.18,-293.85 1540.06,-128.62"/>
<polygon fill="black" stroke="black" points="1543.48,-129.36 1541.63,-118.93 1536.57,-128.24 1543.48,-129.36"/>
<text text-anchor="middle" x="1446.75" y="-778.16" font-family="Helvetica,sans-Serif" font-size="10.00">v0.4.2</text>
</g>
<!-- fortio.org/logc -->
<g id="node8" class="node">
<title>fortio.org/logc</title>
<path fill="lightblue" stroke="black" d="M444.12,-811C444.12,-811 370.38,-811 370.38,-811 364.38,-811 358.38,-805 358.38,-799 358.38,-799 358.38,-787 358.38,-787 358.38,-781 364.38,-775 370.38,-775 370.38,-775 444.12,-775 444.12,-775 450.12,-775 456.12,-781 456.12,-787 456.12,-787 456.12,-799 456.12,-799 456.12,-805 450.12,-811 444.12,-811"/>
<text text-anchor="middle" x="407.25" y="-787.2" font-family="Helvetica,sans-Serif" font-size="14.00">fortio.org/logc</text>
</g>
<!-- fortio.org/logc&#45;&gt;fortio.org/cli -->
<g id="edge27" class="edge">
<title>fortio.org/logc&#45;&gt;fortio.org/cli</title>
<path fill="none" stroke="black" d="M456.57,-787.69C590.25,-773.89 962.14,-741.69 1067.5,-798 1105.87,-818.51 1131.79,-863.57 1145.48,-893.35"/>
<polygon fill="black" stroke="black" points="1142.13,-894.43 1149.36,-902.17 1148.54,-891.61 1142.13,-894.43"/>
<text text-anchor="middle" x="740.62" y="-769.55" font-family="Helvetica,sans-Serif" font-size="10.00">v1.10.0</text>
</g>
<!-- fortio.org/logc&#45;&gt;fortio.org/log -->
<g id="edge28" class="edge">
<title>fortio.org/logc&#45;&gt;fortio.org/log</title>
<path fill="none" stroke="black" d="M426.91,-774.54C459.19,-741.42 525.03,-668.28 557,-593 576.19,-547.81 549.95,-526.23 575,-484 603.75,-435.53 722.27,-348.29 774.75,-327.75 964.11,-253.65 1083.01,-228.02 1230.5,-368 1356.68,-487.75 1357.95,-1079.06 1356.46,-1218.5"/>
<polygon fill="black" stroke="black" points="1352.96,-1218.31 1356.33,-1228.36 1359.96,-1218.4 1352.96,-1218.31"/>
<text text-anchor="middle" x="879.5" y="-329.5" font-family="Helvetica,sans-Serif" font-size="10.00">v1.17.2</text>
</g>
<!-- fortio.org/logc&#45;&gt;fortio.org/scli -->
<g id="edge29" class="edge">
<title>fortio.org/logc&#45;&gt;fortio.org/scli</title>
<path fill="none" stroke="black" d="M434.7,-811.32C468.13,-835.83 525.12,-882.46 557,-935.75 609.75,-1023.91 629.95,-1146.87 636.73,-1202.54"/>
<polygon fill="black" stroke="black" points="633.22,-1202.63 637.84,-1212.17 640.17,-1201.83 633.22,-1202.63"/>
<text text-anchor="middle" x="540.88" y="-937.5" font-family="Helvetica,sans-Serif" font-size="10.00">v1.15.3</text>
</g>
<!-- fortio.org/memstore -->
<g id="node9" class="node">
<title>fortio.org/memstore</title>
<path fill="lightblue" stroke="black" d="M175,-2002C175,-2002 64.5,-2002 64.5,-2002 58.5,-2002 52.5,-1996 52.5,-1990 52.5,-1990 52.5,-1978 52.5,-1978 52.5,-1972 58.5,-1966 64.5,-1966 64.5,-1966 175,-1966 175,-1966 181,-1966 187,-1972 187,-1978 187,-1978 187,-1990 187,-1990 187,-1996 181,-2002 175,-2002"/>
<text text-anchor="middle" x="119.75" y="-1978.2" font-family="Helvetica,sans-Serif" font-size="14.00">fortio.org/memstore</text>
</g>
<!-- fortio.org/memstore&#45;&gt;fortio.org/dflag -->
<g id="edge30" class="edge">
<title>fortio.org/memstore&#45;&gt;fortio.org/dflag</title>
<path fill="none" stroke="black" d="M187.24,-1988.41C304.64,-1994.27 555.28,-1998.13 756.75,-1942 786.91,-1933.6 818.22,-1917.2 841.53,-1903.24"/>
<polygon fill="black" stroke="black" points="843.34,-1906.23 850.04,-1898.02 839.68,-1900.27 843.34,-1906.23"/>
<text text-anchor="middle" x="540.88" y="-1984.04" font-family="Helvetica,sans-Serif" font-size="10.00">v1.7.3</text>
</g>
<!-- fortio.org/memstore&#45;&gt;fortio.org/fortio -->
<g id="edge31" class="edge">
<title>fortio.org/memstore&#45;&gt;fortio.org/fortio</title>
<path fill="none" stroke="black" d="M141.46,-1965.51C168.34,-1940.31 214.74,-1892.5 239.5,-1842 255.12,-1810.14 294.61,-1562.96 307.75,-1530 328.06,-1479.07 363.4,-1425.72 385.76,-1394.46"/>
<polygon fill="black" stroke="black" points="388.34,-1396.87 391.37,-1386.72 382.67,-1392.76 388.34,-1396.87"/>
<text text-anchor="middle" x="273.62" y="-1768.54" font-family="Helvetica,sans-Serif" font-size="10.00">v1.68.0</text>
</g>
<!-- fortio.org/memstore&#45;&gt;fortio.org/log -->
<g id="edge32" class="edge">
<title>fortio.org/memstore&#45;&gt;fortio.org/log</title>
<path fill="none" stroke="black" d="M139.21,-2002.27C191.63,-2053.36 341.8,-2194 406.25,-2194 406.25,-2194 406.25,-2194 741.62,-2194 786.63,-2194 1280.31,-2100.49 1280.75,-2100 1337.32,-2037.96 1352.67,-1420.59 1355.48,-1277.5"/>
<polygon fill="black" stroke="black" points="1358.97,-1277.8 1355.66,-1267.74 1351.97,-1277.67 1358.97,-1277.8"/>
<text text-anchor="middle" x="740.62" y="-2195.75" font-family="Helvetica,sans-Serif" font-size="10.00">v1.17.1</text>
</g>
<!-- fortio.org/memstore&#45;&gt;fortio.org/scli -->
<g id="edge33" class="edge">
<title>fortio.org/memstore&#45;&gt;fortio.org/scli</title>
<path fill="none" stroke="black" d="M187.31,-1971.15C223.82,-1960.43 266.31,-1941.16 289.75,-1907 327.94,-1851.33 280.89,-1665.68 307.75,-1603.75 358.88,-1485.86 421.7,-1490.33 506.75,-1394 547.52,-1347.82 592.53,-1291.87 618.34,-1259.27"/>
<polygon fill="black" stroke="black" points="621.01,-1261.54 624.47,-1251.52 615.52,-1257.2 621.01,-1261.54"/>
<text text-anchor="middle" x="407.25" y="-1605.5" font-family="Helvetica,sans-Serif" font-size="10.00">v1.15.3</text>
</g>
<!-- fortio.org/memstore&#45;&gt;fortio.org/sets -->
<g id="edge34" class="edge">
<title>fortio.org/memstore&#45;&gt;fortio.org/sets</title>
<path fill="none" stroke="black" d="M179.5,-2002.42C349.11,-2054.29 836.81,-2193.88 984.25,-2132 1056.28,-2101.77 1113.39,-2025.23 1140.25,-1983.75"/>
<polygon fill="black" stroke="black" points="1143.07,-1985.84 1145.46,-1975.52 1137.16,-1982.1 1143.07,-1985.84"/>
<text text-anchor="middle" x="640.75" y="-2132.94" font-family="Helvetica,sans-Serif" font-size="10.00">v1.2.0</text>
</g>
<!-- fortio.org/multicurl -->
<g id="node10" class="node">
<title>fortio.org/multicurl</title>
<path fill="lightblue" stroke="black" d="M929.5,-1395C929.5,-1395 829.5,-1395 829.5,-1395 823.5,-1395 817.5,-1389 817.5,-1383 817.5,-1383 817.5,-1371 817.5,-1371 817.5,-1365 823.5,-1359 829.5,-1359 829.5,-1359 929.5,-1359 929.5,-1359 935.5,-1359 941.5,-1365 941.5,-1371 941.5,-1371 941.5,-1383 941.5,-1383 941.5,-1389 935.5,-1395 929.5,-1395"/>
<text text-anchor="middle" x="879.5" y="-1371.2" font-family="Helvetica,sans-Serif" font-size="14.00">fortio.org/multicurl</text>
</g>
<!-- fortio.org/multicurl&#45;&gt;fortio.org/cli -->
<g id="edge35" class="edge">
<title>fortio.org/multicurl&#45;&gt;fortio.org/cli</title>
<path fill="none" stroke="black" d="M922.97,-1358.61C944.74,-1346.97 969.68,-1329.79 984.25,-1307 1011.23,-1264.8 975.21,-1237.91 1002.25,-1195.75 1021.1,-1166.36 1048.99,-1181.6 1067.5,-1152 1098.43,-1102.55 1063.91,-1076.19 1085.5,-1022 1096.36,-994.74 1116.18,-967.91 1132.2,-948.92"/>
<polygon fill="black" stroke="black" points="1134.82,-951.25 1138.72,-941.4 1129.52,-946.67 1134.82,-951.25"/>
<text text-anchor="middle" x="1034.88" y="-1197.5" font-family="Helvetica,sans-Serif" font-size="10.00">v1.10.0</text>
</g>
<!-- fortio.org/multicurl&#45;&gt;fortio.org/log -->
<g id="edge36" class="edge">
<title>fortio.org/multicurl&#45;&gt;fortio.org/log</title>
<path fill="none" stroke="black" d="M941.95,-1391.44C1014.25,-1405.27 1136.36,-1418.65 1230.5,-1378 1279.1,-1357.01 1318.15,-1307.21 1339.13,-1275.7"/>
<polygon fill="black" stroke="black" points="1341.98,-1277.74 1344.48,-1267.44 1336.11,-1273.94 1341.98,-1277.74"/>
<text text-anchor="middle" x="1158" y="-1406.83" font-family="Helvetica,sans-Serif" font-size="10.00">v1.17.2</text>
</g>
<!-- fortio.org/progressbar -->
<g id="node12" class="node">
<title>fortio.org/progressbar</title>
<path fill="lightblue" stroke="black" d="M1218.5,-1369C1218.5,-1369 1097.5,-1369 1097.5,-1369 1091.5,-1369 1085.5,-1363 1085.5,-1357 1085.5,-1357 1085.5,-1345 1085.5,-1345 1085.5,-1339 1091.5,-1333 1097.5,-1333 1097.5,-1333 1218.5,-1333 1218.5,-1333 1224.5,-1333 1230.5,-1339 1230.5,-1345 1230.5,-1345 1230.5,-1357 1230.5,-1357 1230.5,-1363 1224.5,-1369 1218.5,-1369"/>
<text text-anchor="middle" x="1158" y="-1345.2" font-family="Helvetica,sans-Serif" font-size="14.00">fortio.org/progressbar</text>
</g>
<!-- fortio.org/multicurl&#45;&gt;fortio.org/progressbar -->
<g id="edge37" class="edge">
<title>fortio.org/multicurl&#45;&gt;fortio.org/progressbar</title>
<path fill="none" stroke="black" d="M941.86,-1371.23C980.63,-1367.58 1031.22,-1362.83 1073.61,-1358.84"/>
<polygon fill="black" stroke="black" points="1073.91,-1362.33 1083.53,-1357.91 1073.25,-1355.36 1073.91,-1362.33"/>
<text text-anchor="middle" x="1034.88" y="-1366.53" font-family="Helvetica,sans-Serif" font-size="10.00">v0.12.0</text>
</g>
<!-- fortio.org/multicurl&#45;&gt;fortio.org/testscript -->
<g id="edge38" class="edge">
<title>fortio.org/multicurl&#45;&gt;fortio.org/testscript</title>
<path fill="none" stroke="black" d="M941.99,-1393.47C992.09,-1407.14 1056.31,-1425.34 1067.5,-1431.75 1093.44,-1446.6 1117.79,-1470.43 1134.52,-1488.96"/>
<polygon fill="black" stroke="black" points="1131.86,-1491.23 1141.1,-1496.43 1137.12,-1486.61 1131.86,-1491.23"/>
<text text-anchor="middle" x="1034.88" y="-1433.5" font-family="Helvetica,sans-Serif" font-size="10.00">v0.3.2</text>
</g>
<!-- fortio.org/multicurl&#45;&gt;fortio.org/version -->
<g id="edge39" class="edge">
<title>fortio.org/multicurl&#45;&gt;fortio.org/version</title>
<path fill="none" stroke="black" d="M917.28,-1358.67C938.97,-1346.41 965.7,-1328.59 984.25,-1307 996.43,-1292.83 988.79,-1281.97 1002.25,-1269 1024.97,-1247.1 1048.45,-1266.16 1067.5,-1241 1104.63,-1191.95 1044.34,-1149.47 1085.5,-1103.75 1147.16,-1035.27 1234.47,-1113.69 1280.75,-1034 1321.95,-963.06 1348.94,-369.49 1354.8,-228.81"/>
<polygon fill="black" stroke="black" points="1358.3,-228.99 1355.21,-218.85 1351.3,-228.7 1358.3,-228.99"/>
<text text-anchor="middle" x="1158" y="-1105.5" font-family="Helvetica,sans-Serif" font-size="10.00">v1.0.4</text>
</g>
<!-- fortio.org/otel&#45;sample&#45;app -->
<g id="node11" class="node">
<title>fortio.org/otel&#45;sample&#45;app</title>
<path fill="lightblue" stroke="black" d="M193,-2207C193,-2207 46.5,-2207 46.5,-2207 40.5,-2207 34.5,-2201 34.5,-2195 34.5,-2195 34.5,-2183 34.5,-2183 34.5,-2177 40.5,-2171 46.5,-2171 46.5,-2171 193,-2171 193,-2171 199,-2171 205,-2177 205,-2183 205,-2183 205,-2195 205,-2195 205,-2201 199,-2207 193,-2207"/>
<text text-anchor="middle" x="119.75" y="-2183.2" font-family="Helvetica,sans-Serif" font-size="14.00">fortio.org/otel&#45;sample&#45;app</text>
</g>
<!-- fortio.org/proxy -->
<g id="node13" class="node">
<title>fortio.org/proxy</title>
<path fill="lightblue" stroke="black" d="M160.75,-1444C160.75,-1444 78.75,-1444 78.75,-1444 72.75,-1444 66.75,-1438 66.75,-1432 66.75,-1432 66.75,-1420 66.75,-1420 66.75,-1414 72.75,-1408 78.75,-1408 78.75,-1408 160.75,-1408 160.75,-1408 166.75,-1408 172.75,-1414 172.75,-1420 172.75,-1420 172.75,-1432 172.75,-1432 172.75,-1438 166.75,-1444 160.75,-1444"/>
<text text-anchor="middle" x="119.75" y="-1420.2" font-family="Helvetica,sans-Serif" font-size="14.00">fortio.org/proxy</text>
</g>
<!-- fortio.org/proxy&#45;&gt;fortio.org/cli -->
<g id="edge40" class="edge">
<title>fortio.org/proxy&#45;&gt;fortio.org/cli</title>
<path fill="none" stroke="black" d="M139.42,-1407.94C165.7,-1381.45 213.34,-1329.39 239.5,-1276 254.21,-1245.99 246.71,-1234.63 257.5,-1203 268.96,-1169.43 280.65,-1164.28 289.75,-1130 299.73,-1092.43 281.58,-984.74 307.75,-956 309.02,-954.6 573.12,-902.94 575,-902.75 763.9,-883.28 812.36,-899.83 1002.25,-899 1031.25,-898.87 1038.73,-895.36 1067.5,-899 1079.32,-900.49 1091.81,-903.06 1103.6,-905.94"/>
<polygon fill="black" stroke="black" points="1102.61,-909.3 1113.16,-908.41 1104.35,-902.52 1102.61,-909.3"/>
<text text-anchor="middle" x="640.75" y="-904.5" font-family="Helvetica,sans-Serif" font-size="10.00">v1.10.0</text>
</g>
<!-- fortio.org/proxy&#45;&gt;fortio.org/dflag -->
<g id="edge41" class="edge">
<title>fortio.org/proxy&#45;&gt;fortio.org/dflag</title>
<path fill="none" stroke="black" d="M173.22,-1426.18C196.27,-1428.95 222.01,-1436.11 239.5,-1453 240.83,-1454.29 306.51,-1709.62 307.75,-1711 441.27,-1859.47 698.59,-1879.51 816.61,-1880.42"/>
<polygon fill="black" stroke="black" points="816.4,-1883.92 826.41,-1880.45 816.42,-1876.92 816.4,-1883.92"/>
<text text-anchor="middle" x="540.88" y="-1849.68" font-family="Helvetica,sans-Serif" font-size="10.00">v1.8.1</text>
</g>
<!-- fortio.org/proxy&#45;&gt;fortio.org/fortio -->
<g id="edge42" class="edge">
<title>fortio.org/proxy&#45;&gt;fortio.org/fortio</title>
<path fill="none" stroke="black" d="M173.01,-1416.67C206.46,-1410.56 250.74,-1402.21 289.75,-1394 307.5,-1390.26 326.7,-1385.93 344.3,-1381.85"/>
<polygon fill="black" stroke="black" points="344.9,-1385.3 353.84,-1379.62 343.3,-1378.49 344.9,-1385.3"/>
<text text-anchor="middle" x="273.62" y="-1402.35" font-family="Helvetica,sans-Serif" font-size="10.00">v1.69.1</text>
</g>
<!-- fortio.org/proxy&#45;&gt;fortio.org/log -->
<g id="edge43" class="edge">
<title>fortio.org/proxy&#45;&gt;fortio.org/log</title>
<path fill="none" stroke="black" d="M173.08,-1435.6C193.99,-1440.03 218.13,-1445.9 239.5,-1453 247.81,-1455.76 249.15,-1458.38 257.5,-1461 372.9,-1497.13 404.37,-1500.62 524.75,-1512 539.02,-1513.35 543.83,-1517.66 557,-1512 567.69,-1507.4 565.35,-1499.5 575,-1493 646.94,-1444.58 699.46,-1487.1 756.75,-1422 778.54,-1397.24 750.46,-1372.32 774.75,-1350 858.62,-1272.92 1169.35,-1291.77 1280.75,-1268 1287.1,-1266.64 1293.72,-1265.09 1300.28,-1263.47"/>
<polygon fill="black" stroke="black" points="1300.92,-1266.92 1309.74,-1261.06 1299.19,-1260.13 1300.92,-1266.92"/>
<text text-anchor="middle" x="740.62" y="-1450.16" font-family="Helvetica,sans-Serif" font-size="10.00">v1.17.2</text>
</g>
<!-- fortio.org/proxy&#45;&gt;fortio.org/scli -->
<g id="edge44" class="edge">
<title>fortio.org/proxy&#45;&gt;fortio.org/scli</title>
<path fill="none" stroke="black" d="M172.93,-1411.55C211.57,-1398.02 262.12,-1373.79 289.75,-1334 322.08,-1287.44 264.94,-1244.89 307.75,-1207.75 386.54,-1139.4 519.25,-1179.48 590.69,-1209.07"/>
<polygon fill="black" stroke="black" points="589.23,-1212.25 599.8,-1212.94 591.97,-1205.81 589.23,-1212.25"/>
<text text-anchor="middle" x="407.25" y="-1209.5" font-family="Helvetica,sans-Serif" font-size="10.00">v1.16.1</text>
</g>
<!-- fortio.org/scli&#45;&gt;fortio.org/cli -->
<g id="edge45" class="edge">
<title>fortio.org/scli&#45;&gt;fortio.org/cli</title>
<path fill="none" stroke="black" d="M652.83,-1213.55C683.1,-1163.29 765.5,-1027.24 774.75,-1020.75 852.76,-966 892.06,-999.16 984.25,-975 1024.78,-964.38 1070.03,-950.41 1104.05,-939.49"/>
<polygon fill="black" stroke="black" points="1104.8,-942.92 1113.24,-936.52 1102.65,-936.26 1104.8,-942.92"/>
<text text-anchor="middle" x="879.5" y="-1022.5" font-family="Helvetica,sans-Serif" font-size="10.00">v1.10.0</text>
</g>
<!-- fortio.org/scli&#45;&gt;fortio.org/dflag -->
<g id="edge46" class="edge">
<title>fortio.org/scli&#45;&gt;fortio.org/dflag</title>
<path fill="none" stroke="black" d="M647.57,-1250.46C660.26,-1291.36 690.53,-1392.9 706.5,-1480 719.97,-1553.43 699.83,-1576.54 724.5,-1647 733.33,-1672.22 747.25,-1672.77 756.75,-1697.75 774.55,-1744.57 747.77,-1766.8 774.75,-1809 787.16,-1828.41 807.08,-1843.75 826.17,-1855.06"/>
<polygon fill="black" stroke="black" points="824.28,-1858.01 834.71,-1859.86 827.71,-1851.91 824.28,-1858.01"/>
<text text-anchor="middle" x="740.62" y="-1699.5" font-family="Helvetica,sans-Serif" font-size="10.00">v1.8.1</text>
</g>
<!-- fortio.org/scli&#45;&gt;fortio.org/log -->
<g id="edge47" class="edge">
<title>fortio.org/scli&#45;&gt;fortio.org/log</title>
<path fill="none" stroke="black" d="M687.24,-1233.02C812.49,-1235.82 1162.19,-1243.66 1299.57,-1246.74"/>
<polygon fill="black" stroke="black" points="1299.44,-1250.23 1309.51,-1246.96 1299.59,-1243.24 1299.44,-1250.23"/>
<text text-anchor="middle" x="1034.88" y="-1243.22" font-family="Helvetica,sans-Serif" font-size="10.00">v1.17.2</text>
</g>
<!-- fortio.org/scli&#45;&gt;fortio.org/version -->
<g id="edge48" class="edge">
<title>fortio.org/scli&#45;&gt;fortio.org/version</title>
<path fill="none" stroke="black" d="M647.09,-1213.79C659.86,-1169.35 692.2,-1051.62 706.5,-951 726.67,-809.09 704.75,-770.97 724.5,-629 725.38,-622.68 770.39,-409.66 774.75,-405 841.07,-334.07 892.34,-374.34 984.25,-343 1098.28,-304.12 1229.11,-251.54 1301.17,-221.86"/>
<polygon fill="black" stroke="black" points="1302.49,-225.1 1310.4,-218.05 1299.82,-218.63 1302.49,-225.1"/>
<text text-anchor="middle" x="1034.88" y="-338.03" font-family="Helvetica,sans-Serif" font-size="10.00">v1.0.4</text>
</g>
<!-- fortio.org/sets&#45;&gt;fortio.org/assert -->
<g id="edge49" class="edge">
<title>fortio.org/sets&#45;&gt;fortio.org/assert</title>
<path fill="none" stroke="black" d="M1175.46,-1974.3C1210.22,-2012.94 1291.27,-2103.04 1331.89,-2148.2"/>
<polygon fill="black" stroke="black" points="1329.15,-2150.38 1338.44,-2155.48 1334.35,-2145.7 1329.15,-2150.38"/>
<text text-anchor="middle" x="1264.62" y="-2086.87" font-family="Helvetica,sans-Serif" font-size="10.00">v1.2.1</text>
</g>
<!-- fortio.org/slack&#45;proxy -->
<g id="node17" class="node">
<title>fortio.org/slack&#45;proxy</title>
<path fill="lightblue" stroke="black" d="M178.38,-2153C178.38,-2153 61.12,-2153 61.12,-2153 55.12,-2153 49.12,-2147 49.12,-2141 49.12,-2141 49.12,-2129 49.12,-2129 49.12,-2123 55.12,-2117 61.12,-2117 61.12,-2117 178.38,-2117 178.38,-2117 184.38,-2117 190.38,-2123 190.38,-2129 190.38,-2129 190.38,-2141 190.38,-2141 190.38,-2147 184.38,-2153 178.38,-2153"/>
<text text-anchor="middle" x="119.75" y="-2129.2" font-family="Helvetica,sans-Serif" font-size="14.00">fortio.org/slack&#45;proxy</text>
</g>
<!-- fortio.org/slack&#45;proxy&#45;&gt;fortio.org/assert -->
<g id="edge50" class="edge">
<title>fortio.org/slack&#45;proxy&#45;&gt;fortio.org/assert</title>
<path fill="none" stroke="black" d="M190.78,-2137.65C208.72,-2141.6 226.57,-2148.91 239.5,-2162 266.33,-2189.17 229.82,-2219.7 257.5,-2246 306.05,-2292.13 339.28,-2270 406.25,-2270 406.25,-2270 406.25,-2270 1159,-2270 1223.41,-2270 1288.95,-2228.29 1325.85,-2200.15"/>
<polygon fill="black" stroke="black" points="1327.68,-2203.16 1333.4,-2194.25 1323.37,-2197.64 1327.68,-2203.16"/>
<text text-anchor="middle" x="740.62" y="-2271.75" font-family="Helvetica,sans-Serif" font-size="10.00">v1.2.1</text>
</g>
<!-- fortio.org/slack&#45;proxy&#45;&gt;fortio.org/fortio -->
<g id="edge51" class="edge">
<title>fortio.org/slack&#45;proxy&#45;&gt;fortio.org/fortio</title>
<path fill="none" stroke="black" d="M144.85,-2116.78C172.16,-2094.78 215.94,-2055.19 239.5,-2011 288.53,-1919.06 274.83,-1885.13 289.75,-1782 305.83,-1670.87 273.77,-1637.02 307.75,-1530 324.34,-1477.74 360.78,-1424.78 384.38,-1393.96"/>
<polygon fill="black" stroke="black" points="386.94,-1396.37 390.33,-1386.33 381.42,-1392.07 386.94,-1396.37"/>
<text text-anchor="middle" x="273.62" y="-1972.55" font-family="Helvetica,sans-Serif" font-size="10.00">v1.69.1</text>
</g>
<!-- fortio.org/slack&#45;proxy&#45;&gt;fortio.org/log -->
<g id="edge52" class="edge">
<title>fortio.org/slack&#45;proxy&#45;&gt;fortio.org/log</title>
<path fill="none" stroke="black" d="M190.68,-2148.77C206.86,-2152.54 223.9,-2156.99 239.5,-2162 316.03,-2186.56 325.87,-2232 406.25,-2232 406.25,-2232 406.25,-2232 741.62,-2232 986.63,-2232 1134.59,-2313.63 1280.75,-2117 1331.83,-2048.28 1351.39,-1422.77 1355.25,-1277.87"/>
<polygon fill="black" stroke="black" points="1358.75,-1278.05 1355.51,-1267.96 1351.75,-1277.87 1358.75,-1278.05"/>
<text text-anchor="middle" x="740.62" y="-2233.75" font-family="Helvetica,sans-Serif" font-size="10.00">v1.17.2</text>
</g>
<!-- fortio.org/slack&#45;proxy&#45;&gt;fortio.org/scli -->
<g id="edge53" class="edge">
<title>fortio.org/slack&#45;proxy&#45;&gt;fortio.org/scli</title>
<path fill="none" stroke="black" d="M145.37,-2116.67C185.35,-2085.1 262.67,-2016.08 289.75,-1936 300.1,-1905.39 285.97,-1669.62 307.75,-1645.75 368.08,-1579.64 444.77,-1679.55 506.75,-1615 531.38,-1589.35 514.46,-1490.04 524.75,-1456 547.43,-1380.97 594.75,-1301.16 621.08,-1260.07"/>
<polygon fill="black" stroke="black" points="623.96,-1262.05 626.46,-1251.75 618.09,-1258.24 623.96,-1262.05"/>
<text text-anchor="middle" x="407.25" y="-1647.5" font-family="Helvetica,sans-Serif" font-size="10.00">v1.16.1</text>
</g>
<!-- fortio.org/term -->
<g id="node19" class="node">
<title>fortio.org/term</title>
<path fill="steelblue" stroke="black" d="M1184.75,-413C1184.75,-413 1131.25,-413 1131.25,-413 1125.25,-413 1119.25,-407 1119.25,-401 1119.25,-401 1119.25,-389 1119.25,-389 1119.25,-383 1125.25,-377 1131.25,-377 1131.25,-377 1184.75,-377 1184.75,-377 1190.75,-377 1196.75,-383 1196.75,-389 1196.75,-389 1196.75,-401 1196.75,-401 1196.75,-407 1190.75,-413 1184.75,-413"/>
<text text-anchor="middle" x="1158" y="-389.2" font-family="Helvetica,sans-Serif" font-size="14.00">fortio/term</text>
</g>
<!-- fortio.org/terminal -->
<g id="node20" class="node">
<title>fortio.org/terminal</title>
<path fill="lightblue" stroke="black" d="M928.38,-450C928.38,-450 830.62,-450 830.62,-450 824.62,-450 818.62,-444 818.62,-438 818.62,-438 818.62,-426 818.62,-426 818.62,-420 824.62,-414 830.62,-414 830.62,-414 928.38,-414 928.38,-414 934.38,-414 940.38,-420 940.38,-426 940.38,-426 940.38,-438 940.38,-438 940.38,-444 934.38,-450 928.38,-450"/>
<text text-anchor="middle" x="879.5" y="-426.2" font-family="Helvetica,sans-Serif" font-size="14.00">fortio.org/terminal</text>
</g>
<!-- fortio.org/terminal&#45;&gt;fortio.org/cli -->
<g id="edge54" class="edge">
<title>fortio.org/terminal&#45;&gt;fortio.org/cli</title>
<path fill="none" stroke="black" d="M940.67,-440.54C956.42,-445.27 972.32,-452.61 984.25,-464 1001.33,-480.31 985.47,-497.38 1002.25,-514 1024.08,-535.61 1046.98,-513.9 1067.5,-536.75 1115.29,-589.96 1144.56,-811.65 1153.81,-892.41"/>
<polygon fill="black" stroke="black" points="1150.32,-892.64 1154.91,-902.18 1157.27,-891.86 1150.32,-892.64"/>
<text text-anchor="middle" x="1034.88" y="-538.5" font-family="Helvetica,sans-Serif" font-size="10.00">v1.10.0</text>
</g>
<!-- fortio.org/terminal&#45;&gt;fortio.org/log -->
<g id="edge55" class="edge">
<title>fortio.org/terminal&#45;&gt;fortio.org/log</title>
<path fill="none" stroke="black" d="M940.58,-444.97C981.44,-453.77 1036.72,-465.64 1085.5,-476 1172.24,-494.42 1221.41,-451.11 1280.75,-517 1328.47,-569.98 1350.23,-1087.81 1354.98,-1218.28"/>
<polygon fill="black" stroke="black" points="1351.48,-1218.28 1355.33,-1228.15 1358.47,-1218.03 1351.48,-1218.28"/>
<text text-anchor="middle" x="1158" y="-484.32" font-family="Helvetica,sans-Serif" font-size="10.00">v1.17.2</text>
</g>
<!-- fortio.org/terminal&#45;&gt;fortio.org/safecast -->
<g id="edge56" class="edge">
<title>fortio.org/terminal&#45;&gt;fortio.org/safecast</title>
<path fill="none" stroke="black" d="M940.84,-435.71C983.23,-438.32 1040.13,-441.81 1084.91,-444.57"/>
<polygon fill="black" stroke="black" points="1084.61,-448.06 1094.8,-445.18 1085.04,-441.07 1084.61,-448.06"/>
<text text-anchor="middle" x="1034.88" y="-444.77" font-family="Helvetica,sans-Serif" font-size="10.00">v1.0.0</text>
</g>
<!-- fortio.org/terminal&#45;&gt;fortio.org/term -->
<g id="edge57" class="edge">
<title>fortio.org/terminal&#45;&gt;fortio.org/term</title>
<path fill="none" stroke="black" d="M940.84,-423.93C990.79,-417.24 1060.89,-407.86 1107.57,-401.61"/>
<polygon fill="black" stroke="black" points="1107.95,-405.09 1117.4,-400.3 1107.03,-398.16 1107.95,-405.09"/>
<text text-anchor="middle" x="1034.88" y="-416.36" font-family="Helvetica,sans-Serif" font-size="10.00">v0.29.0&#45;fortio&#45;1</text>
</g>
<!-- fortio.org/terminal/fps -->
<g id="node21" class="node">
<title>fortio.org/terminal/fps</title>
<path fill="lightblue" stroke="black" d="M179.5,-589C179.5,-589 60,-589 60,-589 54,-589 48,-583 48,-577 48,-577 48,-565 48,-565 48,-559 54,-553 60,-553 60,-553 179.5,-553 179.5,-553 185.5,-553 191.5,-559 191.5,-565 191.5,-565 191.5,-577 191.5,-577 191.5,-583 185.5,-589 179.5,-589"/>
<text text-anchor="middle" x="119.75" y="-565.2" font-family="Helvetica,sans-Serif" font-size="14.00">fortio.org/terminal/fps</text>
</g>
<!-- fortio.org/terminal/fps&#45;&gt;fortio.org/cli -->
<g id="edge58" class="edge">
<title>fortio.org/terminal/fps&#45;&gt;fortio.org/cli</title>
<path fill="none" stroke="black" d="M137.68,-589.49C161.66,-614.34 208.14,-657.74 257.5,-678 425.18,-746.83 916.38,-673.9 1067.5,-774 1110.12,-802.23 1135.64,-858.37 1147.95,-892.81"/>
<polygon fill="black" stroke="black" points="1144.59,-893.82 1151.13,-902.16 1151.22,-891.56 1144.59,-893.82"/>
<text text-anchor="middle" x="640.75" y="-716.71" font-family="Helvetica,sans-Serif" font-size="10.00">v1.10.0</text>
</g>
<!-- fortio.org/terminal/fps&#45;&gt;fortio.org/fortio -->
<g id="edge59" class="edge">
<title>fortio.org/terminal/fps&#45;&gt;fortio.org/fortio</title>
<path fill="none" stroke="black" d="M124.21,-589.18C145.2,-698.74 256.25,-1268.2 307.75,-1327 317.59,-1338.23 331.04,-1346.36 344.84,-1352.22"/>
<polygon fill="black" stroke="black" points="343.41,-1355.42 354,-1355.74 345.92,-1348.88 343.41,-1355.42"/>
<text text-anchor="middle" x="273.62" y="-1291.76" font-family="Helvetica,sans-Serif" font-size="10.00">v1.69.1</text>
</g>
<!-- fortio.org/terminal/fps&#45;&gt;fortio.org/log -->
<g id="edge60" class="edge">
<title>fortio.org/terminal/fps&#45;&gt;fortio.org/log</title>
<path fill="none" stroke="black" d="M191.74,-569.58C209.8,-565.66 227.48,-558.06 239.5,-544 278,-498.97 234.7,-332.68 257.5,-278 270.5,-246.83 277.45,-235.92 307.75,-221 492,-130.23 1074.86,-139.98 1230.5,-274 1272.15,-309.86 1267,-333.78 1280.75,-387 1322.79,-549.72 1348.87,-1086.91 1354.74,-1218.64"/>
<polygon fill="black" stroke="black" points="1351.22,-1218.42 1355.16,-1228.26 1358.22,-1218.11 1351.22,-1218.42"/>
<text text-anchor="middle" x="740.62" y="-164.02" font-family="Helvetica,sans-Serif" font-size="10.00">v1.17.2</text>
</g>
<!-- fortio.org/terminal/fps&#45;&gt;fortio.org/safecast -->
<g id="edge61" class="edge">
<title>fortio.org/terminal/fps&#45;&gt;fortio.org/safecast</title>
<path fill="none" stroke="black" d="M191.89,-569.37C209.84,-565.43 227.42,-557.87 239.5,-544 270.26,-508.68 234.55,-374.83 257.5,-334 297.65,-262.55 324.29,-225 406.25,-225 406.25,-225 406.25,-225 741.62,-225 849.98,-225 902.57,-177.8 984.25,-249 1010.09,-271.52 980.15,-297.79 1002.25,-324 1022.59,-348.13 1046.96,-328.04 1067.5,-352 1088.4,-376.39 1064.06,-398.08 1085.5,-422 1086.08,-422.65 1086.68,-423.28 1087.29,-423.9"/>
<polygon fill="black" stroke="black" points="1084.95,-426.51 1094.9,-430.15 1089.4,-421.1 1084.95,-426.51"/>
<text text-anchor="middle" x="640.75" y="-226.75" font-family="Helvetica,sans-Serif" font-size="10.00">v1.0.0</text>
</g>
<!-- fortio.org/terminal/fps&#45;&gt;fortio.org/terminal -->
<g id="edge62" class="edge">
<title>fortio.org/terminal/fps&#45;&gt;fortio.org/terminal</title>
<path fill="none" stroke="black" d="M191.84,-561.53C208.13,-557.57 224.93,-551.95 239.5,-544 276.81,-523.63 269.07,-494.62 307.75,-477 473.91,-401.32 695.48,-411.08 807.39,-422.63"/>
<polygon fill="black" stroke="black" points="806.7,-426.07 817.02,-423.66 807.45,-419.11 806.7,-426.07"/>
<text text-anchor="middle" x="540.88" y="-423.14" font-family="Helvetica,sans-Serif" font-size="10.00">v0.29.1</text>
</g>
<!-- github.com/bwmarrin/discordgo -->
<g id="node24" class="node">
<title>github.com/bwmarrin/discordgo</title>
<path fill="coral" stroke="black" d="M694.5,-583C694.5,-583 587,-583 587,-583 581,-583 575,-577 575,-571 575,-571 575,-559 575,-559 575,-553 581,-547 587,-547 587,-547 694.5,-547 694.5,-547 700.5,-547 706.5,-553 706.5,-559 706.5,-559 706.5,-571 706.5,-571 706.5,-577 700.5,-583 694.5,-583"/>
<text text-anchor="middle" x="640.75" y="-559.2" font-family="Helvetica,sans-Serif" font-size="14.00">ldemailly/discordgo</text>
</g>
<!-- github.com/fortio/delta -->
<g id="node25" class="node">
<title>github.com/fortio/delta</title>
<path fill="lightblue" stroke="black" d="M942.25,-1572C942.25,-1572 816.75,-1572 816.75,-1572 810.75,-1572 804.75,-1566 804.75,-1560 804.75,-1560 804.75,-1548 804.75,-1548 804.75,-1542 810.75,-1536 816.75,-1536 816.75,-1536 942.25,-1536 942.25,-1536 948.25,-1536 954.25,-1542 954.25,-1548 954.25,-1548 954.25,-1560 954.25,-1560 954.25,-1566 948.25,-1572 942.25,-1572"/>
<text text-anchor="middle" x="879.5" y="-1548.2" font-family="Helvetica,sans-Serif" font-size="14.00">github.com/fortio/delta</text>
</g>
<!-- github.com/fortio/delta&#45;&gt;fortio.org/cli -->
<g id="edge63" class="edge">
<title>github.com/fortio/delta&#45;&gt;fortio.org/cli</title>
<path fill="none" stroke="black" d="M904.92,-1535.83C929.13,-1516.41 965.27,-1483.31 984.25,-1446 1004.98,-1405.26 985.5,-1387.27 1002.25,-1344.75 1021.81,-1295.12 1050.32,-1294.51 1067.5,-1244 1099.37,-1150.28 1051.48,-1114.96 1085.5,-1022 1095.52,-994.61 1115.22,-967.97 1131.4,-949.08"/>
<polygon fill="black" stroke="black" points="1134.01,-951.41 1138,-941.6 1128.76,-946.78 1134.01,-951.41"/>
<text text-anchor="middle" x="1034.88" y="-1346.5" font-family="Helvetica,sans-Serif" font-size="10.00">v1.10.0</text>
</g>
<!-- github.com/fortio/delta&#45;&gt;fortio.org/log -->
<g id="edge64" class="edge">
<title>github.com/fortio/delta&#45;&gt;fortio.org/log</title>
<path fill="none" stroke="black" d="M942.85,-1572.5C1019.45,-1591.07 1149.2,-1608.51 1230.5,-1543 1315.44,-1474.56 1343.88,-1338 1352.55,-1277.74"/>
<polygon fill="black" stroke="black" points="1356,-1278.3 1353.87,-1267.92 1349.07,-1277.37 1356,-1278.3"/>
<text text-anchor="middle" x="1158" y="-1591" font-family="Helvetica,sans-Serif" font-size="10.00">v1.17.2</text>
</g>
<!-- github.com/fortio/delta&#45;&gt;fortio.org/sets -->
<g id="edge65" class="edge">
<title>github.com/fortio/delta&#45;&gt;fortio.org/sets</title>
<path fill="none" stroke="black" d="M954.57,-1569.22C965.21,-1573.51 975.5,-1578.99 984.25,-1586 991.53,-1591.83 1064.61,-1722.88 1067.5,-1731.75 1089.85,-1800.31 1052.21,-1829.03 1085.5,-1893 1093.12,-1907.64 1105.66,-1920.44 1118.13,-1930.61"/>
<polygon fill="black" stroke="black" points="1115.87,-1933.29 1125.93,-1936.62 1120.14,-1927.74 1115.87,-1933.29"/>
<text text-anchor="middle" x="1034.88" y="-1733.5" font-family="Helvetica,sans-Serif" font-size="10.00">v1.2.0</text>
</g>
<!-- github.com/fortio/delta&#45;&gt;fortio.org/testscript -->
<g id="edge66" class="edge">
<title>github.com/fortio/delta&#45;&gt;fortio.org/testscript</title>
<path fill="none" stroke="black" d="M954.42,-1559.47C989.07,-1560.45 1030.72,-1559.32 1067.5,-1552 1081.63,-1549.19 1096.36,-1544.2 1109.71,-1538.82"/>
<polygon fill="black" stroke="black" points="1110.82,-1542.15 1118.67,-1535.04 1108.1,-1535.7 1110.82,-1542.15"/>
<text text-anchor="middle" x="1034.88" y="-1560.79" font-family="Helvetica,sans-Serif" font-size="10.00">v0.3.2</text>
</g>
<!-- github.com/fortio/h2cli -->
<g id="node26" class="node">
<title>github.com/fortio/h2cli</title>
<path fill="lightblue" stroke="black" d="M941.5,-1110C941.5,-1110 817.5,-1110 817.5,-1110 811.5,-1110 805.5,-1104 805.5,-1098 805.5,-1098 805.5,-1086 805.5,-1086 805.5,-1080 811.5,-1074 817.5,-1074 817.5,-1074 941.5,-1074 941.5,-1074 947.5,-1074 953.5,-1080 953.5,-1086 953.5,-1086 953.5,-1098 953.5,-1098 953.5,-1104 947.5,-1110 941.5,-1110"/>
<text text-anchor="middle" x="879.5" y="-1086.2" font-family="Helvetica,sans-Serif" font-size="14.00">github.com/fortio/h2cli</text>
</g>
<!-- github.com/fortio/h2cli&#45;&gt;fortio.org/cli -->
<g id="edge67" class="edge">
<title>github.com/fortio/h2cli&#45;&gt;fortio.org/cli</title>
<path fill="none" stroke="black" d="M953.93,-1078.14C964.96,-1073.68 975.54,-1067.79 984.25,-1060 999.17,-1046.67 987.58,-1032.35 1002.25,-1018.75 1024.78,-997.87 1040.74,-1011.08 1067.5,-996 1090.68,-982.94 1113.75,-963.67 1130.66,-948.07"/>
<polygon fill="black" stroke="black" points="1132.93,-950.74 1137.81,-941.34 1128.13,-945.65 1132.93,-950.74"/>
<text text-anchor="middle" x="1034.88" y="-1020.5" font-family="Helvetica,sans-Serif" font-size="10.00">v1.10.0</text>
</g>
<!-- github.com/fortio/h2cli&#45;&gt;fortio.org/log -->
<g id="edge68" class="edge">
<title>github.com/fortio/h2cli&#45;&gt;fortio.org/log</title>
<path fill="none" stroke="black" d="M934.39,-1073.59C955.31,-1067.33 979.64,-1061.13 1002.25,-1058 1037.39,-1053.13 1216.45,-1050.19 1230.5,-1057.75 1294.31,-1092.1 1331.05,-1174.66 1346.79,-1218.88"/>
<polygon fill="black" stroke="black" points="1343.48,-1220 1350.03,-1228.33 1350.1,-1217.73 1343.48,-1220"/>
<text text-anchor="middle" x="1158" y="-1059.5" font-family="Helvetica,sans-Serif" font-size="10.00">v1.17.2</text>
</g>
<!-- github.com/fortio/h2demo -->
<g id="node27" class="node">
<title>github.com/fortio/h2demo</title>
<path fill="lightblue" stroke="black" d="M192.62,-2261C192.62,-2261 46.87,-2261 46.87,-2261 40.88,-2261 34.88,-2255 34.88,-2249 34.88,-2249 34.88,-2237 34.88,-2237 34.88,-2231 40.88,-2225 46.88,-2225 46.88,-2225 192.62,-2225 192.62,-2225 198.62,-2225 204.62,-2231 204.62,-2237 204.62,-2237 204.62,-2249 204.62,-2249 204.62,-2255 198.62,-2261 192.62,-2261"/>
<text text-anchor="middle" x="119.75" y="-2237.2" font-family="Helvetica,sans-Serif" font-size="14.00">github.com/fortio/h2demo</text>
</g>
<!-- github.com/fortio/logger&#45;bench -->
<g id="node28" class="node">
<title>github.com/fortio/logger&#45;bench</title>
<path fill="lightblue" stroke="black" d="M494.75,-1702C494.75,-1702 319.75,-1702 319.75,-1702 313.75,-1702 307.75,-1696 307.75,-1690 307.75,-1690 307.75,-1678 307.75,-1678 307.75,-1672 313.75,-1666 319.75,-1666 319.75,-1666 494.75,-1666 494.75,-1666 500.75,-1666 506.75,-1672 506.75,-1678 506.75,-1678 506.75,-1690 506.75,-1690 506.75,-1696 500.75,-1702 494.75,-1702"/>
<text text-anchor="middle" x="407.25" y="-1678.2" font-family="Helvetica,sans-Serif" font-size="14.00">github.com/fortio/logger&#45;bench</text>
</g>
<!-- github.com/fortio/logger&#45;bench&#45;&gt;fortio.org/cli -->
<g id="edge69" class="edge">
<title>github.com/fortio/logger&#45;bench&#45;&gt;fortio.org/cli</title>
<path fill="none" stroke="black" d="M499.59,-1665.53C502.06,-1664.13 504.45,-1662.62 506.75,-1661 552.55,-1628.71 530.06,-1588.46 575,-1555 623.8,-1518.67 666.74,-1563.04 706.5,-1517 725.89,-1494.55 720.2,-1414.1 724.5,-1384.75 745.37,-1242.42 673.05,-1166.74 774.75,-1065 841.39,-998.34 907.2,-1086.29 984.25,-1032 997.91,-1022.38 989.89,-1010.25 1002.25,-999 1025.59,-977.76 1039.13,-984.82 1067.5,-971 1083.29,-963.31 1100.27,-954.23 1115.15,-945.99"/>
<polygon fill="black" stroke="black" points="1116.73,-949.11 1123.76,-941.18 1113.32,-943 1116.73,-949.11"/>
<text text-anchor="middle" x="740.62" y="-1386.5" font-family="Helvetica,sans-Serif" font-size="10.00">v1.10.0</text>
</g>
<!-- github.com/fortio/logger&#45;bench&#45;&gt;fortio.org/log -->
<g id="edge70" class="edge">
<title>github.com/fortio/logger&#45;bench&#45;&gt;fortio.org/log</title>
<path fill="none" stroke="black" d="M507.24,-1681.64C569.58,-1680.27 651.74,-1678.69 724.5,-1678 738.83,-1677.86 744.6,-1670.4 756.75,-1678 772.25,-1687.7 759.42,-1705.03 774.75,-1715 807.9,-1736.56 1271.38,-1731.01 1280.75,-1723 1348.64,-1665.01 1355.62,-1372.38 1356.07,-1277.64"/>
<polygon fill="black" stroke="black" points="1359.57,-1277.88 1356.1,-1267.87 1352.57,-1277.87 1359.57,-1277.88"/>
<text text-anchor="middle" x="879.5" y="-1731.43" font-family="Helvetica,sans-Serif" font-size="10.00">v1.17.2</text>
</g>
<!-- github.com/fortio/logger&#45;bench&#45;&gt;fortio.org/scli -->
<g id="edge71" class="edge">
<title>github.com/fortio/logger&#45;bench&#45;&gt;fortio.org/scli</title>
<path fill="none" stroke="black" d="M490.2,-1665.69C496.38,-1661.94 502.03,-1657.42 506.75,-1652 536.76,-1617.53 512.95,-1594.91 524.75,-1550.75 540.07,-1493.4 602.71,-1328.36 628.54,-1261.08"/>
<polygon fill="black" stroke="black" points="631.77,-1262.42 632.09,-1251.83 625.24,-1259.91 631.77,-1262.42"/>
<text text-anchor="middle" x="540.88" y="-1552.5" font-family="Helvetica,sans-Serif" font-size="10.00">v1.16.1</text>
</g>
<!-- github.com/fortio/logger&#45;bench&#45;&gt;fortio.org/sets -->
<g id="edge72" class="edge">
<title>github.com/fortio/logger&#45;bench&#45;&gt;fortio.org/sets</title>
<path fill="none" stroke="black" d="M424.79,-1702.17C490.12,-1773.7 728.85,-2032.93 774.75,-2052 896.14,-2102.43 952.47,-2073.6 1067.5,-2010 1084.47,-2000.62 1102.86,-1989.66 1118.53,-1980.08"/>
<polygon fill="black" stroke="black" points="1119.93,-1983.33 1126.61,-1975.11 1116.26,-1977.37 1119.93,-1983.33"/>
<text text-anchor="middle" x="740.62" y="-2041.58" font-family="Helvetica,sans-Serif" font-size="10.00">v1.3.0</text>
</g>
<!-- go.uber.org/zap -->
<g id="node42" class="node">
<title>go.uber.org/zap</title>
<path fill="coral" stroke="black" d="M676.12,-1804C676.12,-1804 605.38,-1804 605.38,-1804 599.38,-1804 593.38,-1798 593.38,-1792 593.38,-1792 593.38,-1780 593.38,-1780 593.38,-1774 599.38,-1768 605.38,-1768 605.38,-1768 676.12,-1768 676.12,-1768 682.12,-1768 688.12,-1774 688.12,-1780 688.12,-1780 688.12,-1792 688.12,-1792 688.12,-1798 682.12,-1804 676.12,-1804"/>
<text text-anchor="middle" x="640.75" y="-1780.2" font-family="Helvetica,sans-Serif" font-size="14.00">ldemailly/zap</text>
</g>
<!-- github.com/fortio/logger&#45;bench&#45;&gt;go.uber.org/zap -->
<g id="edge73" class="edge">
<title>github.com/fortio/logger&#45;bench&#45;&gt;go.uber.org/zap</title>
<path fill="none" stroke="black" d="M450.17,-1702.47C488.77,-1719.48 546.16,-1744.76 587.68,-1763.06"/>
<polygon fill="black" stroke="black" points="586.19,-1766.23 596.75,-1767.06 589.01,-1759.82 586.19,-1766.23"/>
<text text-anchor="middle" x="540.88" y="-1748.89" font-family="Helvetica,sans-Serif" font-size="10.00">v1.27.0</text>
</g>
<!-- github.com/fortio/semtest/v2 -->
<g id="node29" class="node">
<title>github.com/fortio/semtest/v2</title>
<path fill="lightblue" stroke="black" d="M200.88,-1498C200.88,-1498 38.62,-1498 38.62,-1498 32.62,-1498 26.62,-1492 26.62,-1486 26.62,-1486 26.62,-1474 26.62,-1474 26.62,-1468 32.62,-1462 38.62,-1462 38.62,-1462 200.88,-1462 200.88,-1462 206.88,-1462 212.88,-1468 212.88,-1474 212.88,-1474 212.88,-1486 212.88,-1486 212.88,-1492 206.88,-1498 200.88,-1498"/>
<text text-anchor="middle" x="119.75" y="-1474.2" font-family="Helvetica,sans-Serif" font-size="14.00">github.com/fortio/semtest/v2</text>
</g>
<!-- github.com/fortio/semtest/v2&#45;&gt;fortio.org/fortio -->
<g id="edge74" class="edge">
<title>github.com/fortio/semtest/v2&#45;&gt;fortio.org/fortio</title>
<path fill="none" stroke="black" d="M212.84,-1461.5C221.94,-1458.95 230.96,-1456.12 239.5,-1453 284.84,-1436.46 333.56,-1410.25 366.55,-1391.11"/>
<polygon fill="black" stroke="black" points="368.1,-1394.26 374.96,-1386.19 364.56,-1388.22 368.1,-1394.26"/>
<text text-anchor="middle" x="273.62" y="-1447.38" font-family="Helvetica,sans-Serif" font-size="10.00">v1.35.0</text>
</g>
<!-- github.com/fortio/workflows -->
<g id="node30" class="node">
<title>github.com/fortio/workflows</title>
<path fill="lightblue" stroke="black" d="M485,-1264C485,-1264 329.5,-1264 329.5,-1264 323.5,-1264 317.5,-1258 317.5,-1252 317.5,-1252 317.5,-1240 317.5,-1240 317.5,-1234 323.5,-1228 329.5,-1228 329.5,-1228 485,-1228 485,-1228 491,-1228 497,-1234 497,-1240 497,-1240 497,-1252 497,-1252 497,-1258 491,-1264 485,-1264"/>
<text text-anchor="middle" x="407.25" y="-1240.2" font-family="Helvetica,sans-Serif" font-size="14.00">github.com/fortio/workflows</text>
</g>
<!-- github.com/fortio/workflows&#45;&gt;fortio.org/log -->
<g id="edge75" class="edge">
<title>github.com/fortio/workflows&#45;&gt;fortio.org/log</title>
<path fill="none" stroke="black" d="M497.31,-1254.23C522.41,-1256.2 549.76,-1258.02 575,-1259 629.43,-1261.12 834.9,-1259.83 1067.5,-1257 1162.29,-1255.85 1186.04,-1257.03 1280.75,-1253 1286.88,-1252.74 1293.29,-1252.41 1299.67,-1252.04"/>
<polygon fill="black" stroke="black" points="1299.78,-1255.54 1309.54,-1251.43 1299.35,-1248.55 1299.78,-1255.54"/>
<text text-anchor="middle" x="879.5" y="-1261.49" font-family="Helvetica,sans-Serif" font-size="10.00">v1.17.2</text>
</g>
<!-- github.com/fortio/workflows&#45;&gt;fortio.org/scli -->
<g id="edge76" class="edge">
<title>github.com/fortio/workflows&#45;&gt;fortio.org/scli</title>
<path fill="none" stroke="black" d="M497.21,-1234.89C506.5,-1234.03 515.81,-1233.29 524.75,-1232.75 543.56,-1231.62 564.13,-1231.22 582.6,-1231.17"/>
<polygon fill="black" stroke="black" points="582.59,-1234.67 592.59,-1231.18 582.59,-1227.67 582.59,-1234.67"/>
<text text-anchor="middle" x="540.88" y="-1234.5" font-family="Helvetica,sans-Serif" font-size="10.00">v1.16.0</text>
</g>
<!-- github.com/ldemailly/advent24 -->
<g id="node31" class="node">
<title>github.com/ldemailly/advent24</title>
<path fill="lightsalmon" stroke="black" d="M967,-2043C967,-2043 792,-2043 792,-2043 786,-2043 780,-2037 780,-2031 780,-2031 780,-2019 780,-2019 780,-2013 786,-2007 792,-2007 792,-2007 967,-2007 967,-2007 973,-2007 979,-2013 979,-2019 979,-2019 979,-2031 979,-2031 979,-2037 973,-2043 967,-2043"/>
<text text-anchor="middle" x="879.5" y="-2019.2" font-family="Helvetica,sans-Serif" font-size="14.00">github.com/ldemailly/advent24</text>
</g>
<!-- github.com/ldemailly/advent24&#45;&gt;fortio.org/sets -->
<g id="edge77" class="edge">
<title>github.com/ldemailly/advent24&#45;&gt;fortio.org/sets</title>
<path fill="none" stroke="black" d="M956.06,-2006.6C990.13,-1998.26 1030.86,-1988.21 1067.5,-1979 1077.33,-1976.53 1087.75,-1973.88 1097.88,-1971.28"/>
<polygon fill="black" stroke="black" points="1098.43,-1974.76 1107.25,-1968.88 1096.69,-1967.98 1098.43,-1974.76"/>
<text text-anchor="middle" x="1034.88" y="-1996.11" font-family="Helvetica,sans-Serif" font-size="10.00">v1.2.0</text>
</g>
<!-- github.com/ldemailly/depgraph -->
<g id="node32" class="node">
<title>github.com/ldemailly/depgraph</title>
<path fill="lightsalmon" stroke="black" d="M208,-2315C208,-2315 31.5,-2315 31.5,-2315 25.5,-2315 19.5,-2309 19.5,-2303 19.5,-2303 19.5,-2291 19.5,-2291 19.5,-2285 25.5,-2279 31.5,-2279 31.5,-2279 208,-2279 208,-2279 214,-2279 220,-2285 220,-2291 220,-2291 220,-2303 220,-2303 220,-2309 214,-2315 208,-2315"/>
<text text-anchor="middle" x="119.75" y="-2291.2" font-family="Helvetica,sans-Serif" font-size="14.00">github.com/ldemailly/depgraph</text>
</g>
<!-- github.com/ldemailly/go&#45;scratch -->
<g id="node33" class="node">
<title>github.com/ldemailly/go&#45;scratch</title>
<path fill="lightsalmon" stroke="black" d="M211,-535C211,-535 28.5,-535 28.5,-535 22.5,-535 16.5,-529 16.5,-523 16.5,-523 16.5,-511 16.5,-511 16.5,-505 22.5,-499 28.5,-499 28.5,-499 211,-499 211,-499 217,-499 223,-505 223,-511 223,-511 223,-523 223,-523 223,-529 217,-535 211,-535"/>
<text text-anchor="middle" x="119.75" y="-511.2" font-family="Helvetica,sans-Serif" font-size="14.00">github.com/ldemailly/go&#45;scratch</text>
</g>
<!-- github.com/ldemailly/go&#45;scratch&#45;&gt;fortio.org/cli -->
<g id="edge78" class="edge">
<title>github.com/ldemailly/go&#45;scratch&#45;&gt;fortio.org/cli</title>
<path fill="none" stroke="black" d="M221.88,-535.38C228,-537.89 233.93,-540.75 239.5,-544 278.43,-566.71 267.88,-597.98 307.75,-619 576.26,-760.59 689.15,-641.84 984.25,-713 1022.34,-722.19 1038.1,-716.1 1067.5,-742 1113.75,-782.76 1138.79,-852.97 1149.87,-892.58"/>
<polygon fill="black" stroke="black" points="1146.45,-893.37 1152.41,-902.13 1153.22,-891.57 1146.45,-893.37"/>
<text text-anchor="middle" x="640.75" y="-694.8" font-family="Helvetica,sans-Serif" font-size="10.00">v1.4.2</text>
</g>
<!-- github.com/ldemailly/go&#45;scratch&#45;&gt;fortio.org/fortio -->
<g id="edge79" class="edge">
<title>github.com/ldemailly/go&#45;scratch&#45;&gt;fortio.org/fortio</title>
<path fill="none" stroke="black" d="M223.45,-530.19C229.47,-533.91 234.92,-538.46 239.5,-544 259.03,-567.67 252.04,-1065.81 257.5,-1096 265.48,-1140.19 279.57,-1148.01 289.75,-1191.75 296.62,-1221.28 289.19,-1303.02 307.75,-1327 317.16,-1339.16 330.87,-1347.64 345.09,-1353.55"/>
<polygon fill="black" stroke="black" points="343.47,-1356.68 354.06,-1356.88 345.91,-1350.12 343.47,-1356.68"/>
<text text-anchor="middle" x="273.62" y="-1193.5" font-family="Helvetica,sans-Serif" font-size="10.00">v1.60.3</text>
</g>
<!-- github.com/ldemailly/go&#45;scratch&#45;&gt;fortio.org/log -->
<g id="edge80" class="edge">
<title>github.com/ldemailly/go&#45;scratch&#45;&gt;fortio.org/log</title>
<path fill="none" stroke="black" d="M123.75,-498.52C136.5,-422.31 188.75,-133.75 257.5,-78 309.08,-36.18 339.85,-64 406.25,-64 406.25,-64 406.25,-64 741.62,-64 854.57,-64 1141.06,-134.02 1230.5,-203 1265.25,-229.8 1267.53,-246.15 1280.75,-288 1337.59,-467.87 1352.69,-1076.63 1355.48,-1218.35"/>
<polygon fill="black" stroke="black" points="1351.97,-1218.08 1355.66,-1228.01 1358.97,-1217.95 1351.97,-1218.08"/>
<text text-anchor="middle" x="740.62" y="-65.75" font-family="Helvetica,sans-Serif" font-size="10.00">v1.11.0</text>
</g>
<!-- github.com/ldemailly/go&#45;scratch&#45;&gt;fortio.org/scli -->
<g id="edge81" class="edge">
<title>github.com/ldemailly/go&#45;scratch&#45;&gt;fortio.org/scli</title>
<path fill="none" stroke="black" d="M223.38,-531.04C229.33,-534.58 234.79,-538.85 239.5,-544 259.77,-566.18 250.45,-648.79 257.5,-678 273.21,-743.08 275.12,-761.55 307.75,-820 397.78,-981.25 551.16,-1143.33 612.87,-1205.49"/>
<polygon fill="black" stroke="black" points="610.34,-1207.91 619.88,-1212.51 615.29,-1202.96 610.34,-1207.91"/>
<text text-anchor="middle" x="407.25" y="-1088.95" font-family="Helvetica,sans-Serif" font-size="10.00">v1.12.0</text>
</g>
<!-- golang.org/x/term -->
<g id="node43" class="node">
<title>golang.org/x/term</title>
<path fill="coral" stroke="black" d="M445.62,-129C445.62,-129 368.88,-129 368.88,-129 362.88,-129 356.88,-123 356.88,-117 356.88,-117 356.88,-105 356.88,-105 356.88,-99 362.88,-93 368.88,-93 368.88,-93 445.62,-93 445.62,-93 451.62,-93 457.62,-99 457.62,-105 457.62,-105 457.62,-117 457.62,-117 457.62,-123 451.62,-129 445.62,-129"/>
<text text-anchor="middle" x="407.25" y="-105.2" font-family="Helvetica,sans-Serif" font-size="14.00">ldemailly/term</text>
</g>
<!-- github.com/ldemailly/go&#45;scratch&#45;&gt;golang.org/x/term -->
<g id="edge82" class="edge">
<title>github.com/ldemailly/go&#45;scratch&#45;&gt;golang.org/x/term</title>
<path fill="none" stroke="black" d="M121.02,-498.82C123.02,-436.29 138.7,-228.64 257.5,-131.75 281.67,-112.04 315.73,-106.22 345.16,-105.61"/>
<polygon fill="black" stroke="black" points="345.09,-109.11 355.09,-105.62 345.09,-102.11 345.09,-109.11"/>
<text text-anchor="middle" x="273.62" y="-133.5" font-family="Helvetica,sans-Serif" font-size="10.00">v0.18.0</text>
</g>
<!-- github.com/ldemailly/gohook_sample -->
<g id="node34" class="node">
<title>github.com/ldemailly/gohook_sample</title>
<path fill="lightsalmon" stroke="black" d="M227.5,-76C227.5,-76 12,-76 12,-76 6,-76 0,-70 0,-64 0,-64 0,-52 0,-52 0,-46 6,-40 12,-40 12,-40 227.5,-40 227.5,-40 233.5,-40 239.5,-46 239.5,-52 239.5,-52 239.5,-64 239.5,-64 239.5,-70 233.5,-76 227.5,-76"/>
<text text-anchor="middle" x="119.75" y="-52.2" font-family="Helvetica,sans-Serif" font-size="14.00">github.com/ldemailly/gohook_sample</text>
</g>
<!-- github.com/ldemailly/gohook_sample&#45;&gt;fortio.org/fortio -->
<g id="edge83" class="edge">
<title>github.com/ldemailly/gohook_sample&#45;&gt;fortio.org/fortio</title>
<path fill="none" stroke="black" d="M239.62,-66.45C259.04,-73.18 276.96,-83.66 289.75,-99.75 332.18,-153.13 269.26,-1270.72 307.75,-1327 316.55,-1339.87 330.28,-1348.6 344.71,-1354.53"/>
<polygon fill="black" stroke="black" points="343.27,-1357.73 353.86,-1357.85 345.66,-1351.15 343.27,-1357.73"/>
<text text-anchor="middle" x="273.62" y="-101.5" font-family="Helvetica,sans-Serif" font-size="10.00">v1.21.1</text>
</g>
<!-- github.com/robotn/gohook -->
<g id="node40" class="node">
<title>github.com/robotn/gohook</title>
<path fill="coral" stroke="black" d="M453.88,-36C453.88,-36 360.62,-36 360.62,-36 354.62,-36 348.62,-30 348.62,-24 348.62,-24 348.62,-12 348.62,-12 348.62,-6 354.62,0 360.62,0 360.62,0 453.88,0 453.88,0 459.88,0 465.88,-6 465.88,-12 465.88,-12 465.88,-24 465.88,-24 465.88,-30 459.88,-36 453.88,-36"/>
<text text-anchor="middle" x="407.25" y="-12.2" font-family="Helvetica,sans-Serif" font-size="14.00">ldemailly/gohook</text>
</g>
<!-- github.com/ldemailly/gohook_sample&#45;&gt;github.com/robotn/gohook -->
<g id="edge84" class="edge">
<title>github.com/ldemailly/gohook_sample&#45;&gt;github.com/robotn/gohook</title>
<path fill="none" stroke="black" d="M239.71,-41.25C245.73,-40.4 251.68,-39.57 257.5,-38.75 283.48,-35.11 312.01,-31.13 337.07,-27.63"/>
<polygon fill="black" stroke="black" points="337.4,-31.12 346.82,-26.27 336.44,-24.19 337.4,-31.12"/>
<text text-anchor="middle" x="273.62" y="-40.5" font-family="Helvetica,sans-Serif" font-size="10.00">v0.31.3</text>
</g>
<!-- github.com/ldemailly/lll&#45;fixer -->
<g id="node35" class="node">
<title>github.com/ldemailly/lll&#45;fixer</title>
<path fill="lightsalmon" stroke="black" d="M958.75,-1218C958.75,-1218 800.25,-1218 800.25,-1218 794.25,-1218 788.25,-1212 788.25,-1206 788.25,-1206 788.25,-1194 788.25,-1194 788.25,-1188 794.25,-1182 800.25,-1182 800.25,-1182 958.75,-1182 958.75,-1182 964.75,-1182 970.75,-1188 970.75,-1194 970.75,-1194 970.75,-1206 970.75,-1206 970.75,-1212 964.75,-1218 958.75,-1218"/>
<text text-anchor="middle" x="879.5" y="-1194.2" font-family="Helvetica,sans-Serif" font-size="14.00">github.com/ldemailly/lll&#45;fixer</text>
</g>
<!-- github.com/ldemailly/lll&#45;fixer&#45;&gt;fortio.org/cli -->
<g id="edge85" class="edge">
<title>github.com/ldemailly/lll&#45;fixer&#45;&gt;fortio.org/cli</title>
<path fill="none" stroke="black" d="M971.17,-1181.72C975.8,-1179.18 980.21,-1176.29 984.25,-1173 998.21,-1161.66 990.38,-1150.27 1002.25,-1136.75 1025.29,-1110.51 1047.38,-1121.53 1067.5,-1093 1086.26,-1066.4 1071.8,-1051.53 1085.5,-1022 1097.93,-995.21 1117.81,-968.17 1133.46,-948.97"/>
<polygon fill="black" stroke="black" points="1136.07,-951.3 1139.78,-941.38 1130.69,-946.83 1136.07,-951.3"/>
<text text-anchor="middle" x="1034.88" y="-1138.5" font-family="Helvetica,sans-Serif" font-size="10.00">v1.9.0</text>
</g>
<!-- github.com/ldemailly/lll&#45;fixer&#45;&gt;fortio.org/log -->
<g id="edge86" class="edge">
<title>github.com/ldemailly/lll&#45;fixer&#45;&gt;fortio.org/log</title>
<path fill="none" stroke="black" d="M962.7,-1181.55C975.86,-1179.24 989.38,-1177.26 1002.25,-1176 1126.64,-1163.86 1161.98,-1176.07 1280.75,-1215 1289.52,-1217.87 1298.66,-1221.4 1307.43,-1225.07"/>
<polygon fill="black" stroke="black" points="1305.93,-1228.24 1316.5,-1228.98 1308.7,-1221.81 1305.93,-1228.24"/>
<text text-anchor="middle" x="1158" y="-1199.5" font-family="Helvetica,sans-Serif" font-size="10.00">v1.16.0</text>
</g>
<!-- github.com/ldemailly/panic&#45;linter -->
<g id="node36" class="node">
<title>github.com/ldemailly/panic&#45;linter</title>
<path fill="lightsalmon" stroke="black" d="M972.25,-1989C972.25,-1989 786.75,-1989 786.75,-1989 780.75,-1989 774.75,-1983 774.75,-1977 774.75,-1977 774.75,-1965 774.75,-1965 774.75,-1959 780.75,-1953 786.75,-1953 786.75,-1953 972.25,-1953 972.25,-1953 978.25,-1953 984.25,-1959 984.25,-1965 984.25,-1965 984.25,-1977 984.25,-1977 984.25,-1983 978.25,-1989 972.25,-1989"/>
<text text-anchor="middle" x="879.5" y="-1965.2" font-family="Helvetica,sans-Serif" font-size="14.00">github.com/ldemailly/panic&#45;linter</text>
</g>
<!-- github.com/ldemailly/panic&#45;linter&#45;&gt;fortio.org/sets -->
<g id="edge87" class="edge">
<title>github.com/ldemailly/panic&#45;linter&#45;&gt;fortio.org/sets</title>
<path fill="none" stroke="black" d="M984.64,-1965.35C1022.84,-1963.28 1064.76,-1961 1097.69,-1959.22"/>
<polygon fill="black" stroke="black" points="1097.63,-1962.73 1107.43,-1958.69 1097.25,-1955.74 1097.63,-1962.73"/>
<text text-anchor="middle" x="1034.88" y="-1965.7" font-family="Helvetica,sans-Serif" font-size="10.00">v1.2.0</text>
</g>
<!-- github.com/ldemailly/quartiles -->
<g id="node37" class="node">
<title>github.com/ldemailly/quartiles</title>
<path fill="lightsalmon" stroke="black" d="M964.75,-1673C964.75,-1673 794.25,-1673 794.25,-1673 788.25,-1673 782.25,-1667 782.25,-1661 782.25,-1661 782.25,-1649 782.25,-1649 782.25,-1643 788.25,-1637 794.25,-1637 794.25,-1637 964.75,-1637 964.75,-1637 970.75,-1637 976.75,-1643 976.75,-1649 976.75,-1649 976.75,-1661 976.75,-1661 976.75,-1667 970.75,-1673 964.75,-1673"/>
<text text-anchor="middle" x="879.5" y="-1649.2" font-family="Helvetica,sans-Serif" font-size="14.00">github.com/ldemailly/quartiles</text>
</g>
<!-- github.com/ldemailly/quartiles&#45;&gt;fortio.org/cli -->
<g id="edge88" class="edge">
<title>github.com/ldemailly/quartiles&#45;&gt;fortio.org/cli</title>
<path fill="none" stroke="black" d="M967.09,-1636.72C973.45,-1632.96 979.3,-1628.44 984.25,-1623 1010.62,-1594.05 986.75,-1572.71 1002.25,-1536.75 1022.34,-1490.13 1051.27,-1491.1 1067.5,-1443 1097.43,-1354.27 1055,-1110.54 1085.5,-1022 1095.04,-994.3 1114.91,-967.56 1131.28,-948.71"/>
<polygon fill="black" stroke="black" points="1133.67,-951.28 1137.73,-941.5 1128.46,-946.62 1133.67,-951.28"/>
<text text-anchor="middle" x="1034.88" y="-1538.5" font-family="Helvetica,sans-Serif" font-size="10.00">v1.10.0</text>
</g>
<!-- github.com/ldemailly/quartiles&#45;&gt;fortio.org/log -->
<g id="edge89" class="edge">
<title>github.com/ldemailly/quartiles&#45;&gt;fortio.org/log</title>
<path fill="none" stroke="black" d="M977.09,-1668C985.59,-1668.81 994.07,-1669.5 1002.25,-1670 1064.43,-1673.82 1235.79,-1681.12 1280.75,-1638 1332.7,-1588.17 1349.96,-1360.22 1354.57,-1277.82"/>
<polygon fill="black" stroke="black" points="1358.06,-1278.01 1355.1,-1267.84 1351.07,-1277.64 1358.06,-1278.01"/>
<text text-anchor="middle" x="1158" y="-1674.73" font-family="Helvetica,sans-Serif" font-size="10.00">v1.17.2</text>
</g>
<!-- github.com/ldemailly/quartiles&#45;&gt;fortio.org/sets -->
<g id="edge90" class="edge">
<title>github.com/ldemailly/quartiles&#45;&gt;fortio.org/sets</title>
<path fill="none" stroke="black" d="M914.89,-1673.33C936.46,-1685.94 963.94,-1704.14 984.25,-1725 1032.31,-1774.36 1033.96,-1795.58 1067.5,-1855.75 1076.45,-1871.81 1074.38,-1878.35 1085.5,-1893 1096.07,-1906.92 1110.09,-1920.08 1122.91,-1930.73"/>
<polygon fill="black" stroke="black" points="1120.38,-1933.19 1130.36,-1936.74 1124.77,-1927.74 1120.38,-1933.19"/>
<text text-anchor="middle" x="1034.88" y="-1857.5" font-family="Helvetica,sans-Serif" font-size="10.00">v1.3.0</text>
</g>
<!-- github.com/ldemailly/rate -->
<g id="node38" class="node">
<title>github.com/ldemailly/rate</title>
<path fill="lightsalmon" stroke="black" d="M950.88,-1164C950.88,-1164 808.12,-1164 808.12,-1164 802.12,-1164 796.12,-1158 796.12,-1152 796.12,-1152 796.12,-1140 796.12,-1140 796.12,-1134 802.12,-1128 808.12,-1128 808.12,-1128 950.88,-1128 950.88,-1128 956.88,-1128 962.88,-1134 962.88,-1140 962.88,-1140 962.88,-1152 962.88,-1152 962.88,-1158 956.88,-1164 950.88,-1164"/>
<text text-anchor="middle" x="879.5" y="-1140.2" font-family="Helvetica,sans-Serif" font-size="14.00">github.com/ldemailly/rate</text>
</g>
<!-- github.com/ldemailly/rate&#45;&gt;fortio.org/cli -->
<g id="edge91" class="edge">
<title>github.com/ldemailly/rate&#45;&gt;fortio.org/cli</title>
<path fill="none" stroke="black" d="M963.3,-1132.06C970.87,-1128.61 978.02,-1124.32 984.25,-1119 999.46,-1106.01 989.43,-1093.1 1002.25,-1077.75 1024.63,-1050.95 1041.8,-1057.64 1067.5,-1034 1095.36,-1008.38 1121.69,-973.68 1138.49,-949.73"/>
<polygon fill="black" stroke="black" points="1141.21,-951.96 1144.01,-941.74 1135.45,-947.98 1141.21,-951.96"/>
<text text-anchor="middle" x="1034.88" y="-1079.5" font-family="Helvetica,sans-Serif" font-size="10.00">v1.2.0</text>
</g>
<!-- github.com/ldemailly/rate&#45;&gt;fortio.org/log -->
<g id="edge92" class="edge">
<title>github.com/ldemailly/rate&#45;&gt;fortio.org/log</title>
<path fill="none" stroke="black" d="M945.71,-1127.5C963.86,-1123.17 983.69,-1119.18 1002.25,-1117 1031.05,-1113.62 1038.71,-1113.54 1067.5,-1117 1141.53,-1125.9 1162.84,-1125.4 1230.5,-1156.75 1266.91,-1173.62 1303.44,-1201.76 1327.63,-1222.33"/>
<polygon fill="black" stroke="black" points="1325.27,-1224.92 1335.12,-1228.82 1329.85,-1219.63 1325.27,-1224.92"/>
<text text-anchor="middle" x="1158" y="-1158.5" font-family="Helvetica,sans-Serif" font-size="10.00">v1.6.0</text>
</g>
<!-- gitlab.com/ldemailly/go&#45;flag&#45;bug -->
<g id="node41" class="node">
<title>gitlab.com/ldemailly/go&#45;flag&#45;bug</title>
<path fill="lightsalmon" stroke="black" d="M211.38,-2369C211.38,-2369 28.13,-2369 28.13,-2369 22.13,-2369 16.12,-2363 16.12,-2357 16.12,-2357 16.12,-2345 16.12,-2345 16.12,-2339 22.12,-2333 28.12,-2333 28.12,-2333 211.37,-2333 211.37,-2333 217.37,-2333 223.38,-2339 223.38,-2345 223.38,-2345 223.38,-2357 223.38,-2357 223.38,-2363 217.38,-2369 211.38,-2369"/>
<text text-anchor="middle" x="119.75" y="-2345.2" font-family="Helvetica,sans-Serif" font-size="14.00">gitlab.com/ldemailly/go&#45;flag&#45;bug</text>
</g>
<!-- grol.io/grol&#45;&gt;fortio.org/cli -->
<g id="edge93" class="edge">
<title>grol.io/grol&#45;&gt;fortio.org/cli</title>
<path fill="none" stroke="black" d="M680.53,-525.48C694.28,-530.25 709.95,-535.28 724.5,-539 838.07,-568.04 876.66,-538.22 984.25,-584.75 1026.65,-603.09 1040.59,-609.44 1067.5,-647 1123.11,-724.62 1145.49,-838.69 1153.32,-892.21"/>
<polygon fill="black" stroke="black" points="1149.85,-892.64 1154.69,-902.07 1156.78,-891.68 1149.85,-892.64"/>
<text text-anchor="middle" x="879.5" y="-586.5" font-family="Helvetica,sans-Serif" font-size="10.00">v1.10.0</text>
</g>
<!-- grol.io/grol&#45;&gt;fortio.org/log -->
<g id="edge94" class="edge">
<title>grol.io/grol&#45;&gt;fortio.org/log</title>
<path fill="none" stroke="black" d="M680.63,-514.02C744.25,-519.14 874.52,-530.43 984.25,-545 992.29,-546.07 994.25,-546.67 1002.25,-548 1126.01,-568.53 1194.25,-503.14 1280.75,-594 1324.42,-639.87 1348.88,-1096.53 1354.66,-1218.29"/>
<polygon fill="black" stroke="black" points="1351.15,-1218.29 1355.12,-1228.11 1358.14,-1217.96 1351.15,-1218.29"/>
<text text-anchor="middle" x="1034.88" y="-554.01" font-family="Helvetica,sans-Serif" font-size="10.00">v1.17.2</text>
</g>
<!-- grol.io/grol&#45;&gt;fortio.org/safecast -->
<g id="edge95" class="edge">
<title>grol.io/grol&#45;&gt;fortio.org/safecast</title>
<path fill="none" stroke="black" d="M680.48,-506.34C766.37,-496 973.98,-471.02 1084.67,-457.7"/>
<polygon fill="black" stroke="black" points="1085.03,-461.19 1094.54,-456.52 1084.2,-454.24 1085.03,-461.19"/>
<text text-anchor="middle" x="879.5" y="-496.68" font-family="Helvetica,sans-Serif" font-size="10.00">v1.0.0</text>
</g>
<!-- grol.io/grol&#45;&gt;fortio.org/sets -->
<g id="edge96" class="edge">
<title>grol.io/grol&#45;&gt;fortio.org/sets</title>
<path fill="none" stroke="black" d="M680.61,-519.46C690.52,-523.47 700.15,-529.36 706.5,-538 732.4,-573.25 712.31,-691.99 724.5,-734 733.26,-764.21 749.09,-766.49 756.75,-797 769.8,-849.01 743.82,-1718.2 774.75,-1762 832.14,-1843.25 905.95,-1779.4 984.25,-1840.75 995.38,-1849.47 991.32,-1858.02 1002.25,-1867 1026.64,-1887.03 1044.78,-1873.1 1067.5,-1895 1080.96,-1907.97 1071.45,-1920.68 1085.5,-1933 1089.35,-1936.38 1093.71,-1939.26 1098.33,-1941.72"/>
<polygon fill="black" stroke="black" points="1096.81,-1944.88 1107.36,-1945.84 1099.71,-1938.51 1096.81,-1944.88"/>
<text text-anchor="middle" x="879.5" y="-1842.5" font-family="Helvetica,sans-Serif" font-size="10.00">v1.3.0</text>
</g>
<!-- grol.io/grol&#45;&gt;fortio.org/struct2env -->
<g id="edge97" class="edge">
<title>grol.io/grol&#45;&gt;fortio.org/struct2env</title>
<path fill="none" stroke="black" d="M649.91,-492.69C675.39,-435.87 753.07,-265.37 774.75,-249 984.79,-90.41 1316.48,-85.77 1466.53,-93.02"/>
<polygon fill="black" stroke="black" points="1466.21,-96.51 1476.37,-93.54 1466.57,-89.52 1466.21,-96.51"/>
<text text-anchor="middle" x="1158" y="-120.48" font-family="Helvetica,sans-Serif" font-size="10.00">v0.4.2</text>
</g>
<!-- grol.io/grol&#45;&gt;fortio.org/terminal -->
<g id="edge98" class="edge">
<title>grol.io/grol&#45;&gt;fortio.org/terminal</title>
<path fill="none" stroke="black" d="M666.6,-492.63C682.42,-481.78 703.78,-468.67 724.5,-460.75 750.62,-450.76 780.6,-444.16 807.12,-439.84"/>
<polygon fill="black" stroke="black" points="807.41,-443.33 816.76,-438.35 806.35,-436.42 807.41,-443.33"/>
<text text-anchor="middle" x="740.62" y="-462.5" font-family="Helvetica,sans-Serif" font-size="10.00">v0.29.1</text>
</g>
<!-- grol.io/grol&#45;&gt;fortio.org/testscript -->
<g id="edge99" class="edge">
<title>grol.io/grol&#45;&gt;fortio.org/testscript</title>
<path fill="none" stroke="black" d="M680.69,-519.8C690.48,-523.81 700.03,-529.61 706.5,-538 724.18,-560.92 718.23,-638.74 724.5,-667 735.07,-714.66 748.82,-723.83 756.75,-772 762.46,-806.66 752.03,-1377.22 774.75,-1404 836.12,-1476.33 907.43,-1389.1 984.25,-1444.75 997.54,-1454.38 989.23,-1467.01 1002.25,-1477 1016.94,-1488.27 1058.48,-1498.4 1094.83,-1505.52"/>
<polygon fill="black" stroke="black" points="1093.94,-1508.91 1104.42,-1507.34 1095.25,-1502.03 1093.94,-1508.91"/>
<text text-anchor="middle" x="879.5" y="-1446.5" font-family="Helvetica,sans-Serif" font-size="10.00">v0.3.2</text>
</g>
<!-- grol.io/grol&#45;&gt;fortio.org/version -->
<g id="edge100" class="edge">
<title>grol.io/grol&#45;&gt;fortio.org/version</title>
<path fill="none" stroke="black" d="M654.98,-492.89C676.97,-463.89 723.69,-406.8 774.75,-372 777.57,-370.08 999.02,-279.86 1002.25,-278.75 1109.73,-241.86 1136.85,-231.14 1248.5,-210 1260.9,-207.65 1274.21,-205.78 1287.1,-204.29"/>
<polygon fill="black" stroke="black" points="1287.2,-207.8 1296.77,-203.25 1286.45,-200.84 1287.2,-207.8"/>
<text text-anchor="middle" x="1034.88" y="-280.5" font-family="Helvetica,sans-Serif" font-size="10.00">v1.0.4</text>
</g>
<!-- grol.io/grol&#45;discord&#45;bot -->
<g id="node45" class="node">
<title>grol.io/grol&#45;discord&#45;bot</title>
<path fill="lightgreen" stroke="black" d="M470.38,-610C470.38,-610 344.12,-610 344.12,-610 338.12,-610 332.12,-604 332.12,-598 332.12,-598 332.12,-586 332.12,-586 332.12,-580 338.12,-574 344.12,-574 344.12,-574 470.38,-574 470.38,-574 476.38,-574 482.38,-580 482.38,-586 482.38,-586 482.38,-598 482.38,-598 482.38,-604 476.38,-610 470.38,-610"/>
<text text-anchor="middle" x="407.25" y="-586.2" font-family="Helvetica,sans-Serif" font-size="14.00">grol.io/grol&#45;discord&#45;bot</text>
</g>
<!-- grol.io/grol&#45;discord&#45;bot&#45;&gt;fortio.org/cli -->
<g id="edge101" class="edge">
<title>grol.io/grol&#45;discord&#45;bot&#45;&gt;fortio.org/cli</title>
<path fill="none" stroke="black" d="M465.85,-610.45C484.48,-615.84 505.34,-621.28 524.75,-625 643.83,-647.83 971.64,-606.75 1067.5,-681 1134.47,-732.87 1151.33,-840.28 1155.58,-892.38"/>
<polygon fill="black" stroke="black" points="1152.08,-892.55 1156.27,-902.28 1159.06,-892.06 1152.08,-892.55"/>
<text text-anchor="middle" x="740.62" y="-634.98" font-family="Helvetica,sans-Serif" font-size="10.00">v1.10.0</text>
</g>
<!-- grol.io/grol&#45;discord&#45;bot&#45;&gt;fortio.org/log -->
<g id="edge102" class="edge">
<title>grol.io/grol&#45;discord&#45;bot&#45;&gt;fortio.org/log</title>
<path fill="none" stroke="black" d="M482.63,-594.02C627.26,-598.15 936.44,-607.96 984.25,-617.75 1022.97,-625.67 1036.58,-624.39 1067.5,-649 1261.47,-803.42 1333.04,-1120.39 1351.06,-1218.44"/>
<polygon fill="black" stroke="black" points="1347.57,-1218.82 1352.77,-1228.04 1354.46,-1217.59 1347.57,-1218.82"/>
<text text-anchor="middle" x="879.5" y="-619.5" font-family="Helvetica,sans-Serif" font-size="10.00">v1.17.2</text>
</g>
<!-- grol.io/grol&#45;discord&#45;bot&#45;&gt;fortio.org/scli -->
<g id="edge103" class="edge">
<title>grol.io/grol&#45;discord&#45;bot&#45;&gt;fortio.org/scli</title>
<path fill="none" stroke="black" d="M419.51,-610.47C438.48,-641.89 477.61,-708 506.75,-766 531.56,-815.39 539.44,-827.35 557,-879.75 562.22,-895.33 614.17,-1120.7 632.99,-1202.56"/>
<polygon fill="black" stroke="black" points="629.53,-1203.12 635.18,-1212.08 636.35,-1201.55 629.53,-1203.12"/>
<text text-anchor="middle" x="540.88" y="-881.5" font-family="Helvetica,sans-Serif" font-size="10.00">v1.16.1</text>
</g>
<!-- grol.io/grol&#45;discord&#45;bot&#45;&gt;fortio.org/version -->
<g id="edge104" class="edge">
<title>grol.io/grol&#45;discord&#45;bot&#45;&gt;fortio.org/version</title>
<path fill="none" stroke="black" d="M455.13,-573.51C474.08,-563.68 494.36,-549.7 506.75,-531 535.57,-487.51 514.73,-466.2 524.75,-415 543.36,-319.97 518.74,-281.81 575,-203 636.02,-117.52 674.64,-108.5 774.75,-76.75 967.94,-15.47 1041.98,13.42 1230.5,-61 1282.37,-81.48 1321.24,-136.84 1341.13,-170.89"/>
<polygon fill="black" stroke="black" points="1337.97,-172.42 1345.94,-179.4 1344.06,-168.97 1337.97,-172.42"/>
<text text-anchor="middle" x="879.5" y="-78.5" font-family="Helvetica,sans-Serif" font-size="10.00">v1.0.4</text>
</g>
<!-- grol.io/grol&#45;discord&#45;bot&#45;&gt;github.com/bwmarrin/discordgo -->
<g id="edge105" class="edge">
<title>grol.io/grol&#45;discord&#45;bot&#45;&gt;github.com/bwmarrin/discordgo</title>
<path fill="none" stroke="black" d="M482.77,-583.31C508.56,-580.3 537.5,-576.93 563.43,-573.9"/>
<polygon fill="black" stroke="black" points="563.69,-577.39 573.22,-572.76 562.88,-570.44 563.69,-577.39"/>
<text text-anchor="middle" x="540.88" y="-579.44" font-family="Helvetica,sans-Serif" font-size="10.00">v0.28.1</text>
</g>
<!-- grol.io/grol&#45;discord&#45;bot&#45;&gt;grol.io/grol -->
<g id="edge106" class="edge">
<title>grol.io/grol&#45;discord&#45;bot&#45;&gt;grol.io/grol</title>
<path fill="none" stroke="black" d="M461.07,-573.52C499.82,-559.96 552.08,-541.68 590.06,-528.38"/>
<polygon fill="black" stroke="black" points="591.16,-531.71 599.44,-525.1 588.85,-525.1 591.16,-531.71"/>
<text text-anchor="middle" x="540.88" y="-550.82" font-family="Helvetica,sans-Serif" font-size="10.00">v0.80.3</text>
</g>
<!-- scriggo&#45;bench -->
<g id="node46" class="node">
<title>scriggo&#45;bench</title>
<path fill="darkseagreen" stroke="black" d="M466.25,-522C466.25,-522 348.25,-522 348.25,-522 342.25,-522 336.25,-516 336.25,-510 336.25,-510 336.25,-498 336.25,-498 336.25,-492 342.25,-486 348.25,-486 348.25,-486 466.25,-486 466.25,-486 472.25,-486 478.25,-492 478.25,-498 478.25,-498 478.25,-510 478.25,-510 478.25,-516 472.25,-522 466.25,-522"/>
<text text-anchor="middle" x="407.25" y="-498.2" font-family="Helvetica,sans-Serif" font-size="14.00">grol&#45;io/scriggo&#45;bench</text>
</g>
<!-- scriggo&#45;bench&#45;&gt;grol.io/grol -->
<g id="edge107" class="edge">
<title>scriggo&#45;bench&#45;&gt;grol.io/grol</title>
<path fill="none" stroke="black" d="M478.64,-503.34C503.42,-503.38 531.45,-503.72 557,-504.75 567.57,-505.18 578.89,-505.87 589.65,-506.65"/>
<polygon fill="black" stroke="black" points="589.31,-510.13 599.54,-507.4 589.84,-503.15 589.31,-510.13"/>
<text text-anchor="middle" x="540.88" y="-506.5" font-family="Helvetica,sans-Serif" font-size="10.00">v0.26.0</text>
</g>
</g>
</svg>
