<?xml version="1.0" encoding="UTF-8" standalone="no"?>
<!DOCTYPE svg PUBLIC "-//W3C//DTD SVG 1.1//EN"
 "http://www.w3.org/Graphics/SVG/1.1/DTD/svg11.dtd">
<!-- Generated by graphviz version 12.2.1 (20241206.2353)
 -->
<!-- Title: dependencies Pages: 1 -->
<svg width="1665pt" height="2392pt"
 viewBox="0.00 0.00 1665.00 2392.00" xmlns="http://www.w3.org/2000/svg" xmlns:xlink="http://www.w3.org/1999/xlink">
<g id="graph0" class="graph" transform="scale(1 1) rotate(0) translate(4 2388)">
<title>dependencies</title>
<polygon fill="white" stroke="none" points="-4,4 -4,-2388 1661,-2388 1661,4 -4,4"/>
<!-- fortio.org/assert -->
<g id="node1" class="node">
<title>fortio.org/assert</title>
<path fill="lightblue" stroke="black" d="M1443.38,-2309C1443.38,-2309 1357.62,-2309 1357.62,-2309 1351.62,-2309 1345.62,-2303 1345.62,-2297 1345.62,-2297 1345.62,-2285 1345.62,-2285 1345.62,-2279 1351.62,-2273 1357.62,-2273 1357.62,-2273 1443.38,-2273 1443.38,-2273 1449.38,-2273 1455.38,-2279 1455.38,-2285 1455.38,-2285 1455.38,-2297 1455.38,-2297 1455.38,-2303 1449.38,-2309 1443.38,-2309"/>
<text text-anchor="middle" x="1400.5" y="-2285.2" font-family="Helvetica,sans-Serif" font-size="14.00">fortio.org/assert</text>
</g>
<!-- fortio.org/cli -->
<g id="node2" class="node">
<title>fortio.org/cli</title>
<path fill="lightblue" stroke="black" d="M1210.62,-899C1210.62,-899 1148.88,-899 1148.88,-899 1142.88,-899 1136.88,-893 1136.88,-887 1136.88,-887 1136.88,-875 1136.88,-875 1136.88,-869 1142.88,-863 1148.88,-863 1148.88,-863 1210.62,-863 1210.62,-863 1216.62,-863 1222.62,-869 1222.62,-875 1222.62,-875 1222.62,-887 1222.62,-887 1222.62,-893 1216.62,-899 1210.62,-899"/>
<text text-anchor="middle" x="1179.75" y="-875.2" font-family="Helvetica,sans-Serif" font-size="14.00">fortio.org/cli</text>
</g>
<!-- fortio.org/log -->
<g id="node7" class="node">
<title>fortio.org/log</title>
<path fill="lightblue" stroke="black" d="M1434,-1382C1434,-1382 1367,-1382 1367,-1382 1361,-1382 1355,-1376 1355,-1370 1355,-1370 1355,-1358 1355,-1358 1355,-1352 1361,-1346 1367,-1346 1367,-1346 1434,-1346 1434,-1346 1440,-1346 1446,-1352 1446,-1358 1446,-1358 1446,-1370 1446,-1370 1446,-1376 1440,-1382 1434,-1382"/>
<text text-anchor="middle" x="1400.5" y="-1358.2" font-family="Helvetica,sans-Serif" font-size="14.00">fortio.org/log</text>
</g>
<!-- fortio.org/cli&#45;&gt;fortio.org/log -->
<g id="edge1" class="edge">
<title>fortio.org/cli&#45;&gt;fortio.org/log</title>
<path fill="none" stroke="black" d="M1223.04,-897.32C1255.86,-912.22 1299.77,-937.48 1324.25,-973.75 1364.46,-1033.32 1389.05,-1254.33 1396.82,-1334.61"/>
<polygon fill="black" stroke="black" points="1393.32,-1334.69 1397.74,-1344.32 1400.28,-1334.03 1393.32,-1334.69"/>
<text text-anchor="middle" x="1308.12" y="-975.5" font-family="Helvetica,sans-Serif" font-size="10.00">v1.17.2</text>
</g>
<!-- fortio.org/version -->
<g id="node23" class="node">
<title>fortio.org/version</title>
<path fill="lightblue" stroke="black" d="M1446.75,-474C1446.75,-474 1354.25,-474 1354.25,-474 1348.25,-474 1342.25,-468 1342.25,-462 1342.25,-462 1342.25,-450 1342.25,-450 1342.25,-444 1348.25,-438 1354.25,-438 1354.25,-438 1446.75,-438 1446.75,-438 1452.75,-438 1458.75,-444 1458.75,-450 1458.75,-450 1458.75,-462 1458.75,-462 1458.75,-468 1452.75,-474 1446.75,-474"/>
<text text-anchor="middle" x="1400.5" y="-450.2" font-family="Helvetica,sans-Serif" font-size="14.00">fortio.org/version</text>
</g>
<!-- fortio.org/cli&#45;&gt;fortio.org/version -->
<g id="edge2" class="edge">
<title>fortio.org/cli&#45;&gt;fortio.org/version</title>
<path fill="none" stroke="black" d="M1190.15,-862.74C1224.51,-795.99 1343.44,-564.91 1385.02,-484.14"/>
<polygon fill="black" stroke="black" points="1387.98,-486.03 1389.44,-475.54 1381.75,-482.83 1387.98,-486.03"/>
<text text-anchor="middle" x="1308.12" y="-657.51" font-family="Helvetica,sans-Serif" font-size="10.00">v1.0.4</text>
</g>
<!-- fortio.org/dflag -->
<g id="node3" class="node">
<title>fortio.org/dflag</title>
<path fill="lightblue" stroke="black" d="M918.62,-2162C918.62,-2162 840.38,-2162 840.38,-2162 834.38,-2162 828.38,-2156 828.38,-2150 828.38,-2150 828.38,-2138 828.38,-2138 828.38,-2132 834.38,-2126 840.38,-2126 840.38,-2126 918.62,-2126 918.62,-2126 924.62,-2126 930.62,-2132 930.62,-2138 930.62,-2138 930.62,-2150 930.62,-2150 930.62,-2156 924.62,-2162 918.62,-2162"/>
<text text-anchor="middle" x="879.5" y="-2138.2" font-family="Helvetica,sans-Serif" font-size="14.00">fortio.org/dflag</text>
</g>
<!-- fortio.org/dflag&#45;&gt;fortio.org/assert -->
<g id="edge3" class="edge">
<title>fortio.org/dflag&#45;&gt;fortio.org/assert</title>
<path fill="none" stroke="black" d="M925.75,-2162.48C948.49,-2171.42 976.6,-2181.92 1002.25,-2190 1117.8,-2226.39 1255.35,-2259.05 1334.53,-2276.84"/>
<polygon fill="black" stroke="black" points="1333.31,-2280.16 1343.83,-2278.92 1334.84,-2273.32 1333.31,-2280.16"/>
<text text-anchor="middle" x="1179.75" y="-2263.99" font-family="Helvetica,sans-Serif" font-size="10.00">v1.2.1</text>
</g>
<!-- fortio.org/dflag&#45;&gt;fortio.org/log -->
<g id="edge4" class="edge">
<title>fortio.org/dflag&#45;&gt;fortio.org/log</title>
<path fill="none" stroke="black" d="M930.88,-2147.71C1035.2,-2154.22 1269.7,-2162.37 1324.25,-2109 1376.29,-2058.09 1394.87,-1525.85 1398.71,-1393.61"/>
<polygon fill="black" stroke="black" points="1402.2,-1394.03 1398.98,-1383.94 1395.2,-1393.83 1402.2,-1394.03"/>
<text text-anchor="middle" x="1179.75" y="-2154.12" font-family="Helvetica,sans-Serif" font-size="10.00">v1.17.2</text>
</g>
<!-- fortio.org/sets -->
<g id="node16" class="node">
<title>fortio.org/sets</title>
<path fill="lightblue" stroke="black" d="M1216.62,-1958C1216.62,-1958 1142.88,-1958 1142.88,-1958 1136.88,-1958 1130.88,-1952 1130.88,-1946 1130.88,-1946 1130.88,-1934 1130.88,-1934 1130.88,-1928 1136.88,-1922 1142.88,-1922 1142.88,-1922 1216.62,-1922 1216.62,-1922 1222.62,-1922 1228.62,-1928 1228.62,-1934 1228.62,-1934 1228.62,-1946 1228.62,-1946 1228.62,-1952 1222.62,-1958 1216.62,-1958"/>
<text text-anchor="middle" x="1179.75" y="-1934.2" font-family="Helvetica,sans-Serif" font-size="14.00">fortio.org/sets</text>
</g>
<!-- fortio.org/dflag&#45;&gt;fortio.org/sets -->
<g id="edge5" class="edge">
<title>fortio.org/dflag&#45;&gt;fortio.org/sets</title>
<path fill="none" stroke="black" d="M907.49,-2125.54C961.39,-2088.67 1082.36,-2005.93 1142.86,-1964.55"/>
<polygon fill="black" stroke="black" points="1144.5,-1967.66 1150.78,-1959.13 1140.55,-1961.89 1144.5,-1967.66"/>
<text text-anchor="middle" x="1034.88" y="-2062.02" font-family="Helvetica,sans-Serif" font-size="10.00">v1.3.0</text>
</g>
<!-- fortio.org/dnsping -->
<g id="node4" class="node">
<title>fortio.org/dnsping</title>
<path fill="lightblue" stroke="black" d="M167.88,-1445C167.88,-1445 71.62,-1445 71.62,-1445 65.62,-1445 59.62,-1439 59.62,-1433 59.62,-1433 59.62,-1421 59.62,-1421 59.62,-1415 65.62,-1409 71.62,-1409 71.62,-1409 167.88,-1409 167.88,-1409 173.88,-1409 179.88,-1415 179.88,-1421 179.88,-1421 179.88,-1433 179.88,-1433 179.88,-1439 173.88,-1445 167.88,-1445"/>
<text text-anchor="middle" x="119.75" y="-1421.2" font-family="Helvetica,sans-Serif" font-size="14.00">fortio.org/dnsping</text>
</g>
<!-- fortio.org/dnsping&#45;&gt;fortio.org/cli -->
<g id="edge6" class="edge">
<title>fortio.org/dnsping&#45;&gt;fortio.org/cli</title>
<path fill="none" stroke="black" d="M123.62,-1408.74C138.74,-1315.06 211.94,-889.56 307.75,-804 433.84,-691.41 912.82,-697.82 1067.5,-766 1108.7,-784.16 1142.33,-825.43 1161.46,-853.26"/>
<polygon fill="black" stroke="black" points="1158.54,-855.2 1166.99,-861.58 1164.37,-851.32 1158.54,-855.2"/>
<text text-anchor="middle" x="640.75" y="-724.58" font-family="Helvetica,sans-Serif" font-size="10.00">v1.10.0</text>
</g>
<!-- fortio.org/fortio -->
<g id="node5" class="node">
<title>fortio.org/fortio</title>
<path fill="lightblue" stroke="black" d="M446.75,-1404C446.75,-1404 367.75,-1404 367.75,-1404 361.75,-1404 355.75,-1398 355.75,-1392 355.75,-1392 355.75,-1380 355.75,-1380 355.75,-1374 361.75,-1368 367.75,-1368 367.75,-1368 446.75,-1368 446.75,-1368 452.75,-1368 458.75,-1374 458.75,-1380 458.75,-1380 458.75,-1392 458.75,-1392 458.75,-1398 452.75,-1404 446.75,-1404"/>
<text text-anchor="middle" x="407.25" y="-1380.2" font-family="Helvetica,sans-Serif" font-size="14.00">fortio.org/fortio</text>
</g>
<!-- fortio.org/dnsping&#45;&gt;fortio.org/fortio -->
<g id="edge7" class="edge">
<title>fortio.org/dnsping&#45;&gt;fortio.org/fortio</title>
<path fill="none" stroke="black" d="M180.25,-1418.45C228.21,-1411.57 295.44,-1401.91 344.09,-1394.93"/>
<polygon fill="black" stroke="black" points="344.52,-1398.4 353.92,-1393.51 343.52,-1391.47 344.52,-1398.4"/>
<text text-anchor="middle" x="273.62" y="-1408.25" font-family="Helvetica,sans-Serif" font-size="10.00">v1.69.1</text>
</g>
<!-- fortio.org/dnsping&#45;&gt;fortio.org/log -->
<g id="edge8" class="edge">
<title>fortio.org/dnsping&#45;&gt;fortio.org/log</title>
<path fill="none" stroke="black" d="M150.02,-1445.33C177.52,-1464.15 217.63,-1496 239.5,-1534 313.12,-1661.92 204.55,-1753.48 307.75,-1859 451.03,-2005.5 611.87,-1818.83 756.75,-1963.75 781.67,-1988.68 747.14,-2019.08 774.75,-2041 847.68,-2098.89 891.87,-2052.61 984.25,-2041 1116.12,-2024.43 1182.15,-2063.07 1274,-1967 1354.67,-1882.63 1389.03,-1503.56 1397.39,-1393.84"/>
<polygon fill="black" stroke="black" points="1400.88,-1394.13 1398.13,-1383.89 1393.9,-1393.61 1400.88,-1394.13"/>
<text text-anchor="middle" x="740.62" y="-1965.5" font-family="Helvetica,sans-Serif" font-size="10.00">v1.17.2</text>
</g>
<!-- fortio.org/safecast -->
<g id="node14" class="node">
<title>fortio.org/safecast</title>
<path fill="lightblue" stroke="black" d="M1229.38,-308C1229.38,-308 1130.12,-308 1130.12,-308 1124.12,-308 1118.12,-302 1118.12,-296 1118.12,-296 1118.12,-284 1118.12,-284 1118.12,-278 1124.12,-272 1130.12,-272 1130.12,-272 1229.38,-272 1229.38,-272 1235.38,-272 1241.38,-278 1241.38,-284 1241.38,-284 1241.38,-296 1241.38,-296 1241.38,-302 1235.38,-308 1229.38,-308"/>
<text text-anchor="middle" x="1179.75" y="-284.2" font-family="Helvetica,sans-Serif" font-size="14.00">fortio.org/safecast</text>
</g>
<!-- fortio.org/dnsping&#45;&gt;fortio.org/safecast -->
<g id="edge9" class="edge">
<title>fortio.org/dnsping&#45;&gt;fortio.org/safecast</title>
<path fill="none" stroke="black" d="M126.66,-1408.57C151.84,-1329.17 250.59,-1007.99 289.75,-736 295.93,-693.06 280.71,-379.92 307.75,-346 405.57,-223.28 915.36,-262.49 1106.38,-281.93"/>
<polygon fill="black" stroke="black" points="1105.87,-285.4 1116.17,-282.94 1106.58,-278.43 1105.87,-285.4"/>
<text text-anchor="middle" x="640.75" y="-266.59" font-family="Helvetica,sans-Serif" font-size="10.00">v1.0.0</text>
</g>
<!-- fortio.org/testscript -->
<g id="node22" class="node">
<title>fortio.org/testscript</title>
<path fill="steelblue" stroke="black" d="M1262,-1574C1262,-1574 1097.5,-1574 1097.5,-1574 1091.5,-1574 1085.5,-1568 1085.5,-1562 1085.5,-1562 1085.5,-1548 1085.5,-1548 1085.5,-1542 1091.5,-1536 1097.5,-1536 1097.5,-1536 1262,-1536 1262,-1536 1268,-1536 1274,-1542 1274,-1548 1274,-1548 1274,-1562 1274,-1562 1274,-1568 1268,-1574 1262,-1574"/>
<text text-anchor="middle" x="1179.75" y="-1556.7" font-family="Helvetica,sans-Serif" font-size="14.00">fortio/testscript</text>
<text text-anchor="middle" x="1179.75" y="-1541.7" font-family="Helvetica,sans-Serif" font-size="14.00">(module: fortio.org/testscript)</text>
</g>
<!-- fortio.org/dnsping&#45;&gt;fortio.org/testscript -->
<g id="edge10" class="edge">
<title>fortio.org/dnsping&#45;&gt;fortio.org/testscript</title>
<path fill="none" stroke="black" d="M180.02,-1432.61C282.58,-1442.89 484.35,-1465.81 506.75,-1489 551.55,-1535.4 476.4,-1590.32 524.75,-1633 535.5,-1642.49 542.82,-1635.07 557,-1633 656.94,-1618.4 674.81,-1582.6 774.75,-1568 866.88,-1554.54 896.7,-1536.3 984.25,-1568 994.04,-1571.55 992.46,-1579.45 1002.25,-1583 1029.52,-1592.87 1038.72,-1586.57 1067.5,-1583 1069.28,-1582.78 1078.91,-1580.46 1091.81,-1577.23"/>
<polygon fill="black" stroke="black" points="1092.46,-1580.68 1101.31,-1574.85 1090.76,-1573.89 1092.46,-1580.68"/>
<text text-anchor="middle" x="640.75" y="-1631.66" font-family="Helvetica,sans-Serif" font-size="10.00">v0.3.2</text>
</g>
<!-- github.com/miekg/dns -->
<g id="node39" class="node">
<title>github.com/miekg/dns</title>
<path fill="coral" stroke="black" d="M442.62,-1534C442.62,-1534 371.88,-1534 371.88,-1534 365.88,-1534 359.88,-1528 359.88,-1522 359.88,-1522 359.88,-1510 359.88,-1510 359.88,-1504 365.88,-1498 371.88,-1498 371.88,-1498 442.62,-1498 442.62,-1498 448.62,-1498 454.62,-1504 454.62,-1510 454.62,-1510 454.62,-1522 454.62,-1522 454.62,-1528 448.62,-1534 442.62,-1534"/>
<text text-anchor="middle" x="407.25" y="-1510.2" font-family="Helvetica,sans-Serif" font-size="14.00">ldemailly/dns</text>
</g>
<!-- fortio.org/dnsping&#45;&gt;github.com/miekg/dns -->
<g id="edge11" class="edge">
<title>fortio.org/dnsping&#45;&gt;github.com/miekg/dns</title>
<path fill="none" stroke="black" d="M163.96,-1445.44C190.61,-1456.38 225.67,-1470.03 257.5,-1480 287.14,-1489.29 320.72,-1497.6 348.47,-1503.89"/>
<polygon fill="black" stroke="black" points="347.59,-1507.28 358.11,-1506.04 349.11,-1500.44 347.59,-1507.28"/>
<text text-anchor="middle" x="273.62" y="-1491.11" font-family="Helvetica,sans-Serif" font-size="10.00">v1.1.65</text>
</g>
<!-- fortio.org/fortio&#45;&gt;fortio.org/assert -->
<g id="edge12" class="edge">
<title>fortio.org/fortio&#45;&gt;fortio.org/assert</title>
<path fill="none" stroke="black" d="M441.52,-1404.28C460.82,-1415.13 485.44,-1429.38 506.75,-1443 538,-1462.97 544.48,-1469.94 575,-1491 633.09,-1531.08 655.75,-1530.97 706.5,-1580 733.78,-1606.36 734.5,-1618.27 756.75,-1649 764.78,-1660.09 762.9,-1667.14 774.75,-1674 855.75,-1720.93 893.59,-1672.41 984.25,-1695.75 1140.12,-1735.88 1185.19,-1778.76 1274,-1913 1350.32,-2028.37 1384,-2194.25 1395.07,-2261.26"/>
<polygon fill="black" stroke="black" points="1391.61,-2261.76 1396.64,-2271.09 1398.52,-2260.66 1391.61,-2261.76"/>
<text text-anchor="middle" x="879.5" y="-1697.5" font-family="Helvetica,sans-Serif" font-size="10.00">v1.2.1</text>
</g>
<!-- fortio.org/fortio&#45;&gt;fortio.org/cli -->
<g id="edge13" class="edge">
<title>fortio.org/fortio&#45;&gt;fortio.org/cli</title>
<path fill="none" stroke="black" d="M459.11,-1381.61C475.42,-1378.33 492.84,-1372.68 506.75,-1363 539.99,-1339.87 535.74,-1321.46 557,-1287 608.01,-1204.34 692.35,-959.43 774.75,-908 803.75,-889.9 1021.9,-883.72 1125.03,-881.79"/>
<polygon fill="black" stroke="black" points="1124.98,-885.29 1134.91,-881.62 1124.85,-878.3 1124.98,-885.29"/>
<text text-anchor="middle" x="740.62" y="-960.98" font-family="Helvetica,sans-Serif" font-size="10.00">v1.10.0</text>
</g>
<!-- fortio.org/fortio&#45;&gt;fortio.org/dflag -->
<g id="edge14" class="edge">
<title>fortio.org/fortio&#45;&gt;fortio.org/dflag</title>
<path fill="none" stroke="black" d="M433.71,-1404.49C457.05,-1423.01 490.39,-1453.77 506.75,-1489 522.65,-1523.26 500.13,-1629.36 524.75,-1658 579.19,-1721.34 652.72,-1641.85 706.5,-1705.75 736.7,-1741.63 703.24,-1874.2 724.5,-1916 733.11,-1932.92 747.32,-1927.52 756.75,-1944 778.52,-1982.06 754.26,-2002.24 774.75,-2041 791.19,-2072.1 820.24,-2099.72 843.43,-2118.51"/>
<polygon fill="black" stroke="black" points="841.1,-2121.13 851.12,-2124.57 845.43,-2115.63 841.1,-2121.13"/>
<text text-anchor="middle" x="640.75" y="-1707.5" font-family="Helvetica,sans-Serif" font-size="10.00">v1.8.1</text>
</g>
<!-- fortio.org/fortio&#45;&gt;fortio.org/log -->
<g id="edge15" class="edge">
<title>fortio.org/fortio&#45;&gt;fortio.org/log</title>
<path fill="none" stroke="black" d="M459.05,-1401.16C474.51,-1406.13 491.45,-1411.94 506.75,-1418 597.98,-1454.12 633.23,-1446.74 706.5,-1512 749.46,-1550.27 727.39,-1589.33 774.75,-1622 852.83,-1675.86 896.69,-1626.26 984.25,-1662.75 993.18,-1666.47 993,-1672.15 1002.25,-1675 1029.97,-1683.54 1038.57,-1677.02 1067.5,-1675 1159.95,-1668.54 1196.35,-1696.6 1274,-1646 1362,-1588.66 1388.81,-1453.82 1396.55,-1393.76"/>
<polygon fill="black" stroke="black" points="1400.01,-1394.31 1397.71,-1383.97 1393.06,-1393.49 1400.01,-1394.31"/>
<text text-anchor="middle" x="879.5" y="-1664.5" font-family="Helvetica,sans-Serif" font-size="10.00">v1.17.2</text>
</g>
<!-- fortio.org/fortio&#45;&gt;fortio.org/safecast -->
<g id="edge16" class="edge">
<title>fortio.org/fortio&#45;&gt;fortio.org/safecast</title>
<path fill="none" stroke="black" d="M459.16,-1386.17C476.88,-1383.47 495.19,-1377.03 506.75,-1363 524,-1342.06 521.23,-901.9 524.75,-875 533.15,-810.83 547.59,-797.03 557,-733 561.24,-704.13 558.24,-494.88 575,-471 611.7,-418.72 663.4,-460.14 706.5,-413 723.36,-394.56 707.58,-378.13 724.5,-359.75 740.98,-341.85 751.25,-344.34 774.75,-338 888.13,-307.43 1024.63,-296.32 1106.41,-292.29"/>
<polygon fill="black" stroke="black" points="1106.48,-295.79 1116.31,-291.83 1106.16,-288.8 1106.48,-295.79"/>
<text text-anchor="middle" x="740.62" y="-361.5" font-family="Helvetica,sans-Serif" font-size="10.00">v1.0.0</text>
</g>
<!-- fortio.org/scli -->
<g id="node15" class="node">
<title>fortio.org/scli</title>
<path fill="lightblue" stroke="black" d="M675,-1384C675,-1384 606.5,-1384 606.5,-1384 600.5,-1384 594.5,-1378 594.5,-1372 594.5,-1372 594.5,-1360 594.5,-1360 594.5,-1354 600.5,-1348 606.5,-1348 606.5,-1348 675,-1348 675,-1348 681,-1348 687,-1354 687,-1360 687,-1360 687,-1372 687,-1372 687,-1378 681,-1384 675,-1384"/>
<text text-anchor="middle" x="640.75" y="-1360.2" font-family="Helvetica,sans-Serif" font-size="14.00">fortio.org/scli</text>
</g>
<!-- fortio.org/fortio&#45;&gt;fortio.org/scli -->
<g id="edge17" class="edge">
<title>fortio.org/fortio&#45;&gt;fortio.org/scli</title>
<path fill="none" stroke="black" d="M459.05,-1381.61C495.6,-1378.45 544.92,-1374.19 582.8,-1370.92"/>
<polygon fill="black" stroke="black" points="582.99,-1374.42 592.66,-1370.07 582.39,-1367.44 582.99,-1374.42"/>
<text text-anchor="middle" x="540.88" y="-1377.15" font-family="Helvetica,sans-Serif" font-size="10.00">v1.16.1</text>
</g>
<!-- fortio.org/fortio&#45;&gt;fortio.org/sets -->
<g id="edge18" class="edge">
<title>fortio.org/fortio&#45;&gt;fortio.org/sets</title>
<path fill="none" stroke="black" d="M429.55,-1404.47C451.03,-1423.91 484.17,-1456.18 506.75,-1489 517.34,-1504.39 514.73,-1511.22 524.75,-1527 543.58,-1556.65 548.9,-1564.49 575,-1588 627.07,-1634.89 663.38,-1619.76 706.5,-1675 721.29,-1693.95 713.98,-1704.39 724.5,-1726 742.71,-1763.42 740.76,-1781 774.75,-1805 852.79,-1860.09 893.66,-1822.69 984.25,-1853 1036.9,-1870.62 1094.67,-1897.48 1133.46,-1916.69"/>
<polygon fill="black" stroke="black" points="1131.52,-1919.64 1142.03,-1920.97 1134.65,-1913.38 1131.52,-1919.64"/>
<text text-anchor="middle" x="740.62" y="-1791.36" font-family="Helvetica,sans-Serif" font-size="10.00">v1.3.0</text>
</g>
<!-- fortio.org/fortio&#45;&gt;fortio.org/testscript -->
<g id="edge19" class="edge">
<title>fortio.org/fortio&#45;&gt;fortio.org/testscript</title>
<path fill="none" stroke="black" d="M459.16,-1388.76C533.96,-1393.76 668.8,-1406.65 706.5,-1436 722.2,-1448.23 710.18,-1463.18 724.5,-1477 809.59,-1559.17 887.44,-1467.04 984.25,-1535 997.29,-1544.15 988.44,-1558.05 1002.25,-1566 1015.17,-1573.44 1043.67,-1573.65 1074.07,-1571.05"/>
<polygon fill="black" stroke="black" points="1074.21,-1574.55 1083.83,-1570.12 1073.54,-1567.59 1074.21,-1574.55"/>
<text text-anchor="middle" x="740.62" y="-1501.79" font-family="Helvetica,sans-Serif" font-size="10.00">v0.3.2</text>
</g>
<!-- fortio.org/fortio&#45;&gt;fortio.org/version -->
<g id="edge20" class="edge">
<title>fortio.org/fortio&#45;&gt;fortio.org/version</title>
<path fill="none" stroke="black" d="M459.03,-1386.31C476.84,-1383.64 495.25,-1377.19 506.75,-1363 536.67,-1326.09 512.82,-553.99 524.75,-508 536.74,-461.77 538.47,-443.78 575,-413 622.02,-373.38 658.97,-409.01 706.5,-370 719.11,-359.65 714.7,-351.05 724.5,-338 743.65,-312.49 746.8,-302.13 774.75,-286.75 890.3,-223.15 935.84,-230.06 1067.5,-238 1159.78,-243.57 1195.54,-214.1 1274,-263 1335.81,-301.52 1373.21,-382.99 1389.64,-426.74"/>
<polygon fill="black" stroke="black" points="1386.33,-427.88 1393.02,-436.09 1392.91,-425.5 1386.33,-427.88"/>
<text text-anchor="middle" x="879.5" y="-288.5" font-family="Helvetica,sans-Serif" font-size="10.00">v1.0.4</text>
</g>
<!-- grol.io/grol -->
<g id="node44" class="node">
<title>grol.io/grol</title>
<path fill="lightgreen" stroke="black" d="M668.25,-516C668.25,-516 613.25,-516 613.25,-516 607.25,-516 601.25,-510 601.25,-504 601.25,-504 601.25,-492 601.25,-492 601.25,-486 607.25,-480 613.25,-480 613.25,-480 668.25,-480 668.25,-480 674.25,-480 680.25,-486 680.25,-492 680.25,-492 680.25,-504 680.25,-504 680.25,-510 674.25,-516 668.25,-516"/>
<text text-anchor="middle" x="640.75" y="-492.2" font-family="Helvetica,sans-Serif" font-size="14.00">grol.io/grol</text>
</g>
<!-- fortio.org/fortio&#45;&gt;grol.io/grol -->
<g id="edge21" class="edge">
<title>fortio.org/fortio&#45;&gt;grol.io/grol</title>
<path fill="none" stroke="black" d="M459.01,-1380.86C476.7,-1376.47 495.04,-1368.47 506.75,-1354 515.22,-1343.54 555.9,-885.42 557,-872 562.51,-804.55 548.47,-630.26 575,-568 582.12,-551.29 595.02,-536.05 607.45,-524.09"/>
<polygon fill="black" stroke="black" points="609.77,-526.71 614.78,-517.37 605.04,-521.55 609.77,-526.71"/>
<text text-anchor="middle" x="540.88" y="-1212.03" font-family="Helvetica,sans-Serif" font-size="10.00">v0.80.3</text>
</g>
<!-- fortio.org/fortiotel -->
<g id="node6" class="node">
<title>fortio.org/fortiotel</title>
<path fill="lightblue" stroke="black" d="M166.38,-1996C166.38,-1996 73.12,-1996 73.12,-1996 67.12,-1996 61.12,-1990 61.12,-1984 61.12,-1984 61.12,-1972 61.12,-1972 61.12,-1966 67.12,-1960 73.12,-1960 73.12,-1960 166.38,-1960 166.38,-1960 172.38,-1960 178.38,-1966 178.38,-1972 178.38,-1972 178.38,-1984 178.38,-1984 178.38,-1990 172.38,-1996 166.38,-1996"/>
<text text-anchor="middle" x="119.75" y="-1972.2" font-family="Helvetica,sans-Serif" font-size="14.00">fortio.org/fortiotel</text>
</g>
<!-- fortio.org/fortiotel&#45;&gt;fortio.org/cli -->
<g id="edge22" class="edge">
<title>fortio.org/fortiotel&#45;&gt;fortio.org/cli</title>
<path fill="none" stroke="black" d="M126.28,-1959.64C150.52,-1879.23 246.67,-1561.34 257.5,-1542 268.16,-1522.97 281.48,-1525.18 289.75,-1505 339.4,-1383.87 263.63,-1334.25 307.75,-1211 358.6,-1068.96 442.14,-1072.33 506.75,-936 520.14,-907.75 500.88,-888.19 524.75,-868 616.92,-790.07 948.35,-827.73 1067.5,-847 1086.91,-850.14 1107.64,-855.81 1125.89,-861.63"/>
<polygon fill="black" stroke="black" points="1124.57,-864.88 1135.17,-864.68 1126.76,-858.23 1124.57,-864.88"/>
<text text-anchor="middle" x="640.75" y="-843.28" font-family="Helvetica,sans-Serif" font-size="10.00">v1.10.0</text>
</g>
<!-- fortio.org/fortiotel&#45;&gt;fortio.org/dflag -->
<g id="edge23" class="edge">
<title>fortio.org/fortiotel&#45;&gt;fortio.org/dflag</title>
<path fill="none" stroke="black" d="M142.82,-1996.45C168.57,-2016.88 213.3,-2049.04 257.5,-2065 452.93,-2135.58 702.81,-2144.8 816.82,-2144.94"/>
<polygon fill="black" stroke="black" points="816.56,-2148.45 826.56,-2144.93 816.55,-2141.45 816.56,-2148.45"/>
<text text-anchor="middle" x="540.88" y="-2131.31" font-family="Helvetica,sans-Serif" font-size="10.00">v1.8.1</text>
</g>
<!-- fortio.org/fortiotel&#45;&gt;fortio.org/fortio -->
<g id="edge24" class="edge">
<title>fortio.org/fortiotel&#45;&gt;fortio.org/fortio</title>
<path fill="none" stroke="black" d="M127.73,-1959.74C161.64,-1871.03 307.54,-1489.34 307.75,-1489 326.35,-1459.6 354.24,-1431.42 375.6,-1411.99"/>
<polygon fill="black" stroke="black" points="377.76,-1414.76 382.89,-1405.48 373.09,-1409.53 377.76,-1414.76"/>
<text text-anchor="middle" x="273.62" y="-1609.09" font-family="Helvetica,sans-Serif" font-size="10.00">v1.69.1</text>
</g>
<!-- fortio.org/fortiotel&#45;&gt;fortio.org/log -->
<g id="edge25" class="edge">
<title>fortio.org/fortiotel&#45;&gt;fortio.org/log</title>
<path fill="none" stroke="black" d="M178.53,-1995.09C211.5,-2005.35 253.37,-2019.25 289.75,-2034 412.33,-2083.72 469.83,-2065.5 557,-2165 572.56,-2182.77 555.68,-2201.42 575,-2215 638.69,-2259.76 1201.17,-2195.47 1274,-2168 1299.71,-2158.3 1310.52,-2155.8 1324.25,-2132 1398.7,-2003 1400.59,-1518.73 1399.8,-1393.64"/>
<polygon fill="black" stroke="black" points="1403.3,-1393.85 1399.73,-1383.88 1396.3,-1393.9 1403.3,-1393.85"/>
<text text-anchor="middle" x="740.62" y="-2231.89" font-family="Helvetica,sans-Serif" font-size="10.00">v1.17.2</text>
</g>
<!-- fortio.org/struct2env -->
<g id="node18" class="node">
<title>fortio.org/struct2env</title>
<path fill="lightblue" stroke="black" d="M1645,-109C1645,-109 1533.75,-109 1533.75,-109 1527.75,-109 1521.75,-103 1521.75,-97 1521.75,-97 1521.75,-85 1521.75,-85 1521.75,-79 1527.75,-73 1533.75,-73 1533.75,-73 1645,-73 1645,-73 1651,-73 1657,-79 1657,-85 1657,-85 1657,-97 1657,-97 1657,-103 1651,-109 1645,-109"/>
<text text-anchor="middle" x="1589.38" y="-85.2" font-family="Helvetica,sans-Serif" font-size="14.00">fortio.org/struct2env</text>
</g>
<!-- fortio.org/log&#45;&gt;fortio.org/struct2env -->
<g id="edge26" class="edge">
<title>fortio.org/log&#45;&gt;fortio.org/struct2env</title>
<path fill="none" stroke="black" d="M1404.21,-1345.51C1424.96,-1204.21 1558.3,-295.9 1584.07,-120.35"/>
<polygon fill="black" stroke="black" points="1587.49,-121.11 1585.48,-110.71 1580.57,-120.09 1587.49,-121.11"/>
<text text-anchor="middle" x="1490.25" y="-843.27" font-family="Helvetica,sans-Serif" font-size="10.00">v0.4.2</text>
</g>
<!-- fortio.org/logc -->
<g id="node8" class="node">
<title>fortio.org/logc</title>
<path fill="lightblue" stroke="black" d="M444.12,-1256C444.12,-1256 370.38,-1256 370.38,-1256 364.38,-1256 358.38,-1250 358.38,-1244 358.38,-1244 358.38,-1232 358.38,-1232 358.38,-1226 364.38,-1220 370.38,-1220 370.38,-1220 444.12,-1220 444.12,-1220 450.12,-1220 456.12,-1226 456.12,-1232 456.12,-1232 456.12,-1244 456.12,-1244 456.12,-1250 450.12,-1256 444.12,-1256"/>
<text text-anchor="middle" x="407.25" y="-1232.2" font-family="Helvetica,sans-Serif" font-size="14.00">fortio.org/logc</text>
</g>
<!-- fortio.org/logc&#45;&gt;fortio.org/cli -->
<g id="edge27" class="edge">
<title>fortio.org/logc&#45;&gt;fortio.org/cli</title>
<path fill="none" stroke="black" d="M419.66,-1219.68C459.39,-1157.79 598.86,-956.19 774.75,-880 891.54,-829.41 1045.75,-851.04 1125.65,-867.93"/>
<polygon fill="black" stroke="black" points="1124.43,-871.24 1134.94,-869.95 1125.92,-864.4 1124.43,-871.24"/>
<text text-anchor="middle" x="740.62" y="-905.58" font-family="Helvetica,sans-Serif" font-size="10.00">v1.10.0</text>
</g>
<!-- fortio.org/logc&#45;&gt;fortio.org/log -->
<g id="edge28" class="edge">
<title>fortio.org/logc&#45;&gt;fortio.org/log</title>
<path fill="none" stroke="black" d="M456.59,-1235.95C634.78,-1228.76 1248.56,-1207.35 1324.25,-1250 1357.12,-1268.52 1378.19,-1308.04 1389.44,-1335.32"/>
<polygon fill="black" stroke="black" points="1386.09,-1336.35 1392.99,-1344.4 1392.61,-1333.81 1386.09,-1336.35"/>
<text text-anchor="middle" x="879.5" y="-1227.93" font-family="Helvetica,sans-Serif" font-size="10.00">v1.17.2</text>
</g>
<!-- fortio.org/logc&#45;&gt;fortio.org/scli -->
<g id="edge29" class="edge">
<title>fortio.org/logc&#45;&gt;fortio.org/scli</title>
<path fill="none" stroke="black" d="M456.62,-1241.33C487.18,-1245.21 526.5,-1253.61 557,-1271.75 584.46,-1288.09 607.63,-1316.67 622.41,-1338.09"/>
<polygon fill="black" stroke="black" points="619.48,-1340.01 627.94,-1346.39 625.31,-1336.12 619.48,-1340.01"/>
<text text-anchor="middle" x="540.88" y="-1273.5" font-family="Helvetica,sans-Serif" font-size="10.00">v1.15.3</text>
</g>
<!-- fortio.org/memstore -->
<g id="node9" class="node">
<title>fortio.org/memstore</title>
<path fill="lightblue" stroke="black" d="M175,-2222C175,-2222 64.5,-2222 64.5,-2222 58.5,-2222 52.5,-2216 52.5,-2210 52.5,-2210 52.5,-2198 52.5,-2198 52.5,-2192 58.5,-2186 64.5,-2186 64.5,-2186 175,-2186 175,-2186 181,-2186 187,-2192 187,-2198 187,-2198 187,-2210 187,-2210 187,-2216 181,-2222 175,-2222"/>
<text text-anchor="middle" x="119.75" y="-2198.2" font-family="Helvetica,sans-Serif" font-size="14.00">fortio.org/memstore</text>
</g>
<!-- fortio.org/memstore&#45;&gt;fortio.org/dflag -->
<g id="edge30" class="edge">
<title>fortio.org/memstore&#45;&gt;fortio.org/dflag</title>
<path fill="none" stroke="black" d="M187.33,-2198.72C275.86,-2191.7 437.19,-2178.91 575,-2168 658.66,-2161.38 755.28,-2153.74 816.62,-2148.89"/>
<polygon fill="black" stroke="black" points="816.82,-2152.39 826.51,-2148.11 816.27,-2145.41 816.82,-2152.39"/>
<text text-anchor="middle" x="540.88" y="-2173.5" font-family="Helvetica,sans-Serif" font-size="10.00">v1.7.3</text>
</g>
<!-- fortio.org/memstore&#45;&gt;fortio.org/fortio -->
<g id="edge31" class="edge">
<title>fortio.org/memstore&#45;&gt;fortio.org/fortio</title>
<path fill="none" stroke="black" d="M181.04,-2185.56C202.53,-2176.11 224.98,-2162.39 239.5,-2143 310.58,-2048.1 275.83,-1998.75 289.75,-1881 294.87,-1837.7 290.59,-1529.08 307.75,-1489 321.25,-1457.47 349,-1429.89 371.62,-1411.23"/>
<polygon fill="black" stroke="black" points="373.5,-1414.2 379.13,-1405.22 369.13,-1408.73 373.5,-1414.2"/>
<text text-anchor="middle" x="273.62" y="-2117.53" font-family="Helvetica,sans-Serif" font-size="10.00">v1.68.0</text>
</g>
<!-- fortio.org/memstore&#45;&gt;fortio.org/log -->
<g id="edge32" class="edge">
<title>fortio.org/memstore&#45;&gt;fortio.org/log</title>
<path fill="none" stroke="black" d="M187.33,-2216.75C204.51,-2220.69 222.85,-2225.47 239.5,-2231 316.45,-2256.55 325.17,-2305 406.25,-2305 406.25,-2305 406.25,-2305 1035.88,-2305 1142.44,-2305 1184.98,-2335.58 1274,-2277 1292.65,-2264.73 1317.5,-2211.28 1324.25,-2190 1372.88,-2036.76 1393.93,-1522.41 1398.51,-1393.49"/>
<polygon fill="black" stroke="black" points="1402,-1393.87 1398.85,-1383.76 1395,-1393.63 1402,-1393.87"/>
<text text-anchor="middle" x="740.62" y="-2306.75" font-family="Helvetica,sans-Serif" font-size="10.00">v1.17.1</text>
</g>
<!-- fortio.org/memstore&#45;&gt;fortio.org/scli -->
<g id="edge33" class="edge">
<title>fortio.org/memstore&#45;&gt;fortio.org/scli</title>
<path fill="none" stroke="black" d="M187.21,-2187.03C224.17,-2173.86 267.15,-2151.51 289.75,-2115 312.54,-2078.19 280.8,-1759.63 307.75,-1725.75 364.93,-1653.87 442.27,-1735.41 506.75,-1670 528.7,-1647.74 513.85,-1631.3 524.75,-1602 553.67,-1524.25 599.59,-1437.78 623.72,-1394.27"/>
<polygon fill="black" stroke="black" points="626.67,-1396.18 628.49,-1385.74 620.56,-1392.76 626.67,-1396.18"/>
<text text-anchor="middle" x="407.25" y="-1727.5" font-family="Helvetica,sans-Serif" font-size="10.00">v1.15.3</text>
</g>
<!-- fortio.org/memstore&#45;&gt;fortio.org/sets -->
<g id="edge34" class="edge">
<title>fortio.org/memstore&#45;&gt;fortio.org/sets</title>
<path fill="none" stroke="black" d="M187.38,-2205.92C218.49,-2206.53 256.02,-2206.85 289.75,-2206 366.99,-2204.05 914.7,-2204.66 984.25,-2171 1074.56,-2127.29 1138.55,-2019.82 1165.09,-1968.36"/>
<polygon fill="black" stroke="black" points="1168.12,-1970.13 1169.5,-1959.63 1161.87,-1966.98 1168.12,-1970.13"/>
<text text-anchor="middle" x="640.75" y="-2203.62" font-family="Helvetica,sans-Serif" font-size="10.00">v1.2.0</text>
</g>
<!-- fortio.org/multicurl -->
<g id="node10" class="node">
<title>fortio.org/multicurl</title>
<path fill="lightblue" stroke="black" d="M929.5,-1344C929.5,-1344 829.5,-1344 829.5,-1344 823.5,-1344 817.5,-1338 817.5,-1332 817.5,-1332 817.5,-1320 817.5,-1320 817.5,-1314 823.5,-1308 829.5,-1308 829.5,-1308 929.5,-1308 929.5,-1308 935.5,-1308 941.5,-1314 941.5,-1320 941.5,-1320 941.5,-1332 941.5,-1332 941.5,-1338 935.5,-1344 929.5,-1344"/>
<text text-anchor="middle" x="879.5" y="-1320.2" font-family="Helvetica,sans-Serif" font-size="14.00">fortio.org/multicurl</text>
</g>
<!-- fortio.org/multicurl&#45;&gt;fortio.org/cli -->
<g id="edge35" class="edge">
<title>fortio.org/multicurl&#45;&gt;fortio.org/cli</title>
<path fill="none" stroke="black" d="M912.57,-1307.59C933.96,-1294.56 962.12,-1275.91 984.25,-1256 1026.99,-1217.55 1045.14,-1209.96 1067.5,-1157 1098.77,-1082.93 1051.6,-1049.9 1085.5,-977 1098.56,-948.92 1123.29,-924.06 1144.01,-906.67"/>
<polygon fill="black" stroke="black" points="1146.16,-909.44 1151.72,-900.42 1141.75,-904 1146.16,-909.44"/>
<text text-anchor="middle" x="1034.88" y="-1241.35" font-family="Helvetica,sans-Serif" font-size="10.00">v1.10.0</text>
</g>
<!-- fortio.org/multicurl&#45;&gt;fortio.org/log -->
<g id="edge36" class="edge">
<title>fortio.org/multicurl&#45;&gt;fortio.org/log</title>
<path fill="none" stroke="black" d="M941.82,-1330.49C1043.37,-1337.93 1245,-1352.69 1343.17,-1359.88"/>
<polygon fill="black" stroke="black" points="1342.88,-1363.36 1353.11,-1360.6 1343.39,-1356.38 1342.88,-1363.36"/>
<text text-anchor="middle" x="1179.75" y="-1356.46" font-family="Helvetica,sans-Serif" font-size="10.00">v1.17.2</text>
</g>
<!-- fortio.org/progressbar -->
<g id="node12" class="node">
<title>fortio.org/progressbar</title>
<path fill="lightblue" stroke="black" d="M1240.25,-1328C1240.25,-1328 1119.25,-1328 1119.25,-1328 1113.25,-1328 1107.25,-1322 1107.25,-1316 1107.25,-1316 1107.25,-1304 1107.25,-1304 1107.25,-1298 1113.25,-1292 1119.25,-1292 1119.25,-1292 1240.25,-1292 1240.25,-1292 1246.25,-1292 1252.25,-1298 1252.25,-1304 1252.25,-1304 1252.25,-1316 1252.25,-1316 1252.25,-1322 1246.25,-1328 1240.25,-1328"/>
<text text-anchor="middle" x="1179.75" y="-1304.2" font-family="Helvetica,sans-Serif" font-size="14.00">fortio.org/progressbar</text>
</g>
<!-- fortio.org/multicurl&#45;&gt;fortio.org/progressbar -->
<g id="edge37" class="edge">
<title>fortio.org/multicurl&#45;&gt;fortio.org/progressbar</title>
<path fill="none" stroke="black" d="M941.97,-1316.18C961.21,-1313.54 982.57,-1311.06 1002.25,-1309.75 1031.19,-1307.83 1038.5,-1309.72 1067.5,-1309.75 1076.56,-1309.76 1086.04,-1309.78 1095.48,-1309.79"/>
<polygon fill="black" stroke="black" points="1095.42,-1313.29 1105.42,-1309.81 1095.43,-1306.29 1095.42,-1313.29"/>
<text text-anchor="middle" x="1034.88" y="-1311.5" font-family="Helvetica,sans-Serif" font-size="10.00">v0.12.0</text>
</g>
<!-- fortio.org/multicurl&#45;&gt;fortio.org/testscript -->
<g id="edge38" class="edge">
<title>fortio.org/multicurl&#45;&gt;fortio.org/testscript</title>
<path fill="none" stroke="black" d="M919.91,-1344.46C943.57,-1355.3 974.4,-1368.99 1002.25,-1380 1030.81,-1391.29 1046.87,-1380 1067.5,-1402.75 1090.31,-1427.9 1067.58,-1448.16 1085.5,-1477 1098.4,-1497.76 1118.71,-1515.7 1137.09,-1529.12"/>
<polygon fill="black" stroke="black" points="1135.05,-1531.96 1145.24,-1534.85 1139.07,-1526.24 1135.05,-1531.96"/>
<text text-anchor="middle" x="1034.88" y="-1404.5" font-family="Helvetica,sans-Serif" font-size="10.00">v0.3.2</text>
</g>
<!-- fortio.org/multicurl&#45;&gt;fortio.org/version -->
<g id="edge39" class="edge">
<title>fortio.org/multicurl&#45;&gt;fortio.org/version</title>
<path fill="none" stroke="black" d="M942,-1319.16C984.06,-1311.07 1037.45,-1293.44 1067.5,-1255 1108.93,-1202.02 1039.34,-1153.66 1085.5,-1104.75 1143.91,-1042.85 1203.71,-1118.99 1274,-1071 1309.3,-1046.9 1309.79,-1029.22 1324.25,-989 1390.09,-805.8 1398.61,-567.84 1399.49,-485.53"/>
<polygon fill="black" stroke="black" points="1402.99,-485.65 1399.57,-475.63 1395.99,-485.6 1402.99,-485.65"/>
<text text-anchor="middle" x="1179.75" y="-1106.5" font-family="Helvetica,sans-Serif" font-size="10.00">v1.0.4</text>
</g>
<!-- fortio.org/otel&#45;sample&#45;app -->
<g id="node11" class="node">
<title>fortio.org/otel&#45;sample&#45;app</title>
<path fill="lightblue" stroke="black" d="M193,-2276C193,-2276 46.5,-2276 46.5,-2276 40.5,-2276 34.5,-2270 34.5,-2264 34.5,-2264 34.5,-2252 34.5,-2252 34.5,-2246 40.5,-2240 46.5,-2240 46.5,-2240 193,-2240 193,-2240 199,-2240 205,-2246 205,-2252 205,-2252 205,-2264 205,-2264 205,-2270 199,-2276 193,-2276"/>
<text text-anchor="middle" x="119.75" y="-2252.2" font-family="Helvetica,sans-Serif" font-size="14.00">fortio.org/otel&#45;sample&#45;app</text>
</g>
<!-- fortio.org/proxy -->
<g id="node13" class="node">
<title>fortio.org/proxy</title>
<path fill="lightblue" stroke="black" d="M160.75,-1579C160.75,-1579 78.75,-1579 78.75,-1579 72.75,-1579 66.75,-1573 66.75,-1567 66.75,-1567 66.75,-1555 66.75,-1555 66.75,-1549 72.75,-1543 78.75,-1543 78.75,-1543 160.75,-1543 160.75,-1543 166.75,-1543 172.75,-1549 172.75,-1555 172.75,-1555 172.75,-1567 172.75,-1567 172.75,-1573 166.75,-1579 160.75,-1579"/>
<text text-anchor="middle" x="119.75" y="-1555.2" font-family="Helvetica,sans-Serif" font-size="14.00">fortio.org/proxy</text>
</g>
<!-- fortio.org/proxy&#45;&gt;fortio.org/cli -->
<g id="edge40" class="edge">
<title>fortio.org/proxy&#45;&gt;fortio.org/cli</title>
<path fill="none" stroke="black" d="M151.01,-1542.57C178.83,-1523.9 218.8,-1492.34 239.5,-1454 286.92,-1366.15 259.48,-1097.38 307.75,-1010 369.45,-898.3 415.29,-887.59 524.75,-822 643.53,-750.82 1059.57,-801.51 1067.5,-804 1099.66,-814.1 1130.72,-837.07 1151.81,-855.31"/>
<polygon fill="black" stroke="black" points="1149.28,-857.75 1159.08,-861.78 1153.94,-852.52 1149.28,-857.75"/>
<text text-anchor="middle" x="640.75" y="-803.41" font-family="Helvetica,sans-Serif" font-size="10.00">v1.10.0</text>
</g>
<!-- fortio.org/proxy&#45;&gt;fortio.org/dflag -->
<g id="edge41" class="edge">
<title>fortio.org/proxy&#45;&gt;fortio.org/dflag</title>
<path fill="none" stroke="black" d="M123.97,-1579.11C136.02,-1641.52 184.22,-1849.76 307.75,-1959 457.31,-2091.26 702.85,-2129.17 816.82,-2139.88"/>
<polygon fill="black" stroke="black" points="816.31,-2143.35 826.58,-2140.75 816.93,-2136.38 816.31,-2143.35"/>
<text text-anchor="middle" x="540.88" y="-2090.33" font-family="Helvetica,sans-Serif" font-size="10.00">v1.8.1</text>
</g>
<!-- fortio.org/proxy&#45;&gt;fortio.org/fortio -->
<g id="edge42" class="edge">
<title>fortio.org/proxy&#45;&gt;fortio.org/fortio</title>
<path fill="none" stroke="black" d="M173.07,-1550.48C207.95,-1541.88 253.83,-1527.42 289.75,-1505 300.44,-1498.32 350.64,-1445.51 381.55,-1412.52"/>
<polygon fill="black" stroke="black" points="384.03,-1415 388.3,-1405.31 378.91,-1410.22 384.03,-1415"/>
<text text-anchor="middle" x="273.62" y="-1522.75" font-family="Helvetica,sans-Serif" font-size="10.00">v1.69.1</text>
</g>
<!-- fortio.org/proxy&#45;&gt;fortio.org/log -->
<g id="edge43" class="edge">
<title>fortio.org/proxy&#45;&gt;fortio.org/log</title>
<path fill="none" stroke="black" d="M125.26,-1579.11C140.41,-1636.08 194.98,-1813.22 307.75,-1903 379.63,-1960.23 419.88,-1929.06 506.75,-1959 628.48,-2000.95 648.43,-2044.08 774.75,-2069 866.1,-2087.02 891.53,-2077.57 984.25,-2069 1114.69,-2056.95 1168.82,-2093.08 1274,-2015 1375.98,-1939.3 1395.4,-1510.32 1398.82,-1393.42"/>
<polygon fill="black" stroke="black" points="1402.31,-1393.81 1399.08,-1383.72 1395.31,-1393.62 1402.31,-1393.81"/>
<text text-anchor="middle" x="740.62" y="-2066.69" font-family="Helvetica,sans-Serif" font-size="10.00">v1.17.2</text>
</g>
<!-- fortio.org/proxy&#45;&gt;fortio.org/scli -->
<g id="edge44" class="edge">
<title>fortio.org/proxy&#45;&gt;fortio.org/scli</title>
<path fill="none" stroke="black" d="M154.22,-1542.6C192.91,-1519.55 255.64,-1476.39 289.75,-1422 307.79,-1393.23 281.06,-1368.74 307.75,-1347.75 387.81,-1284.78 515.22,-1317.28 586.68,-1343.56"/>
<polygon fill="black" stroke="black" points="585.22,-1346.75 595.82,-1347.01 587.7,-1340.21 585.22,-1346.75"/>
<text text-anchor="middle" x="407.25" y="-1349.5" font-family="Helvetica,sans-Serif" font-size="10.00">v1.16.1</text>
</g>
<!-- fortio.org/scli&#45;&gt;fortio.org/cli -->
<g id="edge45" class="edge">
<title>fortio.org/scli&#45;&gt;fortio.org/cli</title>
<path fill="none" stroke="black" d="M687.47,-1356.18C712.3,-1348.33 741.05,-1334.58 756.75,-1311 778.78,-1277.92 748.5,-983.59 774.75,-953.75 786.32,-940.6 1018.36,-904.75 1125.44,-888.81"/>
<polygon fill="black" stroke="black" points="1125.75,-892.3 1135.13,-887.37 1124.73,-885.38 1125.75,-892.3"/>
<text text-anchor="middle" x="879.5" y="-955.5" font-family="Helvetica,sans-Serif" font-size="10.00">v1.10.0</text>
</g>
<!-- fortio.org/scli&#45;&gt;fortio.org/dflag -->
<g id="edge46" class="edge">
<title>fortio.org/scli&#45;&gt;fortio.org/dflag</title>
<path fill="none" stroke="black" d="M648.42,-1384.3C660.43,-1417.42 686.33,-1489.57 706.5,-1551 730.25,-1623.33 743.39,-1639.8 756.75,-1714.75 769.49,-1786.23 745.01,-1974.76 774.75,-2041 789.07,-2072.89 818.01,-2100.27 841.69,-2118.78"/>
<polygon fill="black" stroke="black" points="839.51,-2121.51 849.59,-2124.75 843.73,-2115.93 839.51,-2121.51"/>
<text text-anchor="middle" x="740.62" y="-1716.5" font-family="Helvetica,sans-Serif" font-size="10.00">v1.8.1</text>
</g>
<!-- fortio.org/scli&#45;&gt;fortio.org/log -->
<g id="edge47" class="edge">
<title>fortio.org/scli&#45;&gt;fortio.org/log</title>
<path fill="none" stroke="black" d="M687.38,-1364.83C768.52,-1363.48 934.07,-1364.25 984.25,-1391 995.7,-1397.11 990.58,-1408.31 1002.25,-1414 1028.32,-1426.7 1038.58,-1416.17 1067.5,-1414 1165.31,-1406.68 1277.97,-1387.38 1343.71,-1375.01"/>
<polygon fill="black" stroke="black" points="1343.97,-1378.52 1353.15,-1373.22 1342.67,-1371.65 1343.97,-1378.52"/>
<text text-anchor="middle" x="1034.88" y="-1421.91" font-family="Helvetica,sans-Serif" font-size="10.00">v1.17.2</text>
</g>
<!-- fortio.org/scli&#45;&gt;fortio.org/version -->
<g id="edge48" class="edge">
<title>fortio.org/scli&#45;&gt;fortio.org/version</title>
<path fill="none" stroke="black" d="M643.2,-1347.64C649.63,-1269.7 677.27,-966.58 724.5,-885 823.66,-713.72 959.24,-766.68 1067.5,-601 1083.43,-576.62 1064.67,-558.35 1085.5,-538 1094.41,-529.29 1241,-493.45 1330.69,-472.14"/>
<polygon fill="black" stroke="black" points="1331.48,-475.55 1340.4,-469.84 1329.86,-468.74 1331.48,-475.55"/>
<text text-anchor="middle" x="1034.88" y="-677.23" font-family="Helvetica,sans-Serif" font-size="10.00">v1.0.4</text>
</g>
<!-- fortio.org/sets&#45;&gt;fortio.org/assert -->
<g id="edge49" class="edge">
<title>fortio.org/sets&#45;&gt;fortio.org/assert</title>
<path fill="none" stroke="black" d="M1191.02,-1958.36C1208.88,-1990.6 1246.39,-2059.68 1274,-2120 1282.96,-2139.59 1280.86,-2146.56 1292,-2165 1314.88,-2202.87 1349.09,-2240.73 1372.74,-2264.92"/>
<polygon fill="black" stroke="black" points="1370.04,-2267.17 1379.57,-2271.8 1375.01,-2262.24 1370.04,-2267.17"/>
<text text-anchor="middle" x="1308.12" y="-2211.24" font-family="Helvetica,sans-Serif" font-size="10.00">v1.2.1</text>
</g>
<!-- fortio.org/slack&#45;proxy -->
<g id="node17" class="node">
<title>fortio.org/slack&#45;proxy</title>
<path fill="lightblue" stroke="black" d="M178.38,-2134C178.38,-2134 61.12,-2134 61.12,-2134 55.12,-2134 49.12,-2128 49.12,-2122 49.12,-2122 49.12,-2110 49.12,-2110 49.12,-2104 55.12,-2098 61.12,-2098 61.12,-2098 178.38,-2098 178.38,-2098 184.38,-2098 190.38,-2104 190.38,-2110 190.38,-2110 190.38,-2122 190.38,-2122 190.38,-2128 184.38,-2134 178.38,-2134"/>
<text text-anchor="middle" x="119.75" y="-2110.2" font-family="Helvetica,sans-Serif" font-size="14.00">fortio.org/slack&#45;proxy</text>
</g>
<!-- fortio.org/slack&#45;proxy&#45;&gt;fortio.org/assert -->
<g id="edge50" class="edge">
<title>fortio.org/slack&#45;proxy&#45;&gt;fortio.org/assert</title>
<path fill="none" stroke="black" d="M159.79,-2134.38C275.94,-2188.42 618.74,-2343 739.62,-2343 739.62,-2343 739.62,-2343 1180.75,-2343 1235.81,-2343 1296.6,-2327.21 1340.09,-2313.04"/>
<polygon fill="black" stroke="black" points="1340.95,-2316.44 1349.33,-2309.96 1338.74,-2309.8 1340.95,-2316.44"/>
<text text-anchor="middle" x="740.62" y="-2344.75" font-family="Helvetica,sans-Serif" font-size="10.00">v1.2.1</text>
</g>
<!-- fortio.org/slack&#45;proxy&#45;&gt;fortio.org/fortio -->
<g id="edge51" class="edge">
<title>fortio.org/slack&#45;proxy&#45;&gt;fortio.org/fortio</title>
<path fill="none" stroke="black" d="M149.87,-2097.63C177.87,-2078.26 218.9,-2045.02 239.5,-2005 241.15,-2001.79 306.19,-1492.26 307.75,-1489 322.61,-1458.02 350.33,-1430.34 372.59,-1411.5"/>
<polygon fill="black" stroke="black" points="374.76,-1414.25 380.26,-1405.19 370.32,-1408.84 374.76,-1414.25"/>
<text text-anchor="middle" x="273.62" y="-1867.68" font-family="Helvetica,sans-Serif" font-size="10.00">v1.69.1</text>
</g>
<!-- fortio.org/slack&#45;proxy&#45;&gt;fortio.org/log -->
<g id="edge52" class="edge">
<title>fortio.org/slack&#45;proxy&#45;&gt;fortio.org/log</title>
<path fill="none" stroke="black" d="M190.57,-2124.21C269.34,-2134.97 400.33,-2157.43 506.75,-2198 539.39,-2210.45 541.49,-2227.13 575,-2237 638.83,-2255.79 657.98,-2243.22 724.5,-2245 847.01,-2248.28 1160.22,-2243.56 1274,-2198 1299.75,-2187.69 1310.59,-2185.14 1324.25,-2161 1400.61,-2026.11 1401.03,-1521.22 1399.88,-1393.5"/>
<polygon fill="black" stroke="black" points="1403.38,-1393.82 1399.78,-1383.86 1396.38,-1393.89 1403.38,-1393.82"/>
<text text-anchor="middle" x="740.62" y="-2247.34" font-family="Helvetica,sans-Serif" font-size="10.00">v1.17.2</text>
</g>
<!-- fortio.org/slack&#45;proxy&#45;&gt;fortio.org/scli -->
<g id="edge53" class="edge">
<title>fortio.org/slack&#45;proxy&#45;&gt;fortio.org/scli</title>
<path fill="none" stroke="black" d="M190.48,-2124.27C225.44,-2124.28 265.4,-2117.21 289.75,-2090 321.73,-2054.26 282.98,-1699.81 307.75,-1658.75 360.6,-1571.14 430.27,-1610.97 506.75,-1543 557.17,-1498.19 600.97,-1431.63 623.52,-1394.2"/>
<polygon fill="black" stroke="black" points="626.44,-1396.15 628.54,-1385.76 620.42,-1392.57 626.44,-1396.15"/>
<text text-anchor="middle" x="407.25" y="-1660.5" font-family="Helvetica,sans-Serif" font-size="10.00">v1.16.1</text>
</g>
<!-- fortio.org/term -->
<g id="node19" class="node">
<title>fortio.org/term</title>
<path fill="steelblue" stroke="black" d="M1248.88,-476C1248.88,-476 1110.62,-476 1110.62,-476 1104.62,-476 1098.62,-470 1098.62,-464 1098.62,-464 1098.62,-450 1098.62,-450 1098.62,-444 1104.62,-438 1110.62,-438 1110.62,-438 1248.88,-438 1248.88,-438 1254.88,-438 1260.88,-444 1260.88,-450 1260.88,-450 1260.88,-464 1260.88,-464 1260.88,-470 1254.88,-476 1248.88,-476"/>
<text text-anchor="middle" x="1179.75" y="-458.7" font-family="Helvetica,sans-Serif" font-size="14.00">fortio/term</text>
<text text-anchor="middle" x="1179.75" y="-443.7" font-family="Helvetica,sans-Serif" font-size="14.00">(module: fortio.org/term)</text>
</g>
<!-- fortio.org/terminal -->
<g id="node20" class="node">
<title>fortio.org/terminal</title>
<path fill="lightblue" stroke="black" d="M928.38,-477C928.38,-477 830.62,-477 830.62,-477 824.62,-477 818.62,-471 818.62,-465 818.62,-465 818.62,-453 818.62,-453 818.62,-447 824.62,-441 830.62,-441 830.62,-441 928.38,-441 928.38,-441 934.38,-441 940.38,-447 940.38,-453 940.38,-453 940.38,-465 940.38,-465 940.38,-471 934.38,-477 928.38,-477"/>
<text text-anchor="middle" x="879.5" y="-453.2" font-family="Helvetica,sans-Serif" font-size="14.00">fortio.org/terminal</text>
</g>
<!-- fortio.org/terminal&#45;&gt;fortio.org/cli -->
<g id="edge54" class="edge">
<title>fortio.org/terminal&#45;&gt;fortio.org/cli</title>
<path fill="none" stroke="black" d="M940.7,-476.07C993.6,-491.31 1062.89,-511.94 1067.5,-516.75 1089.21,-539.39 1076.78,-554.86 1085.5,-585 1113.96,-683.4 1151.58,-798.9 1169.06,-851.83"/>
<polygon fill="black" stroke="black" points="1165.72,-852.9 1172.19,-861.3 1172.37,-850.7 1165.72,-852.9"/>
<text text-anchor="middle" x="1034.88" y="-518.5" font-family="Helvetica,sans-Serif" font-size="10.00">v1.10.0</text>
</g>
<!-- fortio.org/terminal&#45;&gt;fortio.org/log -->
<g id="edge55" class="edge">
<title>fortio.org/terminal&#45;&gt;fortio.org/log</title>
<path fill="none" stroke="black" d="M940.77,-467.67C977.86,-473.88 1026.07,-483.54 1067.5,-497 1186.77,-535.74 1251.22,-512.06 1324.25,-614 1366.93,-673.58 1392.53,-1203.14 1398.27,-1334.58"/>
<polygon fill="black" stroke="black" points="1394.75,-1334.34 1398.68,-1344.18 1401.75,-1334.04 1394.75,-1334.34"/>
<text text-anchor="middle" x="1179.75" y="-562.52" font-family="Helvetica,sans-Serif" font-size="10.00">v1.17.2</text>
</g>
<!-- fortio.org/terminal&#45;&gt;fortio.org/safecast -->
<g id="edge56" class="edge">
<title>fortio.org/terminal&#45;&gt;fortio.org/safecast</title>
<path fill="none" stroke="black" d="M940.85,-448.06C979.09,-439.3 1028.49,-424.52 1067.5,-401 1104.13,-378.92 1137.61,-342.26 1158.07,-317.16"/>
<polygon fill="black" stroke="black" points="1160.55,-319.66 1164.05,-309.66 1155.08,-315.29 1160.55,-319.66"/>
<text text-anchor="middle" x="1034.88" y="-431.66" font-family="Helvetica,sans-Serif" font-size="10.00">v1.0.0</text>
</g>
<!-- fortio.org/terminal&#45;&gt;fortio.org/term -->
<g id="edge57" class="edge">
<title>fortio.org/terminal&#45;&gt;fortio.org/term</title>
<path fill="none" stroke="black" d="M940.57,-458.31C960.23,-458.11 982.17,-457.9 1002.25,-457.75 1029.73,-457.55 1059.62,-457.4 1086.86,-457.29"/>
<polygon fill="black" stroke="black" points="1086.85,-460.79 1096.84,-457.25 1086.83,-453.79 1086.85,-460.79"/>
<text text-anchor="middle" x="1034.88" y="-459.5" font-family="Helvetica,sans-Serif" font-size="10.00">v0.29.0&#45;fortio&#45;1</text>
</g>
<!-- fortio.org/terminal/fps -->
<g id="node21" class="node">
<title>fortio.org/terminal/fps</title>
<path fill="lightblue" stroke="black" d="M179.5,-235C179.5,-235 60,-235 60,-235 54,-235 48,-229 48,-223 48,-223 48,-211 48,-211 48,-205 54,-199 60,-199 60,-199 179.5,-199 179.5,-199 185.5,-199 191.5,-205 191.5,-211 191.5,-211 191.5,-223 191.5,-223 191.5,-229 185.5,-235 179.5,-235"/>
<text text-anchor="middle" x="119.75" y="-211.2" font-family="Helvetica,sans-Serif" font-size="14.00">fortio.org/terminal/fps</text>
</g>
<!-- fortio.org/terminal/fps&#45;&gt;fortio.org/cli -->
<g id="edge58" class="edge">
<title>fortio.org/terminal/fps&#45;&gt;fortio.org/cli</title>
<path fill="none" stroke="black" d="M124.32,-235.39C136.91,-294.82 185.35,-482.38 307.75,-561 450.05,-652.4 929.93,-507.62 1067.5,-606 1149.05,-664.31 1170.9,-792.94 1176.69,-851.24"/>
<polygon fill="black" stroke="black" points="1173.2,-851.4 1177.57,-861.05 1180.17,-850.78 1173.2,-851.4"/>
<text text-anchor="middle" x="640.75" y="-591.13" font-family="Helvetica,sans-Serif" font-size="10.00">v1.10.0</text>
</g>
<!-- fortio.org/terminal/fps&#45;&gt;fortio.org/fortio -->
<g id="edge59" class="edge">
<title>fortio.org/terminal/fps&#45;&gt;fortio.org/fortio</title>
<path fill="none" stroke="black" d="M125.51,-235.29C142.02,-298.97 198.1,-516.88 239.5,-698 263.67,-803.71 276.2,-829.16 289.75,-936.75 295.55,-982.79 279.67,-1317.06 307.75,-1354 316.77,-1365.86 330.27,-1373.4 344.41,-1378.17"/>
<polygon fill="black" stroke="black" points="343.25,-1381.47 353.82,-1380.88 345.18,-1374.75 343.25,-1381.47"/>
<text text-anchor="middle" x="273.62" y="-938.5" font-family="Helvetica,sans-Serif" font-size="10.00">v1.69.1</text>
</g>
<!-- fortio.org/terminal/fps&#45;&gt;fortio.org/log -->
<g id="edge60" class="edge">
<title>fortio.org/terminal/fps&#45;&gt;fortio.org/log</title>
<path fill="none" stroke="black" d="M146.13,-198.63C180.73,-174.73 245.52,-133.91 307.75,-116 452.25,-74.41 837.44,-69.48 984.25,-102 1119.52,-131.97 1166.72,-129.32 1274,-217 1305.64,-242.86 1311.23,-255.26 1324.25,-294 1332.79,-319.4 1386.84,-1164.6 1397.63,-1334.45"/>
<polygon fill="black" stroke="black" points="1394.13,-1334.64 1398.26,-1344.39 1401.12,-1334.19 1394.13,-1334.64"/>
<text text-anchor="middle" x="740.62" y="-83.12" font-family="Helvetica,sans-Serif" font-size="10.00">v1.17.2</text>
</g>
<!-- fortio.org/terminal/fps&#45;&gt;fortio.org/safecast -->
<g id="edge61" class="edge">
<title>fortio.org/terminal/fps&#45;&gt;fortio.org/safecast</title>
<path fill="none" stroke="black" d="M173.06,-198.51C310.27,-152.96 690.25,-45.93 984.25,-144 1020.88,-156.22 1104.45,-225.5 1149.19,-264.07"/>
<polygon fill="black" stroke="black" points="1146.86,-266.69 1156.71,-270.59 1151.44,-261.4 1146.86,-266.69"/>
<text text-anchor="middle" x="640.75" y="-112.59" font-family="Helvetica,sans-Serif" font-size="10.00">v1.0.0</text>
</g>
<!-- fortio.org/terminal/fps&#45;&gt;fortio.org/terminal -->
<g id="edge62" class="edge">
<title>fortio.org/terminal/fps&#45;&gt;fortio.org/terminal</title>
<path fill="none" stroke="black" d="M191.66,-207.17C304.29,-194.34 529.41,-180.08 706.5,-241 732.48,-249.94 742.11,-253.75 756.75,-277 781.28,-315.96 750.91,-339.62 774.75,-379 788.73,-402.1 812.05,-420.97 833.05,-434.58"/>
<polygon fill="black" stroke="black" points="831.17,-437.54 841.51,-439.84 834.87,-431.59 831.17,-437.54"/>
<text text-anchor="middle" x="540.88" y="-207.71" font-family="Helvetica,sans-Serif" font-size="10.00">v0.29.1</text>
</g>
<!-- github.com/bwmarrin/discordgo -->
<g id="node24" class="node">
<title>github.com/bwmarrin/discordgo</title>
<path fill="coral" stroke="black" d="M694.5,-328C694.5,-328 587,-328 587,-328 581,-328 575,-322 575,-316 575,-316 575,-304 575,-304 575,-298 581,-292 587,-292 587,-292 694.5,-292 694.5,-292 700.5,-292 706.5,-298 706.5,-304 706.5,-304 706.5,-316 706.5,-316 706.5,-322 700.5,-328 694.5,-328"/>
<text text-anchor="middle" x="640.75" y="-304.2" font-family="Helvetica,sans-Serif" font-size="14.00">ldemailly/discordgo</text>
</g>
<!-- github.com/fortio/delta -->
<g id="node25" class="node">
<title>github.com/fortio/delta</title>
<path fill="lightblue" stroke="black" d="M942.25,-1436C942.25,-1436 816.75,-1436 816.75,-1436 810.75,-1436 804.75,-1430 804.75,-1424 804.75,-1424 804.75,-1412 804.75,-1412 804.75,-1406 810.75,-1400 816.75,-1400 816.75,-1400 942.25,-1400 942.25,-1400 948.25,-1400 954.25,-1406 954.25,-1412 954.25,-1412 954.25,-1424 954.25,-1424 954.25,-1430 948.25,-1436 942.25,-1436"/>
<text text-anchor="middle" x="879.5" y="-1412.2" font-family="Helvetica,sans-Serif" font-size="14.00">github.com/fortio/delta</text>
</g>
<!-- github.com/fortio/delta&#45;&gt;fortio.org/cli -->
<g id="edge63" class="edge">
<title>github.com/fortio/delta&#45;&gt;fortio.org/cli</title>
<path fill="none" stroke="black" d="M923.1,-1399.55C975.57,-1376.41 1058.85,-1338.19 1067.5,-1325 1109.97,-1260.25 1054.54,-1047.98 1085.5,-977 1097.88,-948.62 1122.64,-923.77 1143.54,-906.46"/>
<polygon fill="black" stroke="black" points="1145.71,-909.21 1151.33,-900.24 1141.33,-903.75 1145.71,-909.21"/>
<text text-anchor="middle" x="1034.88" y="-1362.81" font-family="Helvetica,sans-Serif" font-size="10.00">v1.10.0</text>
</g>
<!-- github.com/fortio/delta&#45;&gt;fortio.org/log -->
<g id="edge64" class="edge">
<title>github.com/fortio/delta&#45;&gt;fortio.org/log</title>
<path fill="none" stroke="black" d="M942.84,-1436.43C961.75,-1441.18 982.69,-1445.63 1002.25,-1448 1097.59,-1459.57 1277.19,-1449.62 1324.25,-1430 1344.76,-1421.45 1363.56,-1404.97 1377.24,-1390.61"/>
<polygon fill="black" stroke="black" points="1379.49,-1393.34 1383.65,-1383.6 1374.32,-1388.62 1379.49,-1393.34"/>
<text text-anchor="middle" x="1179.75" y="-1454.68" font-family="Helvetica,sans-Serif" font-size="10.00">v1.17.2</text>
</g>
<!-- github.com/fortio/delta&#45;&gt;fortio.org/sets -->
<g id="edge65" class="edge">
<title>github.com/fortio/delta&#45;&gt;fortio.org/sets</title>
<path fill="none" stroke="black" d="M954.72,-1429.95C965.86,-1434.62 976.26,-1441.08 984.25,-1450 1012.63,-1481.69 987.83,-1503.98 1002.25,-1544 1022.66,-1600.66 1041.74,-1608.32 1067.5,-1662.75 1109.37,-1751.22 1149.97,-1859.93 1168.41,-1910.95"/>
<polygon fill="black" stroke="black" points="1165.02,-1911.86 1171.7,-1920.08 1171.61,-1909.49 1165.02,-1911.86"/>
<text text-anchor="middle" x="1034.88" y="-1664.5" font-family="Helvetica,sans-Serif" font-size="10.00">v1.2.0</text>
</g>
<!-- github.com/fortio/delta&#45;&gt;fortio.org/testscript -->
<g id="edge66" class="edge">
<title>github.com/fortio/delta&#45;&gt;fortio.org/testscript</title>
<path fill="none" stroke="black" d="M954.66,-1431.09C965.6,-1435.64 975.96,-1441.76 984.25,-1450 1003.1,-1468.72 983.09,-1488.6 1002.25,-1507 1008.76,-1513.26 1044.35,-1523.43 1081.88,-1532.81"/>
<polygon fill="black" stroke="black" points="1081,-1536.2 1091.55,-1535.19 1082.68,-1529.4 1081,-1536.2"/>
<text text-anchor="middle" x="1034.88" y="-1530.45" font-family="Helvetica,sans-Serif" font-size="10.00">v0.3.2</text>
</g>
<!-- github.com/fortio/h2cli -->
<g id="node26" class="node">
<title>github.com/fortio/h2cli</title>
<path fill="lightblue" stroke="black" d="M941.5,-1151C941.5,-1151 817.5,-1151 817.5,-1151 811.5,-1151 805.5,-1145 805.5,-1139 805.5,-1139 805.5,-1127 805.5,-1127 805.5,-1121 811.5,-1115 817.5,-1115 817.5,-1115 941.5,-1115 941.5,-1115 947.5,-1115 953.5,-1121 953.5,-1127 953.5,-1127 953.5,-1139 953.5,-1139 953.5,-1145 947.5,-1151 941.5,-1151"/>
<text text-anchor="middle" x="879.5" y="-1127.2" font-family="Helvetica,sans-Serif" font-size="14.00">github.com/fortio/h2cli</text>
</g>
<!-- github.com/fortio/h2cli&#45;&gt;fortio.org/cli -->
<g id="edge67" class="edge">
<title>github.com/fortio/h2cli&#45;&gt;fortio.org/cli</title>
<path fill="none" stroke="black" d="M953.98,-1120.39C964.63,-1116.74 975.08,-1112.05 984.25,-1106 995.16,-1098.8 993.88,-1092.79 1002.25,-1082.75 1030.06,-1049.39 1042.43,-1045.47 1067.5,-1010 1077.14,-996.36 1075.59,-990.45 1085.5,-977 1104.47,-951.26 1130,-925.45 1149.55,-907.08"/>
<polygon fill="black" stroke="black" points="1151.72,-909.83 1156.68,-900.47 1146.97,-904.7 1151.72,-909.83"/>
<text text-anchor="middle" x="1034.88" y="-1084.5" font-family="Helvetica,sans-Serif" font-size="10.00">v1.10.0</text>
</g>
<!-- github.com/fortio/h2cli&#45;&gt;fortio.org/log -->
<g id="edge68" class="edge">
<title>github.com/fortio/h2cli&#45;&gt;fortio.org/log</title>
<path fill="none" stroke="black" d="M953.82,-1125.3C969.77,-1123.92 986.56,-1122.71 1002.25,-1122 1124.13,-1116.51 1160.3,-1116.53 1274,-1160.75 1298.51,-1170.28 1307.04,-1172.11 1324.25,-1192 1361.11,-1234.59 1382.49,-1298.05 1392.5,-1334.8"/>
<polygon fill="black" stroke="black" points="1389.06,-1335.48 1394.97,-1344.27 1395.83,-1333.71 1389.06,-1335.48"/>
<text text-anchor="middle" x="1179.75" y="-1162.5" font-family="Helvetica,sans-Serif" font-size="10.00">v1.17.2</text>
</g>
<!-- github.com/fortio/h2demo -->
<g id="node27" class="node">
<title>github.com/fortio/h2demo</title>
<path fill="lightblue" stroke="black" d="M192.62,-2330C192.62,-2330 46.87,-2330 46.87,-2330 40.88,-2330 34.88,-2324 34.88,-2318 34.88,-2318 34.88,-2306 34.88,-2306 34.88,-2300 40.88,-2294 46.88,-2294 46.88,-2294 192.62,-2294 192.62,-2294 198.62,-2294 204.62,-2300 204.62,-2306 204.62,-2306 204.62,-2318 204.62,-2318 204.62,-2324 198.62,-2330 192.62,-2330"/>
<text text-anchor="middle" x="119.75" y="-2306.2" font-family="Helvetica,sans-Serif" font-size="14.00">github.com/fortio/h2demo</text>
</g>
<!-- github.com/fortio/logger&#45;bench -->
<g id="node28" class="node">
<title>github.com/fortio/logger&#45;bench</title>
<path fill="lightblue" stroke="black" d="M494.75,-1782C494.75,-1782 319.75,-1782 319.75,-1782 313.75,-1782 307.75,-1776 307.75,-1770 307.75,-1770 307.75,-1758 307.75,-1758 307.75,-1752 313.75,-1746 319.75,-1746 319.75,-1746 494.75,-1746 494.75,-1746 500.75,-1746 506.75,-1752 506.75,-1758 506.75,-1758 506.75,-1770 506.75,-1770 506.75,-1776 500.75,-1782 494.75,-1782"/>
<text text-anchor="middle" x="407.25" y="-1758.2" font-family="Helvetica,sans-Serif" font-size="14.00">github.com/fortio/logger&#45;bench</text>
</g>
<!-- github.com/fortio/logger&#45;bench&#45;&gt;fortio.org/cli -->
<g id="edge69" class="edge">
<title>github.com/fortio/logger&#45;bench&#45;&gt;fortio.org/cli</title>
<path fill="none" stroke="black" d="M499.66,-1745.62C502.11,-1744.19 504.48,-1742.66 506.75,-1741 519.32,-1731.84 514.21,-1722.43 524.75,-1711 590.86,-1639.29 654.36,-1670.43 706.5,-1588 736.8,-1540.1 698.14,-1511.93 724.5,-1461.75 733.57,-1444.49 748.56,-1449.7 756.75,-1432 777.03,-1388.2 742.64,-1034.03 774.75,-998 837.47,-927.64 901.4,-1009.95 984.25,-965 994.76,-959.3 992.33,-951.68 1002.25,-945 1022.87,-931.11 1081.6,-911.04 1125.7,-897.1"/>
<polygon fill="black" stroke="black" points="1126.62,-900.47 1135.11,-894.14 1124.53,-893.79 1126.62,-900.47"/>
<text text-anchor="middle" x="740.62" y="-1463.5" font-family="Helvetica,sans-Serif" font-size="10.00">v1.10.0</text>
</g>
<!-- github.com/fortio/logger&#45;bench&#45;&gt;fortio.org/log -->
<g id="edge70" class="edge">
<title>github.com/fortio/logger&#45;bench&#45;&gt;fortio.org/log</title>
<path fill="none" stroke="black" d="M507.25,-1777.61C637.58,-1792.45 872.97,-1808.61 1067.5,-1764 1193.16,-1735.18 1257.11,-1739.06 1324.25,-1629 1371.17,-1552.08 1389.79,-1444.85 1396.35,-1393.59"/>
<polygon fill="black" stroke="black" points="1399.79,-1394.23 1397.52,-1383.88 1392.84,-1393.39 1399.79,-1394.23"/>
<text text-anchor="middle" x="879.5" y="-1794.84" font-family="Helvetica,sans-Serif" font-size="10.00">v1.17.2</text>
</g>
<!-- github.com/fortio/logger&#45;bench&#45;&gt;fortio.org/scli -->
<g id="edge71" class="edge">
<title>github.com/fortio/logger&#45;bench&#45;&gt;fortio.org/scli</title>
<path fill="none" stroke="black" d="M452.51,-1745.68C471.09,-1736.28 491.82,-1723.33 506.75,-1707 511.22,-1702.12 554.49,-1605.12 557,-1599 564.98,-1579.49 609.42,-1452.77 629.68,-1394.83"/>
<polygon fill="black" stroke="black" points="632.9,-1396.23 632.89,-1385.64 626.29,-1393.92 632.9,-1396.23"/>
<text text-anchor="middle" x="540.88" y="-1670.39" font-family="Helvetica,sans-Serif" font-size="10.00">v1.16.1</text>
</g>
<!-- github.com/fortio/logger&#45;bench&#45;&gt;fortio.org/sets -->
<g id="edge72" class="edge">
<title>github.com/fortio/logger&#45;bench&#45;&gt;fortio.org/sets</title>
<path fill="none" stroke="black" d="M452.23,-1782.47C520.16,-1810.23 655.27,-1862.39 774.75,-1890 895.35,-1917.87 1040.02,-1931.01 1119.39,-1936.53"/>
<polygon fill="black" stroke="black" points="1118.89,-1940 1129.1,-1937.19 1119.36,-1933.02 1118.89,-1940"/>
<text text-anchor="middle" x="740.62" y="-1887.07" font-family="Helvetica,sans-Serif" font-size="10.00">v1.3.0</text>
</g>
<!-- go.uber.org/zap -->
<g id="node42" class="node">
<title>go.uber.org/zap</title>
<path fill="coral" stroke="black" d="M676.12,-1762C676.12,-1762 605.38,-1762 605.38,-1762 599.38,-1762 593.38,-1756 593.38,-1750 593.38,-1750 593.38,-1738 593.38,-1738 593.38,-1732 599.38,-1726 605.38,-1726 605.38,-1726 676.12,-1726 676.12,-1726 682.12,-1726 688.12,-1732 688.12,-1738 688.12,-1738 688.12,-1750 688.12,-1750 688.12,-1756 682.12,-1762 676.12,-1762"/>
<text text-anchor="middle" x="640.75" y="-1738.2" font-family="Helvetica,sans-Serif" font-size="14.00">ldemailly/zap</text>
</g>
<!-- github.com/fortio/logger&#45;bench&#45;&gt;go.uber.org/zap -->
<g id="edge73" class="edge">
<title>github.com/fortio/logger&#45;bench&#45;&gt;go.uber.org/zap</title>
<path fill="none" stroke="black" d="M507.1,-1755.46C532.53,-1753.26 559.07,-1750.97 581.67,-1749.02"/>
<polygon fill="black" stroke="black" points="581.94,-1752.51 591.6,-1748.16 581.33,-1745.53 581.94,-1752.51"/>
<text text-anchor="middle" x="540.88" y="-1755.15" font-family="Helvetica,sans-Serif" font-size="10.00">v1.27.0</text>
</g>
<!-- github.com/fortio/semtest/v2 -->
<g id="node29" class="node">
<title>github.com/fortio/semtest/v2</title>
<path fill="lightblue" stroke="black" d="M200.88,-860C200.88,-860 38.62,-860 38.62,-860 32.62,-860 26.62,-854 26.62,-848 26.62,-848 26.62,-836 26.62,-836 26.62,-830 32.62,-824 38.62,-824 38.62,-824 200.88,-824 200.88,-824 206.88,-824 212.88,-830 212.88,-836 212.88,-836 212.88,-848 212.88,-848 212.88,-854 206.88,-860 200.88,-860"/>
<text text-anchor="middle" x="119.75" y="-836.2" font-family="Helvetica,sans-Serif" font-size="14.00">github.com/fortio/semtest/v2</text>
</g>
<!-- github.com/fortio/semtest/v2&#45;&gt;fortio.org/fortio -->
<g id="edge74" class="edge">
<title>github.com/fortio/semtest/v2&#45;&gt;fortio.org/fortio</title>
<path fill="none" stroke="black" d="M121.88,-860.45C127.36,-933.98 157.57,-1209.14 307.75,-1354 317.91,-1363.8 331.1,-1370.6 344.51,-1375.32"/>
<polygon fill="black" stroke="black" points="343.23,-1378.58 353.82,-1378.22 345.31,-1371.9 343.23,-1378.58"/>
<text text-anchor="middle" x="273.62" y="-1334.76" font-family="Helvetica,sans-Serif" font-size="10.00">v1.35.0</text>
</g>
<!-- github.com/fortio/workflows -->
<g id="node30" class="node">
<title>github.com/fortio/workflows</title>
<path fill="lightblue" stroke="black" d="M485,-1850C485,-1850 329.5,-1850 329.5,-1850 323.5,-1850 317.5,-1844 317.5,-1838 317.5,-1838 317.5,-1826 317.5,-1826 317.5,-1820 323.5,-1814 329.5,-1814 329.5,-1814 485,-1814 485,-1814 491,-1814 497,-1820 497,-1826 497,-1826 497,-1838 497,-1838 497,-1844 491,-1850 485,-1850"/>
<text text-anchor="middle" x="407.25" y="-1826.2" font-family="Helvetica,sans-Serif" font-size="14.00">github.com/fortio/workflows</text>
</g>
<!-- github.com/fortio/workflows&#45;&gt;fortio.org/log -->
<g id="edge75" class="edge">
<title>github.com/fortio/workflows&#45;&gt;fortio.org/log</title>
<path fill="none" stroke="black" d="M497.47,-1848.4C665.79,-1874.18 1034.76,-1905.61 1274,-1740 1389.77,-1659.86 1400.65,-1467.63 1400.35,-1393.68"/>
<polygon fill="black" stroke="black" points="1403.86,-1393.94 1400.24,-1383.99 1396.86,-1394.03 1403.86,-1393.94"/>
<text text-anchor="middle" x="879.5" y="-1870.78" font-family="Helvetica,sans-Serif" font-size="10.00">v1.17.2</text>
</g>
<!-- github.com/fortio/workflows&#45;&gt;fortio.org/scli -->
<g id="edge76" class="edge">
<title>github.com/fortio/workflows&#45;&gt;fortio.org/scli</title>
<path fill="none" stroke="black" d="M474.71,-1813.57C486.56,-1807.87 497.93,-1800.5 506.75,-1791 524.04,-1772.38 514.05,-1759.79 524.75,-1736.75 536.32,-1711.83 547.79,-1709.89 557,-1684 576.98,-1627.8 561.08,-1609 575,-1551 588.64,-1494.18 613.12,-1430.34 627.76,-1394.47"/>
<polygon fill="black" stroke="black" points="630.81,-1396.25 631.38,-1385.67 624.33,-1393.58 630.81,-1396.25"/>
<text text-anchor="middle" x="540.88" y="-1738.5" font-family="Helvetica,sans-Serif" font-size="10.00">v1.16.0</text>
</g>
<!-- github.com/ldemailly/advent24 -->
<g id="node31" class="node">
<title>github.com/ldemailly/advent24</title>
<path fill="lightsalmon" stroke="black" d="M967,-2032C967,-2032 792,-2032 792,-2032 786,-2032 780,-2026 780,-2020 780,-2020 780,-2008 780,-2008 780,-2002 786,-1996 792,-1996 792,-1996 967,-1996 967,-1996 973,-1996 979,-2002 979,-2008 979,-2008 979,-2020 979,-2020 979,-2026 973,-2032 967,-2032"/>
<text text-anchor="middle" x="879.5" y="-2008.2" font-family="Helvetica,sans-Serif" font-size="14.00">github.com/ldemailly/advent24</text>
</g>
<!-- github.com/ldemailly/advent24&#45;&gt;fortio.org/sets -->
<g id="edge77" class="edge">
<title>github.com/ldemailly/advent24&#45;&gt;fortio.org/sets</title>
<path fill="none" stroke="black" d="M954.99,-1995.52C1005.95,-1982.87 1072.56,-1966.35 1119.82,-1954.62"/>
<polygon fill="black" stroke="black" points="1120.47,-1958.07 1129.33,-1952.26 1118.78,-1951.27 1120.47,-1958.07"/>
<text text-anchor="middle" x="1034.88" y="-1985.38" font-family="Helvetica,sans-Serif" font-size="10.00">v1.2.0</text>
</g>
<!-- github.com/ldemailly/depgraph -->
<g id="node32" class="node">
<title>github.com/ldemailly/depgraph</title>
<path fill="lightsalmon" stroke="black" d="M967.75,-1043C967.75,-1043 791.25,-1043 791.25,-1043 785.25,-1043 779.25,-1037 779.25,-1031 779.25,-1031 779.25,-1019 779.25,-1019 779.25,-1013 785.25,-1007 791.25,-1007 791.25,-1007 967.75,-1007 967.75,-1007 973.75,-1007 979.75,-1013 979.75,-1019 979.75,-1019 979.75,-1031 979.75,-1031 979.75,-1037 973.75,-1043 967.75,-1043"/>
<text text-anchor="middle" x="879.5" y="-1019.2" font-family="Helvetica,sans-Serif" font-size="14.00">github.com/ldemailly/depgraph</text>
</g>
<!-- github.com/ldemailly/depgraph&#45;&gt;fortio.org/cli -->
<g id="edge78" class="edge">
<title>github.com/ldemailly/depgraph&#45;&gt;fortio.org/cli</title>
<path fill="none" stroke="black" d="M960.95,-1006.58C969.25,-1002.85 977.2,-998.37 984.25,-993 996.09,-983.97 990.58,-973.99 1002.25,-964.75 1026.33,-945.69 1039.44,-954.48 1067.5,-942 1091.89,-931.15 1118.11,-916.91 1138.97,-904.91"/>
<polygon fill="black" stroke="black" points="1140.55,-908.04 1147.44,-899.99 1137.04,-901.99 1140.55,-908.04"/>
<text text-anchor="middle" x="1034.88" y="-966.5" font-family="Helvetica,sans-Serif" font-size="10.00">v1.10.0</text>
</g>
<!-- github.com/ldemailly/depgraph&#45;&gt;fortio.org/log -->
<g id="edge79" class="edge">
<title>github.com/ldemailly/depgraph&#45;&gt;fortio.org/log</title>
<path fill="none" stroke="black" d="M980.02,-1041.81C987.53,-1042.69 995,-1043.44 1002.25,-1044 1031.16,-1046.24 1041.59,-1057.03 1067.5,-1044 1079.49,-1037.97 1073.51,-1025.78 1085.5,-1019.75 1160.34,-982.1 1196.6,-987.69 1274,-1019.75 1303.18,-1031.84 1308.61,-1042.56 1324.25,-1070 1374.21,-1157.67 1391.53,-1278.71 1397.09,-1334.12"/>
<polygon fill="black" stroke="black" points="1393.6,-1334.39 1398.02,-1344.02 1400.57,-1333.74 1393.6,-1334.39"/>
<text text-anchor="middle" x="1179.75" y="-1021.5" font-family="Helvetica,sans-Serif" font-size="10.00">v1.17.2</text>
</g>
<!-- github.com/ldemailly/go&#45;scratch -->
<g id="node33" class="node">
<title>github.com/ldemailly/go&#45;scratch</title>
<path fill="lightsalmon" stroke="black" d="M211,-743C211,-743 28.5,-743 28.5,-743 22.5,-743 16.5,-737 16.5,-731 16.5,-731 16.5,-719 16.5,-719 16.5,-713 22.5,-707 28.5,-707 28.5,-707 211,-707 211,-707 217,-707 223,-713 223,-719 223,-719 223,-731 223,-731 223,-737 217,-743 211,-743"/>
<text text-anchor="middle" x="119.75" y="-719.2" font-family="Helvetica,sans-Serif" font-size="14.00">github.com/ldemailly/go&#45;scratch</text>
</g>
<!-- github.com/ldemailly/go&#45;scratch&#45;&gt;fortio.org/cli -->
<g id="edge80" class="edge">
<title>github.com/ldemailly/go&#45;scratch&#45;&gt;fortio.org/cli</title>
<path fill="none" stroke="black" d="M176.12,-706.57C233.13,-689.26 324.89,-666 406.25,-666 406.25,-666 406.25,-666 880.5,-666 963.84,-666 997.33,-635.02 1067.5,-680 1129.28,-719.6 1159.72,-806.1 1171.96,-851.63"/>
<polygon fill="black" stroke="black" points="1168.5,-852.25 1174.37,-861.07 1175.28,-850.51 1168.5,-852.25"/>
<text text-anchor="middle" x="640.75" y="-667.75" font-family="Helvetica,sans-Serif" font-size="10.00">v1.4.2</text>
</g>
<!-- github.com/ldemailly/go&#45;scratch&#45;&gt;fortio.org/fortio -->
<g id="edge81" class="edge">
<title>github.com/ldemailly/go&#45;scratch&#45;&gt;fortio.org/fortio</title>
<path fill="none" stroke="black" d="M158.92,-743.41C186.1,-758.64 220.99,-782.97 239.5,-815 254.61,-841.13 288.51,-1330.75 307.75,-1354 317.16,-1365.37 330.66,-1372.74 344.66,-1377.5"/>
<polygon fill="black" stroke="black" points="343.37,-1380.77 353.96,-1380.23 345.35,-1374.06 343.37,-1380.77"/>
<text text-anchor="middle" x="273.62" y="-1246.94" font-family="Helvetica,sans-Serif" font-size="10.00">v1.60.3</text>
</g>
<!-- github.com/ldemailly/go&#45;scratch&#45;&gt;fortio.org/log -->
<g id="edge82" class="edge">
<title>github.com/ldemailly/go&#45;scratch&#45;&gt;fortio.org/log</title>
<path fill="none" stroke="black" d="M160.69,-743.39C188.2,-758.41 222.71,-782.47 239.5,-815 269.53,-873.18 214.72,-1354.43 257.5,-1404 283.64,-1434.29 296.14,-1423.52 506.75,-1413 595.86,-1408.55 626.58,-1432.66 706.5,-1393 735.87,-1378.43 738.62,-1366.31 756.75,-1339 767.53,-1322.76 758.66,-1310 774.75,-1299 888.91,-1220.95 947.25,-1286.56 1085.5,-1283 1169.25,-1280.85 1193.64,-1259.32 1274,-1283 1310.61,-1293.79 1346.61,-1318.95 1370.6,-1338.39"/>
<polygon fill="black" stroke="black" points="1368.09,-1340.85 1378.02,-1344.55 1372.56,-1335.47 1368.09,-1340.85"/>
<text text-anchor="middle" x="740.62" y="-1383.7" font-family="Helvetica,sans-Serif" font-size="10.00">v1.11.0</text>
</g>
<!-- github.com/ldemailly/go&#45;scratch&#45;&gt;fortio.org/scli -->
<g id="edge83" class="edge">
<title>github.com/ldemailly/go&#45;scratch&#45;&gt;fortio.org/scli</title>
<path fill="none" stroke="black" d="M154.62,-743.49C180.96,-759.39 216.74,-784.54 239.5,-815 277.33,-865.62 276.64,-886.19 289.75,-948 297.07,-982.51 284.04,-1238.88 307.75,-1265 337.83,-1298.13 464.13,-1282.12 506.75,-1295.75 530.56,-1303.36 534.85,-1309.42 557,-1321 569.92,-1327.76 583.88,-1335.27 596.59,-1342.18"/>
<polygon fill="black" stroke="black" points="594.68,-1345.13 605.14,-1346.85 598.04,-1338.99 594.68,-1345.13"/>
<text text-anchor="middle" x="407.25" y="-1297.5" font-family="Helvetica,sans-Serif" font-size="10.00">v1.12.0</text>
</g>
<!-- golang.org/x/term -->
<g id="node43" class="node">
<title>golang.org/x/term</title>
<path fill="coral" stroke="black" d="M445.62,-498C445.62,-498 368.88,-498 368.88,-498 362.88,-498 356.88,-492 356.88,-486 356.88,-486 356.88,-474 356.88,-474 356.88,-468 362.88,-462 368.88,-462 368.88,-462 445.62,-462 445.62,-462 451.62,-462 457.62,-468 457.62,-474 457.62,-474 457.62,-486 457.62,-486 457.62,-492 451.62,-498 445.62,-498"/>
<text text-anchor="middle" x="407.25" y="-474.2" font-family="Helvetica,sans-Serif" font-size="14.00">ldemailly/term</text>
</g>
<!-- github.com/ldemailly/go&#45;scratch&#45;&gt;golang.org/x/term -->
<g id="edge84" class="edge">
<title>github.com/ldemailly/go&#45;scratch&#45;&gt;golang.org/x/term</title>
<path fill="none" stroke="black" d="M131.21,-706.56C156.09,-664.44 223.08,-560.63 307.75,-507 319.16,-499.77 332.5,-494.46 345.61,-490.55"/>
<polygon fill="black" stroke="black" points="346.33,-493.98 355.06,-487.99 344.5,-487.23 346.33,-493.98"/>
<text text-anchor="middle" x="273.62" y="-546.84" font-family="Helvetica,sans-Serif" font-size="10.00">v0.18.0</text>
</g>
<!-- github.com/ldemailly/gohook_sample -->
<g id="node34" class="node">
<title>github.com/ldemailly/gohook_sample</title>
<path fill="lightsalmon" stroke="black" d="M227.5,-109C227.5,-109 12,-109 12,-109 6,-109 0,-103 0,-97 0,-97 0,-85 0,-85 0,-79 6,-73 12,-73 12,-73 227.5,-73 227.5,-73 233.5,-73 239.5,-79 239.5,-85 239.5,-85 239.5,-97 239.5,-97 239.5,-103 233.5,-109 227.5,-109"/>
<text text-anchor="middle" x="119.75" y="-85.2" font-family="Helvetica,sans-Serif" font-size="14.00">github.com/ldemailly/gohook_sample</text>
</g>
<!-- github.com/ldemailly/gohook_sample&#45;&gt;fortio.org/fortio -->
<g id="edge85" class="edge">
<title>github.com/ldemailly/gohook_sample&#45;&gt;fortio.org/fortio</title>
<path fill="none" stroke="black" d="M156.01,-109.5C184.11,-126.35 221.61,-154.08 239.5,-190 257.86,-226.84 253.23,-519.06 257.5,-560 266.88,-649.88 281.2,-670.79 289.75,-760.75 292.87,-793.58 287.97,-1327.62 307.75,-1354 316.73,-1365.98 330.3,-1373.55 344.51,-1378.31"/>
<polygon fill="black" stroke="black" points="343.4,-1381.64 353.98,-1381.02 345.33,-1374.91 343.4,-1381.64"/>
<text text-anchor="middle" x="273.62" y="-762.5" font-family="Helvetica,sans-Serif" font-size="10.00">v1.21.1</text>
</g>
<!-- github.com/robotn/gohook -->
<g id="node40" class="node">
<title>github.com/robotn/gohook</title>
<path fill="coral" stroke="black" d="M453.88,-36C453.88,-36 360.62,-36 360.62,-36 354.62,-36 348.62,-30 348.62,-24 348.62,-24 348.62,-12 348.62,-12 348.62,-6 354.62,0 360.62,0 360.62,0 453.88,0 453.88,0 459.88,0 465.88,-6 465.88,-12 465.88,-12 465.88,-24 465.88,-24 465.88,-30 459.88,-36 453.88,-36"/>
<text text-anchor="middle" x="407.25" y="-12.2" font-family="Helvetica,sans-Serif" font-size="14.00">ldemailly/gohook</text>
</g>
<!-- github.com/ldemailly/gohook_sample&#45;&gt;github.com/robotn/gohook -->
<g id="edge86" class="edge">
<title>github.com/ldemailly/gohook_sample&#45;&gt;github.com/robotn/gohook</title>
<path fill="none" stroke="black" d="M161.55,-72.62C188.33,-61.26 224.39,-47.27 257.5,-38.75 283.12,-32.16 311.8,-27.53 337.09,-24.35"/>
<polygon fill="black" stroke="black" points="337.43,-27.83 346.94,-23.17 336.59,-20.88 337.43,-27.83"/>
<text text-anchor="middle" x="273.62" y="-40.5" font-family="Helvetica,sans-Serif" font-size="10.00">v0.31.3</text>
</g>
<!-- github.com/ldemailly/lll&#45;fixer -->
<g id="node35" class="node">
<title>github.com/ldemailly/lll&#45;fixer</title>
<path fill="lightsalmon" stroke="black" d="M958.75,-1097C958.75,-1097 800.25,-1097 800.25,-1097 794.25,-1097 788.25,-1091 788.25,-1085 788.25,-1085 788.25,-1073 788.25,-1073 788.25,-1067 794.25,-1061 800.25,-1061 800.25,-1061 958.75,-1061 958.75,-1061 964.75,-1061 970.75,-1067 970.75,-1073 970.75,-1073 970.75,-1085 970.75,-1085 970.75,-1091 964.75,-1097 958.75,-1097"/>
<text text-anchor="middle" x="879.5" y="-1073.2" font-family="Helvetica,sans-Serif" font-size="14.00">github.com/ldemailly/lll&#45;fixer</text>
</g>
<!-- github.com/ldemailly/lll&#45;fixer&#45;&gt;fortio.org/cli -->
<g id="edge87" class="edge">
<title>github.com/ldemailly/lll&#45;fixer&#45;&gt;fortio.org/cli</title>
<path fill="none" stroke="black" d="M971.24,-1061.64C975.91,-1058.87 980.3,-1055.68 984.25,-1052 1002.53,-1034.98 984.67,-1016.5 1002.25,-998.75 1023.86,-976.93 1040.86,-991.29 1067.5,-976 1100.17,-957.25 1132.32,-928.34 1153.6,-907.33"/>
<polygon fill="black" stroke="black" points="1155.82,-910.06 1160.4,-900.5 1150.86,-905.12 1155.82,-910.06"/>
<text text-anchor="middle" x="1034.88" y="-1000.5" font-family="Helvetica,sans-Serif" font-size="10.00">v1.9.0</text>
</g>
<!-- github.com/ldemailly/lll&#45;fixer&#45;&gt;fortio.org/log -->
<g id="edge88" class="edge">
<title>github.com/ldemailly/lll&#45;fixer&#45;&gt;fortio.org/log</title>
<path fill="none" stroke="black" d="M971.12,-1081.78C1002.13,-1080.73 1036.74,-1077.32 1067.5,-1069 1076.18,-1066.65 1076.76,-1061.86 1085.5,-1059.75 1166.93,-1040.05 1203.06,-1015.19 1274,-1059.75 1370.37,-1120.28 1392.75,-1270.78 1397.94,-1334.62"/>
<polygon fill="black" stroke="black" points="1394.43,-1334.6 1398.63,-1344.33 1401.41,-1334.1 1394.43,-1334.6"/>
<text text-anchor="middle" x="1179.75" y="-1061.5" font-family="Helvetica,sans-Serif" font-size="10.00">v1.16.0</text>
</g>
<!-- github.com/ldemailly/panic&#45;linter -->
<g id="node36" class="node">
<title>github.com/ldemailly/panic&#45;linter</title>
<path fill="lightsalmon" stroke="black" d="M972.25,-1978C972.25,-1978 786.75,-1978 786.75,-1978 780.75,-1978 774.75,-1972 774.75,-1966 774.75,-1966 774.75,-1954 774.75,-1954 774.75,-1948 780.75,-1942 786.75,-1942 786.75,-1942 972.25,-1942 972.25,-1942 978.25,-1942 984.25,-1948 984.25,-1954 984.25,-1954 984.25,-1966 984.25,-1966 984.25,-1972 978.25,-1978 972.25,-1978"/>
<text text-anchor="middle" x="879.5" y="-1954.2" font-family="Helvetica,sans-Serif" font-size="14.00">github.com/ldemailly/panic&#45;linter</text>
</g>
<!-- github.com/ldemailly/panic&#45;linter&#45;&gt;fortio.org/sets -->
<g id="edge89" class="edge">
<title>github.com/ldemailly/panic&#45;linter&#45;&gt;fortio.org/sets</title>
<path fill="none" stroke="black" d="M984.39,-1953.03C1029.69,-1950 1081.13,-1946.55 1119.7,-1943.96"/>
<polygon fill="black" stroke="black" points="1119.48,-1947.48 1129.22,-1943.32 1119.01,-1940.5 1119.48,-1947.48"/>
<text text-anchor="middle" x="1034.88" y="-1953.54" font-family="Helvetica,sans-Serif" font-size="10.00">v1.2.0</text>
</g>
<!-- github.com/ldemailly/quartiles -->
<g id="node37" class="node">
<title>github.com/ldemailly/quartiles</title>
<path fill="lightsalmon" stroke="black" d="M964.75,-1613C964.75,-1613 794.25,-1613 794.25,-1613 788.25,-1613 782.25,-1607 782.25,-1601 782.25,-1601 782.25,-1589 782.25,-1589 782.25,-1583 788.25,-1577 794.25,-1577 794.25,-1577 964.75,-1577 964.75,-1577 970.75,-1577 976.75,-1583 976.75,-1589 976.75,-1589 976.75,-1601 976.75,-1601 976.75,-1607 970.75,-1613 964.75,-1613"/>
<text text-anchor="middle" x="879.5" y="-1589.2" font-family="Helvetica,sans-Serif" font-size="14.00">github.com/ldemailly/quartiles</text>
</g>
<!-- github.com/ldemailly/quartiles&#45;&gt;fortio.org/cli -->
<g id="edge90" class="edge">
<title>github.com/ldemailly/quartiles&#45;&gt;fortio.org/cli</title>
<path fill="none" stroke="black" d="M901.03,-1576.7C924.77,-1555.82 965.34,-1521.05 1002.25,-1493.75 1030.12,-1473.13 1050.44,-1481.18 1067.5,-1451 1093.43,-1405.12 1064.76,-1025.45 1085.5,-977 1097.68,-948.53 1122.46,-923.68 1143.41,-906.41"/>
<polygon fill="black" stroke="black" points="1145.58,-909.15 1151.22,-900.19 1141.22,-903.68 1145.58,-909.15"/>
<text text-anchor="middle" x="1034.88" y="-1495.5" font-family="Helvetica,sans-Serif" font-size="10.00">v1.10.0</text>
</g>
<!-- github.com/ldemailly/quartiles&#45;&gt;fortio.org/log -->
<g id="edge91" class="edge">
<title>github.com/ldemailly/quartiles&#45;&gt;fortio.org/log</title>
<path fill="none" stroke="black" d="M948.19,-1613.47C1032.47,-1632.21 1177.13,-1649.91 1274,-1583 1341.29,-1536.53 1377.16,-1441.44 1391.67,-1393.3"/>
<polygon fill="black" stroke="black" points="1394.98,-1394.44 1394.4,-1383.86 1388.26,-1392.49 1394.98,-1394.44"/>
<text text-anchor="middle" x="1179.75" y="-1632.28" font-family="Helvetica,sans-Serif" font-size="10.00">v1.17.2</text>
</g>
<!-- github.com/ldemailly/quartiles&#45;&gt;fortio.org/sets -->
<g id="edge92" class="edge">
<title>github.com/ldemailly/quartiles&#45;&gt;fortio.org/sets</title>
<path fill="none" stroke="black" d="M965.33,-1613.47C972.23,-1617.19 978.68,-1621.65 984.25,-1627 1001.58,-1643.65 991.45,-1656.53 1002.25,-1678 1008.51,-1690.44 1115.9,-1848.01 1160.04,-1912.63"/>
<polygon fill="black" stroke="black" points="1156.93,-1914.28 1165.46,-1920.57 1162.71,-1910.33 1156.93,-1914.28"/>
<text text-anchor="middle" x="1034.88" y="-1771.37" font-family="Helvetica,sans-Serif" font-size="10.00">v1.3.0</text>
</g>
<!-- github.com/ldemailly/rate -->
<g id="node38" class="node">
<title>github.com/ldemailly/rate</title>
<path fill="lightsalmon" stroke="black" d="M950.88,-1205C950.88,-1205 808.12,-1205 808.12,-1205 802.12,-1205 796.12,-1199 796.12,-1193 796.12,-1193 796.12,-1181 796.12,-1181 796.12,-1175 802.12,-1169 808.12,-1169 808.12,-1169 950.88,-1169 950.88,-1169 956.88,-1169 962.88,-1175 962.88,-1181 962.88,-1181 962.88,-1193 962.88,-1193 962.88,-1199 956.88,-1205 950.88,-1205"/>
<text text-anchor="middle" x="879.5" y="-1181.2" font-family="Helvetica,sans-Serif" font-size="14.00">github.com/ldemailly/rate</text>
</g>
<!-- github.com/ldemailly/rate&#45;&gt;fortio.org/cli -->
<g id="edge93" class="edge">
<title>github.com/ldemailly/rate&#45;&gt;fortio.org/cli</title>
<path fill="none" stroke="black" d="M963.13,-1169.93C970.49,-1167.1 977.64,-1163.81 984.25,-1160 994.12,-1154.31 993.47,-1149.01 1002.25,-1141.75 1029.15,-1119.49 1048.84,-1127.51 1067.5,-1098 1096.56,-1052.05 1061.4,-1025.74 1085.5,-977 1099.32,-949.06 1124.26,-924.04 1144.87,-906.55"/>
<polygon fill="black" stroke="black" points="1147.02,-909.32 1152.52,-900.26 1142.58,-903.91 1147.02,-909.32"/>
<text text-anchor="middle" x="1034.88" y="-1143.5" font-family="Helvetica,sans-Serif" font-size="10.00">v1.2.0</text>
</g>
<!-- github.com/ldemailly/rate&#45;&gt;fortio.org/log -->
<g id="edge94" class="edge">
<title>github.com/ldemailly/rate&#45;&gt;fortio.org/log</title>
<path fill="none" stroke="black" d="M962.99,-1180.79C1075.71,-1174.09 1270.09,-1169.47 1324.25,-1212 1363.68,-1242.96 1383.95,-1299.97 1393.1,-1334.69"/>
<polygon fill="black" stroke="black" points="1389.62,-1335.2 1395.42,-1344.07 1396.42,-1333.52 1389.62,-1335.2"/>
<text text-anchor="middle" x="1179.75" y="-1191.82" font-family="Helvetica,sans-Serif" font-size="10.00">v1.6.0</text>
</g>
<!-- gitlab.com/ldemailly/go&#45;flag&#45;bug -->
<g id="node41" class="node">
<title>gitlab.com/ldemailly/go&#45;flag&#45;bug</title>
<path fill="lightsalmon" stroke="black" d="M211.38,-2384C211.38,-2384 28.13,-2384 28.13,-2384 22.13,-2384 16.12,-2378 16.12,-2372 16.12,-2372 16.12,-2360 16.12,-2360 16.12,-2354 22.12,-2348 28.12,-2348 28.12,-2348 211.37,-2348 211.37,-2348 217.37,-2348 223.38,-2354 223.38,-2360 223.38,-2360 223.38,-2372 223.38,-2372 223.38,-2378 217.38,-2384 211.38,-2384"/>
<text text-anchor="middle" x="119.75" y="-2360.2" font-family="Helvetica,sans-Serif" font-size="14.00">gitlab.com/ldemailly/go&#45;flag&#45;bug</text>
</g>
<!-- grol.io/grol&#45;&gt;fortio.org/cli -->
<g id="edge95" class="edge">
<title>grol.io/grol&#45;&gt;fortio.org/cli</title>
<path fill="none" stroke="black" d="M680.74,-498.07C744.8,-498.9 876.01,-503.59 984.25,-526.75 1022.6,-534.96 1039.88,-528.16 1067.5,-556 1089.22,-577.9 1148.49,-776.65 1170.43,-852.11"/>
<polygon fill="black" stroke="black" points="1166.94,-852.64 1173.09,-861.27 1173.66,-850.69 1166.94,-852.64"/>
<text text-anchor="middle" x="879.5" y="-528.5" font-family="Helvetica,sans-Serif" font-size="10.00">v1.10.0</text>
</g>
<!-- grol.io/grol&#45;&gt;fortio.org/log -->
<g id="edge96" class="edge">
<title>grol.io/grol&#45;&gt;fortio.org/log</title>
<path fill="none" stroke="black" d="M659.63,-516.43C675.27,-531.34 699.36,-551.51 724.5,-562 848.58,-613.8 1230.55,-545.57 1324.25,-642 1373.33,-692.51 1394.07,-1205.32 1398.54,-1334.55"/>
<polygon fill="black" stroke="black" points="1395.04,-1334.45 1398.88,-1344.32 1402.03,-1334.21 1395.04,-1334.45"/>
<text text-anchor="middle" x="1034.88" y="-587.47" font-family="Helvetica,sans-Serif" font-size="10.00">v1.17.2</text>
</g>
<!-- grol.io/grol&#45;&gt;fortio.org/safecast -->
<g id="edge97" class="edge">
<title>grol.io/grol&#45;&gt;fortio.org/safecast</title>
<path fill="none" stroke="black" d="M680.71,-482.1C690.27,-476.63 699.69,-469.65 706.5,-461 724.25,-438.46 703.59,-418.65 724.5,-399 810.64,-318.07 869.39,-369.88 984.25,-342 1025.04,-332.1 1070.35,-320.05 1106.98,-310.04"/>
<polygon fill="black" stroke="black" points="1107.87,-313.42 1116.59,-307.4 1106.02,-306.67 1107.87,-313.42"/>
<text text-anchor="middle" x="879.5" y="-365.24" font-family="Helvetica,sans-Serif" font-size="10.00">v1.0.0</text>
</g>
<!-- grol.io/grol&#45;&gt;fortio.org/sets -->
<g id="edge98" class="edge">
<title>grol.io/grol&#45;&gt;fortio.org/sets</title>
<path fill="none" stroke="black" d="M665.84,-516.25C680.55,-528.96 698.1,-547.29 706.5,-568 737.42,-644.21 709,-1227.23 724.5,-1308 732.27,-1348.5 748.32,-1354.63 756.75,-1395 763.94,-1429.42 751.92,-1684.25 774.75,-1711 836.61,-1783.5 906.09,-1702.21 984.25,-1756.75 996.46,-1765.27 991.15,-1775.07 1002.25,-1785 1026.32,-1806.53 1041.96,-1797.22 1067.5,-1817 1077.22,-1824.53 1077.35,-1828.8 1085.5,-1838 1108.46,-1863.94 1135.18,-1893.06 1154.12,-1913.53"/>
<polygon fill="black" stroke="black" points="1151.33,-1915.67 1160.7,-1920.62 1156.47,-1910.91 1151.33,-1915.67"/>
<text text-anchor="middle" x="879.5" y="-1758.5" font-family="Helvetica,sans-Serif" font-size="10.00">v1.3.0</text>
</g>
<!-- grol.io/grol&#45;&gt;fortio.org/struct2env -->
<g id="edge99" class="edge">
<title>grol.io/grol&#45;&gt;fortio.org/struct2env</title>
<path fill="none" stroke="black" d="M680.52,-479.82C690.31,-473.54 699.9,-465.61 706.5,-456 728.37,-424.17 701.81,-402.25 724.5,-371 739.65,-350.13 751.12,-352.31 774.75,-342 1035.06,-228.45 1362.9,-143.97 1510.3,-108.88"/>
<polygon fill="black" stroke="black" points="1511.05,-112.29 1519.98,-106.58 1509.44,-105.48 1511.05,-112.29"/>
<text text-anchor="middle" x="1179.75" y="-226.93" font-family="Helvetica,sans-Serif" font-size="10.00">v0.4.2</text>
</g>
<!-- grol.io/grol&#45;&gt;fortio.org/terminal -->
<g id="edge100" class="edge">
<title>grol.io/grol&#45;&gt;fortio.org/terminal</title>
<path fill="none" stroke="black" d="M680.58,-491.6C714.83,-485.96 765.61,-477.6 807.15,-470.75"/>
<polygon fill="black" stroke="black" points="807.54,-474.24 816.84,-469.16 806.4,-467.33 807.54,-474.24"/>
<text text-anchor="middle" x="740.62" y="-486.02" font-family="Helvetica,sans-Serif" font-size="10.00">v0.29.1</text>
</g>
<!-- grol.io/grol&#45;&gt;fortio.org/testscript -->
<g id="edge101" class="edge">
<title>grol.io/grol&#45;&gt;fortio.org/testscript</title>
<path fill="none" stroke="black" d="M665.64,-516.34C680.26,-529.08 697.79,-547.42 706.5,-568 735.46,-636.46 719.07,-827.87 724.5,-902 725.05,-909.55 769.67,-1439.38 774.75,-1445 838.39,-1515.34 913.19,-1422.92 984.25,-1485.75 1003.6,-1502.86 981.97,-1525.01 1002.25,-1541 1022.44,-1556.91 1048.27,-1563.92 1073.91,-1566.15"/>
<polygon fill="black" stroke="black" points="1073.55,-1569.63 1083.74,-1566.74 1073.97,-1562.65 1073.55,-1569.63"/>
<text text-anchor="middle" x="879.5" y="-1487.5" font-family="Helvetica,sans-Serif" font-size="10.00">v0.3.2</text>
</g>
<!-- grol.io/grol&#45;&gt;fortio.org/version -->
<g id="edge102" class="edge">
<title>grol.io/grol&#45;&gt;fortio.org/version</title>
<path fill="none" stroke="black" d="M672.96,-479.5C699.28,-464.65 738.37,-444.31 774.75,-432 872.32,-398.98 899.72,-397.63 1002.25,-387.75 1120.67,-376.34 1256.99,-410.18 1335.22,-434.21"/>
<polygon fill="black" stroke="black" points="1333.83,-437.44 1344.42,-437.08 1335.92,-430.76 1333.83,-437.44"/>
<text text-anchor="middle" x="1034.88" y="-389.5" font-family="Helvetica,sans-Serif" font-size="10.00">v1.0.4</text>
</g>
<!-- grol.io/grol&#45;discord&#45;bot -->
<g id="node45" class="node">
<title>grol.io/grol&#45;discord&#45;bot</title>
<path fill="lightgreen" stroke="black" d="M470.38,-391C470.38,-391 344.12,-391 344.12,-391 338.12,-391 332.12,-385 332.12,-379 332.12,-379 332.12,-367 332.12,-367 332.12,-361 338.12,-355 344.12,-355 344.12,-355 470.38,-355 470.38,-355 476.38,-355 482.38,-361 482.38,-367 482.38,-367 482.38,-379 482.38,-379 482.38,-385 476.38,-391 470.38,-391"/>
<text text-anchor="middle" x="407.25" y="-367.2" font-family="Helvetica,sans-Serif" font-size="14.00">grol.io/grol&#45;discord&#45;bot</text>
</g>
<!-- grol.io/grol&#45;discord&#45;bot&#45;&gt;fortio.org/cli -->
<g id="edge103" class="edge">
<title>grol.io/grol&#45;discord&#45;bot&#45;&gt;fortio.org/cli</title>
<path fill="none" stroke="black" d="M432.46,-391.24C452.86,-406.94 482.51,-430.54 506.75,-453 522.92,-467.98 555.27,-515.16 575,-525 673.57,-574.16 980.78,-513.08 1067.5,-581 1153.8,-648.6 1173.16,-790.25 1177.5,-851.61"/>
<polygon fill="black" stroke="black" points="1173.98,-851.49 1178.09,-861.26 1180.97,-851.07 1173.98,-851.49"/>
<text text-anchor="middle" x="740.62" y="-548.17" font-family="Helvetica,sans-Serif" font-size="10.00">v1.10.0</text>
</g>
<!-- grol.io/grol&#45;discord&#45;bot&#45;&gt;fortio.org/log -->
<g id="edge104" class="edge">
<title>grol.io/grol&#45;discord&#45;bot&#45;&gt;fortio.org/log</title>
<path fill="none" stroke="black" d="M482.66,-371.54C558.82,-368.74 670.91,-360.6 706.5,-337 757.39,-303.25 721.92,-248.38 774.75,-217.75 822.93,-189.81 1234.5,-223.73 1274,-263 1352.44,-340.99 1391.23,-1167.52 1398.31,-1334.64"/>
<polygon fill="black" stroke="black" points="1394.8,-1334.57 1398.71,-1344.41 1401.79,-1334.27 1394.8,-1334.57"/>
<text text-anchor="middle" x="879.5" y="-219.5" font-family="Helvetica,sans-Serif" font-size="10.00">v1.17.2</text>
</g>
<!-- grol.io/grol&#45;discord&#45;bot&#45;&gt;fortio.org/scli -->
<g id="edge105" class="edge">
<title>grol.io/grol&#45;discord&#45;bot&#45;&gt;fortio.org/scli</title>
<path fill="none" stroke="black" d="M442.17,-391.47C464.28,-405.38 491.73,-426.57 506.75,-453 529.28,-492.66 617.05,-1184.85 636.09,-1336.71"/>
<polygon fill="black" stroke="black" points="632.58,-1336.84 637.3,-1346.33 639.53,-1335.97 632.58,-1336.84"/>
<text text-anchor="middle" x="540.88" y="-719.41" font-family="Helvetica,sans-Serif" font-size="10.00">v1.16.1</text>
</g>
<!-- grol.io/grol&#45;discord&#45;bot&#45;&gt;fortio.org/version -->
<g id="edge106" class="edge">
<title>grol.io/grol&#45;discord&#45;bot&#45;&gt;fortio.org/version</title>
<path fill="none" stroke="black" d="M415.35,-354.6C434.2,-308.01 490,-184.29 575,-116 640.89,-63.06 672.32,-55.93 756.75,-60 895.34,-66.67 930.11,-70.57 1067.5,-90 1182.44,-106.26 1240.24,-57.89 1324.25,-138 1366.07,-177.88 1388.98,-355.66 1396.6,-426.61"/>
<polygon fill="black" stroke="black" points="1393.09,-426.72 1397.61,-436.3 1400.05,-425.99 1393.09,-426.72"/>
<text text-anchor="middle" x="879.5" y="-80.14" font-family="Helvetica,sans-Serif" font-size="10.00">v1.0.4</text>
</g>
<!-- grol.io/grol&#45;discord&#45;bot&#45;&gt;github.com/bwmarrin/discordgo -->
<g id="edge107" class="edge">
<title>grol.io/grol&#45;discord&#45;bot&#45;&gt;github.com/bwmarrin/discordgo</title>
<path fill="none" stroke="black" d="M453.6,-354.53C474.92,-346.37 500.86,-337.19 524.75,-330.75 537.1,-327.42 550.34,-324.48 563.28,-321.92"/>
<polygon fill="black" stroke="black" points="563.89,-325.37 573.06,-320.07 562.58,-318.49 563.89,-325.37"/>
<text text-anchor="middle" x="540.88" y="-332.5" font-family="Helvetica,sans-Serif" font-size="10.00">v0.28.1</text>
</g>
<!-- grol.io/grol&#45;discord&#45;bot&#45;&gt;grol.io/grol -->
<g id="edge108" class="edge">
<title>grol.io/grol&#45;discord&#45;bot&#45;&gt;grol.io/grol</title>
<path fill="none" stroke="black" d="M442.41,-391.44C483.13,-413.43 551.27,-450.22 595.86,-474.3"/>
<polygon fill="black" stroke="black" points="594.03,-477.29 604.5,-478.96 597.36,-471.13 594.03,-477.29"/>
<text text-anchor="middle" x="540.88" y="-452.12" font-family="Helvetica,sans-Serif" font-size="10.00">v0.80.3</text>
</g>
<!-- scriggo&#45;bench -->
<g id="node46" class="node">
<title>scriggo&#45;bench</title>
<path fill="darkseagreen" stroke="black" d="M466.25,-552C466.25,-552 348.25,-552 348.25,-552 342.25,-552 336.25,-546 336.25,-540 336.25,-540 336.25,-528 336.25,-528 336.25,-522 342.25,-516 348.25,-516 348.25,-516 466.25,-516 466.25,-516 472.25,-516 478.25,-522 478.25,-528 478.25,-528 478.25,-540 478.25,-540 478.25,-546 472.25,-552 466.25,-552"/>
<text text-anchor="middle" x="407.25" y="-528.2" font-family="Helvetica,sans-Serif" font-size="14.00">grol&#45;io/scriggo&#45;bench</text>
</g>
<!-- scriggo&#45;bench&#45;&gt;grol.io/grol -->
<g id="edge109" class="edge">
<title>scriggo&#45;bench&#45;&gt;grol.io/grol</title>
<path fill="none" stroke="black" d="M478.65,-523.05C514.59,-517.46 557.45,-510.8 589.93,-505.75"/>
<polygon fill="black" stroke="black" points="590.11,-509.26 599.46,-504.27 589.04,-502.34 590.11,-509.26"/>
<text text-anchor="middle" x="540.88" y="-516.67" font-family="Helvetica,sans-Serif" font-size="10.00">v0.26.0</text>
</g>
</g>
</svg>
