<?xml version="1.0" encoding="UTF-8" standalone="no"?>
<!DOCTYPE svg PUBLIC "-//W3C//DTD SVG 1.1//EN"
 "http://www.w3.org/Graphics/SVG/1.1/DTD/svg11.dtd">
<!-- Generated by graphviz version 12.2.1 (20241206.2353)
 -->
<!-- Title: dependencies Pages: 1 -->
<svg width="1622pt" height="2392pt"
 viewBox="0.00 0.00 1621.50 2392.00" xmlns="http://www.w3.org/2000/svg" xmlns:xlink="http://www.w3.org/1999/xlink">
<g id="graph0" class="graph" transform="scale(1 1) rotate(0) translate(4 2388)">
<title>dependencies</title>
<polygon fill="white" stroke="none" points="-4,4 -4,-2388 1617.5,-2388 1617.5,4 -4,4"/>
<!-- fortio.org/assert -->
<g id="node1" class="node">
<title>fortio.org/assert</title>
<path fill="lightblue" stroke="black" d="M1399.88,-2309C1399.88,-2309 1314.12,-2309 1314.12,-2309 1308.12,-2309 1302.12,-2303 1302.12,-2297 1302.12,-2297 1302.12,-2285 1302.12,-2285 1302.12,-2279 1308.12,-2273 1314.12,-2273 1314.12,-2273 1399.88,-2273 1399.88,-2273 1405.88,-2273 1411.88,-2279 1411.88,-2285 1411.88,-2285 1411.88,-2297 1411.88,-2297 1411.88,-2303 1405.88,-2309 1399.88,-2309"/>
<text text-anchor="middle" x="1357" y="-2285.2" font-family="Helvetica,sans-Serif" font-size="14.00">fortio.org/assert</text>
</g>
<!-- fortio.org/cli -->
<g id="node2" class="node">
<title>fortio.org/cli</title>
<path fill="lightblue" stroke="black" d="M1188.88,-899C1188.88,-899 1127.12,-899 1127.12,-899 1121.12,-899 1115.12,-893 1115.12,-887 1115.12,-887 1115.12,-875 1115.12,-875 1115.12,-869 1121.12,-863 1127.12,-863 1127.12,-863 1188.88,-863 1188.88,-863 1194.88,-863 1200.88,-869 1200.88,-875 1200.88,-875 1200.88,-887 1200.88,-887 1200.88,-893 1194.88,-899 1188.88,-899"/>
<text text-anchor="middle" x="1158" y="-875.2" font-family="Helvetica,sans-Serif" font-size="14.00">fortio.org/cli</text>
</g>
<!-- fortio.org/log -->
<g id="node7" class="node">
<title>fortio.org/log</title>
<path fill="lightblue" stroke="black" d="M1390.5,-1382C1390.5,-1382 1323.5,-1382 1323.5,-1382 1317.5,-1382 1311.5,-1376 1311.5,-1370 1311.5,-1370 1311.5,-1358 1311.5,-1358 1311.5,-1352 1317.5,-1346 1323.5,-1346 1323.5,-1346 1390.5,-1346 1390.5,-1346 1396.5,-1346 1402.5,-1352 1402.5,-1358 1402.5,-1358 1402.5,-1370 1402.5,-1370 1402.5,-1376 1396.5,-1382 1390.5,-1382"/>
<text text-anchor="middle" x="1357" y="-1358.2" font-family="Helvetica,sans-Serif" font-size="14.00">fortio.org/log</text>
</g>
<!-- fortio.org/cli&#45;&gt;fortio.org/log -->
<g id="edge1" class="edge">
<title>fortio.org/cli&#45;&gt;fortio.org/log</title>
<path fill="none" stroke="black" d="M1195.79,-899.4C1223.58,-915.25 1260.3,-940.78 1280.75,-973.75 1318.63,-1034.82 1344.69,-1254.89 1353.08,-1334.77"/>
<polygon fill="black" stroke="black" points="1349.57,-1334.83 1354.08,-1344.42 1356.53,-1334.11 1349.57,-1334.83"/>
<text text-anchor="middle" x="1264.62" y="-975.5" font-family="Helvetica,sans-Serif" font-size="10.00">v1.17.2</text>
</g>
<!-- fortio.org/version -->
<g id="node23" class="node">
<title>fortio.org/version</title>
<path fill="lightblue" stroke="black" d="M1403.25,-474C1403.25,-474 1310.75,-474 1310.75,-474 1304.75,-474 1298.75,-468 1298.75,-462 1298.75,-462 1298.75,-450 1298.75,-450 1298.75,-444 1304.75,-438 1310.75,-438 1310.75,-438 1403.25,-438 1403.25,-438 1409.25,-438 1415.25,-444 1415.25,-450 1415.25,-450 1415.25,-462 1415.25,-462 1415.25,-468 1409.25,-474 1403.25,-474"/>
<text text-anchor="middle" x="1357" y="-450.2" font-family="Helvetica,sans-Serif" font-size="14.00">fortio.org/version</text>
</g>
<!-- fortio.org/cli&#45;&gt;fortio.org/version -->
<g id="edge2" class="edge">
<title>fortio.org/cli&#45;&gt;fortio.org/version</title>
<path fill="none" stroke="black" d="M1167.46,-862.74C1198.34,-796.12 1305.08,-565.85 1342.73,-484.63"/>
<polygon fill="black" stroke="black" points="1345.9,-486.11 1346.93,-475.57 1339.55,-483.17 1345.9,-486.11"/>
<text text-anchor="middle" x="1264.62" y="-682.99" font-family="Helvetica,sans-Serif" font-size="10.00">v1.0.4</text>
</g>
<!-- fortio.org/dflag -->
<g id="node3" class="node">
<title>fortio.org/dflag</title>
<path fill="lightblue" stroke="black" d="M918.62,-2162C918.62,-2162 840.38,-2162 840.38,-2162 834.38,-2162 828.38,-2156 828.38,-2150 828.38,-2150 828.38,-2138 828.38,-2138 828.38,-2132 834.38,-2126 840.38,-2126 840.38,-2126 918.62,-2126 918.62,-2126 924.62,-2126 930.62,-2132 930.62,-2138 930.62,-2138 930.62,-2150 930.62,-2150 930.62,-2156 924.62,-2162 918.62,-2162"/>
<text text-anchor="middle" x="879.5" y="-2138.2" font-family="Helvetica,sans-Serif" font-size="14.00">fortio.org/dflag</text>
</g>
<!-- fortio.org/dflag&#45;&gt;fortio.org/assert -->
<g id="edge3" class="edge">
<title>fortio.org/dflag&#45;&gt;fortio.org/assert</title>
<path fill="none" stroke="black" d="M926.72,-2162.5C949.33,-2171.28 977.05,-2181.66 1002.25,-2190 1101.82,-2222.96 1219.21,-2255.19 1290.58,-2274.07"/>
<polygon fill="black" stroke="black" points="1289.61,-2277.43 1300.17,-2276.6 1291.39,-2270.66 1289.61,-2277.43"/>
<text text-anchor="middle" x="1158" y="-2258.97" font-family="Helvetica,sans-Serif" font-size="10.00">v1.2.1</text>
</g>
<!-- fortio.org/dflag&#45;&gt;fortio.org/log -->
<g id="edge4" class="edge">
<title>fortio.org/dflag&#45;&gt;fortio.org/log</title>
<path fill="none" stroke="black" d="M931.08,-2147.2C1027.57,-2152.12 1232.59,-2156.52 1280.75,-2109 1332.57,-2057.87 1351.32,-1525.79 1355.2,-1393.6"/>
<polygon fill="black" stroke="black" points="1358.69,-1394.03 1355.47,-1383.93 1351.69,-1393.83 1358.69,-1394.03"/>
<text text-anchor="middle" x="1158" y="-2151.15" font-family="Helvetica,sans-Serif" font-size="10.00">v1.17.2</text>
</g>
<!-- fortio.org/sets -->
<g id="node16" class="node">
<title>fortio.org/sets</title>
<path fill="lightblue" stroke="black" d="M1194.88,-1958C1194.88,-1958 1121.12,-1958 1121.12,-1958 1115.12,-1958 1109.12,-1952 1109.12,-1946 1109.12,-1946 1109.12,-1934 1109.12,-1934 1109.12,-1928 1115.12,-1922 1121.12,-1922 1121.12,-1922 1194.88,-1922 1194.88,-1922 1200.88,-1922 1206.88,-1928 1206.88,-1934 1206.88,-1934 1206.88,-1946 1206.88,-1946 1206.88,-1952 1200.88,-1958 1194.88,-1958"/>
<text text-anchor="middle" x="1158" y="-1934.2" font-family="Helvetica,sans-Serif" font-size="14.00">fortio.org/sets</text>
</g>
<!-- fortio.org/dflag&#45;&gt;fortio.org/sets -->
<g id="edge5" class="edge">
<title>fortio.org/dflag&#45;&gt;fortio.org/sets</title>
<path fill="none" stroke="black" d="M905.53,-2125.54C955.29,-2088.82 1066.71,-2006.61 1123.03,-1965.06"/>
<polygon fill="black" stroke="black" points="1125.04,-1967.93 1131.01,-1959.17 1120.89,-1962.29 1125.04,-1967.93"/>
<text text-anchor="middle" x="1034.88" y="-2049.87" font-family="Helvetica,sans-Serif" font-size="10.00">v1.3.0</text>
</g>
<!-- fortio.org/dnsping -->
<g id="node4" class="node">
<title>fortio.org/dnsping</title>
<path fill="lightblue" stroke="black" d="M167.88,-1445C167.88,-1445 71.62,-1445 71.62,-1445 65.62,-1445 59.62,-1439 59.62,-1433 59.62,-1433 59.62,-1421 59.62,-1421 59.62,-1415 65.62,-1409 71.62,-1409 71.62,-1409 167.88,-1409 167.88,-1409 173.88,-1409 179.88,-1415 179.88,-1421 179.88,-1421 179.88,-1433 179.88,-1433 179.88,-1439 173.88,-1445 167.88,-1445"/>
<text text-anchor="middle" x="119.75" y="-1421.2" font-family="Helvetica,sans-Serif" font-size="14.00">fortio.org/dnsping</text>
</g>
<!-- fortio.org/dnsping&#45;&gt;fortio.org/cli -->
<g id="edge6" class="edge">
<title>fortio.org/dnsping&#45;&gt;fortio.org/cli</title>
<path fill="none" stroke="black" d="M123.62,-1408.74C138.74,-1315.06 211.94,-889.56 307.75,-804 433.84,-691.41 916.7,-689.61 1067.5,-766 1103.56,-784.27 1129.47,-824.54 1143.86,-852.22"/>
<polygon fill="black" stroke="black" points="1140.71,-853.75 1148.3,-861.15 1146.98,-850.63 1140.71,-853.75"/>
<text text-anchor="middle" x="640.75" y="-722.8" font-family="Helvetica,sans-Serif" font-size="10.00">v1.10.0</text>
</g>
<!-- fortio.org/fortio -->
<g id="node5" class="node">
<title>fortio.org/fortio</title>
<path fill="lightblue" stroke="black" d="M446.75,-1404C446.75,-1404 367.75,-1404 367.75,-1404 361.75,-1404 355.75,-1398 355.75,-1392 355.75,-1392 355.75,-1380 355.75,-1380 355.75,-1374 361.75,-1368 367.75,-1368 367.75,-1368 446.75,-1368 446.75,-1368 452.75,-1368 458.75,-1374 458.75,-1380 458.75,-1380 458.75,-1392 458.75,-1392 458.75,-1398 452.75,-1404 446.75,-1404"/>
<text text-anchor="middle" x="407.25" y="-1380.2" font-family="Helvetica,sans-Serif" font-size="14.00">fortio.org/fortio</text>
</g>
<!-- fortio.org/dnsping&#45;&gt;fortio.org/fortio -->
<g id="edge7" class="edge">
<title>fortio.org/dnsping&#45;&gt;fortio.org/fortio</title>
<path fill="none" stroke="black" d="M180.25,-1418.45C228.21,-1411.57 295.44,-1401.91 344.09,-1394.93"/>
<polygon fill="black" stroke="black" points="344.52,-1398.4 353.92,-1393.51 343.52,-1391.47 344.52,-1398.4"/>
<text text-anchor="middle" x="273.62" y="-1408.25" font-family="Helvetica,sans-Serif" font-size="10.00">v1.69.1</text>
</g>
<!-- fortio.org/dnsping&#45;&gt;fortio.org/log -->
<g id="edge8" class="edge">
<title>fortio.org/dnsping&#45;&gt;fortio.org/log</title>
<path fill="none" stroke="black" d="M150.02,-1445.33C177.52,-1464.15 217.63,-1496 239.5,-1534 313.12,-1661.92 204.55,-1753.48 307.75,-1859 451.03,-2005.5 611.87,-1818.83 756.75,-1963.75 781.67,-1988.68 747.14,-2019.08 774.75,-2041 847.68,-2098.89 892.13,-2054.54 984.25,-2041 1097.31,-2024.38 1153.27,-2051.23 1230.5,-1967 1309.39,-1880.96 1345,-1503.06 1353.77,-1393.73"/>
<polygon fill="black" stroke="black" points="1357.26,-1394.07 1354.55,-1383.83 1350.28,-1393.52 1357.26,-1394.07"/>
<text text-anchor="middle" x="740.62" y="-1965.5" font-family="Helvetica,sans-Serif" font-size="10.00">v1.17.2</text>
</g>
<!-- fortio.org/safecast -->
<g id="node14" class="node">
<title>fortio.org/safecast</title>
<path fill="lightblue" stroke="black" d="M1207.62,-308C1207.62,-308 1108.38,-308 1108.38,-308 1102.38,-308 1096.38,-302 1096.38,-296 1096.38,-296 1096.38,-284 1096.38,-284 1096.38,-278 1102.38,-272 1108.38,-272 1108.38,-272 1207.62,-272 1207.62,-272 1213.62,-272 1219.62,-278 1219.62,-284 1219.62,-284 1219.62,-296 1219.62,-296 1219.62,-302 1213.62,-308 1207.62,-308"/>
<text text-anchor="middle" x="1158" y="-284.2" font-family="Helvetica,sans-Serif" font-size="14.00">fortio.org/safecast</text>
</g>
<!-- fortio.org/dnsping&#45;&gt;fortio.org/safecast -->
<g id="edge9" class="edge">
<title>fortio.org/dnsping&#45;&gt;fortio.org/safecast</title>
<path fill="none" stroke="black" d="M126.66,-1408.57C151.84,-1329.17 250.59,-1007.99 289.75,-736 295.93,-693.06 280.71,-379.92 307.75,-346 402.81,-226.74 896.76,-263.4 1084.49,-282.07"/>
<polygon fill="black" stroke="black" points="1084.07,-285.55 1094.37,-283.07 1084.77,-278.58 1084.07,-285.55"/>
<text text-anchor="middle" x="640.75" y="-267.8" font-family="Helvetica,sans-Serif" font-size="10.00">v1.0.0</text>
</g>
<!-- fortio.org/testscript -->
<g id="node22" class="node">
<title>fortio.org/testscript</title>
<path fill="steelblue" stroke="black" d="M1197.88,-1573C1197.88,-1573 1118.12,-1573 1118.12,-1573 1112.12,-1573 1106.12,-1567 1106.12,-1561 1106.12,-1561 1106.12,-1549 1106.12,-1549 1106.12,-1543 1112.12,-1537 1118.12,-1537 1118.12,-1537 1197.88,-1537 1197.88,-1537 1203.88,-1537 1209.88,-1543 1209.88,-1549 1209.88,-1549 1209.88,-1561 1209.88,-1561 1209.88,-1567 1203.88,-1573 1197.88,-1573"/>
<text text-anchor="middle" x="1158" y="-1549.2" font-family="Helvetica,sans-Serif" font-size="14.00">fortio/testscript</text>
</g>
<!-- fortio.org/dnsping&#45;&gt;fortio.org/testscript -->
<g id="edge10" class="edge">
<title>fortio.org/dnsping&#45;&gt;fortio.org/testscript</title>
<path fill="none" stroke="black" d="M180.02,-1432.61C282.58,-1442.89 484.35,-1465.81 506.75,-1489 551.55,-1535.4 476.4,-1590.32 524.75,-1633 535.5,-1642.49 542.82,-1635.07 557,-1633 656.94,-1618.4 674.81,-1582.6 774.75,-1568 866.88,-1554.54 898.23,-1532.37 984.25,-1568 994.7,-1572.33 991.8,-1581.67 1002.25,-1586 1029.04,-1597.1 1039.13,-1592.02 1067.5,-1586 1076.06,-1584.18 1077.32,-1581.12 1085.5,-1578 1088.69,-1576.78 1091.97,-1575.58 1095.29,-1574.39"/>
<polygon fill="black" stroke="black" points="1096.26,-1577.76 1104.56,-1571.17 1093.96,-1571.14 1096.26,-1577.76"/>
<text text-anchor="middle" x="640.75" y="-1631.66" font-family="Helvetica,sans-Serif" font-size="10.00">v0.3.2</text>
</g>
<!-- github.com/miekg/dns -->
<g id="node39" class="node">
<title>github.com/miekg/dns</title>
<path fill="coral" stroke="black" d="M442.62,-1534C442.62,-1534 371.88,-1534 371.88,-1534 365.88,-1534 359.88,-1528 359.88,-1522 359.88,-1522 359.88,-1510 359.88,-1510 359.88,-1504 365.88,-1498 371.88,-1498 371.88,-1498 442.62,-1498 442.62,-1498 448.62,-1498 454.62,-1504 454.62,-1510 454.62,-1510 454.62,-1522 454.62,-1522 454.62,-1528 448.62,-1534 442.62,-1534"/>
<text text-anchor="middle" x="407.25" y="-1510.2" font-family="Helvetica,sans-Serif" font-size="14.00">ldemailly/dns</text>
</g>
<!-- fortio.org/dnsping&#45;&gt;github.com/miekg/dns -->
<g id="edge11" class="edge">
<title>fortio.org/dnsping&#45;&gt;github.com/miekg/dns</title>
<path fill="none" stroke="black" d="M163.96,-1445.44C190.61,-1456.38 225.67,-1470.03 257.5,-1480 287.14,-1489.29 320.72,-1497.6 348.47,-1503.89"/>
<polygon fill="black" stroke="black" points="347.59,-1507.28 358.11,-1506.04 349.11,-1500.44 347.59,-1507.28"/>
<text text-anchor="middle" x="273.62" y="-1491.11" font-family="Helvetica,sans-Serif" font-size="10.00">v1.1.65</text>
</g>
<!-- fortio.org/fortio&#45;&gt;fortio.org/assert -->
<g id="edge12" class="edge">
<title>fortio.org/fortio&#45;&gt;fortio.org/assert</title>
<path fill="none" stroke="black" d="M441.52,-1404.28C460.82,-1415.13 485.44,-1429.38 506.75,-1443 538,-1462.97 544.48,-1469.94 575,-1491 633.09,-1531.08 655.75,-1530.97 706.5,-1580 733.78,-1606.36 734.5,-1618.27 756.75,-1649 764.78,-1660.09 762.9,-1667.14 774.75,-1674 855.75,-1720.93 893.59,-1672.41 984.25,-1695.75 1023.16,-1705.77 1034.81,-1707.64 1067.5,-1731 1155.85,-1794.14 1176.03,-1819.06 1230.5,-1913 1299.73,-2032.38 1337.29,-2195.36 1350.49,-2261.41"/>
<polygon fill="black" stroke="black" points="1347.03,-2261.95 1352.38,-2271.09 1353.9,-2260.61 1347.03,-2261.95"/>
<text text-anchor="middle" x="879.5" y="-1697.5" font-family="Helvetica,sans-Serif" font-size="10.00">v1.2.1</text>
</g>
<!-- fortio.org/fortio&#45;&gt;fortio.org/cli -->
<g id="edge13" class="edge">
<title>fortio.org/fortio&#45;&gt;fortio.org/cli</title>
<path fill="none" stroke="black" d="M459.11,-1381.61C475.42,-1378.33 492.84,-1372.68 506.75,-1363 539.99,-1339.87 535.74,-1321.46 557,-1287 608.01,-1204.34 692.45,-959.59 774.75,-908 801.9,-890.98 1004.7,-884.29 1103.38,-882.01"/>
<polygon fill="black" stroke="black" points="1103.44,-885.51 1113.36,-881.79 1103.29,-878.52 1103.44,-885.51"/>
<text text-anchor="middle" x="740.62" y="-961.04" font-family="Helvetica,sans-Serif" font-size="10.00">v1.10.0</text>
</g>
<!-- fortio.org/fortio&#45;&gt;fortio.org/dflag -->
<g id="edge14" class="edge">
<title>fortio.org/fortio&#45;&gt;fortio.org/dflag</title>
<path fill="none" stroke="black" d="M433.71,-1404.49C457.05,-1423.01 490.39,-1453.77 506.75,-1489 522.65,-1523.26 500.13,-1629.36 524.75,-1658 579.19,-1721.34 652.72,-1641.85 706.5,-1705.75 736.7,-1741.63 703.24,-1874.2 724.5,-1916 733.11,-1932.92 747.32,-1927.52 756.75,-1944 778.52,-1982.06 754.26,-2002.24 774.75,-2041 791.19,-2072.1 820.24,-2099.72 843.43,-2118.51"/>
<polygon fill="black" stroke="black" points="841.1,-2121.13 851.12,-2124.57 845.43,-2115.63 841.1,-2121.13"/>
<text text-anchor="middle" x="640.75" y="-1707.5" font-family="Helvetica,sans-Serif" font-size="10.00">v1.8.1</text>
</g>
<!-- fortio.org/fortio&#45;&gt;fortio.org/log -->
<g id="edge15" class="edge">
<title>fortio.org/fortio&#45;&gt;fortio.org/log</title>
<path fill="none" stroke="black" d="M459.05,-1401.16C474.51,-1406.13 491.45,-1411.94 506.75,-1418 597.98,-1454.12 633.23,-1446.74 706.5,-1512 749.46,-1550.27 727.39,-1589.33 774.75,-1622 852.83,-1675.86 896.69,-1626.26 984.25,-1662.75 993.18,-1666.47 993,-1672.15 1002.25,-1675 1029.97,-1683.54 1038.65,-1677.98 1067.5,-1675 1141.11,-1667.4 1169.63,-1683.09 1230.5,-1641 1315.23,-1582.41 1343.71,-1452.22 1352.46,-1393.6"/>
<polygon fill="black" stroke="black" points="1355.92,-1394.12 1353.83,-1383.74 1348.99,-1393.16 1355.92,-1394.12"/>
<text text-anchor="middle" x="879.5" y="-1664.5" font-family="Helvetica,sans-Serif" font-size="10.00">v1.17.2</text>
</g>
<!-- fortio.org/fortio&#45;&gt;fortio.org/safecast -->
<g id="edge16" class="edge">
<title>fortio.org/fortio&#45;&gt;fortio.org/safecast</title>
<path fill="none" stroke="black" d="M459.16,-1386.17C476.88,-1383.47 495.19,-1377.03 506.75,-1363 524,-1342.06 521.23,-901.9 524.75,-875 533.15,-810.83 547.59,-797.03 557,-733 561.24,-704.13 558.24,-494.88 575,-471 611.7,-418.72 663.4,-460.14 706.5,-413 723.36,-394.56 707.58,-378.13 724.5,-359.75 740.98,-341.85 751.27,-344.41 774.75,-338 880.37,-309.14 1007.21,-297.56 1084.95,-292.97"/>
<polygon fill="black" stroke="black" points="1084.76,-296.48 1094.54,-292.42 1084.36,-289.49 1084.76,-296.48"/>
<text text-anchor="middle" x="740.62" y="-361.5" font-family="Helvetica,sans-Serif" font-size="10.00">v1.0.0</text>
</g>
<!-- fortio.org/scli -->
<g id="node15" class="node">
<title>fortio.org/scli</title>
<path fill="lightblue" stroke="black" d="M675,-1384C675,-1384 606.5,-1384 606.5,-1384 600.5,-1384 594.5,-1378 594.5,-1372 594.5,-1372 594.5,-1360 594.5,-1360 594.5,-1354 600.5,-1348 606.5,-1348 606.5,-1348 675,-1348 675,-1348 681,-1348 687,-1354 687,-1360 687,-1360 687,-1372 687,-1372 687,-1378 681,-1384 675,-1384"/>
<text text-anchor="middle" x="640.75" y="-1360.2" font-family="Helvetica,sans-Serif" font-size="14.00">fortio.org/scli</text>
</g>
<!-- fortio.org/fortio&#45;&gt;fortio.org/scli -->
<g id="edge17" class="edge">
<title>fortio.org/fortio&#45;&gt;fortio.org/scli</title>
<path fill="none" stroke="black" d="M459.05,-1381.61C495.6,-1378.45 544.92,-1374.19 582.8,-1370.92"/>
<polygon fill="black" stroke="black" points="582.99,-1374.42 592.66,-1370.07 582.39,-1367.44 582.99,-1374.42"/>
<text text-anchor="middle" x="540.88" y="-1377.15" font-family="Helvetica,sans-Serif" font-size="10.00">v1.16.1</text>
</g>
<!-- fortio.org/fortio&#45;&gt;fortio.org/sets -->
<g id="edge18" class="edge">
<title>fortio.org/fortio&#45;&gt;fortio.org/sets</title>
<path fill="none" stroke="black" d="M429.55,-1404.47C451.03,-1423.91 484.17,-1456.18 506.75,-1489 517.34,-1504.39 514.73,-1511.22 524.75,-1527 543.58,-1556.65 548.9,-1564.49 575,-1588 627.07,-1634.89 663.38,-1619.76 706.5,-1675 721.29,-1693.95 713.98,-1704.39 724.5,-1726 742.71,-1763.42 740.76,-1781 774.75,-1805 852.79,-1860.09 894.38,-1820.61 984.25,-1853 1031.4,-1869.99 1082.3,-1896.75 1116.54,-1916.1"/>
<polygon fill="black" stroke="black" points="1114.44,-1918.93 1124.86,-1920.85 1117.91,-1912.85 1114.44,-1918.93"/>
<text text-anchor="middle" x="740.62" y="-1791.36" font-family="Helvetica,sans-Serif" font-size="10.00">v1.3.0</text>
</g>
<!-- fortio.org/fortio&#45;&gt;fortio.org/testscript -->
<g id="edge19" class="edge">
<title>fortio.org/fortio&#45;&gt;fortio.org/testscript</title>
<path fill="none" stroke="black" d="M459.16,-1388.76C533.96,-1393.76 668.8,-1406.65 706.5,-1436 722.2,-1448.23 710.18,-1463.18 724.5,-1477 809.59,-1559.17 887.44,-1467.04 984.25,-1535 997.29,-1544.15 988.44,-1558.05 1002.25,-1566 1029.78,-1581.85 1064.78,-1580.76 1094.54,-1574.98"/>
<polygon fill="black" stroke="black" points="1095.15,-1578.43 1104.18,-1572.88 1093.66,-1571.59 1095.15,-1578.43"/>
<text text-anchor="middle" x="740.62" y="-1501.79" font-family="Helvetica,sans-Serif" font-size="10.00">v0.3.2</text>
</g>
<!-- fortio.org/fortio&#45;&gt;fortio.org/version -->
<g id="edge20" class="edge">
<title>fortio.org/fortio&#45;&gt;fortio.org/version</title>
<path fill="none" stroke="black" d="M459.03,-1386.31C476.84,-1383.64 495.25,-1377.19 506.75,-1363 536.67,-1326.09 512.82,-553.99 524.75,-508 536.74,-461.77 538.47,-443.78 575,-413 622.02,-373.38 658.97,-409.01 706.5,-370 719.11,-359.65 714.7,-351.05 724.5,-338 743.65,-312.49 746.8,-302.13 774.75,-286.75 890.3,-223.15 935.98,-227.97 1067.5,-238 1140.58,-243.57 1168.92,-223.25 1230.5,-263 1291.69,-302.5 1329.35,-383.55 1345.98,-426.99"/>
<polygon fill="black" stroke="black" points="1342.66,-428.09 1349.41,-436.26 1349.22,-425.66 1342.66,-428.09"/>
<text text-anchor="middle" x="879.5" y="-288.5" font-family="Helvetica,sans-Serif" font-size="10.00">v1.0.4</text>
</g>
<!-- grol.io/grol -->
<g id="node44" class="node">
<title>grol.io/grol</title>
<path fill="lightgreen" stroke="black" d="M668.25,-516C668.25,-516 613.25,-516 613.25,-516 607.25,-516 601.25,-510 601.25,-504 601.25,-504 601.25,-492 601.25,-492 601.25,-486 607.25,-480 613.25,-480 613.25,-480 668.25,-480 668.25,-480 674.25,-480 680.25,-486 680.25,-492 680.25,-492 680.25,-504 680.25,-504 680.25,-510 674.25,-516 668.25,-516"/>
<text text-anchor="middle" x="640.75" y="-492.2" font-family="Helvetica,sans-Serif" font-size="14.00">grol.io/grol</text>
</g>
<!-- fortio.org/fortio&#45;&gt;grol.io/grol -->
<g id="edge21" class="edge">
<title>fortio.org/fortio&#45;&gt;grol.io/grol</title>
<path fill="none" stroke="black" d="M459.01,-1380.86C476.7,-1376.47 495.04,-1368.47 506.75,-1354 515.22,-1343.54 555.9,-885.42 557,-872 562.51,-804.55 548.47,-630.26 575,-568 582.12,-551.29 595.02,-536.05 607.45,-524.09"/>
<polygon fill="black" stroke="black" points="609.77,-526.71 614.78,-517.37 605.04,-521.55 609.77,-526.71"/>
<text text-anchor="middle" x="540.88" y="-1212.03" font-family="Helvetica,sans-Serif" font-size="10.00">v0.80.3</text>
</g>
<!-- fortio.org/fortiotel -->
<g id="node6" class="node">
<title>fortio.org/fortiotel</title>
<path fill="lightblue" stroke="black" d="M166.38,-1996C166.38,-1996 73.12,-1996 73.12,-1996 67.12,-1996 61.12,-1990 61.12,-1984 61.12,-1984 61.12,-1972 61.12,-1972 61.12,-1966 67.12,-1960 73.12,-1960 73.12,-1960 166.38,-1960 166.38,-1960 172.38,-1960 178.38,-1966 178.38,-1972 178.38,-1972 178.38,-1984 178.38,-1984 178.38,-1990 172.38,-1996 166.38,-1996"/>
<text text-anchor="middle" x="119.75" y="-1972.2" font-family="Helvetica,sans-Serif" font-size="14.00">fortio.org/fortiotel</text>
</g>
<!-- fortio.org/fortiotel&#45;&gt;fortio.org/cli -->
<g id="edge22" class="edge">
<title>fortio.org/fortiotel&#45;&gt;fortio.org/cli</title>
<path fill="none" stroke="black" d="M126.28,-1959.64C150.52,-1879.23 246.67,-1561.34 257.5,-1542 268.16,-1522.97 281.48,-1525.18 289.75,-1505 339.4,-1383.87 263.63,-1334.25 307.75,-1211 358.6,-1068.96 442.14,-1072.33 506.75,-936 520.14,-907.75 500.84,-888.14 524.75,-868 602.94,-802.15 882.04,-844.16 984.25,-846 1021.27,-846.67 1031.14,-842.02 1067.5,-849 1079.66,-851.33 1092.38,-855.05 1104.29,-859.14"/>
<polygon fill="black" stroke="black" points="1102.94,-862.37 1113.53,-862.45 1105.3,-855.78 1102.94,-862.37"/>
<text text-anchor="middle" x="640.75" y="-845.94" font-family="Helvetica,sans-Serif" font-size="10.00">v1.10.0</text>
</g>
<!-- fortio.org/fortiotel&#45;&gt;fortio.org/dflag -->
<g id="edge23" class="edge">
<title>fortio.org/fortiotel&#45;&gt;fortio.org/dflag</title>
<path fill="none" stroke="black" d="M142.82,-1996.45C168.57,-2016.88 213.3,-2049.04 257.5,-2065 452.93,-2135.58 702.81,-2144.8 816.82,-2144.94"/>
<polygon fill="black" stroke="black" points="816.56,-2148.45 826.56,-2144.93 816.55,-2141.45 816.56,-2148.45"/>
<text text-anchor="middle" x="540.88" y="-2131.31" font-family="Helvetica,sans-Serif" font-size="10.00">v1.8.1</text>
</g>
<!-- fortio.org/fortiotel&#45;&gt;fortio.org/fortio -->
<g id="edge24" class="edge">
<title>fortio.org/fortiotel&#45;&gt;fortio.org/fortio</title>
<path fill="none" stroke="black" d="M127.73,-1959.74C161.64,-1871.03 307.54,-1489.34 307.75,-1489 326.35,-1459.6 354.24,-1431.42 375.6,-1411.99"/>
<polygon fill="black" stroke="black" points="377.76,-1414.76 382.89,-1405.48 373.09,-1409.53 377.76,-1414.76"/>
<text text-anchor="middle" x="273.62" y="-1609.09" font-family="Helvetica,sans-Serif" font-size="10.00">v1.69.1</text>
</g>
<!-- fortio.org/fortiotel&#45;&gt;fortio.org/log -->
<g id="edge25" class="edge">
<title>fortio.org/fortiotel&#45;&gt;fortio.org/log</title>
<path fill="none" stroke="black" d="M178.53,-1995.09C211.5,-2005.35 253.37,-2019.25 289.75,-2034 412.33,-2083.72 469.83,-2065.5 557,-2165 572.56,-2182.77 555.68,-2201.42 575,-2215 634.76,-2257 1162.06,-2190.54 1230.5,-2165 1255.53,-2155.66 1266.93,-2154.87 1280.75,-2132 1357.8,-2004.54 1357.77,-1519.14 1356.44,-1393.72"/>
<polygon fill="black" stroke="black" points="1359.94,-1393.89 1356.32,-1383.93 1352.94,-1393.97 1359.94,-1393.89"/>
<text text-anchor="middle" x="740.62" y="-2229.43" font-family="Helvetica,sans-Serif" font-size="10.00">v1.17.2</text>
</g>
<!-- fortio.org/struct2env -->
<g id="node18" class="node">
<title>fortio.org/struct2env</title>
<path fill="lightblue" stroke="black" d="M1601.5,-109C1601.5,-109 1490.25,-109 1490.25,-109 1484.25,-109 1478.25,-103 1478.25,-97 1478.25,-97 1478.25,-85 1478.25,-85 1478.25,-79 1484.25,-73 1490.25,-73 1490.25,-73 1601.5,-73 1601.5,-73 1607.5,-73 1613.5,-79 1613.5,-85 1613.5,-85 1613.5,-97 1613.5,-97 1613.5,-103 1607.5,-109 1601.5,-109"/>
<text text-anchor="middle" x="1545.88" y="-85.2" font-family="Helvetica,sans-Serif" font-size="14.00">fortio.org/struct2env</text>
</g>
<!-- fortio.org/log&#45;&gt;fortio.org/struct2env -->
<g id="edge26" class="edge">
<title>fortio.org/log&#45;&gt;fortio.org/struct2env</title>
<path fill="none" stroke="black" d="M1360.71,-1345.51C1381.46,-1204.21 1514.8,-295.9 1540.57,-120.35"/>
<polygon fill="black" stroke="black" points="1543.99,-121.11 1541.98,-110.71 1537.07,-120.09 1543.99,-121.11"/>
<text text-anchor="middle" x="1446.75" y="-843.27" font-family="Helvetica,sans-Serif" font-size="10.00">v0.4.2</text>
</g>
<!-- fortio.org/logc -->
<g id="node8" class="node">
<title>fortio.org/logc</title>
<path fill="lightblue" stroke="black" d="M444.12,-1256C444.12,-1256 370.38,-1256 370.38,-1256 364.38,-1256 358.38,-1250 358.38,-1244 358.38,-1244 358.38,-1232 358.38,-1232 358.38,-1226 364.38,-1220 370.38,-1220 370.38,-1220 444.12,-1220 444.12,-1220 450.12,-1220 456.12,-1226 456.12,-1232 456.12,-1232 456.12,-1244 456.12,-1244 456.12,-1250 450.12,-1256 444.12,-1256"/>
<text text-anchor="middle" x="407.25" y="-1232.2" font-family="Helvetica,sans-Serif" font-size="14.00">fortio.org/logc</text>
</g>
<!-- fortio.org/logc&#45;&gt;fortio.org/cli -->
<g id="edge27" class="edge">
<title>fortio.org/logc&#45;&gt;fortio.org/cli</title>
<path fill="none" stroke="black" d="M419.66,-1219.68C459.39,-1157.79 598.86,-956.19 774.75,-880 883.64,-832.83 1026.92,-852.04 1103.41,-867.92"/>
<polygon fill="black" stroke="black" points="1102.66,-871.34 1113.17,-870.01 1104.13,-864.49 1102.66,-871.34"/>
<text text-anchor="middle" x="740.62" y="-905.58" font-family="Helvetica,sans-Serif" font-size="10.00">v1.10.0</text>
</g>
<!-- fortio.org/logc&#45;&gt;fortio.org/log -->
<g id="edge28" class="edge">
<title>fortio.org/logc&#45;&gt;fortio.org/log</title>
<path fill="none" stroke="black" d="M456.36,-1235.98C628.74,-1229.11 1209.11,-1209.25 1280.75,-1250 1313.54,-1268.65 1334.64,-1308.14 1345.91,-1335.37"/>
<polygon fill="black" stroke="black" points="1342.55,-1336.4 1349.46,-1344.43 1349.07,-1333.85 1342.55,-1336.4"/>
<text text-anchor="middle" x="879.5" y="-1228.36" font-family="Helvetica,sans-Serif" font-size="10.00">v1.17.2</text>
</g>
<!-- fortio.org/logc&#45;&gt;fortio.org/scli -->
<g id="edge29" class="edge">
<title>fortio.org/logc&#45;&gt;fortio.org/scli</title>
<path fill="none" stroke="black" d="M456.62,-1241.33C487.18,-1245.21 526.5,-1253.61 557,-1271.75 584.46,-1288.09 607.63,-1316.67 622.41,-1338.09"/>
<polygon fill="black" stroke="black" points="619.48,-1340.01 627.94,-1346.39 625.31,-1336.12 619.48,-1340.01"/>
<text text-anchor="middle" x="540.88" y="-1273.5" font-family="Helvetica,sans-Serif" font-size="10.00">v1.15.3</text>
</g>
<!-- fortio.org/memstore -->
<g id="node9" class="node">
<title>fortio.org/memstore</title>
<path fill="lightblue" stroke="black" d="M175,-2222C175,-2222 64.5,-2222 64.5,-2222 58.5,-2222 52.5,-2216 52.5,-2210 52.5,-2210 52.5,-2198 52.5,-2198 52.5,-2192 58.5,-2186 64.5,-2186 64.5,-2186 175,-2186 175,-2186 181,-2186 187,-2192 187,-2198 187,-2198 187,-2210 187,-2210 187,-2216 181,-2222 175,-2222"/>
<text text-anchor="middle" x="119.75" y="-2198.2" font-family="Helvetica,sans-Serif" font-size="14.00">fortio.org/memstore</text>
</g>
<!-- fortio.org/memstore&#45;&gt;fortio.org/dflag -->
<g id="edge30" class="edge">
<title>fortio.org/memstore&#45;&gt;fortio.org/dflag</title>
<path fill="none" stroke="black" d="M187.33,-2198.72C275.86,-2191.7 437.19,-2178.91 575,-2168 658.66,-2161.38 755.28,-2153.74 816.62,-2148.89"/>
<polygon fill="black" stroke="black" points="816.82,-2152.39 826.51,-2148.11 816.27,-2145.41 816.82,-2152.39"/>
<text text-anchor="middle" x="540.88" y="-2173.5" font-family="Helvetica,sans-Serif" font-size="10.00">v1.7.3</text>
</g>
<!-- fortio.org/memstore&#45;&gt;fortio.org/fortio -->
<g id="edge31" class="edge">
<title>fortio.org/memstore&#45;&gt;fortio.org/fortio</title>
<path fill="none" stroke="black" d="M181.04,-2185.56C202.53,-2176.11 224.98,-2162.39 239.5,-2143 310.58,-2048.1 275.83,-1998.75 289.75,-1881 294.87,-1837.7 290.59,-1529.08 307.75,-1489 321.25,-1457.47 349,-1429.89 371.62,-1411.23"/>
<polygon fill="black" stroke="black" points="373.5,-1414.2 379.13,-1405.22 369.13,-1408.73 373.5,-1414.2"/>
<text text-anchor="middle" x="273.62" y="-2117.53" font-family="Helvetica,sans-Serif" font-size="10.00">v1.68.0</text>
</g>
<!-- fortio.org/memstore&#45;&gt;fortio.org/log -->
<g id="edge32" class="edge">
<title>fortio.org/memstore&#45;&gt;fortio.org/log</title>
<path fill="none" stroke="black" d="M187.33,-2216.75C204.51,-2220.69 222.85,-2225.47 239.5,-2231 316.45,-2256.55 325.17,-2305 406.25,-2305 406.25,-2305 406.25,-2305 1035.88,-2305 1123.61,-2305 1158.21,-2321.71 1230.5,-2272 1266.66,-2247.13 1267.26,-2228.76 1280.75,-2187 1330.01,-2034.57 1350.59,-1521.9 1355.04,-1393.4"/>
<polygon fill="black" stroke="black" points="1358.53,-1393.81 1355.37,-1383.7 1351.53,-1393.58 1358.53,-1393.81"/>
<text text-anchor="middle" x="740.62" y="-2306.75" font-family="Helvetica,sans-Serif" font-size="10.00">v1.17.1</text>
</g>
<!-- fortio.org/memstore&#45;&gt;fortio.org/scli -->
<g id="edge33" class="edge">
<title>fortio.org/memstore&#45;&gt;fortio.org/scli</title>
<path fill="none" stroke="black" d="M187.21,-2187.03C224.17,-2173.86 267.15,-2151.51 289.75,-2115 312.54,-2078.19 280.8,-1759.63 307.75,-1725.75 364.93,-1653.87 442.27,-1735.41 506.75,-1670 528.7,-1647.74 513.85,-1631.3 524.75,-1602 553.67,-1524.25 599.59,-1437.78 623.72,-1394.27"/>
<polygon fill="black" stroke="black" points="626.67,-1396.18 628.49,-1385.74 620.56,-1392.76 626.67,-1396.18"/>
<text text-anchor="middle" x="407.25" y="-1727.5" font-family="Helvetica,sans-Serif" font-size="10.00">v1.15.3</text>
</g>
<!-- fortio.org/memstore&#45;&gt;fortio.org/sets -->
<g id="edge34" class="edge">
<title>fortio.org/memstore&#45;&gt;fortio.org/sets</title>
<path fill="none" stroke="black" d="M187.38,-2205.92C218.49,-2206.53 256.02,-2206.85 289.75,-2206 366.99,-2204.05 915.8,-2206.83 984.25,-2171 1068.99,-2126.65 1123.44,-2019.9 1145.63,-1968.55"/>
<polygon fill="black" stroke="black" points="1148.75,-1970.15 1149.41,-1959.58 1142.3,-1967.44 1148.75,-1970.15"/>
<text text-anchor="middle" x="640.75" y="-2204.32" font-family="Helvetica,sans-Serif" font-size="10.00">v1.2.0</text>
</g>
<!-- fortio.org/multicurl -->
<g id="node10" class="node">
<title>fortio.org/multicurl</title>
<path fill="lightblue" stroke="black" d="M929.5,-1344C929.5,-1344 829.5,-1344 829.5,-1344 823.5,-1344 817.5,-1338 817.5,-1332 817.5,-1332 817.5,-1320 817.5,-1320 817.5,-1314 823.5,-1308 829.5,-1308 829.5,-1308 929.5,-1308 929.5,-1308 935.5,-1308 941.5,-1314 941.5,-1320 941.5,-1320 941.5,-1332 941.5,-1332 941.5,-1338 935.5,-1344 929.5,-1344"/>
<text text-anchor="middle" x="879.5" y="-1320.2" font-family="Helvetica,sans-Serif" font-size="14.00">fortio.org/multicurl</text>
</g>
<!-- fortio.org/multicurl&#45;&gt;fortio.org/cli -->
<g id="edge35" class="edge">
<title>fortio.org/multicurl&#45;&gt;fortio.org/cli</title>
<path fill="none" stroke="black" d="M915.1,-1307.59C960.39,-1281.22 1037.55,-1227.95 1067.5,-1157 1098.77,-1082.93 1056.43,-1051.96 1085.5,-977 1095.64,-950.86 1114.95,-925.61 1130.95,-907.57"/>
<polygon fill="black" stroke="black" points="1133.3,-910.18 1137.46,-900.44 1128.13,-905.46 1133.3,-910.18"/>
<text text-anchor="middle" x="1034.88" y="-1245.4" font-family="Helvetica,sans-Serif" font-size="10.00">v1.10.0</text>
</g>
<!-- fortio.org/multicurl&#45;&gt;fortio.org/log -->
<g id="edge36" class="edge">
<title>fortio.org/multicurl&#45;&gt;fortio.org/log</title>
<path fill="none" stroke="black" d="M941.69,-1330.89C1034.68,-1338.32 1210.24,-1352.35 1300.03,-1359.53"/>
<polygon fill="black" stroke="black" points="1299.58,-1363 1309.82,-1360.31 1300.13,-1356.02 1299.58,-1363"/>
<text text-anchor="middle" x="1158" y="-1355.33" font-family="Helvetica,sans-Serif" font-size="10.00">v1.17.2</text>
</g>
<!-- fortio.org/progressbar -->
<g id="node12" class="node">
<title>fortio.org/progressbar</title>
<path fill="lightblue" stroke="black" d="M1218.5,-1328C1218.5,-1328 1097.5,-1328 1097.5,-1328 1091.5,-1328 1085.5,-1322 1085.5,-1316 1085.5,-1316 1085.5,-1304 1085.5,-1304 1085.5,-1298 1091.5,-1292 1097.5,-1292 1097.5,-1292 1218.5,-1292 1218.5,-1292 1224.5,-1292 1230.5,-1298 1230.5,-1304 1230.5,-1304 1230.5,-1316 1230.5,-1316 1230.5,-1322 1224.5,-1328 1218.5,-1328"/>
<text text-anchor="middle" x="1158" y="-1304.2" font-family="Helvetica,sans-Serif" font-size="14.00">fortio.org/progressbar</text>
</g>
<!-- fortio.org/multicurl&#45;&gt;fortio.org/progressbar -->
<g id="edge37" class="edge">
<title>fortio.org/multicurl&#45;&gt;fortio.org/progressbar</title>
<path fill="none" stroke="black" d="M941.97,-1316.18C961.21,-1313.54 982.57,-1311.06 1002.25,-1309.75 1031.19,-1307.83 1038.5,-1309.71 1067.5,-1309.75 1069.57,-1309.75 1071.66,-1309.76 1073.77,-1309.76"/>
<polygon fill="black" stroke="black" points="1073.67,-1313.26 1083.68,-1309.78 1073.68,-1306.26 1073.67,-1313.26"/>
<text text-anchor="middle" x="1034.88" y="-1311.5" font-family="Helvetica,sans-Serif" font-size="10.00">v0.12.0</text>
</g>
<!-- fortio.org/multicurl&#45;&gt;fortio.org/testscript -->
<g id="edge38" class="edge">
<title>fortio.org/multicurl&#45;&gt;fortio.org/testscript</title>
<path fill="none" stroke="black" d="M919.91,-1344.46C943.57,-1355.3 974.4,-1368.99 1002.25,-1380 1030.81,-1391.29 1046.87,-1380 1067.5,-1402.75 1090.31,-1427.9 1069.52,-1447.04 1085.5,-1477 1095.9,-1496.51 1112.33,-1514.92 1126.82,-1528.95"/>
<polygon fill="black" stroke="black" points="1124.27,-1531.36 1133.96,-1535.64 1129.06,-1526.25 1124.27,-1531.36"/>
<text text-anchor="middle" x="1034.88" y="-1404.5" font-family="Helvetica,sans-Serif" font-size="10.00">v0.3.2</text>
</g>
<!-- fortio.org/multicurl&#45;&gt;fortio.org/version -->
<g id="edge39" class="edge">
<title>fortio.org/multicurl&#45;&gt;fortio.org/version</title>
<path fill="none" stroke="black" d="M941.57,-1320.7C983.71,-1313.62 1037.38,-1297.18 1067.5,-1259 1112.99,-1201.35 1034.97,-1148.04 1085.5,-1094.75 1130.43,-1047.36 1176.3,-1107.42 1230.5,-1071 1265.98,-1047.16 1266.29,-1029.22 1280.75,-989 1346.59,-805.8 1355.11,-567.84 1355.99,-485.53"/>
<polygon fill="black" stroke="black" points="1359.49,-485.65 1356.07,-475.63 1352.49,-485.6 1359.49,-485.65"/>
<text text-anchor="middle" x="1158" y="-1096.5" font-family="Helvetica,sans-Serif" font-size="10.00">v1.0.4</text>
</g>
<!-- fortio.org/otel&#45;sample&#45;app -->
<g id="node11" class="node">
<title>fortio.org/otel&#45;sample&#45;app</title>
<path fill="lightblue" stroke="black" d="M193,-2276C193,-2276 46.5,-2276 46.5,-2276 40.5,-2276 34.5,-2270 34.5,-2264 34.5,-2264 34.5,-2252 34.5,-2252 34.5,-2246 40.5,-2240 46.5,-2240 46.5,-2240 193,-2240 193,-2240 199,-2240 205,-2246 205,-2252 205,-2252 205,-2264 205,-2264 205,-2270 199,-2276 193,-2276"/>
<text text-anchor="middle" x="119.75" y="-2252.2" font-family="Helvetica,sans-Serif" font-size="14.00">fortio.org/otel&#45;sample&#45;app</text>
</g>
<!-- fortio.org/proxy -->
<g id="node13" class="node">
<title>fortio.org/proxy</title>
<path fill="lightblue" stroke="black" d="M160.75,-1579C160.75,-1579 78.75,-1579 78.75,-1579 72.75,-1579 66.75,-1573 66.75,-1567 66.75,-1567 66.75,-1555 66.75,-1555 66.75,-1549 72.75,-1543 78.75,-1543 78.75,-1543 160.75,-1543 160.75,-1543 166.75,-1543 172.75,-1549 172.75,-1555 172.75,-1555 172.75,-1567 172.75,-1567 172.75,-1573 166.75,-1579 160.75,-1579"/>
<text text-anchor="middle" x="119.75" y="-1555.2" font-family="Helvetica,sans-Serif" font-size="14.00">fortio.org/proxy</text>
</g>
<!-- fortio.org/proxy&#45;&gt;fortio.org/cli -->
<g id="edge40" class="edge">
<title>fortio.org/proxy&#45;&gt;fortio.org/cli</title>
<path fill="none" stroke="black" d="M151.01,-1542.57C178.83,-1523.9 218.8,-1492.34 239.5,-1454 286.92,-1366.15 259.48,-1097.38 307.75,-1010 369.45,-898.3 415.29,-887.59 524.75,-822 642.83,-751.24 1056.33,-799.83 1067.5,-804 1094.4,-814.03 1118.66,-836.14 1135.11,-854.1"/>
<polygon fill="black" stroke="black" points="1132.3,-856.2 1141.54,-861.38 1137.55,-851.57 1132.3,-856.2"/>
<text text-anchor="middle" x="640.75" y="-803.46" font-family="Helvetica,sans-Serif" font-size="10.00">v1.10.0</text>
</g>
<!-- fortio.org/proxy&#45;&gt;fortio.org/dflag -->
<g id="edge41" class="edge">
<title>fortio.org/proxy&#45;&gt;fortio.org/dflag</title>
<path fill="none" stroke="black" d="M123.97,-1579.11C136.02,-1641.52 184.22,-1849.76 307.75,-1959 457.31,-2091.26 702.85,-2129.17 816.82,-2139.88"/>
<polygon fill="black" stroke="black" points="816.31,-2143.35 826.58,-2140.75 816.93,-2136.38 816.31,-2143.35"/>
<text text-anchor="middle" x="540.88" y="-2090.33" font-family="Helvetica,sans-Serif" font-size="10.00">v1.8.1</text>
</g>
<!-- fortio.org/proxy&#45;&gt;fortio.org/fortio -->
<g id="edge42" class="edge">
<title>fortio.org/proxy&#45;&gt;fortio.org/fortio</title>
<path fill="none" stroke="black" d="M173.07,-1550.48C207.95,-1541.88 253.83,-1527.42 289.75,-1505 300.44,-1498.32 350.64,-1445.51 381.55,-1412.52"/>
<polygon fill="black" stroke="black" points="384.03,-1415 388.3,-1405.31 378.91,-1410.22 384.03,-1415"/>
<text text-anchor="middle" x="273.62" y="-1522.75" font-family="Helvetica,sans-Serif" font-size="10.00">v1.69.1</text>
</g>
<!-- fortio.org/proxy&#45;&gt;fortio.org/log -->
<g id="edge43" class="edge">
<title>fortio.org/proxy&#45;&gt;fortio.org/log</title>
<path fill="none" stroke="black" d="M125.26,-1579.11C140.41,-1636.08 194.98,-1813.22 307.75,-1903 379.63,-1960.23 419.93,-1928.92 506.75,-1959 628.57,-2001.2 648.3,-2044.85 774.75,-2070 866.07,-2088.16 891.72,-2080.39 984.25,-2070 1095.79,-2057.48 1141.99,-2083.02 1230.5,-2014 1330.39,-1936.09 1351.31,-1510.36 1355.19,-1393.62"/>
<polygon fill="black" stroke="black" points="1358.68,-1394.03 1355.49,-1383.93 1351.68,-1393.81 1358.68,-1394.03"/>
<text text-anchor="middle" x="740.62" y="-2067.65" font-family="Helvetica,sans-Serif" font-size="10.00">v1.17.2</text>
</g>
<!-- fortio.org/proxy&#45;&gt;fortio.org/scli -->
<g id="edge44" class="edge">
<title>fortio.org/proxy&#45;&gt;fortio.org/scli</title>
<path fill="none" stroke="black" d="M154.22,-1542.6C192.91,-1519.55 255.64,-1476.39 289.75,-1422 307.79,-1393.23 281.06,-1368.74 307.75,-1347.75 387.81,-1284.78 515.22,-1317.28 586.68,-1343.56"/>
<polygon fill="black" stroke="black" points="585.22,-1346.75 595.82,-1347.01 587.7,-1340.21 585.22,-1346.75"/>
<text text-anchor="middle" x="407.25" y="-1349.5" font-family="Helvetica,sans-Serif" font-size="10.00">v1.16.1</text>
</g>
<!-- fortio.org/scli&#45;&gt;fortio.org/cli -->
<g id="edge45" class="edge">
<title>fortio.org/scli&#45;&gt;fortio.org/cli</title>
<path fill="none" stroke="black" d="M687.47,-1356.18C712.3,-1348.33 741.05,-1334.58 756.75,-1311 778.78,-1277.92 748.65,-983.72 774.75,-953.75 785.54,-941.36 1000.59,-905.8 1103.29,-889.43"/>
<polygon fill="black" stroke="black" points="1103.83,-892.89 1113.15,-887.87 1102.73,-885.98 1103.83,-892.89"/>
<text text-anchor="middle" x="879.5" y="-955.5" font-family="Helvetica,sans-Serif" font-size="10.00">v1.10.0</text>
</g>
<!-- fortio.org/scli&#45;&gt;fortio.org/dflag -->
<g id="edge46" class="edge">
<title>fortio.org/scli&#45;&gt;fortio.org/dflag</title>
<path fill="none" stroke="black" d="M648.42,-1384.3C660.43,-1417.42 686.33,-1489.57 706.5,-1551 730.25,-1623.33 743.39,-1639.8 756.75,-1714.75 769.49,-1786.23 745.01,-1974.76 774.75,-2041 789.07,-2072.89 818.01,-2100.27 841.69,-2118.78"/>
<polygon fill="black" stroke="black" points="839.51,-2121.51 849.59,-2124.75 843.73,-2115.93 839.51,-2121.51"/>
<text text-anchor="middle" x="740.62" y="-1716.5" font-family="Helvetica,sans-Serif" font-size="10.00">v1.8.1</text>
</g>
<!-- fortio.org/scli&#45;&gt;fortio.org/log -->
<g id="edge47" class="edge">
<title>fortio.org/scli&#45;&gt;fortio.org/log</title>
<path fill="none" stroke="black" d="M687.38,-1364.83C768.52,-1363.48 934.07,-1364.25 984.25,-1391 995.7,-1397.11 990.58,-1408.31 1002.25,-1414 1028.32,-1426.7 1038.61,-1416.49 1067.5,-1414 1149.17,-1406.98 1242.42,-1388.96 1300.25,-1376.59"/>
<polygon fill="black" stroke="black" points="1300.82,-1380.05 1309.86,-1374.52 1299.34,-1373.21 1300.82,-1380.05"/>
<text text-anchor="middle" x="1034.88" y="-1421.99" font-family="Helvetica,sans-Serif" font-size="10.00">v1.17.2</text>
</g>
<!-- fortio.org/scli&#45;&gt;fortio.org/version -->
<g id="edge48" class="edge">
<title>fortio.org/scli&#45;&gt;fortio.org/version</title>
<path fill="none" stroke="black" d="M643.2,-1347.63C649.59,-1269.68 677.13,-966.5 724.5,-885 823.68,-714.38 959.94,-768.46 1067.5,-603 1083.84,-577.87 1064.56,-559.45 1085.5,-538 1099.92,-523.23 1212.19,-492.46 1287.49,-473.1"/>
<polygon fill="black" stroke="black" points="1288.03,-476.58 1296.85,-470.7 1286.3,-469.79 1288.03,-476.58"/>
<text text-anchor="middle" x="1034.88" y="-679.01" font-family="Helvetica,sans-Serif" font-size="10.00">v1.0.4</text>
</g>
<!-- fortio.org/sets&#45;&gt;fortio.org/assert -->
<g id="edge49" class="edge">
<title>fortio.org/sets&#45;&gt;fortio.org/assert</title>
<path fill="none" stroke="black" d="M1166.29,-1958.36C1187.57,-2011.94 1248.14,-2164.41 1248.5,-2165 1271.34,-2202.89 1305.56,-2240.75 1329.22,-2264.93"/>
<polygon fill="black" stroke="black" points="1326.53,-2267.18 1336.05,-2271.81 1331.5,-2262.25 1326.53,-2267.18"/>
<text text-anchor="middle" x="1264.62" y="-2211.26" font-family="Helvetica,sans-Serif" font-size="10.00">v1.2.1</text>
</g>
<!-- fortio.org/slack&#45;proxy -->
<g id="node17" class="node">
<title>fortio.org/slack&#45;proxy</title>
<path fill="lightblue" stroke="black" d="M178.38,-2134C178.38,-2134 61.12,-2134 61.12,-2134 55.12,-2134 49.12,-2128 49.12,-2122 49.12,-2122 49.12,-2110 49.12,-2110 49.12,-2104 55.12,-2098 61.12,-2098 61.12,-2098 178.38,-2098 178.38,-2098 184.38,-2098 190.38,-2104 190.38,-2110 190.38,-2110 190.38,-2122 190.38,-2122 190.38,-2128 184.38,-2134 178.38,-2134"/>
<text text-anchor="middle" x="119.75" y="-2110.2" font-family="Helvetica,sans-Serif" font-size="14.00">fortio.org/slack&#45;proxy</text>
</g>
<!-- fortio.org/slack&#45;proxy&#45;&gt;fortio.org/assert -->
<g id="edge50" class="edge">
<title>fortio.org/slack&#45;proxy&#45;&gt;fortio.org/assert</title>
<path fill="none" stroke="black" d="M159.79,-2134.38C275.94,-2188.42 618.74,-2343 739.62,-2343 739.62,-2343 739.62,-2343 1159,-2343 1208.47,-2343 1262.68,-2327.48 1301.69,-2313.4"/>
<polygon fill="black" stroke="black" points="1302.69,-2316.76 1310.85,-2310.01 1300.26,-2310.2 1302.69,-2316.76"/>
<text text-anchor="middle" x="740.62" y="-2344.75" font-family="Helvetica,sans-Serif" font-size="10.00">v1.2.1</text>
</g>
<!-- fortio.org/slack&#45;proxy&#45;&gt;fortio.org/fortio -->
<g id="edge51" class="edge">
<title>fortio.org/slack&#45;proxy&#45;&gt;fortio.org/fortio</title>
<path fill="none" stroke="black" d="M149.87,-2097.63C177.87,-2078.26 218.9,-2045.02 239.5,-2005 241.15,-2001.79 306.19,-1492.26 307.75,-1489 322.61,-1458.02 350.33,-1430.34 372.59,-1411.5"/>
<polygon fill="black" stroke="black" points="374.76,-1414.25 380.26,-1405.19 370.32,-1408.84 374.76,-1414.25"/>
<text text-anchor="middle" x="273.62" y="-1867.68" font-family="Helvetica,sans-Serif" font-size="10.00">v1.69.1</text>
</g>
<!-- fortio.org/slack&#45;proxy&#45;&gt;fortio.org/log -->
<g id="edge52" class="edge">
<title>fortio.org/slack&#45;proxy&#45;&gt;fortio.org/log</title>
<path fill="none" stroke="black" d="M190.84,-2124.48C269.57,-2135.45 400.26,-2158.08 506.75,-2198 539.26,-2210.19 541.61,-2226.49 575,-2236 638.97,-2254.22 658,-2241.44 724.5,-2243 837.46,-2245.64 1125.24,-2234.07 1230.5,-2193 1255.62,-2183.2 1267,-2182.2 1280.75,-2159 1359.6,-2026 1358.17,-1521.22 1356.5,-1393.5"/>
<polygon fill="black" stroke="black" points="1360,-1393.81 1356.36,-1383.86 1353.01,-1393.91 1360,-1393.81"/>
<text text-anchor="middle" x="740.62" y="-2245.1" font-family="Helvetica,sans-Serif" font-size="10.00">v1.17.2</text>
</g>
<!-- fortio.org/slack&#45;proxy&#45;&gt;fortio.org/scli -->
<g id="edge53" class="edge">
<title>fortio.org/slack&#45;proxy&#45;&gt;fortio.org/scli</title>
<path fill="none" stroke="black" d="M190.48,-2124.27C225.44,-2124.28 265.4,-2117.21 289.75,-2090 321.73,-2054.26 282.98,-1699.81 307.75,-1658.75 360.6,-1571.14 430.27,-1610.97 506.75,-1543 557.17,-1498.19 600.97,-1431.63 623.52,-1394.2"/>
<polygon fill="black" stroke="black" points="626.44,-1396.15 628.54,-1385.76 620.42,-1392.57 626.44,-1396.15"/>
<text text-anchor="middle" x="407.25" y="-1660.5" font-family="Helvetica,sans-Serif" font-size="10.00">v1.16.1</text>
</g>
<!-- fortio.org/term -->
<g id="node19" class="node">
<title>fortio.org/term</title>
<path fill="steelblue" stroke="black" d="M1184.75,-475C1184.75,-475 1131.25,-475 1131.25,-475 1125.25,-475 1119.25,-469 1119.25,-463 1119.25,-463 1119.25,-451 1119.25,-451 1119.25,-445 1125.25,-439 1131.25,-439 1131.25,-439 1184.75,-439 1184.75,-439 1190.75,-439 1196.75,-445 1196.75,-451 1196.75,-451 1196.75,-463 1196.75,-463 1196.75,-469 1190.75,-475 1184.75,-475"/>
<text text-anchor="middle" x="1158" y="-451.2" font-family="Helvetica,sans-Serif" font-size="14.00">fortio/term</text>
</g>
<!-- fortio.org/terminal -->
<g id="node20" class="node">
<title>fortio.org/terminal</title>
<path fill="lightblue" stroke="black" d="M928.38,-477C928.38,-477 830.62,-477 830.62,-477 824.62,-477 818.62,-471 818.62,-465 818.62,-465 818.62,-453 818.62,-453 818.62,-447 824.62,-441 830.62,-441 830.62,-441 928.38,-441 928.38,-441 934.38,-441 940.38,-447 940.38,-453 940.38,-453 940.38,-465 940.38,-465 940.38,-471 934.38,-477 928.38,-477"/>
<text text-anchor="middle" x="879.5" y="-453.2" font-family="Helvetica,sans-Serif" font-size="14.00">fortio.org/terminal</text>
</g>
<!-- fortio.org/terminal&#45;&gt;fortio.org/cli -->
<g id="edge54" class="edge">
<title>fortio.org/terminal&#45;&gt;fortio.org/cli</title>
<path fill="none" stroke="black" d="M940.72,-476.05C993.63,-491.28 1062.93,-511.9 1067.5,-516.75 1070.45,-519.88 1129.38,-765.46 1149.97,-851.57"/>
<polygon fill="black" stroke="black" points="1146.53,-852.24 1152.26,-861.15 1153.34,-850.61 1146.53,-852.24"/>
<text text-anchor="middle" x="1034.88" y="-518.5" font-family="Helvetica,sans-Serif" font-size="10.00">v1.10.0</text>
</g>
<!-- fortio.org/terminal&#45;&gt;fortio.org/log -->
<g id="edge55" class="edge">
<title>fortio.org/terminal&#45;&gt;fortio.org/log</title>
<path fill="none" stroke="black" d="M940.84,-461.85C1032.84,-469.85 1205.4,-500.12 1280.75,-614 1321.15,-675.06 1348.42,-1202.47 1354.64,-1334.25"/>
<polygon fill="black" stroke="black" points="1351.15,-1334.4 1355.11,-1344.23 1358.14,-1334.08 1351.15,-1334.4"/>
<text text-anchor="middle" x="1158" y="-560.42" font-family="Helvetica,sans-Serif" font-size="10.00">v1.17.2</text>
</g>
<!-- fortio.org/terminal&#45;&gt;fortio.org/safecast -->
<g id="edge56" class="edge">
<title>fortio.org/terminal&#45;&gt;fortio.org/safecast</title>
<path fill="none" stroke="black" d="M940.46,-449.74C979.24,-441.61 1029.4,-426.87 1067.5,-401 1099.36,-379.37 1125.55,-343.04 1141.19,-317.86"/>
<polygon fill="black" stroke="black" points="1144.1,-319.82 1146.27,-309.45 1138.1,-316.21 1144.1,-319.82"/>
<text text-anchor="middle" x="1034.88" y="-433.35" font-family="Helvetica,sans-Serif" font-size="10.00">v1.0.0</text>
</g>
<!-- fortio.org/terminal&#45;&gt;fortio.org/term -->
<g id="edge57" class="edge">
<title>fortio.org/terminal&#45;&gt;fortio.org/term</title>
<path fill="none" stroke="black" d="M940.57,-458.32C960.23,-458.11 982.17,-457.9 1002.25,-457.75 1037.51,-457.48 1077.28,-457.29 1107.68,-457.17"/>
<polygon fill="black" stroke="black" points="1107.34,-460.67 1117.33,-457.13 1107.32,-453.67 1107.34,-460.67"/>
<text text-anchor="middle" x="1034.88" y="-459.5" font-family="Helvetica,sans-Serif" font-size="10.00">v0.29.0&#45;fortio&#45;1</text>
</g>
<!-- fortio.org/terminal/fps -->
<g id="node21" class="node">
<title>fortio.org/terminal/fps</title>
<path fill="lightblue" stroke="black" d="M179.5,-235C179.5,-235 60,-235 60,-235 54,-235 48,-229 48,-223 48,-223 48,-211 48,-211 48,-205 54,-199 60,-199 60,-199 179.5,-199 179.5,-199 185.5,-199 191.5,-205 191.5,-211 191.5,-211 191.5,-223 191.5,-223 191.5,-229 185.5,-235 179.5,-235"/>
<text text-anchor="middle" x="119.75" y="-211.2" font-family="Helvetica,sans-Serif" font-size="14.00">fortio.org/terminal/fps</text>
</g>
<!-- fortio.org/terminal/fps&#45;&gt;fortio.org/cli -->
<g id="edge58" class="edge">
<title>fortio.org/terminal/fps&#45;&gt;fortio.org/cli</title>
<path fill="none" stroke="black" d="M124.32,-235.39C136.91,-294.82 185.35,-482.38 307.75,-561 450.05,-652.4 933.44,-502.88 1067.5,-606 1144.97,-665.59 1156.37,-793.55 1157.39,-851.46"/>
<polygon fill="black" stroke="black" points="1153.89,-851.21 1157.46,-861.19 1160.89,-851.16 1153.89,-851.21"/>
<text text-anchor="middle" x="640.75" y="-589.88" font-family="Helvetica,sans-Serif" font-size="10.00">v1.10.0</text>
</g>
<!-- fortio.org/terminal/fps&#45;&gt;fortio.org/fortio -->
<g id="edge59" class="edge">
<title>fortio.org/terminal/fps&#45;&gt;fortio.org/fortio</title>
<path fill="none" stroke="black" d="M125.51,-235.29C142.02,-298.97 198.1,-516.88 239.5,-698 263.67,-803.71 276.2,-829.16 289.75,-936.75 295.55,-982.79 279.67,-1317.06 307.75,-1354 316.77,-1365.86 330.27,-1373.4 344.41,-1378.17"/>
<polygon fill="black" stroke="black" points="343.25,-1381.47 353.82,-1380.88 345.18,-1374.75 343.25,-1381.47"/>
<text text-anchor="middle" x="273.62" y="-938.5" font-family="Helvetica,sans-Serif" font-size="10.00">v1.69.1</text>
</g>
<!-- fortio.org/terminal/fps&#45;&gt;fortio.org/log -->
<g id="edge60" class="edge">
<title>fortio.org/terminal/fps&#45;&gt;fortio.org/log</title>
<path fill="none" stroke="black" d="M144.81,-198.54C178.91,-173.55 244.26,-129.9 307.75,-111 451.86,-68.11 837.93,-63.38 984.25,-98 1100.2,-125.43 1142.22,-123.98 1230.5,-204 1264.73,-235.03 1267.65,-250.69 1280.75,-295 1288.34,-320.67 1343.14,-1164.84 1354.1,-1334.48"/>
<polygon fill="black" stroke="black" points="1350.6,-1334.66 1354.74,-1344.42 1357.59,-1334.21 1350.6,-1334.66"/>
<text text-anchor="middle" x="740.62" y="-77.57" font-family="Helvetica,sans-Serif" font-size="10.00">v1.17.2</text>
</g>
<!-- fortio.org/terminal/fps&#45;&gt;fortio.org/safecast -->
<g id="edge61" class="edge">
<title>fortio.org/terminal/fps&#45;&gt;fortio.org/safecast</title>
<path fill="none" stroke="black" d="M170.42,-198.58C305.86,-151.31 691.09,-36.71 984.25,-144 1048.91,-167.66 1106.03,-227.4 1135.61,-262.69"/>
<polygon fill="black" stroke="black" points="1132.85,-264.85 1141.91,-270.36 1138.26,-260.41 1132.85,-264.85"/>
<text text-anchor="middle" x="640.75" y="-107.93" font-family="Helvetica,sans-Serif" font-size="10.00">v1.0.0</text>
</g>
<!-- fortio.org/terminal/fps&#45;&gt;fortio.org/terminal -->
<g id="edge62" class="edge">
<title>fortio.org/terminal/fps&#45;&gt;fortio.org/terminal</title>
<path fill="none" stroke="black" d="M191.66,-207.17C304.29,-194.34 529.41,-180.08 706.5,-241 732.48,-249.94 742.11,-253.75 756.75,-277 781.28,-315.96 750.91,-339.62 774.75,-379 788.73,-402.1 812.05,-420.97 833.05,-434.58"/>
<polygon fill="black" stroke="black" points="831.17,-437.54 841.51,-439.84 834.87,-431.59 831.17,-437.54"/>
<text text-anchor="middle" x="540.88" y="-207.71" font-family="Helvetica,sans-Serif" font-size="10.00">v0.29.1</text>
</g>
<!-- github.com/bwmarrin/discordgo -->
<g id="node24" class="node">
<title>github.com/bwmarrin/discordgo</title>
<path fill="coral" stroke="black" d="M694.5,-328C694.5,-328 587,-328 587,-328 581,-328 575,-322 575,-316 575,-316 575,-304 575,-304 575,-298 581,-292 587,-292 587,-292 694.5,-292 694.5,-292 700.5,-292 706.5,-298 706.5,-304 706.5,-304 706.5,-316 706.5,-316 706.5,-322 700.5,-328 694.5,-328"/>
<text text-anchor="middle" x="640.75" y="-304.2" font-family="Helvetica,sans-Serif" font-size="14.00">ldemailly/discordgo</text>
</g>
<!-- github.com/fortio/delta -->
<g id="node25" class="node">
<title>github.com/fortio/delta</title>
<path fill="lightblue" stroke="black" d="M942.25,-1436C942.25,-1436 816.75,-1436 816.75,-1436 810.75,-1436 804.75,-1430 804.75,-1424 804.75,-1424 804.75,-1412 804.75,-1412 804.75,-1406 810.75,-1400 816.75,-1400 816.75,-1400 942.25,-1400 942.25,-1400 948.25,-1400 954.25,-1406 954.25,-1412 954.25,-1412 954.25,-1424 954.25,-1424 954.25,-1430 948.25,-1436 942.25,-1436"/>
<text text-anchor="middle" x="879.5" y="-1412.2" font-family="Helvetica,sans-Serif" font-size="14.00">github.com/fortio/delta</text>
</g>
<!-- github.com/fortio/delta&#45;&gt;fortio.org/cli -->
<g id="edge63" class="edge">
<title>github.com/fortio/delta&#45;&gt;fortio.org/cli</title>
<path fill="none" stroke="black" d="M923.1,-1399.55C975.57,-1376.41 1058.85,-1338.19 1067.5,-1325 1109.97,-1260.25 1059.24,-1049.85 1085.5,-977 1095.01,-950.62 1114.35,-925.38 1130.53,-907.41"/>
<polygon fill="black" stroke="black" points="1132.88,-910.01 1137.12,-900.3 1127.75,-905.25 1132.88,-910.01"/>
<text text-anchor="middle" x="1034.88" y="-1362.81" font-family="Helvetica,sans-Serif" font-size="10.00">v1.10.0</text>
</g>
<!-- github.com/fortio/delta&#45;&gt;fortio.org/log -->
<g id="edge64" class="edge">
<title>github.com/fortio/delta&#45;&gt;fortio.org/log</title>
<path fill="none" stroke="black" d="M942.84,-1436.43C961.75,-1441.18 982.69,-1445.63 1002.25,-1448 1084.38,-1457.97 1266.04,-1436.26 1280.75,-1430 1301.2,-1421.3 1320,-1404.82 1333.69,-1390.51"/>
<polygon fill="black" stroke="black" points="1335.93,-1393.25 1340.12,-1383.52 1330.77,-1388.51 1335.93,-1393.25"/>
<text text-anchor="middle" x="1158" y="-1451.73" font-family="Helvetica,sans-Serif" font-size="10.00">v1.17.2</text>
</g>
<!-- github.com/fortio/delta&#45;&gt;fortio.org/sets -->
<g id="edge65" class="edge">
<title>github.com/fortio/delta&#45;&gt;fortio.org/sets</title>
<path fill="none" stroke="black" d="M954.71,-1429.96C965.84,-1434.63 976.26,-1441.09 984.25,-1450 1012.37,-1481.33 988.01,-1503.38 1002.25,-1543 1022.75,-1600.04 1043.59,-1607.06 1067.5,-1662.75 1105.18,-1750.49 1135.96,-1859.61 1149.52,-1910.85"/>
<polygon fill="black" stroke="black" points="1146.07,-1911.48 1151.99,-1920.27 1152.84,-1909.71 1146.07,-1911.48"/>
<text text-anchor="middle" x="1034.88" y="-1664.5" font-family="Helvetica,sans-Serif" font-size="10.00">v1.2.0</text>
</g>
<!-- github.com/fortio/delta&#45;&gt;fortio.org/testscript -->
<g id="edge66" class="edge">
<title>github.com/fortio/delta&#45;&gt;fortio.org/testscript</title>
<path fill="none" stroke="black" d="M954.66,-1431.09C965.6,-1435.64 975.96,-1441.76 984.25,-1450 1003.1,-1468.72 983.42,-1488.26 1002.25,-1507 1005.81,-1510.54 1053.51,-1525.06 1095.02,-1537.21"/>
<polygon fill="black" stroke="black" points="1093.94,-1540.54 1104.52,-1539.97 1095.9,-1533.82 1093.94,-1540.54"/>
<text text-anchor="middle" x="1034.88" y="-1529.73" font-family="Helvetica,sans-Serif" font-size="10.00">v0.3.2</text>
</g>
<!-- github.com/fortio/h2cli -->
<g id="node26" class="node">
<title>github.com/fortio/h2cli</title>
<path fill="lightblue" stroke="black" d="M941.5,-1151C941.5,-1151 817.5,-1151 817.5,-1151 811.5,-1151 805.5,-1145 805.5,-1139 805.5,-1139 805.5,-1127 805.5,-1127 805.5,-1121 811.5,-1115 817.5,-1115 817.5,-1115 941.5,-1115 941.5,-1115 947.5,-1115 953.5,-1121 953.5,-1127 953.5,-1127 953.5,-1139 953.5,-1139 953.5,-1145 947.5,-1151 941.5,-1151"/>
<text text-anchor="middle" x="879.5" y="-1127.2" font-family="Helvetica,sans-Serif" font-size="14.00">github.com/fortio/h2cli</text>
</g>
<!-- github.com/fortio/h2cli&#45;&gt;fortio.org/cli -->
<g id="edge67" class="edge">
<title>github.com/fortio/h2cli&#45;&gt;fortio.org/cli</title>
<path fill="none" stroke="black" d="M953.98,-1120.39C964.63,-1116.74 975.08,-1112.05 984.25,-1106 995.16,-1098.8 993.88,-1092.79 1002.25,-1082.75 1030.06,-1049.39 1042.43,-1045.47 1067.5,-1010 1077.14,-996.36 1076.49,-991.07 1085.5,-977 1100.94,-952.9 1120.46,-926.94 1135.2,-908.11"/>
<polygon fill="black" stroke="black" points="1137.84,-910.42 1141.29,-900.4 1132.34,-906.08 1137.84,-910.42"/>
<text text-anchor="middle" x="1034.88" y="-1084.5" font-family="Helvetica,sans-Serif" font-size="10.00">v1.10.0</text>
</g>
<!-- github.com/fortio/h2cli&#45;&gt;fortio.org/log -->
<g id="edge68" class="edge">
<title>github.com/fortio/h2cli&#45;&gt;fortio.org/log</title>
<path fill="none" stroke="black" d="M953.78,-1118.04C1027.43,-1106.69 1142.37,-1099.28 1230.5,-1140.75 1307.01,-1176.75 1339.11,-1282.48 1350.55,-1334.46"/>
<polygon fill="black" stroke="black" points="1347.09,-1335.01 1352.55,-1344.09 1353.95,-1333.58 1347.09,-1335.01"/>
<text text-anchor="middle" x="1158" y="-1142.5" font-family="Helvetica,sans-Serif" font-size="10.00">v1.17.2</text>
</g>
<!-- github.com/fortio/h2demo -->
<g id="node27" class="node">
<title>github.com/fortio/h2demo</title>
<path fill="lightblue" stroke="black" d="M192.62,-2330C192.62,-2330 46.87,-2330 46.87,-2330 40.88,-2330 34.88,-2324 34.88,-2318 34.88,-2318 34.88,-2306 34.88,-2306 34.88,-2300 40.88,-2294 46.88,-2294 46.88,-2294 192.62,-2294 192.62,-2294 198.62,-2294 204.62,-2300 204.62,-2306 204.62,-2306 204.62,-2318 204.62,-2318 204.62,-2324 198.62,-2330 192.62,-2330"/>
<text text-anchor="middle" x="119.75" y="-2306.2" font-family="Helvetica,sans-Serif" font-size="14.00">github.com/fortio/h2demo</text>
</g>
<!-- github.com/fortio/logger&#45;bench -->
<g id="node28" class="node">
<title>github.com/fortio/logger&#45;bench</title>
<path fill="lightblue" stroke="black" d="M494.75,-1782C494.75,-1782 319.75,-1782 319.75,-1782 313.75,-1782 307.75,-1776 307.75,-1770 307.75,-1770 307.75,-1758 307.75,-1758 307.75,-1752 313.75,-1746 319.75,-1746 319.75,-1746 494.75,-1746 494.75,-1746 500.75,-1746 506.75,-1752 506.75,-1758 506.75,-1758 506.75,-1770 506.75,-1770 506.75,-1776 500.75,-1782 494.75,-1782"/>
<text text-anchor="middle" x="407.25" y="-1758.2" font-family="Helvetica,sans-Serif" font-size="14.00">github.com/fortio/logger&#45;bench</text>
</g>
<!-- github.com/fortio/logger&#45;bench&#45;&gt;fortio.org/cli -->
<g id="edge69" class="edge">
<title>github.com/fortio/logger&#45;bench&#45;&gt;fortio.org/cli</title>
<path fill="none" stroke="black" d="M499.66,-1745.62C502.11,-1744.19 504.48,-1742.66 506.75,-1741 519.32,-1731.84 514.21,-1722.43 524.75,-1711 590.86,-1639.29 654.36,-1670.43 706.5,-1588 736.8,-1540.1 698.14,-1511.93 724.5,-1461.75 733.57,-1444.49 748.56,-1449.7 756.75,-1432 777.03,-1388.2 742.64,-1034.03 774.75,-998 837.47,-927.64 901.4,-1009.95 984.25,-965 994.76,-959.3 992.48,-951.9 1002.25,-945 1011.18,-938.69 1063.03,-917.7 1104.29,-901.46"/>
<polygon fill="black" stroke="black" points="1105.35,-904.81 1113.38,-897.9 1102.79,-898.29 1105.35,-904.81"/>
<text text-anchor="middle" x="740.62" y="-1463.5" font-family="Helvetica,sans-Serif" font-size="10.00">v1.10.0</text>
</g>
<!-- github.com/fortio/logger&#45;bench&#45;&gt;fortio.org/log -->
<g id="edge70" class="edge">
<title>github.com/fortio/logger&#45;bench&#45;&gt;fortio.org/log</title>
<path fill="none" stroke="black" d="M507.01,-1780.85C638.07,-1799.45 875.33,-1819.94 1067.5,-1764 1176.59,-1732.25 1221.8,-1720.13 1280.75,-1623 1326.31,-1547.93 1345.5,-1443.86 1352.51,-1393.56"/>
<polygon fill="black" stroke="black" points="1355.96,-1394.13 1353.8,-1383.76 1349.02,-1393.21 1355.96,-1394.13"/>
<text text-anchor="middle" x="879.5" y="-1802.14" font-family="Helvetica,sans-Serif" font-size="10.00">v1.17.2</text>
</g>
<!-- github.com/fortio/logger&#45;bench&#45;&gt;fortio.org/scli -->
<g id="edge71" class="edge">
<title>github.com/fortio/logger&#45;bench&#45;&gt;fortio.org/scli</title>
<path fill="none" stroke="black" d="M452.51,-1745.68C471.09,-1736.28 491.82,-1723.33 506.75,-1707 511.22,-1702.12 554.49,-1605.12 557,-1599 564.98,-1579.49 609.42,-1452.77 629.68,-1394.83"/>
<polygon fill="black" stroke="black" points="632.9,-1396.23 632.89,-1385.64 626.29,-1393.92 632.9,-1396.23"/>
<text text-anchor="middle" x="540.88" y="-1670.39" font-family="Helvetica,sans-Serif" font-size="10.00">v1.16.1</text>
</g>
<!-- github.com/fortio/logger&#45;bench&#45;&gt;fortio.org/sets -->
<g id="edge72" class="edge">
<title>github.com/fortio/logger&#45;bench&#45;&gt;fortio.org/sets</title>
<path fill="none" stroke="black" d="M452.53,-1782.48C520.59,-1810.13 655.54,-1862.01 774.75,-1890 887.23,-1916.41 1021.84,-1929.94 1097.58,-1935.95"/>
<polygon fill="black" stroke="black" points="1097.02,-1939.42 1107.26,-1936.7 1097.56,-1932.44 1097.02,-1939.42"/>
<text text-anchor="middle" x="740.62" y="-1887.01" font-family="Helvetica,sans-Serif" font-size="10.00">v1.3.0</text>
</g>
<!-- go.uber.org/zap -->
<g id="node42" class="node">
<title>go.uber.org/zap</title>
<path fill="coral" stroke="black" d="M676.12,-1762C676.12,-1762 605.38,-1762 605.38,-1762 599.38,-1762 593.38,-1756 593.38,-1750 593.38,-1750 593.38,-1738 593.38,-1738 593.38,-1732 599.38,-1726 605.38,-1726 605.38,-1726 676.12,-1726 676.12,-1726 682.12,-1726 688.12,-1732 688.12,-1738 688.12,-1738 688.12,-1750 688.12,-1750 688.12,-1756 682.12,-1762 676.12,-1762"/>
<text text-anchor="middle" x="640.75" y="-1738.2" font-family="Helvetica,sans-Serif" font-size="14.00">ldemailly/zap</text>
</g>
<!-- github.com/fortio/logger&#45;bench&#45;&gt;go.uber.org/zap -->
<g id="edge73" class="edge">
<title>github.com/fortio/logger&#45;bench&#45;&gt;go.uber.org/zap</title>
<path fill="none" stroke="black" d="M507.1,-1755.46C532.53,-1753.26 559.07,-1750.97 581.67,-1749.02"/>
<polygon fill="black" stroke="black" points="581.94,-1752.51 591.6,-1748.16 581.33,-1745.53 581.94,-1752.51"/>
<text text-anchor="middle" x="540.88" y="-1755.15" font-family="Helvetica,sans-Serif" font-size="10.00">v1.27.0</text>
</g>
<!-- github.com/fortio/semtest/v2 -->
<g id="node29" class="node">
<title>github.com/fortio/semtest/v2</title>
<path fill="lightblue" stroke="black" d="M200.88,-860C200.88,-860 38.62,-860 38.62,-860 32.62,-860 26.62,-854 26.62,-848 26.62,-848 26.62,-836 26.62,-836 26.62,-830 32.62,-824 38.62,-824 38.62,-824 200.88,-824 200.88,-824 206.88,-824 212.88,-830 212.88,-836 212.88,-836 212.88,-848 212.88,-848 212.88,-854 206.88,-860 200.88,-860"/>
<text text-anchor="middle" x="119.75" y="-836.2" font-family="Helvetica,sans-Serif" font-size="14.00">github.com/fortio/semtest/v2</text>
</g>
<!-- github.com/fortio/semtest/v2&#45;&gt;fortio.org/fortio -->
<g id="edge74" class="edge">
<title>github.com/fortio/semtest/v2&#45;&gt;fortio.org/fortio</title>
<path fill="none" stroke="black" d="M121.88,-860.45C127.36,-933.98 157.57,-1209.14 307.75,-1354 317.91,-1363.8 331.1,-1370.6 344.51,-1375.32"/>
<polygon fill="black" stroke="black" points="343.23,-1378.58 353.82,-1378.22 345.31,-1371.9 343.23,-1378.58"/>
<text text-anchor="middle" x="273.62" y="-1334.76" font-family="Helvetica,sans-Serif" font-size="10.00">v1.35.0</text>
</g>
<!-- github.com/fortio/workflows -->
<g id="node30" class="node">
<title>github.com/fortio/workflows</title>
<path fill="lightblue" stroke="black" d="M485,-1850C485,-1850 329.5,-1850 329.5,-1850 323.5,-1850 317.5,-1844 317.5,-1838 317.5,-1838 317.5,-1826 317.5,-1826 317.5,-1820 323.5,-1814 329.5,-1814 329.5,-1814 485,-1814 485,-1814 491,-1814 497,-1820 497,-1826 497,-1826 497,-1838 497,-1838 497,-1844 491,-1850 485,-1850"/>
<text text-anchor="middle" x="407.25" y="-1826.2" font-family="Helvetica,sans-Serif" font-size="14.00">github.com/fortio/workflows</text>
</g>
<!-- github.com/fortio/workflows&#45;&gt;fortio.org/log -->
<g id="edge75" class="edge">
<title>github.com/fortio/workflows&#45;&gt;fortio.org/log</title>
<path fill="none" stroke="black" d="M497.23,-1848.98C660.69,-1874.84 1012.04,-1904.98 1230.5,-1738 1341.35,-1653.27 1355.25,-1466.56 1356.31,-1393.83"/>
<polygon fill="black" stroke="black" points="1359.8,-1393.93 1356.37,-1383.9 1352.8,-1393.88 1359.8,-1393.93"/>
<text text-anchor="middle" x="879.5" y="-1870.7" font-family="Helvetica,sans-Serif" font-size="10.00">v1.17.2</text>
</g>
<!-- github.com/fortio/workflows&#45;&gt;fortio.org/scli -->
<g id="edge76" class="edge">
<title>github.com/fortio/workflows&#45;&gt;fortio.org/scli</title>
<path fill="none" stroke="black" d="M474.71,-1813.57C486.56,-1807.87 497.93,-1800.5 506.75,-1791 524.04,-1772.38 514.05,-1759.79 524.75,-1736.75 536.32,-1711.83 547.79,-1709.89 557,-1684 576.98,-1627.8 561.08,-1609 575,-1551 588.64,-1494.18 613.12,-1430.34 627.76,-1394.47"/>
<polygon fill="black" stroke="black" points="630.81,-1396.25 631.38,-1385.67 624.33,-1393.58 630.81,-1396.25"/>
<text text-anchor="middle" x="540.88" y="-1738.5" font-family="Helvetica,sans-Serif" font-size="10.00">v1.16.0</text>
</g>
<!-- github.com/ldemailly/advent24 -->
<g id="node31" class="node">
<title>github.com/ldemailly/advent24</title>
<path fill="lightsalmon" stroke="black" d="M967,-2032C967,-2032 792,-2032 792,-2032 786,-2032 780,-2026 780,-2020 780,-2020 780,-2008 780,-2008 780,-2002 786,-1996 792,-1996 792,-1996 967,-1996 967,-1996 973,-1996 979,-2002 979,-2008 979,-2008 979,-2020 979,-2020 979,-2026 973,-2032 967,-2032"/>
<text text-anchor="middle" x="879.5" y="-2008.2" font-family="Helvetica,sans-Serif" font-size="14.00">github.com/ldemailly/advent24</text>
</g>
<!-- github.com/ldemailly/advent24&#45;&gt;fortio.org/sets -->
<g id="edge77" class="edge">
<title>github.com/ldemailly/advent24&#45;&gt;fortio.org/sets</title>
<path fill="none" stroke="black" d="M954.36,-1995.61C988.81,-1986.89 1030.32,-1976.17 1067.5,-1966 1077.36,-1963.3 1087.8,-1960.36 1097.93,-1957.44"/>
<polygon fill="black" stroke="black" points="1098.68,-1960.87 1107.32,-1954.73 1096.74,-1954.15 1098.68,-1960.87"/>
<text text-anchor="middle" x="1034.88" y="-1984.13" font-family="Helvetica,sans-Serif" font-size="10.00">v1.2.0</text>
</g>
<!-- github.com/ldemailly/depgraph -->
<g id="node32" class="node">
<title>github.com/ldemailly/depgraph</title>
<path fill="lightsalmon" stroke="black" d="M967.75,-1043C967.75,-1043 791.25,-1043 791.25,-1043 785.25,-1043 779.25,-1037 779.25,-1031 779.25,-1031 779.25,-1019 779.25,-1019 779.25,-1013 785.25,-1007 791.25,-1007 791.25,-1007 967.75,-1007 967.75,-1007 973.75,-1007 979.75,-1013 979.75,-1019 979.75,-1019 979.75,-1031 979.75,-1031 979.75,-1037 973.75,-1043 967.75,-1043"/>
<text text-anchor="middle" x="879.5" y="-1019.2" font-family="Helvetica,sans-Serif" font-size="14.00">github.com/ldemailly/depgraph</text>
</g>
<!-- github.com/ldemailly/depgraph&#45;&gt;fortio.org/cli -->
<g id="edge78" class="edge">
<title>github.com/ldemailly/depgraph&#45;&gt;fortio.org/cli</title>
<path fill="none" stroke="black" d="M960.95,-1006.58C969.25,-1002.85 977.2,-998.37 984.25,-993 996.09,-983.97 990.58,-973.99 1002.25,-964.75 1026.33,-945.69 1040.07,-955.82 1067.5,-942 1087.43,-931.95 1108.12,-918.11 1124.58,-906.15"/>
<polygon fill="black" stroke="black" points="1126.57,-909.03 1132.53,-900.27 1122.41,-903.4 1126.57,-909.03"/>
<text text-anchor="middle" x="1034.88" y="-966.5" font-family="Helvetica,sans-Serif" font-size="10.00">v1.10.0</text>
</g>
<!-- github.com/ldemailly/depgraph&#45;&gt;fortio.org/log -->
<g id="edge79" class="edge">
<title>github.com/ldemailly/depgraph&#45;&gt;fortio.org/log</title>
<path fill="none" stroke="black" d="M980.02,-1041.81C987.53,-1042.69 995,-1043.44 1002.25,-1044 1031.16,-1046.24 1040.75,-1055.19 1067.5,-1044 1078.01,-1039.6 1074.99,-1030.15 1085.5,-1025.75 1144.95,-1000.88 1170.08,-1003.33 1230.5,-1025.75 1258.13,-1036 1265.22,-1043.96 1280.75,-1069 1334.33,-1155.43 1349.88,-1278.56 1354.29,-1334.41"/>
<polygon fill="black" stroke="black" points="1350.78,-1334.35 1354.99,-1344.07 1357.76,-1333.85 1350.78,-1334.35"/>
<text text-anchor="middle" x="1158" y="-1027.5" font-family="Helvetica,sans-Serif" font-size="10.00">v1.17.2</text>
</g>
<!-- github.com/ldemailly/go&#45;scratch -->
<g id="node33" class="node">
<title>github.com/ldemailly/go&#45;scratch</title>
<path fill="lightsalmon" stroke="black" d="M211,-743C211,-743 28.5,-743 28.5,-743 22.5,-743 16.5,-737 16.5,-731 16.5,-731 16.5,-719 16.5,-719 16.5,-713 22.5,-707 28.5,-707 28.5,-707 211,-707 211,-707 217,-707 223,-713 223,-719 223,-719 223,-731 223,-731 223,-737 217,-743 211,-743"/>
<text text-anchor="middle" x="119.75" y="-719.2" font-family="Helvetica,sans-Serif" font-size="14.00">github.com/ldemailly/go&#45;scratch</text>
</g>
<!-- github.com/ldemailly/go&#45;scratch&#45;&gt;fortio.org/cli -->
<g id="edge80" class="edge">
<title>github.com/ldemailly/go&#45;scratch&#45;&gt;fortio.org/cli</title>
<path fill="none" stroke="black" d="M176.12,-706.57C233.13,-689.26 324.89,-666 406.25,-666 406.25,-666 406.25,-666 880.5,-666 963.84,-666 999.35,-632.03 1067.5,-680 1124.85,-720.37 1145.97,-806.21 1153.33,-851.54"/>
<polygon fill="black" stroke="black" points="1149.83,-851.8 1154.77,-861.17 1156.76,-850.76 1149.83,-851.8"/>
<text text-anchor="middle" x="640.75" y="-667.75" font-family="Helvetica,sans-Serif" font-size="10.00">v1.4.2</text>
</g>
<!-- github.com/ldemailly/go&#45;scratch&#45;&gt;fortio.org/fortio -->
<g id="edge81" class="edge">
<title>github.com/ldemailly/go&#45;scratch&#45;&gt;fortio.org/fortio</title>
<path fill="none" stroke="black" d="M158.92,-743.41C186.1,-758.64 220.99,-782.97 239.5,-815 254.61,-841.13 288.51,-1330.75 307.75,-1354 317.16,-1365.37 330.66,-1372.74 344.66,-1377.5"/>
<polygon fill="black" stroke="black" points="343.37,-1380.77 353.96,-1380.23 345.35,-1374.06 343.37,-1380.77"/>
<text text-anchor="middle" x="273.62" y="-1246.94" font-family="Helvetica,sans-Serif" font-size="10.00">v1.60.3</text>
</g>
<!-- github.com/ldemailly/go&#45;scratch&#45;&gt;fortio.org/log -->
<g id="edge82" class="edge">
<title>github.com/ldemailly/go&#45;scratch&#45;&gt;fortio.org/log</title>
<path fill="none" stroke="black" d="M160.69,-743.39C188.2,-758.41 222.71,-782.47 239.5,-815 269.53,-873.18 214.72,-1354.43 257.5,-1404 283.64,-1434.29 296.14,-1423.52 506.75,-1413 595.86,-1408.55 626.58,-1432.66 706.5,-1393 735.87,-1378.43 738.62,-1366.31 756.75,-1339 767.53,-1322.76 758.66,-1310 774.75,-1299 888.91,-1220.95 947.25,-1286.56 1085.5,-1283 1149.92,-1281.34 1168.68,-1264.78 1230.5,-1283 1267.11,-1293.79 1303.11,-1318.95 1327.1,-1338.39"/>
<polygon fill="black" stroke="black" points="1324.59,-1340.85 1334.52,-1344.55 1329.06,-1335.47 1324.59,-1340.85"/>
<text text-anchor="middle" x="740.62" y="-1383.7" font-family="Helvetica,sans-Serif" font-size="10.00">v1.11.0</text>
</g>
<!-- github.com/ldemailly/go&#45;scratch&#45;&gt;fortio.org/scli -->
<g id="edge83" class="edge">
<title>github.com/ldemailly/go&#45;scratch&#45;&gt;fortio.org/scli</title>
<path fill="none" stroke="black" d="M154.62,-743.49C180.96,-759.39 216.74,-784.54 239.5,-815 277.33,-865.62 276.64,-886.19 289.75,-948 297.07,-982.51 284.04,-1238.88 307.75,-1265 337.83,-1298.13 464.13,-1282.12 506.75,-1295.75 530.56,-1303.36 534.85,-1309.42 557,-1321 569.92,-1327.76 583.88,-1335.27 596.59,-1342.18"/>
<polygon fill="black" stroke="black" points="594.68,-1345.13 605.14,-1346.85 598.04,-1338.99 594.68,-1345.13"/>
<text text-anchor="middle" x="407.25" y="-1297.5" font-family="Helvetica,sans-Serif" font-size="10.00">v1.12.0</text>
</g>
<!-- golang.org/x/term -->
<g id="node43" class="node">
<title>golang.org/x/term</title>
<path fill="coral" stroke="black" d="M445.62,-498C445.62,-498 368.88,-498 368.88,-498 362.88,-498 356.88,-492 356.88,-486 356.88,-486 356.88,-474 356.88,-474 356.88,-468 362.88,-462 368.88,-462 368.88,-462 445.62,-462 445.62,-462 451.62,-462 457.62,-468 457.62,-474 457.62,-474 457.62,-486 457.62,-486 457.62,-492 451.62,-498 445.62,-498"/>
<text text-anchor="middle" x="407.25" y="-474.2" font-family="Helvetica,sans-Serif" font-size="14.00">ldemailly/term</text>
</g>
<!-- github.com/ldemailly/go&#45;scratch&#45;&gt;golang.org/x/term -->
<g id="edge84" class="edge">
<title>github.com/ldemailly/go&#45;scratch&#45;&gt;golang.org/x/term</title>
<path fill="none" stroke="black" d="M131.21,-706.56C156.09,-664.44 223.08,-560.63 307.75,-507 319.16,-499.77 332.5,-494.46 345.61,-490.55"/>
<polygon fill="black" stroke="black" points="346.33,-493.98 355.06,-487.99 344.5,-487.23 346.33,-493.98"/>
<text text-anchor="middle" x="273.62" y="-546.84" font-family="Helvetica,sans-Serif" font-size="10.00">v0.18.0</text>
</g>
<!-- github.com/ldemailly/gohook_sample -->
<g id="node34" class="node">
<title>github.com/ldemailly/gohook_sample</title>
<path fill="lightsalmon" stroke="black" d="M227.5,-109C227.5,-109 12,-109 12,-109 6,-109 0,-103 0,-97 0,-97 0,-85 0,-85 0,-79 6,-73 12,-73 12,-73 227.5,-73 227.5,-73 233.5,-73 239.5,-79 239.5,-85 239.5,-85 239.5,-97 239.5,-97 239.5,-103 233.5,-109 227.5,-109"/>
<text text-anchor="middle" x="119.75" y="-85.2" font-family="Helvetica,sans-Serif" font-size="14.00">github.com/ldemailly/gohook_sample</text>
</g>
<!-- github.com/ldemailly/gohook_sample&#45;&gt;fortio.org/fortio -->
<g id="edge85" class="edge">
<title>github.com/ldemailly/gohook_sample&#45;&gt;fortio.org/fortio</title>
<path fill="none" stroke="black" d="M156.01,-109.5C184.11,-126.35 221.61,-154.08 239.5,-190 257.86,-226.84 253.23,-519.06 257.5,-560 266.88,-649.88 281.2,-670.79 289.75,-760.75 292.87,-793.58 287.97,-1327.62 307.75,-1354 316.73,-1365.98 330.3,-1373.55 344.51,-1378.31"/>
<polygon fill="black" stroke="black" points="343.4,-1381.64 353.98,-1381.02 345.33,-1374.91 343.4,-1381.64"/>
<text text-anchor="middle" x="273.62" y="-762.5" font-family="Helvetica,sans-Serif" font-size="10.00">v1.21.1</text>
</g>
<!-- github.com/robotn/gohook -->
<g id="node40" class="node">
<title>github.com/robotn/gohook</title>
<path fill="coral" stroke="black" d="M453.88,-36C453.88,-36 360.62,-36 360.62,-36 354.62,-36 348.62,-30 348.62,-24 348.62,-24 348.62,-12 348.62,-12 348.62,-6 354.62,0 360.62,0 360.62,0 453.88,0 453.88,0 459.88,0 465.88,-6 465.88,-12 465.88,-12 465.88,-24 465.88,-24 465.88,-30 459.88,-36 453.88,-36"/>
<text text-anchor="middle" x="407.25" y="-12.2" font-family="Helvetica,sans-Serif" font-size="14.00">ldemailly/gohook</text>
</g>
<!-- github.com/ldemailly/gohook_sample&#45;&gt;github.com/robotn/gohook -->
<g id="edge86" class="edge">
<title>github.com/ldemailly/gohook_sample&#45;&gt;github.com/robotn/gohook</title>
<path fill="none" stroke="black" d="M161.55,-72.62C188.33,-61.26 224.39,-47.27 257.5,-38.75 283.12,-32.16 311.8,-27.53 337.09,-24.35"/>
<polygon fill="black" stroke="black" points="337.43,-27.83 346.94,-23.17 336.59,-20.88 337.43,-27.83"/>
<text text-anchor="middle" x="273.62" y="-40.5" font-family="Helvetica,sans-Serif" font-size="10.00">v0.31.3</text>
</g>
<!-- github.com/ldemailly/lll&#45;fixer -->
<g id="node35" class="node">
<title>github.com/ldemailly/lll&#45;fixer</title>
<path fill="lightsalmon" stroke="black" d="M958.75,-1097C958.75,-1097 800.25,-1097 800.25,-1097 794.25,-1097 788.25,-1091 788.25,-1085 788.25,-1085 788.25,-1073 788.25,-1073 788.25,-1067 794.25,-1061 800.25,-1061 800.25,-1061 958.75,-1061 958.75,-1061 964.75,-1061 970.75,-1067 970.75,-1073 970.75,-1073 970.75,-1085 970.75,-1085 970.75,-1091 964.75,-1097 958.75,-1097"/>
<text text-anchor="middle" x="879.5" y="-1073.2" font-family="Helvetica,sans-Serif" font-size="14.00">github.com/ldemailly/lll&#45;fixer</text>
</g>
<!-- github.com/ldemailly/lll&#45;fixer&#45;&gt;fortio.org/cli -->
<g id="edge87" class="edge">
<title>github.com/ldemailly/lll&#45;fixer&#45;&gt;fortio.org/cli</title>
<path fill="none" stroke="black" d="M971.24,-1061.64C975.91,-1058.87 980.3,-1055.68 984.25,-1052 1002.53,-1034.98 984.67,-1016.5 1002.25,-998.75 1023.86,-976.93 1041.73,-992.71 1067.5,-976 1095.36,-957.93 1120.66,-929.42 1137.19,-908.34"/>
<polygon fill="black" stroke="black" points="1139.93,-910.51 1143.23,-900.44 1134.37,-906.26 1139.93,-910.51"/>
<text text-anchor="middle" x="1034.88" y="-1000.5" font-family="Helvetica,sans-Serif" font-size="10.00">v1.9.0</text>
</g>
<!-- github.com/ldemailly/lll&#45;fixer&#45;&gt;fortio.org/log -->
<g id="edge88" class="edge">
<title>github.com/ldemailly/lll&#45;fixer&#45;&gt;fortio.org/log</title>
<path fill="none" stroke="black" d="M971.12,-1081.78C1002.13,-1080.73 1036.74,-1077.32 1067.5,-1069 1076.18,-1066.65 1076.76,-1061.86 1085.5,-1059.75 1148.14,-1044.6 1174.79,-1027.36 1230.5,-1059.75 1328.88,-1116.94 1350.14,-1269.3 1354.74,-1334.13"/>
<polygon fill="black" stroke="black" points="1351.24,-1334.24 1355.34,-1344.01 1358.22,-1333.82 1351.24,-1334.24"/>
<text text-anchor="middle" x="1158" y="-1061.5" font-family="Helvetica,sans-Serif" font-size="10.00">v1.16.0</text>
</g>
<!-- github.com/ldemailly/panic&#45;linter -->
<g id="node36" class="node">
<title>github.com/ldemailly/panic&#45;linter</title>
<path fill="lightsalmon" stroke="black" d="M972.25,-1978C972.25,-1978 786.75,-1978 786.75,-1978 780.75,-1978 774.75,-1972 774.75,-1966 774.75,-1966 774.75,-1954 774.75,-1954 774.75,-1948 780.75,-1942 786.75,-1942 786.75,-1942 972.25,-1942 972.25,-1942 978.25,-1942 984.25,-1948 984.25,-1954 984.25,-1954 984.25,-1966 984.25,-1966 984.25,-1972 978.25,-1978 972.25,-1978"/>
<text text-anchor="middle" x="879.5" y="-1954.2" font-family="Helvetica,sans-Serif" font-size="14.00">github.com/ldemailly/panic&#45;linter</text>
</g>
<!-- github.com/ldemailly/panic&#45;linter&#45;&gt;fortio.org/sets -->
<g id="edge89" class="edge">
<title>github.com/ldemailly/panic&#45;linter&#45;&gt;fortio.org/sets</title>
<path fill="none" stroke="black" d="M984.64,-1952.47C1022.84,-1949.7 1064.76,-1946.67 1097.69,-1944.29"/>
<polygon fill="black" stroke="black" points="1097.71,-1947.8 1107.43,-1943.59 1097.2,-1940.82 1097.71,-1947.8"/>
<text text-anchor="middle" x="1034.88" y="-1952.35" font-family="Helvetica,sans-Serif" font-size="10.00">v1.2.0</text>
</g>
<!-- github.com/ldemailly/quartiles -->
<g id="node37" class="node">
<title>github.com/ldemailly/quartiles</title>
<path fill="lightsalmon" stroke="black" d="M964.75,-1613C964.75,-1613 794.25,-1613 794.25,-1613 788.25,-1613 782.25,-1607 782.25,-1601 782.25,-1601 782.25,-1589 782.25,-1589 782.25,-1583 788.25,-1577 794.25,-1577 794.25,-1577 964.75,-1577 964.75,-1577 970.75,-1577 976.75,-1583 976.75,-1589 976.75,-1589 976.75,-1601 976.75,-1601 976.75,-1607 970.75,-1613 964.75,-1613"/>
<text text-anchor="middle" x="879.5" y="-1589.2" font-family="Helvetica,sans-Serif" font-size="14.00">github.com/ldemailly/quartiles</text>
</g>
<!-- github.com/ldemailly/quartiles&#45;&gt;fortio.org/cli -->
<g id="edge90" class="edge">
<title>github.com/ldemailly/quartiles&#45;&gt;fortio.org/cli</title>
<path fill="none" stroke="black" d="M901.03,-1576.7C924.77,-1555.82 965.34,-1521.05 1002.25,-1493.75 1030.12,-1473.13 1050.44,-1481.18 1067.5,-1451 1093.43,-1405.12 1067.97,-1026.7 1085.5,-977 1094.83,-950.56 1114.18,-925.32 1130.41,-907.37"/>
<polygon fill="black" stroke="black" points="1132.76,-909.97 1137.03,-900.27 1127.65,-905.19 1132.76,-909.97"/>
<text text-anchor="middle" x="1034.88" y="-1495.5" font-family="Helvetica,sans-Serif" font-size="10.00">v1.10.0</text>
</g>
<!-- github.com/ldemailly/quartiles&#45;&gt;fortio.org/log -->
<g id="edge91" class="edge">
<title>github.com/ldemailly/quartiles&#45;&gt;fortio.org/log</title>
<path fill="none" stroke="black" d="M950.59,-1613.48C1026.97,-1629.22 1149.13,-1640.96 1230.5,-1582 1296.33,-1534.3 1332.78,-1440.7 1347.77,-1393.18"/>
<polygon fill="black" stroke="black" points="1351.04,-1394.45 1350.61,-1383.86 1344.35,-1392.41 1351.04,-1394.45"/>
<text text-anchor="middle" x="1158" y="-1627.49" font-family="Helvetica,sans-Serif" font-size="10.00">v1.17.2</text>
</g>
<!-- github.com/ldemailly/quartiles&#45;&gt;fortio.org/sets -->
<g id="edge92" class="edge">
<title>github.com/ldemailly/quartiles&#45;&gt;fortio.org/sets</title>
<path fill="none" stroke="black" d="M965.33,-1613.47C972.23,-1617.19 978.68,-1621.65 984.25,-1627 1001.58,-1643.65 991.59,-1656.45 1002.25,-1678 1025.73,-1725.49 1040.19,-1732.36 1067.5,-1777.75 1095.22,-1823.81 1124.88,-1878.88 1142.15,-1911.56"/>
<polygon fill="black" stroke="black" points="1139.05,-1913.18 1146.8,-1920.4 1145.24,-1909.92 1139.05,-1913.18"/>
<text text-anchor="middle" x="1034.88" y="-1779.5" font-family="Helvetica,sans-Serif" font-size="10.00">v1.3.0</text>
</g>
<!-- github.com/ldemailly/rate -->
<g id="node38" class="node">
<title>github.com/ldemailly/rate</title>
<path fill="lightsalmon" stroke="black" d="M950.88,-1205C950.88,-1205 808.12,-1205 808.12,-1205 802.12,-1205 796.12,-1199 796.12,-1193 796.12,-1193 796.12,-1181 796.12,-1181 796.12,-1175 802.12,-1169 808.12,-1169 808.12,-1169 950.88,-1169 950.88,-1169 956.88,-1169 962.88,-1175 962.88,-1181 962.88,-1181 962.88,-1193 962.88,-1193 962.88,-1199 956.88,-1205 950.88,-1205"/>
<text text-anchor="middle" x="879.5" y="-1181.2" font-family="Helvetica,sans-Serif" font-size="14.00">github.com/ldemailly/rate</text>
</g>
<!-- github.com/ldemailly/rate&#45;&gt;fortio.org/cli -->
<g id="edge93" class="edge">
<title>github.com/ldemailly/rate&#45;&gt;fortio.org/cli</title>
<path fill="none" stroke="black" d="M963.13,-1169.93C970.49,-1167.1 977.64,-1163.81 984.25,-1160 994.12,-1154.31 993.47,-1149.01 1002.25,-1141.75 1029.15,-1119.49 1048.84,-1127.51 1067.5,-1098 1096.56,-1052.05 1064.63,-1027.21 1085.5,-977 1096.26,-951.11 1115.54,-925.84 1131.37,-907.74"/>
<polygon fill="black" stroke="black" points="1133.72,-910.35 1137.8,-900.58 1128.51,-905.68 1133.72,-910.35"/>
<text text-anchor="middle" x="1034.88" y="-1143.5" font-family="Helvetica,sans-Serif" font-size="10.00">v1.2.0</text>
</g>
<!-- github.com/ldemailly/rate&#45;&gt;fortio.org/log -->
<g id="edge94" class="edge">
<title>github.com/ldemailly/rate&#45;&gt;fortio.org/log</title>
<path fill="none" stroke="black" d="M955.7,-1168.52C1043.42,-1151.71 1188.21,-1139.33 1280.75,-1212 1320.18,-1242.96 1340.45,-1299.97 1349.6,-1334.69"/>
<polygon fill="black" stroke="black" points="1346.12,-1335.2 1351.92,-1344.07 1352.92,-1333.52 1346.12,-1335.2"/>
<text text-anchor="middle" x="1158" y="-1183.9" font-family="Helvetica,sans-Serif" font-size="10.00">v1.6.0</text>
</g>
<!-- gitlab.com/ldemailly/go&#45;flag&#45;bug -->
<g id="node41" class="node">
<title>gitlab.com/ldemailly/go&#45;flag&#45;bug</title>
<path fill="lightsalmon" stroke="black" d="M211.38,-2384C211.38,-2384 28.13,-2384 28.13,-2384 22.13,-2384 16.12,-2378 16.12,-2372 16.12,-2372 16.12,-2360 16.12,-2360 16.12,-2354 22.12,-2348 28.12,-2348 28.12,-2348 211.37,-2348 211.37,-2348 217.37,-2348 223.38,-2354 223.38,-2360 223.38,-2360 223.38,-2372 223.38,-2372 223.38,-2378 217.38,-2384 211.38,-2384"/>
<text text-anchor="middle" x="119.75" y="-2360.2" font-family="Helvetica,sans-Serif" font-size="14.00">gitlab.com/ldemailly/go&#45;flag&#45;bug</text>
</g>
<!-- grol.io/grol&#45;&gt;fortio.org/cli -->
<g id="edge95" class="edge">
<title>grol.io/grol&#45;&gt;fortio.org/cli</title>
<path fill="none" stroke="black" d="M680.74,-498.07C744.8,-498.9 876.01,-503.59 984.25,-526.75 1022.6,-534.96 1040.74,-527.33 1067.5,-556 1088.11,-578.08 1133.69,-775.92 1150.56,-851.67"/>
<polygon fill="black" stroke="black" points="1147.1,-852.25 1152.68,-861.26 1153.93,-850.74 1147.1,-852.25"/>
<text text-anchor="middle" x="879.5" y="-528.5" font-family="Helvetica,sans-Serif" font-size="10.00">v1.10.0</text>
</g>
<!-- grol.io/grol&#45;&gt;fortio.org/log -->
<g id="edge96" class="edge">
<title>grol.io/grol&#45;&gt;fortio.org/log</title>
<path fill="none" stroke="black" d="M660.03,-516.36C675.73,-530.95 699.7,-550.58 724.5,-561 839.67,-609.37 1194.24,-551.89 1280.75,-642 1329.53,-692.81 1350.5,-1205.39 1355.03,-1334.57"/>
<polygon fill="black" stroke="black" points="1351.52,-1334.46 1355.37,-1344.33 1358.52,-1334.22 1351.52,-1334.46"/>
<text text-anchor="middle" x="1034.88" y="-589.44" font-family="Helvetica,sans-Serif" font-size="10.00">v1.17.2</text>
</g>
<!-- grol.io/grol&#45;&gt;fortio.org/safecast -->
<g id="edge97" class="edge">
<title>grol.io/grol&#45;&gt;fortio.org/safecast</title>
<path fill="none" stroke="black" d="M680.71,-482.1C690.27,-476.63 699.69,-469.65 706.5,-461 724.25,-438.46 703.59,-418.65 724.5,-399 810.64,-318.07 869.84,-371.66 984.25,-342 1018.96,-333 1057.18,-321.65 1088.83,-311.85"/>
<polygon fill="black" stroke="black" points="1089.78,-315.22 1098.29,-308.9 1087.7,-308.54 1089.78,-315.22"/>
<text text-anchor="middle" x="879.5" y="-365.43" font-family="Helvetica,sans-Serif" font-size="10.00">v1.0.0</text>
</g>
<!-- grol.io/grol&#45;&gt;fortio.org/sets -->
<g id="edge98" class="edge">
<title>grol.io/grol&#45;&gt;fortio.org/sets</title>
<path fill="none" stroke="black" d="M665.84,-516.25C680.55,-528.96 698.1,-547.29 706.5,-568 737.42,-644.21 709,-1227.23 724.5,-1308 732.27,-1348.5 748.32,-1354.63 756.75,-1395 763.94,-1429.42 751.92,-1684.25 774.75,-1711 836.61,-1783.5 907.71,-1699.96 984.25,-1756.75 997.43,-1766.53 990.06,-1778.01 1002.25,-1789 1025.69,-1810.13 1042.83,-1797.32 1067.5,-1817 1076.45,-1824.14 1114.33,-1878.03 1137.85,-1912.07"/>
<polygon fill="black" stroke="black" points="1134.94,-1914.01 1143.49,-1920.26 1140.7,-1910.04 1134.94,-1914.01"/>
<text text-anchor="middle" x="879.5" y="-1758.5" font-family="Helvetica,sans-Serif" font-size="10.00">v1.3.0</text>
</g>
<!-- grol.io/grol&#45;&gt;fortio.org/struct2env -->
<g id="edge99" class="edge">
<title>grol.io/grol&#45;&gt;fortio.org/struct2env</title>
<path fill="none" stroke="black" d="M680.52,-479.82C690.31,-473.54 699.9,-465.61 706.5,-456 728.37,-424.17 701.81,-402.25 724.5,-371 739.65,-350.13 751.2,-352.5 774.75,-342 1019.08,-233.11 1325.52,-147.46 1466.87,-110.63"/>
<polygon fill="black" stroke="black" points="1467.72,-114.03 1476.52,-108.13 1465.96,-107.25 1467.72,-114.03"/>
<text text-anchor="middle" x="1158" y="-224.91" font-family="Helvetica,sans-Serif" font-size="10.00">v0.4.2</text>
</g>
<!-- grol.io/grol&#45;&gt;fortio.org/terminal -->
<g id="edge100" class="edge">
<title>grol.io/grol&#45;&gt;fortio.org/terminal</title>
<path fill="none" stroke="black" d="M680.58,-491.6C714.83,-485.96 765.61,-477.6 807.15,-470.75"/>
<polygon fill="black" stroke="black" points="807.54,-474.24 816.84,-469.16 806.4,-467.33 807.54,-474.24"/>
<text text-anchor="middle" x="740.62" y="-486.02" font-family="Helvetica,sans-Serif" font-size="10.00">v0.29.1</text>
</g>
<!-- grol.io/grol&#45;&gt;fortio.org/testscript -->
<g id="edge101" class="edge">
<title>grol.io/grol&#45;&gt;fortio.org/testscript</title>
<path fill="none" stroke="black" d="M665.64,-516.34C680.26,-529.08 697.79,-547.42 706.5,-568 735.46,-636.46 719.07,-827.87 724.5,-902 725.05,-909.55 769.67,-1439.38 774.75,-1445 838.39,-1515.34 913.19,-1422.92 984.25,-1485.75 1003.6,-1502.86 982.06,-1524.9 1002.25,-1541 1027.8,-1561.37 1063.81,-1565.6 1094.67,-1564.4"/>
<polygon fill="black" stroke="black" points="1094.5,-1567.91 1104.27,-1563.82 1094.08,-1560.93 1094.5,-1567.91"/>
<text text-anchor="middle" x="879.5" y="-1487.5" font-family="Helvetica,sans-Serif" font-size="10.00">v0.3.2</text>
</g>
<!-- grol.io/grol&#45;&gt;fortio.org/version -->
<g id="edge102" class="edge">
<title>grol.io/grol&#45;&gt;fortio.org/version</title>
<path fill="none" stroke="black" d="M672.96,-479.5C699.28,-464.65 738.37,-444.31 774.75,-432 899.39,-389.81 936.8,-372.5 1067.5,-387.75 1143.98,-396.67 1229.6,-418.48 1287.56,-435.06"/>
<polygon fill="black" stroke="black" points="1286.38,-438.36 1296.96,-437.77 1288.32,-431.63 1286.38,-438.36"/>
<text text-anchor="middle" x="1034.88" y="-389.5" font-family="Helvetica,sans-Serif" font-size="10.00">v1.0.4</text>
</g>
<!-- grol.io/grol&#45;discord&#45;bot -->
<g id="node45" class="node">
<title>grol.io/grol&#45;discord&#45;bot</title>
<path fill="lightgreen" stroke="black" d="M470.38,-391C470.38,-391 344.12,-391 344.12,-391 338.12,-391 332.12,-385 332.12,-379 332.12,-379 332.12,-367 332.12,-367 332.12,-361 338.12,-355 344.12,-355 344.12,-355 470.38,-355 470.38,-355 476.38,-355 482.38,-361 482.38,-367 482.38,-367 482.38,-379 482.38,-379 482.38,-385 476.38,-391 470.38,-391"/>
<text text-anchor="middle" x="407.25" y="-367.2" font-family="Helvetica,sans-Serif" font-size="14.00">grol.io/grol&#45;discord&#45;bot</text>
</g>
<!-- grol.io/grol&#45;discord&#45;bot&#45;&gt;fortio.org/cli -->
<g id="edge103" class="edge">
<title>grol.io/grol&#45;discord&#45;bot&#45;&gt;fortio.org/cli</title>
<path fill="none" stroke="black" d="M432.46,-391.24C452.86,-406.94 482.51,-430.54 506.75,-453 522.92,-467.98 555.27,-515.16 575,-525 673.57,-574.16 983.04,-510.29 1067.5,-581 1109.66,-616.3 1141.09,-783.23 1152.41,-851.65"/>
<polygon fill="black" stroke="black" points="1148.93,-852.05 1153.99,-861.36 1155.84,-850.93 1148.93,-852.05"/>
<text text-anchor="middle" x="740.62" y="-547.45" font-family="Helvetica,sans-Serif" font-size="10.00">v1.10.0</text>
</g>
<!-- grol.io/grol&#45;discord&#45;bot&#45;&gt;fortio.org/log -->
<g id="edge104" class="edge">
<title>grol.io/grol&#45;discord&#45;bot&#45;&gt;fortio.org/log</title>
<path fill="none" stroke="black" d="M482.68,-371.56C558.85,-368.78 670.95,-360.66 706.5,-337 757.65,-302.95 721.64,-247.67 774.75,-216.75 862.72,-165.53 1159.38,-190.16 1230.5,-263 1307.7,-342.06 1347.41,-1166 1354.75,-1334.14"/>
<polygon fill="black" stroke="black" points="1351.24,-1334.16 1355.17,-1344 1358.24,-1333.86 1351.24,-1334.16"/>
<text text-anchor="middle" x="879.5" y="-218.5" font-family="Helvetica,sans-Serif" font-size="10.00">v1.17.2</text>
</g>
<!-- grol.io/grol&#45;discord&#45;bot&#45;&gt;fortio.org/scli -->
<g id="edge105" class="edge">
<title>grol.io/grol&#45;discord&#45;bot&#45;&gt;fortio.org/scli</title>
<path fill="none" stroke="black" d="M442.17,-391.47C464.28,-405.38 491.73,-426.57 506.75,-453 529.28,-492.66 617.05,-1184.85 636.09,-1336.71"/>
<polygon fill="black" stroke="black" points="632.58,-1336.84 637.3,-1346.33 639.53,-1335.97 632.58,-1336.84"/>
<text text-anchor="middle" x="540.88" y="-719.41" font-family="Helvetica,sans-Serif" font-size="10.00">v1.16.1</text>
</g>
<!-- grol.io/grol&#45;discord&#45;bot&#45;&gt;fortio.org/version -->
<g id="edge106" class="edge">
<title>grol.io/grol&#45;discord&#45;bot&#45;&gt;fortio.org/version</title>
<path fill="none" stroke="black" d="M415.35,-354.6C434.2,-308.01 490,-184.29 575,-116 640.89,-63.06 672.32,-55.93 756.75,-60 815.55,-62.83 1238.9,-96.61 1280.75,-138 1321.83,-178.64 1345.18,-355.97 1353.01,-426.71"/>
<polygon fill="black" stroke="black" points="1349.5,-426.8 1354.05,-436.36 1356.46,-426.05 1349.5,-426.8"/>
<text text-anchor="middle" x="879.5" y="-81.56" font-family="Helvetica,sans-Serif" font-size="10.00">v1.0.4</text>
</g>
<!-- grol.io/grol&#45;discord&#45;bot&#45;&gt;github.com/bwmarrin/discordgo -->
<g id="edge107" class="edge">
<title>grol.io/grol&#45;discord&#45;bot&#45;&gt;github.com/bwmarrin/discordgo</title>
<path fill="none" stroke="black" d="M453.6,-354.53C474.92,-346.37 500.86,-337.19 524.75,-330.75 537.1,-327.42 550.34,-324.48 563.28,-321.92"/>
<polygon fill="black" stroke="black" points="563.89,-325.37 573.06,-320.07 562.58,-318.49 563.89,-325.37"/>
<text text-anchor="middle" x="540.88" y="-332.5" font-family="Helvetica,sans-Serif" font-size="10.00">v0.28.1</text>
</g>
<!-- grol.io/grol&#45;discord&#45;bot&#45;&gt;grol.io/grol -->
<g id="edge108" class="edge">
<title>grol.io/grol&#45;discord&#45;bot&#45;&gt;grol.io/grol</title>
<path fill="none" stroke="black" d="M442.41,-391.44C483.13,-413.43 551.27,-450.22 595.86,-474.3"/>
<polygon fill="black" stroke="black" points="594.03,-477.29 604.5,-478.96 597.36,-471.13 594.03,-477.29"/>
<text text-anchor="middle" x="540.88" y="-452.12" font-family="Helvetica,sans-Serif" font-size="10.00">v0.80.3</text>
</g>
<!-- scriggo&#45;bench -->
<g id="node46" class="node">
<title>scriggo&#45;bench</title>
<path fill="darkseagreen" stroke="black" d="M466.25,-552C466.25,-552 348.25,-552 348.25,-552 342.25,-552 336.25,-546 336.25,-540 336.25,-540 336.25,-528 336.25,-528 336.25,-522 342.25,-516 348.25,-516 348.25,-516 466.25,-516 466.25,-516 472.25,-516 478.25,-522 478.25,-528 478.25,-528 478.25,-540 478.25,-540 478.25,-546 472.25,-552 466.25,-552"/>
<text text-anchor="middle" x="407.25" y="-528.2" font-family="Helvetica,sans-Serif" font-size="14.00">grol&#45;io/scriggo&#45;bench</text>
</g>
<!-- scriggo&#45;bench&#45;&gt;grol.io/grol -->
<g id="edge109" class="edge">
<title>scriggo&#45;bench&#45;&gt;grol.io/grol</title>
<path fill="none" stroke="black" d="M478.65,-523.05C514.59,-517.46 557.45,-510.8 589.93,-505.75"/>
<polygon fill="black" stroke="black" points="590.11,-509.26 599.46,-504.27 589.04,-502.34 590.11,-509.26"/>
<text text-anchor="middle" x="540.88" y="-516.67" font-family="Helvetica,sans-Serif" font-size="10.00">v0.26.0</text>
</g>
</g>
</svg>
