<?xml version="1.0" encoding="UTF-8" standalone="no"?>
<!DOCTYPE svg PUBLIC "-//W3C//DTD SVG 1.1//EN"
 "http://www.w3.org/Graphics/SVG/1.1/DTD/svg11.dtd">
<!-- Generated by graphviz version 12.2.1 (20241206.2353)
 -->
<!-- Title: dependencies Pages: 1 -->
<svg width="1699pt" height="2346pt"
 viewBox="0.00 0.00 1698.75 2346.00" xmlns="http://www.w3.org/2000/svg" xmlns:xlink="http://www.w3.org/1999/xlink">
<g id="graph0" class="graph" transform="scale(1 1) rotate(0) translate(4 2342)">
<title>dependencies</title>
<polygon fill="white" stroke="none" points="-4,4 -4,-2342 1694.75,-2342 1694.75,4 -4,4"/>
<!-- fortio.org/assert -->
<g id="node1" class="node">
<title>fortio.org/assert</title>
<path fill="lightblue" stroke="black" d="M1477.12,-2287C1477.12,-2287 1391.38,-2287 1391.38,-2287 1385.38,-2287 1379.38,-2281 1379.38,-2275 1379.38,-2275 1379.38,-2263 1379.38,-2263 1379.38,-2257 1385.38,-2251 1391.38,-2251 1391.38,-2251 1477.12,-2251 1477.12,-2251 1483.12,-2251 1489.12,-2257 1489.12,-2263 1489.12,-2263 1489.12,-2275 1489.12,-2275 1489.12,-2281 1483.12,-2287 1477.12,-2287"/>
<text text-anchor="middle" x="1434.25" y="-2263.2" font-family="Helvetica,sans-Serif" font-size="14.00">fortio.org/assert</text>
</g>
<!-- fortio.org/cli -->
<g id="node2" class="node">
<title>fortio.org/cli</title>
<path fill="lightblue" stroke="black" d="M1208,-954C1208,-954 1146.25,-954 1146.25,-954 1140.25,-954 1134.25,-948 1134.25,-942 1134.25,-942 1134.25,-930 1134.25,-930 1134.25,-924 1140.25,-918 1146.25,-918 1146.25,-918 1208,-918 1208,-918 1214,-918 1220,-924 1220,-930 1220,-930 1220,-942 1220,-942 1220,-948 1214,-954 1208,-954"/>
<text text-anchor="middle" x="1177.12" y="-930.2" font-family="Helvetica,sans-Serif" font-size="14.00">fortio.org/cli</text>
</g>
<!-- fortio.org/log -->
<g id="node7" class="node">
<title>fortio.org/log</title>
<path fill="lightblue" stroke="black" d="M1467.75,-1497C1467.75,-1497 1400.75,-1497 1400.75,-1497 1394.75,-1497 1388.75,-1491 1388.75,-1485 1388.75,-1485 1388.75,-1473 1388.75,-1473 1388.75,-1467 1394.75,-1461 1400.75,-1461 1400.75,-1461 1467.75,-1461 1467.75,-1461 1473.75,-1461 1479.75,-1467 1479.75,-1473 1479.75,-1473 1479.75,-1485 1479.75,-1485 1479.75,-1491 1473.75,-1497 1467.75,-1497"/>
<text text-anchor="middle" x="1434.25" y="-1473.2" font-family="Helvetica,sans-Serif" font-size="14.00">fortio.org/log</text>
</g>
<!-- fortio.org/cli&#45;&gt;fortio.org/log -->
<g id="edge1" class="edge">
<title>fortio.org/cli&#45;&gt;fortio.org/log</title>
<path fill="none" stroke="black" d="M1205.31,-954.46C1245.48,-983.28 1320.01,-1042.95 1358,-1112.75 1419.65,-1226.04 1430.93,-1384.1 1432.89,-1449.19"/>
<polygon fill="black" stroke="black" points="1429.39,-1449.15 1433.13,-1459.07 1436.39,-1448.98 1429.39,-1449.15"/>
<text text-anchor="middle" x="1341.88" y="-1114.5" font-family="Helvetica,sans-Serif" font-size="10.00">v1.17.2</text>
</g>
<!-- fortio.org/version -->
<g id="node23" class="node">
<title>fortio.org/version</title>
<path fill="lightblue" stroke="black" d="M1480.5,-319C1480.5,-319 1388,-319 1388,-319 1382,-319 1376,-313 1376,-307 1376,-307 1376,-295 1376,-295 1376,-289 1382,-283 1388,-283 1388,-283 1480.5,-283 1480.5,-283 1486.5,-283 1492.5,-289 1492.5,-295 1492.5,-295 1492.5,-307 1492.5,-307 1492.5,-313 1486.5,-319 1480.5,-319"/>
<text text-anchor="middle" x="1434.25" y="-295.2" font-family="Helvetica,sans-Serif" font-size="14.00">fortio.org/version</text>
</g>
<!-- fortio.org/cli&#45;&gt;fortio.org/version -->
<g id="edge2" class="edge">
<title>fortio.org/cli&#45;&gt;fortio.org/version</title>
<path fill="none" stroke="black" d="M1190.99,-917.78C1216.33,-881.22 1273.2,-795.68 1307.75,-717 1368.96,-577.59 1411.66,-399.44 1426.99,-330.28"/>
<polygon fill="black" stroke="black" points="1430.33,-331.39 1429.05,-320.87 1423.49,-329.89 1430.33,-331.39"/>
<text text-anchor="middle" x="1341.88" y="-675.27" font-family="Helvetica,sans-Serif" font-size="10.00">v1.0.4</text>
</g>
<!-- fortio.org/dflag -->
<g id="node3" class="node">
<title>fortio.org/dflag</title>
<path fill="lightblue" stroke="black" d="M879.62,-2019C879.62,-2019 801.38,-2019 801.38,-2019 795.38,-2019 789.38,-2013 789.38,-2007 789.38,-2007 789.38,-1995 789.38,-1995 789.38,-1989 795.38,-1983 801.38,-1983 801.38,-1983 879.62,-1983 879.62,-1983 885.62,-1983 891.62,-1989 891.62,-1995 891.62,-1995 891.62,-2007 891.62,-2007 891.62,-2013 885.62,-2019 879.62,-2019"/>
<text text-anchor="middle" x="840.5" y="-1995.2" font-family="Helvetica,sans-Serif" font-size="14.00">fortio.org/dflag</text>
</g>
<!-- fortio.org/dflag&#45;&gt;fortio.org/assert -->
<g id="edge3" class="edge">
<title>fortio.org/dflag&#45;&gt;fortio.org/assert</title>
<path fill="none" stroke="black" d="M885.44,-2019.47C906.27,-2030.26 929.9,-2045.76 945.25,-2066 962.33,-2088.52 943.33,-2106.95 963.25,-2127 1073.45,-2237.92 1267.03,-2262.79 1367.93,-2267.98"/>
<polygon fill="black" stroke="black" points="1367.51,-2271.46 1377.66,-2268.42 1367.83,-2264.47 1367.51,-2271.46"/>
<text text-anchor="middle" x="1177.12" y="-2264.71" font-family="Helvetica,sans-Serif" font-size="10.00">v1.2.1</text>
</g>
<!-- fortio.org/dflag&#45;&gt;fortio.org/log -->
<g id="edge4" class="edge">
<title>fortio.org/dflag&#45;&gt;fortio.org/log</title>
<path fill="none" stroke="black" d="M883.62,-2019.46C981.75,-2059.29 1227.14,-2140.01 1358,-2015 1431.45,-1944.83 1434.51,-1610.86 1433.68,-1508.73"/>
<polygon fill="black" stroke="black" points="1437.19,-1508.94 1433.59,-1498.98 1430.19,-1509.01 1437.19,-1508.94"/>
<text text-anchor="middle" x="1177.12" y="-2083.79" font-family="Helvetica,sans-Serif" font-size="10.00">v1.17.2</text>
</g>
<!-- fortio.org/sets -->
<g id="node16" class="node">
<title>fortio.org/sets</title>
<path fill="lightblue" stroke="black" d="M1214,-1956C1214,-1956 1140.25,-1956 1140.25,-1956 1134.25,-1956 1128.25,-1950 1128.25,-1944 1128.25,-1944 1128.25,-1932 1128.25,-1932 1128.25,-1926 1134.25,-1920 1140.25,-1920 1140.25,-1920 1214,-1920 1214,-1920 1220,-1920 1226,-1926 1226,-1932 1226,-1932 1226,-1944 1226,-1944 1226,-1950 1220,-1956 1214,-1956"/>
<text text-anchor="middle" x="1177.12" y="-1932.2" font-family="Helvetica,sans-Serif" font-size="14.00">fortio.org/sets</text>
</g>
<!-- fortio.org/dflag&#45;&gt;fortio.org/sets -->
<g id="edge5" class="edge">
<title>fortio.org/dflag&#45;&gt;fortio.org/sets</title>
<path fill="none" stroke="black" d="M877.22,-1982.56C900.95,-1971.25 933.16,-1957.66 963.25,-1950.75 1014.15,-1939.07 1073.6,-1936.39 1116.71,-1936.34"/>
<polygon fill="black" stroke="black" points="1116.61,-1939.84 1126.62,-1936.38 1116.64,-1932.84 1116.61,-1939.84"/>
<text text-anchor="middle" x="995.88" y="-1952.5" font-family="Helvetica,sans-Serif" font-size="10.00">v1.3.0</text>
</g>
<!-- fortio.org/dnsping -->
<g id="node4" class="node">
<title>fortio.org/dnsping</title>
<path fill="lightblue" stroke="black" d="M167.88,-235C167.88,-235 71.62,-235 71.62,-235 65.62,-235 59.62,-229 59.62,-223 59.62,-223 59.62,-211 59.62,-211 59.62,-205 65.62,-199 71.62,-199 71.62,-199 167.88,-199 167.88,-199 173.88,-199 179.88,-205 179.88,-211 179.88,-211 179.88,-223 179.88,-223 179.88,-229 173.88,-235 167.88,-235"/>
<text text-anchor="middle" x="119.75" y="-211.2" font-family="Helvetica,sans-Serif" font-size="14.00">fortio.org/dnsping</text>
</g>
<!-- fortio.org/dnsping&#45;&gt;fortio.org/cli -->
<g id="edge6" class="edge">
<title>fortio.org/dnsping&#45;&gt;fortio.org/cli</title>
<path fill="none" stroke="black" d="M142.44,-235.42C181.33,-270.08 261.5,-349.45 289.75,-437 306.24,-488.11 271.52,-638.36 307.75,-678 337.99,-711.09 462.63,-703.07 506.75,-711 702.13,-746.13 755.59,-737.37 945.25,-796 983.76,-807.91 993.34,-812.29 1028.5,-832 1070.7,-855.65 1115.66,-888.58 1144.72,-911"/>
<polygon fill="black" stroke="black" points="1142.34,-913.58 1152.38,-916.96 1146.63,-908.06 1142.34,-913.58"/>
<text text-anchor="middle" x="621.25" y="-737.48" font-family="Helvetica,sans-Serif" font-size="10.00">v1.10.0</text>
</g>
<!-- fortio.org/fortio -->
<g id="node5" class="node">
<title>fortio.org/fortio</title>
<path fill="lightblue" stroke="black" d="M446.75,-1379C446.75,-1379 367.75,-1379 367.75,-1379 361.75,-1379 355.75,-1373 355.75,-1367 355.75,-1367 355.75,-1355 355.75,-1355 355.75,-1349 361.75,-1343 367.75,-1343 367.75,-1343 446.75,-1343 446.75,-1343 452.75,-1343 458.75,-1349 458.75,-1355 458.75,-1355 458.75,-1367 458.75,-1367 458.75,-1373 452.75,-1379 446.75,-1379"/>
<text text-anchor="middle" x="407.25" y="-1355.2" font-family="Helvetica,sans-Serif" font-size="14.00">fortio.org/fortio</text>
</g>
<!-- fortio.org/dnsping&#45;&gt;fortio.org/fortio -->
<g id="edge7" class="edge">
<title>fortio.org/dnsping&#45;&gt;fortio.org/fortio</title>
<path fill="none" stroke="black" d="M142.8,-235.49C170.25,-259.86 216.34,-305.47 239.5,-355 260.97,-400.91 377.49,-1169.89 401.8,-1331.39"/>
<polygon fill="black" stroke="black" points="398.34,-1331.89 403.29,-1341.26 405.26,-1330.85 398.34,-1331.89"/>
<text text-anchor="middle" x="273.62" y="-596.68" font-family="Helvetica,sans-Serif" font-size="10.00">v1.69.1</text>
</g>
<!-- fortio.org/dnsping&#45;&gt;fortio.org/log -->
<g id="edge8" class="edge">
<title>fortio.org/dnsping&#45;&gt;fortio.org/log</title>
<path fill="none" stroke="black" d="M132.18,-198.87C166.63,-146.72 275.2,0 406.25,0 406.25,0 406.25,0 702.62,0 794.8,0 1303.56,-138.62 1307.75,-143 1401.25,-240.77 1428.4,-1261.02 1432.63,-1449.24"/>
<polygon fill="black" stroke="black" points="1429.12,-1449.21 1432.84,-1459.13 1436.12,-1449.06 1429.12,-1449.21"/>
<text text-anchor="middle" x="701.62" y="-1.75" font-family="Helvetica,sans-Serif" font-size="10.00">v1.17.2</text>
</g>
<!-- fortio.org/safecast -->
<g id="node14" class="node">
<title>fortio.org/safecast</title>
<path fill="lightblue" stroke="black" d="M1226.75,-188C1226.75,-188 1127.5,-188 1127.5,-188 1121.5,-188 1115.5,-182 1115.5,-176 1115.5,-176 1115.5,-164 1115.5,-164 1115.5,-158 1121.5,-152 1127.5,-152 1127.5,-152 1226.75,-152 1226.75,-152 1232.75,-152 1238.75,-158 1238.75,-164 1238.75,-164 1238.75,-176 1238.75,-176 1238.75,-182 1232.75,-188 1226.75,-188"/>
<text text-anchor="middle" x="1177.12" y="-164.2" font-family="Helvetica,sans-Serif" font-size="14.00">fortio.org/safecast</text>
</g>
<!-- fortio.org/dnsping&#45;&gt;fortio.org/safecast -->
<g id="edge9" class="edge">
<title>fortio.org/dnsping&#45;&gt;fortio.org/safecast</title>
<path fill="none" stroke="black" d="M142.81,-198.65C188.72,-162.38 299.22,-85 406.25,-85 406.25,-85 406.25,-85 841.5,-85 943.13,-85 1056.93,-122.29 1122.2,-147.47"/>
<polygon fill="black" stroke="black" points="1120.64,-150.62 1131.23,-151 1123.19,-144.1 1120.64,-150.62"/>
<text text-anchor="middle" x="621.25" y="-86.75" font-family="Helvetica,sans-Serif" font-size="10.00">v1.0.0</text>
</g>
<!-- fortio.org/testscript -->
<g id="node22" class="node">
<title>fortio.org/testscript</title>
<path fill="steelblue" stroke="black" d="M1295.75,-708C1295.75,-708 1058.5,-708 1058.5,-708 1052.5,-708 1046.5,-702 1046.5,-696 1046.5,-696 1046.5,-682 1046.5,-682 1046.5,-676 1052.5,-670 1058.5,-670 1058.5,-670 1295.75,-670 1295.75,-670 1301.75,-670 1307.75,-676 1307.75,-682 1307.75,-682 1307.75,-696 1307.75,-696 1307.75,-702 1301.75,-708 1295.75,-708"/>
<text text-anchor="middle" x="1177.12" y="-690.7" font-family="Helvetica,sans-Serif" font-size="14.00">fortio/testscript</text>
<text text-anchor="middle" x="1177.12" y="-675.7" font-family="Helvetica,sans-Serif" font-size="14.00">(fork of github.com/rogpeppe/go&#45;internal)</text>
</g>
<!-- fortio.org/dnsping&#45;&gt;fortio.org/testscript -->
<g id="edge10" class="edge">
<title>fortio.org/dnsping&#45;&gt;fortio.org/testscript</title>
<path fill="none" stroke="black" d="M180.18,-217.52C260.1,-220.79 404.02,-235.87 506.75,-299 631,-375.35 606.37,-466.71 735.75,-534 819.44,-577.53 872.29,-508.21 945.25,-568 962.87,-582.44 947.52,-599.52 963.25,-616 985.04,-638.83 1003.07,-625.31 1028.5,-644 1036.39,-649.8 1036.37,-655.8 1045.92,-663.45"/>
<polygon fill="black" stroke="black" points="1043.83,-666.26 1054.11,-668.82 1047.67,-660.41 1043.83,-666.26"/>
<text text-anchor="middle" x="621.25" y="-486.11" font-family="Helvetica,sans-Serif" font-size="10.00">v0.3.2</text>
</g>
<!-- fortio.org/fortio&#45;&gt;fortio.org/assert -->
<g id="edge11" class="edge">
<title>fortio.org/fortio&#45;&gt;fortio.org/assert</title>
<path fill="none" stroke="black" d="M459.11,-1362.78C514.16,-1366.79 602.74,-1379.47 667.5,-1419 697.19,-1437.12 703.45,-1447.29 717.75,-1479 739.74,-1527.76 700.68,-1557.61 735.75,-1598 799.47,-1671.4 857.63,-1618.68 945.25,-1660.75 1121.74,-1745.48 1188.98,-1755.37 1307.75,-1911 1387.49,-2015.49 1419.18,-2174.64 1429.27,-2239.72"/>
<polygon fill="black" stroke="black" points="1425.75,-2239.87 1430.69,-2249.25 1432.68,-2238.84 1425.75,-2239.87"/>
<text text-anchor="middle" x="840.5" y="-1662.5" font-family="Helvetica,sans-Serif" font-size="10.00">v1.2.1</text>
</g>
<!-- fortio.org/fortio&#45;&gt;fortio.org/cli -->
<g id="edge12" class="edge">
<title>fortio.org/fortio&#45;&gt;fortio.org/cli</title>
<path fill="none" stroke="black" d="M420.6,-1342.6C477.35,-1258.21 711.27,-911.79 735.75,-899 862.1,-832.99 1037.02,-882.29 1123.45,-914.29"/>
<polygon fill="black" stroke="black" points="1122.04,-917.5 1132.63,-917.76 1124.51,-910.95 1122.04,-917.5"/>
<text text-anchor="middle" x="701.62" y="-961.61" font-family="Helvetica,sans-Serif" font-size="10.00">v1.10.0</text>
</g>
<!-- fortio.org/fortio&#45;&gt;fortio.org/dflag -->
<g id="edge13" class="edge">
<title>fortio.org/fortio&#45;&gt;fortio.org/dflag</title>
<path fill="none" stroke="black" d="M430.96,-1379.21C454.63,-1399.69 490.47,-1435.31 506.75,-1475 529.82,-1531.25 496.25,-1694.3 524.75,-1748 575.68,-1843.96 633.37,-1829.57 717.75,-1898 749.73,-1923.94 785.65,-1954.51 810.13,-1975.57"/>
<polygon fill="black" stroke="black" points="807.6,-1978 817.46,-1981.88 812.17,-1972.7 807.6,-1978"/>
<text text-anchor="middle" x="621.25" y="-1864.28" font-family="Helvetica,sans-Serif" font-size="10.00">v1.8.1</text>
</g>
<!-- fortio.org/fortio&#45;&gt;fortio.org/log -->
<g id="edge14" class="edge">
<title>fortio.org/fortio&#45;&gt;fortio.org/log</title>
<path fill="none" stroke="black" d="M447.73,-1342.58C514.61,-1314.41 649.56,-1271.31 717.75,-1346 749.03,-1380.26 701.56,-1522.64 735.75,-1554 804.37,-1616.94 852.28,-1559.11 945.25,-1554 1107.09,-1545.1 1146.72,-1532.5 1307.75,-1514 1330.1,-1511.43 1336.17,-1513.42 1358,-1508 1365.3,-1506.19 1372.86,-1503.86 1380.23,-1501.31"/>
<polygon fill="black" stroke="black" points="1381.24,-1504.67 1389.44,-1497.96 1378.85,-1498.09 1381.24,-1504.67"/>
<text text-anchor="middle" x="840.5" y="-1584.89" font-family="Helvetica,sans-Serif" font-size="10.00">v1.17.2</text>
</g>
<!-- fortio.org/fortio&#45;&gt;fortio.org/safecast -->
<g id="edge15" class="edge">
<title>fortio.org/fortio&#45;&gt;fortio.org/safecast</title>
<path fill="none" stroke="black" d="M409.48,-1342.83C417.42,-1235.87 468.11,-679.96 685.5,-297.75 695.12,-280.83 719.09,-236.06 735.75,-226 751.31,-216.61 983.11,-190.64 1103.98,-177.64"/>
<polygon fill="black" stroke="black" points="1104.25,-181.13 1113.81,-176.58 1103.5,-174.17 1104.25,-181.13"/>
<text text-anchor="middle" x="701.62" y="-299.5" font-family="Helvetica,sans-Serif" font-size="10.00">v1.0.0</text>
</g>
<!-- fortio.org/scli -->
<g id="node15" class="node">
<title>fortio.org/scli</title>
<path fill="lightblue" stroke="black" d="M655.5,-1633C655.5,-1633 587,-1633 587,-1633 581,-1633 575,-1627 575,-1621 575,-1621 575,-1609 575,-1609 575,-1603 581,-1597 587,-1597 587,-1597 655.5,-1597 655.5,-1597 661.5,-1597 667.5,-1603 667.5,-1609 667.5,-1609 667.5,-1621 667.5,-1621 667.5,-1627 661.5,-1633 655.5,-1633"/>
<text text-anchor="middle" x="621.25" y="-1609.2" font-family="Helvetica,sans-Serif" font-size="14.00">fortio.org/scli</text>
</g>
<!-- fortio.org/fortio&#45;&gt;fortio.org/scli -->
<g id="edge16" class="edge">
<title>fortio.org/fortio&#45;&gt;fortio.org/scli</title>
<path fill="none" stroke="black" d="M446.28,-1379.37C480.24,-1397.69 528.83,-1428.95 557,-1469.75 574.09,-1494.5 563.51,-1507.2 575,-1535 582.43,-1552.97 593.04,-1571.96 602.12,-1586.93"/>
<polygon fill="black" stroke="black" points="599.06,-1588.64 607.31,-1595.3 605.01,-1584.96 599.06,-1588.64"/>
<text text-anchor="middle" x="540.88" y="-1471.5" font-family="Helvetica,sans-Serif" font-size="10.00">v1.16.1</text>
</g>
<!-- fortio.org/fortio&#45;&gt;fortio.org/sets -->
<g id="edge17" class="edge">
<title>fortio.org/fortio&#45;&gt;fortio.org/sets</title>
<path fill="none" stroke="black" d="M459.1,-1374.15C518.22,-1392.11 614.44,-1430.12 667.5,-1498 683.59,-1518.58 716.65,-1705.18 735.75,-1723 805.59,-1788.17 858.25,-1731.55 945.25,-1771 1026.05,-1807.64 1106.95,-1874.9 1148.15,-1911.9"/>
<polygon fill="black" stroke="black" points="1145.69,-1914.39 1155.44,-1918.51 1150.39,-1909.2 1145.69,-1914.39"/>
<text text-anchor="middle" x="701.62" y="-1678.23" font-family="Helvetica,sans-Serif" font-size="10.00">v1.3.0</text>
</g>
<!-- fortio.org/fortio&#45;&gt;fortio.org/testscript -->
<g id="edge18" class="edge">
<title>fortio.org/fortio&#45;&gt;fortio.org/testscript</title>
<path fill="none" stroke="black" d="M412.78,-1342.78C427.8,-1285.16 480.45,-1103.58 575,-984 701.01,-824.63 935.13,-745.37 1071.02,-711.12"/>
<polygon fill="black" stroke="black" points="1071.51,-714.6 1080.37,-708.8 1069.82,-707.81 1071.51,-714.6"/>
<text text-anchor="middle" x="701.62" y="-877.37" font-family="Helvetica,sans-Serif" font-size="10.00">v0.3.2</text>
</g>
<!-- fortio.org/fortio&#45;&gt;fortio.org/version -->
<g id="edge19" class="edge">
<title>fortio.org/fortio&#45;&gt;fortio.org/version</title>
<path fill="none" stroke="black" d="M411.35,-1342.58C424.63,-1263.28 477.27,-942.93 506.75,-678 518.04,-576.53 499.97,-548.04 524.75,-449 538.29,-394.89 539.55,-377.06 575,-334 606.77,-295.4 632.46,-305.65 667.5,-270 677.61,-259.71 676.96,-254.62 685.5,-243 706.55,-214.34 704.65,-197.99 735.75,-180.75 847.16,-118.98 1193.03,-87.62 1307.75,-143 1363.31,-169.82 1401.82,-234.52 1420.45,-272.28"/>
<polygon fill="black" stroke="black" points="1417.26,-273.73 1424.72,-281.25 1423.58,-270.72 1417.26,-273.73"/>
<text text-anchor="middle" x="840.5" y="-182.5" font-family="Helvetica,sans-Serif" font-size="10.00">v1.0.4</text>
</g>
<!-- grol.io/grol -->
<g id="node39" class="node">
<title>grol.io/grol</title>
<path fill="lightgreen" stroke="black" d="M648.75,-588C648.75,-588 593.75,-588 593.75,-588 587.75,-588 581.75,-582 581.75,-576 581.75,-576 581.75,-564 581.75,-564 581.75,-558 587.75,-552 593.75,-552 593.75,-552 648.75,-552 648.75,-552 654.75,-552 660.75,-558 660.75,-564 660.75,-564 660.75,-576 660.75,-576 660.75,-582 654.75,-588 648.75,-588"/>
<text text-anchor="middle" x="621.25" y="-564.2" font-family="Helvetica,sans-Serif" font-size="14.00">grol.io/grol</text>
</g>
<!-- fortio.org/fortio&#45;&gt;grol.io/grol -->
<g id="edge20" class="edge">
<title>fortio.org/fortio&#45;&gt;grol.io/grol</title>
<path fill="none" stroke="black" d="M412.22,-1342.88C426.31,-1278.85 475.77,-1057.44 524.75,-876.75 537.72,-828.91 543.66,-817.73 557,-770 565.65,-739.06 565.71,-730.75 575,-700 585.59,-664.93 599.73,-625.24 609.36,-599.04"/>
<polygon fill="black" stroke="black" points="612.6,-600.37 612.79,-589.77 606.04,-597.94 612.6,-600.37"/>
<text text-anchor="middle" x="540.88" y="-878.5" font-family="Helvetica,sans-Serif" font-size="10.00">v0.80.3</text>
</g>
<!-- fortio.org/fortiotel -->
<g id="node6" class="node">
<title>fortio.org/fortiotel</title>
<path fill="lightblue" stroke="black" d="M166.38,-1874C166.38,-1874 73.12,-1874 73.12,-1874 67.12,-1874 61.12,-1868 61.12,-1862 61.12,-1862 61.12,-1850 61.12,-1850 61.12,-1844 67.12,-1838 73.12,-1838 73.12,-1838 166.38,-1838 166.38,-1838 172.38,-1838 178.38,-1844 178.38,-1850 178.38,-1850 178.38,-1862 178.38,-1862 178.38,-1868 172.38,-1874 166.38,-1874"/>
<text text-anchor="middle" x="119.75" y="-1850.2" font-family="Helvetica,sans-Serif" font-size="14.00">fortio.org/fortiotel</text>
</g>
<!-- fortio.org/fortiotel&#45;&gt;fortio.org/cli -->
<g id="edge21" class="edge">
<title>fortio.org/fortiotel&#45;&gt;fortio.org/cli</title>
<path fill="none" stroke="black" d="M130.94,-1837.77C167.88,-1771.8 293.39,-1548.85 307.75,-1539 381.69,-1488.3 420.59,-1530.78 506.75,-1506 577.97,-1485.51 715.98,-1400.82 717.75,-1398 740.64,-1361.54 707.23,-1043.24 735.75,-1011 748.54,-996.54 1007.96,-959.19 1122.53,-943.31"/>
<polygon fill="black" stroke="black" points="1122.88,-946.8 1132.31,-941.96 1121.92,-939.86 1122.88,-946.8"/>
<text text-anchor="middle" x="621.25" y="-1479.91" font-family="Helvetica,sans-Serif" font-size="10.00">v1.10.0</text>
</g>
<!-- fortio.org/fortiotel&#45;&gt;fortio.org/dflag -->
<g id="edge22" class="edge">
<title>fortio.org/fortiotel&#45;&gt;fortio.org/dflag</title>
<path fill="none" stroke="black" d="M129.36,-1874.44C147.28,-1910.32 192.39,-1988.63 257.5,-2019 348.32,-2061.36 647.56,-2027.31 777.91,-2009.8"/>
<polygon fill="black" stroke="black" points="778.3,-2013.28 787.74,-2008.46 777.36,-2006.34 778.3,-2013.28"/>
<text text-anchor="middle" x="540.88" y="-2037.31" font-family="Helvetica,sans-Serif" font-size="10.00">v1.8.1</text>
</g>
<!-- fortio.org/fortiotel&#45;&gt;fortio.org/fortio -->
<g id="edge23" class="edge">
<title>fortio.org/fortiotel&#45;&gt;fortio.org/fortio</title>
<path fill="none" stroke="black" d="M132.66,-1837.55C155.42,-1801.8 205.81,-1720.16 239.5,-1647 276.86,-1565.88 259.57,-1533.2 307.75,-1458 325.42,-1430.42 352.25,-1404.67 373.45,-1386.64"/>
<polygon fill="black" stroke="black" points="375.54,-1389.46 380.98,-1380.38 371.06,-1384.08 375.54,-1389.46"/>
<text text-anchor="middle" x="273.62" y="-1601.28" font-family="Helvetica,sans-Serif" font-size="10.00">v1.69.1</text>
</g>
<!-- fortio.org/fortiotel&#45;&gt;fortio.org/log -->
<g id="edge24" class="edge">
<title>fortio.org/fortiotel&#45;&gt;fortio.org/log</title>
<path fill="none" stroke="black" d="M129.09,-1874.31C146.97,-1911.4 192.72,-1995.52 257.5,-2038 276.7,-2050.59 285.33,-2045.05 307.75,-2050 327.66,-2054.4 648.89,-2114.67 667.5,-2123 702.06,-2138.47 699.82,-2162.06 735.75,-2174 824.11,-2203.37 852.65,-2183.73 945.25,-2174 1109.05,-2156.79 1165.18,-2179.46 1307.75,-2097 1336.7,-2080.26 1343.99,-2071.36 1358,-2041 1402.58,-1944.37 1425.53,-1610.08 1431.59,-1508.51"/>
<polygon fill="black" stroke="black" points="1435.07,-1509 1432.16,-1498.81 1428.08,-1508.59 1435.07,-1509"/>
<text text-anchor="middle" x="701.62" y="-2166.89" font-family="Helvetica,sans-Serif" font-size="10.00">v1.17.2</text>
</g>
<!-- fortio.org/struct2env -->
<g id="node18" class="node">
<title>fortio.org/struct2env</title>
<path fill="lightblue" stroke="black" d="M1678.75,-247C1678.75,-247 1567.5,-247 1567.5,-247 1561.5,-247 1555.5,-241 1555.5,-235 1555.5,-235 1555.5,-223 1555.5,-223 1555.5,-217 1561.5,-211 1567.5,-211 1567.5,-211 1678.75,-211 1678.75,-211 1684.75,-211 1690.75,-217 1690.75,-223 1690.75,-223 1690.75,-235 1690.75,-235 1690.75,-241 1684.75,-247 1678.75,-247"/>
<text text-anchor="middle" x="1623.12" y="-223.2" font-family="Helvetica,sans-Serif" font-size="14.00">fortio.org/struct2env</text>
</g>
<!-- fortio.org/log&#45;&gt;fortio.org/struct2env -->
<g id="edge25" class="edge">
<title>fortio.org/log&#45;&gt;fortio.org/struct2env</title>
<path fill="none" stroke="black" d="M1437.96,-1460.85C1458.67,-1322.31 1591.63,-432.97 1617.7,-258.63"/>
<polygon fill="black" stroke="black" points="1621.14,-259.24 1619.16,-248.83 1614.22,-258.2 1621.14,-259.24"/>
<text text-anchor="middle" x="1524" y="-967.71" font-family="Helvetica,sans-Serif" font-size="10.00">v0.4.2</text>
</g>
<!-- fortio.org/logc -->
<g id="node8" class="node">
<title>fortio.org/logc</title>
<path fill="lightblue" stroke="black" d="M444.12,-1584C444.12,-1584 370.38,-1584 370.38,-1584 364.38,-1584 358.38,-1578 358.38,-1572 358.38,-1572 358.38,-1560 358.38,-1560 358.38,-1554 364.38,-1548 370.38,-1548 370.38,-1548 444.12,-1548 444.12,-1548 450.12,-1548 456.12,-1554 456.12,-1560 456.12,-1560 456.12,-1572 456.12,-1572 456.12,-1578 450.12,-1584 444.12,-1584"/>
<text text-anchor="middle" x="407.25" y="-1560.2" font-family="Helvetica,sans-Serif" font-size="14.00">fortio.org/logc</text>
</g>
<!-- fortio.org/logc&#45;&gt;fortio.org/cli -->
<g id="edge26" class="edge">
<title>fortio.org/logc&#45;&gt;fortio.org/cli</title>
<path fill="none" stroke="black" d="M456.52,-1565.42C474.55,-1562.72 493.78,-1556.47 506.75,-1543 535.95,-1512.67 499.54,-1483.72 524.75,-1450 582.6,-1372.62 665.59,-1431.32 717.75,-1350 740.27,-1314.89 707.17,-1005.39 735.75,-975 787.13,-920.36 1016.69,-926.42 1122.45,-932.34"/>
<polygon fill="black" stroke="black" points="1122.11,-935.83 1132.3,-932.91 1122.52,-928.84 1122.11,-935.83"/>
<text text-anchor="middle" x="701.62" y="-1384.21" font-family="Helvetica,sans-Serif" font-size="10.00">v1.10.0</text>
</g>
<!-- fortio.org/logc&#45;&gt;fortio.org/log -->
<g id="edge27" class="edge">
<title>fortio.org/logc&#45;&gt;fortio.org/log</title>
<path fill="none" stroke="black" d="M447.32,-1584.35C492.43,-1605.46 562.12,-1637.76 575,-1642 644.36,-1664.84 663.12,-1668.4 735.75,-1676 989.24,-1702.51 1062.74,-1705.22 1307.75,-1635 1331.54,-1628.18 1339.88,-1627.85 1358,-1611 1389.35,-1581.85 1411.19,-1536.62 1422.98,-1507.4"/>
<polygon fill="black" stroke="black" points="1426.09,-1509.06 1426.46,-1498.47 1419.57,-1506.52 1426.09,-1509.06"/>
<text text-anchor="middle" x="840.5" y="-1694.54" font-family="Helvetica,sans-Serif" font-size="10.00">v1.17.2</text>
</g>
<!-- fortio.org/logc&#45;&gt;fortio.org/scli -->
<g id="edge28" class="edge">
<title>fortio.org/logc&#45;&gt;fortio.org/scli</title>
<path fill="none" stroke="black" d="M456.47,-1573.82C485.74,-1578.94 523.75,-1586.25 557,-1594.75 559.27,-1595.33 561.58,-1595.95 563.9,-1596.59"/>
<polygon fill="black" stroke="black" points="562.8,-1599.91 573.38,-1599.33 564.75,-1593.19 562.8,-1599.91"/>
<text text-anchor="middle" x="540.88" y="-1596.5" font-family="Helvetica,sans-Serif" font-size="10.00">v1.15.3</text>
</g>
<!-- fortio.org/memstore -->
<g id="node9" class="node">
<title>fortio.org/memstore</title>
<path fill="lightblue" stroke="black" d="M175,-2176C175,-2176 64.5,-2176 64.5,-2176 58.5,-2176 52.5,-2170 52.5,-2164 52.5,-2164 52.5,-2152 52.5,-2152 52.5,-2146 58.5,-2140 64.5,-2140 64.5,-2140 175,-2140 175,-2140 181,-2140 187,-2146 187,-2152 187,-2152 187,-2164 187,-2164 187,-2170 181,-2176 175,-2176"/>
<text text-anchor="middle" x="119.75" y="-2152.2" font-family="Helvetica,sans-Serif" font-size="14.00">fortio.org/memstore</text>
</g>
<!-- fortio.org/memstore&#45;&gt;fortio.org/dflag -->
<g id="edge29" class="edge">
<title>fortio.org/memstore&#45;&gt;fortio.org/dflag</title>
<path fill="none" stroke="black" d="M187.25,-2145.22C297.76,-2123.72 526.05,-2078.23 717.75,-2033 737.4,-2028.36 758.72,-2022.91 777.95,-2017.83"/>
<polygon fill="black" stroke="black" points="778.77,-2021.23 787.53,-2015.28 776.97,-2014.46 778.77,-2021.23"/>
<text text-anchor="middle" x="540.88" y="-2077.15" font-family="Helvetica,sans-Serif" font-size="10.00">v1.7.3</text>
</g>
<!-- fortio.org/memstore&#45;&gt;fortio.org/fortio -->
<g id="edge30" class="edge">
<title>fortio.org/memstore&#45;&gt;fortio.org/fortio</title>
<path fill="none" stroke="black" d="M187.36,-2151.71C206.66,-2146.69 226.11,-2137.98 239.5,-2123 250.21,-2111.01 287.97,-1853.98 289.75,-1838 294.43,-1795.99 290.51,-1496.59 307.75,-1458 320.86,-1428.66 347.19,-1403.48 369.34,-1386.13"/>
<polygon fill="black" stroke="black" points="371.45,-1388.93 377.31,-1380.1 367.23,-1383.34 371.45,-1388.93"/>
<text text-anchor="middle" x="273.62" y="-2039.21" font-family="Helvetica,sans-Serif" font-size="10.00">v1.68.0</text>
</g>
<!-- fortio.org/memstore&#45;&gt;fortio.org/log -->
<g id="edge31" class="edge">
<title>fortio.org/memstore&#45;&gt;fortio.org/log</title>
<path fill="none" stroke="black" d="M187.21,-2170.12C204.48,-2174.08 222.89,-2179.03 239.5,-2185 317.59,-2213.07 323.27,-2269 406.25,-2269 406.25,-2269 406.25,-2269 996.88,-2269 1135.42,-2269 1184.2,-2308.69 1307.75,-2246 1338.47,-2230.41 1344.41,-2218.65 1358,-2187 1411.83,-2061.67 1428.77,-1626.27 1432.42,-1508.54"/>
<polygon fill="black" stroke="black" points="1435.91,-1508.88 1432.72,-1498.78 1428.92,-1508.67 1435.91,-1508.88"/>
<text text-anchor="middle" x="701.62" y="-2270.75" font-family="Helvetica,sans-Serif" font-size="10.00">v1.17.1</text>
</g>
<!-- fortio.org/memstore&#45;&gt;fortio.org/scli -->
<g id="edge32" class="edge">
<title>fortio.org/memstore&#45;&gt;fortio.org/scli</title>
<path fill="none" stroke="black" d="M187.27,-2148.38C205.68,-2143.2 224.66,-2135.24 239.5,-2123 276.95,-2092.1 276.73,-2072.77 289.75,-2026 298,-1996.37 287.26,-1772.69 307.75,-1749.75 367.61,-1682.73 425.74,-1752.88 506.75,-1714 542.91,-1696.64 576.49,-1664.54 597.6,-1641.59"/>
<polygon fill="black" stroke="black" points="599.96,-1644.2 604.04,-1634.42 594.75,-1639.52 599.96,-1644.2"/>
<text text-anchor="middle" x="407.25" y="-1751.5" font-family="Helvetica,sans-Serif" font-size="10.00">v1.15.3</text>
</g>
<!-- fortio.org/memstore&#45;&gt;fortio.org/sets -->
<g id="edge33" class="edge">
<title>fortio.org/memstore&#45;&gt;fortio.org/sets</title>
<path fill="none" stroke="black" d="M187.4,-2155.07C264.66,-2150.95 395.61,-2141.76 506.75,-2123 610.17,-2105.55 633.21,-2088.04 735.75,-2066 828.27,-2046.12 854.19,-2053.75 945.25,-2028 945.53,-2027.92 1050,-1987.19 1118.29,-1960.55"/>
<polygon fill="black" stroke="black" points="1119.47,-1963.85 1127.51,-1956.96 1116.92,-1957.33 1119.47,-1963.85"/>
<text text-anchor="middle" x="621.25" y="-2110.48" font-family="Helvetica,sans-Serif" font-size="10.00">v1.2.0</text>
</g>
<!-- fortio.org/multicurl -->
<g id="node10" class="node">
<title>fortio.org/multicurl</title>
<path fill="lightblue" stroke="black" d="M890.5,-471C890.5,-471 790.5,-471 790.5,-471 784.5,-471 778.5,-465 778.5,-459 778.5,-459 778.5,-447 778.5,-447 778.5,-441 784.5,-435 790.5,-435 790.5,-435 890.5,-435 890.5,-435 896.5,-435 902.5,-441 902.5,-447 902.5,-447 902.5,-459 902.5,-459 902.5,-465 896.5,-471 890.5,-471"/>
<text text-anchor="middle" x="840.5" y="-447.2" font-family="Helvetica,sans-Serif" font-size="14.00">fortio.org/multicurl</text>
</g>
<!-- fortio.org/multicurl&#45;&gt;fortio.org/cli -->
<g id="edge34" class="edge">
<title>fortio.org/multicurl&#45;&gt;fortio.org/cli</title>
<path fill="none" stroke="black" d="M902.82,-457.14C918.59,-461.09 934.2,-468.03 945.25,-480 976.47,-513.83 933.18,-547.15 963.25,-582 983.22,-605.15 1008.73,-580.44 1028.5,-603.75 1061.46,-642.62 1029.21,-669.06 1046.5,-717 1073.29,-791.3 1125.87,-868.62 1155.16,-908.51"/>
<polygon fill="black" stroke="black" points="1152.23,-910.44 1161,-916.38 1157.85,-906.26 1152.23,-910.44"/>
<text text-anchor="middle" x="995.88" y="-605.5" font-family="Helvetica,sans-Serif" font-size="10.00">v1.10.0</text>
</g>
<!-- fortio.org/multicurl&#45;&gt;fortio.org/log -->
<g id="edge35" class="edge">
<title>fortio.org/multicurl&#45;&gt;fortio.org/log</title>
<path fill="none" stroke="black" d="M902.64,-453.03C939.21,-453.45 986.57,-454.69 1028.5,-458 1090.9,-462.93 1256.38,-458.99 1307.75,-494.75 1347.03,-522.09 1344.55,-544.07 1358,-590 1406.87,-756.85 1427.9,-1314.7 1432.33,-1449.5"/>
<polygon fill="black" stroke="black" points="1428.83,-1449.46 1432.65,-1459.35 1435.83,-1449.24 1428.83,-1449.46"/>
<text text-anchor="middle" x="1177.12" y="-496.5" font-family="Helvetica,sans-Serif" font-size="10.00">v1.17.2</text>
</g>
<!-- fortio.org/progressbar -->
<g id="node12" class="node">
<title>fortio.org/progressbar</title>
<path fill="lightblue" stroke="black" d="M1237.62,-450C1237.62,-450 1116.62,-450 1116.62,-450 1110.62,-450 1104.62,-444 1104.62,-438 1104.62,-438 1104.62,-426 1104.62,-426 1104.62,-420 1110.62,-414 1116.62,-414 1116.62,-414 1237.62,-414 1237.62,-414 1243.62,-414 1249.62,-420 1249.62,-426 1249.62,-426 1249.62,-438 1249.62,-438 1249.62,-444 1243.62,-450 1237.62,-450"/>
<text text-anchor="middle" x="1177.12" y="-426.2" font-family="Helvetica,sans-Serif" font-size="14.00">fortio.org/progressbar</text>
</g>
<!-- fortio.org/multicurl&#45;&gt;fortio.org/progressbar -->
<g id="edge36" class="edge">
<title>fortio.org/multicurl&#45;&gt;fortio.org/progressbar</title>
<path fill="none" stroke="black" d="M895.07,-434.51C916.06,-428.17 940.52,-421.89 963.25,-418.75 1005.82,-412.88 1053.53,-415.05 1092.99,-419.18"/>
<polygon fill="black" stroke="black" points="1092.58,-422.66 1102.91,-420.29 1093.36,-415.7 1092.58,-422.66"/>
<text text-anchor="middle" x="995.88" y="-420.5" font-family="Helvetica,sans-Serif" font-size="10.00">v0.12.0</text>
</g>
<!-- fortio.org/multicurl&#45;&gt;fortio.org/testscript -->
<g id="edge37" class="edge">
<title>fortio.org/multicurl&#45;&gt;fortio.org/testscript</title>
<path fill="none" stroke="black" d="M902.75,-458.93C918.06,-462.93 933.46,-469.45 945.25,-480 961.92,-494.91 949.31,-509.51 963.25,-527 985.01,-554.3 1005,-544.92 1028.5,-570.75 1039.81,-583.18 1035.13,-591.63 1046.5,-604 1069.11,-628.6 1100.27,-649.33 1126.38,-664.15"/>
<polygon fill="black" stroke="black" points="1124.34,-667.03 1134.78,-668.81 1127.73,-660.9 1124.34,-667.03"/>
<text text-anchor="middle" x="995.88" y="-572.5" font-family="Helvetica,sans-Serif" font-size="10.00">v0.3.2</text>
</g>
<!-- fortio.org/multicurl&#45;&gt;fortio.org/version -->
<g id="edge38" class="edge">
<title>fortio.org/multicurl&#45;&gt;fortio.org/version</title>
<path fill="none" stroke="black" d="M902.88,-436.38C917,-431.92 931.81,-426.73 945.25,-421 953.67,-417.41 954.67,-414.19 963.25,-411 1108.8,-356.93 1158.27,-394.98 1307.75,-353 1333.92,-345.65 1361.96,-334.38 1384.89,-324.21"/>
<polygon fill="black" stroke="black" points="1386.31,-327.4 1393.99,-320.1 1383.43,-321.02 1386.31,-327.4"/>
<text text-anchor="middle" x="1177.12" y="-388.46" font-family="Helvetica,sans-Serif" font-size="10.00">v1.0.4</text>
</g>
<!-- fortio.org/otel&#45;sample&#45;app -->
<g id="node11" class="node">
<title>fortio.org/otel&#45;sample&#45;app</title>
<path fill="lightblue" stroke="black" d="M193,-2230C193,-2230 46.5,-2230 46.5,-2230 40.5,-2230 34.5,-2224 34.5,-2218 34.5,-2218 34.5,-2206 34.5,-2206 34.5,-2200 40.5,-2194 46.5,-2194 46.5,-2194 193,-2194 193,-2194 199,-2194 205,-2200 205,-2206 205,-2206 205,-2218 205,-2218 205,-2224 199,-2230 193,-2230"/>
<text text-anchor="middle" x="119.75" y="-2206.2" font-family="Helvetica,sans-Serif" font-size="14.00">fortio.org/otel&#45;sample&#45;app</text>
</g>
<!-- fortio.org/proxy -->
<g id="node13" class="node">
<title>fortio.org/proxy</title>
<path fill="lightblue" stroke="black" d="M160.75,-1638C160.75,-1638 78.75,-1638 78.75,-1638 72.75,-1638 66.75,-1632 66.75,-1626 66.75,-1626 66.75,-1614 66.75,-1614 66.75,-1608 72.75,-1602 78.75,-1602 78.75,-1602 160.75,-1602 160.75,-1602 166.75,-1602 172.75,-1608 172.75,-1614 172.75,-1614 172.75,-1626 172.75,-1626 172.75,-1632 166.75,-1638 160.75,-1638"/>
<text text-anchor="middle" x="119.75" y="-1614.2" font-family="Helvetica,sans-Serif" font-size="14.00">fortio.org/proxy</text>
</g>
<!-- fortio.org/proxy&#45;&gt;fortio.org/cli -->
<g id="edge39" class="edge">
<title>fortio.org/proxy&#45;&gt;fortio.org/cli</title>
<path fill="none" stroke="black" d="M172.16,-1601.54C209.37,-1585.81 258.43,-1559.87 289.75,-1523 304.5,-1505.64 292.07,-1491.53 307.75,-1475 374.16,-1404.95 429.73,-1446.18 506.75,-1388 534.78,-1366.83 538.38,-1356.78 557,-1327 648.17,-1181.17 651.79,-1133.84 717.75,-975 726.49,-953.96 717.08,-940.06 735.75,-927 796.75,-884.33 1019.69,-911.77 1122.96,-927.36"/>
<polygon fill="black" stroke="black" points="1122.15,-930.78 1132.56,-928.83 1123.21,-923.86 1122.15,-930.78"/>
<text text-anchor="middle" x="621.25" y="-1299.27" font-family="Helvetica,sans-Serif" font-size="10.00">v1.10.0</text>
</g>
<!-- fortio.org/proxy&#45;&gt;fortio.org/dflag -->
<g id="edge40" class="edge">
<title>fortio.org/proxy&#45;&gt;fortio.org/dflag</title>
<path fill="none" stroke="black" d="M133.53,-1638.43C157.54,-1673.83 209.64,-1754.42 239.5,-1829 251.76,-1859.62 240.25,-1872.89 257.5,-1901 267.43,-1917.18 278.42,-1913.77 289.75,-1929 301.38,-1944.64 291.7,-1957.93 307.75,-1969 382.32,-2020.46 654.22,-2011.89 777.72,-2005.04"/>
<polygon fill="black" stroke="black" points="777.9,-2008.54 787.69,-2004.47 777.5,-2001.55 777.9,-2008.54"/>
<text text-anchor="middle" x="540.88" y="-2011.49" font-family="Helvetica,sans-Serif" font-size="10.00">v1.8.1</text>
</g>
<!-- fortio.org/proxy&#45;&gt;fortio.org/fortio -->
<g id="edge41" class="edge">
<title>fortio.org/proxy&#45;&gt;fortio.org/fortio</title>
<path fill="none" stroke="black" d="M135.23,-1601.5C171.68,-1555.27 267.2,-1436.23 307.75,-1406 319.05,-1397.58 332.18,-1390.23 345.09,-1384.05"/>
<polygon fill="black" stroke="black" points="346.36,-1387.32 353.99,-1379.97 343.44,-1380.95 346.36,-1387.32"/>
<text text-anchor="middle" x="273.62" y="-1454.51" font-family="Helvetica,sans-Serif" font-size="10.00">v1.69.1</text>
</g>
<!-- fortio.org/proxy&#45;&gt;fortio.org/log -->
<g id="edge42" class="edge">
<title>fortio.org/proxy&#45;&gt;fortio.org/log</title>
<path fill="none" stroke="black" d="M130.94,-1638.37C165.77,-1700.81 279.42,-1901.95 307.75,-1919 355.4,-1947.68 1263.84,-1999.13 1307.75,-1965 1381.56,-1907.62 1419.81,-1604.99 1430.25,-1508.55"/>
<polygon fill="black" stroke="black" points="1433.71,-1509.16 1431.28,-1498.85 1426.75,-1508.43 1433.71,-1509.16"/>
<text text-anchor="middle" x="701.62" y="-1962.04" font-family="Helvetica,sans-Serif" font-size="10.00">v1.17.2</text>
</g>
<!-- fortio.org/proxy&#45;&gt;fortio.org/scli -->
<g id="edge43" class="edge">
<title>fortio.org/proxy&#45;&gt;fortio.org/scli</title>
<path fill="none" stroke="black" d="M172.79,-1619.48C267.04,-1618.54 465.25,-1616.55 563.11,-1615.57"/>
<polygon fill="black" stroke="black" points="563.05,-1619.07 573.02,-1615.47 562.98,-1612.07 563.05,-1619.07"/>
<text text-anchor="middle" x="407.25" y="-1619.83" font-family="Helvetica,sans-Serif" font-size="10.00">v1.16.1</text>
</g>
<!-- fortio.org/scli&#45;&gt;fortio.org/cli -->
<g id="edge44" class="edge">
<title>fortio.org/scli&#45;&gt;fortio.org/cli</title>
<path fill="none" stroke="black" d="M633.37,-1596.58C656.61,-1557.7 708.91,-1468.04 717.75,-1434 728.53,-1392.52 706.97,-1080.5 735.75,-1048.75 779.9,-1000.03 965.57,-1025.04 1028.5,-1006 1065.9,-994.68 1105.8,-975.27 1134.67,-959.76"/>
<polygon fill="black" stroke="black" points="1135.97,-963.04 1143.08,-955.18 1132.62,-956.89 1135.97,-963.04"/>
<text text-anchor="middle" x="840.5" y="-1050.5" font-family="Helvetica,sans-Serif" font-size="10.00">v1.10.0</text>
</g>
<!-- fortio.org/scli&#45;&gt;fortio.org/dflag -->
<g id="edge45" class="edge">
<title>fortio.org/scli&#45;&gt;fortio.org/dflag</title>
<path fill="none" stroke="black" d="M629.61,-1633.32C646.31,-1674.22 689.28,-1775.65 735.75,-1855 761.16,-1898.39 795.87,-1945.23 817.99,-1973.84"/>
<polygon fill="black" stroke="black" points="815.14,-1975.87 824.05,-1981.61 820.66,-1971.57 815.14,-1975.87"/>
<text text-anchor="middle" x="701.62" y="-1818.83" font-family="Helvetica,sans-Serif" font-size="10.00">v1.8.1</text>
</g>
<!-- fortio.org/scli&#45;&gt;fortio.org/log -->
<g id="edge46" class="edge">
<title>fortio.org/scli&#45;&gt;fortio.org/log</title>
<path fill="none" stroke="black" d="M667.96,-1618.73C809.64,-1629.47 1238.98,-1655.72 1358,-1590 1390.1,-1572.28 1411.19,-1534.35 1422.66,-1507.78"/>
<polygon fill="black" stroke="black" points="1425.87,-1509.17 1426.42,-1498.59 1419.39,-1506.52 1425.87,-1509.17"/>
<text text-anchor="middle" x="995.88" y="-1634.79" font-family="Helvetica,sans-Serif" font-size="10.00">v1.17.2</text>
</g>
<!-- fortio.org/scli&#45;&gt;fortio.org/version -->
<g id="edge47" class="edge">
<title>fortio.org/scli&#45;&gt;fortio.org/version</title>
<path fill="none" stroke="black" d="M636.03,-1596.76C646.86,-1581.25 661.14,-1557.91 667.5,-1535 687.62,-1462.49 677.3,-932.8 685.5,-858 693.69,-783.29 708.03,-766.53 717.75,-692 721.58,-662.63 716.58,-448.58 735.75,-426 747.23,-412.48 1029.05,-356.14 1046.5,-353 1161.68,-332.26 1191.83,-336.09 1307.75,-320 1326.19,-317.44 1346.12,-314.5 1364.56,-311.71"/>
<polygon fill="black" stroke="black" points="1364.96,-315.19 1374.32,-310.23 1363.9,-308.27 1364.96,-315.19"/>
<text text-anchor="middle" x="995.88" y="-371.22" font-family="Helvetica,sans-Serif" font-size="10.00">v1.0.4</text>
</g>
<!-- fortio.org/sets&#45;&gt;fortio.org/assert -->
<g id="edge48" class="edge">
<title>fortio.org/sets&#45;&gt;fortio.org/assert</title>
<path fill="none" stroke="black" d="M1208.85,-1956.41C1237.15,-1974.5 1278.99,-2004.25 1307.75,-2038 1362.44,-2102.19 1403.56,-2194.05 1422.21,-2240.21"/>
<polygon fill="black" stroke="black" points="1418.86,-2241.24 1425.8,-2249.24 1425.36,-2238.66 1418.86,-2241.24"/>
<text text-anchor="middle" x="1341.88" y="-2110.27" font-family="Helvetica,sans-Serif" font-size="10.00">v1.2.1</text>
</g>
<!-- fortio.org/slack&#45;proxy -->
<g id="node17" class="node">
<title>fortio.org/slack&#45;proxy</title>
<path fill="lightblue" stroke="black" d="M178.38,-2114C178.38,-2114 61.12,-2114 61.12,-2114 55.12,-2114 49.12,-2108 49.12,-2102 49.12,-2102 49.12,-2090 49.12,-2090 49.12,-2084 55.12,-2078 61.12,-2078 61.12,-2078 178.38,-2078 178.38,-2078 184.38,-2078 190.38,-2084 190.38,-2090 190.38,-2090 190.38,-2102 190.38,-2102 190.38,-2108 184.38,-2114 178.38,-2114"/>
<text text-anchor="middle" x="119.75" y="-2090.2" font-family="Helvetica,sans-Serif" font-size="14.00">fortio.org/slack&#45;proxy</text>
</g>
<!-- fortio.org/slack&#45;proxy&#45;&gt;fortio.org/assert -->
<g id="edge49" class="edge">
<title>fortio.org/slack&#45;proxy&#45;&gt;fortio.org/assert</title>
<path fill="none" stroke="black" d="M190.72,-2109.68C207.48,-2114.8 224.78,-2121.71 239.5,-2131 277.9,-2155.22 268.91,-2183.5 307.75,-2207 461.9,-2300.28 520.45,-2307 700.62,-2307 700.62,-2307 700.62,-2307 1178.12,-2307 1243.28,-2307 1316.78,-2294.73 1368.1,-2284.13"/>
<polygon fill="black" stroke="black" points="1368.8,-2287.56 1377.87,-2282.07 1367.36,-2280.71 1368.8,-2287.56"/>
<text text-anchor="middle" x="701.62" y="-2308.75" font-family="Helvetica,sans-Serif" font-size="10.00">v1.2.1</text>
</g>
<!-- fortio.org/slack&#45;proxy&#45;&gt;fortio.org/fortio -->
<g id="edge50" class="edge">
<title>fortio.org/slack&#45;proxy&#45;&gt;fortio.org/fortio</title>
<path fill="none" stroke="black" d="M133.74,-2077.61C158.33,-2041.88 211.71,-1959.84 239.5,-1883 280.71,-1769.04 271.67,-1734.83 289.75,-1615 300.23,-1545.55 276.97,-1521.13 307.75,-1458 321.83,-1429.12 348.12,-1403.92 370,-1386.44"/>
<polygon fill="black" stroke="black" points="372.09,-1389.25 377.86,-1380.37 367.81,-1383.71 372.09,-1389.25"/>
<text text-anchor="middle" x="273.62" y="-1824.62" font-family="Helvetica,sans-Serif" font-size="10.00">v1.69.1</text>
</g>
<!-- fortio.org/slack&#45;proxy&#45;&gt;fortio.org/log -->
<g id="edge51" class="edge">
<title>fortio.org/slack&#45;proxy&#45;&gt;fortio.org/log</title>
<path fill="none" stroke="black" d="M190.55,-2109.54C304.3,-2131.11 536.94,-2173.17 735.75,-2196 873.27,-2211.79 908.15,-2212.33 1046.5,-2217 1162.55,-2220.92 1212.79,-2283.81 1307.75,-2217 1426.18,-2133.68 1433.52,-1636.27 1433.44,-1508.76"/>
<polygon fill="black" stroke="black" points="1436.94,-1508.79 1433.41,-1498.8 1429.94,-1508.81 1436.94,-1508.79"/>
<text text-anchor="middle" x="701.62" y="-2195.43" font-family="Helvetica,sans-Serif" font-size="10.00">v1.17.2</text>
</g>
<!-- fortio.org/slack&#45;proxy&#45;&gt;fortio.org/scli -->
<g id="edge52" class="edge">
<title>fortio.org/slack&#45;proxy&#45;&gt;fortio.org/scli</title>
<path fill="none" stroke="black" d="M177.67,-2077.59C216.33,-2061.88 264.8,-2035.18 289.75,-1994 323.35,-1938.54 267.01,-1753.2 307.75,-1702.75 315.94,-1692.6 475.72,-1651.24 563.55,-1629.12"/>
<polygon fill="black" stroke="black" points="564.36,-1632.52 573.2,-1626.69 562.65,-1625.74 564.36,-1632.52"/>
<text text-anchor="middle" x="407.25" y="-1704.5" font-family="Helvetica,sans-Serif" font-size="10.00">v1.16.1</text>
</g>
<!-- fortio.org/term -->
<g id="node19" class="node">
<title>fortio.org/term</title>
<path fill="steelblue" stroke="black" d="M1251.12,-553C1251.12,-553 1103.12,-553 1103.12,-553 1097.12,-553 1091.12,-547 1091.12,-541 1091.12,-541 1091.12,-527 1091.12,-527 1091.12,-521 1097.12,-515 1103.12,-515 1103.12,-515 1251.12,-515 1251.12,-515 1257.12,-515 1263.12,-521 1263.12,-527 1263.12,-527 1263.12,-541 1263.12,-541 1263.12,-547 1257.12,-553 1251.12,-553"/>
<text text-anchor="middle" x="1177.12" y="-535.7" font-family="Helvetica,sans-Serif" font-size="14.00">fortio/term</text>
<text text-anchor="middle" x="1177.12" y="-520.7" font-family="Helvetica,sans-Serif" font-size="14.00">(fork of golang.org/x/term)</text>
</g>
<!-- fortio.org/terminal -->
<g id="node20" class="node">
<title>fortio.org/terminal</title>
<path fill="lightblue" stroke="black" d="M889.38,-525C889.38,-525 791.62,-525 791.62,-525 785.62,-525 779.62,-519 779.62,-513 779.62,-513 779.62,-501 779.62,-501 779.62,-495 785.62,-489 791.62,-489 791.62,-489 889.38,-489 889.38,-489 895.38,-489 901.38,-495 901.38,-501 901.38,-501 901.38,-513 901.38,-513 901.38,-519 895.38,-525 889.38,-525"/>
<text text-anchor="middle" x="840.5" y="-501.2" font-family="Helvetica,sans-Serif" font-size="14.00">fortio.org/terminal</text>
</g>
<!-- fortio.org/terminal&#45;&gt;fortio.org/cli -->
<g id="edge53" class="edge">
<title>fortio.org/terminal&#45;&gt;fortio.org/cli</title>
<path fill="none" stroke="black" d="M879.08,-525.36C900.77,-537.52 927.25,-555.23 945.25,-577 958.19,-592.65 952.15,-602 963.25,-619 986.46,-654.54 1002.97,-654.83 1028.5,-688.75 1036.05,-698.78 1122.6,-845.22 1159.56,-907.89"/>
<polygon fill="black" stroke="black" points="1156.38,-909.4 1164.48,-916.23 1162.41,-905.84 1156.38,-909.4"/>
<text text-anchor="middle" x="995.88" y="-690.5" font-family="Helvetica,sans-Serif" font-size="10.00">v1.10.0</text>
</g>
<!-- fortio.org/terminal&#45;&gt;fortio.org/log -->
<g id="edge54" class="edge">
<title>fortio.org/terminal&#45;&gt;fortio.org/log</title>
<path fill="none" stroke="black" d="M901.53,-516.12C938.97,-523.01 987.62,-534.21 1028.5,-551 1037.17,-554.56 1038,-558.04 1046.5,-562 1157.51,-613.76 1228.99,-555.95 1307.75,-649.75 1412.62,-774.64 1430.05,-1315.9 1432.77,-1449.23"/>
<polygon fill="black" stroke="black" points="1429.27,-1449.06 1432.96,-1458.99 1436.27,-1448.93 1429.27,-1449.06"/>
<text text-anchor="middle" x="1177.12" y="-651.5" font-family="Helvetica,sans-Serif" font-size="10.00">v1.17.2</text>
</g>
<!-- fortio.org/terminal&#45;&gt;fortio.org/safecast -->
<g id="edge55" class="edge">
<title>fortio.org/terminal&#45;&gt;fortio.org/safecast</title>
<path fill="none" stroke="black" d="M901.51,-501.62C945.18,-494.15 1001.25,-476.35 1028.5,-434 1056.48,-390.51 1013.06,-241.45 1046.5,-202 1060.79,-185.14 1082.43,-176.4 1103.95,-172.07"/>
<polygon fill="black" stroke="black" points="1104.38,-175.54 1113.66,-170.44 1103.22,-168.64 1104.38,-175.54"/>
<text text-anchor="middle" x="995.88" y="-484.61" font-family="Helvetica,sans-Serif" font-size="10.00">v1.0.0</text>
</g>
<!-- fortio.org/terminal&#45;&gt;fortio.org/term -->
<g id="edge56" class="edge">
<title>fortio.org/terminal&#45;&gt;fortio.org/term</title>
<path fill="none" stroke="black" d="M901.82,-506.64C938.51,-506.88 986.28,-508.05 1028.5,-511.75 1045.13,-513.21 1062.73,-515.34 1079.76,-517.72"/>
<polygon fill="black" stroke="black" points="1078.97,-521.14 1089.36,-519.09 1079.96,-514.21 1078.97,-521.14"/>
<text text-anchor="middle" x="995.88" y="-513.5" font-family="Helvetica,sans-Serif" font-size="10.00">v0.29.0&#45;fortio&#45;1</text>
</g>
<!-- fortio.org/terminal/fps -->
<g id="node21" class="node">
<title>fortio.org/terminal/fps</title>
<path fill="lightblue" stroke="black" d="M179.5,-400C179.5,-400 60,-400 60,-400 54,-400 48,-394 48,-388 48,-388 48,-376 48,-376 48,-370 54,-364 60,-364 60,-364 179.5,-364 179.5,-364 185.5,-364 191.5,-370 191.5,-376 191.5,-376 191.5,-388 191.5,-388 191.5,-394 185.5,-400 179.5,-400"/>
<text text-anchor="middle" x="119.75" y="-376.2" font-family="Helvetica,sans-Serif" font-size="14.00">fortio.org/terminal/fps</text>
</g>
<!-- fortio.org/terminal/fps&#45;&gt;fortio.org/cli -->
<g id="edge57" class="edge">
<title>fortio.org/terminal/fps&#45;&gt;fortio.org/cli</title>
<path fill="none" stroke="black" d="M125.62,-400.31C141.49,-456.28 197.14,-626.35 307.75,-711 381.81,-767.68 848.41,-807.53 945.25,-831 1015.72,-848.08 1091.06,-886.63 1135.85,-911.97"/>
<polygon fill="black" stroke="black" points="1134.01,-914.95 1144.43,-916.88 1137.49,-908.87 1134.01,-914.95"/>
<text text-anchor="middle" x="621.25" y="-792.09" font-family="Helvetica,sans-Serif" font-size="10.00">v1.10.0</text>
</g>
<!-- fortio.org/terminal/fps&#45;&gt;fortio.org/fortio -->
<g id="edge58" class="edge">
<title>fortio.org/terminal/fps&#45;&gt;fortio.org/fortio</title>
<path fill="none" stroke="black" d="M126.07,-400.25C160.78,-519.27 354.81,-1184.59 397.81,-1332.05"/>
<polygon fill="black" stroke="black" points="394.38,-1332.8 400.54,-1341.42 401.1,-1330.84 394.38,-1332.8"/>
<text text-anchor="middle" x="273.62" y="-960.94" font-family="Helvetica,sans-Serif" font-size="10.00">v1.69.1</text>
</g>
<!-- fortio.org/terminal/fps&#45;&gt;fortio.org/log -->
<g id="edge59" class="edge">
<title>fortio.org/terminal/fps&#45;&gt;fortio.org/log</title>
<path fill="none" stroke="black" d="M191.85,-373.75C376.07,-352.8 865.86,-299.98 1028.5,-311 1153.47,-319.46 1211.8,-268.49 1307.75,-349 1321.78,-360.77 1354.48,-488.03 1358,-506 1429.81,-872.53 1433.75,-1329.32 1433.45,-1449.12"/>
<polygon fill="black" stroke="black" points="1429.95,-1449.03 1433.42,-1459.04 1436.95,-1449.06 1429.95,-1449.03"/>
<text text-anchor="middle" x="701.62" y="-326.46" font-family="Helvetica,sans-Serif" font-size="10.00">v1.17.2</text>
</g>
<!-- fortio.org/terminal/fps&#45;&gt;fortio.org/safecast -->
<g id="edge60" class="edge">
<title>fortio.org/terminal/fps&#45;&gt;fortio.org/safecast</title>
<path fill="none" stroke="black" d="M150.94,-363.57C221.79,-321.52 405.54,-219.41 575,-183.75 762.4,-144.31 989.9,-154.34 1103.8,-163.18"/>
<polygon fill="black" stroke="black" points="1103.37,-166.66 1113.62,-163.97 1103.93,-159.68 1103.37,-166.66"/>
<text text-anchor="middle" x="621.25" y="-185.5" font-family="Helvetica,sans-Serif" font-size="10.00">v1.0.0</text>
</g>
<!-- fortio.org/terminal/fps&#45;&gt;fortio.org/terminal -->
<g id="edge61" class="edge">
<title>fortio.org/terminal/fps&#45;&gt;fortio.org/terminal</title>
<path fill="none" stroke="black" d="M191.96,-394.38C329.59,-418.32 630.62,-470.67 768.26,-494.61"/>
<polygon fill="black" stroke="black" points="767.53,-498.04 777.98,-496.3 768.73,-491.14 767.53,-498.04"/>
<text text-anchor="middle" x="540.88" y="-459.15" font-family="Helvetica,sans-Serif" font-size="10.00">v0.29.1</text>
</g>
<!-- github.com/fortio/delta -->
<g id="node24" class="node">
<title>github.com/fortio/delta</title>
<path fill="lightblue" stroke="black" d="M903.25,-1138C903.25,-1138 777.75,-1138 777.75,-1138 771.75,-1138 765.75,-1132 765.75,-1126 765.75,-1126 765.75,-1114 765.75,-1114 765.75,-1108 771.75,-1102 777.75,-1102 777.75,-1102 903.25,-1102 903.25,-1102 909.25,-1102 915.25,-1108 915.25,-1114 915.25,-1114 915.25,-1126 915.25,-1126 915.25,-1132 909.25,-1138 903.25,-1138"/>
<text text-anchor="middle" x="840.5" y="-1114.2" font-family="Helvetica,sans-Serif" font-size="14.00">github.com/fortio/delta</text>
</g>
<!-- github.com/fortio/delta&#45;&gt;fortio.org/cli -->
<g id="edge62" class="edge">
<title>github.com/fortio/delta&#45;&gt;fortio.org/cli</title>
<path fill="none" stroke="black" d="M907.42,-1101.58C920.12,-1097.49 933.21,-1092.91 945.25,-1088 953.58,-1084.61 954.98,-1082.29 963.25,-1078.75 991.48,-1066.65 1001.68,-1070.97 1028.5,-1056 1075.29,-1029.89 1122.06,-988.69 1150.04,-962"/>
<polygon fill="black" stroke="black" points="1152.25,-964.73 1157.02,-955.27 1147.39,-959.7 1152.25,-964.73"/>
<text text-anchor="middle" x="995.88" y="-1080.5" font-family="Helvetica,sans-Serif" font-size="10.00">v1.10.0</text>
</g>
<!-- github.com/fortio/delta&#45;&gt;fortio.org/log -->
<g id="edge63" class="edge">
<title>github.com/fortio/delta&#45;&gt;fortio.org/log</title>
<path fill="none" stroke="black" d="M915.57,-1122.77C1043.03,-1127.8 1291.82,-1138.94 1307.75,-1149.75 1409.48,-1218.81 1428.83,-1382.38 1432.45,-1449.49"/>
<polygon fill="black" stroke="black" points="1428.94,-1449.51 1432.89,-1459.34 1435.94,-1449.2 1428.94,-1449.51"/>
<text text-anchor="middle" x="1177.12" y="-1151.5" font-family="Helvetica,sans-Serif" font-size="10.00">v1.17.2</text>
</g>
<!-- github.com/fortio/delta&#45;&gt;fortio.org/sets -->
<g id="edge64" class="edge">
<title>github.com/fortio/delta&#45;&gt;fortio.org/sets</title>
<path fill="none" stroke="black" d="M915.66,-1129.19C926.6,-1133.25 936.96,-1138.97 945.25,-1147 965.56,-1166.66 943.61,-1187.67 963.25,-1208 984.49,-1229.99 1009.92,-1205.48 1028.5,-1229.75 1049.49,-1257.17 1040.1,-1506.07 1046.5,-1540 1073.37,-1682.48 1137.09,-1844.62 1163.9,-1909.24"/>
<polygon fill="black" stroke="black" points="1160.65,-1910.52 1167.73,-1918.4 1167.11,-1907.82 1160.65,-1910.52"/>
<text text-anchor="middle" x="995.88" y="-1231.5" font-family="Helvetica,sans-Serif" font-size="10.00">v1.2.0</text>
</g>
<!-- github.com/fortio/delta&#45;&gt;fortio.org/testscript -->
<g id="edge65" class="edge">
<title>github.com/fortio/delta&#45;&gt;fortio.org/testscript</title>
<path fill="none" stroke="black" d="M875.88,-1101.66C897.44,-1089.04 924.92,-1070.84 945.25,-1050 998.84,-995.08 1115.99,-794.24 1159.46,-718.33"/>
<polygon fill="black" stroke="black" points="1162.41,-720.21 1164.34,-709.79 1156.34,-716.73 1162.41,-720.21"/>
<text text-anchor="middle" x="995.88" y="-1025.08" font-family="Helvetica,sans-Serif" font-size="10.00">v0.3.2</text>
</g>
<!-- github.com/fortio/h2cli -->
<g id="node25" class="node">
<title>github.com/fortio/h2cli</title>
<path fill="lightblue" stroke="black" d="M902.5,-1354C902.5,-1354 778.5,-1354 778.5,-1354 772.5,-1354 766.5,-1348 766.5,-1342 766.5,-1342 766.5,-1330 766.5,-1330 766.5,-1324 772.5,-1318 778.5,-1318 778.5,-1318 902.5,-1318 902.5,-1318 908.5,-1318 914.5,-1324 914.5,-1330 914.5,-1330 914.5,-1342 914.5,-1342 914.5,-1348 908.5,-1354 902.5,-1354"/>
<text text-anchor="middle" x="840.5" y="-1330.2" font-family="Helvetica,sans-Serif" font-size="14.00">github.com/fortio/h2cli</text>
</g>
<!-- github.com/fortio/h2cli&#45;&gt;fortio.org/cli -->
<g id="edge66" class="edge">
<title>github.com/fortio/h2cli&#45;&gt;fortio.org/cli</title>
<path fill="none" stroke="black" d="M914.74,-1338.84C954.23,-1336.2 1000.47,-1325.62 1028.5,-1294 1054.87,-1264.25 1032.4,-1153.17 1046.5,-1116 1069.69,-1054.85 1119.16,-995.62 1149.83,-962.67"/>
<polygon fill="black" stroke="black" points="1152.2,-965.25 1156.53,-955.58 1147.12,-960.45 1152.2,-965.25"/>
<text text-anchor="middle" x="995.88" y="-1331.54" font-family="Helvetica,sans-Serif" font-size="10.00">v1.10.0</text>
</g>
<!-- github.com/fortio/h2cli&#45;&gt;fortio.org/log -->
<g id="edge67" class="edge">
<title>github.com/fortio/h2cli&#45;&gt;fortio.org/log</title>
<path fill="none" stroke="black" d="M914.78,-1351.8C925.58,-1356.01 936.13,-1361.32 945.25,-1368 956.59,-1376.31 951.01,-1387.09 963.25,-1394 1030.04,-1431.72 1231.81,-1404.92 1307.75,-1415.75 1330.41,-1418.98 1337.03,-1417.83 1358,-1427 1373.69,-1433.86 1389.51,-1444.17 1402.57,-1453.8"/>
<polygon fill="black" stroke="black" points="1400.27,-1456.45 1410.35,-1459.72 1404.51,-1450.88 1400.27,-1456.45"/>
<text text-anchor="middle" x="1177.12" y="-1417.5" font-family="Helvetica,sans-Serif" font-size="10.00">v1.17.2</text>
</g>
<!-- github.com/fortio/h2demo -->
<g id="node26" class="node">
<title>github.com/fortio/h2demo</title>
<path fill="lightblue" stroke="black" d="M192.62,-2284C192.62,-2284 46.87,-2284 46.87,-2284 40.88,-2284 34.88,-2278 34.88,-2272 34.88,-2272 34.88,-2260 34.88,-2260 34.88,-2254 40.88,-2248 46.88,-2248 46.88,-2248 192.62,-2248 192.62,-2248 198.62,-2248 204.62,-2254 204.62,-2260 204.62,-2260 204.62,-2272 204.62,-2272 204.62,-2278 198.62,-2284 192.62,-2284"/>
<text text-anchor="middle" x="119.75" y="-2260.2" font-family="Helvetica,sans-Serif" font-size="14.00">github.com/fortio/h2demo</text>
</g>
<!-- github.com/fortio/logger&#45;bench -->
<g id="node27" class="node">
<title>github.com/fortio/logger&#45;bench</title>
<path fill="lightblue" stroke="black" d="M494.75,-1806C494.75,-1806 319.75,-1806 319.75,-1806 313.75,-1806 307.75,-1800 307.75,-1794 307.75,-1794 307.75,-1782 307.75,-1782 307.75,-1776 313.75,-1770 319.75,-1770 319.75,-1770 494.75,-1770 494.75,-1770 500.75,-1770 506.75,-1776 506.75,-1782 506.75,-1782 506.75,-1794 506.75,-1794 506.75,-1800 500.75,-1806 494.75,-1806"/>
<text text-anchor="middle" x="407.25" y="-1782.2" font-family="Helvetica,sans-Serif" font-size="14.00">github.com/fortio/logger&#45;bench</text>
</g>
<!-- github.com/fortio/logger&#45;bench&#45;&gt;fortio.org/cli -->
<g id="edge68" class="edge">
<title>github.com/fortio/logger&#45;bench&#45;&gt;fortio.org/cli</title>
<path fill="none" stroke="black" d="M491.81,-1769.51C496.89,-1768.07 501.9,-1766.57 506.75,-1765 592.35,-1737.33 624.58,-1721.06 667.5,-1642 690.14,-1600.29 669.01,-1581.25 685.5,-1536.75 695.18,-1510.63 709.7,-1509.67 717.75,-1483 730.29,-1441.47 706.81,-1125.32 735.75,-1093 767.19,-1057.89 899.98,-1073.12 945.25,-1060 983.97,-1048.77 992.61,-1042.36 1028.5,-1024 1066.8,-1004.41 1108.8,-978.96 1138.17,-960.48"/>
<polygon fill="black" stroke="black" points="1139.76,-963.61 1146.34,-955.31 1136.02,-957.7 1139.76,-963.61"/>
<text text-anchor="middle" x="701.62" y="-1538.5" font-family="Helvetica,sans-Serif" font-size="10.00">v1.10.0</text>
</g>
<!-- github.com/fortio/logger&#45;bench&#45;&gt;fortio.org/log -->
<g id="edge69" class="edge">
<title>github.com/fortio/logger&#45;bench&#45;&gt;fortio.org/log</title>
<path fill="none" stroke="black" d="M507.06,-1783.21C710,-1772.19 1166.55,-1740.91 1307.75,-1677 1376.79,-1645.75 1411.8,-1555.19 1425.75,-1508.15"/>
<polygon fill="black" stroke="black" points="1429.08,-1509.22 1428.44,-1498.64 1422.35,-1507.31 1429.08,-1509.22"/>
<text text-anchor="middle" x="840.5" y="-1769.48" font-family="Helvetica,sans-Serif" font-size="10.00">v1.17.2</text>
</g>
<!-- github.com/fortio/logger&#45;bench&#45;&gt;fortio.org/scli -->
<g id="edge70" class="edge">
<title>github.com/fortio/logger&#45;bench&#45;&gt;fortio.org/scli</title>
<path fill="none" stroke="black" d="M469.88,-1769.55C482.57,-1764.47 495.49,-1758.31 506.75,-1751 516.31,-1744.8 516.06,-1740.12 524.75,-1732.75 538.13,-1721.41 544.77,-1722.57 557,-1710 576.54,-1689.93 593.78,-1663.06 605.31,-1643.02"/>
<polygon fill="black" stroke="black" points="608.22,-1644.98 610.06,-1634.55 602.12,-1641.56 608.22,-1644.98"/>
<text text-anchor="middle" x="540.88" y="-1734.5" font-family="Helvetica,sans-Serif" font-size="10.00">v1.16.1</text>
</g>
<!-- github.com/fortio/logger&#45;bench&#45;&gt;fortio.org/sets -->
<g id="edge71" class="edge">
<title>github.com/fortio/logger&#45;bench&#45;&gt;fortio.org/sets</title>
<path fill="none" stroke="black" d="M470.72,-1806.39C498.43,-1816.12 530.65,-1829.68 557,-1847 566.45,-1853.21 564.83,-1860.05 575,-1865 581.08,-1867.96 965.74,-1913.32 1116.47,-1931.01"/>
<polygon fill="black" stroke="black" points="1115.92,-1934.47 1126.26,-1932.16 1116.73,-1927.52 1115.92,-1934.47"/>
<text text-anchor="middle" x="701.62" y="-1884.86" font-family="Helvetica,sans-Serif" font-size="10.00">v1.3.0</text>
</g>
<!-- github.com/fortio/semtest/v2 -->
<g id="node28" class="node">
<title>github.com/fortio/semtest/v2</title>
<path fill="lightblue" stroke="black" d="M200.88,-1338C200.88,-1338 38.62,-1338 38.62,-1338 32.62,-1338 26.62,-1332 26.62,-1326 26.62,-1326 26.62,-1314 26.62,-1314 26.62,-1308 32.62,-1302 38.62,-1302 38.62,-1302 200.88,-1302 200.88,-1302 206.88,-1302 212.88,-1308 212.88,-1314 212.88,-1314 212.88,-1326 212.88,-1326 212.88,-1332 206.88,-1338 200.88,-1338"/>
<text text-anchor="middle" x="119.75" y="-1314.2" font-family="Helvetica,sans-Serif" font-size="14.00">github.com/fortio/semtest/v2</text>
</g>
<!-- github.com/fortio/semtest/v2&#45;&gt;fortio.org/fortio -->
<g id="edge72" class="edge">
<title>github.com/fortio/semtest/v2&#45;&gt;fortio.org/fortio</title>
<path fill="none" stroke="black" d="M213.05,-1333.25C256.05,-1339.43 306.06,-1346.61 344.43,-1352.12"/>
<polygon fill="black" stroke="black" points="343.53,-1355.53 353.93,-1353.49 344.53,-1348.6 343.53,-1355.53"/>
<text text-anchor="middle" x="273.62" y="-1345.92" font-family="Helvetica,sans-Serif" font-size="10.00">v1.35.0</text>
</g>
<!-- github.com/fortio/workflows -->
<g id="node29" class="node">
<title>github.com/fortio/workflows</title>
<path fill="lightblue" stroke="black" d="M485,-1886C485,-1886 329.5,-1886 329.5,-1886 323.5,-1886 317.5,-1880 317.5,-1874 317.5,-1874 317.5,-1862 317.5,-1862 317.5,-1856 323.5,-1850 329.5,-1850 329.5,-1850 485,-1850 485,-1850 491,-1850 497,-1856 497,-1862 497,-1862 497,-1874 497,-1874 497,-1880 491,-1886 485,-1886"/>
<text text-anchor="middle" x="407.25" y="-1862.2" font-family="Helvetica,sans-Serif" font-size="14.00">github.com/fortio/workflows</text>
</g>
<!-- github.com/fortio/workflows&#45;&gt;fortio.org/log -->
<g id="edge73" class="edge">
<title>github.com/fortio/workflows&#45;&gt;fortio.org/log</title>
<path fill="none" stroke="black" d="M447.99,-1849.61C481.14,-1835.33 530.06,-1816.72 575,-1809 615.52,-1802.04 626.4,-1807.86 667.5,-1809 675.51,-1809.22 677.49,-1809.78 685.5,-1810 699.83,-1810.4 703.44,-1810.85 717.75,-1810 982.54,-1794.34 1073.96,-1845.32 1307.75,-1720 1387.57,-1677.21 1418.25,-1563.07 1428.61,-1508.65"/>
<polygon fill="black" stroke="black" points="1432.04,-1509.33 1430.35,-1498.87 1425.15,-1508.1 1432.04,-1509.33"/>
<text text-anchor="middle" x="840.5" y="-1810.75" font-family="Helvetica,sans-Serif" font-size="10.00">v1.17.2</text>
</g>
<!-- github.com/fortio/workflows&#45;&gt;fortio.org/scli -->
<g id="edge74" class="edge">
<title>github.com/fortio/workflows&#45;&gt;fortio.org/scli</title>
<path fill="none" stroke="black" d="M452.02,-1849.54C470.09,-1840.68 490.56,-1828.93 506.75,-1815 561.64,-1767.77 595.72,-1687.08 610.93,-1644.04"/>
<polygon fill="black" stroke="black" points="614.22,-1645.23 614.15,-1634.64 607.6,-1642.97 614.22,-1645.23"/>
<text text-anchor="middle" x="540.88" y="-1794.95" font-family="Helvetica,sans-Serif" font-size="10.00">v1.16.1</text>
</g>
<!-- github.com/ldemailly/advent24 -->
<g id="node30" class="node">
<title>github.com/ldemailly/advent24</title>
<path fill="lightsalmon" stroke="black" d="M928,-2111C928,-2111 753,-2111 753,-2111 747,-2111 741,-2105 741,-2099 741,-2099 741,-2087 741,-2087 741,-2081 747,-2075 753,-2075 753,-2075 928,-2075 928,-2075 934,-2075 940,-2081 940,-2087 940,-2087 940,-2099 940,-2099 940,-2105 934,-2111 928,-2111"/>
<text text-anchor="middle" x="840.5" y="-2087.2" font-family="Helvetica,sans-Serif" font-size="14.00">github.com/ldemailly/advent24</text>
</g>
<!-- github.com/ldemailly/advent24&#45;&gt;fortio.org/sets -->
<g id="edge75" class="edge">
<title>github.com/ldemailly/advent24&#45;&gt;fortio.org/sets</title>
<path fill="none" stroke="black" d="M908.03,-2074.54C920.55,-2070.49 933.42,-2065.92 945.25,-2061 1014.83,-2032.04 1091.22,-1988.94 1136.35,-1962.2"/>
<polygon fill="black" stroke="black" points="1137.94,-1965.33 1144.74,-1957.2 1134.35,-1959.32 1137.94,-1965.33"/>
<text text-anchor="middle" x="995.88" y="-2054.37" font-family="Helvetica,sans-Serif" font-size="10.00">v1.2.0</text>
</g>
<!-- github.com/ldemailly/depgraph -->
<g id="node31" class="node">
<title>github.com/ldemailly/depgraph</title>
<path fill="lightsalmon" stroke="black" d="M928.75,-1192C928.75,-1192 752.25,-1192 752.25,-1192 746.25,-1192 740.25,-1186 740.25,-1180 740.25,-1180 740.25,-1168 740.25,-1168 740.25,-1162 746.25,-1156 752.25,-1156 752.25,-1156 928.75,-1156 928.75,-1156 934.75,-1156 940.75,-1162 940.75,-1168 940.75,-1168 940.75,-1180 940.75,-1180 940.75,-1186 934.75,-1192 928.75,-1192"/>
<text text-anchor="middle" x="840.5" y="-1168.2" font-family="Helvetica,sans-Serif" font-size="14.00">github.com/ldemailly/depgraph</text>
</g>
<!-- github.com/ldemailly/depgraph&#45;&gt;fortio.org/cli -->
<g id="edge76" class="edge">
<title>github.com/ldemailly/depgraph&#45;&gt;fortio.org/cli</title>
<path fill="none" stroke="black" d="M923.42,-1155.55C930.92,-1153.01 938.31,-1150.16 945.25,-1147 965.65,-1137.7 1011.4,-1104.5 1028.5,-1090 1076.52,-1049.27 1125.87,-994.72 1153.6,-962.66"/>
<polygon fill="black" stroke="black" points="1155.98,-965.26 1159.85,-955.4 1150.67,-960.7 1155.98,-965.26"/>
<text text-anchor="middle" x="995.88" y="-1138.52" font-family="Helvetica,sans-Serif" font-size="10.00">v1.10.0</text>
</g>
<!-- github.com/ldemailly/depgraph&#45;&gt;fortio.org/log -->
<g id="edge77" class="edge">
<title>github.com/ldemailly/depgraph&#45;&gt;fortio.org/log</title>
<path fill="none" stroke="black" d="M940.88,-1164.21C1042.52,-1159.48 1200.33,-1167.3 1307.75,-1244.75 1378.43,-1295.71 1413.13,-1398.97 1426.47,-1449.63"/>
<polygon fill="black" stroke="black" points="1423.06,-1450.44 1428.9,-1459.28 1429.85,-1448.72 1423.06,-1450.44"/>
<text text-anchor="middle" x="1177.12" y="-1246.5" font-family="Helvetica,sans-Serif" font-size="10.00">v1.17.2</text>
</g>
<!-- github.com/ldemailly/go&#45;scratch -->
<g id="node32" class="node">
<title>github.com/ldemailly/go&#45;scratch</title>
<path fill="lightsalmon" stroke="black" d="M211,-1466C211,-1466 28.5,-1466 28.5,-1466 22.5,-1466 16.5,-1460 16.5,-1454 16.5,-1454 16.5,-1442 16.5,-1442 16.5,-1436 22.5,-1430 28.5,-1430 28.5,-1430 211,-1430 211,-1430 217,-1430 223,-1436 223,-1442 223,-1442 223,-1454 223,-1454 223,-1460 217,-1466 211,-1466"/>
<text text-anchor="middle" x="119.75" y="-1442.2" font-family="Helvetica,sans-Serif" font-size="14.00">github.com/ldemailly/go&#45;scratch</text>
</g>
<!-- github.com/ldemailly/go&#45;scratch&#45;&gt;fortio.org/cli -->
<g id="edge78" class="edge">
<title>github.com/ldemailly/go&#45;scratch&#45;&gt;fortio.org/cli</title>
<path fill="none" stroke="black" d="M203.86,-1429.57C217.82,-1422.82 230.62,-1413.6 239.5,-1401 273.69,-1352.47 217.51,-910.88 257.5,-867 360.44,-754.03 792.89,-849.9 945.25,-862 982.26,-864.94 992.57,-859.64 1028.5,-869 1065.73,-878.7 1105.3,-897.15 1134.09,-912.24"/>
<polygon fill="black" stroke="black" points="1132.38,-915.29 1142.85,-916.91 1135.67,-909.11 1132.38,-915.29"/>
<text text-anchor="middle" x="621.25" y="-827.75" font-family="Helvetica,sans-Serif" font-size="10.00">v1.4.2</text>
</g>
<!-- github.com/ldemailly/go&#45;scratch&#45;&gt;fortio.org/fortio -->
<g id="edge79" class="edge">
<title>github.com/ldemailly/go&#45;scratch&#45;&gt;fortio.org/fortio</title>
<path fill="none" stroke="black" d="M181.3,-1429.55C229.28,-1414.93 296.07,-1394.58 344.39,-1379.85"/>
<polygon fill="black" stroke="black" points="345.34,-1383.22 353.88,-1376.96 343.3,-1376.52 345.34,-1383.22"/>
<text text-anchor="middle" x="273.62" y="-1406.25" font-family="Helvetica,sans-Serif" font-size="10.00">v1.60.3</text>
</g>
<!-- github.com/ldemailly/go&#45;scratch&#45;&gt;fortio.org/log -->
<g id="edge80" class="edge">
<title>github.com/ldemailly/go&#45;scratch&#45;&gt;fortio.org/log</title>
<path fill="none" stroke="black" d="M140.48,-1466.12C167.14,-1491.74 214.23,-1541.25 239.5,-1593 299.88,-1716.65 200.26,-1809.09 307.75,-1895 395.16,-1964.86 1213.56,-1836.4 1307.75,-1776 1400.96,-1716.23 1425.06,-1571.5 1431.19,-1508.79"/>
<polygon fill="black" stroke="black" points="1434.67,-1509.17 1432.06,-1498.9 1427.7,-1508.56 1434.67,-1509.17"/>
<text text-anchor="middle" x="701.62" y="-1900.4" font-family="Helvetica,sans-Serif" font-size="10.00">v1.11.0</text>
</g>
<!-- github.com/ldemailly/go&#45;scratch&#45;&gt;fortio.org/scli -->
<g id="edge81" class="edge">
<title>github.com/ldemailly/go&#45;scratch&#45;&gt;fortio.org/scli</title>
<path fill="none" stroke="black" d="M223.25,-1463.84C319.94,-1479.74 457.21,-1505.06 506.75,-1527.75 539.72,-1542.85 571.97,-1569.08 593.62,-1588.85"/>
<polygon fill="black" stroke="black" points="591.13,-1591.31 600.83,-1595.57 595.9,-1586.19 591.13,-1591.31"/>
<text text-anchor="middle" x="407.25" y="-1529.5" font-family="Helvetica,sans-Serif" font-size="10.00">v1.12.0</text>
</g>
<!-- github.com/ldemailly/gohook_sample -->
<g id="node33" class="node">
<title>github.com/ldemailly/gohook_sample</title>
<path fill="lightsalmon" stroke="black" d="M227.5,-1392C227.5,-1392 12,-1392 12,-1392 6,-1392 0,-1386 0,-1380 0,-1380 0,-1368 0,-1368 0,-1362 6,-1356 12,-1356 12,-1356 227.5,-1356 227.5,-1356 233.5,-1356 239.5,-1362 239.5,-1368 239.5,-1368 239.5,-1380 239.5,-1380 239.5,-1386 233.5,-1392 227.5,-1392"/>
<text text-anchor="middle" x="119.75" y="-1368.2" font-family="Helvetica,sans-Serif" font-size="14.00">github.com/ldemailly/gohook_sample</text>
</g>
<!-- github.com/ldemailly/gohook_sample&#45;&gt;fortio.org/fortio -->
<g id="edge82" class="edge">
<title>github.com/ldemailly/gohook_sample&#45;&gt;fortio.org/fortio</title>
<path fill="none" stroke="black" d="M239.76,-1368.58C275.58,-1366.95 313.45,-1365.23 344,-1363.83"/>
<polygon fill="black" stroke="black" points="343.99,-1367.34 353.82,-1363.39 343.68,-1360.35 343.99,-1367.34"/>
<text text-anchor="middle" x="273.62" y="-1369.25" font-family="Helvetica,sans-Serif" font-size="10.00">v1.21.1</text>
</g>
<!-- github.com/ldemailly/lll&#45;fixer -->
<g id="node34" class="node">
<title>github.com/ldemailly/lll&#45;fixer</title>
<path fill="lightsalmon" stroke="black" d="M919.75,-1300C919.75,-1300 761.25,-1300 761.25,-1300 755.25,-1300 749.25,-1294 749.25,-1288 749.25,-1288 749.25,-1276 749.25,-1276 749.25,-1270 755.25,-1264 761.25,-1264 761.25,-1264 919.75,-1264 919.75,-1264 925.75,-1264 931.75,-1270 931.75,-1276 931.75,-1276 931.75,-1288 931.75,-1288 931.75,-1294 925.75,-1300 919.75,-1300"/>
<text text-anchor="middle" x="840.5" y="-1276.2" font-family="Helvetica,sans-Serif" font-size="14.00">github.com/ldemailly/lll&#45;fixer</text>
</g>
<!-- github.com/ldemailly/lll&#45;fixer&#45;&gt;fortio.org/cli -->
<g id="edge83" class="edge">
<title>github.com/ldemailly/lll&#45;fixer&#45;&gt;fortio.org/cli</title>
<path fill="none" stroke="black" d="M932.12,-1285.25C966.84,-1281.62 1003.95,-1270.98 1028.5,-1245 1068.26,-1202.92 1024.95,-1169.73 1046.5,-1116 1070.97,-1054.97 1120.46,-995.28 1150.71,-962.29"/>
<polygon fill="black" stroke="black" points="1153.05,-964.92 1157.3,-955.21 1147.92,-960.15 1153.05,-964.92"/>
<text text-anchor="middle" x="995.88" y="-1280.64" font-family="Helvetica,sans-Serif" font-size="10.00">v1.9.0</text>
</g>
<!-- github.com/ldemailly/lll&#45;fixer&#45;&gt;fortio.org/log -->
<g id="edge84" class="edge">
<title>github.com/ldemailly/lll&#45;fixer&#45;&gt;fortio.org/log</title>
<path fill="none" stroke="black" d="M923.23,-1300.48C1016.68,-1322.02 1174.02,-1359.58 1307.75,-1397.75 1330.32,-1404.19 1337.54,-1402.49 1358,-1414 1376.44,-1424.38 1394.47,-1439.72 1408.26,-1452.89"/>
<polygon fill="black" stroke="black" points="1405.59,-1455.18 1415.18,-1459.69 1410.5,-1450.18 1405.59,-1455.18"/>
<text text-anchor="middle" x="1177.12" y="-1399.5" font-family="Helvetica,sans-Serif" font-size="10.00">v1.16.0</text>
</g>
<!-- github.com/ldemailly/panic&#45;linter -->
<g id="node35" class="node">
<title>github.com/ldemailly/panic&#45;linter</title>
<path fill="lightsalmon" stroke="black" d="M933.25,-2165C933.25,-2165 747.75,-2165 747.75,-2165 741.75,-2165 735.75,-2159 735.75,-2153 735.75,-2153 735.75,-2141 735.75,-2141 735.75,-2135 741.75,-2129 747.75,-2129 747.75,-2129 933.25,-2129 933.25,-2129 939.25,-2129 945.25,-2135 945.25,-2141 945.25,-2141 945.25,-2153 945.25,-2153 945.25,-2159 939.25,-2165 933.25,-2165"/>
<text text-anchor="middle" x="840.5" y="-2141.2" font-family="Helvetica,sans-Serif" font-size="14.00">github.com/ldemailly/panic&#45;linter</text>
</g>
<!-- github.com/ldemailly/panic&#45;linter&#45;&gt;fortio.org/sets -->
<g id="edge85" class="edge">
<title>github.com/ldemailly/panic&#45;linter&#45;&gt;fortio.org/sets</title>
<path fill="none" stroke="black" d="M922.46,-2128.51C930.27,-2125.96 937.98,-2123.13 945.25,-2120 985.32,-2102.75 997.93,-2099.12 1028.5,-2068 1039.4,-2056.91 1036.16,-2049.62 1046.5,-2038 1073.03,-2008.18 1109.47,-1980.98 1136.95,-1962.5"/>
<polygon fill="black" stroke="black" points="1138.6,-1965.61 1145.01,-1957.18 1134.73,-1959.77 1138.6,-1965.61"/>
<text text-anchor="middle" x="995.88" y="-2113.52" font-family="Helvetica,sans-Serif" font-size="10.00">v1.2.0</text>
</g>
<!-- github.com/ldemailly/quartiles -->
<g id="node36" class="node">
<title>github.com/ldemailly/quartiles</title>
<path fill="lightsalmon" stroke="black" d="M925.75,-1493C925.75,-1493 755.25,-1493 755.25,-1493 749.25,-1493 743.25,-1487 743.25,-1481 743.25,-1481 743.25,-1469 743.25,-1469 743.25,-1463 749.25,-1457 755.25,-1457 755.25,-1457 925.75,-1457 925.75,-1457 931.75,-1457 937.75,-1463 937.75,-1469 937.75,-1469 937.75,-1481 937.75,-1481 937.75,-1487 931.75,-1493 925.75,-1493"/>
<text text-anchor="middle" x="840.5" y="-1469.2" font-family="Helvetica,sans-Serif" font-size="14.00">github.com/ldemailly/quartiles</text>
</g>
<!-- github.com/ldemailly/quartiles&#45;&gt;fortio.org/cli -->
<g id="edge86" class="edge">
<title>github.com/ldemailly/quartiles&#45;&gt;fortio.org/cli</title>
<path fill="none" stroke="black" d="M923.79,-1456.62C931.5,-1452.88 938.83,-1448.4 945.25,-1443 958.72,-1431.68 952.77,-1421.88 963.25,-1407.75 987.23,-1375.44 1011.3,-1381.37 1028.5,-1345 1072.14,-1252.71 1011.37,-1211.86 1046.5,-1116 1069,-1054.59 1118.69,-995.45 1149.6,-962.58"/>
<polygon fill="black" stroke="black" points="1151.98,-965.16 1156.35,-955.51 1146.92,-960.33 1151.98,-965.16"/>
<text text-anchor="middle" x="995.88" y="-1409.5" font-family="Helvetica,sans-Serif" font-size="10.00">v1.10.0</text>
</g>
<!-- github.com/ldemailly/quartiles&#45;&gt;fortio.org/log -->
<g id="edge87" class="edge">
<title>github.com/ldemailly/quartiles&#45;&gt;fortio.org/log</title>
<path fill="none" stroke="black" d="M937.85,-1485.63C1041.75,-1495.39 1211.92,-1506.47 1358,-1493 1364.36,-1492.41 1370.98,-1491.55 1377.54,-1490.54"/>
<polygon fill="black" stroke="black" points="1377.69,-1494.07 1386.98,-1488.97 1376.54,-1487.16 1377.69,-1494.07"/>
<text text-anchor="middle" x="1177.12" y="-1501" font-family="Helvetica,sans-Serif" font-size="10.00">v1.17.2</text>
</g>
<!-- github.com/ldemailly/quartiles&#45;&gt;fortio.org/sets -->
<g id="edge88" class="edge">
<title>github.com/ldemailly/quartiles&#45;&gt;fortio.org/sets</title>
<path fill="none" stroke="black" d="M923.05,-1493.44C969.57,-1504.61 1020.24,-1518.12 1028.5,-1525.75 1143,-1631.56 1168.79,-1832.41 1174.52,-1908.12"/>
<polygon fill="black" stroke="black" points="1171.02,-1908.31 1175.2,-1918.05 1178.01,-1907.84 1171.02,-1908.31"/>
<text text-anchor="middle" x="995.88" y="-1527.5" font-family="Helvetica,sans-Serif" font-size="10.00">v1.3.0</text>
</g>
<!-- github.com/ldemailly/rate -->
<g id="node37" class="node">
<title>github.com/ldemailly/rate</title>
<path fill="lightsalmon" stroke="black" d="M911.88,-1246C911.88,-1246 769.12,-1246 769.12,-1246 763.12,-1246 757.12,-1240 757.12,-1234 757.12,-1234 757.12,-1222 757.12,-1222 757.12,-1216 763.12,-1210 769.12,-1210 769.12,-1210 911.88,-1210 911.88,-1210 917.88,-1210 923.88,-1216 923.88,-1222 923.88,-1222 923.88,-1234 923.88,-1234 923.88,-1240 917.88,-1246 911.88,-1246"/>
<text text-anchor="middle" x="840.5" y="-1222.2" font-family="Helvetica,sans-Serif" font-size="14.00">github.com/ldemailly/rate</text>
</g>
<!-- github.com/ldemailly/rate&#45;&gt;fortio.org/cli -->
<g id="edge89" class="edge">
<title>github.com/ldemailly/rate&#45;&gt;fortio.org/cli</title>
<path fill="none" stroke="black" d="M924.16,-1211.04C960.46,-1199.78 1000.99,-1181.45 1028.5,-1152 1040.71,-1138.93 1037.24,-1131.31 1046.5,-1116 1080.65,-1059.52 1127.17,-997.99 1154.2,-963.48"/>
<polygon fill="black" stroke="black" points="1156.9,-965.71 1160.34,-955.68 1151.4,-961.38 1156.9,-965.71"/>
<text text-anchor="middle" x="995.88" y="-1196.84" font-family="Helvetica,sans-Serif" font-size="10.00">v1.2.0</text>
</g>
<!-- github.com/ldemailly/rate&#45;&gt;fortio.org/log -->
<g id="edge90" class="edge">
<title>github.com/ldemailly/rate&#45;&gt;fortio.org/log</title>
<path fill="none" stroke="black" d="M924.25,-1240.1C1049.35,-1258.88 1275.53,-1294.94 1307.75,-1314.75 1361.45,-1347.76 1400.55,-1412.8 1419.79,-1450.38"/>
<polygon fill="black" stroke="black" points="1416.64,-1451.9 1424.23,-1459.29 1422.91,-1448.78 1416.64,-1451.9"/>
<text text-anchor="middle" x="1177.12" y="-1316.5" font-family="Helvetica,sans-Serif" font-size="10.00">v1.6.0</text>
</g>
<!-- gitlab.com/ldemailly/go&#45;flag&#45;bug -->
<g id="node38" class="node">
<title>gitlab.com/ldemailly/go&#45;flag&#45;bug</title>
<path fill="lightsalmon" stroke="black" d="M211.38,-2338C211.38,-2338 28.13,-2338 28.13,-2338 22.13,-2338 16.12,-2332 16.12,-2326 16.12,-2326 16.12,-2314 16.12,-2314 16.12,-2308 22.12,-2302 28.12,-2302 28.12,-2302 211.37,-2302 211.37,-2302 217.37,-2302 223.38,-2308 223.38,-2314 223.38,-2314 223.38,-2326 223.38,-2326 223.38,-2332 217.38,-2338 211.38,-2338"/>
<text text-anchor="middle" x="119.75" y="-2314.2" font-family="Helvetica,sans-Serif" font-size="14.00">gitlab.com/ldemailly/go&#45;flag&#45;bug</text>
</g>
<!-- grol.io/grol&#45;&gt;fortio.org/cli -->
<g id="edge91" class="edge">
<title>grol.io/grol&#45;&gt;fortio.org/cli</title>
<path fill="none" stroke="black" d="M654.55,-588.31C676.75,-600.15 707.25,-614.98 735.75,-624 825.8,-652.5 870.61,-601.86 945.25,-659.75 960.74,-671.76 949.29,-686.25 963.25,-700 985.73,-722.14 1003.95,-708.17 1028.5,-728 1091.54,-778.92 1139.88,-863.32 1162.33,-907.32"/>
<polygon fill="black" stroke="black" points="1159.19,-908.86 1166.8,-916.24 1165.45,-905.73 1159.19,-908.86"/>
<text text-anchor="middle" x="840.5" y="-661.5" font-family="Helvetica,sans-Serif" font-size="10.00">v1.10.0</text>
</g>
<!-- grol.io/grol&#45;&gt;fortio.org/log -->
<g id="edge92" class="edge">
<title>grol.io/grol&#45;&gt;fortio.org/log</title>
<path fill="none" stroke="black" d="M632.32,-588.17C644.8,-610.67 666.71,-650.16 685.5,-684 699.82,-709.78 709.93,-713.56 717.75,-742 726.9,-775.28 713.55,-1336.57 735.75,-1363 796.89,-1435.78 856.12,-1372.98 945.25,-1406 953.83,-1409.18 954.56,-1413.13 963.25,-1416 998.69,-1427.71 1009.48,-1422.3 1046.5,-1427 1184.86,-1444.58 1220.15,-1443.79 1358,-1465 1364.31,-1465.97 1370.9,-1467.07 1377.45,-1468.22"/>
<polygon fill="black" stroke="black" points="1376.41,-1471.59 1386.87,-1469.91 1377.65,-1464.7 1376.41,-1471.59"/>
<text text-anchor="middle" x="995.88" y="-1427.01" font-family="Helvetica,sans-Serif" font-size="10.00">v1.17.2</text>
</g>
<!-- grol.io/grol&#45;&gt;fortio.org/safecast -->
<g id="edge93" class="edge">
<title>grol.io/grol&#45;&gt;fortio.org/safecast</title>
<path fill="none" stroke="black" d="M630.01,-551.64C641.91,-523.5 665.41,-468.03 685.5,-421 699.76,-387.63 706.47,-380.49 717.75,-346 728.84,-312.08 709.64,-292.07 735.75,-267.75 832.12,-178 912.71,-284.73 1028.5,-222 1039.01,-216.3 1036.24,-208.15 1046.5,-202 1063.87,-191.59 1084.47,-184.56 1104.08,-179.81"/>
<polygon fill="black" stroke="black" points="1104.69,-183.26 1113.69,-177.67 1103.17,-176.43 1104.69,-183.26"/>
<text text-anchor="middle" x="840.5" y="-269.5" font-family="Helvetica,sans-Serif" font-size="10.00">v1.0.0</text>
</g>
<!-- grol.io/grol&#45;&gt;fortio.org/sets -->
<g id="edge94" class="edge">
<title>grol.io/grol&#45;&gt;fortio.org/sets</title>
<path fill="none" stroke="black" d="M630.05,-588.42C649.61,-635.73 700.43,-765.86 717.75,-880 722.94,-914.18 713.38,-1475.64 735.75,-1502 797.13,-1574.32 856.73,-1508.66 945.25,-1542.75 985.58,-1558.28 1000.13,-1560.4 1028.5,-1593 1113.47,-1690.66 1155.47,-1844.55 1170.02,-1908.56"/>
<polygon fill="black" stroke="black" points="1166.59,-1909.28 1172.17,-1918.3 1173.43,-1907.78 1166.59,-1909.28"/>
<text text-anchor="middle" x="840.5" y="-1544.5" font-family="Helvetica,sans-Serif" font-size="10.00">v1.3.0</text>
</g>
<!-- grol.io/grol&#45;&gt;fortio.org/struct2env -->
<g id="edge95" class="edge">
<title>grol.io/grol&#45;&gt;fortio.org/struct2env</title>
<path fill="none" stroke="black" d="M630.85,-551.59C642.49,-527.08 664.23,-482.56 685.5,-446 698.61,-423.46 707.42,-420.94 717.75,-397 731.5,-365.13 709.78,-344.03 735.75,-321 765.87,-294.29 1333.11,-250.18 1544.02,-234.64"/>
<polygon fill="black" stroke="black" points="1544.06,-238.14 1553.78,-233.92 1543.55,-231.16 1544.06,-238.14"/>
<text text-anchor="middle" x="1177.12" y="-277.6" font-family="Helvetica,sans-Serif" font-size="10.00">v0.4.2</text>
</g>
<!-- grol.io/grol&#45;&gt;fortio.org/terminal -->
<g id="edge96" class="edge">
<title>grol.io/grol&#45;&gt;fortio.org/terminal</title>
<path fill="none" stroke="black" d="M661.09,-558.74C690.84,-550.11 732.71,-537.97 768.41,-527.62"/>
<polygon fill="black" stroke="black" points="769.19,-531.03 777.82,-524.89 767.24,-524.31 769.19,-531.03"/>
<text text-anchor="middle" x="701.62" y="-553.13" font-family="Helvetica,sans-Serif" font-size="10.00">v0.29.1</text>
</g>
<!-- grol.io/grol&#45;&gt;fortio.org/testscript -->
<g id="edge97" class="edge">
<title>grol.io/grol&#45;&gt;fortio.org/testscript</title>
<path fill="none" stroke="black" d="M661.11,-570C737.49,-570.79 903.39,-576.74 945.25,-612.75 967.08,-631.53 940.81,-656.95 963.25,-675 983.64,-691.4 1008.99,-699.82 1035.01,-703.41"/>
<polygon fill="black" stroke="black" points="1034.36,-706.86 1044.69,-704.49 1035.14,-699.9 1034.36,-706.86"/>
<text text-anchor="middle" x="840.5" y="-614.5" font-family="Helvetica,sans-Serif" font-size="10.00">v0.3.2</text>
</g>
<!-- grol.io/grol&#45;&gt;fortio.org/version -->
<g id="edge98" class="edge">
<title>grol.io/grol&#45;&gt;fortio.org/version</title>
<path fill="none" stroke="black" d="M638.71,-551.85C659.43,-528.23 695.07,-484.99 717.75,-443 728.97,-422.22 718.57,-409.21 735.75,-393 825.29,-308.52 1206.29,-300.04 1364.23,-300.25"/>
<polygon fill="black" stroke="black" points="1364.14,-303.75 1374.15,-300.28 1364.16,-296.75 1364.14,-303.75"/>
<text text-anchor="middle" x="995.88" y="-323.53" font-family="Helvetica,sans-Serif" font-size="10.00">v1.0.4</text>
</g>
<!-- grol.io/grol&#45;discord&#45;bot -->
<g id="node40" class="node">
<title>grol.io/grol&#45;discord&#45;bot</title>
<path fill="lightgreen" stroke="black" d="M470.38,-669C470.38,-669 344.12,-669 344.12,-669 338.12,-669 332.12,-663 332.12,-657 332.12,-657 332.12,-645 332.12,-645 332.12,-639 338.12,-633 344.12,-633 344.12,-633 470.38,-633 470.38,-633 476.38,-633 482.38,-639 482.38,-645 482.38,-645 482.38,-657 482.38,-657 482.38,-663 476.38,-669 470.38,-669"/>
<text text-anchor="middle" x="407.25" y="-645.2" font-family="Helvetica,sans-Serif" font-size="14.00">grol.io/grol&#45;discord&#45;bot</text>
</g>
<!-- grol.io/grol&#45;discord&#45;bot&#45;&gt;fortio.org/cli -->
<g id="edge99" class="edge">
<title>grol.io/grol&#45;discord&#45;bot&#45;&gt;fortio.org/cli</title>
<path fill="none" stroke="black" d="M482.83,-656.52C620.41,-667.07 903.94,-690.69 945.25,-709 955.04,-713.34 954.22,-719.26 963.25,-725 989.89,-741.92 1003.35,-733.94 1028.5,-753 1086.58,-797.03 1135.45,-868.66 1159.71,-907.97"/>
<polygon fill="black" stroke="black" points="1156.65,-909.67 1164.83,-916.4 1162.63,-906.04 1156.65,-909.67"/>
<text text-anchor="middle" x="701.62" y="-678.12" font-family="Helvetica,sans-Serif" font-size="10.00">v1.10.0</text>
</g>
<!-- grol.io/grol&#45;discord&#45;bot&#45;&gt;fortio.org/log -->
<g id="edge100" class="edge">
<title>grol.io/grol&#45;discord&#45;bot&#45;&gt;fortio.org/log</title>
<path fill="none" stroke="black" d="M464.77,-669.48C496.81,-682.9 534.83,-704.32 557,-736 584.15,-774.79 543.52,-805.63 575,-841 618.96,-890.4 677.21,-830.75 717.75,-883 752.91,-928.33 698.2,-1355.63 735.75,-1399 766.72,-1434.76 898.94,-1427.12 945.25,-1436.75 953.3,-1438.42 955.2,-1439.33 963.25,-1441 1000.06,-1448.66 1009.17,-1451.54 1046.5,-1456 1163.71,-1469.99 1301.97,-1475.61 1377.33,-1477.76"/>
<polygon fill="black" stroke="black" points="1376.83,-1481.25 1386.92,-1478.02 1377.02,-1474.25 1376.83,-1481.25"/>
<text text-anchor="middle" x="840.5" y="-1438.5" font-family="Helvetica,sans-Serif" font-size="10.00">v1.17.2</text>
</g>
<!-- grol.io/grol&#45;discord&#45;bot&#45;&gt;fortio.org/scli -->
<g id="edge101" class="edge">
<title>grol.io/grol&#45;discord&#45;bot&#45;&gt;fortio.org/scli</title>
<path fill="none" stroke="black" d="M434.06,-669.39C457.6,-686.1 493.39,-711.39 524.75,-733 538.99,-742.81 548.71,-739.58 557,-754.75 577.8,-792.8 563.48,-1493.2 575,-1535 580.13,-1553.62 590.53,-1572.52 600.07,-1587.27"/>
<polygon fill="black" stroke="black" points="597.12,-1589.17 605.61,-1595.51 602.93,-1585.26 597.12,-1589.17"/>
<text text-anchor="middle" x="540.88" y="-756.5" font-family="Helvetica,sans-Serif" font-size="10.00">v1.16.1</text>
</g>
<!-- grol.io/grol&#45;discord&#45;bot&#45;&gt;fortio.org/version -->
<g id="edge102" class="edge">
<title>grol.io/grol&#45;discord&#45;bot&#45;&gt;fortio.org/version</title>
<path fill="none" stroke="black" d="M412.6,-632.7C424.96,-582.85 463.4,-441.49 524.75,-338 542.14,-308.66 548.22,-301.12 575,-280 611.37,-251.32 634.89,-264.89 667.5,-232 714.63,-184.47 678.75,-132.84 735.75,-97.75 844.01,-31.09 1197.29,-47.05 1307.75,-110 1370.72,-145.89 1407.73,-227.81 1423.76,-271.8"/>
<polygon fill="black" stroke="black" points="1420.44,-272.92 1427.06,-281.2 1427.05,-270.6 1420.44,-272.92"/>
<text text-anchor="middle" x="840.5" y="-99.5" font-family="Helvetica,sans-Serif" font-size="10.00">v1.0.4</text>
</g>
<!-- grol.io/grol&#45;discord&#45;bot&#45;&gt;grol.io/grol -->
<g id="edge103" class="edge">
<title>grol.io/grol&#45;discord&#45;bot&#45;&gt;grol.io/grol</title>
<path fill="none" stroke="black" d="M456.62,-632.52C490.7,-619.5 536.18,-602.12 570.55,-588.99"/>
<polygon fill="black" stroke="black" points="571.78,-592.27 579.87,-585.43 569.28,-585.73 571.78,-592.27"/>
<text text-anchor="middle" x="540.88" y="-607.4" font-family="Helvetica,sans-Serif" font-size="10.00">v0.80.3</text>
</g>
</g>
</svg>
