<?xml version="1.0" encoding="UTF-8" standalone="no"?>
<!DOCTYPE svg PUBLIC "-//W3C//DTD SVG 1.1//EN"
 "http://www.w3.org/Graphics/SVG/1.1/DTD/svg11.dtd">
<!-- Generated by graphviz version 12.2.1 (20241206.2353)
 -->
<!-- Title: dependencies Pages: 1 -->
<svg width="1886pt" height="2378pt"
 viewBox="0.00 0.00 1885.50 2378.00" xmlns="http://www.w3.org/2000/svg" xmlns:xlink="http://www.w3.org/1999/xlink">
<g id="graph0" class="graph" transform="scale(1 1) rotate(0) translate(4 2374)">
<title>dependencies</title>
<polygon fill="white" stroke="none" points="-4,4 -4,-2374 1881.5,-2374 1881.5,4 -4,4"/>
<!-- fortio.org/assert -->
<g id="node1" class="node">
<title>fortio.org/assert</title>
<path fill="lightblue" stroke="black" d="M1663.88,-2295C1663.88,-2295 1578.12,-2295 1578.12,-2295 1572.12,-2295 1566.12,-2289 1566.12,-2283 1566.12,-2283 1566.12,-2271 1566.12,-2271 1566.12,-2265 1572.12,-2259 1578.12,-2259 1578.12,-2259 1663.88,-2259 1663.88,-2259 1669.88,-2259 1675.88,-2265 1675.88,-2271 1675.88,-2271 1675.88,-2283 1675.88,-2283 1675.88,-2289 1669.88,-2295 1663.88,-2295"/>
<text text-anchor="middle" x="1621" y="-2271.2" font-family="Helvetica,sans-Serif" font-size="14.00">fortio.org/assert</text>
</g>
<!-- fortio.org/cli -->
<g id="node2" class="node">
<title>fortio.org/cli</title>
<path fill="lightblue" stroke="black" d="M1394.75,-885C1394.75,-885 1333,-885 1333,-885 1327,-885 1321,-879 1321,-873 1321,-873 1321,-861 1321,-861 1321,-855 1327,-849 1333,-849 1333,-849 1394.75,-849 1394.75,-849 1400.75,-849 1406.75,-855 1406.75,-861 1406.75,-861 1406.75,-873 1406.75,-873 1406.75,-879 1400.75,-885 1394.75,-885"/>
<text text-anchor="middle" x="1363.88" y="-861.2" font-family="Helvetica,sans-Serif" font-size="14.00">fortio.org/cli</text>
</g>
<!-- fortio.org/log -->
<g id="node7" class="node">
<title>fortio.org/log</title>
<path fill="lightblue" stroke="black" d="M1654.5,-1368C1654.5,-1368 1587.5,-1368 1587.5,-1368 1581.5,-1368 1575.5,-1362 1575.5,-1356 1575.5,-1356 1575.5,-1344 1575.5,-1344 1575.5,-1338 1581.5,-1332 1587.5,-1332 1587.5,-1332 1654.5,-1332 1654.5,-1332 1660.5,-1332 1666.5,-1338 1666.5,-1344 1666.5,-1344 1666.5,-1356 1666.5,-1356 1666.5,-1362 1660.5,-1368 1654.5,-1368"/>
<text text-anchor="middle" x="1621" y="-1344.2" font-family="Helvetica,sans-Serif" font-size="14.00">fortio.org/log</text>
</g>
<!-- fortio.org/cli&#45;&gt;fortio.org/log -->
<g id="edge1" class="edge">
<title>fortio.org/cli&#45;&gt;fortio.org/log</title>
<path fill="none" stroke="black" d="M1407.19,-877.24C1448.83,-889.61 1510.96,-914.61 1544.75,-959.75 1587.82,-1017.28 1610.62,-1239.57 1617.62,-1320.4"/>
<polygon fill="black" stroke="black" points="1614.12,-1320.51 1618.45,-1330.18 1621.09,-1319.92 1614.12,-1320.51"/>
<text text-anchor="middle" x="1528.62" y="-961.5" font-family="Helvetica,sans-Serif" font-size="10.00">v1.17.2</text>
</g>
<!-- fortio.org/version -->
<g id="node23" class="node">
<title>fortio.org/version</title>
<path fill="lightblue" stroke="black" d="M1667.25,-460C1667.25,-460 1574.75,-460 1574.75,-460 1568.75,-460 1562.75,-454 1562.75,-448 1562.75,-448 1562.75,-436 1562.75,-436 1562.75,-430 1568.75,-424 1574.75,-424 1574.75,-424 1667.25,-424 1667.25,-424 1673.25,-424 1679.25,-430 1679.25,-436 1679.25,-436 1679.25,-448 1679.25,-448 1679.25,-454 1673.25,-460 1667.25,-460"/>
<text text-anchor="middle" x="1621" y="-436.2" font-family="Helvetica,sans-Serif" font-size="14.00">fortio.org/version</text>
</g>
<!-- fortio.org/cli&#45;&gt;fortio.org/version -->
<g id="edge2" class="edge">
<title>fortio.org/cli&#45;&gt;fortio.org/version</title>
<path fill="none" stroke="black" d="M1375.84,-848.74C1415.99,-781.85 1555.19,-549.96 1603.41,-469.64"/>
<polygon fill="black" stroke="black" points="1606.15,-471.87 1608.3,-461.49 1600.15,-468.26 1606.15,-471.87"/>
<text text-anchor="middle" x="1528.62" y="-618.18" font-family="Helvetica,sans-Serif" font-size="10.00">v1.0.4</text>
</g>
<!-- fortio.org/dflag -->
<g id="node3" class="node">
<title>fortio.org/dflag</title>
<path fill="lightblue" stroke="black" d="M1066.38,-2148C1066.38,-2148 988.12,-2148 988.12,-2148 982.12,-2148 976.12,-2142 976.12,-2136 976.12,-2136 976.12,-2124 976.12,-2124 976.12,-2118 982.12,-2112 988.12,-2112 988.12,-2112 1066.38,-2112 1066.38,-2112 1072.38,-2112 1078.38,-2118 1078.38,-2124 1078.38,-2124 1078.38,-2136 1078.38,-2136 1078.38,-2142 1072.38,-2148 1066.38,-2148"/>
<text text-anchor="middle" x="1027.25" y="-2124.2" font-family="Helvetica,sans-Serif" font-size="14.00">fortio.org/dflag</text>
</g>
<!-- fortio.org/dflag&#45;&gt;fortio.org/assert -->
<g id="edge3" class="edge">
<title>fortio.org/dflag&#45;&gt;fortio.org/assert</title>
<path fill="none" stroke="black" d="M1072.23,-2148.44C1095.14,-2157.58 1123.77,-2168.27 1150,-2176 1292.03,-2217.84 1462.93,-2250.19 1554.47,-2266.12"/>
<polygon fill="black" stroke="black" points="1553.83,-2269.56 1564.28,-2267.81 1555.02,-2262.66 1553.83,-2269.56"/>
<text text-anchor="middle" x="1363.88" y="-2256.51" font-family="Helvetica,sans-Serif" font-size="10.00">v1.2.1</text>
</g>
<!-- fortio.org/dflag&#45;&gt;fortio.org/log -->
<g id="edge4" class="edge">
<title>fortio.org/dflag&#45;&gt;fortio.org/log</title>
<path fill="none" stroke="black" d="M1078.79,-2134.41C1195.64,-2143.42 1479.51,-2158.12 1544.75,-2095 1597.07,-2044.38 1615.44,-1511.92 1619.22,-1379.63"/>
<polygon fill="black" stroke="black" points="1622.71,-1380.04 1619.49,-1369.95 1615.71,-1379.85 1622.71,-1380.04"/>
<text text-anchor="middle" x="1363.88" y="-2144.36" font-family="Helvetica,sans-Serif" font-size="10.00">v1.17.2</text>
</g>
<!-- fortio.org/sets -->
<g id="node16" class="node">
<title>fortio.org/sets</title>
<path fill="lightblue" stroke="black" d="M1400.75,-1945C1400.75,-1945 1327,-1945 1327,-1945 1321,-1945 1315,-1939 1315,-1933 1315,-1933 1315,-1921 1315,-1921 1315,-1915 1321,-1909 1327,-1909 1327,-1909 1400.75,-1909 1400.75,-1909 1406.75,-1909 1412.75,-1915 1412.75,-1921 1412.75,-1921 1412.75,-1933 1412.75,-1933 1412.75,-1939 1406.75,-1945 1400.75,-1945"/>
<text text-anchor="middle" x="1363.88" y="-1921.2" font-family="Helvetica,sans-Serif" font-size="14.00">fortio.org/sets</text>
</g>
<!-- fortio.org/dflag&#45;&gt;fortio.org/sets -->
<g id="edge5" class="edge">
<title>fortio.org/dflag&#45;&gt;fortio.org/sets</title>
<path fill="none" stroke="black" d="M1058.54,-2111.63C1119.11,-2074.88 1255.15,-1992.35 1322.93,-1951.23"/>
<polygon fill="black" stroke="black" points="1324.39,-1954.44 1331.12,-1946.26 1320.76,-1948.46 1324.39,-1954.44"/>
<text text-anchor="middle" x="1182.62" y="-2054.4" font-family="Helvetica,sans-Serif" font-size="10.00">v1.3.0</text>
</g>
<!-- fortio.org/dnsping -->
<g id="node4" class="node">
<title>fortio.org/dnsping</title>
<path fill="lightblue" stroke="black" d="M167.88,-1428C167.88,-1428 71.62,-1428 71.62,-1428 65.62,-1428 59.62,-1422 59.62,-1416 59.62,-1416 59.62,-1404 59.62,-1404 59.62,-1398 65.62,-1392 71.62,-1392 71.62,-1392 167.88,-1392 167.88,-1392 173.88,-1392 179.88,-1398 179.88,-1404 179.88,-1404 179.88,-1416 179.88,-1416 179.88,-1422 173.88,-1428 167.88,-1428"/>
<text text-anchor="middle" x="119.75" y="-1404.2" font-family="Helvetica,sans-Serif" font-size="14.00">fortio.org/dnsping</text>
</g>
<!-- fortio.org/dnsping&#45;&gt;fortio.org/cli -->
<g id="edge6" class="edge">
<title>fortio.org/dnsping&#45;&gt;fortio.org/cli</title>
<path fill="none" stroke="black" d="M120.09,-1391.74C118.18,-1308.7 122,-963.59 307.75,-797 458.06,-662.19 1025.24,-683.7 1215.25,-752 1265.68,-770.13 1312.4,-812.63 1339.27,-840.58"/>
<polygon fill="black" stroke="black" points="1336.51,-842.76 1345.91,-847.64 1341.61,-837.96 1336.51,-842.76"/>
<text text-anchor="middle" x="726.62" y="-708.31" font-family="Helvetica,sans-Serif" font-size="10.00">v1.10.0</text>
</g>
<!-- fortio.org/fortio -->
<g id="node5" class="node">
<title>fortio.org/fortio</title>
<path fill="lightblue" stroke="black" d="M458.75,-1390C458.75,-1390 379.75,-1390 379.75,-1390 373.75,-1390 367.75,-1384 367.75,-1378 367.75,-1378 367.75,-1366 367.75,-1366 367.75,-1360 373.75,-1354 379.75,-1354 379.75,-1354 458.75,-1354 458.75,-1354 464.75,-1354 470.75,-1360 470.75,-1366 470.75,-1366 470.75,-1378 470.75,-1378 470.75,-1384 464.75,-1390 458.75,-1390"/>
<text text-anchor="middle" x="419.25" y="-1366.2" font-family="Helvetica,sans-Serif" font-size="14.00">fortio.org/fortio</text>
</g>
<!-- fortio.org/dnsping&#45;&gt;fortio.org/fortio -->
<g id="edge7" class="edge">
<title>fortio.org/dnsping&#45;&gt;fortio.org/fortio</title>
<path fill="none" stroke="black" d="M180.24,-1402.4C231.16,-1395.9 304.22,-1386.57 355.94,-1379.96"/>
<polygon fill="black" stroke="black" points="356.31,-1383.44 365.78,-1378.7 355.42,-1376.5 356.31,-1383.44"/>
<text text-anchor="middle" x="273.62" y="-1393.89" font-family="Helvetica,sans-Serif" font-size="10.00">v1.69.1</text>
</g>
<!-- fortio.org/dnsping&#45;&gt;fortio.org/log -->
<g id="edge8" class="edge">
<title>fortio.org/dnsping&#45;&gt;fortio.org/log</title>
<path fill="none" stroke="black" d="M150.35,-1428.47C177.9,-1447.28 217.86,-1479.03 239.5,-1517 315.6,-1650.52 196.77,-1749.68 307.75,-1856 404.68,-1948.87 806.17,-1858.36 904.5,-1949.75 930.32,-1973.75 894.89,-2005.08 922.5,-2027 995.43,-2084.89 1039.35,-2036.24 1132,-2027 1295.53,-2010.7 1377.93,-2069.85 1494.5,-1954 1577.52,-1871.49 1610.26,-1489.56 1618.06,-1379.66"/>
<polygon fill="black" stroke="black" points="1621.55,-1379.93 1618.75,-1369.71 1614.57,-1379.44 1621.55,-1379.93"/>
<text text-anchor="middle" x="888.38" y="-1951.5" font-family="Helvetica,sans-Serif" font-size="10.00">v1.17.2</text>
</g>
<!-- fortio.org/safecast -->
<g id="node14" class="node">
<title>fortio.org/safecast</title>
<path fill="lightblue" stroke="black" d="M1413.5,-294C1413.5,-294 1314.25,-294 1314.25,-294 1308.25,-294 1302.25,-288 1302.25,-282 1302.25,-282 1302.25,-270 1302.25,-270 1302.25,-264 1308.25,-258 1314.25,-258 1314.25,-258 1413.5,-258 1413.5,-258 1419.5,-258 1425.5,-264 1425.5,-270 1425.5,-270 1425.5,-282 1425.5,-282 1425.5,-288 1419.5,-294 1413.5,-294"/>
<text text-anchor="middle" x="1363.88" y="-270.2" font-family="Helvetica,sans-Serif" font-size="14.00">fortio.org/safecast</text>
</g>
<!-- fortio.org/dnsping&#45;&gt;fortio.org/safecast -->
<g id="edge9" class="edge">
<title>fortio.org/dnsping&#45;&gt;fortio.org/safecast</title>
<path fill="none" stroke="black" d="M126.66,-1391.65C151.84,-1312.6 250.58,-992.85 289.75,-722 295.93,-679.29 280.59,-367.54 307.75,-334 430.09,-182.89 1073.15,-242.24 1290.79,-267.14"/>
<polygon fill="black" stroke="black" points="1290.22,-270.6 1300.56,-268.27 1291.03,-263.64 1290.22,-270.6"/>
<text text-anchor="middle" x="726.62" y="-242.73" font-family="Helvetica,sans-Serif" font-size="10.00">v1.0.0</text>
</g>
<!-- fortio.org/testscript -->
<g id="node22" class="node">
<title>fortio.org/testscript</title>
<path fill="steelblue" stroke="black" d="M1482.5,-1560C1482.5,-1560 1245.25,-1560 1245.25,-1560 1239.25,-1560 1233.25,-1554 1233.25,-1548 1233.25,-1548 1233.25,-1534 1233.25,-1534 1233.25,-1528 1239.25,-1522 1245.25,-1522 1245.25,-1522 1482.5,-1522 1482.5,-1522 1488.5,-1522 1494.5,-1528 1494.5,-1534 1494.5,-1534 1494.5,-1548 1494.5,-1548 1494.5,-1554 1488.5,-1560 1482.5,-1560"/>
<text text-anchor="middle" x="1363.88" y="-1542.7" font-family="Helvetica,sans-Serif" font-size="14.00">fortio.org/testscript</text>
<text text-anchor="middle" x="1363.88" y="-1527.7" font-family="Helvetica,sans-Serif" font-size="14.00">(fork of github.com/rogpeppe/go&#45;internal)</text>
</g>
<!-- fortio.org/dnsping&#45;&gt;fortio.org/testscript -->
<g id="edge10" class="edge">
<title>fortio.org/dnsping&#45;&gt;fortio.org/testscript</title>
<path fill="none" stroke="black" d="M179.96,-1417.49C290.59,-1431.75 518.63,-1462.47 530.75,-1475 575.6,-1521.35 500.4,-1576.32 548.75,-1619 559.5,-1628.49 566.73,-1620.35 581,-1619 734.82,-1604.49 768.68,-1568.51 922.5,-1554 1015.2,-1545.26 1044.97,-1520.91 1132,-1554 1142,-1557.8 1140,-1566.2 1150,-1570 1177.11,-1580.31 1186.52,-1573.92 1215.25,-1570 1223.48,-1568.88 1225.16,-1566.87 1233.25,-1565 1236.39,-1564.28 1239.57,-1563.56 1242.78,-1562.85"/>
<polygon fill="black" stroke="black" points="1243.3,-1566.32 1252.33,-1560.79 1241.82,-1559.48 1243.3,-1566.32"/>
<text text-anchor="middle" x="726.62" y="-1618.85" font-family="Helvetica,sans-Serif" font-size="10.00">v0.3.2</text>
</g>
<!-- github.com/miekg/dns -->
<g id="node39" class="node">
<title>github.com/miekg/dns</title>
<path fill="coral" stroke="black" d="M506.75,-1522C506.75,-1522 331.75,-1522 331.75,-1522 325.75,-1522 319.75,-1516 319.75,-1510 319.75,-1510 319.75,-1496 319.75,-1496 319.75,-1490 325.75,-1484 331.75,-1484 331.75,-1484 506.75,-1484 506.75,-1484 512.75,-1484 518.75,-1490 518.75,-1496 518.75,-1496 518.75,-1510 518.75,-1510 518.75,-1516 512.75,-1522 506.75,-1522"/>
<text text-anchor="middle" x="419.25" y="-1504.7" font-family="Helvetica,sans-Serif" font-size="14.00">ldemailly/dns</text>
<text text-anchor="middle" x="419.25" y="-1489.7" font-family="Helvetica,sans-Serif" font-size="14.00">(fork of github.com/miekg/dns)</text>
</g>
<!-- fortio.org/dnsping&#45;&gt;github.com/miekg/dns -->
<g id="edge11" class="edge">
<title>fortio.org/dnsping&#45;&gt;github.com/miekg/dns</title>
<path fill="none" stroke="black" d="M164.28,-1428.49C190.91,-1439.39 225.82,-1452.96 257.5,-1463 277.81,-1469.43 299.83,-1475.5 320.87,-1480.86"/>
<polygon fill="black" stroke="black" points="319.74,-1484.19 330.29,-1483.23 321.45,-1477.4 319.74,-1484.19"/>
<text text-anchor="middle" x="273.62" y="-1473.79" font-family="Helvetica,sans-Serif" font-size="10.00">v1.1.65</text>
</g>
<!-- fortio.org/fortio&#45;&gt;fortio.org/assert -->
<g id="edge12" class="edge">
<title>fortio.org/fortio&#45;&gt;fortio.org/assert</title>
<path fill="none" stroke="black" d="M456.13,-1390.45C477.9,-1401.82 506.14,-1416.87 530.75,-1431 561.64,-1448.73 566.75,-1457.88 599,-1473 707.39,-1523.81 759.01,-1486.48 854.25,-1559 859.64,-1563.1 916.69,-1656.52 922.5,-1660 962.65,-1684.06 1086.67,-1670.08 1132,-1681.75 1314.12,-1728.64 1379.79,-1750.98 1494.5,-1900 1579.05,-2009.84 1608.19,-2179.51 1616.81,-2247.42"/>
<polygon fill="black" stroke="black" points="1613.3,-2247.51 1617.97,-2257.02 1620.25,-2246.67 1613.3,-2247.51"/>
<text text-anchor="middle" x="1027.25" y="-1683.5" font-family="Helvetica,sans-Serif" font-size="10.00">v1.2.1</text>
</g>
<!-- fortio.org/fortio&#45;&gt;fortio.org/cli -->
<g id="edge13" class="edge">
<title>fortio.org/fortio&#45;&gt;fortio.org/cli</title>
<path fill="none" stroke="black" d="M471.05,-1368.22C490.7,-1365.07 512.74,-1359.34 530.75,-1349 717,-1242.04 719.08,-1156.91 854.25,-990 886.74,-949.88 877.3,-920.95 922.5,-896 955.59,-877.74 1199.28,-870.4 1309.27,-867.99"/>
<polygon fill="black" stroke="black" points="1309.31,-871.49 1319.23,-867.78 1309.16,-864.5 1309.31,-871.49"/>
<text text-anchor="middle" x="888.38" y="-963.24" font-family="Helvetica,sans-Serif" font-size="10.00">v1.10.0</text>
</g>
<!-- fortio.org/fortio&#45;&gt;fortio.org/dflag -->
<g id="edge14" class="edge">
<title>fortio.org/fortio&#45;&gt;fortio.org/dflag</title>
<path fill="none" stroke="black" d="M449.79,-1390.47C475.91,-1408.55 512.58,-1438.64 530.75,-1475 547.63,-1508.79 522.62,-1616.73 548.75,-1644 643.74,-1743.12 760.33,-1589.61 854.25,-1689.75 886.63,-1724.28 850.8,-1859.8 872.25,-1902 880.85,-1918.92 895.07,-1913.52 904.5,-1930 926.27,-1968.06 902.01,-1988.24 922.5,-2027 938.94,-2058.1 967.99,-2085.72 991.18,-2104.51"/>
<polygon fill="black" stroke="black" points="988.85,-2107.13 998.87,-2110.57 993.18,-2101.63 988.85,-2107.13"/>
<text text-anchor="middle" x="726.62" y="-1691.5" font-family="Helvetica,sans-Serif" font-size="10.00">v1.8.1</text>
</g>
<!-- fortio.org/fortio&#45;&gt;fortio.org/log -->
<g id="edge15" class="edge">
<title>fortio.org/fortio&#45;&gt;fortio.org/log</title>
<path fill="none" stroke="black" d="M471.14,-1386.73C489.88,-1392.15 511.28,-1398.35 530.75,-1404 674.55,-1445.71 734.98,-1407.49 854.25,-1498 900.08,-1532.78 875.14,-1575.33 922.5,-1608 1000.58,-1661.86 1044.44,-1612.26 1132,-1648.75 1140.93,-1652.47 1140.75,-1658.15 1150,-1661 1177.72,-1669.54 1186.27,-1662.19 1215.25,-1661 1339.68,-1655.88 1389.13,-1704.37 1494.5,-1638 1585.57,-1580.64 1610.81,-1440.57 1617.6,-1379.4"/>
<polygon fill="black" stroke="black" points="1621.05,-1380.07 1618.57,-1369.77 1614.08,-1379.36 1621.05,-1380.07"/>
<text text-anchor="middle" x="1027.25" y="-1650.5" font-family="Helvetica,sans-Serif" font-size="10.00">v1.17.2</text>
</g>
<!-- fortio.org/fortio&#45;&gt;fortio.org/safecast -->
<g id="edge16" class="edge">
<title>fortio.org/fortio&#45;&gt;fortio.org/safecast</title>
<path fill="none" stroke="black" d="M471.23,-1374.37C492.85,-1372.5 516.34,-1366.07 530.75,-1349 548.25,-1328.27 544.96,-887.86 548.75,-861 557.06,-802.05 571.85,-789.82 581,-731 585.69,-700.85 579.15,-480.17 599,-457 674.62,-368.72 764.23,-473.54 854.25,-400 869.43,-387.6 859.83,-374.91 872.25,-359.75 889.62,-338.55 896.88,-333.74 922.5,-324 1045.59,-277.18 1201.06,-271.52 1290.5,-272.9"/>
<polygon fill="black" stroke="black" points="1290.3,-276.4 1300.36,-273.09 1290.43,-269.4 1290.3,-276.4"/>
<text text-anchor="middle" x="888.38" y="-361.5" font-family="Helvetica,sans-Serif" font-size="10.00">v1.0.0</text>
</g>
<!-- fortio.org/scli -->
<g id="node15" class="node">
<title>fortio.org/scli</title>
<path fill="lightblue" stroke="black" d="M760.88,-1370C760.88,-1370 692.38,-1370 692.38,-1370 686.38,-1370 680.38,-1364 680.38,-1358 680.38,-1358 680.38,-1346 680.38,-1346 680.38,-1340 686.38,-1334 692.38,-1334 692.38,-1334 760.88,-1334 760.88,-1334 766.88,-1334 772.88,-1340 772.88,-1346 772.88,-1346 772.88,-1358 772.88,-1358 772.88,-1364 766.88,-1370 760.88,-1370"/>
<text text-anchor="middle" x="726.62" y="-1346.2" font-family="Helvetica,sans-Serif" font-size="14.00">fortio.org/scli</text>
</g>
<!-- fortio.org/fortio&#45;&gt;fortio.org/scli -->
<g id="edge17" class="edge">
<title>fortio.org/fortio&#45;&gt;fortio.org/scli</title>
<path fill="none" stroke="black" d="M471.02,-1368.67C525.6,-1365.1 612.16,-1359.43 668.93,-1355.71"/>
<polygon fill="black" stroke="black" points="668.96,-1359.22 678.71,-1355.07 668.5,-1352.23 668.96,-1359.22"/>
<text text-anchor="middle" x="564.88" y="-1364.95" font-family="Helvetica,sans-Serif" font-size="10.00">v1.16.1</text>
</g>
<!-- fortio.org/fortio&#45;&gt;fortio.org/sets -->
<g id="edge18" class="edge">
<title>fortio.org/fortio&#45;&gt;fortio.org/sets</title>
<path fill="none" stroke="black" d="M444.76,-1390.3C469.01,-1409.36 505.98,-1441.13 530.75,-1475 541.78,-1490.08 538.67,-1497.26 548.75,-1513 567.51,-1542.29 569.97,-1553.84 599,-1573 697.9,-1638.26 771.08,-1565.6 854.25,-1650 874.69,-1670.74 860.23,-1686.47 872.25,-1713 889.26,-1750.56 888.74,-1767.31 922.5,-1791 1000.69,-1845.87 1040.59,-1811.26 1132,-1839 1194.07,-1857.84 1263.37,-1885.13 1309.7,-1904.31"/>
<polygon fill="black" stroke="black" points="1308.12,-1907.44 1318.7,-1908.06 1310.81,-1900.98 1308.12,-1907.44"/>
<text text-anchor="middle" x="888.38" y="-1777.63" font-family="Helvetica,sans-Serif" font-size="10.00">v1.3.0</text>
</g>
<!-- fortio.org/fortio&#45;&gt;fortio.org/testscript -->
<g id="edge19" class="edge">
<title>fortio.org/fortio&#45;&gt;fortio.org/testscript</title>
<path fill="none" stroke="black" d="M471.11,-1375.03C579.1,-1381.85 823.93,-1399.62 854.25,-1422 870.26,-1433.82 857.93,-1449.18 872.25,-1463 957.34,-1545.17 1035.19,-1453.04 1132,-1521 1145.04,-1530.15 1136.19,-1544.05 1150,-1552 1163.39,-1559.71 1190.69,-1561.22 1221.4,-1559.75"/>
<polygon fill="black" stroke="black" points="1221.56,-1563.25 1231.34,-1559.17 1221.16,-1556.26 1221.56,-1563.25"/>
<text text-anchor="middle" x="888.38" y="-1487.79" font-family="Helvetica,sans-Serif" font-size="10.00">v0.3.2</text>
</g>
<!-- fortio.org/fortio&#45;&gt;fortio.org/version -->
<g id="edge20" class="edge">
<title>fortio.org/fortio&#45;&gt;fortio.org/version</title>
<path fill="none" stroke="black" d="M471.07,-1374.5C492.79,-1372.68 516.41,-1366.26 530.75,-1349 560.97,-1312.63 537.17,-543.85 548.75,-498 560.74,-450.54 559.45,-428.84 599,-400 691.9,-332.26 759.15,-422.61 854.25,-358 867.11,-349.26 863.44,-340.82 872.25,-328 892.78,-298.12 891.41,-282.39 922.5,-263.75 1140.62,-133 1276.61,-117.87 1494.5,-249 1557.06,-286.65 1594.24,-368.84 1610.41,-412.84"/>
<polygon fill="black" stroke="black" points="1607.1,-413.97 1613.74,-422.23 1613.69,-411.63 1607.1,-413.97"/>
<text text-anchor="middle" x="1027.25" y="-265.5" font-family="Helvetica,sans-Serif" font-size="10.00">v1.0.4</text>
</g>
<!-- grol.io/grol -->
<g id="node44" class="node">
<title>grol.io/grol</title>
<path fill="lightgreen" stroke="black" d="M754.12,-502C754.12,-502 699.12,-502 699.12,-502 693.12,-502 687.12,-496 687.12,-490 687.12,-490 687.12,-478 687.12,-478 687.12,-472 693.12,-466 699.12,-466 699.12,-466 754.12,-466 754.12,-466 760.12,-466 766.12,-472 766.12,-478 766.12,-478 766.12,-490 766.12,-490 766.12,-496 760.12,-502 754.12,-502"/>
<text text-anchor="middle" x="726.62" y="-478.2" font-family="Helvetica,sans-Serif" font-size="14.00">grol.io/grol</text>
</g>
<!-- fortio.org/fortio&#45;&gt;grol.io/grol -->
<g id="edge21" class="edge">
<title>fortio.org/fortio&#45;&gt;grol.io/grol</title>
<path fill="none" stroke="black" d="M471.05,-1369.51C492.64,-1365.72 516.15,-1357.47 530.75,-1340 539.38,-1329.67 579.9,-871.42 581,-858 583.75,-824.28 580.96,-582.62 599,-554 616.32,-526.52 648.46,-508.94 676.03,-498.27"/>
<polygon fill="black" stroke="black" points="677.09,-501.61 685.29,-494.9 674.7,-495.03 677.09,-501.61"/>
<text text-anchor="middle" x="564.88" y="-1198.09" font-family="Helvetica,sans-Serif" font-size="10.00">v0.80.3</text>
</g>
<!-- fortio.org/fortiotel -->
<g id="node6" class="node">
<title>fortio.org/fortiotel</title>
<path fill="lightblue" stroke="black" d="M166.38,-1982C166.38,-1982 73.12,-1982 73.12,-1982 67.12,-1982 61.12,-1976 61.12,-1970 61.12,-1970 61.12,-1958 61.12,-1958 61.12,-1952 67.12,-1946 73.12,-1946 73.12,-1946 166.38,-1946 166.38,-1946 172.38,-1946 178.38,-1952 178.38,-1958 178.38,-1958 178.38,-1970 178.38,-1970 178.38,-1976 172.38,-1982 166.38,-1982"/>
<text text-anchor="middle" x="119.75" y="-1958.2" font-family="Helvetica,sans-Serif" font-size="14.00">fortio.org/fortiotel</text>
</g>
<!-- fortio.org/fortiotel&#45;&gt;fortio.org/cli -->
<g id="edge22" class="edge">
<title>fortio.org/fortiotel&#45;&gt;fortio.org/cli</title>
<path fill="none" stroke="black" d="M125.99,-1945.68C148.4,-1867.49 236.08,-1563.95 257.5,-1525 268.18,-1505.59 281.47,-1507.55 289.75,-1487 337.99,-1367.21 260.74,-1317.28 307.75,-1197 364.9,-1050.76 459.76,-1063.05 530.75,-923 545.08,-894.73 524.2,-874.04 548.75,-854 663.54,-760.31 1068.02,-818.33 1215.25,-835 1246.86,-838.58 1281.65,-845.95 1309.52,-852.72"/>
<polygon fill="black" stroke="black" points="1308.6,-856.09 1319.15,-855.1 1310.28,-849.3 1308.6,-856.09"/>
<text text-anchor="middle" x="726.62" y="-828.67" font-family="Helvetica,sans-Serif" font-size="10.00">v1.10.0</text>
</g>
<!-- fortio.org/fortiotel&#45;&gt;fortio.org/dflag -->
<g id="edge23" class="edge">
<title>fortio.org/fortiotel&#45;&gt;fortio.org/dflag</title>
<path fill="none" stroke="black" d="M142.29,-1982.27C167.91,-2002.86 212.85,-2035.48 257.5,-2051 387.94,-2096.34 805.66,-2119.84 964.32,-2127.31"/>
<polygon fill="black" stroke="black" points="964.07,-2130.8 974.22,-2127.77 964.4,-2123.81 964.07,-2130.8"/>
<text text-anchor="middle" x="564.88" y="-2102.71" font-family="Helvetica,sans-Serif" font-size="10.00">v1.8.1</text>
</g>
<!-- fortio.org/fortiotel&#45;&gt;fortio.org/fortio -->
<g id="edge24" class="edge">
<title>fortio.org/fortiotel&#45;&gt;fortio.org/fortio</title>
<path fill="none" stroke="black" d="M127.67,-1945.58C160.64,-1857.78 300.58,-1485.64 307.75,-1475 328.41,-1444.34 359.83,-1416.21 383.89,-1397.12"/>
<polygon fill="black" stroke="black" points="385.77,-1400.09 391.52,-1391.19 381.48,-1394.56 385.77,-1400.09"/>
<text text-anchor="middle" x="273.62" y="-1600.28" font-family="Helvetica,sans-Serif" font-size="10.00">v1.69.1</text>
</g>
<!-- fortio.org/fortiotel&#45;&gt;fortio.org/log -->
<g id="edge25" class="edge">
<title>fortio.org/fortiotel&#45;&gt;fortio.org/log</title>
<path fill="none" stroke="black" d="M178.7,-1981.77C211.54,-1992.19 253.23,-2006.03 289.75,-2020 422.31,-2070.72 487.47,-2044.24 581,-2151 596.56,-2168.77 579.68,-2187.42 599,-2201 639.76,-2229.65 1447.71,-2171.12 1494.5,-2154 1520.3,-2144.56 1531.02,-2141.8 1544.75,-2118 1619.2,-1989 1621.09,-1504.73 1620.3,-1379.64"/>
<polygon fill="black" stroke="black" points="1623.8,-1379.85 1620.23,-1369.88 1616.8,-1379.9 1623.8,-1379.85"/>
<text text-anchor="middle" x="888.38" y="-2205.69" font-family="Helvetica,sans-Serif" font-size="10.00">v1.17.2</text>
</g>
<!-- fortio.org/struct2env -->
<g id="node18" class="node">
<title>fortio.org/struct2env</title>
<path fill="lightblue" stroke="black" d="M1865.5,-95C1865.5,-95 1754.25,-95 1754.25,-95 1748.25,-95 1742.25,-89 1742.25,-83 1742.25,-83 1742.25,-71 1742.25,-71 1742.25,-65 1748.25,-59 1754.25,-59 1754.25,-59 1865.5,-59 1865.5,-59 1871.5,-59 1877.5,-65 1877.5,-71 1877.5,-71 1877.5,-83 1877.5,-83 1877.5,-89 1871.5,-95 1865.5,-95"/>
<text text-anchor="middle" x="1809.88" y="-71.2" font-family="Helvetica,sans-Serif" font-size="14.00">fortio.org/struct2env</text>
</g>
<!-- fortio.org/log&#45;&gt;fortio.org/struct2env -->
<g id="edge26" class="edge">
<title>fortio.org/log&#45;&gt;fortio.org/struct2env</title>
<path fill="none" stroke="black" d="M1624.71,-1331.51C1645.46,-1190.21 1778.8,-281.9 1804.57,-106.35"/>
<polygon fill="black" stroke="black" points="1807.99,-107.11 1805.98,-96.71 1801.07,-106.09 1807.99,-107.11"/>
<text text-anchor="middle" x="1710.75" y="-829.27" font-family="Helvetica,sans-Serif" font-size="10.00">v0.4.2</text>
</g>
<!-- fortio.org/logc -->
<g id="node8" class="node">
<title>fortio.org/logc</title>
<path fill="lightblue" stroke="black" d="M456.12,-1242C456.12,-1242 382.38,-1242 382.38,-1242 376.38,-1242 370.38,-1236 370.38,-1230 370.38,-1230 370.38,-1218 370.38,-1218 370.38,-1212 376.38,-1206 382.38,-1206 382.38,-1206 456.12,-1206 456.12,-1206 462.12,-1206 468.12,-1212 468.12,-1218 468.12,-1218 468.12,-1230 468.12,-1230 468.12,-1236 462.12,-1242 456.12,-1242"/>
<text text-anchor="middle" x="419.25" y="-1218.2" font-family="Helvetica,sans-Serif" font-size="14.00">fortio.org/logc</text>
</g>
<!-- fortio.org/logc&#45;&gt;fortio.org/cli -->
<g id="edge27" class="edge">
<title>fortio.org/logc&#45;&gt;fortio.org/cli</title>
<path fill="none" stroke="black" d="M437.6,-1205.6C497.56,-1143.46 704.31,-941.12 922.5,-866 1055.54,-820.19 1224.89,-840.76 1309.59,-855.95"/>
<polygon fill="black" stroke="black" points="1308.76,-859.36 1319.23,-857.73 1310.03,-852.47 1308.76,-859.36"/>
<text text-anchor="middle" x="888.38" y="-886.16" font-family="Helvetica,sans-Serif" font-size="10.00">v1.10.0</text>
</g>
<!-- fortio.org/logc&#45;&gt;fortio.org/log -->
<g id="edge28" class="edge">
<title>fortio.org/logc&#45;&gt;fortio.org/log</title>
<path fill="none" stroke="black" d="M468.45,-1221.83C671.35,-1213.05 1449.96,-1183.12 1544.75,-1236 1577.7,-1254.38 1598.75,-1293.94 1609.98,-1321.26"/>
<polygon fill="black" stroke="black" points="1606.63,-1322.3 1613.51,-1330.35 1613.15,-1319.76 1606.63,-1322.3"/>
<text text-anchor="middle" x="1027.25" y="-1209.26" font-family="Helvetica,sans-Serif" font-size="10.00">v1.17.2</text>
</g>
<!-- fortio.org/logc&#45;&gt;fortio.org/scli -->
<g id="edge29" class="edge">
<title>fortio.org/logc&#45;&gt;fortio.org/scli</title>
<path fill="none" stroke="black" d="M468.4,-1229.36C501.08,-1234.14 544.77,-1242.76 581,-1257.75 623.3,-1275.25 666.6,-1305.42 694.66,-1326.91"/>
<polygon fill="black" stroke="black" points="692.33,-1329.53 702.37,-1332.9 696.62,-1324 692.33,-1329.53"/>
<text text-anchor="middle" x="564.88" y="-1259.5" font-family="Helvetica,sans-Serif" font-size="10.00">v1.15.3</text>
</g>
<!-- fortio.org/memstore -->
<g id="node9" class="node">
<title>fortio.org/memstore</title>
<path fill="lightblue" stroke="black" d="M175,-2208C175,-2208 64.5,-2208 64.5,-2208 58.5,-2208 52.5,-2202 52.5,-2196 52.5,-2196 52.5,-2184 52.5,-2184 52.5,-2178 58.5,-2172 64.5,-2172 64.5,-2172 175,-2172 175,-2172 181,-2172 187,-2178 187,-2184 187,-2184 187,-2196 187,-2196 187,-2202 181,-2208 175,-2208"/>
<text text-anchor="middle" x="119.75" y="-2184.2" font-family="Helvetica,sans-Serif" font-size="14.00">fortio.org/memstore</text>
</g>
<!-- fortio.org/memstore&#45;&gt;fortio.org/dflag -->
<g id="edge30" class="edge">
<title>fortio.org/memstore&#45;&gt;fortio.org/dflag</title>
<path fill="none" stroke="black" d="M187.26,-2184.59C279.61,-2177.17 451.94,-2163.66 599,-2154 729.1,-2145.45 881.61,-2137.34 964.67,-2133.09"/>
<polygon fill="black" stroke="black" points="964.6,-2136.6 974.4,-2132.59 964.24,-2129.61 964.6,-2136.6"/>
<text text-anchor="middle" x="564.88" y="-2159.1" font-family="Helvetica,sans-Serif" font-size="10.00">v1.7.3</text>
</g>
<!-- fortio.org/memstore&#45;&gt;fortio.org/fortio -->
<g id="edge31" class="edge">
<title>fortio.org/memstore&#45;&gt;fortio.org/fortio</title>
<path fill="none" stroke="black" d="M178.14,-2171.54C200.03,-2161.94 223.53,-2148.12 239.5,-2129 288.65,-2070.17 277.07,-2039.6 289.75,-1964 298.75,-1910.38 285.15,-1524.45 307.75,-1475 322.68,-1442.32 353.28,-1415.12 378.5,-1396.89"/>
<polygon fill="black" stroke="black" points="380.42,-1399.82 386.61,-1391.22 376.41,-1394.08 380.42,-1399.82"/>
<text text-anchor="middle" x="273.62" y="-2104.38" font-family="Helvetica,sans-Serif" font-size="10.00">v1.68.0</text>
</g>
<!-- fortio.org/memstore&#45;&gt;fortio.org/log -->
<g id="edge32" class="edge">
<title>fortio.org/memstore&#45;&gt;fortio.org/log</title>
<path fill="none" stroke="black" d="M187.24,-2203.04C204.42,-2206.97 222.78,-2211.68 239.5,-2217 321.44,-2243.07 332.27,-2291 418.25,-2291 418.25,-2291 418.25,-2291 1183.62,-2291 1322.11,-2291 1378.35,-2345.41 1494.5,-2270 1504.52,-2263.5 1541.35,-2186.45 1544.75,-2175 1590.47,-2021.07 1613.68,-1507.99 1618.87,-1379.41"/>
<polygon fill="black" stroke="black" points="1622.35,-1379.84 1619.25,-1369.71 1615.36,-1379.56 1622.35,-1379.84"/>
<text text-anchor="middle" x="888.38" y="-2292.75" font-family="Helvetica,sans-Serif" font-size="10.00">v1.17.1</text>
</g>
<!-- fortio.org/memstore&#45;&gt;fortio.org/scli -->
<g id="edge33" class="edge">
<title>fortio.org/memstore&#45;&gt;fortio.org/scli</title>
<path fill="none" stroke="black" d="M187.21,-2173.03C224.17,-2159.86 267.15,-2137.51 289.75,-2101 312.54,-2064.19 280.25,-1745.19 307.75,-1711.75 372.56,-1632.92 458.07,-1728.64 530.75,-1657 553.32,-1634.75 534.99,-1616.55 548.75,-1588 589.23,-1504.03 661.58,-1420.14 700.01,-1378.68"/>
<polygon fill="black" stroke="black" points="702.36,-1381.29 706.63,-1371.6 697.25,-1376.51 702.36,-1381.29"/>
<text text-anchor="middle" x="419.25" y="-1713.5" font-family="Helvetica,sans-Serif" font-size="10.00">v1.15.3</text>
</g>
<!-- fortio.org/memstore&#45;&gt;fortio.org/sets -->
<g id="edge34" class="edge">
<title>fortio.org/memstore&#45;&gt;fortio.org/sets</title>
<path fill="none" stroke="black" d="M187.38,-2191.79C218.48,-2192.37 256.01,-2192.7 289.75,-2192 383.39,-2190.06 1046.19,-2194.55 1132,-2157 1231.61,-2113.41 1311.78,-2005.64 1345.56,-1954.62"/>
<polygon fill="black" stroke="black" points="1348.34,-1956.77 1350.86,-1946.48 1342.47,-1952.95 1348.34,-1956.77"/>
<text text-anchor="middle" x="726.62" y="-2191.4" font-family="Helvetica,sans-Serif" font-size="10.00">v1.2.0</text>
</g>
<!-- fortio.org/multicurl -->
<g id="node10" class="node">
<title>fortio.org/multicurl</title>
<path fill="lightblue" stroke="black" d="M1077.25,-1330C1077.25,-1330 977.25,-1330 977.25,-1330 971.25,-1330 965.25,-1324 965.25,-1318 965.25,-1318 965.25,-1306 965.25,-1306 965.25,-1300 971.25,-1294 977.25,-1294 977.25,-1294 1077.25,-1294 1077.25,-1294 1083.25,-1294 1089.25,-1300 1089.25,-1306 1089.25,-1306 1089.25,-1318 1089.25,-1318 1089.25,-1324 1083.25,-1330 1077.25,-1330"/>
<text text-anchor="middle" x="1027.25" y="-1306.2" font-family="Helvetica,sans-Serif" font-size="14.00">fortio.org/multicurl</text>
</g>
<!-- fortio.org/multicurl&#45;&gt;fortio.org/cli -->
<g id="edge35" class="edge">
<title>fortio.org/multicurl&#45;&gt;fortio.org/cli</title>
<path fill="none" stroke="black" d="M1062.85,-1293.59C1108.14,-1267.22 1185.3,-1213.95 1215.25,-1143 1246.52,-1068.93 1193.55,-1032.91 1233.25,-963 1251.25,-931.31 1284.45,-907.03 1312.75,-890.81"/>
<polygon fill="black" stroke="black" points="1314.13,-894.04 1321.19,-886.15 1310.75,-887.92 1314.13,-894.04"/>
<text text-anchor="middle" x="1182.62" y="-1231.4" font-family="Helvetica,sans-Serif" font-size="10.00">v1.10.0</text>
</g>
<!-- fortio.org/multicurl&#45;&gt;fortio.org/log -->
<g id="edge36" class="edge">
<title>fortio.org/multicurl&#45;&gt;fortio.org/log</title>
<path fill="none" stroke="black" d="M1089.63,-1315.94C1204.99,-1323.35 1452.55,-1339.25 1563.81,-1346.39"/>
<polygon fill="black" stroke="black" points="1563.39,-1349.87 1573.59,-1347.02 1563.84,-1342.89 1563.39,-1349.87"/>
<text text-anchor="middle" x="1363.88" y="-1343.54" font-family="Helvetica,sans-Serif" font-size="10.00">v1.17.2</text>
</g>
<!-- fortio.org/progressbar -->
<g id="node12" class="node">
<title>fortio.org/progressbar</title>
<path fill="lightblue" stroke="black" d="M1424.38,-1314C1424.38,-1314 1303.38,-1314 1303.38,-1314 1297.38,-1314 1291.38,-1308 1291.38,-1302 1291.38,-1302 1291.38,-1290 1291.38,-1290 1291.38,-1284 1297.38,-1278 1303.38,-1278 1303.38,-1278 1424.38,-1278 1424.38,-1278 1430.38,-1278 1436.38,-1284 1436.38,-1290 1436.38,-1290 1436.38,-1302 1436.38,-1302 1436.38,-1308 1430.38,-1314 1424.38,-1314"/>
<text text-anchor="middle" x="1363.88" y="-1290.2" font-family="Helvetica,sans-Serif" font-size="14.00">fortio.org/progressbar</text>
</g>
<!-- fortio.org/multicurl&#45;&gt;fortio.org/progressbar -->
<g id="edge37" class="edge">
<title>fortio.org/multicurl&#45;&gt;fortio.org/progressbar</title>
<path fill="none" stroke="black" d="M1089.72,-1302.18C1108.96,-1299.54 1130.32,-1297.06 1150,-1295.75 1192.79,-1292.91 1240.53,-1292.69 1279.94,-1293.31"/>
<polygon fill="black" stroke="black" points="1279.78,-1296.81 1289.84,-1293.49 1279.9,-1289.81 1279.78,-1296.81"/>
<text text-anchor="middle" x="1182.62" y="-1297.5" font-family="Helvetica,sans-Serif" font-size="10.00">v0.12.0</text>
</g>
<!-- fortio.org/multicurl&#45;&gt;fortio.org/testscript -->
<g id="edge38" class="edge">
<title>fortio.org/multicurl&#45;&gt;fortio.org/testscript</title>
<path fill="none" stroke="black" d="M1067.66,-1330.46C1091.32,-1341.3 1122.15,-1354.99 1150,-1366 1178.56,-1377.29 1194.62,-1366 1215.25,-1388.75 1238.06,-1413.9 1213.15,-1435.63 1233.25,-1463 1250.4,-1486.35 1276.83,-1504.06 1301.37,-1516.65"/>
<polygon fill="black" stroke="black" points="1299.5,-1519.63 1310.02,-1520.9 1302.58,-1513.35 1299.5,-1519.63"/>
<text text-anchor="middle" x="1182.62" y="-1390.5" font-family="Helvetica,sans-Serif" font-size="10.00">v0.3.2</text>
</g>
<!-- fortio.org/multicurl&#45;&gt;fortio.org/version -->
<g id="edge39" class="edge">
<title>fortio.org/multicurl&#45;&gt;fortio.org/version</title>
<path fill="none" stroke="black" d="M1089.62,-1297.48C1137.75,-1284.79 1199.19,-1265.27 1215.25,-1245 1259.21,-1189.52 1183.2,-1136.81 1233.25,-1086.75 1274.56,-1045.43 1445.22,-1088.39 1494.5,-1057 1530.55,-1034.04 1530.29,-1015.22 1544.75,-975 1610.59,-791.8 1619.11,-553.84 1619.99,-471.53"/>
<polygon fill="black" stroke="black" points="1623.49,-471.65 1620.07,-461.63 1616.49,-471.6 1623.49,-471.65"/>
<text text-anchor="middle" x="1363.88" y="-1088.5" font-family="Helvetica,sans-Serif" font-size="10.00">v1.0.4</text>
</g>
<!-- fortio.org/otel&#45;sample&#45;app -->
<g id="node11" class="node">
<title>fortio.org/otel&#45;sample&#45;app</title>
<path fill="lightblue" stroke="black" d="M193,-2262C193,-2262 46.5,-2262 46.5,-2262 40.5,-2262 34.5,-2256 34.5,-2250 34.5,-2250 34.5,-2238 34.5,-2238 34.5,-2232 40.5,-2226 46.5,-2226 46.5,-2226 193,-2226 193,-2226 199,-2226 205,-2232 205,-2238 205,-2238 205,-2250 205,-2250 205,-2256 199,-2262 193,-2262"/>
<text text-anchor="middle" x="119.75" y="-2238.2" font-family="Helvetica,sans-Serif" font-size="14.00">fortio.org/otel&#45;sample&#45;app</text>
</g>
<!-- fortio.org/proxy -->
<g id="node13" class="node">
<title>fortio.org/proxy</title>
<path fill="lightblue" stroke="black" d="M160.75,-1562C160.75,-1562 78.75,-1562 78.75,-1562 72.75,-1562 66.75,-1556 66.75,-1550 66.75,-1550 66.75,-1538 66.75,-1538 66.75,-1532 72.75,-1526 78.75,-1526 78.75,-1526 160.75,-1526 160.75,-1526 166.75,-1526 172.75,-1532 172.75,-1538 172.75,-1538 172.75,-1550 172.75,-1550 172.75,-1556 166.75,-1562 160.75,-1562"/>
<text text-anchor="middle" x="119.75" y="-1538.2" font-family="Helvetica,sans-Serif" font-size="14.00">fortio.org/proxy</text>
</g>
<!-- fortio.org/proxy&#45;&gt;fortio.org/cli -->
<g id="edge40" class="edge">
<title>fortio.org/proxy&#45;&gt;fortio.org/cli</title>
<path fill="none" stroke="black" d="M150.99,-1525.56C178.79,-1506.88 218.76,-1475.32 239.5,-1437 286.29,-1350.56 258.36,-1084.98 307.75,-1000 376.57,-881.6 429.86,-875.96 548.75,-808 677.38,-734.47 1071.41,-754.48 1215.25,-790 1256.29,-800.14 1298.62,-823.82 1327.37,-842.27"/>
<polygon fill="black" stroke="black" points="1325.4,-845.16 1335.69,-847.71 1329.24,-839.31 1325.4,-845.16"/>
<text text-anchor="middle" x="726.62" y="-788.49" font-family="Helvetica,sans-Serif" font-size="10.00">v1.10.0</text>
</g>
<!-- fortio.org/proxy&#45;&gt;fortio.org/dflag -->
<g id="edge41" class="edge">
<title>fortio.org/proxy&#45;&gt;fortio.org/dflag</title>
<path fill="none" stroke="black" d="M123.56,-1562.2C134.36,-1625.85 179.27,-1840.34 307.75,-1947 359.21,-1989.72 800.74,-2083.71 965.02,-2117.55"/>
<polygon fill="black" stroke="black" points="963.91,-2120.89 974.41,-2119.48 965.32,-2114.04 963.91,-2120.89"/>
<text text-anchor="middle" x="564.88" y="-2034.02" font-family="Helvetica,sans-Serif" font-size="10.00">v1.8.1</text>
</g>
<!-- fortio.org/proxy&#45;&gt;fortio.org/fortio -->
<g id="edge42" class="edge">
<title>fortio.org/proxy&#45;&gt;fortio.org/fortio</title>
<path fill="none" stroke="black" d="M172.97,-1532.25C207.61,-1523.07 253.23,-1508.28 289.75,-1487 311.62,-1474.25 360.67,-1428.17 391.44,-1398.35"/>
<polygon fill="black" stroke="black" points="393.79,-1400.95 398.52,-1391.47 388.91,-1395.93 393.79,-1400.95"/>
<text text-anchor="middle" x="273.62" y="-1504.19" font-family="Helvetica,sans-Serif" font-size="10.00">v1.69.1</text>
</g>
<!-- fortio.org/proxy&#45;&gt;fortio.org/log -->
<g id="edge43" class="edge">
<title>fortio.org/proxy&#45;&gt;fortio.org/log</title>
<path fill="none" stroke="black" d="M124.9,-1562.24C139.14,-1620.45 191.65,-1803.22 307.75,-1893 388.42,-1955.38 431.95,-1921.76 530.75,-1947 675,-1983.86 711.19,-1992.77 854.25,-2034 884.75,-2042.79 891.12,-2050.28 922.5,-2055 1014.58,-2068.85 1039.11,-2061.38 1132,-2055 1294.25,-2043.86 1361.85,-2099.1 1494.5,-2005 1598.7,-1931.08 1616.51,-1497.83 1619.44,-1379.73"/>
<polygon fill="black" stroke="black" points="1622.94,-1379.99 1619.67,-1369.91 1615.94,-1379.83 1622.94,-1379.99"/>
<text text-anchor="middle" x="888.38" y="-2053.1" font-family="Helvetica,sans-Serif" font-size="10.00">v1.17.2</text>
</g>
<!-- fortio.org/proxy&#45;&gt;fortio.org/scli -->
<g id="edge44" class="edge">
<title>fortio.org/proxy&#45;&gt;fortio.org/scli</title>
<path fill="none" stroke="black" d="M154.88,-1525.56C193.6,-1502.84 255.76,-1460.58 289.75,-1407 307.71,-1378.69 281.37,-1354.43 307.75,-1333.75 362.29,-1290.99 567.85,-1322.15 668.87,-1340.76"/>
<polygon fill="black" stroke="black" points="668.11,-1344.18 678.58,-1342.57 669.4,-1337.3 668.11,-1344.18"/>
<text text-anchor="middle" x="419.25" y="-1335.5" font-family="Helvetica,sans-Serif" font-size="10.00">v1.16.1</text>
</g>
<!-- fortio.org/scli&#45;&gt;fortio.org/cli -->
<g id="edge45" class="edge">
<title>fortio.org/scli&#45;&gt;fortio.org/cli</title>
<path fill="none" stroke="black" d="M773.03,-1351.55C814.42,-1348.46 873.65,-1336.76 904.5,-1297 928.86,-1265.6 896.03,-969.4 922.5,-939.75 935.35,-925.36 1194.74,-889.33 1309.29,-874.04"/>
<polygon fill="black" stroke="black" points="1309.61,-877.53 1319.06,-872.74 1308.69,-870.59 1309.61,-877.53"/>
<text text-anchor="middle" x="1027.25" y="-941.5" font-family="Helvetica,sans-Serif" font-size="10.00">v1.10.0</text>
</g>
<!-- fortio.org/scli&#45;&gt;fortio.org/dflag -->
<g id="edge46" class="edge">
<title>fortio.org/scli&#45;&gt;fortio.org/dflag</title>
<path fill="none" stroke="black" d="M743.2,-1370.4C769.45,-1402.23 822.72,-1470.48 854.25,-1536 887.63,-1605.36 891.11,-1625.95 904.5,-1701.75 917.09,-1773.03 892.84,-1960.97 922.5,-2027 936.82,-2058.89 965.76,-2086.27 989.44,-2104.77"/>
<polygon fill="black" stroke="black" points="987.26,-2107.51 997.34,-2110.75 991.48,-2101.93 987.26,-2107.51"/>
<text text-anchor="middle" x="888.38" y="-1703.5" font-family="Helvetica,sans-Serif" font-size="10.00">v1.8.1</text>
</g>
<!-- fortio.org/scli&#45;&gt;fortio.org/log -->
<g id="edge47" class="edge">
<title>fortio.org/scli&#45;&gt;fortio.org/log</title>
<path fill="none" stroke="black" d="M773.09,-1350.21C865.32,-1347.32 1070.84,-1344.83 1132,-1377 1143.49,-1383.04 1138.33,-1394.31 1150,-1400 1176.07,-1412.7 1186.3,-1401.78 1215.25,-1400 1340.53,-1392.29 1486.4,-1371.28 1564.26,-1359.09"/>
<polygon fill="black" stroke="black" points="1564.42,-1362.61 1573.75,-1357.59 1563.33,-1355.69 1564.42,-1362.61"/>
<text text-anchor="middle" x="1182.62" y="-1407.81" font-family="Helvetica,sans-Serif" font-size="10.00">v1.17.2</text>
</g>
<!-- fortio.org/scli&#45;&gt;fortio.org/version -->
<g id="edge48" class="edge">
<title>fortio.org/scli&#45;&gt;fortio.org/version</title>
<path fill="none" stroke="black" d="M729.26,-1333.8C736.02,-1266.72 766.63,-1029.05 872.25,-871 981.59,-707.38 1108.34,-756.22 1215.25,-591 1232,-565.11 1210.78,-545.11 1233.25,-524 1319.59,-442.87 1378.72,-496.12 1494.5,-471 1512.87,-467.02 1532.71,-462.52 1551.07,-458.28"/>
<polygon fill="black" stroke="black" points="1551.85,-461.69 1560.81,-456.02 1550.27,-454.87 1551.85,-461.69"/>
<text text-anchor="middle" x="1182.62" y="-667.35" font-family="Helvetica,sans-Serif" font-size="10.00">v1.0.4</text>
</g>
<!-- fortio.org/sets&#45;&gt;fortio.org/assert -->
<g id="edge49" class="edge">
<title>fortio.org/sets&#45;&gt;fortio.org/assert</title>
<path fill="none" stroke="black" d="M1380.5,-1945.31C1406.67,-1976.61 1459.87,-2043.16 1494.5,-2106 1504.9,-2124.87 1501.36,-2132.56 1512.5,-2151 1535.38,-2188.87 1569.59,-2226.73 1593.24,-2250.92"/>
<polygon fill="black" stroke="black" points="1590.54,-2253.17 1600.07,-2257.8 1595.51,-2248.24 1590.54,-2253.17"/>
<text text-anchor="middle" x="1528.62" y="-2197.24" font-family="Helvetica,sans-Serif" font-size="10.00">v1.2.1</text>
</g>
<!-- fortio.org/slack&#45;proxy -->
<g id="node17" class="node">
<title>fortio.org/slack&#45;proxy</title>
<path fill="lightblue" stroke="black" d="M178.38,-2120C178.38,-2120 61.12,-2120 61.12,-2120 55.12,-2120 49.12,-2114 49.12,-2108 49.12,-2108 49.12,-2096 49.12,-2096 49.12,-2090 55.12,-2084 61.12,-2084 61.12,-2084 178.38,-2084 178.38,-2084 184.38,-2084 190.38,-2090 190.38,-2096 190.38,-2096 190.38,-2108 190.38,-2108 190.38,-2114 184.38,-2120 178.38,-2120"/>
<text text-anchor="middle" x="119.75" y="-2096.2" font-family="Helvetica,sans-Serif" font-size="14.00">fortio.org/slack&#45;proxy</text>
</g>
<!-- fortio.org/slack&#45;proxy&#45;&gt;fortio.org/assert -->
<g id="edge50" class="edge">
<title>fortio.org/slack&#45;proxy&#45;&gt;fortio.org/assert</title>
<path fill="none" stroke="black" d="M155.96,-2120.38C262.83,-2174.42 594.15,-2329 887.38,-2329 887.38,-2329 887.38,-2329 1364.88,-2329 1430.57,-2329 1503.9,-2312.24 1555.02,-2297.75"/>
<polygon fill="black" stroke="black" points="1555.82,-2301.16 1564.45,-2295.03 1553.87,-2294.44 1555.82,-2301.16"/>
<text text-anchor="middle" x="888.38" y="-2330.75" font-family="Helvetica,sans-Serif" font-size="10.00">v1.2.1</text>
</g>
<!-- fortio.org/slack&#45;proxy&#45;&gt;fortio.org/fortio -->
<g id="edge51" class="edge">
<title>fortio.org/slack&#45;proxy&#45;&gt;fortio.org/fortio</title>
<path fill="none" stroke="black" d="M149.86,-2083.63C177.86,-2064.25 218.88,-2031.01 239.5,-1991 316.93,-1840.74 267.73,-1781.6 289.75,-1614 297.87,-1552.24 279.28,-1530.41 307.75,-1475 324.28,-1442.84 355.06,-1415.44 379.94,-1397.01"/>
<polygon fill="black" stroke="black" points="381.84,-1399.95 387.92,-1391.27 377.76,-1394.27 381.84,-1399.95"/>
<text text-anchor="middle" x="273.62" y="-1950.21" font-family="Helvetica,sans-Serif" font-size="10.00">v1.69.1</text>
</g>
<!-- fortio.org/slack&#45;proxy&#45;&gt;fortio.org/log -->
<g id="edge52" class="edge">
<title>fortio.org/slack&#45;proxy&#45;&gt;fortio.org/log</title>
<path fill="none" stroke="black" d="M190.6,-2111.39C273.26,-2123.65 414.36,-2148.25 530.75,-2187 562.54,-2197.58 566.3,-2211.71 599,-2219 696.2,-2240.66 1400.66,-2215.34 1494.5,-2182 1520.15,-2172.89 1531.03,-2170.51 1544.75,-2147 1622.88,-2013.13 1621.99,-1507.48 1620.46,-1379.55"/>
<polygon fill="black" stroke="black" points="1623.97,-1379.84 1620.34,-1369.89 1616.97,-1379.93 1623.97,-1379.84"/>
<text text-anchor="middle" x="888.38" y="-2227.85" font-family="Helvetica,sans-Serif" font-size="10.00">v1.17.2</text>
</g>
<!-- fortio.org/slack&#45;proxy&#45;&gt;fortio.org/scli -->
<g id="edge53" class="edge">
<title>fortio.org/slack&#45;proxy&#45;&gt;fortio.org/scli</title>
<path fill="none" stroke="black" d="M190.48,-2110.27C225.44,-2110.27 265.4,-2103.21 289.75,-2076 321.66,-2040.34 281.98,-1686.07 307.75,-1645.75 367.78,-1551.83 439.33,-1594.77 530.75,-1531 597.9,-1484.16 665.99,-1415.79 701.18,-1378.56"/>
<polygon fill="black" stroke="black" points="703.67,-1381.03 707.95,-1371.34 698.56,-1376.24 703.67,-1381.03"/>
<text text-anchor="middle" x="419.25" y="-1647.5" font-family="Helvetica,sans-Serif" font-size="10.00">v1.16.1</text>
</g>
<!-- fortio.org/term -->
<g id="node19" class="node">
<title>fortio.org/term</title>
<path fill="steelblue" stroke="black" d="M1437.88,-462C1437.88,-462 1289.88,-462 1289.88,-462 1283.88,-462 1277.88,-456 1277.88,-450 1277.88,-450 1277.88,-436 1277.88,-436 1277.88,-430 1283.88,-424 1289.88,-424 1289.88,-424 1437.88,-424 1437.88,-424 1443.88,-424 1449.88,-430 1449.88,-436 1449.88,-436 1449.88,-450 1449.88,-450 1449.88,-456 1443.88,-462 1437.88,-462"/>
<text text-anchor="middle" x="1363.88" y="-444.7" font-family="Helvetica,sans-Serif" font-size="14.00">fortio.org/term</text>
<text text-anchor="middle" x="1363.88" y="-429.7" font-family="Helvetica,sans-Serif" font-size="14.00">(fork of golang.org/x/term)</text>
</g>
<!-- fortio.org/terminal -->
<g id="node20" class="node">
<title>fortio.org/terminal</title>
<path fill="lightblue" stroke="black" d="M1076.12,-463C1076.12,-463 978.38,-463 978.38,-463 972.38,-463 966.38,-457 966.38,-451 966.38,-451 966.38,-439 966.38,-439 966.38,-433 972.38,-427 978.38,-427 978.38,-427 1076.12,-427 1076.12,-427 1082.12,-427 1088.12,-433 1088.12,-439 1088.12,-439 1088.12,-451 1088.12,-451 1088.12,-457 1082.12,-463 1076.12,-463"/>
<text text-anchor="middle" x="1027.25" y="-439.2" font-family="Helvetica,sans-Serif" font-size="14.00">fortio.org/terminal</text>
</g>
<!-- fortio.org/terminal&#45;&gt;fortio.org/cli -->
<g id="edge54" class="edge">
<title>fortio.org/terminal&#45;&gt;fortio.org/cli</title>
<path fill="none" stroke="black" d="M1088.45,-462.07C1141.35,-477.31 1210.64,-497.94 1215.25,-502.75 1236.96,-525.39 1222.93,-541.38 1233.25,-571 1268.41,-671.89 1323,-786.49 1348.65,-838.57"/>
<polygon fill="black" stroke="black" points="1345.42,-839.93 1352.99,-847.34 1351.69,-836.83 1345.42,-839.93"/>
<text text-anchor="middle" x="1182.62" y="-504.5" font-family="Helvetica,sans-Serif" font-size="10.00">v1.10.0</text>
</g>
<!-- fortio.org/terminal&#45;&gt;fortio.org/log -->
<g id="edge55" class="edge">
<title>fortio.org/terminal&#45;&gt;fortio.org/log</title>
<path fill="none" stroke="black" d="M1088.37,-454.26C1211.97,-474.62 1487.79,-527.33 1544.75,-600 1589.96,-657.68 1613.67,-1188.67 1618.89,-1320.49"/>
<polygon fill="black" stroke="black" points="1615.38,-1320.27 1619.26,-1330.13 1622.37,-1320 1615.38,-1320.27"/>
<text text-anchor="middle" x="1363.88" y="-563.07" font-family="Helvetica,sans-Serif" font-size="10.00">v1.17.2</text>
</g>
<!-- fortio.org/terminal&#45;&gt;fortio.org/safecast -->
<g id="edge56" class="edge">
<title>fortio.org/terminal&#45;&gt;fortio.org/safecast</title>
<path fill="none" stroke="black" d="M1088.4,-431.95C1126.1,-422.44 1175,-407.58 1215.25,-387 1260.59,-363.81 1306.49,-326.68 1334.8,-301.82"/>
<polygon fill="black" stroke="black" points="1337.08,-304.48 1342.23,-295.22 1332.43,-299.25 1337.08,-304.48"/>
<text text-anchor="middle" x="1182.62" y="-415.4" font-family="Helvetica,sans-Serif" font-size="10.00">v1.0.0</text>
</g>
<!-- fortio.org/terminal&#45;&gt;fortio.org/term -->
<g id="edge57" class="edge">
<title>fortio.org/terminal&#45;&gt;fortio.org/term</title>
<path fill="none" stroke="black" d="M1088.32,-444.3C1107.98,-444.1 1129.92,-443.89 1150,-443.75 1188.01,-443.49 1229.85,-443.32 1266.29,-443.2"/>
<polygon fill="black" stroke="black" points="1265.92,-446.7 1275.91,-443.17 1265.9,-439.7 1265.92,-446.7"/>
<text text-anchor="middle" x="1182.62" y="-445.5" font-family="Helvetica,sans-Serif" font-size="10.00">v0.29.0&#45;fortio&#45;1</text>
</g>
<!-- fortio.org/terminal/fps -->
<g id="node21" class="node">
<title>fortio.org/terminal/fps</title>
<path fill="lightblue" stroke="black" d="M179.5,-221C179.5,-221 60,-221 60,-221 54,-221 48,-215 48,-209 48,-209 48,-197 48,-197 48,-191 54,-185 60,-185 60,-185 179.5,-185 179.5,-185 185.5,-185 191.5,-191 191.5,-197 191.5,-197 191.5,-209 191.5,-209 191.5,-215 185.5,-221 179.5,-221"/>
<text text-anchor="middle" x="119.75" y="-197.2" font-family="Helvetica,sans-Serif" font-size="14.00">fortio.org/terminal/fps</text>
</g>
<!-- fortio.org/terminal/fps&#45;&gt;fortio.org/cli -->
<g id="edge58" class="edge">
<title>fortio.org/terminal/fps&#45;&gt;fortio.org/cli</title>
<path fill="none" stroke="black" d="M124.29,-221.43C136.83,-280.96 185.09,-468.8 307.75,-547 478.01,-655.54 1044.34,-484.48 1215.25,-592 1304.93,-648.42 1343.74,-779.08 1357.07,-837.66"/>
<polygon fill="black" stroke="black" points="1353.6,-838.19 1359.15,-847.21 1360.44,-836.7 1353.6,-838.19"/>
<text text-anchor="middle" x="726.62" y="-583.73" font-family="Helvetica,sans-Serif" font-size="10.00">v1.10.0</text>
</g>
<!-- fortio.org/terminal/fps&#45;&gt;fortio.org/fortio -->
<g id="edge59" class="edge">
<title>fortio.org/terminal/fps&#45;&gt;fortio.org/fortio</title>
<path fill="none" stroke="black" d="M125.51,-221.29C142.02,-284.97 198.1,-502.88 239.5,-684 263.67,-789.71 276.2,-815.16 289.75,-922.75 295.55,-968.79 279.08,-1303.51 307.75,-1340 319.56,-1355.03 337.98,-1363.29 356.41,-1367.75"/>
<polygon fill="black" stroke="black" points="355.55,-1371.14 366.04,-1369.71 356.94,-1364.28 355.55,-1371.14"/>
<text text-anchor="middle" x="273.62" y="-924.5" font-family="Helvetica,sans-Serif" font-size="10.00">v1.69.1</text>
</g>
<!-- fortio.org/terminal/fps&#45;&gt;fortio.org/log -->
<g id="edge60" class="edge">
<title>fortio.org/terminal/fps&#45;&gt;fortio.org/log</title>
<path fill="none" stroke="black" d="M147.14,-184.65C182.06,-161.46 246.41,-122.46 307.75,-105 432.57,-69.47 469.4,-90.86 599,-84 720.34,-77.57 750.75,-76.81 872.25,-74.75 987.85,-72.79 1017.99,-69.77 1132,-89 1173.23,-95.96 1461.7,-164.07 1494.5,-190 1530.74,-218.65 1531.65,-236.69 1544.75,-281 1552.34,-306.67 1607.14,-1150.84 1618.1,-1320.48"/>
<polygon fill="black" stroke="black" points="1614.6,-1320.66 1618.74,-1330.42 1621.59,-1320.21 1614.6,-1320.66"/>
<text text-anchor="middle" x="888.38" y="-76.5" font-family="Helvetica,sans-Serif" font-size="10.00">v1.17.2</text>
</g>
<!-- fortio.org/terminal/fps&#45;&gt;fortio.org/safecast -->
<g id="edge61" class="edge">
<title>fortio.org/terminal/fps&#45;&gt;fortio.org/safecast</title>
<path fill="none" stroke="black" d="M180.39,-184.52C338.99,-138.39 782.87,-28.87 1132,-130 1142.73,-133.11 1262.73,-210.73 1325.34,-251.5"/>
<polygon fill="black" stroke="black" points="1323.32,-254.35 1333.61,-256.88 1327.14,-248.49 1323.32,-254.35"/>
<text text-anchor="middle" x="726.62" y="-101.57" font-family="Helvetica,sans-Serif" font-size="10.00">v1.0.0</text>
</g>
<!-- fortio.org/terminal/fps&#45;&gt;fortio.org/terminal -->
<g id="edge62" class="edge">
<title>fortio.org/terminal/fps&#45;&gt;fortio.org/terminal</title>
<path fill="none" stroke="black" d="M191.92,-192.01C325.83,-174.19 622.6,-148.38 854.25,-227 880.27,-235.83 890.25,-239.51 904.5,-263 933.85,-311.36 890.15,-342.6 922.5,-389 931.96,-402.57 945.8,-413.16 960.3,-421.29"/>
<polygon fill="black" stroke="black" points="958.56,-424.33 969.05,-425.84 961.79,-418.12 958.56,-424.33"/>
<text text-anchor="middle" x="564.88" y="-178.22" font-family="Helvetica,sans-Serif" font-size="10.00">v0.29.1</text>
</g>
<!-- github.com/bwmarrin/discordgo -->
<g id="node24" class="node">
<title>github.com/bwmarrin/discordgo</title>
<path fill="coral" stroke="black" d="M842.25,-316C842.25,-316 611,-316 611,-316 605,-316 599,-310 599,-304 599,-304 599,-290 599,-290 599,-284 605,-278 611,-278 611,-278 842.25,-278 842.25,-278 848.25,-278 854.25,-284 854.25,-290 854.25,-290 854.25,-304 854.25,-304 854.25,-310 848.25,-316 842.25,-316"/>
<text text-anchor="middle" x="726.62" y="-298.7" font-family="Helvetica,sans-Serif" font-size="14.00">ldemailly/discordgo</text>
<text text-anchor="middle" x="726.62" y="-283.7" font-family="Helvetica,sans-Serif" font-size="14.00">(fork of github.com/bwmarrin/discordgo)</text>
</g>
<!-- github.com/fortio/delta -->
<g id="node25" class="node">
<title>github.com/fortio/delta</title>
<path fill="lightblue" stroke="black" d="M1090,-1422C1090,-1422 964.5,-1422 964.5,-1422 958.5,-1422 952.5,-1416 952.5,-1410 952.5,-1410 952.5,-1398 952.5,-1398 952.5,-1392 958.5,-1386 964.5,-1386 964.5,-1386 1090,-1386 1090,-1386 1096,-1386 1102,-1392 1102,-1398 1102,-1398 1102,-1410 1102,-1410 1102,-1416 1096,-1422 1090,-1422"/>
<text text-anchor="middle" x="1027.25" y="-1398.2" font-family="Helvetica,sans-Serif" font-size="14.00">github.com/fortio/delta</text>
</g>
<!-- github.com/fortio/delta&#45;&gt;fortio.org/cli -->
<g id="edge63" class="edge">
<title>github.com/fortio/delta&#45;&gt;fortio.org/cli</title>
<path fill="none" stroke="black" d="M1070.85,-1385.55C1123.32,-1362.41 1206.6,-1324.19 1215.25,-1311 1257.72,-1246.25 1196.63,-1031.23 1233.25,-963 1250.37,-931.1 1283.24,-906.94 1311.6,-890.84"/>
<polygon fill="black" stroke="black" points="1312.99,-894.07 1320.09,-886.2 1309.63,-887.93 1312.99,-894.07"/>
<text text-anchor="middle" x="1182.62" y="-1348.81" font-family="Helvetica,sans-Serif" font-size="10.00">v1.10.0</text>
</g>
<!-- github.com/fortio/delta&#45;&gt;fortio.org/log -->
<g id="edge64" class="edge">
<title>github.com/fortio/delta&#45;&gt;fortio.org/log</title>
<path fill="none" stroke="black" d="M1090.59,-1422.43C1109.5,-1427.18 1130.44,-1431.63 1150,-1434 1268.27,-1448.36 1429.46,-1463.02 1544.75,-1416 1565.46,-1407.55 1584.37,-1390.91 1598.06,-1376.45"/>
<polygon fill="black" stroke="black" points="1600.34,-1379.15 1604.47,-1369.39 1595.15,-1374.44 1600.34,-1379.15"/>
<text text-anchor="middle" x="1363.88" y="-1449.78" font-family="Helvetica,sans-Serif" font-size="10.00">v1.17.2</text>
</g>
<!-- github.com/fortio/delta&#45;&gt;fortio.org/sets -->
<g id="edge65" class="edge">
<title>github.com/fortio/delta&#45;&gt;fortio.org/sets</title>
<path fill="none" stroke="black" d="M1102.44,-1415.97C1113.58,-1420.65 1124,-1427.1 1132,-1436 1159.86,-1466.98 1135.94,-1488.78 1150,-1528 1170.59,-1585.42 1186.46,-1594.97 1215.25,-1648.75 1264.07,-1739.92 1321.33,-1848.25 1347.91,-1898.62"/>
<polygon fill="black" stroke="black" points="1344.78,-1900.19 1352.54,-1907.4 1350.97,-1896.93 1344.78,-1900.19"/>
<text text-anchor="middle" x="1182.62" y="-1650.5" font-family="Helvetica,sans-Serif" font-size="10.00">v1.2.0</text>
</g>
<!-- github.com/fortio/delta&#45;&gt;fortio.org/testscript -->
<g id="edge66" class="edge">
<title>github.com/fortio/delta&#45;&gt;fortio.org/testscript</title>
<path fill="none" stroke="black" d="M1102.41,-1417.09C1113.35,-1421.64 1123.71,-1427.76 1132,-1436 1150.85,-1454.72 1130.44,-1475.02 1150,-1493 1157.79,-1500.17 1199.37,-1510.22 1243.74,-1519.29"/>
<polygon fill="black" stroke="black" points="1242.78,-1522.66 1253.27,-1521.2 1244.16,-1515.8 1242.78,-1522.66"/>
<text text-anchor="middle" x="1182.62" y="-1514.91" font-family="Helvetica,sans-Serif" font-size="10.00">v0.3.2</text>
</g>
<!-- github.com/fortio/h2cli -->
<g id="node26" class="node">
<title>github.com/fortio/h2cli</title>
<path fill="lightblue" stroke="black" d="M1089.25,-1137C1089.25,-1137 965.25,-1137 965.25,-1137 959.25,-1137 953.25,-1131 953.25,-1125 953.25,-1125 953.25,-1113 953.25,-1113 953.25,-1107 959.25,-1101 965.25,-1101 965.25,-1101 1089.25,-1101 1089.25,-1101 1095.25,-1101 1101.25,-1107 1101.25,-1113 1101.25,-1113 1101.25,-1125 1101.25,-1125 1101.25,-1131 1095.25,-1137 1089.25,-1137"/>
<text text-anchor="middle" x="1027.25" y="-1113.2" font-family="Helvetica,sans-Serif" font-size="14.00">github.com/fortio/h2cli</text>
</g>
<!-- github.com/fortio/h2cli&#45;&gt;fortio.org/cli -->
<g id="edge67" class="edge">
<title>github.com/fortio/h2cli&#45;&gt;fortio.org/cli</title>
<path fill="none" stroke="black" d="M1101.73,-1106.39C1112.38,-1102.74 1122.83,-1098.05 1132,-1092 1142.91,-1084.8 1141.63,-1078.79 1150,-1068.75 1177.81,-1035.39 1190.18,-1031.47 1215.25,-996 1224.89,-982.36 1222.28,-975.6 1233.25,-963 1258.31,-934.22 1293.42,-908.88 1320.78,-891.47"/>
<polygon fill="black" stroke="black" points="1322.55,-894.48 1329.19,-886.22 1318.85,-888.55 1322.55,-894.48"/>
<text text-anchor="middle" x="1182.62" y="-1070.5" font-family="Helvetica,sans-Serif" font-size="10.00">v1.10.0</text>
</g>
<!-- github.com/fortio/h2cli&#45;&gt;fortio.org/log -->
<g id="edge68" class="edge">
<title>github.com/fortio/h2cli&#45;&gt;fortio.org/log</title>
<path fill="none" stroke="black" d="M1101.42,-1109.06C1195.76,-1099.25 1363.28,-1092.19 1494.5,-1142.75 1568.63,-1171.31 1601.69,-1270.53 1613.93,-1320.6"/>
<polygon fill="black" stroke="black" points="1610.48,-1321.21 1616.14,-1330.16 1617.3,-1319.63 1610.48,-1321.21"/>
<text text-anchor="middle" x="1363.88" y="-1144.5" font-family="Helvetica,sans-Serif" font-size="10.00">v1.17.2</text>
</g>
<!-- github.com/fortio/h2demo -->
<g id="node27" class="node">
<title>github.com/fortio/h2demo</title>
<path fill="lightblue" stroke="black" d="M192.62,-2316C192.62,-2316 46.87,-2316 46.87,-2316 40.88,-2316 34.88,-2310 34.88,-2304 34.88,-2304 34.88,-2292 34.88,-2292 34.88,-2286 40.88,-2280 46.88,-2280 46.88,-2280 192.62,-2280 192.62,-2280 198.62,-2280 204.62,-2286 204.62,-2292 204.62,-2292 204.62,-2304 204.62,-2304 204.62,-2310 198.62,-2316 192.62,-2316"/>
<text text-anchor="middle" x="119.75" y="-2292.2" font-family="Helvetica,sans-Serif" font-size="14.00">github.com/fortio/h2demo</text>
</g>
<!-- github.com/fortio/logger&#45;bench -->
<g id="node28" class="node">
<title>github.com/fortio/logger&#45;bench</title>
<path fill="lightblue" stroke="black" d="M506.75,-1768C506.75,-1768 331.75,-1768 331.75,-1768 325.75,-1768 319.75,-1762 319.75,-1756 319.75,-1756 319.75,-1744 319.75,-1744 319.75,-1738 325.75,-1732 331.75,-1732 331.75,-1732 506.75,-1732 506.75,-1732 512.75,-1732 518.75,-1738 518.75,-1744 518.75,-1744 518.75,-1756 518.75,-1756 518.75,-1762 512.75,-1768 506.75,-1768"/>
<text text-anchor="middle" x="419.25" y="-1744.2" font-family="Helvetica,sans-Serif" font-size="14.00">github.com/fortio/logger&#45;bench</text>
</g>
<!-- github.com/fortio/logger&#45;bench&#45;&gt;fortio.org/cli -->
<g id="edge69" class="edge">
<title>github.com/fortio/logger&#45;bench&#45;&gt;fortio.org/cli</title>
<path fill="none" stroke="black" d="M519.1,-1734.01C523.17,-1731.94 527.08,-1729.61 530.75,-1727 543.43,-1717.99 538.76,-1708.91 548.75,-1697 560.95,-1682.46 567.29,-1682.13 581,-1669 589.4,-1660.96 589.1,-1656.11 599,-1650 699.85,-1587.79 776.99,-1662.84 854.25,-1573 890.92,-1530.36 846.48,-1497.74 872.25,-1447.75 881.32,-1430.15 896.33,-1435.04 904.5,-1417 924.37,-1373.14 890.46,-1019.94 922.5,-984 985.22,-913.64 1049.15,-995.95 1132,-951 1142.51,-945.3 1139.9,-937.4 1150,-931 1176.55,-914.17 1255.52,-892.84 1309.44,-879.56"/>
<polygon fill="black" stroke="black" points="1310.18,-882.98 1319.06,-877.21 1308.52,-876.18 1310.18,-882.98"/>
<text text-anchor="middle" x="888.38" y="-1449.5" font-family="Helvetica,sans-Serif" font-size="10.00">v1.10.0</text>
</g>
<!-- github.com/fortio/logger&#45;bench&#45;&gt;fortio.org/log -->
<g id="edge70" class="edge">
<title>github.com/fortio/logger&#45;bench&#45;&gt;fortio.org/log</title>
<path fill="none" stroke="black" d="M519.16,-1754.89C529.15,-1755.3 539.15,-1755.68 548.75,-1756 571.08,-1756.74 576.67,-1756.57 599,-1757 998.8,-1764.64 1148.66,-1870.74 1494.5,-1670 1598.23,-1609.79 1616.44,-1446.87 1619.48,-1379.64"/>
<polygon fill="black" stroke="black" points="1622.97,-1379.87 1619.83,-1369.75 1615.97,-1379.62 1622.97,-1379.87"/>
<text text-anchor="middle" x="1027.25" y="-1793.55" font-family="Helvetica,sans-Serif" font-size="10.00">v1.17.2</text>
</g>
<!-- github.com/fortio/logger&#45;bench&#45;&gt;fortio.org/scli -->
<g id="edge71" class="edge">
<title>github.com/fortio/logger&#45;bench&#45;&gt;fortio.org/scli</title>
<path fill="none" stroke="black" d="M473.88,-1731.51C493.68,-1722.6 515.08,-1710.26 530.75,-1694 535.38,-1689.2 578.45,-1591.16 581,-1585 589.86,-1563.56 588.34,-1556.61 599,-1536 629.75,-1476.56 676.59,-1413.64 703.85,-1378.95"/>
<polygon fill="black" stroke="black" points="706.25,-1381.54 709.72,-1371.53 700.77,-1377.2 706.25,-1381.54"/>
<text text-anchor="middle" x="564.88" y="-1657.08" font-family="Helvetica,sans-Serif" font-size="10.00">v1.16.1</text>
</g>
<!-- github.com/fortio/logger&#45;bench&#45;&gt;fortio.org/sets -->
<g id="edge72" class="edge">
<title>github.com/fortio/logger&#45;bench&#45;&gt;fortio.org/sets</title>
<path fill="none" stroke="black" d="M476.28,-1768.45C498.7,-1775.57 524.84,-1783.54 548.75,-1790 713.3,-1834.47 754.53,-1847.04 922.5,-1876 1057.92,-1899.35 1218.65,-1914.94 1303.52,-1922.23"/>
<polygon fill="black" stroke="black" points="1302.96,-1925.7 1313.22,-1923.06 1303.55,-1918.72 1302.96,-1925.7"/>
<text text-anchor="middle" x="888.38" y="-1874.48" font-family="Helvetica,sans-Serif" font-size="10.00">v1.3.0</text>
</g>
<!-- go.uber.org/zap -->
<g id="node42" class="node">
<title>go.uber.org/zap</title>
<path fill="coral" stroke="black" d="M795,-1748C795,-1748 658.25,-1748 658.25,-1748 652.25,-1748 646.25,-1742 646.25,-1736 646.25,-1736 646.25,-1722 646.25,-1722 646.25,-1716 652.25,-1710 658.25,-1710 658.25,-1710 795,-1710 795,-1710 801,-1710 807,-1716 807,-1722 807,-1722 807,-1736 807,-1736 807,-1742 801,-1748 795,-1748"/>
<text text-anchor="middle" x="726.62" y="-1730.7" font-family="Helvetica,sans-Serif" font-size="14.00">ldemailly/zap</text>
<text text-anchor="middle" x="726.62" y="-1715.7" font-family="Helvetica,sans-Serif" font-size="14.00">(fork of go.uber.org/zap)</text>
</g>
<!-- github.com/fortio/logger&#45;bench&#45;&gt;go.uber.org/zap -->
<g id="edge73" class="edge">
<title>github.com/fortio/logger&#45;bench&#45;&gt;go.uber.org/zap</title>
<path fill="none" stroke="black" d="M518.97,-1743.21C556.24,-1740.65 598.44,-1737.75 634.93,-1735.24"/>
<polygon fill="black" stroke="black" points="634.82,-1738.75 644.56,-1734.57 634.34,-1731.77 634.82,-1738.75"/>
<text text-anchor="middle" x="564.88" y="-1742.51" font-family="Helvetica,sans-Serif" font-size="10.00">v1.27.0</text>
</g>
<!-- github.com/fortio/semtest/v2 -->
<g id="node29" class="node">
<title>github.com/fortio/semtest/v2</title>
<path fill="lightblue" stroke="black" d="M200.88,-846C200.88,-846 38.62,-846 38.62,-846 32.62,-846 26.62,-840 26.62,-834 26.62,-834 26.62,-822 26.62,-822 26.62,-816 32.62,-810 38.62,-810 38.62,-810 200.88,-810 200.88,-810 206.88,-810 212.88,-816 212.88,-822 212.88,-822 212.88,-834 212.88,-834 212.88,-840 206.88,-846 200.88,-846"/>
<text text-anchor="middle" x="119.75" y="-822.2" font-family="Helvetica,sans-Serif" font-size="14.00">github.com/fortio/semtest/v2</text>
</g>
<!-- github.com/fortio/semtest/v2&#45;&gt;fortio.org/fortio -->
<g id="edge74" class="edge">
<title>github.com/fortio/semtest/v2&#45;&gt;fortio.org/fortio</title>
<path fill="none" stroke="black" d="M121.73,-846.34C126.66,-920.03 155.08,-1197.41 307.75,-1340 321.11,-1352.47 339.03,-1360.12 356.56,-1364.79"/>
<polygon fill="black" stroke="black" points="355.36,-1368.11 365.9,-1366.99 356.96,-1361.29 355.36,-1368.11"/>
<text text-anchor="middle" x="273.62" y="-1321.07" font-family="Helvetica,sans-Serif" font-size="10.00">v1.35.0</text>
</g>
<!-- github.com/fortio/workflows -->
<g id="node30" class="node">
<title>github.com/fortio/workflows</title>
<path fill="lightblue" stroke="black" d="M497,-1847C497,-1847 341.5,-1847 341.5,-1847 335.5,-1847 329.5,-1841 329.5,-1835 329.5,-1835 329.5,-1823 329.5,-1823 329.5,-1817 335.5,-1811 341.5,-1811 341.5,-1811 497,-1811 497,-1811 503,-1811 509,-1817 509,-1823 509,-1823 509,-1835 509,-1835 509,-1841 503,-1847 497,-1847"/>
<text text-anchor="middle" x="419.25" y="-1823.2" font-family="Helvetica,sans-Serif" font-size="14.00">github.com/fortio/workflows</text>
</g>
<!-- github.com/fortio/workflows&#45;&gt;fortio.org/log -->
<g id="edge75" class="edge">
<title>github.com/fortio/workflows&#45;&gt;fortio.org/log</title>
<path fill="none" stroke="black" d="M509.18,-1832.61C737.47,-1840.15 1337.25,-1848.55 1494.5,-1737 1529.05,-1712.49 1528.32,-1695.05 1544.75,-1656 1585.56,-1558.99 1607.53,-1434.97 1615.93,-1379.32"/>
<polygon fill="black" stroke="black" points="1619.35,-1380.12 1617.34,-1369.72 1612.42,-1379.1 1619.35,-1380.12"/>
<text text-anchor="middle" x="1027.25" y="-1835.55" font-family="Helvetica,sans-Serif" font-size="10.00">v1.17.2</text>
</g>
<!-- github.com/fortio/workflows&#45;&gt;fortio.org/scli -->
<g id="edge76" class="edge">
<title>github.com/fortio/workflows&#45;&gt;fortio.org/scli</title>
<path fill="none" stroke="black" d="M481.29,-1810.58C499.2,-1802.67 517.51,-1791.75 530.75,-1777 547.15,-1758.72 538.38,-1747.01 548.75,-1724.75 560.52,-1699.5 571.8,-1697.3 581,-1671 600.99,-1613.86 577.24,-1592.49 599,-1536 622.86,-1474.05 671.44,-1412.67 701,-1378.8"/>
<polygon fill="black" stroke="black" points="703.43,-1381.34 707.44,-1371.53 698.19,-1376.7 703.43,-1381.34"/>
<text text-anchor="middle" x="564.88" y="-1726.5" font-family="Helvetica,sans-Serif" font-size="10.00">v1.16.0</text>
</g>
<!-- github.com/ldemailly/advent24 -->
<g id="node31" class="node">
<title>github.com/ldemailly/advent24</title>
<path fill="lightsalmon" stroke="black" d="M1114.75,-2018C1114.75,-2018 939.75,-2018 939.75,-2018 933.75,-2018 927.75,-2012 927.75,-2006 927.75,-2006 927.75,-1994 927.75,-1994 927.75,-1988 933.75,-1982 939.75,-1982 939.75,-1982 1114.75,-1982 1114.75,-1982 1120.75,-1982 1126.75,-1988 1126.75,-1994 1126.75,-1994 1126.75,-2006 1126.75,-2006 1126.75,-2012 1120.75,-2018 1114.75,-2018"/>
<text text-anchor="middle" x="1027.25" y="-1994.2" font-family="Helvetica,sans-Serif" font-size="14.00">github.com/ldemailly/advent24</text>
</g>
<!-- github.com/ldemailly/advent24&#45;&gt;fortio.org/sets -->
<g id="edge77" class="edge">
<title>github.com/ldemailly/advent24&#45;&gt;fortio.org/sets</title>
<path fill="none" stroke="black" d="M1112.69,-1981.58C1172.21,-1968.59 1250.46,-1951.52 1303.48,-1939.96"/>
<polygon fill="black" stroke="black" points="1304.23,-1943.38 1313.25,-1937.83 1302.74,-1936.54 1304.23,-1943.38"/>
<text text-anchor="middle" x="1182.62" y="-1973.94" font-family="Helvetica,sans-Serif" font-size="10.00">v1.2.0</text>
</g>
<!-- github.com/ldemailly/depgraph -->
<g id="node32" class="node">
<title>github.com/ldemailly/depgraph</title>
<path fill="lightsalmon" stroke="black" d="M1115.5,-1029C1115.5,-1029 939,-1029 939,-1029 933,-1029 927,-1023 927,-1017 927,-1017 927,-1005 927,-1005 927,-999 933,-993 939,-993 939,-993 1115.5,-993 1115.5,-993 1121.5,-993 1127.5,-999 1127.5,-1005 1127.5,-1005 1127.5,-1017 1127.5,-1017 1127.5,-1023 1121.5,-1029 1115.5,-1029"/>
<text text-anchor="middle" x="1027.25" y="-1005.2" font-family="Helvetica,sans-Serif" font-size="14.00">github.com/ldemailly/depgraph</text>
</g>
<!-- github.com/ldemailly/depgraph&#45;&gt;fortio.org/cli -->
<g id="edge78" class="edge">
<title>github.com/ldemailly/depgraph&#45;&gt;fortio.org/cli</title>
<path fill="none" stroke="black" d="M1108.7,-992.58C1117,-988.85 1124.95,-984.37 1132,-979 1143.84,-969.97 1138.33,-959.99 1150,-950.75 1174.08,-931.69 1186.55,-938.92 1215.25,-928 1247.08,-915.89 1282.34,-901.36 1310.42,-889.52"/>
<polygon fill="black" stroke="black" points="1311.57,-892.83 1319.42,-885.71 1308.84,-886.38 1311.57,-892.83"/>
<text text-anchor="middle" x="1182.62" y="-952.5" font-family="Helvetica,sans-Serif" font-size="10.00">v1.10.0</text>
</g>
<!-- github.com/ldemailly/depgraph&#45;&gt;fortio.org/log -->
<g id="edge79" class="edge">
<title>github.com/ldemailly/depgraph&#45;&gt;fortio.org/log</title>
<path fill="none" stroke="black" d="M1127.77,-1027.81C1135.28,-1028.69 1142.75,-1029.44 1150,-1030 1178.91,-1032.24 1190.43,-1045 1215.25,-1030 1229.97,-1021.11 1218.53,-1004.64 1233.25,-995.75 1332.63,-935.71 1389.34,-946.52 1494.5,-995.75 1526.08,-1010.53 1528.87,-1024.96 1544.75,-1056 1590.71,-1145.83 1610.02,-1265.8 1616.83,-1320.53"/>
<polygon fill="black" stroke="black" points="1613.33,-1320.77 1617.99,-1330.29 1620.28,-1319.95 1613.33,-1320.77"/>
<text text-anchor="middle" x="1363.88" y="-997.5" font-family="Helvetica,sans-Serif" font-size="10.00">v1.17.2</text>
</g>
<!-- github.com/ldemailly/go&#45;scratch -->
<g id="node33" class="node">
<title>github.com/ldemailly/go&#45;scratch</title>
<path fill="lightsalmon" stroke="black" d="M211,-729C211,-729 28.5,-729 28.5,-729 22.5,-729 16.5,-723 16.5,-717 16.5,-717 16.5,-705 16.5,-705 16.5,-699 22.5,-693 28.5,-693 28.5,-693 211,-693 211,-693 217,-693 223,-699 223,-705 223,-705 223,-717 223,-717 223,-723 217,-729 211,-729"/>
<text text-anchor="middle" x="119.75" y="-705.2" font-family="Helvetica,sans-Serif" font-size="14.00">github.com/ldemailly/go&#45;scratch</text>
</g>
<!-- github.com/ldemailly/go&#45;scratch&#45;&gt;fortio.org/cli -->
<g id="edge80" class="edge">
<title>github.com/ldemailly/go&#45;scratch&#45;&gt;fortio.org/cli</title>
<path fill="none" stroke="black" d="M178.5,-692.57C237.96,-675.26 333.61,-652 418.25,-652 418.25,-652 418.25,-652 1028.25,-652 1111.59,-652 1142.35,-625.6 1215.25,-666 1285.4,-704.87 1331.32,-792.72 1351.35,-838.32"/>
<polygon fill="black" stroke="black" points="1348.04,-839.47 1355.18,-847.3 1354.47,-836.72 1348.04,-839.47"/>
<text text-anchor="middle" x="726.62" y="-653.75" font-family="Helvetica,sans-Serif" font-size="10.00">v1.4.2</text>
</g>
<!-- github.com/ldemailly/go&#45;scratch&#45;&gt;fortio.org/fortio -->
<g id="edge81" class="edge">
<title>github.com/ldemailly/go&#45;scratch&#45;&gt;fortio.org/fortio</title>
<path fill="none" stroke="black" d="M158.92,-729.41C186.1,-744.64 220.99,-768.97 239.5,-801 254.61,-827.13 288.13,-1317.06 307.75,-1340 319.95,-1354.27 338.09,-1362.37 356.16,-1366.92"/>
<polygon fill="black" stroke="black" points="355.36,-1370.32 365.87,-1368.99 356.82,-1363.48 355.36,-1370.32"/>
<text text-anchor="middle" x="273.62" y="-1233.08" font-family="Helvetica,sans-Serif" font-size="10.00">v1.60.3</text>
</g>
<!-- github.com/ldemailly/go&#45;scratch&#45;&gt;fortio.org/log -->
<g id="edge82" class="edge">
<title>github.com/ldemailly/go&#45;scratch&#45;&gt;fortio.org/log</title>
<path fill="none" stroke="black" d="M160.69,-729.39C188.2,-744.41 222.71,-768.47 239.5,-801 269.38,-858.89 216.36,-1336.49 257.5,-1387 290.69,-1427.75 289.01,-1406.47 530.75,-1399 674.73,-1394.55 724.3,-1441.15 854.25,-1379 884.12,-1364.71 886.18,-1351.58 904.5,-1324 915.06,-1308.1 906.69,-1295.7 922.5,-1285 1037.03,-1207.49 1095,-1272.56 1233.25,-1269 1349.32,-1266.01 1383.12,-1236.18 1494.5,-1269 1531.11,-1279.79 1567.11,-1304.95 1591.1,-1324.39"/>
<polygon fill="black" stroke="black" points="1588.59,-1326.85 1598.52,-1330.55 1593.06,-1321.47 1588.59,-1326.85"/>
<text text-anchor="middle" x="888.38" y="-1369.9" font-family="Helvetica,sans-Serif" font-size="10.00">v1.11.0</text>
</g>
<!-- github.com/ldemailly/go&#45;scratch&#45;&gt;fortio.org/scli -->
<g id="edge83" class="edge">
<title>github.com/ldemailly/go&#45;scratch&#45;&gt;fortio.org/scli</title>
<path fill="none" stroke="black" d="M154.62,-729.49C180.96,-745.39 216.74,-770.54 239.5,-801 277.33,-851.62 276.64,-872.19 289.75,-934 297.07,-968.51 284.68,-1224.31 307.75,-1251 373.9,-1327.56 432.46,-1272.77 530.75,-1296.75 577.9,-1308.25 630.86,-1323.41 669.65,-1334.94"/>
<polygon fill="black" stroke="black" points="668.17,-1338.15 678.75,-1337.66 670.17,-1331.45 668.17,-1338.15"/>
<text text-anchor="middle" x="419.25" y="-1298.5" font-family="Helvetica,sans-Serif" font-size="10.00">v1.12.0</text>
</g>
<!-- golang.org/x/term -->
<g id="node43" class="node">
<title>golang.org/x/term</title>
<path fill="coral" stroke="black" d="M493.25,-482C493.25,-482 345.25,-482 345.25,-482 339.25,-482 333.25,-476 333.25,-470 333.25,-470 333.25,-456 333.25,-456 333.25,-450 339.25,-444 345.25,-444 345.25,-444 493.25,-444 493.25,-444 499.25,-444 505.25,-450 505.25,-456 505.25,-456 505.25,-470 505.25,-470 505.25,-476 499.25,-482 493.25,-482"/>
<text text-anchor="middle" x="419.25" y="-464.7" font-family="Helvetica,sans-Serif" font-size="14.00">ldemailly/term</text>
<text text-anchor="middle" x="419.25" y="-449.7" font-family="Helvetica,sans-Serif" font-size="14.00">(fork of golang.org/x/term)</text>
</g>
<!-- github.com/ldemailly/go&#45;scratch&#45;&gt;golang.org/x/term -->
<g id="edge84" class="edge">
<title>github.com/ldemailly/go&#45;scratch&#45;&gt;golang.org/x/term</title>
<path fill="none" stroke="black" d="M130.91,-692.6C155.39,-650.04 222.02,-544.42 307.75,-491 312.34,-488.14 317.2,-485.57 322.24,-483.27"/>
<polygon fill="black" stroke="black" points="323.48,-486.54 331.37,-479.47 320.79,-480.08 323.48,-486.54"/>
<text text-anchor="middle" x="273.62" y="-530.83" font-family="Helvetica,sans-Serif" font-size="10.00">v0.18.0</text>
</g>
<!-- github.com/ldemailly/gohook_sample -->
<g id="node34" class="node">
<title>github.com/ldemailly/gohook_sample</title>
<path fill="lightsalmon" stroke="black" d="M227.5,-102C227.5,-102 12,-102 12,-102 6,-102 0,-96 0,-90 0,-90 0,-78 0,-78 0,-72 6,-66 12,-66 12,-66 227.5,-66 227.5,-66 233.5,-66 239.5,-72 239.5,-78 239.5,-78 239.5,-90 239.5,-90 239.5,-96 233.5,-102 227.5,-102"/>
<text text-anchor="middle" x="119.75" y="-78.2" font-family="Helvetica,sans-Serif" font-size="14.00">github.com/ldemailly/gohook_sample</text>
</g>
<!-- github.com/ldemailly/gohook_sample&#45;&gt;fortio.org/fortio -->
<g id="edge85" class="edge">
<title>github.com/ldemailly/gohook_sample&#45;&gt;fortio.org/fortio</title>
<path fill="none" stroke="black" d="M159.38,-102.46C186.99,-117.92 222.21,-142.81 239.5,-176 258.41,-212.31 253.28,-503.28 257.5,-544 266.91,-634.76 281.18,-655.91 289.75,-746.75 292.85,-779.58 287.54,-1313.94 307.75,-1340 319.46,-1355.1 337.85,-1363.38 356.3,-1367.84"/>
<polygon fill="black" stroke="black" points="355.44,-1371.23 365.94,-1369.79 356.83,-1364.37 355.44,-1371.23"/>
<text text-anchor="middle" x="273.62" y="-748.5" font-family="Helvetica,sans-Serif" font-size="10.00">v1.21.1</text>
</g>
<!-- github.com/robotn/gohook -->
<g id="node40" class="node">
<title>github.com/robotn/gohook</title>
<path fill="coral" stroke="black" d="M518.75,-38C518.75,-38 319.75,-38 319.75,-38 313.75,-38 307.75,-32 307.75,-26 307.75,-26 307.75,-12 307.75,-12 307.75,-6 313.75,0 319.75,0 319.75,0 518.75,0 518.75,0 524.75,0 530.75,-6 530.75,-12 530.75,-12 530.75,-26 530.75,-26 530.75,-32 524.75,-38 518.75,-38"/>
<text text-anchor="middle" x="419.25" y="-20.7" font-family="Helvetica,sans-Serif" font-size="14.00">ldemailly/gohook</text>
<text text-anchor="middle" x="419.25" y="-5.7" font-family="Helvetica,sans-Serif" font-size="14.00">(fork of github.com/robotn/gohook)</text>
</g>
<!-- github.com/ldemailly/gohook_sample&#45;&gt;github.com/robotn/gohook -->
<g id="edge86" class="edge">
<title>github.com/ldemailly/gohook_sample&#45;&gt;github.com/robotn/gohook</title>
<path fill="none" stroke="black" d="M171.8,-65.55C197.27,-56.95 228.71,-47.2 257.5,-40.75 270.06,-37.94 283.26,-35.43 296.47,-33.22"/>
<polygon fill="black" stroke="black" points="296.74,-36.72 306.06,-31.67 295.63,-29.81 296.74,-36.72"/>
<text text-anchor="middle" x="273.62" y="-42.5" font-family="Helvetica,sans-Serif" font-size="10.00">v0.31.3</text>
</g>
<!-- github.com/ldemailly/lll&#45;fixer -->
<g id="node35" class="node">
<title>github.com/ldemailly/lll&#45;fixer</title>
<path fill="lightsalmon" stroke="black" d="M1106.5,-1083C1106.5,-1083 948,-1083 948,-1083 942,-1083 936,-1077 936,-1071 936,-1071 936,-1059 936,-1059 936,-1053 942,-1047 948,-1047 948,-1047 1106.5,-1047 1106.5,-1047 1112.5,-1047 1118.5,-1053 1118.5,-1059 1118.5,-1059 1118.5,-1071 1118.5,-1071 1118.5,-1077 1112.5,-1083 1106.5,-1083"/>
<text text-anchor="middle" x="1027.25" y="-1059.2" font-family="Helvetica,sans-Serif" font-size="14.00">github.com/ldemailly/lll&#45;fixer</text>
</g>
<!-- github.com/ldemailly/lll&#45;fixer&#45;&gt;fortio.org/cli -->
<g id="edge87" class="edge">
<title>github.com/ldemailly/lll&#45;fixer&#45;&gt;fortio.org/cli</title>
<path fill="none" stroke="black" d="M1118.99,-1047.64C1123.66,-1044.87 1128.05,-1041.68 1132,-1038 1150.28,-1020.98 1132.42,-1002.5 1150,-984.75 1171.61,-962.93 1187.64,-975.46 1215.25,-962 1256.35,-941.96 1299.99,-912.78 1329.06,-892.05"/>
<polygon fill="black" stroke="black" points="1331.04,-894.94 1337.11,-886.26 1326.95,-889.26 1331.04,-894.94"/>
<text text-anchor="middle" x="1182.62" y="-986.5" font-family="Helvetica,sans-Serif" font-size="10.00">v1.9.0</text>
</g>
<!-- github.com/ldemailly/lll&#45;fixer&#45;&gt;fortio.org/log -->
<g id="edge88" class="edge">
<title>github.com/ldemailly/lll&#45;fixer&#45;&gt;fortio.org/log</title>
<path fill="none" stroke="black" d="M1118.87,-1067.78C1149.88,-1066.73 1184.49,-1063.32 1215.25,-1055 1223.93,-1052.65 1224.51,-1047.86 1233.25,-1045.75 1346.11,-1018.45 1395.94,-984.37 1494.5,-1045.75 1591.1,-1105.91 1613.35,-1256.61 1618.47,-1320.56"/>
<polygon fill="black" stroke="black" points="1614.96,-1320.56 1619.16,-1330.29 1621.95,-1320.07 1614.96,-1320.56"/>
<text text-anchor="middle" x="1363.88" y="-1047.5" font-family="Helvetica,sans-Serif" font-size="10.00">v1.16.0</text>
</g>
<!-- github.com/ldemailly/panic&#45;linter -->
<g id="node36" class="node">
<title>github.com/ldemailly/panic&#45;linter</title>
<path fill="lightsalmon" stroke="black" d="M1120,-1964C1120,-1964 934.5,-1964 934.5,-1964 928.5,-1964 922.5,-1958 922.5,-1952 922.5,-1952 922.5,-1940 922.5,-1940 922.5,-1934 928.5,-1928 934.5,-1928 934.5,-1928 1120,-1928 1120,-1928 1126,-1928 1132,-1934 1132,-1940 1132,-1940 1132,-1952 1132,-1952 1132,-1958 1126,-1964 1120,-1964"/>
<text text-anchor="middle" x="1027.25" y="-1940.2" font-family="Helvetica,sans-Serif" font-size="14.00">github.com/ldemailly/panic&#45;linter</text>
</g>
<!-- github.com/ldemailly/panic&#45;linter&#45;&gt;fortio.org/sets -->
<g id="edge89" class="edge">
<title>github.com/ldemailly/panic&#45;linter&#45;&gt;fortio.org/sets</title>
<path fill="none" stroke="black" d="M1132.29,-1940.09C1188.66,-1936.89 1256.25,-1933.05 1303.64,-1930.36"/>
<polygon fill="black" stroke="black" points="1303.63,-1933.87 1313.41,-1929.81 1303.23,-1926.88 1303.63,-1933.87"/>
<text text-anchor="middle" x="1182.62" y="-1940.51" font-family="Helvetica,sans-Serif" font-size="10.00">v1.2.0</text>
</g>
<!-- github.com/ldemailly/quartiles -->
<g id="node37" class="node">
<title>github.com/ldemailly/quartiles</title>
<path fill="lightsalmon" stroke="black" d="M1112.5,-1599C1112.5,-1599 942,-1599 942,-1599 936,-1599 930,-1593 930,-1587 930,-1587 930,-1575 930,-1575 930,-1569 936,-1563 942,-1563 942,-1563 1112.5,-1563 1112.5,-1563 1118.5,-1563 1124.5,-1569 1124.5,-1575 1124.5,-1575 1124.5,-1587 1124.5,-1587 1124.5,-1593 1118.5,-1599 1112.5,-1599"/>
<text text-anchor="middle" x="1027.25" y="-1575.2" font-family="Helvetica,sans-Serif" font-size="14.00">github.com/ldemailly/quartiles</text>
</g>
<!-- github.com/ldemailly/quartiles&#45;&gt;fortio.org/cli -->
<g id="edge90" class="edge">
<title>github.com/ldemailly/quartiles&#45;&gt;fortio.org/cli</title>
<path fill="none" stroke="black" d="M1048.78,-1562.7C1072.52,-1541.82 1113.09,-1507.05 1150,-1479.75 1177.87,-1459.13 1198.19,-1467.18 1215.25,-1437 1267.11,-1345.23 1184.05,-1056.22 1233.25,-963 1250.15,-930.99 1283.03,-906.83 1311.44,-890.75"/>
<polygon fill="black" stroke="black" points="1312.83,-893.98 1319.95,-886.13 1309.49,-887.83 1312.83,-893.98"/>
<text text-anchor="middle" x="1182.62" y="-1481.5" font-family="Helvetica,sans-Serif" font-size="10.00">v1.10.0</text>
</g>
<!-- github.com/ldemailly/quartiles&#45;&gt;fortio.org/log -->
<g id="edge91" class="edge">
<title>github.com/ldemailly/quartiles&#45;&gt;fortio.org/log</title>
<path fill="none" stroke="black" d="M1093.77,-1599.42C1190.29,-1622.43 1372.4,-1649.7 1494.5,-1569 1562.89,-1523.8 1598.35,-1427.71 1612.48,-1379.25"/>
<polygon fill="black" stroke="black" points="1615.81,-1380.32 1615.14,-1369.74 1609.07,-1378.43 1615.81,-1380.32"/>
<text text-anchor="middle" x="1363.88" y="-1624.86" font-family="Helvetica,sans-Serif" font-size="10.00">v1.17.2</text>
</g>
<!-- github.com/ldemailly/quartiles&#45;&gt;fortio.org/sets -->
<g id="edge92" class="edge">
<title>github.com/ldemailly/quartiles&#45;&gt;fortio.org/sets</title>
<path fill="none" stroke="black" d="M1113.08,-1599.47C1119.98,-1603.19 1126.43,-1607.65 1132,-1613 1149.33,-1629.65 1138.27,-1643.02 1150,-1664 1203.46,-1759.61 1292,-1855.48 1336.13,-1900.5"/>
<polygon fill="black" stroke="black" points="1333.51,-1902.83 1343.03,-1907.48 1338.49,-1897.91 1333.51,-1902.83"/>
<text text-anchor="middle" x="1182.62" y="-1758.51" font-family="Helvetica,sans-Serif" font-size="10.00">v1.3.0</text>
</g>
<!-- github.com/ldemailly/rate -->
<g id="node38" class="node">
<title>github.com/ldemailly/rate</title>
<path fill="lightsalmon" stroke="black" d="M1098.62,-1191C1098.62,-1191 955.88,-1191 955.88,-1191 949.88,-1191 943.88,-1185 943.88,-1179 943.88,-1179 943.88,-1167 943.88,-1167 943.88,-1161 949.88,-1155 955.88,-1155 955.88,-1155 1098.62,-1155 1098.62,-1155 1104.62,-1155 1110.62,-1161 1110.62,-1167 1110.62,-1167 1110.62,-1179 1110.62,-1179 1110.62,-1185 1104.62,-1191 1098.62,-1191"/>
<text text-anchor="middle" x="1027.25" y="-1167.2" font-family="Helvetica,sans-Serif" font-size="14.00">github.com/ldemailly/rate</text>
</g>
<!-- github.com/ldemailly/rate&#45;&gt;fortio.org/cli -->
<g id="edge93" class="edge">
<title>github.com/ldemailly/rate&#45;&gt;fortio.org/cli</title>
<path fill="none" stroke="black" d="M1110.88,-1155.93C1118.24,-1153.1 1125.39,-1149.81 1132,-1146 1141.87,-1140.31 1141.22,-1135.01 1150,-1127.75 1176.9,-1105.49 1196.59,-1113.51 1215.25,-1084 1244.31,-1038.05 1205.27,-1009.62 1233.25,-963 1252.13,-931.53 1285.65,-907.13 1313.87,-890.8"/>
<polygon fill="black" stroke="black" points="1315.26,-894.03 1322.28,-886.1 1311.84,-887.92 1315.26,-894.03"/>
<text text-anchor="middle" x="1182.62" y="-1129.5" font-family="Helvetica,sans-Serif" font-size="10.00">v1.2.0</text>
</g>
<!-- github.com/ldemailly/rate&#45;&gt;fortio.org/log -->
<g id="edge94" class="edge">
<title>github.com/ldemailly/rate&#45;&gt;fortio.org/log</title>
<path fill="none" stroke="black" d="M1111.11,-1165.81C1239.76,-1156.46 1479.57,-1146.82 1544.75,-1198 1584.18,-1228.96 1604.45,-1285.97 1613.6,-1320.69"/>
<polygon fill="black" stroke="black" points="1610.12,-1321.2 1615.92,-1330.07 1616.92,-1319.52 1610.12,-1321.2"/>
<text text-anchor="middle" x="1363.88" y="-1177.21" font-family="Helvetica,sans-Serif" font-size="10.00">v1.6.0</text>
</g>
<!-- gitlab.com/ldemailly/go&#45;flag&#45;bug -->
<g id="node41" class="node">
<title>gitlab.com/ldemailly/go&#45;flag&#45;bug</title>
<path fill="lightsalmon" stroke="black" d="M211.38,-2370C211.38,-2370 28.13,-2370 28.13,-2370 22.13,-2370 16.12,-2364 16.12,-2358 16.12,-2358 16.12,-2346 16.12,-2346 16.12,-2340 22.12,-2334 28.12,-2334 28.12,-2334 211.37,-2334 211.37,-2334 217.37,-2334 223.38,-2340 223.38,-2346 223.38,-2346 223.38,-2358 223.38,-2358 223.38,-2364 217.38,-2370 211.38,-2370"/>
<text text-anchor="middle" x="119.75" y="-2346.2" font-family="Helvetica,sans-Serif" font-size="14.00">gitlab.com/ldemailly/go&#45;flag&#45;bug</text>
</g>
<!-- grol.io/grol&#45;&gt;fortio.org/cli -->
<g id="edge95" class="edge">
<title>grol.io/grol&#45;&gt;fortio.org/cli</title>
<path fill="none" stroke="black" d="M766.57,-483.34C839.22,-482.87 1000.03,-485.39 1132,-512.75 1170.4,-520.71 1186.32,-515.52 1215.25,-542 1227.15,-552.89 1317.39,-761.15 1350.63,-838.44"/>
<polygon fill="black" stroke="black" points="1347.34,-839.66 1354.51,-847.47 1353.77,-836.9 1347.34,-839.66"/>
<text text-anchor="middle" x="1027.25" y="-514.5" font-family="Helvetica,sans-Serif" font-size="10.00">v1.10.0</text>
</g>
<!-- grol.io/grol&#45;&gt;fortio.org/log -->
<g id="edge96" class="edge">
<title>grol.io/grol&#45;&gt;fortio.org/log</title>
<path fill="none" stroke="black" d="M760.72,-502.4C789.35,-517.44 832.32,-537.96 872.25,-549 944.77,-569.04 1491.9,-574.45 1544.75,-628 1594.22,-678.13 1614.67,-1191.22 1619.06,-1320.54"/>
<polygon fill="black" stroke="black" points="1615.56,-1320.43 1619.39,-1330.31 1622.55,-1320.2 1615.56,-1320.43"/>
<text text-anchor="middle" x="1182.62" y="-577.2" font-family="Helvetica,sans-Serif" font-size="10.00">v1.17.2</text>
</g>
<!-- grol.io/grol&#45;&gt;fortio.org/safecast -->
<g id="edge97" class="edge">
<title>grol.io/grol&#45;&gt;fortio.org/safecast</title>
<path fill="none" stroke="black" d="M766.33,-482.29C794.31,-479.01 831.11,-470.18 854.25,-447 874.52,-426.69 851.34,-404.65 872.25,-385 888.93,-369.33 900.15,-378.69 922.5,-373.75 1015.56,-353.17 1038.96,-348.64 1132,-328 1185.36,-316.16 1245.61,-302.59 1291.18,-292.28"/>
<polygon fill="black" stroke="black" points="1291.68,-295.75 1300.66,-290.13 1290.13,-288.92 1291.68,-295.75"/>
<text text-anchor="middle" x="1027.25" y="-375.5" font-family="Helvetica,sans-Serif" font-size="10.00">v1.0.0</text>
</g>
<!-- grol.io/grol&#45;&gt;fortio.org/sets -->
<g id="edge98" class="edge">
<title>grol.io/grol&#45;&gt;fortio.org/sets</title>
<path fill="none" stroke="black" d="M766.53,-494.09C796.2,-504.03 835.11,-522.43 854.25,-554 875.57,-589.16 864.42,-1253.63 872.25,-1294 880.02,-1334.07 896.08,-1340.06 904.5,-1380 911.78,-1414.52 899.6,-1670.16 922.5,-1697 984.35,-1769.51 1054.27,-1687.6 1132,-1742.75 1144.45,-1751.58 1138.64,-1761.81 1150,-1772 1173.9,-1793.44 1190.19,-1782.93 1215.25,-1803 1225.38,-1811.11 1224.06,-1816.83 1233.25,-1826 1262.15,-1854.84 1299.26,-1883 1326.35,-1902.23"/>
<polygon fill="black" stroke="black" points="1324.06,-1904.89 1334.25,-1907.78 1328.08,-1899.17 1324.06,-1904.89"/>
<text text-anchor="middle" x="1027.25" y="-1744.5" font-family="Helvetica,sans-Serif" font-size="10.00">v1.3.0</text>
</g>
<!-- grol.io/grol&#45;&gt;fortio.org/struct2env -->
<g id="edge99" class="edge">
<title>grol.io/grol&#45;&gt;fortio.org/struct2env</title>
<path fill="none" stroke="black" d="M766.38,-481.24C794.57,-477.18 831.62,-467.23 854.25,-443 876.77,-418.9 854.9,-399.05 872.25,-371 887.71,-346 896.64,-341.97 922.5,-328 1198.2,-179.09 1571.07,-111.09 1730.89,-87.38"/>
<polygon fill="black" stroke="black" points="1731.14,-90.88 1740.53,-85.97 1730.13,-83.95 1731.14,-90.88"/>
<text text-anchor="middle" x="1363.88" y="-200.53" font-family="Helvetica,sans-Serif" font-size="10.00">v0.4.2</text>
</g>
<!-- grol.io/grol&#45;&gt;fortio.org/terminal -->
<g id="edge100" class="edge">
<title>grol.io/grol&#45;&gt;fortio.org/terminal</title>
<path fill="none" stroke="black" d="M766.36,-478.94C813.95,-472.73 895.64,-462.06 954.75,-454.34"/>
<polygon fill="black" stroke="black" points="954.92,-457.85 964.38,-453.08 954.01,-450.9 954.92,-457.85"/>
<text text-anchor="middle" x="888.38" y="-466.25" font-family="Helvetica,sans-Serif" font-size="10.00">v0.29.1</text>
</g>
<!-- grol.io/grol&#45;&gt;fortio.org/testscript -->
<g id="edge101" class="edge">
<title>grol.io/grol&#45;&gt;fortio.org/testscript</title>
<path fill="none" stroke="black" d="M766.58,-494.35C796.06,-504.4 834.71,-522.82 854.25,-554 873.99,-585.49 869.54,-850.93 872.25,-888 872.8,-895.55 917.42,-1425.38 922.5,-1431 986.14,-1501.34 1060.94,-1408.92 1132,-1471.75 1151.35,-1488.86 1129.61,-1511.15 1150,-1527 1170.53,-1542.96 1195.82,-1551.22 1221.7,-1554.8"/>
<polygon fill="black" stroke="black" points="1220.99,-1558.24 1231.32,-1555.89 1221.77,-1551.29 1220.99,-1558.24"/>
<text text-anchor="middle" x="1027.25" y="-1473.5" font-family="Helvetica,sans-Serif" font-size="10.00">v0.3.2</text>
</g>
<!-- grol.io/grol&#45;&gt;fortio.org/version -->
<g id="edge102" class="edge">
<title>grol.io/grol&#45;&gt;fortio.org/version</title>
<path fill="none" stroke="black" d="M766.52,-473.91C791.76,-467.05 825.24,-457.36 854.25,-447 885.29,-435.91 890.82,-427.08 922.5,-418 1013.11,-392.04 1043.7,-417.98 1132,-385 1140.84,-381.7 1140.93,-376.35 1150,-373.75 1225.63,-352.06 1303.59,-380.4 1494.5,-415 1512.93,-418.34 1532.79,-422.4 1551.15,-426.34"/>
<polygon fill="black" stroke="black" points="1550.37,-429.75 1560.88,-428.45 1551.85,-422.91 1550.37,-429.75"/>
<text text-anchor="middle" x="1182.62" y="-375.5" font-family="Helvetica,sans-Serif" font-size="10.00">v1.0.4</text>
</g>
<!-- grol.io/grol&#45;discord&#45;bot -->
<g id="node45" class="node">
<title>grol.io/grol&#45;discord&#45;bot</title>
<path fill="lightgreen" stroke="black" d="M482.38,-379C482.38,-379 356.12,-379 356.12,-379 350.12,-379 344.12,-373 344.12,-367 344.12,-367 344.12,-355 344.12,-355 344.12,-349 350.12,-343 356.12,-343 356.12,-343 482.38,-343 482.38,-343 488.38,-343 494.38,-349 494.38,-355 494.38,-355 494.38,-367 494.38,-367 494.38,-373 488.38,-379 482.38,-379"/>
<text text-anchor="middle" x="419.25" y="-355.2" font-family="Helvetica,sans-Serif" font-size="14.00">grol.io/grol&#45;discord&#45;bot</text>
</g>
<!-- grol.io/grol&#45;discord&#45;bot&#45;&gt;fortio.org/cli -->
<g id="edge103" class="edge">
<title>grol.io/grol&#45;discord&#45;bot&#45;&gt;fortio.org/cli</title>
<path fill="none" stroke="black" d="M452.22,-379.47C475.14,-393.38 506.16,-413.67 530.75,-435 547.9,-449.87 578.71,-500.82 599,-511 721.92,-572.64 1101.92,-489.12 1215.25,-567 1309.89,-632.03 1346.41,-775.68 1358.13,-837.63"/>
<polygon fill="black" stroke="black" points="1354.67,-838.17 1359.88,-847.39 1361.56,-836.93 1354.67,-838.17"/>
<text text-anchor="middle" x="888.38" y="-535.64" font-family="Helvetica,sans-Serif" font-size="10.00">v1.10.0</text>
</g>
<!-- grol.io/grol&#45;discord&#45;bot&#45;&gt;fortio.org/log -->
<g id="edge104" class="edge">
<title>grol.io/grol&#45;discord&#45;bot&#45;&gt;fortio.org/log</title>
<path fill="none" stroke="black" d="M494.45,-359.05C610.84,-355.38 826.05,-345.83 854.25,-325 919.82,-276.57 854.98,-200.43 922.5,-154.75 999.62,-102.58 1040.19,-139.23 1132,-154.75 1178.98,-162.69 1187.44,-176.9 1233.25,-190 1347.7,-222.73 1413.23,-162.03 1494.5,-249 1569.94,-329.74 1611.05,-1152.35 1618.69,-1320.19"/>
<polygon fill="black" stroke="black" points="1615.19,-1320.2 1619.13,-1330.03 1622.18,-1319.88 1615.19,-1320.2"/>
<text text-anchor="middle" x="1027.25" y="-156.5" font-family="Helvetica,sans-Serif" font-size="10.00">v1.17.2</text>
</g>
<!-- grol.io/grol&#45;discord&#45;bot&#45;&gt;fortio.org/scli -->
<g id="edge105" class="edge">
<title>grol.io/grol&#45;discord&#45;bot&#45;&gt;fortio.org/scli</title>
<path fill="none" stroke="black" d="M463.46,-379.39C487.07,-391.69 514.69,-410.19 530.75,-435 536.9,-444.51 596.7,-825.91 599,-837 637.71,-1023.51 696.55,-1244.9 717.7,-1322.99"/>
<polygon fill="black" stroke="black" points="714.26,-1323.67 720.26,-1332.4 721.02,-1321.84 714.26,-1323.67"/>
<text text-anchor="middle" x="564.88" y="-717.42" font-family="Helvetica,sans-Serif" font-size="10.00">v1.16.1</text>
</g>
<!-- grol.io/grol&#45;discord&#45;bot&#45;&gt;fortio.org/version -->
<g id="edge106" class="edge">
<title>grol.io/grol&#45;discord&#45;bot&#45;&gt;fortio.org/version</title>
<path fill="none" stroke="black" d="M427.56,-342.77C447.28,-296.23 506.4,-172.86 599,-118 719.02,-46.9 765.16,-39.29 904.5,-46 940.29,-47.72 1518.33,-99.8 1544.75,-124 1587.36,-163.03 1609.81,-341.31 1617.2,-412.51"/>
<polygon fill="black" stroke="black" points="1613.69,-412.64 1618.18,-422.24 1620.66,-411.93 1613.69,-412.64"/>
<text text-anchor="middle" x="1027.25" y="-67.95" font-family="Helvetica,sans-Serif" font-size="10.00">v1.0.4</text>
</g>
<!-- grol.io/grol&#45;discord&#45;bot&#45;&gt;github.com/bwmarrin/discordgo -->
<g id="edge107" class="edge">
<title>grol.io/grol&#45;discord&#45;bot&#45;&gt;github.com/bwmarrin/discordgo</title>
<path fill="none" stroke="black" d="M468.74,-342.57C492.54,-334.17 521.82,-324.77 548.75,-318.75 561.25,-315.95 574.34,-313.49 587.49,-311.33"/>
<polygon fill="black" stroke="black" points="587.71,-314.84 597.05,-309.82 586.62,-307.93 587.71,-314.84"/>
<text text-anchor="middle" x="564.88" y="-320.5" font-family="Helvetica,sans-Serif" font-size="10.00">v0.28.1</text>
</g>
<!-- grol.io/grol&#45;discord&#45;bot&#45;&gt;grol.io/grol -->
<g id="edge108" class="edge">
<title>grol.io/grol&#45;discord&#45;bot&#45;&gt;grol.io/grol</title>
<path fill="none" stroke="black" d="M465.97,-379.41C522.51,-402.19 618.39,-440.81 676.48,-464.2"/>
<polygon fill="black" stroke="black" points="674.88,-467.33 685.46,-467.82 677.49,-460.84 674.88,-467.33"/>
<text text-anchor="middle" x="564.88" y="-424.25" font-family="Helvetica,sans-Serif" font-size="10.00">v0.80.3</text>
</g>
<!-- scriggo&#45;bench -->
<g id="node46" class="node">
<title>scriggo&#45;bench</title>
<path fill="darkseagreen" stroke="black" d="M482.75,-538C482.75,-538 355.75,-538 355.75,-538 349.75,-538 343.75,-532 343.75,-526 343.75,-526 343.75,-512 343.75,-512 343.75,-506 349.75,-500 355.75,-500 355.75,-500 482.75,-500 482.75,-500 488.75,-500 494.75,-506 494.75,-512 494.75,-512 494.75,-526 494.75,-526 494.75,-532 488.75,-538 482.75,-538"/>
<text text-anchor="middle" x="419.25" y="-520.7" font-family="Helvetica,sans-Serif" font-size="14.00">grol&#45;io/scriggo&#45;bench</text>
<text text-anchor="middle" x="419.25" y="-505.7" font-family="Helvetica,sans-Serif" font-size="14.00">(fork of scriggo&#45;bench)</text>
</g>
<!-- scriggo&#45;bench&#45;&gt;grol.io/grol -->
<g id="edge109" class="edge">
<title>scriggo&#45;bench&#45;&gt;grol.io/grol</title>
<path fill="none" stroke="black" d="M494.95,-510.44C551.19,-503.99 626.71,-495.34 675.77,-489.71"/>
<polygon fill="black" stroke="black" points="676,-493.21 685.53,-488.6 675.2,-486.26 676,-493.21"/>
<text text-anchor="middle" x="564.88" y="-505.35" font-family="Helvetica,sans-Serif" font-size="10.00">v0.26.0</text>
</g>
</g>
</svg>
