<?xml version="1.0" encoding="UTF-8" standalone="no"?>
<!DOCTYPE svg PUBLIC "-//W3C//DTD SVG 1.1//EN"
 "http://www.w3.org/Graphics/SVG/1.1/DTD/svg11.dtd">
<!-- Generated by graphviz version 12.2.1 (20241206.2353)
 -->
<!-- Title: dependencies Pages: 1 -->
<svg width="4783pt" height="550pt"
 viewBox="0.00 0.00 4782.62 549.50" xmlns="http://www.w3.org/2000/svg" xmlns:xlink="http://www.w3.org/1999/xlink">
<g id="graph0" class="graph" transform="scale(1 1) rotate(0) translate(4 545.5)">
<title>dependencies</title>
<polygon fill="white" stroke="none" points="-4,4 -4,-545.5 4778.62,-545.5 4778.62,4 -4,4"/>
<!-- fortio.org/assert -->
<g id="node1" class="node">
<title>fortio.org/assert</title>
<path fill="lightblue" stroke="black" d="M338.88,-119.25C338.88,-119.25 253.12,-119.25 253.12,-119.25 247.12,-119.25 241.12,-113.25 241.12,-107.25 241.12,-107.25 241.12,-95.25 241.12,-95.25 241.12,-89.25 247.12,-83.25 253.12,-83.25 253.12,-83.25 338.88,-83.25 338.88,-83.25 344.88,-83.25 350.88,-89.25 350.88,-95.25 350.88,-95.25 350.88,-107.25 350.88,-107.25 350.88,-113.25 344.88,-119.25 338.88,-119.25"/>
<text text-anchor="middle" x="296" y="-95.45" font-family="Helvetica,sans-Serif" font-size="14.00">fortio.org/assert</text>
</g>
<!-- fortio.org/cli -->
<g id="node2" class="node">
<title>fortio.org/cli</title>
<path fill="lightblue" stroke="black" d="M2591.88,-203.5C2591.88,-203.5 2530.12,-203.5 2530.12,-203.5 2524.12,-203.5 2518.12,-197.5 2518.12,-191.5 2518.12,-191.5 2518.12,-179.5 2518.12,-179.5 2518.12,-173.5 2524.12,-167.5 2530.12,-167.5 2530.12,-167.5 2591.88,-167.5 2591.88,-167.5 2597.88,-167.5 2603.88,-173.5 2603.88,-179.5 2603.88,-179.5 2603.88,-191.5 2603.88,-191.5 2603.88,-197.5 2597.88,-203.5 2591.88,-203.5"/>
<text text-anchor="middle" x="2561" y="-179.7" font-family="Helvetica,sans-Serif" font-size="14.00">fortio.org/cli</text>
</g>
<!-- fortio.org/log -->
<g id="node7" class="node">
<title>fortio.org/log</title>
<path fill="lightblue" stroke="black" d="M1567.5,-119.25C1567.5,-119.25 1500.5,-119.25 1500.5,-119.25 1494.5,-119.25 1488.5,-113.25 1488.5,-107.25 1488.5,-107.25 1488.5,-95.25 1488.5,-95.25 1488.5,-89.25 1494.5,-83.25 1500.5,-83.25 1500.5,-83.25 1567.5,-83.25 1567.5,-83.25 1573.5,-83.25 1579.5,-89.25 1579.5,-95.25 1579.5,-95.25 1579.5,-107.25 1579.5,-107.25 1579.5,-113.25 1573.5,-119.25 1567.5,-119.25"/>
<text text-anchor="middle" x="1534" y="-95.45" font-family="Helvetica,sans-Serif" font-size="14.00">fortio.org/log</text>
</g>
<!-- fortio.org/cli&#45;&gt;fortio.org/log -->
<g id="edge1" class="edge">
<title>fortio.org/cli&#45;&gt;fortio.org/log</title>
<path fill="none" stroke="black" d="M2517.63,-178.92C2440.83,-169.2 2275.81,-149.08 2136,-137.25 1936.16,-120.34 1698.3,-109.14 1591.23,-104.57"/>
<polygon fill="black" stroke="black" points="1591.4,-101.08 1581.26,-104.15 1591.1,-108.07 1591.4,-101.08"/>
<text text-anchor="middle" x="2269.05" y="-139" font-family="Helvetica,sans-Serif" font-size="10.00">v1.17.2</text>
</g>
<!-- fortio.org/version -->
<g id="node23" class="node">
<title>fortio.org/version</title>
<path fill="lightblue" stroke="black" d="M3950.25,-119.25C3950.25,-119.25 3857.75,-119.25 3857.75,-119.25 3851.75,-119.25 3845.75,-113.25 3845.75,-107.25 3845.75,-107.25 3845.75,-95.25 3845.75,-95.25 3845.75,-89.25 3851.75,-83.25 3857.75,-83.25 3857.75,-83.25 3950.25,-83.25 3950.25,-83.25 3956.25,-83.25 3962.25,-89.25 3962.25,-95.25 3962.25,-95.25 3962.25,-107.25 3962.25,-107.25 3962.25,-113.25 3956.25,-119.25 3950.25,-119.25"/>
<text text-anchor="middle" x="3904" y="-95.45" font-family="Helvetica,sans-Serif" font-size="14.00">fortio.org/version</text>
</g>
<!-- fortio.org/cli&#45;&gt;fortio.org/version -->
<g id="edge2" class="edge">
<title>fortio.org/cli&#45;&gt;fortio.org/version</title>
<path fill="none" stroke="black" d="M2604.16,-168.53C2607.13,-167.75 2610.09,-167.06 2613,-166.5 2849.96,-120.56 3600.28,-106.46 3833.87,-103.13"/>
<polygon fill="black" stroke="black" points="3833.8,-106.63 3843.75,-102.99 3833.7,-99.63 3833.8,-106.63"/>
<text text-anchor="middle" x="2869.05" y="-139" font-family="Helvetica,sans-Serif" font-size="10.00">v1.0.4</text>
</g>
<!-- fortio.org/dflag -->
<g id="node3" class="node">
<title>fortio.org/dflag</title>
<path fill="lightblue" stroke="black" d="M460.12,-287.75C460.12,-287.75 381.88,-287.75 381.88,-287.75 375.88,-287.75 369.88,-281.75 369.88,-275.75 369.88,-275.75 369.88,-263.75 369.88,-263.75 369.88,-257.75 375.88,-251.75 381.88,-251.75 381.88,-251.75 460.12,-251.75 460.12,-251.75 466.12,-251.75 472.12,-257.75 472.12,-263.75 472.12,-263.75 472.12,-275.75 472.12,-275.75 472.12,-281.75 466.12,-287.75 460.12,-287.75"/>
<text text-anchor="middle" x="421" y="-263.95" font-family="Helvetica,sans-Serif" font-size="14.00">fortio.org/dflag</text>
</g>
<!-- fortio.org/dflag&#45;&gt;fortio.org/assert -->
<g id="edge3" class="edge">
<title>fortio.org/dflag&#45;&gt;fortio.org/assert</title>
<path fill="none" stroke="black" d="M369.67,-259.6C332.49,-252.48 285.76,-242.4 268,-233.75 213.96,-207.42 188.84,-202.77 163,-148.5 148.3,-117.63 189.35,-106.69 229.63,-103.11"/>
<polygon fill="black" stroke="black" points="229.7,-106.61 239.42,-102.4 229.19,-99.63 229.7,-106.61"/>
<text text-anchor="middle" x="221.73" y="-181.62" font-family="Helvetica,sans-Serif" font-size="10.00">v1.2.1</text>
</g>
<!-- fortio.org/dflag&#45;&gt;fortio.org/log -->
<g id="edge4" class="edge">
<title>fortio.org/dflag&#45;&gt;fortio.org/log</title>
<path fill="none" stroke="black" d="M418.85,-251.33C416.4,-222.47 416.37,-165.18 450,-137.25 489.76,-104.23 1258.86,-102.11 1476.85,-102.17"/>
<polygon fill="black" stroke="black" points="1476.8,-105.67 1486.8,-102.17 1476.81,-98.67 1476.8,-105.67"/>
<text text-anchor="middle" x="444.65" y="-181.62" font-family="Helvetica,sans-Serif" font-size="10.00">v1.17.2</text>
</g>
<!-- fortio.org/sets -->
<g id="node16" class="node">
<title>fortio.org/sets</title>
<path fill="lightblue" stroke="black" d="M690.88,-203.5C690.88,-203.5 617.12,-203.5 617.12,-203.5 611.12,-203.5 605.12,-197.5 605.12,-191.5 605.12,-191.5 605.12,-179.5 605.12,-179.5 605.12,-173.5 611.12,-167.5 617.12,-167.5 617.12,-167.5 690.88,-167.5 690.88,-167.5 696.88,-167.5 702.88,-173.5 702.88,-179.5 702.88,-179.5 702.88,-191.5 702.88,-191.5 702.88,-197.5 696.88,-203.5 690.88,-203.5"/>
<text text-anchor="middle" x="654" y="-179.7" font-family="Helvetica,sans-Serif" font-size="14.00">fortio.org/sets</text>
</g>
<!-- fortio.org/dflag&#45;&gt;fortio.org/sets -->
<g id="edge5" class="edge">
<title>fortio.org/dflag&#45;&gt;fortio.org/sets</title>
<path fill="none" stroke="black" d="M470.41,-251.31C506.56,-238.55 555.77,-221.18 594.14,-207.63"/>
<polygon fill="black" stroke="black" points="594.97,-211.05 603.23,-204.42 592.64,-204.45 594.97,-211.05"/>
<text text-anchor="middle" x="564.95" y="-224.25" font-family="Helvetica,sans-Serif" font-size="10.00">v1.3.0</text>
</g>
<!-- fortio.org/dnsping -->
<g id="node4" class="node">
<title>fortio.org/dnsping</title>
<path fill="lightblue" stroke="black" d="M2850.12,-541.5C2850.12,-541.5 2753.88,-541.5 2753.88,-541.5 2747.88,-541.5 2741.88,-535.5 2741.88,-529.5 2741.88,-529.5 2741.88,-517.5 2741.88,-517.5 2741.88,-511.5 2747.88,-505.5 2753.88,-505.5 2753.88,-505.5 2850.12,-505.5 2850.12,-505.5 2856.12,-505.5 2862.12,-511.5 2862.12,-517.5 2862.12,-517.5 2862.12,-529.5 2862.12,-529.5 2862.12,-535.5 2856.12,-541.5 2850.12,-541.5"/>
<text text-anchor="middle" x="2802" y="-517.7" font-family="Helvetica,sans-Serif" font-size="14.00">fortio.org/dnsping</text>
</g>
<!-- fortio.org/dnsping&#45;&gt;fortio.org/cli -->
<g id="edge6" class="edge">
<title>fortio.org/dnsping&#45;&gt;fortio.org/cli</title>
<path fill="none" stroke="black" d="M2810.95,-505.03C2818.47,-488.72 2828,-463.46 2828,-440.25 2828,-440.25 2828,-440.25 2828,-268.75 2828,-172.53 2718.58,-221.85 2615.43,-204.49"/>
<polygon fill="black" stroke="black" points="2616.16,-201.07 2605.68,-202.6 2614.83,-207.94 2616.16,-201.07"/>
<text text-anchor="middle" x="2844.12" y="-350.12" font-family="Helvetica,sans-Serif" font-size="10.00">v1.10.0</text>
</g>
<!-- fortio.org/fortio -->
<g id="node5" class="node">
<title>fortio.org/fortio</title>
<path fill="lightblue" stroke="black" d="M2101.5,-457.25C2101.5,-457.25 2022.5,-457.25 2022.5,-457.25 2016.5,-457.25 2010.5,-451.25 2010.5,-445.25 2010.5,-445.25 2010.5,-433.25 2010.5,-433.25 2010.5,-427.25 2016.5,-421.25 2022.5,-421.25 2022.5,-421.25 2101.5,-421.25 2101.5,-421.25 2107.5,-421.25 2113.5,-427.25 2113.5,-433.25 2113.5,-433.25 2113.5,-445.25 2113.5,-445.25 2113.5,-451.25 2107.5,-457.25 2101.5,-457.25"/>
<text text-anchor="middle" x="2062" y="-433.45" font-family="Helvetica,sans-Serif" font-size="14.00">fortio.org/fortio</text>
</g>
<!-- fortio.org/dnsping&#45;&gt;fortio.org/fortio -->
<g id="edge7" class="edge">
<title>fortio.org/dnsping&#45;&gt;fortio.org/fortio</title>
<path fill="none" stroke="black" d="M2741.55,-510.97C2730.1,-508.99 2718.2,-507.07 2707,-505.5 2494.7,-475.81 2241.28,-454.18 2125.44,-445.05"/>
<polygon fill="black" stroke="black" points="2125.75,-441.57 2115.51,-444.27 2125.2,-448.54 2125.75,-441.57"/>
<text text-anchor="middle" x="2564.34" y="-478" font-family="Helvetica,sans-Serif" font-size="10.00">v1.69.1</text>
</g>
<!-- fortio.org/dnsping&#45;&gt;fortio.org/log -->
<g id="edge8" class="edge">
<title>fortio.org/dnsping&#45;&gt;fortio.org/log</title>
<path fill="none" stroke="black" d="M2741.38,-510.19C2730,-508.3 2718.17,-506.61 2707,-505.5 2513.46,-486.31 2024.01,-518.41 1832,-487.5 1788.38,-480.48 1770.6,-486.93 1737,-458.25 1711.68,-436.63 1728.02,-414.06 1704,-391 1603.83,-294.82 1474.24,-366.66 1434,-233.75 1420.82,-190.22 1462.35,-150.15 1495.86,-125.97"/>
<polygon fill="black" stroke="black" points="1497.59,-129.03 1503.8,-120.44 1493.59,-123.28 1497.59,-129.03"/>
<text text-anchor="middle" x="1527.15" y="-307.5" font-family="Helvetica,sans-Serif" font-size="10.00">v1.17.2</text>
</g>
<!-- fortio.org/safecast -->
<g id="node14" class="node">
<title>fortio.org/safecast</title>
<path fill="lightblue" stroke="black" d="M3566.62,-203.5C3566.62,-203.5 3467.38,-203.5 3467.38,-203.5 3461.38,-203.5 3455.38,-197.5 3455.38,-191.5 3455.38,-191.5 3455.38,-179.5 3455.38,-179.5 3455.38,-173.5 3461.38,-167.5 3467.38,-167.5 3467.38,-167.5 3566.62,-167.5 3566.62,-167.5 3572.62,-167.5 3578.62,-173.5 3578.62,-179.5 3578.62,-179.5 3578.62,-191.5 3578.62,-191.5 3578.62,-197.5 3572.62,-203.5 3566.62,-203.5"/>
<text text-anchor="middle" x="3517" y="-179.7" font-family="Helvetica,sans-Serif" font-size="14.00">fortio.org/safecast</text>
</g>
<!-- fortio.org/dnsping&#45;&gt;fortio.org/safecast -->
<g id="edge9" class="edge">
<title>fortio.org/dnsping&#45;&gt;fortio.org/safecast</title>
<path fill="none" stroke="black" d="M2862.38,-520.51C3050.69,-513.97 3619.22,-491.65 3695,-458.25 3705.64,-453.56 3714,-451.88 3714,-440.25 3714,-440.25 3714,-440.25 3714,-310.38 3714,-276.52 3629.59,-233.91 3571.28,-208.51"/>
<polygon fill="black" stroke="black" points="3572.68,-205.31 3562.11,-204.58 3569.92,-211.74 3572.68,-205.31"/>
<text text-anchor="middle" x="3727.5" y="-350.12" font-family="Helvetica,sans-Serif" font-size="10.00">v1.0.0</text>
</g>
<!-- fortio.org/testscript -->
<g id="node22" class="node">
<title>fortio.org/testscript</title>
<path fill="steelblue" stroke="black" d="M2986,-204.5C2986,-204.5 2634,-204.5 2634,-204.5 2628,-204.5 2622,-198.5 2622,-192.5 2622,-192.5 2622,-178.5 2622,-178.5 2622,-172.5 2628,-166.5 2634,-166.5 2634,-166.5 2986,-166.5 2986,-166.5 2992,-166.5 2998,-172.5 2998,-178.5 2998,-178.5 2998,-192.5 2998,-192.5 2998,-198.5 2992,-204.5 2986,-204.5"/>
<text text-anchor="middle" x="2810" y="-187.2" font-family="Helvetica,sans-Serif" font-size="14.00">fortio/testscript</text>
<text text-anchor="middle" x="2810" y="-172.2" font-family="Helvetica,sans-Serif" font-size="14.00">(fortio.org/testscript fork of github.com/rogpeppe/go&#45;internal)</text>
</g>
<!-- fortio.org/dnsping&#45;&gt;fortio.org/testscript -->
<g id="edge10" class="edge">
<title>fortio.org/dnsping&#45;&gt;fortio.org/testscript</title>
<path fill="none" stroke="black" d="M2846.02,-505.04C2914.57,-474.65 3037.85,-405.57 3026,-305.75 3021.16,-264.99 3021.75,-242.67 2986,-222.5 2976.42,-217.1 2966.15,-212.5 2955.55,-208.59"/>
<polygon fill="black" stroke="black" points="2956.88,-205.35 2946.28,-205.4 2954.6,-211.97 2956.88,-205.35"/>
<text text-anchor="middle" x="3038.97" y="-350.12" font-family="Helvetica,sans-Serif" font-size="10.00">v0.3.2</text>
</g>
<!-- github.com/miekg/dns -->
<g id="node39" class="node">
<title>github.com/miekg/dns</title>
<path fill="coral" stroke="black" d="M2787.5,-458.25C2787.5,-458.25 2612.5,-458.25 2612.5,-458.25 2606.5,-458.25 2600.5,-452.25 2600.5,-446.25 2600.5,-446.25 2600.5,-432.25 2600.5,-432.25 2600.5,-426.25 2606.5,-420.25 2612.5,-420.25 2612.5,-420.25 2787.5,-420.25 2787.5,-420.25 2793.5,-420.25 2799.5,-426.25 2799.5,-432.25 2799.5,-432.25 2799.5,-446.25 2799.5,-446.25 2799.5,-452.25 2793.5,-458.25 2787.5,-458.25"/>
<text text-anchor="middle" x="2700" y="-440.95" font-family="Helvetica,sans-Serif" font-size="14.00">ldemailly/dns</text>
<text text-anchor="middle" x="2700" y="-425.95" font-family="Helvetica,sans-Serif" font-size="14.00">(fork of github.com/miekg/dns)</text>
</g>
<!-- fortio.org/dnsping&#45;&gt;github.com/miekg/dns -->
<g id="edge11" class="edge">
<title>fortio.org/dnsping&#45;&gt;github.com/miekg/dns</title>
<path fill="none" stroke="black" d="M2746.05,-505.08C2736.83,-500.43 2727.94,-494.64 2720.75,-487.5 2715.58,-482.36 2711.6,-475.72 2708.57,-469.04"/>
<polygon fill="black" stroke="black" points="2712,-468.21 2705.12,-460.15 2705.48,-470.74 2712,-468.21"/>
<text text-anchor="middle" x="2736.88" y="-478" font-family="Helvetica,sans-Serif" font-size="10.00">v1.1.65</text>
</g>
<!-- fortio.org/fortio&#45;&gt;fortio.org/assert -->
<g id="edge12" class="edge">
<title>fortio.org/fortio&#45;&gt;fortio.org/assert</title>
<path fill="none" stroke="black" d="M2028.07,-420.88C2009.15,-411.5 1985.03,-400.02 1963,-391 1962.16,-390.66 1716.89,-305.91 1716,-305.75 1586.54,-282.01 1251.34,-321.03 1124,-287.75 1090.53,-279 1086.28,-266.51 1055,-251.75 912.94,-184.71 866.57,-194.5 712,-166.5 589.07,-144.23 444.8,-123.05 362.52,-111.44"/>
<polygon fill="black" stroke="black" points="363.22,-108 352.83,-110.07 362.24,-114.93 363.22,-108"/>
<text text-anchor="middle" x="1137.5" y="-265.88" font-family="Helvetica,sans-Serif" font-size="10.00">v1.2.1</text>
</g>
<!-- fortio.org/fortio&#45;&gt;fortio.org/cli -->
<g id="edge13" class="edge">
<title>fortio.org/fortio&#45;&gt;fortio.org/cli</title>
<path fill="none" stroke="black" d="M2113.79,-434.64C2256.64,-423.5 2650.75,-384.4 2728,-287.75 2746.11,-265.1 2746.85,-244.53 2728,-222.5 2712.83,-204.77 2651.84,-209.47 2615.19,-204.21"/>
<polygon fill="black" stroke="black" points="2616.2,-200.84 2605.72,-202.4 2614.89,-207.72 2616.2,-200.84"/>
<text text-anchor="middle" x="2724.84" y="-307.5" font-family="Helvetica,sans-Serif" font-size="10.00">v1.10.0</text>
</g>
<!-- fortio.org/fortio&#45;&gt;fortio.org/dflag -->
<g id="edge14" class="edge">
<title>fortio.org/fortio&#45;&gt;fortio.org/dflag</title>
<path fill="none" stroke="black" d="M2010.1,-432.87C1967.85,-428.7 1906.64,-423.17 1853,-420.25 1678.99,-410.77 1240.67,-432.23 1069,-402.25 976.2,-386.04 960.04,-355.05 868,-335 794.19,-318.92 773.62,-328.72 699,-317 674.78,-313.2 669.21,-309.59 645,-305.75 575.97,-294.8 554.92,-301.13 483.49,-288.03"/>
<polygon fill="black" stroke="black" points="484.54,-284.67 474.07,-286.24 483.23,-291.55 484.54,-284.67"/>
<text text-anchor="middle" x="987.15" y="-350.12" font-family="Helvetica,sans-Serif" font-size="10.00">v1.8.1</text>
</g>
<!-- fortio.org/fortio&#45;&gt;fortio.org/log -->
<g id="edge15" class="edge">
<title>fortio.org/fortio&#45;&gt;fortio.org/log</title>
<path fill="none" stroke="black" d="M2062.84,-420.92C2062.97,-398.29 2059.74,-358.76 2038,-335 2009.9,-304.28 1989.96,-313.24 1949,-305.75 1904.55,-297.62 1574.74,-319.65 1542.75,-287.75 1501.61,-246.72 1514.05,-171.54 1525.03,-130.61"/>
<polygon fill="black" stroke="black" points="1528.39,-131.59 1527.77,-121.02 1521.66,-129.67 1528.39,-131.59"/>
<text text-anchor="middle" x="1558.88" y="-265.88" font-family="Helvetica,sans-Serif" font-size="10.00">v1.17.2</text>
</g>
<!-- fortio.org/fortio&#45;&gt;fortio.org/safecast -->
<g id="edge16" class="edge">
<title>fortio.org/fortio&#45;&gt;fortio.org/safecast</title>
<path fill="none" stroke="black" d="M2113.67,-436.19C2217.39,-431.82 2458.27,-420.5 2660,-402.25 2767.9,-392.49 2802,-414.69 2902,-373 2927.11,-362.53 2924.83,-345.34 2950,-335 3038.51,-298.64 3291.78,-329.25 3378,-287.75 3414.88,-270 3409.69,-246.29 3443,-222.5 3449.71,-217.71 3457.17,-213.24 3464.68,-209.2"/>
<polygon fill="black" stroke="black" points="3466.25,-212.33 3473.55,-204.66 3463.06,-206.1 3466.25,-212.33"/>
<text text-anchor="middle" x="3315.86" y="-307.5" font-family="Helvetica,sans-Serif" font-size="10.00">v1.0.0</text>
</g>
<!-- fortio.org/scli -->
<g id="node15" class="node">
<title>fortio.org/scli</title>
<path fill="lightblue" stroke="black" d="M1434.25,-372C1434.25,-372 1365.75,-372 1365.75,-372 1359.75,-372 1353.75,-366 1353.75,-360 1353.75,-360 1353.75,-348 1353.75,-348 1353.75,-342 1359.75,-336 1365.75,-336 1365.75,-336 1434.25,-336 1434.25,-336 1440.25,-336 1446.25,-342 1446.25,-348 1446.25,-348 1446.25,-360 1446.25,-360 1446.25,-366 1440.25,-372 1434.25,-372"/>
<text text-anchor="middle" x="1400" y="-348.2" font-family="Helvetica,sans-Serif" font-size="14.00">fortio.org/scli</text>
</g>
<!-- fortio.org/fortio&#45;&gt;fortio.org/scli -->
<g id="edge17" class="edge">
<title>fortio.org/fortio&#45;&gt;fortio.org/scli</title>
<path fill="none" stroke="black" d="M2010.26,-430.49C1944.33,-420.71 1826.82,-403.65 1726,-391 1632.33,-379.24 1523.25,-367.62 1458.01,-360.88"/>
<polygon fill="black" stroke="black" points="1458.56,-357.42 1448.25,-359.88 1457.84,-364.38 1458.56,-357.42"/>
<text text-anchor="middle" x="1825.19" y="-392.75" font-family="Helvetica,sans-Serif" font-size="10.00">v1.16.1</text>
</g>
<!-- fortio.org/fortio&#45;&gt;fortio.org/sets -->
<g id="edge18" class="edge">
<title>fortio.org/fortio&#45;&gt;fortio.org/sets</title>
<path fill="none" stroke="black" d="M2015.04,-420.89C1999.41,-415.04 1981.93,-408.44 1966,-402.25 1953.5,-397.4 1951,-394.3 1938,-391 1728.55,-337.8 1670.01,-356.71 1455,-335 1304.1,-319.76 1266.15,-318.24 1115,-305.75 1014.14,-297.41 986.21,-312.18 888,-287.75 878.46,-285.38 769.36,-237.49 703.56,-208.44"/>
<polygon fill="black" stroke="black" points="705.34,-205.39 694.77,-204.56 702.51,-211.8 705.34,-205.39"/>
<text text-anchor="middle" x="1267.78" y="-307.5" font-family="Helvetica,sans-Serif" font-size="10.00">v1.3.0</text>
</g>
<!-- fortio.org/fortio&#45;&gt;fortio.org/testscript -->
<g id="edge19" class="edge">
<title>fortio.org/fortio&#45;&gt;fortio.org/testscript</title>
<path fill="none" stroke="black" d="M2113.84,-434.86C2285.87,-423.52 2829.03,-386.78 2864,-373 2889.31,-363.02 2889.41,-350.16 2912,-335 2920.89,-329.03 2990.59,-296.99 2996,-287.75 3004.08,-273.94 3005.25,-264.8 2996,-251.75 2982.33,-232.47 2962.5,-218.84 2940.83,-209.22"/>
<polygon fill="black" stroke="black" points="2942.39,-206.08 2931.81,-205.52 2939.73,-212.56 2942.39,-206.08"/>
<text text-anchor="middle" x="2981.85" y="-307.5" font-family="Helvetica,sans-Serif" font-size="10.00">v0.3.2</text>
</g>
<!-- fortio.org/fortio&#45;&gt;fortio.org/version -->
<g id="edge20" class="edge">
<title>fortio.org/fortio&#45;&gt;fortio.org/version</title>
<path fill="none" stroke="black" d="M2113.9,-436.27C2208.8,-432.7 2416.68,-425.11 2592,-420.25 2778.19,-415.09 3245.39,-426.99 3430,-402.25 3483.13,-395.13 3495.85,-389.02 3547,-373 3709.52,-322.09 3766.62,-334.41 3904,-233.75 3946.95,-202.28 4003.12,-182.47 3975,-137.25 3972.47,-133.18 3969.31,-129.57 3965.74,-126.37"/>
<polygon fill="black" stroke="black" points="3968.08,-123.75 3957.98,-120.53 3963.87,-129.34 3968.08,-123.75"/>
<text text-anchor="middle" x="3891.79" y="-265.88" font-family="Helvetica,sans-Serif" font-size="10.00">v1.0.4</text>
</g>
<!-- grol.io/grol -->
<g id="node44" class="node">
<title>grol.io/grol</title>
<path fill="lightgreen" stroke="black" d="M3525.5,-372C3525.5,-372 3470.5,-372 3470.5,-372 3464.5,-372 3458.5,-366 3458.5,-360 3458.5,-360 3458.5,-348 3458.5,-348 3458.5,-342 3464.5,-336 3470.5,-336 3470.5,-336 3525.5,-336 3525.5,-336 3531.5,-336 3537.5,-342 3537.5,-348 3537.5,-348 3537.5,-360 3537.5,-360 3537.5,-366 3531.5,-372 3525.5,-372"/>
<text text-anchor="middle" x="3498" y="-348.2" font-family="Helvetica,sans-Serif" font-size="14.00">grol.io/grol</text>
</g>
<!-- fortio.org/fortio&#45;&gt;grol.io/grol -->
<g id="edge21" class="edge">
<title>fortio.org/fortio&#45;&gt;grol.io/grol</title>
<path fill="none" stroke="black" d="M2113.98,-436.26C2349.71,-427.18 3312.32,-389.48 3446.87,-372.73"/>
<polygon fill="black" stroke="black" points="3447.36,-376.2 3456.71,-371.21 3446.29,-369.28 3447.36,-376.2"/>
<text text-anchor="middle" x="3167.68" y="-392.75" font-family="Helvetica,sans-Serif" font-size="10.00">v0.80.3</text>
</g>
<!-- fortio.org/fortiotel -->
<g id="node6" class="node">
<title>fortio.org/fortiotel</title>
<path fill="lightblue" stroke="black" d="M718.62,-541.5C718.62,-541.5 625.38,-541.5 625.38,-541.5 619.38,-541.5 613.38,-535.5 613.38,-529.5 613.38,-529.5 613.38,-517.5 613.38,-517.5 613.38,-511.5 619.38,-505.5 625.38,-505.5 625.38,-505.5 718.62,-505.5 718.62,-505.5 724.62,-505.5 730.62,-511.5 730.62,-517.5 730.62,-517.5 730.62,-529.5 730.62,-529.5 730.62,-535.5 724.62,-541.5 718.62,-541.5"/>
<text text-anchor="middle" x="672" y="-517.7" font-family="Helvetica,sans-Serif" font-size="14.00">fortio.org/fortiotel</text>
</g>
<!-- fortio.org/fortiotel&#45;&gt;fortio.org/cli -->
<g id="edge22" class="edge">
<title>fortio.org/fortiotel&#45;&gt;fortio.org/cli</title>
<path fill="none" stroke="black" d="M730.8,-516.18C828.07,-505.98 1028.68,-486.06 1199,-476.25 1235.29,-474.16 1820.14,-473.78 1853,-458.25 1873.22,-448.69 1866.84,-431.8 1886,-420.25 2028.56,-334.28 2086.92,-364.58 2250.75,-335 2291.35,-327.67 2591.75,-318.72 2619,-287.75 2638.34,-265.77 2626.96,-246.36 2610,-222.5 2607.07,-218.37 2603.51,-214.53 2599.67,-211"/>
<polygon fill="black" stroke="black" points="2602.05,-208.43 2592.1,-204.78 2597.6,-213.83 2602.05,-208.43"/>
<text text-anchor="middle" x="2266.88" y="-350.12" font-family="Helvetica,sans-Serif" font-size="10.00">v1.10.0</text>
</g>
<!-- fortio.org/fortiotel&#45;&gt;fortio.org/dflag -->
<g id="edge23" class="edge">
<title>fortio.org/fortiotel&#45;&gt;fortio.org/dflag</title>
<path fill="none" stroke="black" d="M654.75,-505.2C611.31,-461.63 497.28,-347.26 446.28,-296.11"/>
<polygon fill="black" stroke="black" points="448.98,-293.86 439.44,-289.25 444.02,-298.8 448.98,-293.86"/>
<text text-anchor="middle" x="562.9" y="-392.75" font-family="Helvetica,sans-Serif" font-size="10.00">v1.8.1</text>
</g>
<!-- fortio.org/fortiotel&#45;&gt;fortio.org/fortio -->
<g id="edge24" class="edge">
<title>fortio.org/fortiotel&#45;&gt;fortio.org/fortio</title>
<path fill="none" stroke="black" d="M730.79,-519.35C835.44,-513.64 1060.89,-500.95 1251,-487.5 1312.71,-483.13 1327.99,-479.87 1389.75,-476.25 1610.07,-463.33 1665.83,-473.49 1886,-458.25 1923.58,-455.65 1965.54,-451.41 1999.07,-447.7"/>
<polygon fill="black" stroke="black" points="1999.04,-451.22 2008.59,-446.63 1998.26,-444.27 1999.04,-451.22"/>
<text text-anchor="middle" x="1405.88" y="-478" font-family="Helvetica,sans-Serif" font-size="10.00">v1.69.1</text>
</g>
<!-- fortio.org/fortiotel&#45;&gt;fortio.org/log -->
<g id="edge25" class="edge">
<title>fortio.org/fortiotel&#45;&gt;fortio.org/log</title>
<path fill="none" stroke="black" d="M613.17,-517.88C440.57,-502.06 -43.82,-440.16 95,-251.75 142.42,-187.4 357.33,-151.4 436,-137.25 638.69,-100.8 1280.82,-100.94 1476.71,-101.88"/>
<polygon fill="black" stroke="black" points="1476.61,-105.38 1486.63,-101.93 1476.65,-98.38 1476.61,-105.38"/>
<text text-anchor="middle" x="87" y="-307.5" font-family="Helvetica,sans-Serif" font-size="10.00">v1.17.2</text>
</g>
<!-- fortio.org/struct2env -->
<g id="node18" class="node">
<title>fortio.org/struct2env</title>
<path fill="lightblue" stroke="black" d="M2847.62,-36C2847.62,-36 2736.38,-36 2736.38,-36 2730.38,-36 2724.38,-30 2724.38,-24 2724.38,-24 2724.38,-12 2724.38,-12 2724.38,-6 2730.38,0 2736.38,0 2736.38,0 2847.62,0 2847.62,0 2853.62,0 2859.62,-6 2859.62,-12 2859.62,-12 2859.62,-24 2859.62,-24 2859.62,-30 2853.62,-36 2847.62,-36"/>
<text text-anchor="middle" x="2792" y="-12.2" font-family="Helvetica,sans-Serif" font-size="14.00">fortio.org/struct2env</text>
</g>
<!-- fortio.org/log&#45;&gt;fortio.org/struct2env -->
<g id="edge26" class="edge">
<title>fortio.org/log&#45;&gt;fortio.org/struct2env</title>
<path fill="none" stroke="black" d="M1579.89,-97.29C1767.06,-85.2 2474.09,-39.53 2712.76,-24.12"/>
<polygon fill="black" stroke="black" points="2712.84,-27.62 2722.59,-23.48 2712.38,-20.63 2712.84,-27.62"/>
<text text-anchor="middle" x="2251.82" y="-55.75" font-family="Helvetica,sans-Serif" font-size="10.00">v0.4.2</text>
</g>
<!-- fortio.org/logc -->
<g id="node8" class="node">
<title>fortio.org/logc</title>
<path fill="lightblue" stroke="black" d="M1831.88,-457.25C1831.88,-457.25 1758.12,-457.25 1758.12,-457.25 1752.12,-457.25 1746.12,-451.25 1746.12,-445.25 1746.12,-445.25 1746.12,-433.25 1746.12,-433.25 1746.12,-427.25 1752.12,-421.25 1758.12,-421.25 1758.12,-421.25 1831.88,-421.25 1831.88,-421.25 1837.88,-421.25 1843.88,-427.25 1843.88,-433.25 1843.88,-433.25 1843.88,-445.25 1843.88,-445.25 1843.88,-451.25 1837.88,-457.25 1831.88,-457.25"/>
<text text-anchor="middle" x="1795" y="-433.45" font-family="Helvetica,sans-Serif" font-size="14.00">fortio.org/logc</text>
</g>
<!-- fortio.org/logc&#45;&gt;fortio.org/cli -->
<g id="edge27" class="edge">
<title>fortio.org/logc&#45;&gt;fortio.org/cli</title>
<path fill="none" stroke="black" d="M1796.25,-421.01C1797.58,-411.56 1800.34,-399.98 1806,-391 1838.4,-339.65 1855.71,-326.57 1912.75,-305.75 1948.68,-292.63 2574.31,-315.15 2601,-287.75 2621.17,-267.05 2602.97,-234.95 2585.04,-212.45"/>
<polygon fill="black" stroke="black" points="2587.83,-210.33 2578.72,-204.92 2582.46,-214.83 2587.83,-210.33"/>
<text text-anchor="middle" x="1928.88" y="-307.5" font-family="Helvetica,sans-Serif" font-size="10.00">v1.10.0</text>
</g>
<!-- fortio.org/logc&#45;&gt;fortio.org/log -->
<g id="edge28" class="edge">
<title>fortio.org/logc&#45;&gt;fortio.org/log</title>
<path fill="none" stroke="black" d="M1790.69,-420.8C1782.39,-391.33 1761.17,-332.34 1719,-305.75 1673.9,-277.31 1516.01,-326.84 1479.75,-287.75 1468.87,-276.02 1477.06,-267.52 1479.75,-251.75 1488.82,-198.58 1501.03,-187.75 1520,-137.25 1520.84,-135 1521.74,-132.68 1522.64,-130.34"/>
<polygon fill="black" stroke="black" points="1525.9,-131.63 1526.32,-121.05 1519.39,-129.06 1525.9,-131.63"/>
<text text-anchor="middle" x="1495.88" y="-265.88" font-family="Helvetica,sans-Serif" font-size="10.00">v1.17.2</text>
</g>
<!-- fortio.org/logc&#45;&gt;fortio.org/scli -->
<g id="edge29" class="edge">
<title>fortio.org/logc&#45;&gt;fortio.org/scli</title>
<path fill="none" stroke="black" d="M1747.9,-420.76C1719.57,-410.81 1682.61,-398.81 1649,-391 1584.27,-375.96 1508.53,-366.08 1457.73,-360.54"/>
<polygon fill="black" stroke="black" points="1458.15,-357.07 1447.83,-359.49 1457.4,-364.03 1458.15,-357.07"/>
<text text-anchor="middle" x="1705.82" y="-392.75" font-family="Helvetica,sans-Serif" font-size="10.00">v1.15.3</text>
</g>
<!-- fortio.org/memstore -->
<g id="node9" class="node">
<title>fortio.org/memstore</title>
<path fill="lightblue" stroke="black" d="M418.25,-541.5C418.25,-541.5 307.75,-541.5 307.75,-541.5 301.75,-541.5 295.75,-535.5 295.75,-529.5 295.75,-529.5 295.75,-517.5 295.75,-517.5 295.75,-511.5 301.75,-505.5 307.75,-505.5 307.75,-505.5 418.25,-505.5 418.25,-505.5 424.25,-505.5 430.25,-511.5 430.25,-517.5 430.25,-517.5 430.25,-529.5 430.25,-529.5 430.25,-535.5 424.25,-541.5 418.25,-541.5"/>
<text text-anchor="middle" x="363" y="-517.7" font-family="Helvetica,sans-Serif" font-size="14.00">fortio.org/memstore</text>
</g>
<!-- fortio.org/memstore&#45;&gt;fortio.org/dflag -->
<g id="edge30" class="edge">
<title>fortio.org/memstore&#45;&gt;fortio.org/dflag</title>
<path fill="none" stroke="black" d="M366.23,-505.42C371.04,-480.28 380.54,-431.87 390,-391 397.31,-359.41 406.73,-323.44 413.26,-299.13"/>
<polygon fill="black" stroke="black" points="416.58,-300.24 415.81,-289.67 409.83,-298.41 416.58,-300.24"/>
<text text-anchor="middle" x="403.5" y="-392.75" font-family="Helvetica,sans-Serif" font-size="10.00">v1.7.3</text>
</g>
<!-- fortio.org/memstore&#45;&gt;fortio.org/fortio -->
<g id="edge31" class="edge">
<title>fortio.org/memstore&#45;&gt;fortio.org/fortio</title>
<path fill="none" stroke="black" d="M430.75,-517.16C479.02,-513.49 545.47,-508.72 604,-505.5 806.07,-494.38 856.93,-498.79 1059,-487.5 1128.29,-483.63 1145.43,-479.73 1214.75,-476.25 1498.17,-462.02 1569.68,-474.43 1853,-458.25 1902.02,-455.45 1957.38,-450.61 1998.8,-446.65"/>
<polygon fill="black" stroke="black" points="1998.97,-450.15 2008.59,-445.7 1998.3,-443.18 1998.97,-450.15"/>
<text text-anchor="middle" x="1230.88" y="-478" font-family="Helvetica,sans-Serif" font-size="10.00">v1.68.0</text>
</g>
<!-- fortio.org/memstore&#45;&gt;fortio.org/log -->
<g id="edge32" class="edge">
<title>fortio.org/memstore&#45;&gt;fortio.org/log</title>
<path fill="none" stroke="black" d="M295.57,-520.86C190.6,-516.45 0,-500.18 0,-440.25 0,-440.25 0,-440.25 0,-310.38 0,-211.73 79.11,-207.13 169,-166.5 289.37,-112.09 1233.53,-103.72 1476.92,-102.47"/>
<polygon fill="black" stroke="black" points="1476.81,-105.97 1486.79,-102.42 1476.78,-98.97 1476.81,-105.97"/>
<text text-anchor="middle" x="16.12" y="-307.5" font-family="Helvetica,sans-Serif" font-size="10.00">v1.17.1</text>
</g>
<!-- fortio.org/memstore&#45;&gt;fortio.org/scli -->
<g id="edge33" class="edge">
<title>fortio.org/memstore&#45;&gt;fortio.org/scli</title>
<path fill="none" stroke="black" d="M430.47,-517.73C634.7,-503.27 1232.61,-460.74 1237,-458.25 1254.97,-448.07 1247.98,-433.59 1263.75,-420.25 1286.89,-400.68 1316.91,-385.48 1342.88,-374.69"/>
<polygon fill="black" stroke="black" points="1343.97,-378.02 1351.95,-371.05 1341.36,-371.53 1343.97,-378.02"/>
<text text-anchor="middle" x="1279.88" y="-435.38" font-family="Helvetica,sans-Serif" font-size="10.00">v1.15.3</text>
</g>
<!-- fortio.org/memstore&#45;&gt;fortio.org/sets -->
<g id="edge34" class="edge">
<title>fortio.org/memstore&#45;&gt;fortio.org/sets</title>
<path fill="none" stroke="black" d="M356.24,-505.22C339.19,-458.46 299.98,-327.85 361,-251.75 389.63,-216.05 516.86,-198.62 593.94,-191.2"/>
<polygon fill="black" stroke="black" points="593.79,-194.73 603.42,-190.32 593.14,-187.76 593.79,-194.73"/>
<text text-anchor="middle" x="342.72" y="-350.12" font-family="Helvetica,sans-Serif" font-size="10.00">v1.2.0</text>
</g>
<!-- fortio.org/multicurl -->
<g id="node10" class="node">
<title>fortio.org/multicurl</title>
<path fill="lightblue" stroke="black" d="M3357,-287.75C3357,-287.75 3257,-287.75 3257,-287.75 3251,-287.75 3245,-281.75 3245,-275.75 3245,-275.75 3245,-263.75 3245,-263.75 3245,-257.75 3251,-251.75 3257,-251.75 3257,-251.75 3357,-251.75 3357,-251.75 3363,-251.75 3369,-257.75 3369,-263.75 3369,-263.75 3369,-275.75 3369,-275.75 3369,-281.75 3363,-287.75 3357,-287.75"/>
<text text-anchor="middle" x="3307" y="-263.95" font-family="Helvetica,sans-Serif" font-size="14.00">fortio.org/multicurl</text>
</g>
<!-- fortio.org/multicurl&#45;&gt;fortio.org/cli -->
<g id="edge35" class="edge">
<title>fortio.org/multicurl&#45;&gt;fortio.org/cli</title>
<path fill="none" stroke="black" d="M3244.61,-259.21C3227.86,-256.71 3209.75,-254.07 3193,-251.75 3091.36,-237.68 3066.2,-231.63 2964,-222.5 2812.06,-208.92 2768.36,-233.16 2615.37,-204.61"/>
<polygon fill="black" stroke="black" points="2616.13,-201.19 2605.65,-202.75 2614.81,-208.07 2616.13,-201.19"/>
<text text-anchor="middle" x="3083.36" y="-224.25" font-family="Helvetica,sans-Serif" font-size="10.00">v1.10.0</text>
</g>
<!-- fortio.org/multicurl&#45;&gt;fortio.org/log -->
<g id="edge36" class="edge">
<title>fortio.org/multicurl&#45;&gt;fortio.org/log</title>
<path fill="none" stroke="black" d="M3295.93,-251.35C3288.48,-241.18 3277.71,-229.09 3265,-222.5 3207.25,-192.55 3178.85,-231.67 3119.75,-204.5 3096.95,-194.02 3100.65,-177.3 3078,-166.5 3000.49,-129.52 2972.54,-144.88 2887,-137.25 2629.48,-114.29 1814.9,-104.94 1591.28,-102.77"/>
<polygon fill="black" stroke="black" points="1591.4,-99.27 1581.36,-102.67 1591.33,-106.27 1591.4,-99.27"/>
<text text-anchor="middle" x="3135.88" y="-181.62" font-family="Helvetica,sans-Serif" font-size="10.00">v1.17.2</text>
</g>
<!-- fortio.org/progressbar -->
<g id="node12" class="node">
<title>fortio.org/progressbar</title>
<path fill="lightblue" stroke="black" d="M3293.5,-203.5C3293.5,-203.5 3172.5,-203.5 3172.5,-203.5 3166.5,-203.5 3160.5,-197.5 3160.5,-191.5 3160.5,-191.5 3160.5,-179.5 3160.5,-179.5 3160.5,-173.5 3166.5,-167.5 3172.5,-167.5 3172.5,-167.5 3293.5,-167.5 3293.5,-167.5 3299.5,-167.5 3305.5,-173.5 3305.5,-179.5 3305.5,-179.5 3305.5,-191.5 3305.5,-191.5 3305.5,-197.5 3299.5,-203.5 3293.5,-203.5"/>
<text text-anchor="middle" x="3233" y="-179.7" font-family="Helvetica,sans-Serif" font-size="14.00">fortio.org/progressbar</text>
</g>
<!-- fortio.org/multicurl&#45;&gt;fortio.org/progressbar -->
<g id="edge37" class="edge">
<title>fortio.org/multicurl&#45;&gt;fortio.org/progressbar</title>
<path fill="none" stroke="black" d="M3303.54,-251.57C3301,-242.22 3296.78,-230.88 3290,-222.5 3286.41,-218.06 3282.12,-214.01 3277.53,-210.36"/>
<polygon fill="black" stroke="black" points="3279.83,-207.69 3269.66,-204.71 3275.75,-213.38 3279.83,-207.69"/>
<text text-anchor="middle" x="3312.58" y="-224.25" font-family="Helvetica,sans-Serif" font-size="10.00">v0.12.0</text>
</g>
<!-- fortio.org/multicurl&#45;&gt;fortio.org/testscript -->
<g id="edge38" class="edge">
<title>fortio.org/multicurl&#45;&gt;fortio.org/testscript</title>
<path fill="none" stroke="black" d="M3272.8,-251.37C3247.3,-238.44 3216.6,-222.95 3215,-222.5 3194.31,-216.61 3101.47,-208.17 3009.9,-200.94"/>
<polygon fill="black" stroke="black" points="3010.2,-197.45 2999.96,-200.16 3009.66,-204.43 3010.2,-197.45"/>
<text text-anchor="middle" x="3249.59" y="-224.25" font-family="Helvetica,sans-Serif" font-size="10.00">v0.3.2</text>
</g>
<!-- fortio.org/multicurl&#45;&gt;fortio.org/version -->
<g id="edge39" class="edge">
<title>fortio.org/multicurl&#45;&gt;fortio.org/version</title>
<path fill="none" stroke="black" d="M3326.34,-251.36C3340.65,-238.47 3360.59,-220.44 3378,-204.5 3396.32,-187.72 3396.52,-177.07 3419,-166.5 3491.15,-132.57 3718.34,-113.85 3834.35,-106.28"/>
<polygon fill="black" stroke="black" points="3834.29,-109.79 3844.05,-105.66 3833.84,-102.81 3834.29,-109.79"/>
<text text-anchor="middle" x="3432.5" y="-181.62" font-family="Helvetica,sans-Serif" font-size="10.00">v1.0.4</text>
</g>
<!-- fortio.org/otel&#45;sample&#45;app -->
<g id="node11" class="node">
<title>fortio.org/otel&#45;sample&#45;app</title>
<path fill="lightblue" stroke="black" d="M4349.25,-541.5C4349.25,-541.5 4202.75,-541.5 4202.75,-541.5 4196.75,-541.5 4190.75,-535.5 4190.75,-529.5 4190.75,-529.5 4190.75,-517.5 4190.75,-517.5 4190.75,-511.5 4196.75,-505.5 4202.75,-505.5 4202.75,-505.5 4349.25,-505.5 4349.25,-505.5 4355.25,-505.5 4361.25,-511.5 4361.25,-517.5 4361.25,-517.5 4361.25,-529.5 4361.25,-529.5 4361.25,-535.5 4355.25,-541.5 4349.25,-541.5"/>
<text text-anchor="middle" x="4276" y="-517.7" font-family="Helvetica,sans-Serif" font-size="14.00">fortio.org/otel&#45;sample&#45;app</text>
</g>
<!-- fortio.org/proxy -->
<g id="node13" class="node">
<title>fortio.org/proxy</title>
<path fill="lightblue" stroke="black" d="M1441,-541.5C1441,-541.5 1359,-541.5 1359,-541.5 1353,-541.5 1347,-535.5 1347,-529.5 1347,-529.5 1347,-517.5 1347,-517.5 1347,-511.5 1353,-505.5 1359,-505.5 1359,-505.5 1441,-505.5 1441,-505.5 1447,-505.5 1453,-511.5 1453,-517.5 1453,-517.5 1453,-529.5 1453,-529.5 1453,-535.5 1447,-541.5 1441,-541.5"/>
<text text-anchor="middle" x="1400" y="-517.7" font-family="Helvetica,sans-Serif" font-size="14.00">fortio.org/proxy</text>
</g>
<!-- fortio.org/proxy&#45;&gt;fortio.org/cli -->
<g id="edge40" class="edge">
<title>fortio.org/proxy&#45;&gt;fortio.org/cli</title>
<path fill="none" stroke="black" d="M1453.44,-513.86C1526.18,-502.15 1652.61,-482.07 1699,-476.25 1781.85,-465.86 1804.3,-475.46 1886,-458.25 1938.67,-447.16 1948.91,-433.81 2001,-420.25 2038.72,-410.43 2665.18,-317.8 2690,-287.75 2708.47,-265.39 2708.02,-245.22 2690,-222.5 2670.12,-197.44 2650.61,-211.17 2615.25,-204.5"/>
<polygon fill="black" stroke="black" points="2616.32,-201.15 2605.78,-202.22 2614.68,-207.96 2616.32,-201.15"/>
<text text-anchor="middle" x="2512.64" y="-350.12" font-family="Helvetica,sans-Serif" font-size="10.00">v1.10.0</text>
</g>
<!-- fortio.org/proxy&#45;&gt;fortio.org/dflag -->
<g id="edge41" class="edge">
<title>fortio.org/proxy&#45;&gt;fortio.org/dflag</title>
<path fill="none" stroke="black" d="M1346.64,-518.26C1189.42,-505.69 737.11,-468.8 707,-458.25 677.89,-448.05 500.83,-322.61 475,-305.75 469.37,-302.07 463.4,-298.19 457.56,-294.4"/>
<polygon fill="black" stroke="black" points="459.5,-291.49 449.21,-288.99 455.7,-297.36 459.5,-291.49"/>
<text text-anchor="middle" x="629.08" y="-392.75" font-family="Helvetica,sans-Serif" font-size="10.00">v1.8.1</text>
</g>
<!-- fortio.org/proxy&#45;&gt;fortio.org/fortio -->
<g id="edge42" class="edge">
<title>fortio.org/proxy&#45;&gt;fortio.org/fortio</title>
<path fill="none" stroke="black" d="M1453.39,-516.27C1481.03,-513.05 1515.33,-509.05 1546,-505.5 1658.77,-492.44 1686.95,-489.09 1799.75,-476.25 1870.96,-468.15 1889.06,-468.48 1960,-458.25 1972.66,-456.42 1986.17,-454.22 1999.07,-451.99"/>
<polygon fill="black" stroke="black" points="1999.48,-455.48 2008.72,-450.3 1998.27,-448.58 1999.48,-455.48"/>
<text text-anchor="middle" x="1815.88" y="-478" font-family="Helvetica,sans-Serif" font-size="10.00">v1.69.1</text>
</g>
<!-- fortio.org/proxy&#45;&gt;fortio.org/log -->
<g id="edge43" class="edge">
<title>fortio.org/proxy&#45;&gt;fortio.org/log</title>
<path fill="none" stroke="black" d="M1346.68,-519.1C1252.99,-512.27 1063.6,-494.33 1009,-458.25 917.81,-397.99 885.45,-317.78 939,-222.5 991.67,-128.78 1338.28,-108.07 1476.87,-103.52"/>
<polygon fill="black" stroke="black" points="1476.66,-107.03 1486.55,-103.22 1476.44,-100.03 1476.66,-107.03"/>
<text text-anchor="middle" x="929.29" y="-307.5" font-family="Helvetica,sans-Serif" font-size="10.00">v1.17.2</text>
</g>
<!-- fortio.org/proxy&#45;&gt;fortio.org/scli -->
<g id="edge44" class="edge">
<title>fortio.org/proxy&#45;&gt;fortio.org/scli</title>
<path fill="none" stroke="black" d="M1400,-505.21C1400,-476.49 1400,-418.7 1400,-383.77"/>
<polygon fill="black" stroke="black" points="1403.5,-383.96 1400,-373.96 1396.5,-383.96 1403.5,-383.96"/>
<text text-anchor="middle" x="1416.12" y="-435.38" font-family="Helvetica,sans-Serif" font-size="10.00">v1.16.1</text>
</g>
<!-- fortio.org/scli&#45;&gt;fortio.org/cli -->
<g id="edge45" class="edge">
<title>fortio.org/scli&#45;&gt;fortio.org/cli</title>
<path fill="none" stroke="black" d="M1446.43,-342.41C1498.91,-330.98 1587.08,-313.37 1664,-305.75 1688.39,-303.33 2527.61,-303.95 2546,-287.75 2565.99,-270.15 2567.71,-238.45 2565.71,-215.2"/>
<polygon fill="black" stroke="black" points="2569.2,-214.96 2564.57,-205.43 2562.25,-215.77 2569.2,-214.96"/>
<text text-anchor="middle" x="2580.42" y="-265.88" font-family="Helvetica,sans-Serif" font-size="10.00">v1.10.0</text>
</g>
<!-- fortio.org/scli&#45;&gt;fortio.org/dflag -->
<g id="edge46" class="edge">
<title>fortio.org/scli&#45;&gt;fortio.org/dflag</title>
<path fill="none" stroke="black" d="M1353.36,-350.11C1261.8,-344.36 1052.13,-330.85 876,-317 819.51,-312.56 805.49,-310.15 749,-305.75 633.58,-296.76 600.61,-307.45 483.75,-288.01"/>
<polygon fill="black" stroke="black" points="484.49,-284.58 474.04,-286.35 483.31,-291.48 484.49,-284.58"/>
<text text-anchor="middle" x="889.5" y="-307.5" font-family="Helvetica,sans-Serif" font-size="10.00">v1.8.1</text>
</g>
<!-- fortio.org/scli&#45;&gt;fortio.org/log -->
<g id="edge47" class="edge">
<title>fortio.org/scli&#45;&gt;fortio.org/log</title>
<path fill="none" stroke="black" d="M1353.52,-351.86C1269.96,-347.85 1107,-330.07 1151,-251.75 1215.65,-136.69 1386.7,-109.85 1476.73,-103.81"/>
<polygon fill="black" stroke="black" points="1476.81,-107.32 1486.58,-103.23 1476.39,-100.33 1476.81,-107.32"/>
<text text-anchor="middle" x="1185.85" y="-224.25" font-family="Helvetica,sans-Serif" font-size="10.00">v1.17.2</text>
</g>
<!-- fortio.org/scli&#45;&gt;fortio.org/version -->
<g id="edge48" class="edge">
<title>fortio.org/scli&#45;&gt;fortio.org/version</title>
<path fill="none" stroke="black" d="M1446.6,-351.07C1617.18,-344.08 2223.64,-319.71 2724,-305.75 2823.43,-302.98 3521.6,-307.92 3619,-287.75 3660.38,-279.18 3667.14,-265.79 3707,-251.75 3724.38,-245.63 3852.54,-217.09 3866,-204.5 3886.61,-185.22 3896.1,-153.74 3900.44,-130.79"/>
<polygon fill="black" stroke="black" points="3903.85,-131.61 3902.02,-121.18 3896.94,-130.48 3903.85,-131.61"/>
<text text-anchor="middle" x="3830.58" y="-224.25" font-family="Helvetica,sans-Serif" font-size="10.00">v1.0.4</text>
</g>
<!-- fortio.org/sets&#45;&gt;fortio.org/assert -->
<g id="edge49" class="edge">
<title>fortio.org/sets&#45;&gt;fortio.org/assert</title>
<path fill="none" stroke="black" d="M604.97,-173.24C541.99,-158.77 432.42,-133.59 362.11,-117.44"/>
<polygon fill="black" stroke="black" points="363.18,-114.09 352.65,-115.27 361.62,-120.92 363.18,-114.09"/>
<text text-anchor="middle" x="509.93" y="-139" font-family="Helvetica,sans-Serif" font-size="10.00">v1.2.1</text>
</g>
<!-- fortio.org/slack&#45;proxy -->
<g id="node17" class="node">
<title>fortio.org/slack&#45;proxy</title>
<path fill="lightblue" stroke="black" d="M1148.62,-541.5C1148.62,-541.5 1031.38,-541.5 1031.38,-541.5 1025.38,-541.5 1019.38,-535.5 1019.38,-529.5 1019.38,-529.5 1019.38,-517.5 1019.38,-517.5 1019.38,-511.5 1025.38,-505.5 1031.38,-505.5 1031.38,-505.5 1148.62,-505.5 1148.62,-505.5 1154.62,-505.5 1160.62,-511.5 1160.62,-517.5 1160.62,-517.5 1160.62,-529.5 1160.62,-529.5 1160.62,-535.5 1154.62,-541.5 1148.62,-541.5"/>
<text text-anchor="middle" x="1090" y="-517.7" font-family="Helvetica,sans-Serif" font-size="14.00">fortio.org/slack&#45;proxy</text>
</g>
<!-- fortio.org/slack&#45;proxy&#45;&gt;fortio.org/assert -->
<g id="edge50" class="edge">
<title>fortio.org/slack&#45;proxy&#45;&gt;fortio.org/assert</title>
<path fill="none" stroke="black" d="M1018.98,-513.95C930.25,-502.9 773.91,-482.21 641,-458.25 525.95,-437.51 495.82,-436.34 384,-402.25 367.48,-397.21 104.71,-302.03 95,-287.75 60.1,-236.38 119.07,-166.1 156,-137.25 176.89,-120.93 204.42,-112.13 229.54,-107.41"/>
<polygon fill="black" stroke="black" points="230.1,-110.86 239.39,-105.76 228.95,-103.96 230.1,-110.86"/>
<text text-anchor="middle" x="168.78" y="-307.5" font-family="Helvetica,sans-Serif" font-size="10.00">v1.2.1</text>
</g>
<!-- fortio.org/slack&#45;proxy&#45;&gt;fortio.org/fortio -->
<g id="edge51" class="edge">
<title>fortio.org/slack&#45;proxy&#45;&gt;fortio.org/fortio</title>
<path fill="none" stroke="black" d="M1161.02,-514.41C1251.94,-504.28 1414.39,-486.97 1553.75,-476.25 1701.2,-464.91 1738.57,-469.78 1886,-458.25 1923.55,-455.31 1965.52,-451.06 1999.05,-447.43"/>
<polygon fill="black" stroke="black" points="1999.01,-450.95 2008.57,-446.38 1998.25,-443.99 1999.01,-450.95"/>
<text text-anchor="middle" x="1569.88" y="-478" font-family="Helvetica,sans-Serif" font-size="10.00">v1.69.1</text>
</g>
<!-- fortio.org/slack&#45;proxy&#45;&gt;fortio.org/log -->
<g id="edge52" class="edge">
<title>fortio.org/slack&#45;proxy&#45;&gt;fortio.org/log</title>
<path fill="none" stroke="black" d="M1070.24,-505.11C1048.86,-484.15 1020.2,-448.25 1039,-420.25 1060.68,-387.96 1337.05,-316.72 1363,-287.75 1409.41,-235.93 1356.53,-186.16 1406,-137.25 1424.75,-118.71 1452.33,-109.75 1477.09,-105.51"/>
<polygon fill="black" stroke="black" points="1477.34,-109.01 1486.72,-104.1 1476.32,-102.09 1477.34,-109.01"/>
<text text-anchor="middle" x="1346.25" y="-307.5" font-family="Helvetica,sans-Serif" font-size="10.00">v1.17.2</text>
</g>
<!-- fortio.org/slack&#45;proxy&#45;&gt;fortio.org/scli -->
<g id="edge53" class="edge">
<title>fortio.org/slack&#45;proxy&#45;&gt;fortio.org/scli</title>
<path fill="none" stroke="black" d="M1115.73,-505.13C1131.81,-495.11 1153.32,-483.16 1174,-476.25 1227.65,-458.32 1249.61,-483.95 1300,-458.25 1334.78,-440.51 1364.4,-405.89 1382.17,-381.65"/>
<polygon fill="black" stroke="black" points="1385.01,-383.7 1387.95,-373.53 1379.3,-379.65 1385.01,-383.7"/>
<text text-anchor="middle" x="1364.35" y="-435.38" font-family="Helvetica,sans-Serif" font-size="10.00">v1.16.1</text>
</g>
<!-- fortio.org/term -->
<g id="node19" class="node">
<title>fortio.org/term</title>
<path fill="steelblue" stroke="black" d="M3845.25,-204.5C3845.25,-204.5 3608.75,-204.5 3608.75,-204.5 3602.75,-204.5 3596.75,-198.5 3596.75,-192.5 3596.75,-192.5 3596.75,-178.5 3596.75,-178.5 3596.75,-172.5 3602.75,-166.5 3608.75,-166.5 3608.75,-166.5 3845.25,-166.5 3845.25,-166.5 3851.25,-166.5 3857.25,-172.5 3857.25,-178.5 3857.25,-178.5 3857.25,-192.5 3857.25,-192.5 3857.25,-198.5 3851.25,-204.5 3845.25,-204.5"/>
<text text-anchor="middle" x="3727" y="-187.2" font-family="Helvetica,sans-Serif" font-size="14.00">fortio/term</text>
<text text-anchor="middle" x="3727" y="-172.2" font-family="Helvetica,sans-Serif" font-size="14.00">(fortio.org/term fork of golang.org/x/term)</text>
</g>
<!-- fortio.org/terminal -->
<g id="node20" class="node">
<title>fortio.org/terminal</title>
<path fill="lightblue" stroke="black" d="M3597.88,-287.75C3597.88,-287.75 3500.12,-287.75 3500.12,-287.75 3494.12,-287.75 3488.12,-281.75 3488.12,-275.75 3488.12,-275.75 3488.12,-263.75 3488.12,-263.75 3488.12,-257.75 3494.12,-251.75 3500.12,-251.75 3500.12,-251.75 3597.88,-251.75 3597.88,-251.75 3603.88,-251.75 3609.88,-257.75 3609.88,-263.75 3609.88,-263.75 3609.88,-275.75 3609.88,-275.75 3609.88,-281.75 3603.88,-287.75 3597.88,-287.75"/>
<text text-anchor="middle" x="3549" y="-263.95" font-family="Helvetica,sans-Serif" font-size="14.00">fortio.org/terminal</text>
</g>
<!-- fortio.org/terminal&#45;&gt;fortio.org/cli -->
<g id="edge54" class="edge">
<title>fortio.org/terminal&#45;&gt;fortio.org/cli</title>
<path fill="none" stroke="black" d="M3488.07,-252.42C3445.08,-241.72 3385.96,-228.6 3333,-222.5 3177.5,-204.57 2788.1,-231.77 2615.45,-204.47"/>
<polygon fill="black" stroke="black" points="2616.08,-201.03 2605.64,-202.8 2614.91,-207.93 2616.08,-201.03"/>
<text text-anchor="middle" x="3415.05" y="-224.25" font-family="Helvetica,sans-Serif" font-size="10.00">v1.10.0</text>
</g>
<!-- fortio.org/terminal&#45;&gt;fortio.org/log -->
<g id="edge55" class="edge">
<title>fortio.org/terminal&#45;&gt;fortio.org/log</title>
<path fill="none" stroke="black" d="M3511.4,-251.34C3489.49,-241.74 3461.11,-230.24 3435,-222.5 3394.53,-210.51 3377.19,-227.42 3341.75,-204.5 3324.41,-193.28 3332.91,-176.79 3315,-166.5 3182.71,-90.52 3125.33,-145.61 2973,-137.25 2435.95,-107.78 1784.8,-103.12 1591.01,-102.39"/>
<polygon fill="black" stroke="black" points="1591.24,-98.89 1581.22,-102.35 1591.21,-105.89 1591.24,-98.89"/>
<text text-anchor="middle" x="3357.88" y="-181.62" font-family="Helvetica,sans-Serif" font-size="10.00">v1.17.2</text>
</g>
<!-- fortio.org/terminal&#45;&gt;fortio.org/safecast -->
<g id="edge56" class="edge">
<title>fortio.org/terminal&#45;&gt;fortio.org/safecast</title>
<path fill="none" stroke="black" d="M3542.21,-251.31C3538.06,-240.62 3532.64,-226.7 3527.89,-214.5"/>
<polygon fill="black" stroke="black" points="3531.21,-213.38 3524.33,-205.33 3524.69,-215.92 3531.21,-213.38"/>
<text text-anchor="middle" x="3548.42" y="-224.25" font-family="Helvetica,sans-Serif" font-size="10.00">v1.0.0</text>
</g>
<!-- fortio.org/terminal&#45;&gt;fortio.org/term -->
<g id="edge57" class="edge">
<title>fortio.org/terminal&#45;&gt;fortio.org/term</title>
<path fill="none" stroke="black" d="M3586.75,-251.31C3613.02,-239.17 3648.32,-222.86 3676.93,-209.63"/>
<polygon fill="black" stroke="black" points="3678.16,-212.92 3685.77,-205.55 3675.22,-206.57 3678.16,-212.92"/>
<text text-anchor="middle" x="3681.28" y="-224.25" font-family="Helvetica,sans-Serif" font-size="10.00">v0.29.0&#45;fortio&#45;1</text>
</g>
<!-- fortio.org/terminal/fps -->
<g id="node21" class="node">
<title>fortio.org/terminal/fps</title>
<path fill="lightblue" stroke="black" d="M3853.75,-541.5C3853.75,-541.5 3734.25,-541.5 3734.25,-541.5 3728.25,-541.5 3722.25,-535.5 3722.25,-529.5 3722.25,-529.5 3722.25,-517.5 3722.25,-517.5 3722.25,-511.5 3728.25,-505.5 3734.25,-505.5 3734.25,-505.5 3853.75,-505.5 3853.75,-505.5 3859.75,-505.5 3865.75,-511.5 3865.75,-517.5 3865.75,-517.5 3865.75,-529.5 3865.75,-529.5 3865.75,-535.5 3859.75,-541.5 3853.75,-541.5"/>
<text text-anchor="middle" x="3794" y="-517.7" font-family="Helvetica,sans-Serif" font-size="14.00">fortio.org/terminal/fps</text>
</g>
<!-- fortio.org/terminal/fps&#45;&gt;fortio.org/cli -->
<g id="edge58" class="edge">
<title>fortio.org/terminal/fps&#45;&gt;fortio.org/cli</title>
<path fill="none" stroke="black" d="M3721.88,-520.93C3562.86,-517.14 3191.89,-506.37 3138,-487.5 3055.38,-458.57 3040.45,-434.08 2977.75,-373 2950.93,-346.87 2952.63,-333.05 2927,-305.75 2888.11,-264.34 2882.41,-244.41 2830,-222.5 2744.03,-186.55 2710.22,-221.67 2615.42,-204.57"/>
<polygon fill="black" stroke="black" points="2616.16,-201.15 2605.67,-202.65 2614.8,-208.02 2616.16,-201.15"/>
<text text-anchor="middle" x="2993.88" y="-350.12" font-family="Helvetica,sans-Serif" font-size="10.00">v1.10.0</text>
</g>
<!-- fortio.org/terminal/fps&#45;&gt;fortio.org/fortio -->
<g id="edge59" class="edge">
<title>fortio.org/terminal/fps&#45;&gt;fortio.org/fortio</title>
<path fill="none" stroke="black" d="M3721.88,-519.3C3585.65,-513.25 3281.15,-499.62 3024.75,-487.5 2685.35,-471.45 2278.69,-451.14 2124.98,-443.42"/>
<polygon fill="black" stroke="black" points="2125.59,-439.95 2115.43,-442.94 2125.24,-446.94 2125.59,-439.95"/>
<text text-anchor="middle" x="3040.88" y="-478" font-family="Helvetica,sans-Serif" font-size="10.00">v1.69.1</text>
</g>
<!-- fortio.org/terminal/fps&#45;&gt;fortio.org/log -->
<g id="edge60" class="edge">
<title>fortio.org/terminal/fps&#45;&gt;fortio.org/log</title>
<path fill="none" stroke="black" d="M3865.79,-515.01C3911.05,-505.85 3961,-485.5 3961,-440.25 3961,-440.25 3961,-440.25 3961,-184.5 3961,-123.21 1957.42,-105.39 1591.13,-102.65"/>
<polygon fill="black" stroke="black" points="1591.32,-99.15 1581.29,-102.58 1591.27,-106.15 1591.32,-99.15"/>
<text text-anchor="middle" x="3977.12" y="-307.5" font-family="Helvetica,sans-Serif" font-size="10.00">v1.17.2</text>
</g>
<!-- fortio.org/terminal/fps&#45;&gt;fortio.org/safecast -->
<g id="edge61" class="edge">
<title>fortio.org/terminal/fps&#45;&gt;fortio.org/safecast</title>
<path fill="none" stroke="black" d="M3818.18,-505.15C3835.94,-490.2 3857,-466.87 3857,-440.25 3857,-440.25 3857,-440.25 3857,-268.75 3857,-247.27 3859.78,-235.9 3843,-222.5 3822.49,-206.13 3646.18,-208.49 3590.09,-204.1"/>
<polygon fill="black" stroke="black" points="3590.65,-200.64 3580.33,-203.03 3589.88,-207.6 3590.65,-200.64"/>
<text text-anchor="middle" x="3870.5" y="-350.12" font-family="Helvetica,sans-Serif" font-size="10.00">v1.0.0</text>
</g>
<!-- fortio.org/terminal/fps&#45;&gt;fortio.org/terminal -->
<g id="edge62" class="edge">
<title>fortio.org/terminal/fps&#45;&gt;fortio.org/terminal</title>
<path fill="none" stroke="black" d="M3794.63,-505.18C3794.97,-468.72 3790.53,-383.4 3745,-335 3713.09,-301.07 3663,-285.03 3621.45,-277.47"/>
<polygon fill="black" stroke="black" points="3622.19,-274.04 3611.75,-275.84 3621.04,-280.95 3622.19,-274.04"/>
<text text-anchor="middle" x="3797.16" y="-392.75" font-family="Helvetica,sans-Serif" font-size="10.00">v0.29.1</text>
</g>
<!-- github.com/bwmarrin/discordgo -->
<g id="node24" class="node">
<title>github.com/bwmarrin/discordgo</title>
<path fill="coral" stroke="black" d="M3428.62,-373C3428.62,-373 3197.38,-373 3197.38,-373 3191.38,-373 3185.38,-367 3185.38,-361 3185.38,-361 3185.38,-347 3185.38,-347 3185.38,-341 3191.38,-335 3197.38,-335 3197.38,-335 3428.62,-335 3428.62,-335 3434.62,-335 3440.62,-341 3440.62,-347 3440.62,-347 3440.62,-361 3440.62,-361 3440.62,-367 3434.62,-373 3428.62,-373"/>
<text text-anchor="middle" x="3313" y="-355.7" font-family="Helvetica,sans-Serif" font-size="14.00">ldemailly/discordgo</text>
<text text-anchor="middle" x="3313" y="-340.7" font-family="Helvetica,sans-Serif" font-size="14.00">(fork of github.com/bwmarrin/discordgo)</text>
</g>
<!-- github.com/fortio/delta -->
<g id="node25" class="node">
<title>github.com/fortio/delta</title>
<path fill="lightblue" stroke="black" d="M1721.75,-287.75C1721.75,-287.75 1596.25,-287.75 1596.25,-287.75 1590.25,-287.75 1584.25,-281.75 1584.25,-275.75 1584.25,-275.75 1584.25,-263.75 1584.25,-263.75 1584.25,-257.75 1590.25,-251.75 1596.25,-251.75 1596.25,-251.75 1721.75,-251.75 1721.75,-251.75 1727.75,-251.75 1733.75,-257.75 1733.75,-263.75 1733.75,-263.75 1733.75,-275.75 1733.75,-275.75 1733.75,-281.75 1727.75,-287.75 1721.75,-287.75"/>
<text text-anchor="middle" x="1659" y="-263.95" font-family="Helvetica,sans-Serif" font-size="14.00">github.com/fortio/delta</text>
</g>
<!-- github.com/fortio/delta&#45;&gt;fortio.org/cli -->
<g id="edge63" class="edge">
<title>github.com/fortio/delta&#45;&gt;fortio.org/cli</title>
<path fill="none" stroke="black" d="M1734.04,-253.2C1737.06,-252.69 1740.06,-252.2 1743,-251.75 2028.34,-207.95 2374.47,-192.61 2506.38,-188.11"/>
<polygon fill="black" stroke="black" points="2506.34,-191.62 2516.22,-187.79 2506.11,-184.62 2506.34,-191.62"/>
<text text-anchor="middle" x="1982.62" y="-224.25" font-family="Helvetica,sans-Serif" font-size="10.00">v1.10.0</text>
</g>
<!-- github.com/fortio/delta&#45;&gt;fortio.org/log -->
<g id="edge64" class="edge">
<title>github.com/fortio/delta&#45;&gt;fortio.org/log</title>
<path fill="none" stroke="black" d="M1646.09,-251.56C1624.2,-222.4 1579.64,-163.05 1553.79,-128.61"/>
<polygon fill="black" stroke="black" points="1556.74,-126.7 1547.93,-120.81 1551.14,-130.91 1556.74,-126.7"/>
<text text-anchor="middle" x="1625.05" y="-181.62" font-family="Helvetica,sans-Serif" font-size="10.00">v1.17.2</text>
</g>
<!-- github.com/fortio/delta&#45;&gt;fortio.org/sets -->
<g id="edge65" class="edge">
<title>github.com/fortio/delta&#45;&gt;fortio.org/sets</title>
<path fill="none" stroke="black" d="M1583.78,-254.11C1579.12,-253.29 1574.5,-252.49 1570,-251.75 1477.02,-236.41 1453.81,-231.41 1360,-222.5 1121.8,-199.88 836.94,-190.83 714.64,-187.81"/>
<polygon fill="black" stroke="black" points="714.92,-184.31 704.84,-187.57 714.75,-191.31 714.92,-184.31"/>
<text text-anchor="middle" x="1471.81" y="-224.25" font-family="Helvetica,sans-Serif" font-size="10.00">v1.2.0</text>
</g>
<!-- github.com/fortio/delta&#45;&gt;fortio.org/testscript -->
<g id="edge66" class="edge">
<title>github.com/fortio/delta&#45;&gt;fortio.org/testscript</title>
<path fill="none" stroke="black" d="M1734.01,-252.94C1737.04,-252.5 1740.04,-252.1 1743,-251.75 1964.71,-225.52 2022.32,-249.77 2245,-233.75 2291.37,-230.41 2302.69,-226.58 2349,-222.5 2462.6,-212.49 2493.89,-213.76 2610.37,-204.69"/>
<polygon fill="black" stroke="black" points="2610.33,-208.21 2620.03,-203.93 2609.78,-201.23 2610.33,-208.21"/>
<text text-anchor="middle" x="2362.5" y="-224.25" font-family="Helvetica,sans-Serif" font-size="10.00">v0.3.2</text>
</g>
<!-- github.com/fortio/h2cli -->
<g id="node26" class="node">
<title>github.com/fortio/h2cli</title>
<path fill="lightblue" stroke="black" d="M2492,-287.75C2492,-287.75 2368,-287.75 2368,-287.75 2362,-287.75 2356,-281.75 2356,-275.75 2356,-275.75 2356,-263.75 2356,-263.75 2356,-257.75 2362,-251.75 2368,-251.75 2368,-251.75 2492,-251.75 2492,-251.75 2498,-251.75 2504,-257.75 2504,-263.75 2504,-263.75 2504,-275.75 2504,-275.75 2504,-281.75 2498,-287.75 2492,-287.75"/>
<text text-anchor="middle" x="2430" y="-263.95" font-family="Helvetica,sans-Serif" font-size="14.00">github.com/fortio/h2cli</text>
</g>
<!-- github.com/fortio/h2cli&#45;&gt;fortio.org/cli -->
<g id="edge67" class="edge">
<title>github.com/fortio/h2cli&#45;&gt;fortio.org/cli</title>
<path fill="none" stroke="black" d="M2448.45,-251.47C2458.91,-242.2 2472.51,-230.97 2485.75,-222.5 2493.21,-217.72 2501.4,-213.17 2509.55,-209.02"/>
<polygon fill="black" stroke="black" points="2511.01,-212.2 2518.43,-204.64 2507.91,-205.92 2511.01,-212.2"/>
<text text-anchor="middle" x="2501.88" y="-224.25" font-family="Helvetica,sans-Serif" font-size="10.00">v1.10.0</text>
</g>
<!-- github.com/fortio/h2cli&#45;&gt;fortio.org/log -->
<g id="edge68" class="edge">
<title>github.com/fortio/h2cli&#45;&gt;fortio.org/log</title>
<path fill="none" stroke="black" d="M2355.86,-253.17C2352.87,-252.66 2349.91,-252.19 2347,-251.75 2266.19,-239.53 2240.5,-262.5 2164,-233.75 2115.92,-215.68 2117.81,-185.28 2070,-166.5 1983.78,-132.63 1711.15,-112.76 1591.38,-105.46"/>
<polygon fill="black" stroke="black" points="1591.64,-101.97 1581.44,-104.87 1591.22,-108.96 1591.64,-101.97"/>
<text text-anchor="middle" x="2136.88" y="-181.62" font-family="Helvetica,sans-Serif" font-size="10.00">v1.17.2</text>
</g>
<!-- github.com/fortio/h2demo -->
<g id="node27" class="node">
<title>github.com/fortio/h2demo</title>
<path fill="lightblue" stroke="black" d="M4536.88,-541.5C4536.88,-541.5 4391.12,-541.5 4391.12,-541.5 4385.12,-541.5 4379.12,-535.5 4379.12,-529.5 4379.12,-529.5 4379.12,-517.5 4379.12,-517.5 4379.12,-511.5 4385.12,-505.5 4391.12,-505.5 4391.12,-505.5 4536.88,-505.5 4536.88,-505.5 4542.88,-505.5 4548.88,-511.5 4548.88,-517.5 4548.88,-517.5 4548.88,-529.5 4548.88,-529.5 4548.88,-535.5 4542.88,-541.5 4536.88,-541.5"/>
<text text-anchor="middle" x="4464" y="-517.7" font-family="Helvetica,sans-Serif" font-size="14.00">github.com/fortio/h2demo</text>
</g>
<!-- github.com/fortio/logger&#45;bench -->
<g id="node28" class="node">
<title>github.com/fortio/logger&#45;bench</title>
<path fill="lightblue" stroke="black" d="M903.5,-457.25C903.5,-457.25 728.5,-457.25 728.5,-457.25 722.5,-457.25 716.5,-451.25 716.5,-445.25 716.5,-445.25 716.5,-433.25 716.5,-433.25 716.5,-427.25 722.5,-421.25 728.5,-421.25 728.5,-421.25 903.5,-421.25 903.5,-421.25 909.5,-421.25 915.5,-427.25 915.5,-433.25 915.5,-433.25 915.5,-445.25 915.5,-445.25 915.5,-451.25 909.5,-457.25 903.5,-457.25"/>
<text text-anchor="middle" x="816" y="-433.45" font-family="Helvetica,sans-Serif" font-size="14.00">github.com/fortio/logger&#45;bench</text>
</g>
<!-- github.com/fortio/logger&#45;bench&#45;&gt;fortio.org/cli -->
<g id="edge69" class="edge">
<title>github.com/fortio/logger&#45;bench&#45;&gt;fortio.org/cli</title>
<path fill="none" stroke="black" d="M888.11,-420.84C924.69,-410.2 968.89,-394.45 1005,-373 1043.14,-350.35 1037.49,-322.04 1078.75,-305.75 1152.87,-276.49 2445.93,-330.77 2513,-287.75 2538.05,-271.68 2550.3,-238.67 2556.1,-214.69"/>
<polygon fill="black" stroke="black" points="2559.46,-215.76 2558.15,-205.24 2552.61,-214.28 2559.46,-215.76"/>
<text text-anchor="middle" x="1094.88" y="-307.5" font-family="Helvetica,sans-Serif" font-size="10.00">v1.10.0</text>
</g>
<!-- github.com/fortio/logger&#45;bench&#45;&gt;fortio.org/log -->
<g id="edge70" class="edge">
<title>github.com/fortio/logger&#45;bench&#45;&gt;fortio.org/log</title>
<path fill="none" stroke="black" d="M835.28,-420.94C847.23,-408.85 861.5,-391.6 868,-373 885.88,-321.87 842.94,-304.38 855.75,-251.75 869.3,-196.08 866.91,-168.41 915,-137.25 961.45,-107.16 1332.83,-102.83 1477.04,-102.29"/>
<polygon fill="black" stroke="black" points="1476.74,-105.79 1486.73,-102.26 1476.72,-98.79 1476.74,-105.79"/>
<text text-anchor="middle" x="871.88" y="-265.88" font-family="Helvetica,sans-Serif" font-size="10.00">v1.17.2</text>
</g>
<!-- github.com/fortio/logger&#45;bench&#45;&gt;fortio.org/scli -->
<g id="edge71" class="edge">
<title>github.com/fortio/logger&#45;bench&#45;&gt;fortio.org/scli</title>
<path fill="none" stroke="black" d="M915.73,-424.03C1038.41,-406.54 1242.61,-377.44 1342.04,-363.26"/>
<polygon fill="black" stroke="black" points="1342.44,-366.74 1351.85,-361.86 1341.46,-359.81 1342.44,-366.74"/>
<text text-anchor="middle" x="1159.09" y="-392.75" font-family="Helvetica,sans-Serif" font-size="10.00">v1.16.1</text>
</g>
<!-- github.com/fortio/logger&#45;bench&#45;&gt;fortio.org/sets -->
<g id="edge72" class="edge">
<title>github.com/fortio/logger&#45;bench&#45;&gt;fortio.org/sets</title>
<path fill="none" stroke="black" d="M752.22,-420.83C728.41,-410.89 703.83,-395.73 690,-373 661.93,-326.86 713.79,-303.4 698,-251.75 693.69,-237.66 685.21,-223.87 676.83,-212.62"/>
<polygon fill="black" stroke="black" points="679.78,-210.71 670.85,-205.01 674.28,-215.03 679.78,-210.71"/>
<text text-anchor="middle" x="706.39" y="-307.5" font-family="Helvetica,sans-Serif" font-size="10.00">v1.3.0</text>
</g>
<!-- go.uber.org/zap -->
<g id="node42" class="node">
<title>go.uber.org/zap</title>
<path fill="coral" stroke="black" d="M847.38,-373C847.38,-373 710.62,-373 710.62,-373 704.62,-373 698.62,-367 698.62,-361 698.62,-361 698.62,-347 698.62,-347 698.62,-341 704.62,-335 710.62,-335 710.62,-335 847.38,-335 847.38,-335 853.38,-335 859.38,-341 859.38,-347 859.38,-347 859.38,-361 859.38,-361 859.38,-367 853.38,-373 847.38,-373"/>
<text text-anchor="middle" x="779" y="-355.7" font-family="Helvetica,sans-Serif" font-size="14.00">ldemailly/zap</text>
<text text-anchor="middle" x="779" y="-340.7" font-family="Helvetica,sans-Serif" font-size="14.00">(fork of go.uber.org/zap)</text>
</g>
<!-- github.com/fortio/logger&#45;bench&#45;&gt;go.uber.org/zap -->
<g id="edge73" class="edge">
<title>github.com/fortio/logger&#45;bench&#45;&gt;go.uber.org/zap</title>
<path fill="none" stroke="black" d="M808.33,-421C803.55,-410.24 797.28,-396.14 791.77,-383.72"/>
<polygon fill="black" stroke="black" points="795.04,-382.48 787.78,-374.77 788.65,-385.33 795.04,-382.48"/>
<text text-anchor="middle" x="815.84" y="-392.75" font-family="Helvetica,sans-Serif" font-size="10.00">v1.27.0</text>
</g>
<!-- github.com/fortio/semtest/v2 -->
<g id="node29" class="node">
<title>github.com/fortio/semtest/v2</title>
<path fill="lightblue" stroke="black" d="M2686.12,-541.5C2686.12,-541.5 2523.88,-541.5 2523.88,-541.5 2517.88,-541.5 2511.88,-535.5 2511.88,-529.5 2511.88,-529.5 2511.88,-517.5 2511.88,-517.5 2511.88,-511.5 2517.88,-505.5 2523.88,-505.5 2523.88,-505.5 2686.12,-505.5 2686.12,-505.5 2692.12,-505.5 2698.12,-511.5 2698.12,-517.5 2698.12,-517.5 2698.12,-529.5 2698.12,-529.5 2698.12,-535.5 2692.12,-541.5 2686.12,-541.5"/>
<text text-anchor="middle" x="2605" y="-517.7" font-family="Helvetica,sans-Serif" font-size="14.00">github.com/fortio/semtest/v2</text>
</g>
<!-- github.com/fortio/semtest/v2&#45;&gt;fortio.org/fortio -->
<g id="edge74" class="edge">
<title>github.com/fortio/semtest/v2&#45;&gt;fortio.org/fortio</title>
<path fill="none" stroke="black" d="M2511.65,-508.36C2401.22,-491.63 2220.38,-464.24 2125.17,-449.82"/>
<polygon fill="black" stroke="black" points="2125.91,-446.39 2115.49,-448.35 2124.86,-453.31 2125.91,-446.39"/>
<text text-anchor="middle" x="2382.14" y="-478" font-family="Helvetica,sans-Serif" font-size="10.00">v1.35.0</text>
</g>
<!-- github.com/fortio/workflows -->
<g id="node30" class="node">
<title>github.com/fortio/workflows</title>
<path fill="lightblue" stroke="black" d="M1215.75,-457.25C1215.75,-457.25 1060.25,-457.25 1060.25,-457.25 1054.25,-457.25 1048.25,-451.25 1048.25,-445.25 1048.25,-445.25 1048.25,-433.25 1048.25,-433.25 1048.25,-427.25 1054.25,-421.25 1060.25,-421.25 1060.25,-421.25 1215.75,-421.25 1215.75,-421.25 1221.75,-421.25 1227.75,-427.25 1227.75,-433.25 1227.75,-433.25 1227.75,-445.25 1227.75,-445.25 1227.75,-451.25 1221.75,-457.25 1215.75,-457.25"/>
<text text-anchor="middle" x="1138" y="-433.45" font-family="Helvetica,sans-Serif" font-size="14.00">github.com/fortio/workflows</text>
</g>
<!-- github.com/fortio/workflows&#45;&gt;fortio.org/log -->
<g id="edge75" class="edge">
<title>github.com/fortio/workflows&#45;&gt;fortio.org/log</title>
<path fill="none" stroke="black" d="M1130.33,-420.96C1120.26,-399.42 1101.13,-362.14 1078,-335 1057.04,-310.41 1036.06,-317.19 1022.75,-287.75 1016.16,-273.17 1014.48,-265.44 1022.75,-251.75 1043.81,-216.89 1147.52,-182.45 1185,-166.5 1222.92,-150.36 1232.84,-146.53 1273,-137.25 1342.3,-121.23 1423.77,-111.76 1477.02,-106.79"/>
<polygon fill="black" stroke="black" points="1477.12,-110.29 1486.76,-105.9 1476.49,-103.32 1477.12,-110.29"/>
<text text-anchor="middle" x="1038.88" y="-265.88" font-family="Helvetica,sans-Serif" font-size="10.00">v1.17.2</text>
</g>
<!-- github.com/fortio/workflows&#45;&gt;fortio.org/scli -->
<g id="edge76" class="edge">
<title>github.com/fortio/workflows&#45;&gt;fortio.org/scli</title>
<path fill="none" stroke="black" d="M1162.39,-420.84C1177.63,-410.72 1198.06,-398.52 1217.75,-391 1229.38,-386.55 1293.33,-374.37 1342.23,-365.4"/>
<polygon fill="black" stroke="black" points="1342.65,-368.88 1351.86,-363.64 1341.39,-361.99 1342.65,-368.88"/>
<text text-anchor="middle" x="1233.88" y="-392.75" font-family="Helvetica,sans-Serif" font-size="10.00">v1.16.0</text>
</g>
<!-- github.com/ldemailly/advent24 -->
<g id="node31" class="node">
<title>github.com/ldemailly/advent24</title>
<path fill="lightsalmon" stroke="black" d="M677.5,-287.75C677.5,-287.75 502.5,-287.75 502.5,-287.75 496.5,-287.75 490.5,-281.75 490.5,-275.75 490.5,-275.75 490.5,-263.75 490.5,-263.75 490.5,-257.75 496.5,-251.75 502.5,-251.75 502.5,-251.75 677.5,-251.75 677.5,-251.75 683.5,-251.75 689.5,-257.75 689.5,-263.75 689.5,-263.75 689.5,-275.75 689.5,-275.75 689.5,-281.75 683.5,-287.75 677.5,-287.75"/>
<text text-anchor="middle" x="590" y="-263.95" font-family="Helvetica,sans-Serif" font-size="14.00">github.com/ldemailly/advent24</text>
</g>
<!-- github.com/ldemailly/advent24&#45;&gt;fortio.org/sets -->
<g id="edge77" class="edge">
<title>github.com/ldemailly/advent24&#45;&gt;fortio.org/sets</title>
<path fill="none" stroke="black" d="M603.57,-251.31C612.31,-240.07 623.83,-225.27 633.66,-212.64"/>
<polygon fill="black" stroke="black" points="636.14,-215.15 639.52,-205.11 630.61,-210.86 636.14,-215.15"/>
<text text-anchor="middle" x="639.33" y="-224.25" font-family="Helvetica,sans-Serif" font-size="10.00">v1.2.0</text>
</g>
<!-- github.com/ldemailly/depgraph -->
<g id="node32" class="node">
<title>github.com/ldemailly/depgraph</title>
<path fill="lightsalmon" stroke="black" d="M2326.25,-287.75C2326.25,-287.75 2149.75,-287.75 2149.75,-287.75 2143.75,-287.75 2137.75,-281.75 2137.75,-275.75 2137.75,-275.75 2137.75,-263.75 2137.75,-263.75 2137.75,-257.75 2143.75,-251.75 2149.75,-251.75 2149.75,-251.75 2326.25,-251.75 2326.25,-251.75 2332.25,-251.75 2338.25,-257.75 2338.25,-263.75 2338.25,-263.75 2338.25,-275.75 2338.25,-275.75 2338.25,-281.75 2332.25,-287.75 2326.25,-287.75"/>
<text text-anchor="middle" x="2238" y="-263.95" font-family="Helvetica,sans-Serif" font-size="14.00">github.com/ldemailly/depgraph</text>
</g>
<!-- github.com/ldemailly/depgraph&#45;&gt;fortio.org/cli -->
<g id="edge78" class="edge">
<title>github.com/ldemailly/depgraph&#45;&gt;fortio.org/cli</title>
<path fill="none" stroke="black" d="M2306.5,-251.31C2366.27,-236.09 2451.82,-214.3 2506.9,-200.28"/>
<polygon fill="black" stroke="black" points="2507.53,-203.73 2516.36,-197.87 2505.81,-196.94 2507.53,-203.73"/>
<text text-anchor="middle" x="2434.96" y="-224.25" font-family="Helvetica,sans-Serif" font-size="10.00">v1.10.0</text>
</g>
<!-- github.com/ldemailly/depgraph&#45;&gt;fortio.org/log -->
<g id="edge79" class="edge">
<title>github.com/ldemailly/depgraph&#45;&gt;fortio.org/log</title>
<path fill="none" stroke="black" d="M2167.78,-251.27C2148.3,-246.04 2127.22,-240.01 2108,-233.75 2028.78,-207.94 2013.45,-188.18 1933,-166.5 1813.38,-134.26 1668.96,-115.93 1590.86,-107.66"/>
<polygon fill="black" stroke="black" points="1591.64,-104.22 1581.33,-106.67 1590.91,-111.18 1591.64,-104.22"/>
<text text-anchor="middle" x="2049.85" y="-181.62" font-family="Helvetica,sans-Serif" font-size="10.00">v1.17.2</text>
</g>
<!-- github.com/ldemailly/go&#45;scratch -->
<g id="node33" class="node">
<title>github.com/ldemailly/go&#45;scratch</title>
<path fill="lightsalmon" stroke="black" d="M1749.25,-541.5C1749.25,-541.5 1566.75,-541.5 1566.75,-541.5 1560.75,-541.5 1554.75,-535.5 1554.75,-529.5 1554.75,-529.5 1554.75,-517.5 1554.75,-517.5 1554.75,-511.5 1560.75,-505.5 1566.75,-505.5 1566.75,-505.5 1749.25,-505.5 1749.25,-505.5 1755.25,-505.5 1761.25,-511.5 1761.25,-517.5 1761.25,-517.5 1761.25,-529.5 1761.25,-529.5 1761.25,-535.5 1755.25,-541.5 1749.25,-541.5"/>
<text text-anchor="middle" x="1658" y="-517.7" font-family="Helvetica,sans-Serif" font-size="14.00">github.com/ldemailly/go&#45;scratch</text>
</g>
<!-- github.com/ldemailly/go&#45;scratch&#45;&gt;fortio.org/cli -->
<g id="edge80" class="edge">
<title>github.com/ldemailly/go&#45;scratch&#45;&gt;fortio.org/cli</title>
<path fill="none" stroke="black" d="M1761.4,-519.68C2009.36,-510.46 2626.1,-472.08 2745,-317 2770.56,-283.67 2775.22,-252.68 2746,-222.5 2727.12,-203 2656.47,-209.81 2615.43,-204.23"/>
<polygon fill="black" stroke="black" points="2616.18,-200.81 2605.71,-202.45 2614.92,-207.7 2616.18,-200.81"/>
<text text-anchor="middle" x="2739.79" y="-350.12" font-family="Helvetica,sans-Serif" font-size="10.00">v1.4.2</text>
</g>
<!-- github.com/ldemailly/go&#45;scratch&#45;&gt;fortio.org/fortio -->
<g id="edge81" class="edge">
<title>github.com/ldemailly/go&#45;scratch&#45;&gt;fortio.org/fortio</title>
<path fill="none" stroke="black" d="M1743.68,-505.06C1820.14,-489.49 1930.34,-467.06 1998.98,-453.08"/>
<polygon fill="black" stroke="black" points="1999.46,-456.55 2008.56,-451.13 1998.06,-449.7 1999.46,-456.55"/>
<text text-anchor="middle" x="1900.31" y="-478" font-family="Helvetica,sans-Serif" font-size="10.00">v1.60.3</text>
</g>
<!-- github.com/ldemailly/go&#45;scratch&#45;&gt;fortio.org/log -->
<g id="edge82" class="edge">
<title>github.com/ldemailly/go&#45;scratch&#45;&gt;fortio.org/log</title>
<path fill="none" stroke="black" d="M1561.67,-505.03C1503.71,-495.14 1428.33,-483.36 1361,-476.25 1325.36,-472.49 1066.89,-480.75 1039,-458.25 994.77,-422.58 1020.51,-389.67 1005,-335 1002.73,-326.98 1000.93,-325.25 999.75,-317 988.75,-240.02 1021.72,-205.5 1089,-166.5 1153.85,-128.91 1371.84,-111.56 1476.71,-105.24"/>
<polygon fill="black" stroke="black" points="1476.72,-108.74 1486.5,-104.66 1476.31,-101.75 1476.72,-108.74"/>
<text text-anchor="middle" x="1015.88" y="-307.5" font-family="Helvetica,sans-Serif" font-size="10.00">v1.11.0</text>
</g>
<!-- github.com/ldemailly/go&#45;scratch&#45;&gt;fortio.org/scli -->
<g id="edge83" class="edge">
<title>github.com/ldemailly/go&#45;scratch&#45;&gt;fortio.org/scli</title>
<path fill="none" stroke="black" d="M1658.37,-505.15C1657.87,-482.53 1653.52,-443.16 1631,-420.25 1585.64,-374.11 1510.34,-359.94 1458.09,-355.92"/>
<polygon fill="black" stroke="black" points="1458.37,-352.44 1448.17,-355.28 1457.92,-359.42 1458.37,-352.44"/>
<text text-anchor="middle" x="1667.49" y="-435.38" font-family="Helvetica,sans-Serif" font-size="10.00">v1.12.0</text>
</g>
<!-- golang.org/x/term -->
<g id="node43" class="node">
<title>golang.org/x/term</title>
<path fill="coral" stroke="black" d="M1610,-458.25C1610,-458.25 1462,-458.25 1462,-458.25 1456,-458.25 1450,-452.25 1450,-446.25 1450,-446.25 1450,-432.25 1450,-432.25 1450,-426.25 1456,-420.25 1462,-420.25 1462,-420.25 1610,-420.25 1610,-420.25 1616,-420.25 1622,-426.25 1622,-432.25 1622,-432.25 1622,-446.25 1622,-446.25 1622,-452.25 1616,-458.25 1610,-458.25"/>
<text text-anchor="middle" x="1536" y="-440.95" font-family="Helvetica,sans-Serif" font-size="14.00">ldemailly/term</text>
<text text-anchor="middle" x="1536" y="-425.95" font-family="Helvetica,sans-Serif" font-size="14.00">(fork of golang.org/x/term)</text>
</g>
<!-- github.com/ldemailly/go&#45;scratch&#45;&gt;golang.org/x/term -->
<g id="edge84" class="edge">
<title>github.com/ldemailly/go&#45;scratch&#45;&gt;golang.org/x/term</title>
<path fill="none" stroke="black" d="M1632.13,-505.06C1614.77,-493.36 1591.67,-477.78 1572.46,-464.83"/>
<polygon fill="black" stroke="black" points="1574.61,-462.06 1564.36,-459.37 1570.69,-467.86 1574.61,-462.06"/>
<text text-anchor="middle" x="1620.43" y="-478" font-family="Helvetica,sans-Serif" font-size="10.00">v0.18.0</text>
</g>
<!-- github.com/ldemailly/gohook_sample -->
<g id="node34" class="node">
<title>github.com/ldemailly/gohook_sample</title>
<path fill="lightsalmon" stroke="black" d="M4160.75,-541.5C4160.75,-541.5 3945.25,-541.5 3945.25,-541.5 3939.25,-541.5 3933.25,-535.5 3933.25,-529.5 3933.25,-529.5 3933.25,-517.5 3933.25,-517.5 3933.25,-511.5 3939.25,-505.5 3945.25,-505.5 3945.25,-505.5 4160.75,-505.5 4160.75,-505.5 4166.75,-505.5 4172.75,-511.5 4172.75,-517.5 4172.75,-517.5 4172.75,-529.5 4172.75,-529.5 4172.75,-535.5 4166.75,-541.5 4160.75,-541.5"/>
<text text-anchor="middle" x="4053" y="-517.7" font-family="Helvetica,sans-Serif" font-size="14.00">github.com/ldemailly/gohook_sample</text>
</g>
<!-- github.com/ldemailly/gohook_sample&#45;&gt;fortio.org/fortio -->
<g id="edge85" class="edge">
<title>github.com/ldemailly/gohook_sample&#45;&gt;fortio.org/fortio</title>
<path fill="none" stroke="black" d="M3932.91,-510.05C3913.57,-508.33 3893.74,-506.73 3875,-505.5 3786.03,-499.66 2435.7,-453.09 2125.28,-442.42"/>
<polygon fill="black" stroke="black" points="2125.46,-438.93 2115.34,-442.08 2125.22,-445.92 2125.46,-438.93"/>
<text text-anchor="middle" x="3408.34" y="-478" font-family="Helvetica,sans-Serif" font-size="10.00">v1.21.1</text>
</g>
<!-- github.com/robotn/gohook -->
<g id="node40" class="node">
<title>github.com/robotn/gohook</title>
<path fill="coral" stroke="black" d="M4200.5,-458.25C4200.5,-458.25 4001.5,-458.25 4001.5,-458.25 3995.5,-458.25 3989.5,-452.25 3989.5,-446.25 3989.5,-446.25 3989.5,-432.25 3989.5,-432.25 3989.5,-426.25 3995.5,-420.25 4001.5,-420.25 4001.5,-420.25 4200.5,-420.25 4200.5,-420.25 4206.5,-420.25 4212.5,-426.25 4212.5,-432.25 4212.5,-432.25 4212.5,-446.25 4212.5,-446.25 4212.5,-452.25 4206.5,-458.25 4200.5,-458.25"/>
<text text-anchor="middle" x="4101" y="-440.95" font-family="Helvetica,sans-Serif" font-size="14.00">ldemailly/gohook</text>
<text text-anchor="middle" x="4101" y="-425.95" font-family="Helvetica,sans-Serif" font-size="14.00">(fork of github.com/robotn/gohook)</text>
</g>
<!-- github.com/ldemailly/gohook_sample&#45;&gt;github.com/robotn/gohook -->
<g id="edge86" class="edge">
<title>github.com/ldemailly/gohook_sample&#45;&gt;github.com/robotn/gohook</title>
<path fill="none" stroke="black" d="M4063.18,-505.06C4069.41,-494.37 4077.54,-480.45 4084.66,-468.26"/>
<polygon fill="black" stroke="black" points="4087.56,-470.23 4089.57,-459.83 4081.51,-466.7 4087.56,-470.23"/>
<text text-anchor="middle" x="4096" y="-478" font-family="Helvetica,sans-Serif" font-size="10.00">v0.31.3</text>
</g>
<!-- github.com/ldemailly/lll&#45;fixer -->
<g id="node35" class="node">
<title>github.com/ldemailly/lll&#45;fixer</title>
<path fill="lightsalmon" stroke="black" d="M1922.25,-287.75C1922.25,-287.75 1763.75,-287.75 1763.75,-287.75 1757.75,-287.75 1751.75,-281.75 1751.75,-275.75 1751.75,-275.75 1751.75,-263.75 1751.75,-263.75 1751.75,-257.75 1757.75,-251.75 1763.75,-251.75 1763.75,-251.75 1922.25,-251.75 1922.25,-251.75 1928.25,-251.75 1934.25,-257.75 1934.25,-263.75 1934.25,-263.75 1934.25,-275.75 1934.25,-275.75 1934.25,-281.75 1928.25,-287.75 1922.25,-287.75"/>
<text text-anchor="middle" x="1843" y="-263.95" font-family="Helvetica,sans-Serif" font-size="14.00">github.com/ldemailly/lll&#45;fixer</text>
</g>
<!-- github.com/ldemailly/lll&#45;fixer&#45;&gt;fortio.org/cli -->
<g id="edge87" class="edge">
<title>github.com/ldemailly/lll&#45;fixer&#45;&gt;fortio.org/cli</title>
<path fill="none" stroke="black" d="M1934.65,-253.26C1937.8,-252.75 1940.93,-252.24 1944,-251.75 2029.67,-238.05 2050.84,-232.68 2137,-222.5 2269.34,-206.87 2425.69,-195.39 2506.51,-189.98"/>
<polygon fill="black" stroke="black" points="2506.62,-193.48 2516.36,-189.32 2506.15,-186.49 2506.62,-193.48"/>
<text text-anchor="middle" x="2150.5" y="-224.25" font-family="Helvetica,sans-Serif" font-size="10.00">v1.9.0</text>
</g>
<!-- github.com/ldemailly/lll&#45;fixer&#45;&gt;fortio.org/log -->
<g id="edge88" class="edge">
<title>github.com/ldemailly/lll&#45;fixer&#45;&gt;fortio.org/log</title>
<path fill="none" stroke="black" d="M1829.29,-251.34C1821.22,-241.92 1810.38,-230.59 1799,-222.5 1733.38,-175.84 1646.76,-140.67 1590.71,-120.77"/>
<polygon fill="black" stroke="black" points="1591.95,-117.49 1581.36,-117.49 1589.64,-124.1 1591.95,-117.49"/>
<text text-anchor="middle" x="1785.88" y="-181.62" font-family="Helvetica,sans-Serif" font-size="10.00">v1.16.0</text>
</g>
<!-- github.com/ldemailly/panic&#45;linter -->
<g id="node36" class="node">
<title>github.com/ldemailly/panic&#45;linter</title>
<path fill="lightsalmon" stroke="black" d="M301.75,-287.75C301.75,-287.75 116.25,-287.75 116.25,-287.75 110.25,-287.75 104.25,-281.75 104.25,-275.75 104.25,-275.75 104.25,-263.75 104.25,-263.75 104.25,-257.75 110.25,-251.75 116.25,-251.75 116.25,-251.75 301.75,-251.75 301.75,-251.75 307.75,-251.75 313.75,-257.75 313.75,-263.75 313.75,-263.75 313.75,-275.75 313.75,-275.75 313.75,-281.75 307.75,-287.75 301.75,-287.75"/>
<text text-anchor="middle" x="209" y="-263.95" font-family="Helvetica,sans-Serif" font-size="14.00">github.com/ldemailly/panic&#45;linter</text>
</g>
<!-- github.com/ldemailly/panic&#45;linter&#45;&gt;fortio.org/sets -->
<g id="edge89" class="edge">
<title>github.com/ldemailly/panic&#45;linter&#45;&gt;fortio.org/sets</title>
<path fill="none" stroke="black" d="M236.9,-251.36C254.59,-241.2 278.35,-229.11 301,-222.5 400.58,-193.46 521.87,-187.05 593.24,-186.06"/>
<polygon fill="black" stroke="black" points="593.21,-189.56 603.17,-185.96 593.13,-182.56 593.21,-189.56"/>
<text text-anchor="middle" x="314.5" y="-224.25" font-family="Helvetica,sans-Serif" font-size="10.00">v1.2.0</text>
</g>
<!-- github.com/ldemailly/quartiles -->
<g id="node37" class="node">
<title>github.com/ldemailly/quartiles</title>
<path fill="lightsalmon" stroke="black" d="M1342.25,-287.75C1342.25,-287.75 1171.75,-287.75 1171.75,-287.75 1165.75,-287.75 1159.75,-281.75 1159.75,-275.75 1159.75,-275.75 1159.75,-263.75 1159.75,-263.75 1159.75,-257.75 1165.75,-251.75 1171.75,-251.75 1171.75,-251.75 1342.25,-251.75 1342.25,-251.75 1348.25,-251.75 1354.25,-257.75 1354.25,-263.75 1354.25,-263.75 1354.25,-275.75 1354.25,-275.75 1354.25,-281.75 1348.25,-287.75 1342.25,-287.75"/>
<text text-anchor="middle" x="1257" y="-263.95" font-family="Helvetica,sans-Serif" font-size="14.00">github.com/ldemailly/quartiles</text>
</g>
<!-- github.com/ldemailly/quartiles&#45;&gt;fortio.org/cli -->
<g id="edge90" class="edge">
<title>github.com/ldemailly/quartiles&#45;&gt;fortio.org/cli</title>
<path fill="none" stroke="black" d="M1275.51,-251.46C1288.07,-240.91 1305.65,-228.37 1323.75,-222.5 1367.84,-208.19 2111.67,-206.03 2158,-204.5 2282.67,-200.37 2428.93,-193.27 2506.4,-189.34"/>
<polygon fill="black" stroke="black" points="2506.45,-192.84 2516.26,-188.84 2506.1,-185.85 2506.45,-192.84"/>
<text text-anchor="middle" x="1339.88" y="-224.25" font-family="Helvetica,sans-Serif" font-size="10.00">v1.10.0</text>
</g>
<!-- github.com/ldemailly/quartiles&#45;&gt;fortio.org/log -->
<g id="edge91" class="edge">
<title>github.com/ldemailly/quartiles&#45;&gt;fortio.org/log</title>
<path fill="none" stroke="black" d="M1265.75,-251.25C1281.56,-221.74 1317.98,-162.8 1368,-137.25 1401.79,-119.99 1443.6,-111.24 1476.81,-106.8"/>
<polygon fill="black" stroke="black" points="1477.17,-110.29 1486.67,-105.59 1476.32,-103.34 1477.17,-110.29"/>
<text text-anchor="middle" x="1342.65" y="-181.62" font-family="Helvetica,sans-Serif" font-size="10.00">v1.17.2</text>
</g>
<!-- github.com/ldemailly/quartiles&#45;&gt;fortio.org/sets -->
<g id="edge92" class="edge">
<title>github.com/ldemailly/quartiles&#45;&gt;fortio.org/sets</title>
<path fill="none" stroke="black" d="M1159.45,-255.44C1033.67,-238.29 818.73,-208.97 714.39,-194.74"/>
<polygon fill="black" stroke="black" points="715.01,-191.29 704.63,-193.41 714.06,-198.23 715.01,-191.29"/>
<text text-anchor="middle" x="1005.1" y="-224.25" font-family="Helvetica,sans-Serif" font-size="10.00">v1.3.0</text>
</g>
<!-- github.com/ldemailly/rate -->
<g id="node38" class="node">
<title>github.com/ldemailly/rate</title>
<path fill="lightsalmon" stroke="black" d="M2107.38,-287.75C2107.38,-287.75 1964.62,-287.75 1964.62,-287.75 1958.62,-287.75 1952.62,-281.75 1952.62,-275.75 1952.62,-275.75 1952.62,-263.75 1952.62,-263.75 1952.62,-257.75 1958.62,-251.75 1964.62,-251.75 1964.62,-251.75 2107.38,-251.75 2107.38,-251.75 2113.38,-251.75 2119.38,-257.75 2119.38,-263.75 2119.38,-263.75 2119.38,-275.75 2119.38,-275.75 2119.38,-281.75 2113.38,-287.75 2107.38,-287.75"/>
<text text-anchor="middle" x="2036" y="-263.95" font-family="Helvetica,sans-Serif" font-size="14.00">github.com/ldemailly/rate</text>
</g>
<!-- github.com/ldemailly/rate&#45;&gt;fortio.org/cli -->
<g id="edge93" class="edge">
<title>github.com/ldemailly/rate&#45;&gt;fortio.org/cli</title>
<path fill="none" stroke="black" d="M2095.37,-251.35C2130.71,-241.58 2176.6,-229.89 2218,-222.5 2318.99,-204.47 2438.44,-194.45 2506.41,-189.79"/>
<polygon fill="black" stroke="black" points="2506.42,-193.3 2516.16,-189.14 2505.95,-186.31 2506.42,-193.3"/>
<text text-anchor="middle" x="2231.5" y="-224.25" font-family="Helvetica,sans-Serif" font-size="10.00">v1.2.0</text>
</g>
<!-- github.com/ldemailly/rate&#45;&gt;fortio.org/log -->
<g id="edge94" class="edge">
<title>github.com/ldemailly/rate&#45;&gt;fortio.org/log</title>
<path fill="none" stroke="black" d="M2002.12,-251.28C1957.95,-229.08 1877.84,-190.72 1806,-166.5 1733.3,-141.99 1646.65,-123.25 1591.01,-112.5"/>
<polygon fill="black" stroke="black" points="1591.93,-109.11 1581.45,-110.68 1590.62,-115.99 1591.93,-109.11"/>
<text text-anchor="middle" x="1915.93" y="-181.62" font-family="Helvetica,sans-Serif" font-size="10.00">v1.6.0</text>
</g>
<!-- gitlab.com/ldemailly/go&#45;flag&#45;bug -->
<g id="node41" class="node">
<title>gitlab.com/ldemailly/go&#45;flag&#45;bug</title>
<path fill="lightsalmon" stroke="black" d="M4762.62,-541.5C4762.62,-541.5 4579.38,-541.5 4579.38,-541.5 4573.38,-541.5 4567.38,-535.5 4567.38,-529.5 4567.38,-529.5 4567.38,-517.5 4567.38,-517.5 4567.38,-511.5 4573.38,-505.5 4579.38,-505.5 4579.38,-505.5 4762.62,-505.5 4762.62,-505.5 4768.62,-505.5 4774.62,-511.5 4774.62,-517.5 4774.62,-517.5 4774.62,-529.5 4774.62,-529.5 4774.62,-535.5 4768.62,-541.5 4762.62,-541.5"/>
<text text-anchor="middle" x="4671" y="-517.7" font-family="Helvetica,sans-Serif" font-size="14.00">gitlab.com/ldemailly/go&#45;flag&#45;bug</text>
</g>
<!-- grol.io/grol&#45;&gt;fortio.org/cli -->
<g id="edge95" class="edge">
<title>grol.io/grol&#45;&gt;fortio.org/cli</title>
<path fill="none" stroke="black" d="M3458.2,-337.02C3455.45,-336.25 3452.7,-335.56 3450,-335 3290.95,-302.09 3241,-362.21 3085,-317 3003.09,-293.26 2999.79,-246.64 2918,-222.5 2791.19,-185.08 2748.44,-228.54 2615.19,-204.54"/>
<polygon fill="black" stroke="black" points="2616.13,-201.15 2605.65,-202.72 2614.82,-208.03 2616.13,-201.15"/>
<text text-anchor="middle" x="3039.6" y="-265.88" font-family="Helvetica,sans-Serif" font-size="10.00">v1.10.0</text>
</g>
<!-- grol.io/grol&#45;&gt;fortio.org/log -->
<g id="edge96" class="edge">
<title>grol.io/grol&#45;&gt;fortio.org/log</title>
<path fill="none" stroke="black" d="M3458.07,-337.54C3455.35,-336.64 3452.65,-335.78 3450,-335 3356.61,-307.33 3323.4,-330.74 3236,-287.75 3213.63,-276.75 3214.33,-264.64 3193,-251.75 3145.7,-223.18 3120.03,-240.37 3078,-204.5 3051.37,-181.77 3067.32,-154.74 3037,-137.25 2973.34,-100.52 1857.84,-101.33 1591,-102.05"/>
<polygon fill="black" stroke="black" points="1591.17,-98.55 1581.18,-102.08 1591.19,-105.55 1591.17,-98.55"/>
<text text-anchor="middle" x="3162.83" y="-224.25" font-family="Helvetica,sans-Serif" font-size="10.00">v1.17.2</text>
</g>
<!-- grol.io/grol&#45;&gt;fortio.org/safecast -->
<g id="edge97" class="edge">
<title>grol.io/grol&#45;&gt;fortio.org/safecast</title>
<path fill="none" stroke="black" d="M3481.14,-335.54C3470.51,-323.26 3457.74,-305.85 3452,-287.75 3443.23,-260.1 3437.93,-247.28 3453,-222.5 3455.68,-218.09 3459.11,-214.18 3462.99,-210.71"/>
<polygon fill="black" stroke="black" points="3465.02,-213.57 3470.87,-204.74 3460.79,-207.99 3465.02,-213.57"/>
<text text-anchor="middle" x="3465.5" y="-265.88" font-family="Helvetica,sans-Serif" font-size="10.00">v1.0.0</text>
</g>
<!-- grol.io/grol&#45;&gt;fortio.org/sets -->
<g id="edge98" class="edge">
<title>grol.io/grol&#45;&gt;fortio.org/sets</title>
<path fill="none" stroke="black" d="M3458.21,-336.97C3455.46,-336.2 3452.71,-335.53 3450,-335 3323.49,-310.03 2998.57,-326.92 2870,-317 2829.37,-313.86 2819.66,-308.46 2779,-305.75 2678.16,-299.04 1057.91,-312.8 960,-287.75 900.43,-272.51 895.93,-243.13 838,-222.5 797.85,-208.2 750.63,-199.11 714.07,-193.64"/>
<polygon fill="black" stroke="black" points="714.99,-190.24 704.59,-192.27 713.99,-197.16 714.99,-190.24"/>
<text text-anchor="middle" x="973.5" y="-265.88" font-family="Helvetica,sans-Serif" font-size="10.00">v1.3.0</text>
</g>
<!-- grol.io/grol&#45;&gt;fortio.org/struct2env -->
<g id="edge99" class="edge">
<title>grol.io/grol&#45;&gt;fortio.org/struct2env</title>
<path fill="none" stroke="black" d="M3537.72,-348.92C3576.91,-344.99 3638.54,-339.06 3692,-335 3725.85,-332.43 3972.03,-340 3997,-317 4073.89,-246.19 4063.62,-131.71 3971,-83.25 3874.17,-32.58 3120.62,-21.75 2871.59,-19.54"/>
<polygon fill="black" stroke="black" points="2871.66,-16.04 2861.63,-19.45 2871.6,-23.04 2871.66,-16.04"/>
<text text-anchor="middle" x="4061.78" y="-181.62" font-family="Helvetica,sans-Serif" font-size="10.00">v0.4.2</text>
</g>
<!-- grol.io/grol&#45;&gt;fortio.org/terminal -->
<g id="edge100" class="edge">
<title>grol.io/grol&#45;&gt;fortio.org/terminal</title>
<path fill="none" stroke="black" d="M3508.82,-335.56C3515.65,-324.54 3524.61,-310.09 3532.33,-297.63"/>
<polygon fill="black" stroke="black" points="3535.11,-299.8 3537.4,-289.45 3529.16,-296.11 3535.11,-299.8"/>
<text text-anchor="middle" x="3542.68" y="-307.5" font-family="Helvetica,sans-Serif" font-size="10.00">v0.29.1</text>
</g>
<!-- grol.io/grol&#45;&gt;fortio.org/testscript -->
<g id="edge101" class="edge">
<title>grol.io/grol&#45;&gt;fortio.org/testscript</title>
<path fill="none" stroke="black" d="M3458.19,-337.1C3455.44,-336.3 3452.7,-335.59 3450,-335 3342.48,-311.44 3311.18,-337.32 3203,-317 3159.58,-308.84 3144.62,-312.46 3108,-287.75 3077.03,-266.85 3087.47,-240.98 3055,-222.5 3044.45,-216.5 3026.64,-211.39 3005.28,-207.08"/>
<polygon fill="black" stroke="black" points="3006.13,-203.68 2995.65,-205.25 3004.82,-210.56 3006.13,-203.68"/>
<text text-anchor="middle" x="3121.5" y="-265.88" font-family="Helvetica,sans-Serif" font-size="10.00">v0.3.2</text>
</g>
<!-- grol.io/grol&#45;&gt;fortio.org/version -->
<g id="edge102" class="edge">
<title>grol.io/grol&#45;&gt;fortio.org/version</title>
<path fill="none" stroke="black" d="M3537.72,-341.3C3635.03,-312.22 3878.91,-236.7 3899,-204.5 3912.65,-182.62 3912.43,-152.68 3909.68,-130.86"/>
<polygon fill="black" stroke="black" points="3913.17,-130.52 3908.19,-121.17 3906.25,-131.59 3913.17,-130.52"/>
<text text-anchor="middle" x="3886.27" y="-224.25" font-family="Helvetica,sans-Serif" font-size="10.00">v1.0.4</text>
</g>
<!-- grol.io/grol&#45;discord&#45;bot -->
<g id="node45" class="node">
<title>grol.io/grol&#45;discord&#45;bot</title>
<path fill="lightgreen" stroke="black" d="M3307.12,-457.25C3307.12,-457.25 3180.88,-457.25 3180.88,-457.25 3174.88,-457.25 3168.88,-451.25 3168.88,-445.25 3168.88,-445.25 3168.88,-433.25 3168.88,-433.25 3168.88,-427.25 3174.88,-421.25 3180.88,-421.25 3180.88,-421.25 3307.12,-421.25 3307.12,-421.25 3313.12,-421.25 3319.12,-427.25 3319.12,-433.25 3319.12,-433.25 3319.12,-445.25 3319.12,-445.25 3319.12,-451.25 3313.12,-457.25 3307.12,-457.25"/>
<text text-anchor="middle" x="3244" y="-433.45" font-family="Helvetica,sans-Serif" font-size="14.00">grol.io/grol&#45;discord&#45;bot</text>
</g>
<!-- grol.io/grol&#45;discord&#45;bot&#45;&gt;fortio.org/cli -->
<g id="edge103" class="edge">
<title>grol.io/grol&#45;discord&#45;bot&#45;&gt;fortio.org/cli</title>
<path fill="none" stroke="black" d="M3168.4,-429.14C3147.59,-423.84 3126.07,-415.46 3109,-402.25 3081.85,-381.24 3097.32,-357.04 3071,-335 3052.49,-319.5 3041.4,-327.68 3019.75,-317 2952.51,-283.82 2950.82,-247.12 2880,-222.5 2771.06,-184.63 2731.93,-225.53 2615.32,-204.56"/>
<polygon fill="black" stroke="black" points="2616.14,-201.15 2605.66,-202.69 2614.81,-208.02 2616.14,-201.15"/>
<text text-anchor="middle" x="3035.88" y="-307.5" font-family="Helvetica,sans-Serif" font-size="10.00">v1.10.0</text>
</g>
<!-- grol.io/grol&#45;discord&#45;bot&#45;&gt;fortio.org/log -->
<g id="edge104" class="edge">
<title>grol.io/grol&#45;discord&#45;bot&#45;&gt;fortio.org/log</title>
<path fill="none" stroke="black" d="M3220.73,-420.79C3206.11,-408.77 3187.85,-391.64 3176,-373 3145.49,-324.99 3170.96,-295.83 3135,-251.75 3128.41,-243.68 3062.58,-210.42 3054,-204.5 3031.89,-189.24 3032.12,-176.01 3007,-166.5 2872.9,-115.76 1845.2,-104.62 1590.82,-102.63"/>
<polygon fill="black" stroke="black" points="1591.18,-99.13 1581.15,-102.56 1591.13,-106.13 1591.18,-99.13"/>
<text text-anchor="middle" x="3169.9" y="-265.88" font-family="Helvetica,sans-Serif" font-size="10.00">v1.17.2</text>
</g>
<!-- grol.io/grol&#45;discord&#45;bot&#45;&gt;fortio.org/scli -->
<g id="edge105" class="edge">
<title>grol.io/grol&#45;discord&#45;bot&#45;&gt;fortio.org/scli</title>
<path fill="none" stroke="black" d="M3168.56,-434.84C2863.99,-421.09 1728.34,-369.82 1458.02,-357.62"/>
<polygon fill="black" stroke="black" points="1458.2,-354.12 1448.05,-357.17 1457.88,-361.12 1458.2,-354.12"/>
<text text-anchor="middle" x="2448.53" y="-392.75" font-family="Helvetica,sans-Serif" font-size="10.00">v1.16.1</text>
</g>
<!-- grol.io/grol&#45;discord&#45;bot&#45;&gt;fortio.org/version -->
<g id="edge106" class="edge">
<title>grol.io/grol&#45;discord&#45;bot&#45;&gt;fortio.org/version</title>
<path fill="none" stroke="black" d="M3319.4,-433.4C3376.2,-429.75 3455.99,-424.65 3526,-420.25 3655.33,-412.12 3690.01,-428.02 3817,-402.25 3928.76,-379.57 3986.32,-404.87 4059,-317 4101.9,-265.13 4112.71,-222.92 4076,-166.5 4053.77,-132.33 4010.83,-116.27 3973.42,-108.75"/>
<polygon fill="black" stroke="black" points="3974.48,-105.38 3964.02,-107.03 3973.23,-112.27 3974.48,-105.38"/>
<text text-anchor="middle" x="4109.22" y="-265.88" font-family="Helvetica,sans-Serif" font-size="10.00">v1.0.4</text>
</g>
<!-- grol.io/grol&#45;discord&#45;bot&#45;&gt;github.com/bwmarrin/discordgo -->
<g id="edge107" class="edge">
<title>grol.io/grol&#45;discord&#45;bot&#45;&gt;github.com/bwmarrin/discordgo</title>
<path fill="none" stroke="black" d="M3258.3,-421C3267.57,-409.81 3279.85,-394.99 3290.43,-382.23"/>
<polygon fill="black" stroke="black" points="3293.11,-384.48 3296.8,-374.55 3287.72,-380.01 3293.11,-384.48"/>
<text text-anchor="middle" x="3298.76" y="-392.75" font-family="Helvetica,sans-Serif" font-size="10.00">v0.28.1</text>
</g>
<!-- grol.io/grol&#45;discord&#45;bot&#45;&gt;grol.io/grol -->
<g id="edge108" class="edge">
<title>grol.io/grol&#45;discord&#45;bot&#45;&gt;grol.io/grol</title>
<path fill="none" stroke="black" d="M3301.98,-420.77C3340.82,-408.86 3393.3,-392.37 3447.41,-373.83"/>
<polygon fill="black" stroke="black" points="3448.5,-377.15 3456.81,-370.58 3446.22,-370.53 3448.5,-377.15"/>
<text text-anchor="middle" x="3409.85" y="-392.75" font-family="Helvetica,sans-Serif" font-size="10.00">v0.80.3</text>
</g>
<!-- scriggo&#45;bench -->
<g id="node46" class="node">
<title>scriggo&#45;bench</title>
<path fill="darkseagreen" stroke="black" d="M3673.5,-458.25C3673.5,-458.25 3546.5,-458.25 3546.5,-458.25 3540.5,-458.25 3534.5,-452.25 3534.5,-446.25 3534.5,-446.25 3534.5,-432.25 3534.5,-432.25 3534.5,-426.25 3540.5,-420.25 3546.5,-420.25 3546.5,-420.25 3673.5,-420.25 3673.5,-420.25 3679.5,-420.25 3685.5,-426.25 3685.5,-432.25 3685.5,-432.25 3685.5,-446.25 3685.5,-446.25 3685.5,-452.25 3679.5,-458.25 3673.5,-458.25"/>
<text text-anchor="middle" x="3610" y="-440.95" font-family="Helvetica,sans-Serif" font-size="14.00">grol&#45;io/scriggo&#45;bench</text>
<text text-anchor="middle" x="3610" y="-425.95" font-family="Helvetica,sans-Serif" font-size="14.00">(fork of scriggo&#45;bench)</text>
</g>
<!-- scriggo&#45;bench&#45;&gt;grol.io/grol -->
<g id="edge109" class="edge">
<title>scriggo&#45;bench&#45;&gt;grol.io/grol</title>
<path fill="none" stroke="black" d="M3585.14,-419.77C3568.9,-407.7 3547.53,-391.81 3530.02,-378.8"/>
<polygon fill="black" stroke="black" points="3532.59,-376.35 3522.47,-373.19 3528.41,-381.96 3532.59,-376.35"/>
<text text-anchor="middle" x="3576.83" y="-392.75" font-family="Helvetica,sans-Serif" font-size="10.00">v0.26.0</text>
</g>
</g>
</svg>
