<?xml version="1.0" encoding="UTF-8" standalone="no"?>
<!DOCTYPE svg PUBLIC "-//W3C//DTD SVG 1.1//EN"
 "http://www.w3.org/Graphics/SVG/1.1/DTD/svg11.dtd">
<!-- Generated by graphviz version 12.2.1 (20241206.2353)
 -->
<!-- Title: dependencies Pages: 1 -->
<svg width="1695pt" height="2388pt"
 viewBox="0.00 0.00 1695.00 2388.28" xmlns="http://www.w3.org/2000/svg" xmlns:xlink="http://www.w3.org/1999/xlink">
<g id="graph0" class="graph" transform="scale(1 1) rotate(0) translate(4 2384.28)">
<title>dependencies</title>
<polygon fill="white" stroke="none" points="-4,4 -4,-2384.28 1691,-2384.28 1691,4 -4,4"/>
<!-- fortio.org/assert -->
<g id="node1" class="node">
<title>fortio.org/assert</title>
<path fill="lightblue" stroke="black" d="M1473.38,-2172.28C1473.38,-2172.28 1387.62,-2172.28 1387.62,-2172.28 1381.62,-2172.28 1375.62,-2166.28 1375.62,-2160.28 1375.62,-2160.28 1375.62,-2148.28 1375.62,-2148.28 1375.62,-2142.28 1381.62,-2136.28 1387.62,-2136.28 1387.62,-2136.28 1473.38,-2136.28 1473.38,-2136.28 1479.38,-2136.28 1485.38,-2142.28 1485.38,-2148.28 1485.38,-2148.28 1485.38,-2160.28 1485.38,-2160.28 1485.38,-2166.28 1479.38,-2172.28 1473.38,-2172.28"/>
<text text-anchor="middle" x="1430.5" y="-2148.48" font-family="Helvetica,sans-Serif" font-size="14.00">fortio.org/assert</text>
</g>
<!-- fortio.org/cli -->
<g id="node2" class="node">
<title>fortio.org/cli</title>
<path fill="lightblue" stroke="black" d="M1262.38,-927.28C1262.38,-927.28 1200.62,-927.28 1200.62,-927.28 1194.62,-927.28 1188.62,-921.28 1188.62,-915.28 1188.62,-915.28 1188.62,-903.28 1188.62,-903.28 1188.62,-897.28 1194.62,-891.28 1200.62,-891.28 1200.62,-891.28 1262.38,-891.28 1262.38,-891.28 1268.38,-891.28 1274.38,-897.28 1274.38,-903.28 1274.38,-903.28 1274.38,-915.28 1274.38,-915.28 1274.38,-921.28 1268.38,-927.28 1262.38,-927.28"/>
<text text-anchor="middle" x="1231.5" y="-903.48" font-family="Helvetica,sans-Serif" font-size="14.00">fortio.org/cli</text>
</g>
<!-- fortio.org/log -->
<g id="node7" class="node">
<title>fortio.org/log</title>
<path fill="lightblue" stroke="black" d="M1464,-1280.28C1464,-1280.28 1397,-1280.28 1397,-1280.28 1391,-1280.28 1385,-1274.28 1385,-1268.28 1385,-1268.28 1385,-1256.28 1385,-1256.28 1385,-1250.28 1391,-1244.28 1397,-1244.28 1397,-1244.28 1464,-1244.28 1464,-1244.28 1470,-1244.28 1476,-1250.28 1476,-1256.28 1476,-1256.28 1476,-1268.28 1476,-1268.28 1476,-1274.28 1470,-1280.28 1464,-1280.28"/>
<text text-anchor="middle" x="1430.5" y="-1256.48" font-family="Helvetica,sans-Serif" font-size="14.00">fortio.org/log</text>
</g>
<!-- fortio.org/cli&#45;&gt;fortio.org/log -->
<g id="edge1" class="edge">
<title>fortio.org/cli&#45;&gt;fortio.org/log</title>
<path fill="none" stroke="black" d="M1257.48,-927.75C1284.89,-949.23 1328.41,-987.15 1354.25,-1029.03 1395.27,-1095.51 1416.16,-1186.6 1424.69,-1232.81"/>
<polygon fill="black" stroke="black" points="1421.23,-1233.35 1426.42,-1242.59 1428.12,-1232.13 1421.23,-1233.35"/>
<text text-anchor="middle" x="1338.12" y="-1030.78" font-family="Helvetica,sans-Serif" font-size="10.00">v1.17.2</text>
</g>
<!-- fortio.org/version -->
<g id="node23" class="node">
<title>fortio.org/version</title>
<path fill="lightblue" stroke="black" d="M1476.75,-337.28C1476.75,-337.28 1384.25,-337.28 1384.25,-337.28 1378.25,-337.28 1372.25,-331.28 1372.25,-325.28 1372.25,-325.28 1372.25,-313.28 1372.25,-313.28 1372.25,-307.28 1378.25,-301.28 1384.25,-301.28 1384.25,-301.28 1476.75,-301.28 1476.75,-301.28 1482.75,-301.28 1488.75,-307.28 1488.75,-313.28 1488.75,-313.28 1488.75,-325.28 1488.75,-325.28 1488.75,-331.28 1482.75,-337.28 1476.75,-337.28"/>
<text text-anchor="middle" x="1430.5" y="-313.48" font-family="Helvetica,sans-Serif" font-size="14.00">fortio.org/version</text>
</g>
<!-- fortio.org/cli&#45;&gt;fortio.org/version -->
<g id="edge2" class="edge">
<title>fortio.org/cli&#45;&gt;fortio.org/version</title>
<path fill="none" stroke="black" d="M1238.61,-890.98C1266.87,-806.33 1385,-452.56 1419.81,-348.31"/>
<polygon fill="black" stroke="black" points="1423.04,-349.69 1422.88,-339.1 1416.4,-347.48 1423.04,-349.69"/>
<text text-anchor="middle" x="1338.12" y="-633.72" font-family="Helvetica,sans-Serif" font-size="10.00">v1.0.4</text>
</g>
<!-- fortio.org/dflag -->
<g id="node3" class="node">
<title>fortio.org/dflag</title>
<path fill="lightblue" stroke="black" d="M992.12,-2126.28C992.12,-2126.28 913.88,-2126.28 913.88,-2126.28 907.88,-2126.28 901.88,-2120.28 901.88,-2114.28 901.88,-2114.28 901.88,-2102.28 901.88,-2102.28 901.88,-2096.28 907.88,-2090.28 913.88,-2090.28 913.88,-2090.28 992.12,-2090.28 992.12,-2090.28 998.12,-2090.28 1004.12,-2096.28 1004.12,-2102.28 1004.12,-2102.28 1004.12,-2114.28 1004.12,-2114.28 1004.12,-2120.28 998.12,-2126.28 992.12,-2126.28"/>
<text text-anchor="middle" x="953" y="-2102.48" font-family="Helvetica,sans-Serif" font-size="14.00">fortio.org/dflag</text>
</g>
<!-- fortio.org/dflag&#45;&gt;fortio.org/assert -->
<g id="edge3" class="edge">
<title>fortio.org/dflag&#45;&gt;fortio.org/assert</title>
<path fill="none" stroke="black" d="M1004.35,-2126.18C1074.46,-2150.06 1205.96,-2191.1 1322,-2206.28 1336.21,-2208.14 1340.57,-2210.55 1354.25,-2206.28 1371.49,-2200.9 1388.27,-2190.04 1401.59,-2179.62"/>
<polygon fill="black" stroke="black" points="1403.53,-2182.56 1409.05,-2173.52 1399.1,-2177.14 1403.53,-2182.56"/>
<text text-anchor="middle" x="1231.5" y="-2204.79" font-family="Helvetica,sans-Serif" font-size="10.00">v1.2.1</text>
</g>
<!-- fortio.org/dflag&#45;&gt;fortio.org/log -->
<g id="edge4" class="edge">
<title>fortio.org/dflag&#45;&gt;fortio.org/log</title>
<path fill="none" stroke="black" d="M1004.32,-2110.15C1100.85,-2112.57 1306.67,-2111.74 1354.25,-2063.28 1409.34,-2007.17 1425.74,-1429.91 1428.89,-1291.83"/>
<polygon fill="black" stroke="black" points="1432.38,-1292.15 1429.1,-1282.07 1425.38,-1291.99 1432.38,-1292.15"/>
<text text-anchor="middle" x="1231.5" y="-2110.08" font-family="Helvetica,sans-Serif" font-size="10.00">v1.17.2</text>
</g>
<!-- fortio.org/sets -->
<g id="node16" class="node">
<title>fortio.org/sets</title>
<path fill="lightblue" stroke="black" d="M1268.38,-1943.28C1268.38,-1943.28 1194.62,-1943.28 1194.62,-1943.28 1188.62,-1943.28 1182.62,-1937.28 1182.62,-1931.28 1182.62,-1931.28 1182.62,-1919.28 1182.62,-1919.28 1182.62,-1913.28 1188.62,-1907.28 1194.62,-1907.28 1194.62,-1907.28 1268.38,-1907.28 1268.38,-1907.28 1274.38,-1907.28 1280.38,-1913.28 1280.38,-1919.28 1280.38,-1919.28 1280.38,-1931.28 1280.38,-1931.28 1280.38,-1937.28 1274.38,-1943.28 1268.38,-1943.28"/>
<text text-anchor="middle" x="1231.5" y="-1919.48" font-family="Helvetica,sans-Serif" font-size="14.00">fortio.org/sets</text>
</g>
<!-- fortio.org/dflag&#45;&gt;fortio.org/sets -->
<g id="edge5" class="edge">
<title>fortio.org/dflag&#45;&gt;fortio.org/sets</title>
<path fill="none" stroke="black" d="M988.75,-2089.92C1027.05,-2069.22 1089.99,-2033.78 1141,-1998.28 1162.02,-1983.65 1184.35,-1965.45 1201.44,-1950.88"/>
<polygon fill="black" stroke="black" points="1203.43,-1953.79 1208.72,-1944.62 1198.86,-1948.48 1203.43,-1953.79"/>
<text text-anchor="middle" x="1108.38" y="-2042" font-family="Helvetica,sans-Serif" font-size="10.00">v1.3.0</text>
</g>
<!-- fortio.org/dnsping -->
<g id="node4" class="node">
<title>fortio.org/dnsping</title>
<path fill="lightblue" stroke="black" d="M167.88,-1660.28C167.88,-1660.28 71.62,-1660.28 71.62,-1660.28 65.62,-1660.28 59.62,-1654.28 59.62,-1648.28 59.62,-1648.28 59.62,-1636.28 59.62,-1636.28 59.62,-1630.28 65.62,-1624.28 71.62,-1624.28 71.62,-1624.28 167.88,-1624.28 167.88,-1624.28 173.88,-1624.28 179.88,-1630.28 179.88,-1636.28 179.88,-1636.28 179.88,-1648.28 179.88,-1648.28 179.88,-1654.28 173.88,-1660.28 167.88,-1660.28"/>
<text text-anchor="middle" x="119.75" y="-1636.48" font-family="Helvetica,sans-Serif" font-size="14.00">fortio.org/dnsping</text>
</g>
<!-- fortio.org/dnsping&#45;&gt;fortio.org/cli -->
<g id="edge6" class="edge">
<title>fortio.org/dnsping&#45;&gt;fortio.org/cli</title>
<path fill="none" stroke="black" d="M171.28,-1623.89C205.8,-1610.37 251.95,-1590.38 289.75,-1567.28 528.75,-1421.23 592.83,-1379.66 780,-1171.28 807.56,-1140.6 815.17,-1131.66 830.25,-1093.28 846.92,-1050.84 816.43,-1024.94 848.25,-992.28 914.58,-924.2 970.73,-987.52 1057.75,-949.28 1066.78,-945.31 1066.66,-940.12 1075.75,-936.28 1107.84,-922.75 1146.41,-916 1177.02,-912.63"/>
<polygon fill="black" stroke="black" points="1177.23,-916.13 1186.83,-911.65 1176.53,-909.17 1177.23,-916.13"/>
<text text-anchor="middle" x="677.5" y="-1376.73" font-family="Helvetica,sans-Serif" font-size="10.00">v1.10.0</text>
</g>
<!-- fortio.org/fortio -->
<g id="node5" class="node">
<title>fortio.org/fortio</title>
<path fill="lightblue" stroke="black" d="M446.75,-1270.28C446.75,-1270.28 367.75,-1270.28 367.75,-1270.28 361.75,-1270.28 355.75,-1264.28 355.75,-1258.28 355.75,-1258.28 355.75,-1246.28 355.75,-1246.28 355.75,-1240.28 361.75,-1234.28 367.75,-1234.28 367.75,-1234.28 446.75,-1234.28 446.75,-1234.28 452.75,-1234.28 458.75,-1240.28 458.75,-1246.28 458.75,-1246.28 458.75,-1258.28 458.75,-1258.28 458.75,-1264.28 452.75,-1270.28 446.75,-1270.28"/>
<text text-anchor="middle" x="407.25" y="-1246.48" font-family="Helvetica,sans-Serif" font-size="14.00">fortio.org/fortio</text>
</g>
<!-- fortio.org/dnsping&#45;&gt;fortio.org/fortio -->
<g id="edge7" class="edge">
<title>fortio.org/dnsping&#45;&gt;fortio.org/fortio</title>
<path fill="none" stroke="black" d="M158.4,-1623.87C182.84,-1610.96 214.65,-1592.3 239.5,-1571.28 334.08,-1491.28 382.17,-1343.91 399.06,-1281.47"/>
<polygon fill="black" stroke="black" points="402.4,-1282.52 401.55,-1271.96 395.63,-1280.74 402.4,-1282.52"/>
<text text-anchor="middle" x="273.62" y="-1553.29" font-family="Helvetica,sans-Serif" font-size="10.00">v1.69.1</text>
</g>
<!-- fortio.org/dnsping&#45;&gt;fortio.org/log -->
<g id="edge8" class="edge">
<title>fortio.org/dnsping&#45;&gt;fortio.org/log</title>
<path fill="none" stroke="black" d="M127.29,-1660.48C146.38,-1710.87 207.17,-1852.98 307.75,-1921.28 382.61,-1972.12 418.45,-1944.53 506.75,-1964.28 784.24,-2026.36 866.66,-2123.07 1141,-2048.28 1222.12,-2026.17 1254.68,-2020.37 1304,-1952.28 1382.81,-1843.47 1419.01,-1409.48 1427.49,-1291.83"/>
<polygon fill="black" stroke="black" points="1430.97,-1292.29 1428.18,-1282.07 1423.99,-1291.8 1430.97,-1292.29"/>
<text text-anchor="middle" x="814.12" y="-2060.63" font-family="Helvetica,sans-Serif" font-size="10.00">v1.17.2</text>
</g>
<!-- fortio.org/safecast -->
<g id="node14" class="node">
<title>fortio.org/safecast</title>
<path fill="lightblue" stroke="black" d="M1281.12,-442.28C1281.12,-442.28 1181.88,-442.28 1181.88,-442.28 1175.88,-442.28 1169.88,-436.28 1169.88,-430.28 1169.88,-430.28 1169.88,-418.28 1169.88,-418.28 1169.88,-412.28 1175.88,-406.28 1181.88,-406.28 1181.88,-406.28 1281.12,-406.28 1281.12,-406.28 1287.12,-406.28 1293.12,-412.28 1293.12,-418.28 1293.12,-418.28 1293.12,-430.28 1293.12,-430.28 1293.12,-436.28 1287.12,-442.28 1281.12,-442.28"/>
<text text-anchor="middle" x="1231.5" y="-418.48" font-family="Helvetica,sans-Serif" font-size="14.00">fortio.org/safecast</text>
</g>
<!-- fortio.org/dnsping&#45;&gt;fortio.org/safecast -->
<g id="edge9" class="edge">
<title>fortio.org/dnsping&#45;&gt;fortio.org/safecast</title>
<path fill="none" stroke="black" d="M174.46,-1623.88C198.67,-1612.65 225.03,-1595.66 239.5,-1571.28 265.49,-1527.49 235.46,-1159.19 257.5,-1113.28 265.71,-1096.17 281.62,-1102.43 289.75,-1085.28 318.52,-1024.62 280.7,-542.73 307.75,-481.28 361.94,-358.16 400.11,-320.89 524.75,-270.28 652.86,-218.26 1016.18,-296.79 1141,-356.28 1163.8,-367.15 1186.43,-384.41 1203.22,-398.82"/>
<polygon fill="black" stroke="black" points="1200.49,-401.08 1210.31,-405.05 1205.11,-395.82 1200.49,-401.08"/>
<text text-anchor="middle" x="677.5" y="-264.82" font-family="Helvetica,sans-Serif" font-size="10.00">v1.0.0</text>
</g>
<!-- fortio.org/testscript -->
<g id="node22" class="node">
<title>fortio.org/testscript</title>
<path fill="steelblue" stroke="black" d="M1283,-1555.28C1283,-1555.28 1180,-1555.28 1180,-1555.28 1174,-1555.28 1168,-1549.28 1168,-1543.28 1168,-1543.28 1168,-1531.28 1168,-1531.28 1168,-1525.28 1174,-1519.28 1180,-1519.28 1180,-1519.28 1283,-1519.28 1283,-1519.28 1289,-1519.28 1295,-1525.28 1295,-1531.28 1295,-1531.28 1295,-1543.28 1295,-1543.28 1295,-1549.28 1289,-1555.28 1283,-1555.28"/>
<text text-anchor="middle" x="1231.5" y="-1531.48" font-family="Helvetica,sans-Serif" font-size="14.00">fortio.org/testscript</text>
</g>
<!-- fortio.org/dnsping&#45;&gt;fortio.org/testscript -->
<g id="edge10" class="edge">
<title>fortio.org/dnsping&#45;&gt;fortio.org/testscript</title>
<path fill="none" stroke="black" d="M180.11,-1644.48C264.14,-1647.02 422.52,-1649.76 557,-1640.28 818.33,-1621.86 883.93,-1610.75 1141,-1560.28 1146.14,-1559.27 1151.43,-1558.15 1156.74,-1556.95"/>
<polygon fill="black" stroke="black" points="1157.21,-1560.43 1166.16,-1554.75 1155.62,-1553.62 1157.21,-1560.43"/>
<text text-anchor="middle" x="677.5" y="-1640.74" font-family="Helvetica,sans-Serif" font-size="10.00">v0.3.2</text>
</g>
<!-- github.com/miekg/dns -->
<g id="node39" class="node">
<title>github.com/miekg/dns</title>
<path fill="coral" stroke="black" d="M469.62,-2009.28C469.62,-2009.28 344.88,-2009.28 344.88,-2009.28 338.88,-2009.28 332.88,-2003.28 332.88,-1997.28 332.88,-1997.28 332.88,-1985.28 332.88,-1985.28 332.88,-1979.28 338.88,-1973.28 344.88,-1973.28 344.88,-1973.28 469.62,-1973.28 469.62,-1973.28 475.62,-1973.28 481.62,-1979.28 481.62,-1985.28 481.62,-1985.28 481.62,-1997.28 481.62,-1997.28 481.62,-2003.28 475.62,-2009.28 469.62,-2009.28"/>
<text text-anchor="middle" x="407.25" y="-1985.48" font-family="Helvetica,sans-Serif" font-size="14.00">github.com/miekg/dns</text>
</g>
<!-- fortio.org/dnsping&#45;&gt;github.com/miekg/dns -->
<g id="edge11" class="edge">
<title>fortio.org/dnsping&#45;&gt;github.com/miekg/dns</title>
<path fill="none" stroke="black" d="M133.36,-1660.67C157.78,-1697.19 211.58,-1782.16 239.5,-1861.28 254.24,-1903.04 226.66,-1927.5 257.5,-1959.28 274.25,-1976.55 297.91,-1985.58 321.44,-1990.05"/>
<polygon fill="black" stroke="black" points="320.66,-1993.47 331.09,-1991.6 321.78,-1986.56 320.66,-1993.47"/>
<text text-anchor="middle" x="273.62" y="-1981.39" font-family="Helvetica,sans-Serif" font-size="10.00">v1.1.65</text>
</g>
<!-- fortio.org/fortio&#45;&gt;fortio.org/assert -->
<g id="edge12" class="edge">
<title>fortio.org/fortio&#45;&gt;fortio.org/assert</title>
<path fill="none" stroke="black" d="M426.28,-1270.54C455.37,-1299.2 515.48,-1355.1 575,-1390.28 681.5,-1453.23 764.96,-1396.21 830.25,-1501.28 856.84,-1544.07 813.48,-1690.82 848.25,-1727.28 880.64,-1761.25 1011.33,-1747.1 1057.75,-1754.03 1094.88,-1759.58 1106.75,-1752.93 1141,-1768.28 1225.56,-1806.18 1245.97,-1826.04 1304,-1898.28 1362.37,-1970.96 1402.78,-2075.25 1420.07,-2125.31"/>
<polygon fill="black" stroke="black" points="1416.67,-2126.2 1423.19,-2134.55 1423.3,-2123.95 1416.67,-2126.2"/>
<text text-anchor="middle" x="953" y="-1755.78" font-family="Helvetica,sans-Serif" font-size="10.00">v1.2.1</text>
</g>
<!-- fortio.org/fortio&#45;&gt;fortio.org/cli -->
<g id="edge13" class="edge">
<title>fortio.org/fortio&#45;&gt;fortio.org/cli</title>
<path fill="none" stroke="black" d="M459.18,-1243.9C537.39,-1228.58 687.68,-1189.2 780,-1101.28 832.16,-1051.61 791.25,-998.32 848.25,-954.28 923.14,-896.43 965.51,-937.41 1057.75,-916.28 1065.84,-914.43 1067.53,-912.46 1075.75,-911.28 1109.09,-906.52 1146.89,-905.94 1176.78,-906.59"/>
<polygon fill="black" stroke="black" points="1176.63,-910.09 1186.73,-906.87 1176.83,-903.09 1176.63,-910.09"/>
<text text-anchor="middle" x="814.12" y="-1079.9" font-family="Helvetica,sans-Serif" font-size="10.00">v1.10.0</text>
</g>
<!-- fortio.org/fortio&#45;&gt;fortio.org/dflag -->
<g id="edge14" class="edge">
<title>fortio.org/fortio&#45;&gt;fortio.org/dflag</title>
<path fill="none" stroke="black" d="M407.99,-1270.37C408.11,-1332.73 416.9,-1541.26 524.75,-1656.28 607.21,-1744.22 704.24,-1654.26 780,-1748.03 817.83,-1794.86 772.8,-1827.61 798,-1882.28 806.99,-1901.79 821.16,-1898.82 830.25,-1918.28 853.99,-1969.14 817.63,-1996.24 848.25,-2043.28 859.65,-2060.79 877.59,-2074.44 895.37,-2084.61"/>
<polygon fill="black" stroke="black" points="893.39,-2087.52 903.86,-2089.18 896.71,-2081.36 893.39,-2087.52"/>
<text text-anchor="middle" x="677.5" y="-1749.78" font-family="Helvetica,sans-Serif" font-size="10.00">v1.8.1</text>
</g>
<!-- fortio.org/fortio&#45;&gt;fortio.org/log -->
<g id="edge15" class="edge">
<title>fortio.org/fortio&#45;&gt;fortio.org/log</title>
<path fill="none" stroke="black" d="M458.94,-1257.47C595.23,-1270.33 965.49,-1297.61 1057.75,-1225.28 1080.33,-1207.58 1052.81,-1180.51 1075.75,-1163.28 1098.94,-1145.87 1112.4,-1158.51 1141,-1163.28 1227.36,-1177.69 1322.52,-1214.78 1379.08,-1239.25"/>
<polygon fill="black" stroke="black" points="1377.57,-1242.41 1388.13,-1243.21 1380.37,-1236 1377.57,-1242.41"/>
<text text-anchor="middle" x="953" y="-1273.02" font-family="Helvetica,sans-Serif" font-size="10.00">v1.17.2</text>
</g>
<!-- fortio.org/fortio&#45;&gt;fortio.org/safecast -->
<g id="edge16" class="edge">
<title>fortio.org/fortio&#45;&gt;fortio.org/safecast</title>
<path fill="none" stroke="black" d="M434.29,-1233.81C458.05,-1215.26 491.68,-1184.3 506.75,-1148.28 552.05,-1039.97 488.34,-731.9 524.75,-620.28 537.08,-582.49 541.98,-568.42 575,-546.28 652.33,-494.45 700.57,-551.84 780,-503.28 790.85,-496.65 788.73,-489.74 798,-481.03 817.97,-462.26 822.38,-454.34 848.25,-445.28 951.39,-409.19 1079.72,-410.79 1158.34,-416.56"/>
<polygon fill="black" stroke="black" points="1157.82,-420.03 1168.06,-417.32 1158.36,-413.05 1157.82,-420.03"/>
<text text-anchor="middle" x="814.12" y="-482.78" font-family="Helvetica,sans-Serif" font-size="10.00">v1.0.0</text>
</g>
<!-- fortio.org/scli -->
<g id="node15" class="node">
<title>fortio.org/scli</title>
<path fill="lightblue" stroke="black" d="M711.75,-1092.28C711.75,-1092.28 643.25,-1092.28 643.25,-1092.28 637.25,-1092.28 631.25,-1086.28 631.25,-1080.28 631.25,-1080.28 631.25,-1068.28 631.25,-1068.28 631.25,-1062.28 637.25,-1056.28 643.25,-1056.28 643.25,-1056.28 711.75,-1056.28 711.75,-1056.28 717.75,-1056.28 723.75,-1062.28 723.75,-1068.28 723.75,-1068.28 723.75,-1080.28 723.75,-1080.28 723.75,-1086.28 717.75,-1092.28 711.75,-1092.28"/>
<text text-anchor="middle" x="677.5" y="-1068.48" font-family="Helvetica,sans-Serif" font-size="14.00">fortio.org/scli</text>
</g>
<!-- fortio.org/fortio&#45;&gt;fortio.org/scli -->
<g id="edge17" class="edge">
<title>fortio.org/fortio&#45;&gt;fortio.org/scli</title>
<path fill="none" stroke="black" d="M434.46,-1233.88C457.97,-1217.46 493.48,-1192.87 524.75,-1172.03 562.87,-1146.63 606.94,-1118.37 637.73,-1098.79"/>
<polygon fill="black" stroke="black" points="639.39,-1101.88 645.96,-1093.57 635.64,-1095.97 639.39,-1101.88"/>
<text text-anchor="middle" x="540.88" y="-1173.78" font-family="Helvetica,sans-Serif" font-size="10.00">v1.16.1</text>
</g>
<!-- fortio.org/fortio&#45;&gt;fortio.org/sets -->
<g id="edge18" class="edge">
<title>fortio.org/fortio&#45;&gt;fortio.org/sets</title>
<path fill="none" stroke="black" d="M416.18,-1270.77C432.95,-1308.71 474.59,-1397.14 524.75,-1461.28 608.86,-1568.85 693.87,-1526.32 780,-1632.28 837.65,-1703.21 777.33,-1768.62 848.25,-1826.28 884.69,-1855.91 1012.38,-1842.14 1057.75,-1854.28 1101.75,-1866.05 1149.48,-1886.28 1183.59,-1902.15"/>
<polygon fill="black" stroke="black" points="1181.81,-1905.18 1192.35,-1906.27 1184.79,-1898.84 1181.81,-1905.18"/>
<text text-anchor="middle" x="814.12" y="-1809.14" font-family="Helvetica,sans-Serif" font-size="10.00">v1.3.0</text>
</g>
<!-- fortio.org/fortio&#45;&gt;fortio.org/testscript -->
<g id="edge19" class="edge">
<title>fortio.org/fortio&#45;&gt;fortio.org/testscript</title>
<path fill="none" stroke="black" d="M450.01,-1270.72C483.5,-1285.23 531.88,-1305.56 575,-1321.28 664.8,-1354.03 705.43,-1326.49 780,-1386.28 792.43,-1396.25 787.36,-1405.42 798,-1417.28 809.88,-1430.53 820.44,-1426.18 830.25,-1441.03 849.45,-1470.08 822.32,-1494.04 848.25,-1517.28 896.92,-1560.9 1075.71,-1548.19 1141,-1545.28 1146.05,-1545.06 1151.25,-1544.76 1156.48,-1544.42"/>
<polygon fill="black" stroke="black" points="1156.72,-1547.91 1166.45,-1543.7 1156.22,-1540.93 1156.72,-1547.91"/>
<text text-anchor="middle" x="814.12" y="-1442.78" font-family="Helvetica,sans-Serif" font-size="10.00">v0.3.2</text>
</g>
<!-- fortio.org/fortio&#45;&gt;fortio.org/version -->
<g id="edge20" class="edge">
<title>fortio.org/fortio&#45;&gt;fortio.org/version</title>
<path fill="none" stroke="black" d="M434.33,-1233.83C458.12,-1215.29 491.77,-1184.34 506.75,-1148.28 532.98,-1085.15 492.16,-593.38 524.75,-533.28 590.56,-411.92 701.7,-469.98 780,-356.28 798.95,-328.76 787.66,-315.06 798,-283.28 816.3,-227.03 800.62,-195.11 848.25,-160.03 938.92,-93.26 1260.88,-70.34 1354.25,-133.28 1406.41,-168.45 1422.43,-246.57 1427.34,-289.53"/>
<polygon fill="black" stroke="black" points="1423.85,-289.79 1428.32,-299.4 1430.81,-289.1 1423.85,-289.79"/>
<text text-anchor="middle" x="953" y="-161.78" font-family="Helvetica,sans-Serif" font-size="10.00">v1.0.4</text>
</g>
<!-- grol.io/grol -->
<g id="node44" class="node">
<title>grol.io/grol</title>
<path fill="lightgreen" stroke="black" d="M705,-591.28C705,-591.28 650,-591.28 650,-591.28 644,-591.28 638,-585.28 638,-579.28 638,-579.28 638,-567.28 638,-567.28 638,-561.28 644,-555.28 650,-555.28 650,-555.28 705,-555.28 705,-555.28 711,-555.28 717,-561.28 717,-567.28 717,-567.28 717,-579.28 717,-579.28 717,-585.28 711,-591.28 705,-591.28"/>
<text text-anchor="middle" x="677.5" y="-567.48" font-family="Helvetica,sans-Serif" font-size="14.00">grol.io/grol</text>
</g>
<!-- fortio.org/fortio&#45;&gt;grol.io/grol -->
<g id="edge21" class="edge">
<title>fortio.org/fortio&#45;&gt;grol.io/grol</title>
<path fill="none" stroke="black" d="M433.73,-1234.12C457.43,-1215.57 491.34,-1184.43 506.75,-1148.28 539.58,-1071.28 505.77,-853.56 524.75,-772.03 527.93,-758.38 566.54,-667.47 575,-656.28 592.26,-633.45 617.06,-613.03 637.82,-598.15"/>
<polygon fill="black" stroke="black" points="639.59,-601.18 645.79,-592.58 635.59,-595.44 639.59,-601.18"/>
<text text-anchor="middle" x="540.88" y="-773.78" font-family="Helvetica,sans-Serif" font-size="10.00">v0.80.3</text>
</g>
<!-- fortio.org/fortiotel -->
<g id="node6" class="node">
<title>fortio.org/fortiotel</title>
<path fill="lightblue" stroke="black" d="M166.38,-1906.28C166.38,-1906.28 73.12,-1906.28 73.12,-1906.28 67.12,-1906.28 61.12,-1900.28 61.12,-1894.28 61.12,-1894.28 61.12,-1882.28 61.12,-1882.28 61.12,-1876.28 67.12,-1870.28 73.12,-1870.28 73.12,-1870.28 166.38,-1870.28 166.38,-1870.28 172.38,-1870.28 178.38,-1876.28 178.38,-1882.28 178.38,-1882.28 178.38,-1894.28 178.38,-1894.28 178.38,-1900.28 172.38,-1906.28 166.38,-1906.28"/>
<text text-anchor="middle" x="119.75" y="-1882.48" font-family="Helvetica,sans-Serif" font-size="14.00">fortio.org/fortiotel</text>
</g>
<!-- fortio.org/fortiotel&#45;&gt;fortio.org/cli -->
<g id="edge22" class="edge">
<title>fortio.org/fortiotel&#45;&gt;fortio.org/cli</title>
<path fill="none" stroke="black" d="M140.55,-1869.95C172.87,-1841.14 240.16,-1785.74 307.75,-1758.28 390.81,-1724.54 440.32,-1785.49 506.75,-1725.28 529.6,-1704.58 511.26,-1686.01 524.75,-1658.28 535.2,-1636.8 547.32,-1637.12 557,-1615.28 574.1,-1576.69 546.08,-1552.78 575,-1522.03 655.25,-1436.69 756.59,-1547.38 830.25,-1456.28 860.74,-1418.58 816.16,-1056.63 848.25,-1020.28 910.73,-949.51 977.09,-1034.34 1057.75,-985.28 1069.14,-978.35 1064.94,-969.09 1075.75,-961.28 1092.32,-949.31 1139.36,-934.32 1177.26,-923.51"/>
<polygon fill="black" stroke="black" points="1178.04,-926.93 1186.72,-920.85 1176.15,-920.19 1178.04,-926.93"/>
<text text-anchor="middle" x="677.5" y="-1523.78" font-family="Helvetica,sans-Serif" font-size="10.00">v1.10.0</text>
</g>
<!-- fortio.org/fortiotel&#45;&gt;fortio.org/dflag -->
<g id="edge23" class="edge">
<title>fortio.org/fortiotel&#45;&gt;fortio.org/dflag</title>
<path fill="none" stroke="black" d="M138.19,-1906.62C168.92,-1937.36 236.26,-1997.92 307.75,-2018.28 532.87,-2082.39 599.18,-2046.96 830.25,-2084.28 849.9,-2087.46 871.22,-2091.46 890.44,-2095.29"/>
<polygon fill="black" stroke="black" points="889.52,-2098.67 900.01,-2097.22 890.9,-2091.81 889.52,-2098.67"/>
<text text-anchor="middle" x="540.88" y="-2062.53" font-family="Helvetica,sans-Serif" font-size="10.00">v1.8.1</text>
</g>
<!-- fortio.org/fortiotel&#45;&gt;fortio.org/fortio -->
<g id="edge24" class="edge">
<title>fortio.org/fortiotel&#45;&gt;fortio.org/fortio</title>
<path fill="none" stroke="black" d="M131,-1869.95C151.89,-1832.5 200.66,-1744.39 239.5,-1669.28 262.72,-1624.39 269.79,-1613.71 289.75,-1567.28 334.14,-1464.01 377.74,-1337.64 396.57,-1281.53"/>
<polygon fill="black" stroke="black" points="399.87,-1282.68 399.72,-1272.09 393.23,-1280.46 399.87,-1282.68"/>
<text text-anchor="middle" x="273.62" y="-1636.16" font-family="Helvetica,sans-Serif" font-size="10.00">v1.69.1</text>
</g>
<!-- fortio.org/fortiotel&#45;&gt;fortio.org/log -->
<g id="edge25" class="edge">
<title>fortio.org/fortiotel&#45;&gt;fortio.org/log</title>
<path fill="none" stroke="black" d="M134.16,-1906.59C161.8,-1942.59 229.17,-2021.65 307.75,-2051.28 515.44,-2129.6 1100.04,-2210.86 1304,-2123.28 1332.38,-2111.1 1340.81,-2103.09 1354.25,-2075.28 1423.13,-1932.8 1429.1,-1420.33 1429.5,-1291.72"/>
<polygon fill="black" stroke="black" points="1433,-1292.02 1429.52,-1282.01 1426,-1292 1433,-1292.02"/>
<text text-anchor="middle" x="814.12" y="-2153.34" font-family="Helvetica,sans-Serif" font-size="10.00">v1.17.2</text>
</g>
<!-- fortio.org/struct2env -->
<g id="node18" class="node">
<title>fortio.org/struct2env</title>
<path fill="lightblue" stroke="black" d="M1675,-49.28C1675,-49.28 1563.75,-49.28 1563.75,-49.28 1557.75,-49.28 1551.75,-43.28 1551.75,-37.28 1551.75,-37.28 1551.75,-25.28 1551.75,-25.28 1551.75,-19.28 1557.75,-13.28 1563.75,-13.28 1563.75,-13.28 1675,-13.28 1675,-13.28 1681,-13.28 1687,-19.28 1687,-25.28 1687,-25.28 1687,-37.28 1687,-37.28 1687,-43.28 1681,-49.28 1675,-49.28"/>
<text text-anchor="middle" x="1619.38" y="-25.48" font-family="Helvetica,sans-Serif" font-size="14.00">fortio.org/struct2env</text>
</g>
<!-- fortio.org/log&#45;&gt;fortio.org/struct2env -->
<g id="edge26" class="edge">
<title>fortio.org/log&#45;&gt;fortio.org/struct2env</title>
<path fill="none" stroke="black" d="M1434.29,-1243.93C1455.21,-1106.07 1587.66,-233.6 1613.87,-60.95"/>
<polygon fill="black" stroke="black" points="1617.3,-61.65 1615.35,-51.24 1610.38,-60.6 1617.3,-61.65"/>
<text text-anchor="middle" x="1520.25" y="-758.79" font-family="Helvetica,sans-Serif" font-size="10.00">v0.4.2</text>
</g>
<!-- fortio.org/logc -->
<g id="node8" class="node">
<title>fortio.org/logc</title>
<path fill="lightblue" stroke="black" d="M444.12,-1139.28C444.12,-1139.28 370.38,-1139.28 370.38,-1139.28 364.38,-1139.28 358.38,-1133.28 358.38,-1127.28 358.38,-1127.28 358.38,-1115.28 358.38,-1115.28 358.38,-1109.28 364.38,-1103.28 370.38,-1103.28 370.38,-1103.28 444.12,-1103.28 444.12,-1103.28 450.12,-1103.28 456.12,-1109.28 456.12,-1115.28 456.12,-1115.28 456.12,-1127.28 456.12,-1127.28 456.12,-1133.28 450.12,-1139.28 444.12,-1139.28"/>
<text text-anchor="middle" x="407.25" y="-1115.48" font-family="Helvetica,sans-Serif" font-size="14.00">fortio.org/logc</text>
</g>
<!-- fortio.org/logc&#45;&gt;fortio.org/cli -->
<g id="edge27" class="edge">
<title>fortio.org/logc&#45;&gt;fortio.org/cli</title>
<path fill="none" stroke="black" d="M442.59,-1102.81C461.59,-1092.51 485.57,-1079.35 506.75,-1067.28 659.97,-980 678.16,-911.82 848.25,-865.28 973.8,-830.93 1014.54,-842.45 1141,-873.28 1154.35,-876.54 1168.33,-881.4 1181.17,-886.51"/>
<polygon fill="black" stroke="black" points="1179.67,-889.68 1190.25,-890.25 1182.34,-883.21 1179.67,-889.68"/>
<text text-anchor="middle" x="814.12" y="-882.82" font-family="Helvetica,sans-Serif" font-size="10.00">v1.10.0</text>
</g>
<!-- fortio.org/logc&#45;&gt;fortio.org/log -->
<g id="edge28" class="edge">
<title>fortio.org/logc&#45;&gt;fortio.org/log</title>
<path fill="none" stroke="black" d="M444.59,-1139.78C511.66,-1174.15 659.08,-1250.77 780,-1321.28 810.97,-1339.34 814.45,-1352.31 848.25,-1364.28 896.14,-1381.24 1257.57,-1421.92 1304,-1401.28 1354.89,-1378.67 1393.86,-1324.09 1414.08,-1290.44"/>
<polygon fill="black" stroke="black" points="1416.97,-1292.44 1418.99,-1282.04 1410.92,-1288.91 1416.97,-1292.44"/>
<text text-anchor="middle" x="953" y="-1396.51" font-family="Helvetica,sans-Serif" font-size="10.00">v1.17.2</text>
</g>
<!-- fortio.org/logc&#45;&gt;fortio.org/scli -->
<g id="edge29" class="edge">
<title>fortio.org/logc&#45;&gt;fortio.org/scli</title>
<path fill="none" stroke="black" d="M456.52,-1112.83C502.32,-1104.8 571.17,-1092.74 619.62,-1084.25"/>
<polygon fill="black" stroke="black" points="620.12,-1087.71 629.37,-1082.54 618.91,-1080.82 620.12,-1087.71"/>
<text text-anchor="middle" x="540.88" y="-1102.35" font-family="Helvetica,sans-Serif" font-size="10.00">v1.15.3</text>
</g>
<!-- fortio.org/memstore -->
<g id="node9" class="node">
<title>fortio.org/memstore</title>
<path fill="lightblue" stroke="black" d="M175,-2164.28C175,-2164.28 64.5,-2164.28 64.5,-2164.28 58.5,-2164.28 52.5,-2158.28 52.5,-2152.28 52.5,-2152.28 52.5,-2140.28 52.5,-2140.28 52.5,-2134.28 58.5,-2128.28 64.5,-2128.28 64.5,-2128.28 175,-2128.28 175,-2128.28 181,-2128.28 187,-2134.28 187,-2140.28 187,-2140.28 187,-2152.28 187,-2152.28 187,-2158.28 181,-2164.28 175,-2164.28"/>
<text text-anchor="middle" x="119.75" y="-2140.48" font-family="Helvetica,sans-Serif" font-size="14.00">fortio.org/memstore</text>
</g>
<!-- fortio.org/memstore&#45;&gt;fortio.org/dflag -->
<g id="edge30" class="edge">
<title>fortio.org/memstore&#45;&gt;fortio.org/dflag</title>
<path fill="none" stroke="black" d="M187.35,-2145.51C313.13,-2143.71 594.2,-2138.02 830.25,-2121.28 849.74,-2119.9 870.94,-2117.83 890.1,-2115.75"/>
<polygon fill="black" stroke="black" points="890.37,-2119.25 899.92,-2114.66 889.6,-2112.29 890.37,-2119.25"/>
<text text-anchor="middle" x="540.88" y="-2138.55" font-family="Helvetica,sans-Serif" font-size="10.00">v1.7.3</text>
</g>
<!-- fortio.org/memstore&#45;&gt;fortio.org/fortio -->
<g id="edge31" class="edge">
<title>fortio.org/memstore&#45;&gt;fortio.org/fortio</title>
<path fill="none" stroke="black" d="M153.9,-2127.87C194.18,-2103.45 260.37,-2056.24 289.75,-1995.28 320.39,-1931.72 297.77,-1748.13 307.75,-1678.28 329.38,-1526.98 377.92,-1350.15 397.66,-1281.55"/>
<polygon fill="black" stroke="black" points="400.94,-1282.79 400.36,-1272.21 394.22,-1280.84 400.94,-1282.79"/>
<text text-anchor="middle" x="273.62" y="-2042.89" font-family="Helvetica,sans-Serif" font-size="10.00">v1.68.0</text>
</g>
<!-- fortio.org/memstore&#45;&gt;fortio.org/log -->
<g id="edge32" class="edge">
<title>fortio.org/memstore&#45;&gt;fortio.org/log</title>
<path fill="none" stroke="black" d="M187.22,-2155.26C204.84,-2159.26 223.43,-2165.01 239.5,-2173.28 249.02,-2178.18 248.71,-2183.17 257.5,-2189.28 318.97,-2232.01 331.39,-2268.28 406.25,-2268.28 406.25,-2268.28 406.25,-2268.28 815.12,-2268.28 940.03,-2268.28 1297.67,-2220.64 1354.25,-2109.28 1429.15,-1961.87 1430.59,-1423.91 1429.78,-1291.76"/>
<polygon fill="black" stroke="black" points="1433.28,-1292.08 1429.71,-1282.1 1426.28,-1292.13 1433.28,-1292.08"/>
<text text-anchor="middle" x="814.12" y="-2270.03" font-family="Helvetica,sans-Serif" font-size="10.00">v1.17.1</text>
</g>
<!-- fortio.org/memstore&#45;&gt;fortio.org/scli -->
<g id="edge33" class="edge">
<title>fortio.org/memstore&#45;&gt;fortio.org/scli</title>
<path fill="none" stroke="black" d="M187.18,-2128.47C223.89,-2114.96 266.62,-2092.39 289.75,-2056.28 326.89,-1998.32 288.74,-1813.19 307.75,-1747.03 386.09,-1474.35 589.37,-1189.67 655.43,-1101.75"/>
<polygon fill="black" stroke="black" points="658.12,-1104 661.35,-1093.91 652.53,-1099.78 658.12,-1104"/>
<text text-anchor="middle" x="407.25" y="-1748.78" font-family="Helvetica,sans-Serif" font-size="10.00">v1.15.3</text>
</g>
<!-- fortio.org/memstore&#45;&gt;fortio.org/sets -->
<g id="edge34" class="edge">
<title>fortio.org/memstore&#45;&gt;fortio.org/sets</title>
<path fill="none" stroke="black" d="M187.31,-2159.53C257.88,-2173.12 364.77,-2192.28 406.25,-2192.28 406.25,-2192.28 406.25,-2192.28 815.12,-2192.28 925.89,-2192.28 960.44,-2188.21 1057.75,-2135.28 1135.28,-2093.12 1191.7,-2000.55 1216.49,-1953.68"/>
<polygon fill="black" stroke="black" points="1219.52,-1955.44 1221.01,-1944.95 1213.31,-1952.22 1219.52,-1955.44"/>
<text text-anchor="middle" x="677.5" y="-2194.03" font-family="Helvetica,sans-Serif" font-size="10.00">v1.2.0</text>
</g>
<!-- fortio.org/multicurl -->
<g id="node10" class="node">
<title>fortio.org/multicurl</title>
<path fill="lightblue" stroke="black" d="M1003,-1355.28C1003,-1355.28 903,-1355.28 903,-1355.28 897,-1355.28 891,-1349.28 891,-1343.28 891,-1343.28 891,-1331.28 891,-1331.28 891,-1325.28 897,-1319.28 903,-1319.28 903,-1319.28 1003,-1319.28 1003,-1319.28 1009,-1319.28 1015,-1325.28 1015,-1331.28 1015,-1331.28 1015,-1343.28 1015,-1343.28 1015,-1349.28 1009,-1355.28 1003,-1355.28"/>
<text text-anchor="middle" x="953" y="-1331.48" font-family="Helvetica,sans-Serif" font-size="14.00">fortio.org/multicurl</text>
</g>
<!-- fortio.org/multicurl&#45;&gt;fortio.org/cli -->
<g id="edge35" class="edge">
<title>fortio.org/multicurl&#45;&gt;fortio.org/cli</title>
<path fill="none" stroke="black" d="M995.5,-1318.88C1017.26,-1307.15 1042.49,-1289.88 1057.75,-1267.28 1079.18,-1235.55 1054.28,-1214.74 1075.75,-1183.03 1095.33,-1154.12 1122.8,-1169.08 1141,-1139.28 1176.92,-1080.47 1129.92,-1047.76 1159,-985.28 1168.01,-965.92 1183.88,-948.28 1198.38,-934.88"/>
<polygon fill="black" stroke="black" points="1200.41,-937.75 1205.57,-928.5 1195.77,-932.52 1200.41,-937.75"/>
<text text-anchor="middle" x="1108.38" y="-1184.78" font-family="Helvetica,sans-Serif" font-size="10.00">v1.10.0</text>
</g>
<!-- fortio.org/multicurl&#45;&gt;fortio.org/log -->
<g id="edge36" class="edge">
<title>fortio.org/multicurl&#45;&gt;fortio.org/log</title>
<path fill="none" stroke="black" d="M1015.26,-1342.7C1034.6,-1344.17 1056.05,-1345.56 1075.75,-1346.28 1104.73,-1347.35 1112.97,-1353.7 1141,-1346.28 1149.9,-1343.93 1150.39,-1339.29 1159,-1336.03 1241.91,-1304.66 1269.81,-1322.28 1354.25,-1295.28 1363.14,-1292.44 1372.39,-1288.9 1381.25,-1285.19"/>
<polygon fill="black" stroke="black" points="1382.63,-1288.41 1390.42,-1281.24 1379.85,-1281.99 1382.63,-1288.41"/>
<text text-anchor="middle" x="1231.5" y="-1337.78" font-family="Helvetica,sans-Serif" font-size="10.00">v1.17.2</text>
</g>
<!-- fortio.org/progressbar -->
<g id="node12" class="node">
<title>fortio.org/progressbar</title>
<path fill="lightblue" stroke="black" d="M1292,-1392.28C1292,-1392.28 1171,-1392.28 1171,-1392.28 1165,-1392.28 1159,-1386.28 1159,-1380.28 1159,-1380.28 1159,-1368.28 1159,-1368.28 1159,-1362.28 1165,-1356.28 1171,-1356.28 1171,-1356.28 1292,-1356.28 1292,-1356.28 1298,-1356.28 1304,-1362.28 1304,-1368.28 1304,-1368.28 1304,-1380.28 1304,-1380.28 1304,-1386.28 1298,-1392.28 1292,-1392.28"/>
<text text-anchor="middle" x="1231.5" y="-1368.48" font-family="Helvetica,sans-Serif" font-size="14.00">fortio.org/progressbar</text>
</g>
<!-- fortio.org/multicurl&#45;&gt;fortio.org/progressbar -->
<g id="edge37" class="edge">
<title>fortio.org/multicurl&#45;&gt;fortio.org/progressbar</title>
<path fill="none" stroke="black" d="M1008.82,-1355.77C1029.54,-1361.91 1053.49,-1368.01 1075.75,-1371.28 1098.83,-1374.67 1124.04,-1376.11 1147.3,-1376.53"/>
<polygon fill="black" stroke="black" points="1146.98,-1380.02 1157.02,-1376.64 1147.06,-1373.02 1146.98,-1380.02"/>
<text text-anchor="middle" x="1108.38" y="-1378.09" font-family="Helvetica,sans-Serif" font-size="10.00">v0.12.0</text>
</g>
<!-- fortio.org/multicurl&#45;&gt;fortio.org/testscript -->
<g id="edge38" class="edge">
<title>fortio.org/multicurl&#45;&gt;fortio.org/testscript</title>
<path fill="none" stroke="black" d="M1015.4,-1349.75C1030.04,-1354.43 1045.08,-1360.76 1057.75,-1369.28 1068.23,-1376.33 1067.46,-1381.75 1075.75,-1391.28 1111.52,-1432.39 1118.92,-1444.37 1159,-1481.28 1170.55,-1491.92 1183.94,-1502.76 1195.98,-1512.03"/>
<polygon fill="black" stroke="black" points="1193.59,-1514.61 1203.68,-1517.87 1197.83,-1509.04 1193.59,-1514.61"/>
<text text-anchor="middle" x="1108.38" y="-1465.21" font-family="Helvetica,sans-Serif" font-size="10.00">v0.3.2</text>
</g>
<!-- fortio.org/multicurl&#45;&gt;fortio.org/version -->
<g id="edge39" class="edge">
<title>fortio.org/multicurl&#45;&gt;fortio.org/version</title>
<path fill="none" stroke="black" d="M1015.32,-1340.32C1063.06,-1341.23 1123.97,-1338.7 1141,-1321.28 1185.71,-1275.54 1117.13,-1082.38 1159,-1034.03 1217.04,-967.03 1294.6,-1058.86 1354.25,-993.28 1398.29,-944.87 1422.59,-472.11 1428.22,-348.65"/>
<polygon fill="black" stroke="black" points="1431.7,-349.17 1428.66,-339.02 1424.71,-348.86 1431.7,-349.17"/>
<text text-anchor="middle" x="1231.5" y="-1035.78" font-family="Helvetica,sans-Serif" font-size="10.00">v1.0.4</text>
</g>
<!-- fortio.org/otel&#45;sample&#45;app -->
<g id="node11" class="node">
<title>fortio.org/otel&#45;sample&#45;app</title>
<path fill="lightblue" stroke="black" d="M193,-2218.28C193,-2218.28 46.5,-2218.28 46.5,-2218.28 40.5,-2218.28 34.5,-2212.28 34.5,-2206.28 34.5,-2206.28 34.5,-2194.28 34.5,-2194.28 34.5,-2188.28 40.5,-2182.28 46.5,-2182.28 46.5,-2182.28 193,-2182.28 193,-2182.28 199,-2182.28 205,-2188.28 205,-2194.28 205,-2194.28 205,-2206.28 205,-2206.28 205,-2212.28 199,-2218.28 193,-2218.28"/>
<text text-anchor="middle" x="119.75" y="-2194.48" font-family="Helvetica,sans-Serif" font-size="14.00">fortio.org/otel&#45;sample&#45;app</text>
</g>
<!-- fortio.org/proxy -->
<g id="node13" class="node">
<title>fortio.org/proxy</title>
<path fill="lightblue" stroke="black" d="M160.75,-1562.28C160.75,-1562.28 78.75,-1562.28 78.75,-1562.28 72.75,-1562.28 66.75,-1556.28 66.75,-1550.28 66.75,-1550.28 66.75,-1538.28 66.75,-1538.28 66.75,-1532.28 72.75,-1526.28 78.75,-1526.28 78.75,-1526.28 160.75,-1526.28 160.75,-1526.28 166.75,-1526.28 172.75,-1532.28 172.75,-1538.28 172.75,-1538.28 172.75,-1550.28 172.75,-1550.28 172.75,-1556.28 166.75,-1562.28 160.75,-1562.28"/>
<text text-anchor="middle" x="119.75" y="-1538.48" font-family="Helvetica,sans-Serif" font-size="14.00">fortio.org/proxy</text>
</g>
<!-- fortio.org/proxy&#45;&gt;fortio.org/cli -->
<g id="edge40" class="edge">
<title>fortio.org/proxy&#45;&gt;fortio.org/cli</title>
<path fill="none" stroke="black" d="M173.1,-1543.65C197.15,-1540.42 223.76,-1532.1 239.5,-1512.28 275.25,-1467.27 218.87,-1037.85 257.5,-995.28 295.05,-953.91 458.4,-990.28 506.75,-962.28 549.97,-937.26 531.63,-897.78 575,-873.03 761.77,-766.44 843.45,-822.39 1057.75,-840.28 1095.14,-843.4 1105.87,-841.11 1141,-854.28 1160.84,-861.72 1181.11,-873.74 1197.33,-884.65"/>
<polygon fill="black" stroke="black" points="1194.92,-887.23 1205.13,-890.04 1198.89,-881.47 1194.92,-887.23"/>
<text text-anchor="middle" x="677.5" y="-874.78" font-family="Helvetica,sans-Serif" font-size="10.00">v1.10.0</text>
</g>
<!-- fortio.org/proxy&#45;&gt;fortio.org/dflag -->
<g id="edge41" class="edge">
<title>fortio.org/proxy&#45;&gt;fortio.org/dflag</title>
<path fill="none" stroke="black" d="M169.3,-1562.68C193.74,-1574.28 221.84,-1591.6 239.5,-1615.28 276.23,-1664.55 264.02,-1840.1 307.75,-1883.28 372.49,-1947.21 420.04,-1903.74 506.75,-1931.28 652.77,-1977.66 819.14,-2048.92 901.01,-2085.25"/>
<polygon fill="black" stroke="black" points="899.33,-2088.34 909.89,-2089.21 902.18,-2081.95 899.33,-2088.34"/>
<text text-anchor="middle" x="540.88" y="-1948.69" font-family="Helvetica,sans-Serif" font-size="10.00">v1.8.1</text>
</g>
<!-- fortio.org/proxy&#45;&gt;fortio.org/fortio -->
<g id="edge42" class="edge">
<title>fortio.org/proxy&#45;&gt;fortio.org/fortio</title>
<path fill="none" stroke="black" d="M173.18,-1538.65C195.29,-1534.23 220.29,-1526.34 239.5,-1512.28 322.72,-1451.37 375.01,-1335.24 395.88,-1281.23"/>
<polygon fill="black" stroke="black" points="399.06,-1282.7 399.32,-1272.11 392.51,-1280.23 399.06,-1282.7"/>
<text text-anchor="middle" x="273.62" y="-1498.44" font-family="Helvetica,sans-Serif" font-size="10.00">v1.69.1</text>
</g>
<!-- fortio.org/proxy&#45;&gt;fortio.org/log -->
<g id="edge43" class="edge">
<title>fortio.org/proxy&#45;&gt;fortio.org/log</title>
<path fill="none" stroke="black" d="M173.18,-1552.72C211.96,-1561.89 262.57,-1580.63 289.75,-1618.28 315.09,-1653.39 276.92,-1781.88 307.75,-1812.28 426.46,-1929.33 894.24,-1862.8 1057.75,-1830.28 1201.24,-1801.75 1272.91,-1808.89 1354.25,-1687.28 1398.03,-1621.83 1420.64,-1377.41 1427.34,-1291.98"/>
<polygon fill="black" stroke="black" points="1430.82,-1292.32 1428.09,-1282.08 1423.84,-1291.79 1430.82,-1292.32"/>
<text text-anchor="middle" x="814.12" y="-1869.56" font-family="Helvetica,sans-Serif" font-size="10.00">v1.17.2</text>
</g>
<!-- fortio.org/proxy&#45;&gt;fortio.org/scli -->
<g id="edge44" class="edge">
<title>fortio.org/proxy&#45;&gt;fortio.org/scli</title>
<path fill="none" stroke="black" d="M173.04,-1543.6C197.07,-1540.35 223.68,-1532.03 239.5,-1512.28 268.7,-1475.82 226.85,-1127.53 257.5,-1092.28 346.57,-989.86 528.11,-1027.06 620.21,-1054.85"/>
<polygon fill="black" stroke="black" points="618.95,-1058.13 629.54,-1057.74 621.02,-1051.44 618.95,-1058.13"/>
<text text-anchor="middle" x="407.25" y="-1053.56" font-family="Helvetica,sans-Serif" font-size="10.00">v1.16.1</text>
</g>
<!-- fortio.org/scli&#45;&gt;fortio.org/cli -->
<g id="edge45" class="edge">
<title>fortio.org/scli&#45;&gt;fortio.org/cli</title>
<path fill="none" stroke="black" d="M690.27,-1055.83C714.66,-1019.46 774.59,-939.09 848.25,-905.03 966.59,-850.32 1011.65,-869.93 1141,-886.28 1152.82,-887.78 1165.31,-890.34 1177.1,-893.23"/>
<polygon fill="black" stroke="black" points="1176.11,-896.59 1186.66,-895.69 1177.85,-889.81 1176.11,-896.59"/>
<text text-anchor="middle" x="953" y="-906.78" font-family="Helvetica,sans-Serif" font-size="10.00">v1.10.0</text>
</g>
<!-- fortio.org/scli&#45;&gt;fortio.org/dflag -->
<g id="edge46" class="edge">
<title>fortio.org/scli&#45;&gt;fortio.org/dflag</title>
<path fill="none" stroke="black" d="M686.36,-1092.53C705.11,-1135.91 754.17,-1248.53 798,-1341.28 811.74,-1370.35 822.45,-1374.84 830.25,-1406.03 847.44,-1474.75 813.07,-1981.8 848.25,-2043.28 858.4,-2061.03 875.57,-2074.61 893.05,-2084.66"/>
<polygon fill="black" stroke="black" points="890.96,-2087.51 901.42,-2089.17 894.28,-2081.35 890.96,-2087.51"/>
<text text-anchor="middle" x="814.12" y="-1407.78" font-family="Helvetica,sans-Serif" font-size="10.00">v1.8.1</text>
</g>
<!-- fortio.org/scli&#45;&gt;fortio.org/log -->
<g id="edge47" class="edge">
<title>fortio.org/scli&#45;&gt;fortio.org/log</title>
<path fill="none" stroke="black" d="M688.22,-1092.76C710.39,-1132.8 769.02,-1227.18 848.25,-1267.28 938.84,-1313.13 1246.12,-1283.82 1373.49,-1269.17"/>
<polygon fill="black" stroke="black" points="1373.84,-1272.65 1383.37,-1268.02 1373.04,-1265.7 1373.84,-1272.65"/>
<text text-anchor="middle" x="1108.38" y="-1293.2" font-family="Helvetica,sans-Serif" font-size="10.00">v1.17.2</text>
</g>
<!-- fortio.org/scli&#45;&gt;fortio.org/version -->
<g id="edge48" class="edge">
<title>fortio.org/scli&#45;&gt;fortio.org/version</title>
<path fill="none" stroke="black" d="M685.77,-1055.86C701.66,-1017.31 742.51,-926.71 798,-866.28 923.5,-729.62 1039.19,-783.41 1141,-628.28 1163.38,-594.18 1130.54,-567.5 1159,-538.28 1205.11,-490.94 1249.47,-542.63 1304,-505.28 1361.85,-465.66 1400.39,-389.8 1418.18,-348.25"/>
<polygon fill="black" stroke="black" points="1421.36,-349.72 1421.97,-339.14 1414.9,-347.03 1421.36,-349.72"/>
<text text-anchor="middle" x="1108.38" y="-703.23" font-family="Helvetica,sans-Serif" font-size="10.00">v1.0.4</text>
</g>
<!-- fortio.org/sets&#45;&gt;fortio.org/assert -->
<g id="edge49" class="edge">
<title>fortio.org/sets&#45;&gt;fortio.org/assert</title>
<path fill="none" stroke="black" d="M1248.29,-1943.64C1282.94,-1983.92 1365.8,-2080.23 1406.35,-2127.37"/>
<polygon fill="black" stroke="black" points="1403.47,-2129.4 1412.65,-2134.69 1408.78,-2124.83 1403.47,-2129.4"/>
<text text-anchor="middle" x="1338.12" y="-2062.04" font-family="Helvetica,sans-Serif" font-size="10.00">v1.2.1</text>
</g>
<!-- fortio.org/slack&#45;proxy -->
<g id="node17" class="node">
<title>fortio.org/slack&#45;proxy</title>
<path fill="lightblue" stroke="black" d="M178.38,-879.28C178.38,-879.28 61.12,-879.28 61.12,-879.28 55.12,-879.28 49.12,-873.28 49.12,-867.28 49.12,-867.28 49.12,-855.28 49.12,-855.28 49.12,-849.28 55.12,-843.28 61.12,-843.28 61.12,-843.28 178.38,-843.28 178.38,-843.28 184.38,-843.28 190.38,-849.28 190.38,-855.28 190.38,-855.28 190.38,-867.28 190.38,-867.28 190.38,-873.28 184.38,-879.28 178.38,-879.28"/>
<text text-anchor="middle" x="119.75" y="-855.48" font-family="Helvetica,sans-Serif" font-size="14.00">fortio.org/slack&#45;proxy</text>
</g>
<!-- fortio.org/slack&#45;proxy&#45;&gt;fortio.org/assert -->
<g id="edge50" class="edge">
<title>fortio.org/slack&#45;proxy&#45;&gt;fortio.org/assert</title>
<path fill="none" stroke="black" d="M190.84,-874.68C209.46,-881.65 227.65,-892.23 239.5,-908.28 254.85,-929.09 255.23,-1114.53 257.5,-1140.28 270.3,-1285.31 278.8,-1321.1 289.75,-1466.28 292.65,-1504.67 284.76,-1781.41 307.75,-1812.28 363.83,-1887.6 419.92,-1847.52 506.75,-1883.28 653.6,-1943.76 733.52,-1909.08 830.25,-2035.03 857.82,-2070.93 814.01,-2105.68 848.25,-2135.28 923.67,-2200.49 1228.65,-2176.4 1364.12,-2161.98"/>
<polygon fill="black" stroke="black" points="1364.45,-2165.46 1374.02,-2160.91 1363.7,-2158.5 1364.45,-2165.46"/>
<text text-anchor="middle" x="814.12" y="-2036.78" font-family="Helvetica,sans-Serif" font-size="10.00">v1.2.1</text>
</g>
<!-- fortio.org/slack&#45;proxy&#45;&gt;fortio.org/fortio -->
<g id="edge51" class="edge">
<title>fortio.org/slack&#45;proxy&#45;&gt;fortio.org/fortio</title>
<path fill="none" stroke="black" d="M190.72,-875.49C209.11,-882.46 227.2,-892.85 239.5,-908.28 272.55,-949.78 239.72,-976.3 257.5,-1026.28 266.97,-1052.89 278.83,-1054.99 289.75,-1081.03 301.71,-1109.57 292.65,-1121.28 307.75,-1148.28 324.82,-1178.81 352.86,-1207.18 374.66,-1226.55"/>
<polygon fill="black" stroke="black" points="372.29,-1229.12 382.13,-1233.03 376.88,-1223.84 372.29,-1229.12"/>
<text text-anchor="middle" x="273.62" y="-1082.78" font-family="Helvetica,sans-Serif" font-size="10.00">v1.69.1</text>
</g>
<!-- fortio.org/slack&#45;proxy&#45;&gt;fortio.org/log -->
<g id="edge52" class="edge">
<title>fortio.org/slack&#45;proxy&#45;&gt;fortio.org/log</title>
<path fill="none" stroke="black" d="M124.27,-842.96C136.99,-781.77 186.42,-582.63 307.75,-481.28 384.73,-416.98 427.82,-445.08 524.75,-419.28 637.67,-389.23 670.57,-397.26 780,-356.28 788.42,-353.13 789.53,-350.06 798,-347.03 819.51,-339.36 825.54,-338.68 848.25,-336.28 1049.68,-314.98 1106.82,-289.94 1304,-336.28 1328.28,-341.99 1340.24,-340.64 1354.25,-361.28 1404.24,-434.95 1424.73,-1085.68 1428.74,-1232.8"/>
<polygon fill="black" stroke="black" points="1425.23,-1232.58 1429,-1242.48 1432.23,-1232.39 1425.23,-1232.58"/>
<text text-anchor="middle" x="814.12" y="-348.78" font-family="Helvetica,sans-Serif" font-size="10.00">v1.17.2</text>
</g>
<!-- fortio.org/slack&#45;proxy&#45;&gt;fortio.org/scli -->
<g id="edge53" class="edge">
<title>fortio.org/slack&#45;proxy&#45;&gt;fortio.org/scli</title>
<path fill="none" stroke="black" d="M190.58,-846.48C269.93,-832.88 401.98,-820.15 506.75,-859.03 591.79,-890.59 644.29,-994.46 665.57,-1045.48"/>
<polygon fill="black" stroke="black" points="662.3,-1046.74 669.3,-1054.7 668.79,-1044.11 662.3,-1046.74"/>
<text text-anchor="middle" x="407.25" y="-860.78" font-family="Helvetica,sans-Serif" font-size="10.00">v1.16.1</text>
</g>
<!-- fortio.org/term -->
<g id="node19" class="node">
<title>fortio.org/term</title>
<path fill="steelblue" stroke="black" d="M1269.88,-496.28C1269.88,-496.28 1193.12,-496.28 1193.12,-496.28 1187.12,-496.28 1181.12,-490.28 1181.12,-484.28 1181.12,-484.28 1181.12,-472.28 1181.12,-472.28 1181.12,-466.28 1187.12,-460.28 1193.12,-460.28 1193.12,-460.28 1269.88,-460.28 1269.88,-460.28 1275.88,-460.28 1281.88,-466.28 1281.88,-472.28 1281.88,-472.28 1281.88,-484.28 1281.88,-484.28 1281.88,-490.28 1275.88,-496.28 1269.88,-496.28"/>
<text text-anchor="middle" x="1231.5" y="-472.48" font-family="Helvetica,sans-Serif" font-size="14.00">fortio.org/term</text>
</g>
<!-- fortio.org/terminal -->
<g id="node20" class="node">
<title>fortio.org/terminal</title>
<path fill="lightblue" stroke="black" d="M1001.88,-542.28C1001.88,-542.28 904.12,-542.28 904.12,-542.28 898.12,-542.28 892.12,-536.28 892.12,-530.28 892.12,-530.28 892.12,-518.28 892.12,-518.28 892.12,-512.28 898.12,-506.28 904.12,-506.28 904.12,-506.28 1001.88,-506.28 1001.88,-506.28 1007.88,-506.28 1013.88,-512.28 1013.88,-518.28 1013.88,-518.28 1013.88,-530.28 1013.88,-530.28 1013.88,-536.28 1007.88,-542.28 1001.88,-542.28"/>
<text text-anchor="middle" x="953" y="-518.48" font-family="Helvetica,sans-Serif" font-size="14.00">fortio.org/terminal</text>
</g>
<!-- fortio.org/terminal&#45;&gt;fortio.org/cli -->
<g id="edge54" class="edge">
<title>fortio.org/terminal&#45;&gt;fortio.org/cli</title>
<path fill="none" stroke="black" d="M1014.18,-539.41C1067.07,-552.94 1136.34,-571.34 1141,-576.03 1184.27,-619.63 1215.65,-807.25 1226.42,-880.15"/>
<polygon fill="black" stroke="black" points="1222.91,-880.33 1227.81,-889.72 1229.84,-879.32 1222.91,-880.33"/>
<text text-anchor="middle" x="1108.38" y="-577.78" font-family="Helvetica,sans-Serif" font-size="10.00">v1.10.0</text>
</g>
<!-- fortio.org/terminal&#45;&gt;fortio.org/log -->
<g id="edge55" class="edge">
<title>fortio.org/terminal&#45;&gt;fortio.org/log</title>
<path fill="none" stroke="black" d="M1014.34,-526.2C1114.85,-530.76 1309.94,-545.91 1354.25,-595.28 1397.43,-643.39 1422.29,-1109.16 1428.15,-1232.46"/>
<polygon fill="black" stroke="black" points="1424.65,-1232.58 1428.61,-1242.41 1431.64,-1232.26 1424.65,-1232.58"/>
<text text-anchor="middle" x="1231.5" y="-568.43" font-family="Helvetica,sans-Serif" font-size="10.00">v1.17.2</text>
</g>
<!-- fortio.org/terminal&#45;&gt;fortio.org/safecast -->
<g id="edge56" class="edge">
<title>fortio.org/terminal&#45;&gt;fortio.org/safecast</title>
<path fill="none" stroke="black" d="M1014.24,-508.6C1028.76,-504.03 1044.04,-498.55 1057.75,-492.28 1066.33,-488.36 1067.19,-484.99 1075.75,-481.03 1103.37,-468.26 1112.81,-471.73 1141,-460.28 1149.29,-456.92 1150.81,-454.87 1159,-451.28 1162.34,-449.82 1165.79,-448.36 1169.29,-446.92"/>
<polygon fill="black" stroke="black" points="1170.47,-450.22 1178.44,-443.24 1167.86,-443.72 1170.47,-450.22"/>
<text text-anchor="middle" x="1108.38" y="-482.78" font-family="Helvetica,sans-Serif" font-size="10.00">v1.0.0</text>
</g>
<!-- fortio.org/terminal&#45;&gt;fortio.org/term -->
<g id="edge57" class="edge">
<title>fortio.org/terminal&#45;&gt;fortio.org/term</title>
<path fill="none" stroke="black" d="M1014.26,-514.89C1050.93,-509.11 1098.7,-501.46 1141,-494.28 1150.28,-492.71 1160.1,-491 1169.7,-489.3"/>
<polygon fill="black" stroke="black" points="1170.1,-492.79 1179.33,-487.59 1168.87,-485.89 1170.1,-492.79"/>
<text text-anchor="middle" x="1108.38" y="-506.24" font-family="Helvetica,sans-Serif" font-size="10.00">v0.29.0&#45;fortio&#45;1</text>
</g>
<!-- fortio.org/terminal/fps -->
<g id="node21" class="node">
<title>fortio.org/terminal/fps</title>
<path fill="lightblue" stroke="black" d="M179.5,-301.28C179.5,-301.28 60,-301.28 60,-301.28 54,-301.28 48,-295.28 48,-289.28 48,-289.28 48,-277.28 48,-277.28 48,-271.28 54,-265.28 60,-265.28 60,-265.28 179.5,-265.28 179.5,-265.28 185.5,-265.28 191.5,-271.28 191.5,-277.28 191.5,-277.28 191.5,-289.28 191.5,-289.28 191.5,-295.28 185.5,-301.28 179.5,-301.28"/>
<text text-anchor="middle" x="119.75" y="-277.48" font-family="Helvetica,sans-Serif" font-size="14.00">fortio.org/terminal/fps</text>
</g>
<!-- fortio.org/terminal/fps&#45;&gt;fortio.org/cli -->
<g id="edge58" class="edge">
<title>fortio.org/terminal/fps&#45;&gt;fortio.org/cli</title>
<path fill="none" stroke="black" d="M130.91,-301.7C156.12,-346.2 225.53,-461.31 307.75,-535.28 390.99,-610.18 417,-632.83 524.75,-663.28 541.23,-667.94 1127.47,-663.8 1141,-674.28 1164.69,-692.64 1149.17,-710.96 1159,-739.28 1176.64,-790.1 1201.92,-847.44 1217.22,-880.85"/>
<polygon fill="black" stroke="black" points="1214,-882.23 1221.36,-889.84 1220.36,-879.3 1214,-882.23"/>
<text text-anchor="middle" x="677.5" y="-668.04" font-family="Helvetica,sans-Serif" font-size="10.00">v1.10.0</text>
</g>
<!-- fortio.org/terminal/fps&#45;&gt;fortio.org/fortio -->
<g id="edge59" class="edge">
<title>fortio.org/terminal/fps&#45;&gt;fortio.org/fortio</title>
<path fill="none" stroke="black" d="M125.14,-301.75C141.59,-371.29 200.57,-624.04 239.5,-834.28 249,-885.58 241.37,-900.67 257.5,-950.28 267.2,-980.1 280.38,-983.11 289.75,-1013.03 307.87,-1070.9 281.63,-1093.55 307.75,-1148.28 322.62,-1179.45 350.35,-1207.41 372.6,-1226.46"/>
<polygon fill="black" stroke="black" points="370.35,-1229.14 380.27,-1232.85 374.83,-1223.76 370.35,-1229.14"/>
<text text-anchor="middle" x="273.62" y="-1014.78" font-family="Helvetica,sans-Serif" font-size="10.00">v1.69.1</text>
</g>
<!-- fortio.org/terminal/fps&#45;&gt;fortio.org/log -->
<g id="edge60" class="edge">
<title>fortio.org/terminal/fps&#45;&gt;fortio.org/log</title>
<path fill="none" stroke="black" d="M142.02,-264.94C187.33,-227.82 298.09,-147.28 406.25,-147.28 406.25,-147.28 406.25,-147.28 1232.5,-147.28 1332.42,-147.28 1322.19,-241.65 1354.25,-336.28 1412.53,-508.3 1426.51,-1094.27 1429.03,-1232.77"/>
<polygon fill="black" stroke="black" points="1425.52,-1232.61 1429.2,-1242.55 1432.52,-1232.49 1425.52,-1232.61"/>
<text text-anchor="middle" x="814.12" y="-149.03" font-family="Helvetica,sans-Serif" font-size="10.00">v1.17.2</text>
</g>
<!-- fortio.org/terminal/fps&#45;&gt;fortio.org/safecast -->
<g id="edge61" class="edge">
<title>fortio.org/terminal/fps&#45;&gt;fortio.org/safecast</title>
<path fill="none" stroke="black" d="M178.39,-264.83C329.86,-219.7 748.69,-116.59 1057.75,-247.28 1129.91,-277.8 1186.96,-354.72 1213.79,-396.41"/>
<polygon fill="black" stroke="black" points="1210.7,-398.07 1218.99,-404.67 1216.62,-394.34 1210.7,-398.07"/>
<text text-anchor="middle" x="677.5" y="-190.35" font-family="Helvetica,sans-Serif" font-size="10.00">v1.0.0</text>
</g>
<!-- fortio.org/terminal/fps&#45;&gt;fortio.org/terminal -->
<g id="edge62" class="edge">
<title>fortio.org/terminal/fps&#45;&gt;fortio.org/terminal</title>
<path fill="none" stroke="black" d="M191.87,-280.22C353.41,-273.98 737.35,-263.45 780,-302.28 804.17,-324.29 784.05,-418.72 798,-448.28 811.85,-477.64 820,-485.29 848.25,-501.28 858.29,-506.96 869.61,-511.24 880.99,-514.46"/>
<polygon fill="black" stroke="black" points="879.86,-517.79 890.42,-516.87 881.59,-511.01 879.86,-517.79"/>
<text text-anchor="middle" x="540.88" y="-276.43" font-family="Helvetica,sans-Serif" font-size="10.00">v0.29.1</text>
</g>
<!-- github.com/bwmarrin/discordgo -->
<g id="node24" class="node">
<title>github.com/bwmarrin/discordgo</title>
<path fill="coral" stroke="black" d="M768,-347.28C768,-347.28 587,-347.28 587,-347.28 581,-347.28 575,-341.28 575,-335.28 575,-335.28 575,-323.28 575,-323.28 575,-317.28 581,-311.28 587,-311.28 587,-311.28 768,-311.28 768,-311.28 774,-311.28 780,-317.28 780,-323.28 780,-323.28 780,-335.28 780,-335.28 780,-341.28 774,-347.28 768,-347.28"/>
<text text-anchor="middle" x="677.5" y="-323.48" font-family="Helvetica,sans-Serif" font-size="14.00">github.com/bwmarrin/discordgo</text>
</g>
<!-- github.com/fortio/delta -->
<g id="node25" class="node">
<title>github.com/fortio/delta</title>
<path fill="lightblue" stroke="black" d="M1015.75,-1456.28C1015.75,-1456.28 890.25,-1456.28 890.25,-1456.28 884.25,-1456.28 878.25,-1450.28 878.25,-1444.28 878.25,-1444.28 878.25,-1432.28 878.25,-1432.28 878.25,-1426.28 884.25,-1420.28 890.25,-1420.28 890.25,-1420.28 1015.75,-1420.28 1015.75,-1420.28 1021.75,-1420.28 1027.75,-1426.28 1027.75,-1432.28 1027.75,-1432.28 1027.75,-1444.28 1027.75,-1444.28 1027.75,-1450.28 1021.75,-1456.28 1015.75,-1456.28"/>
<text text-anchor="middle" x="953" y="-1432.48" font-family="Helvetica,sans-Serif" font-size="14.00">github.com/fortio/delta</text>
</g>
<!-- github.com/fortio/delta&#45;&gt;fortio.org/cli -->
<g id="edge63" class="edge">
<title>github.com/fortio/delta&#45;&gt;fortio.org/cli</title>
<path fill="none" stroke="black" d="M1028.05,-1427.2C1039.42,-1422.44 1049.95,-1415.73 1057.75,-1406.28 1104.52,-1349.66 1039,-1305.61 1075.75,-1242.03 1093.73,-1210.92 1123.38,-1225.6 1141,-1194.28 1186.72,-1113.03 1120.95,-1070.4 1159,-985.28 1167.65,-965.93 1183.34,-948.39 1197.82,-935.04"/>
<polygon fill="black" stroke="black" points="1199.83,-937.94 1205,-928.69 1195.19,-932.69 1199.83,-937.94"/>
<text text-anchor="middle" x="1108.38" y="-1243.78" font-family="Helvetica,sans-Serif" font-size="10.00">v1.10.0</text>
</g>
<!-- github.com/fortio/delta&#45;&gt;fortio.org/log -->
<g id="edge64" class="edge">
<title>github.com/fortio/delta&#45;&gt;fortio.org/log</title>
<path fill="none" stroke="black" d="M1028.04,-1446.85C1128.82,-1456.97 1302.59,-1468.44 1354.25,-1434.28 1402.52,-1402.36 1420.03,-1331.98 1426.23,-1291.85"/>
<polygon fill="black" stroke="black" points="1429.67,-1292.56 1427.58,-1282.17 1422.73,-1291.59 1429.67,-1292.56"/>
<text text-anchor="middle" x="1231.5" y="-1458.92" font-family="Helvetica,sans-Serif" font-size="10.00">v1.17.2</text>
</g>
<!-- github.com/fortio/delta&#45;&gt;fortio.org/sets -->
<g id="edge65" class="edge">
<title>github.com/fortio/delta&#45;&gt;fortio.org/sets</title>
<path fill="none" stroke="black" d="M1028.08,-1451.45C1039.03,-1455.99 1049.42,-1462.09 1057.75,-1470.28 1076.09,-1488.31 1067.11,-1501.06 1075.75,-1525.28 1125.9,-1665.83 1192.37,-1831.46 1218.87,-1896.77"/>
<polygon fill="black" stroke="black" points="1215.48,-1897.72 1222.49,-1905.67 1221.97,-1895.09 1215.48,-1897.72"/>
<text text-anchor="middle" x="1108.38" y="-1692.61" font-family="Helvetica,sans-Serif" font-size="10.00">v1.2.0</text>
</g>
<!-- github.com/fortio/delta&#45;&gt;fortio.org/testscript -->
<g id="edge66" class="edge">
<title>github.com/fortio/delta&#45;&gt;fortio.org/testscript</title>
<path fill="none" stroke="black" d="M1028.06,-1455.95C1038.42,-1459.88 1048.62,-1464.61 1057.75,-1470.28 1067.63,-1476.42 1065.87,-1483.14 1075.75,-1489.28 1083.28,-1493.97 1120.91,-1505.68 1157.18,-1516.36"/>
<polygon fill="black" stroke="black" points="1155.82,-1519.6 1166.4,-1519.06 1157.79,-1512.89 1155.82,-1519.6"/>
<text text-anchor="middle" x="1108.38" y="-1512.04" font-family="Helvetica,sans-Serif" font-size="10.00">v0.3.2</text>
</g>
<!-- github.com/fortio/h2cli -->
<g id="node26" class="node">
<title>github.com/fortio/h2cli</title>
<path fill="lightblue" stroke="black" d="M1015,-1216.28C1015,-1216.28 891,-1216.28 891,-1216.28 885,-1216.28 879,-1210.28 879,-1204.28 879,-1204.28 879,-1192.28 879,-1192.28 879,-1186.28 885,-1180.28 891,-1180.28 891,-1180.28 1015,-1180.28 1015,-1180.28 1021,-1180.28 1027,-1186.28 1027,-1192.28 1027,-1192.28 1027,-1204.28 1027,-1204.28 1027,-1210.28 1021,-1216.28 1015,-1216.28"/>
<text text-anchor="middle" x="953" y="-1192.48" font-family="Helvetica,sans-Serif" font-size="14.00">github.com/fortio/h2cli</text>
</g>
<!-- github.com/fortio/h2cli&#45;&gt;fortio.org/cli -->
<g id="edge67" class="edge">
<title>github.com/fortio/h2cli&#45;&gt;fortio.org/cli</title>
<path fill="none" stroke="black" d="M1027.37,-1188.63C1038.47,-1184.63 1049.09,-1179.05 1057.75,-1171.28 1074.49,-1156.28 1062.12,-1141.9 1075.75,-1124.03 1097.54,-1095.46 1121.69,-1106.59 1141,-1076.28 1163.15,-1041.51 1140.14,-1021.94 1159,-985.28 1168.77,-966.29 1184.7,-948.68 1199.04,-935.2"/>
<polygon fill="black" stroke="black" points="1201.07,-938.09 1206.13,-928.78 1196.37,-932.9 1201.07,-938.09"/>
<text text-anchor="middle" x="1108.38" y="-1125.78" font-family="Helvetica,sans-Serif" font-size="10.00">v1.10.0</text>
</g>
<!-- github.com/fortio/h2cli&#45;&gt;fortio.org/log -->
<g id="edge68" class="edge">
<title>github.com/fortio/h2cli&#45;&gt;fortio.org/log</title>
<path fill="none" stroke="black" d="M1021.25,-1216.71C1038.88,-1221.03 1057.94,-1225.25 1075.75,-1228.28 1180.03,-1246.04 1303.31,-1255.27 1373.36,-1259.42"/>
<polygon fill="black" stroke="black" points="1372.85,-1262.9 1383.04,-1259.98 1373.26,-1255.91 1372.85,-1262.9"/>
<text text-anchor="middle" x="1231.5" y="-1256.27" font-family="Helvetica,sans-Serif" font-size="10.00">v1.17.2</text>
</g>
<!-- github.com/fortio/h2demo -->
<g id="node27" class="node">
<title>github.com/fortio/h2demo</title>
<path fill="lightblue" stroke="black" d="M192.62,-2272.28C192.62,-2272.28 46.87,-2272.28 46.87,-2272.28 40.88,-2272.28 34.88,-2266.28 34.88,-2260.28 34.88,-2260.28 34.88,-2248.28 34.88,-2248.28 34.88,-2242.28 40.88,-2236.28 46.88,-2236.28 46.88,-2236.28 192.62,-2236.28 192.62,-2236.28 198.62,-2236.28 204.62,-2242.28 204.62,-2248.28 204.62,-2248.28 204.62,-2260.28 204.62,-2260.28 204.62,-2266.28 198.62,-2272.28 192.62,-2272.28"/>
<text text-anchor="middle" x="119.75" y="-2248.48" font-family="Helvetica,sans-Serif" font-size="14.00">github.com/fortio/h2demo</text>
</g>
<!-- github.com/fortio/logger&#45;bench -->
<g id="node28" class="node">
<title>github.com/fortio/logger&#45;bench</title>
<path fill="lightblue" stroke="black" d="M494.75,-1803.28C494.75,-1803.28 319.75,-1803.28 319.75,-1803.28 313.75,-1803.28 307.75,-1797.28 307.75,-1791.28 307.75,-1791.28 307.75,-1779.28 307.75,-1779.28 307.75,-1773.28 313.75,-1767.28 319.75,-1767.28 319.75,-1767.28 494.75,-1767.28 494.75,-1767.28 500.75,-1767.28 506.75,-1773.28 506.75,-1779.28 506.75,-1779.28 506.75,-1791.28 506.75,-1791.28 506.75,-1797.28 500.75,-1803.28 494.75,-1803.28"/>
<text text-anchor="middle" x="407.25" y="-1779.48" font-family="Helvetica,sans-Serif" font-size="14.00">github.com/fortio/logger&#45;bench</text>
</g>
<!-- github.com/fortio/logger&#45;bench&#45;&gt;fortio.org/cli -->
<g id="edge69" class="edge">
<title>github.com/fortio/logger&#45;bench&#45;&gt;fortio.org/cli</title>
<path fill="none" stroke="black" d="M484.93,-1766.82C492.75,-1763.1 500.21,-1758.63 506.75,-1753.28 518.7,-1743.51 563.81,-1642.91 575,-1632.28 597.97,-1610.47 813.03,-1531.87 830.25,-1505.28 856.98,-1464.03 816.42,-1100.73 848.25,-1063.28 909.81,-990.86 981.69,-1077.29 1057.75,-1020.28 1071.43,-1010.03 1063.18,-997.87 1075.75,-986.28 1098.96,-964.9 1112.63,-972.1 1141,-958.28 1156.79,-950.6 1173.77,-941.51 1188.65,-933.27"/>
<polygon fill="black" stroke="black" points="1190.23,-936.4 1197.26,-928.47 1186.82,-930.29 1190.23,-936.4"/>
<text text-anchor="middle" x="814.12" y="-1528.36" font-family="Helvetica,sans-Serif" font-size="10.00">v1.10.0</text>
</g>
<!-- github.com/fortio/logger&#45;bench&#45;&gt;fortio.org/log -->
<g id="edge70" class="edge">
<title>github.com/fortio/logger&#45;bench&#45;&gt;fortio.org/log</title>
<path fill="none" stroke="black" d="M473.9,-1766.79C485.08,-1762.85 496.41,-1758.32 506.75,-1753.28 539.63,-1737.25 540.98,-1720.72 575,-1707.28 681.87,-1665.07 717.54,-1688.61 830.25,-1666.28 838.31,-1664.69 840.12,-1663.27 848.25,-1662.03 903.97,-1653.54 1311.83,-1663.39 1354.25,-1626.28 1404.62,-1582.22 1422.76,-1370.63 1427.84,-1291.89"/>
<polygon fill="black" stroke="black" points="1431.33,-1292.14 1428.45,-1281.95 1424.34,-1291.71 1431.33,-1292.14"/>
<text text-anchor="middle" x="953" y="-1663.78" font-family="Helvetica,sans-Serif" font-size="10.00">v1.17.2</text>
</g>
<!-- github.com/fortio/logger&#45;bench&#45;&gt;fortio.org/scli -->
<g id="edge71" class="edge">
<title>github.com/fortio/logger&#45;bench&#45;&gt;fortio.org/scli</title>
<path fill="none" stroke="black" d="M446.98,-1766.86C467.82,-1754.99 492.18,-1737.59 506.75,-1715.28 516.96,-1699.66 570.21,-1404.32 575,-1386.28 603.04,-1280.66 646.06,-1158.12 665.86,-1103.34"/>
<polygon fill="black" stroke="black" points="669.08,-1104.73 669.2,-1094.13 662.5,-1102.34 669.08,-1104.73"/>
<text text-anchor="middle" x="540.88" y="-1642.49" font-family="Helvetica,sans-Serif" font-size="10.00">v1.16.1</text>
</g>
<!-- github.com/fortio/logger&#45;bench&#45;&gt;fortio.org/sets -->
<g id="edge72" class="edge">
<title>github.com/fortio/logger&#45;bench&#45;&gt;fortio.org/sets</title>
<path fill="none" stroke="black" d="M506.83,-1803.07C529.19,-1806.76 552.88,-1810.4 575,-1813.28 631.49,-1820.64 778.43,-1813.36 830.25,-1837.03 840.33,-1841.64 838.39,-1849.23 848.25,-1854.28 953.29,-1908.16 1093.22,-1921.56 1171.34,-1924.64"/>
<polygon fill="black" stroke="black" points="1170.78,-1928.12 1180.9,-1924.97 1171.02,-1921.13 1170.78,-1928.12"/>
<text text-anchor="middle" x="814.12" y="-1838.78" font-family="Helvetica,sans-Serif" font-size="10.00">v1.3.0</text>
</g>
<!-- go.uber.org/zap -->
<g id="node42" class="node">
<title>go.uber.org/zap</title>
<path fill="coral" stroke="black" d="M720.75,-1804.28C720.75,-1804.28 634.25,-1804.28 634.25,-1804.28 628.25,-1804.28 622.25,-1798.28 622.25,-1792.28 622.25,-1792.28 622.25,-1780.28 622.25,-1780.28 622.25,-1774.28 628.25,-1768.28 634.25,-1768.28 634.25,-1768.28 720.75,-1768.28 720.75,-1768.28 726.75,-1768.28 732.75,-1774.28 732.75,-1780.28 732.75,-1780.28 732.75,-1792.28 732.75,-1792.28 732.75,-1798.28 726.75,-1804.28 720.75,-1804.28"/>
<text text-anchor="middle" x="677.5" y="-1780.48" font-family="Helvetica,sans-Serif" font-size="14.00">go.uber.org/zap</text>
</g>
<!-- github.com/fortio/logger&#45;bench&#45;&gt;go.uber.org/zap -->
<g id="edge73" class="edge">
<title>github.com/fortio/logger&#45;bench&#45;&gt;go.uber.org/zap</title>
<path fill="none" stroke="black" d="M506.99,-1785.65C541.59,-1785.78 579.56,-1785.92 610.78,-1786.04"/>
<polygon fill="black" stroke="black" points="610.43,-1789.54 620.45,-1786.07 610.46,-1782.54 610.43,-1789.54"/>
<text text-anchor="middle" x="540.88" y="-1787.56" font-family="Helvetica,sans-Serif" font-size="10.00">v1.27.0</text>
</g>
<!-- github.com/fortio/semtest/v2 -->
<g id="node29" class="node">
<title>github.com/fortio/semtest/v2</title>
<path fill="lightblue" stroke="black" d="M200.88,-1503.28C200.88,-1503.28 38.62,-1503.28 38.62,-1503.28 32.62,-1503.28 26.62,-1497.28 26.62,-1491.28 26.62,-1491.28 26.62,-1479.28 26.62,-1479.28 26.62,-1473.28 32.62,-1467.28 38.62,-1467.28 38.62,-1467.28 200.88,-1467.28 200.88,-1467.28 206.88,-1467.28 212.88,-1473.28 212.88,-1479.28 212.88,-1479.28 212.88,-1491.28 212.88,-1491.28 212.88,-1497.28 206.88,-1503.28 200.88,-1503.28"/>
<text text-anchor="middle" x="119.75" y="-1479.48" font-family="Helvetica,sans-Serif" font-size="14.00">github.com/fortio/semtest/v2</text>
</g>
<!-- github.com/fortio/semtest/v2&#45;&gt;fortio.org/fortio -->
<g id="edge74" class="edge">
<title>github.com/fortio/semtest/v2&#45;&gt;fortio.org/fortio</title>
<path fill="none" stroke="black" d="M143.15,-1467C193.81,-1425.66 317.27,-1324.9 375.23,-1277.6"/>
<polygon fill="black" stroke="black" points="377.24,-1280.47 382.78,-1271.44 372.82,-1275.05 377.24,-1280.47"/>
<text text-anchor="middle" x="273.62" y="-1370.53" font-family="Helvetica,sans-Serif" font-size="10.00">v1.35.0</text>
</g>
<!-- github.com/fortio/workflows -->
<g id="node30" class="node">
<title>github.com/fortio/workflows</title>
<path fill="lightblue" stroke="black" d="M485,-742.28C485,-742.28 329.5,-742.28 329.5,-742.28 323.5,-742.28 317.5,-736.28 317.5,-730.28 317.5,-730.28 317.5,-718.28 317.5,-718.28 317.5,-712.28 323.5,-706.28 329.5,-706.28 329.5,-706.28 485,-706.28 485,-706.28 491,-706.28 497,-712.28 497,-718.28 497,-718.28 497,-730.28 497,-730.28 497,-736.28 491,-742.28 485,-742.28"/>
<text text-anchor="middle" x="407.25" y="-718.48" font-family="Helvetica,sans-Serif" font-size="14.00">github.com/fortio/workflows</text>
</g>
<!-- github.com/fortio/workflows&#45;&gt;fortio.org/log -->
<g id="edge75" class="edge">
<title>github.com/fortio/workflows&#45;&gt;fortio.org/log</title>
<path fill="none" stroke="black" d="M414.37,-705.95C431.09,-659.45 482.59,-538.15 575,-503.28 661.7,-470.57 711.03,-527.17 780,-465.28 800.72,-446.69 776.91,-423.46 798,-405.28 810.59,-394.43 701.39,-393.22 1075.75,-371.28 1177.68,-365.31 1226.73,-330.55 1304,-397.28 1369,-453.42 1417.19,-1086.8 1427.46,-1232.52"/>
<polygon fill="black" stroke="black" points="1423.97,-1232.75 1428.16,-1242.48 1430.95,-1232.26 1423.97,-1232.75"/>
<text text-anchor="middle" x="953" y="-388.42" font-family="Helvetica,sans-Serif" font-size="10.00">v1.17.2</text>
</g>
<!-- github.com/fortio/workflows&#45;&gt;fortio.org/scli -->
<g id="edge76" class="edge">
<title>github.com/fortio/workflows&#45;&gt;fortio.org/scli</title>
<path fill="none" stroke="black" d="M451.76,-742.67C484.26,-758.23 527.9,-783.24 557,-816.03 619.05,-885.97 654.67,-993.64 669.02,-1045.04"/>
<polygon fill="black" stroke="black" points="665.6,-1045.78 671.59,-1054.52 672.35,-1043.95 665.6,-1045.78"/>
<text text-anchor="middle" x="540.88" y="-817.78" font-family="Helvetica,sans-Serif" font-size="10.00">v1.16.0</text>
</g>
<!-- github.com/ldemailly/advent24 -->
<g id="node31" class="node">
<title>github.com/ldemailly/advent24</title>
<path fill="lightsalmon" stroke="black" d="M1040.5,-2034.28C1040.5,-2034.28 865.5,-2034.28 865.5,-2034.28 859.5,-2034.28 853.5,-2028.28 853.5,-2022.28 853.5,-2022.28 853.5,-2010.28 853.5,-2010.28 853.5,-2004.28 859.5,-1998.28 865.5,-1998.28 865.5,-1998.28 1040.5,-1998.28 1040.5,-1998.28 1046.5,-1998.28 1052.5,-2004.28 1052.5,-2010.28 1052.5,-2010.28 1052.5,-2022.28 1052.5,-2022.28 1052.5,-2028.28 1046.5,-2034.28 1040.5,-2034.28"/>
<text text-anchor="middle" x="953" y="-2010.48" font-family="Helvetica,sans-Serif" font-size="14.00">github.com/ldemailly/advent24</text>
</g>
<!-- github.com/ldemailly/advent24&#45;&gt;fortio.org/sets -->
<g id="edge77" class="edge">
<title>github.com/ldemailly/advent24&#45;&gt;fortio.org/sets</title>
<path fill="none" stroke="black" d="M1027.89,-1997.84C1037.96,-1995.09 1048.13,-1992.2 1057.75,-1989.28 1095.24,-1977.89 1104.25,-1973.86 1141,-1960.28 1151.56,-1956.38 1162.78,-1952.1 1173.57,-1947.92"/>
<polygon fill="black" stroke="black" points="1174.72,-1951.22 1182.76,-1944.33 1172.18,-1944.7 1174.72,-1951.22"/>
<text text-anchor="middle" x="1108.38" y="-1984.95" font-family="Helvetica,sans-Serif" font-size="10.00">v1.2.0</text>
</g>
<!-- github.com/ldemailly/depgraph -->
<g id="node32" class="node">
<title>github.com/ldemailly/depgraph</title>
<path fill="lightsalmon" stroke="black" d="M208,-2326.28C208,-2326.28 31.5,-2326.28 31.5,-2326.28 25.5,-2326.28 19.5,-2320.28 19.5,-2314.28 19.5,-2314.28 19.5,-2302.28 19.5,-2302.28 19.5,-2296.28 25.5,-2290.28 31.5,-2290.28 31.5,-2290.28 208,-2290.28 208,-2290.28 214,-2290.28 220,-2296.28 220,-2302.28 220,-2302.28 220,-2314.28 220,-2314.28 220,-2320.28 214,-2326.28 208,-2326.28"/>
<text text-anchor="middle" x="119.75" y="-2302.48" font-family="Helvetica,sans-Serif" font-size="14.00">github.com/ldemailly/depgraph</text>
</g>
<!-- github.com/ldemailly/go&#45;scratch -->
<g id="node33" class="node">
<title>github.com/ldemailly/go&#45;scratch</title>
<path fill="lightsalmon" stroke="black" d="M211,-953.28C211,-953.28 28.5,-953.28 28.5,-953.28 22.5,-953.28 16.5,-947.28 16.5,-941.28 16.5,-941.28 16.5,-929.28 16.5,-929.28 16.5,-923.28 22.5,-917.28 28.5,-917.28 28.5,-917.28 211,-917.28 211,-917.28 217,-917.28 223,-923.28 223,-929.28 223,-929.28 223,-941.28 223,-941.28 223,-947.28 217,-953.28 211,-953.28"/>
<text text-anchor="middle" x="119.75" y="-929.48" font-family="Helvetica,sans-Serif" font-size="14.00">github.com/ldemailly/go&#45;scratch</text>
</g>
<!-- github.com/ldemailly/go&#45;scratch&#45;&gt;fortio.org/cli -->
<g id="edge78" class="edge">
<title>github.com/ldemailly/go&#45;scratch&#45;&gt;fortio.org/cli</title>
<path fill="none" stroke="black" d="M200.39,-916.82C215.25,-910.06 229.29,-900.84 239.5,-888.28 269.09,-851.89 221.67,-814.56 257.5,-784.28 294.99,-752.6 1097.26,-771.01 1141,-793.28 1177.58,-811.91 1203.61,-853.15 1217.85,-881.09"/>
<polygon fill="black" stroke="black" points="1214.53,-882.27 1222.06,-889.71 1220.82,-879.19 1214.53,-882.27"/>
<text text-anchor="middle" x="677.5" y="-771.95" font-family="Helvetica,sans-Serif" font-size="10.00">v1.4.2</text>
</g>
<!-- github.com/ldemailly/go&#45;scratch&#45;&gt;fortio.org/fortio -->
<g id="edge79" class="edge">
<title>github.com/ldemailly/go&#45;scratch&#45;&gt;fortio.org/fortio</title>
<path fill="none" stroke="black" d="M136.53,-953.72C168.44,-990.91 243.09,-1077.38 307.75,-1148.28 332.2,-1175.09 360.77,-1205.12 380.83,-1225.99"/>
<polygon fill="black" stroke="black" points="378.09,-1228.2 387.55,-1232.98 383.14,-1223.35 378.09,-1228.2"/>
<text text-anchor="middle" x="273.62" y="-1127.25" font-family="Helvetica,sans-Serif" font-size="10.00">v1.60.3</text>
</g>
<!-- github.com/ldemailly/go&#45;scratch&#45;&gt;fortio.org/log -->
<g id="edge80" class="edge">
<title>github.com/ldemailly/go&#45;scratch&#45;&gt;fortio.org/log</title>
<path fill="none" stroke="black" d="M121.05,-953.76C123.1,-1020.58 138.84,-1252.63 257.5,-1384.28 360.04,-1498.05 426.72,-1479.9 575,-1518.28 889.29,-1599.63 1030.88,-1739.78 1304,-1564.28 1398.91,-1503.3 1422.09,-1355.05 1427.72,-1291.74"/>
<polygon fill="black" stroke="black" points="1431.18,-1292.36 1428.48,-1282.11 1424.2,-1291.8 1431.18,-1292.36"/>
<text text-anchor="middle" x="814.12" y="-1602.53" font-family="Helvetica,sans-Serif" font-size="10.00">v1.11.0</text>
</g>
<!-- github.com/ldemailly/go&#45;scratch&#45;&gt;fortio.org/scli -->
<g id="edge81" class="edge">
<title>github.com/ldemailly/go&#45;scratch&#45;&gt;fortio.org/scli</title>
<path fill="none" stroke="black" d="M166.91,-916.8C241.61,-889.87 392.17,-848.12 506.75,-897.03 578.25,-927.56 634.06,-1004.61 660.22,-1046.36"/>
<polygon fill="black" stroke="black" points="657.08,-1047.93 665.29,-1054.63 663.05,-1044.28 657.08,-1047.93"/>
<text text-anchor="middle" x="407.25" y="-898.78" font-family="Helvetica,sans-Serif" font-size="10.00">v1.12.0</text>
</g>
<!-- golang.org/x/term -->
<g id="node43" class="node">
<title>golang.org/x/term</title>
<path fill="coral" stroke="black" d="M456.12,-953.28C456.12,-953.28 358.38,-953.28 358.38,-953.28 352.38,-953.28 346.38,-947.28 346.38,-941.28 346.38,-941.28 346.38,-929.28 346.38,-929.28 346.38,-923.28 352.38,-917.28 358.38,-917.28 358.38,-917.28 456.12,-917.28 456.12,-917.28 462.12,-917.28 468.12,-923.28 468.12,-929.28 468.12,-929.28 468.12,-941.28 468.12,-941.28 468.12,-947.28 462.12,-953.28 456.12,-953.28"/>
<text text-anchor="middle" x="407.25" y="-929.48" font-family="Helvetica,sans-Serif" font-size="14.00">golang.org/x/term</text>
</g>
<!-- github.com/ldemailly/go&#45;scratch&#45;&gt;golang.org/x/term -->
<g id="edge82" class="edge">
<title>github.com/ldemailly/go&#45;scratch&#45;&gt;golang.org/x/term</title>
<path fill="none" stroke="black" d="M223.42,-935.28C260.33,-935.28 301.13,-935.28 334.81,-935.28"/>
<polygon fill="black" stroke="black" points="334.43,-938.78 344.43,-935.28 334.43,-931.78 334.43,-938.78"/>
<text text-anchor="middle" x="273.62" y="-937.03" font-family="Helvetica,sans-Serif" font-size="10.00">v0.18.0</text>
</g>
<!-- github.com/ldemailly/gohook_sample -->
<g id="node34" class="node">
<title>github.com/ldemailly/gohook_sample</title>
<path fill="lightsalmon" stroke="black" d="M227.5,-183.28C227.5,-183.28 12,-183.28 12,-183.28 6,-183.28 0,-177.28 0,-171.28 0,-171.28 0,-159.28 0,-159.28 0,-153.28 6,-147.28 12,-147.28 12,-147.28 227.5,-147.28 227.5,-147.28 233.5,-147.28 239.5,-153.28 239.5,-159.28 239.5,-159.28 239.5,-171.28 239.5,-171.28 239.5,-177.28 233.5,-183.28 227.5,-183.28"/>
<text text-anchor="middle" x="119.75" y="-159.48" font-family="Helvetica,sans-Serif" font-size="14.00">github.com/ldemailly/gohook_sample</text>
</g>
<!-- github.com/ldemailly/gohook_sample&#45;&gt;fortio.org/fortio -->
<g id="edge83" class="edge">
<title>github.com/ldemailly/gohook_sample&#45;&gt;fortio.org/fortio</title>
<path fill="none" stroke="black" d="M159.39,-183.73C186.82,-199.06 221.8,-223.63 239.5,-256.28 242.46,-261.74 305.23,-1142.6 307.75,-1148.28 321.81,-1179.99 349.79,-1208.02 372.35,-1226.97"/>
<polygon fill="black" stroke="black" points="369.86,-1229.46 379.83,-1233.06 374.29,-1224.03 369.86,-1229.46"/>
<text text-anchor="middle" x="273.62" y="-909.53" font-family="Helvetica,sans-Serif" font-size="10.00">v1.21.1</text>
</g>
<!-- github.com/robotn/gohook -->
<g id="node40" class="node">
<title>github.com/robotn/gohook</title>
<path fill="coral" stroke="black" d="M481.62,-119.28C481.62,-119.28 332.88,-119.28 332.88,-119.28 326.88,-119.28 320.88,-113.28 320.88,-107.28 320.88,-107.28 320.88,-95.28 320.88,-95.28 320.88,-89.28 326.88,-83.28 332.88,-83.28 332.88,-83.28 481.62,-83.28 481.62,-83.28 487.62,-83.28 493.62,-89.28 493.62,-95.28 493.62,-95.28 493.62,-107.28 493.62,-107.28 493.62,-113.28 487.62,-119.28 481.62,-119.28"/>
<text text-anchor="middle" x="407.25" y="-95.48" font-family="Helvetica,sans-Serif" font-size="14.00">github.com/robotn/gohook</text>
</g>
<!-- github.com/ldemailly/gohook_sample&#45;&gt;github.com/robotn/gohook -->
<g id="edge84" class="edge">
<title>github.com/ldemailly/gohook_sample&#45;&gt;github.com/robotn/gohook</title>
<path fill="none" stroke="black" d="M171.82,-146.89C197.28,-138.29 228.72,-128.54 257.5,-122.03 274.09,-118.28 291.87,-115.09 309.18,-112.43"/>
<polygon fill="black" stroke="black" points="309.59,-115.91 318.96,-110.97 308.56,-108.98 309.59,-115.91"/>
<text text-anchor="middle" x="273.62" y="-123.78" font-family="Helvetica,sans-Serif" font-size="10.00">v0.31.3</text>
</g>
<!-- github.com/ldemailly/lll&#45;fixer -->
<g id="node35" class="node">
<title>github.com/ldemailly/lll&#45;fixer</title>
<path fill="lightsalmon" stroke="black" d="M1032.25,-1162.28C1032.25,-1162.28 873.75,-1162.28 873.75,-1162.28 867.75,-1162.28 861.75,-1156.28 861.75,-1150.28 861.75,-1150.28 861.75,-1138.28 861.75,-1138.28 861.75,-1132.28 867.75,-1126.28 873.75,-1126.28 873.75,-1126.28 1032.25,-1126.28 1032.25,-1126.28 1038.25,-1126.28 1044.25,-1132.28 1044.25,-1138.28 1044.25,-1138.28 1044.25,-1150.28 1044.25,-1150.28 1044.25,-1156.28 1038.25,-1162.28 1032.25,-1162.28"/>
<text text-anchor="middle" x="953" y="-1138.48" font-family="Helvetica,sans-Serif" font-size="14.00">github.com/ldemailly/lll&#45;fixer</text>
</g>
<!-- github.com/ldemailly/lll&#45;fixer&#45;&gt;fortio.org/cli -->
<g id="edge85" class="edge">
<title>github.com/ldemailly/lll&#45;fixer&#45;&gt;fortio.org/cli</title>
<path fill="none" stroke="black" d="M1044.71,-1126.89C1049.39,-1124.13 1053.79,-1120.95 1057.75,-1117.28 1075.77,-1100.6 1060.77,-1084.5 1075.75,-1065.03 1097.05,-1037.36 1117.93,-1047.49 1141,-1021.28 1152.82,-1007.86 1148.76,-999.95 1159,-985.28 1171.57,-967.28 1188.26,-949.28 1202.36,-935.33"/>
<polygon fill="black" stroke="black" points="1204.49,-938.14 1209.22,-928.66 1199.61,-933.12 1204.49,-938.14"/>
<text text-anchor="middle" x="1108.38" y="-1066.78" font-family="Helvetica,sans-Serif" font-size="10.00">v1.9.0</text>
</g>
<!-- github.com/ldemailly/lll&#45;fixer&#45;&gt;fortio.org/log -->
<g id="edge86" class="edge">
<title>github.com/ldemailly/lll&#45;fixer&#45;&gt;fortio.org/log</title>
<path fill="none" stroke="black" d="M1044.49,-1134.1C1146.92,-1124.51 1305.84,-1116.04 1354.25,-1149.28 1384.51,-1170.06 1405.8,-1207.39 1417.84,-1233.43"/>
<polygon fill="black" stroke="black" points="1414.58,-1234.7 1421.82,-1242.43 1420.98,-1231.87 1414.58,-1234.7"/>
<text text-anchor="middle" x="1231.5" y="-1133.95" font-family="Helvetica,sans-Serif" font-size="10.00">v1.16.0</text>
</g>
<!-- github.com/ldemailly/panic&#45;linter -->
<g id="node36" class="node">
<title>github.com/ldemailly/panic&#45;linter</title>
<path fill="lightsalmon" stroke="black" d="M1045.75,-1980.28C1045.75,-1980.28 860.25,-1980.28 860.25,-1980.28 854.25,-1980.28 848.25,-1974.28 848.25,-1968.28 848.25,-1968.28 848.25,-1956.28 848.25,-1956.28 848.25,-1950.28 854.25,-1944.28 860.25,-1944.28 860.25,-1944.28 1045.75,-1944.28 1045.75,-1944.28 1051.75,-1944.28 1057.75,-1950.28 1057.75,-1956.28 1057.75,-1956.28 1057.75,-1968.28 1057.75,-1968.28 1057.75,-1974.28 1051.75,-1980.28 1045.75,-1980.28"/>
<text text-anchor="middle" x="953" y="-1956.48" font-family="Helvetica,sans-Serif" font-size="14.00">github.com/ldemailly/panic&#45;linter</text>
</g>
<!-- github.com/ldemailly/panic&#45;linter&#45;&gt;fortio.org/sets -->
<g id="edge87" class="edge">
<title>github.com/ldemailly/panic&#45;linter&#45;&gt;fortio.org/sets</title>
<path fill="none" stroke="black" d="M1058.14,-1948.35C1096.34,-1943.23 1138.26,-1937.63 1171.19,-1933.22"/>
<polygon fill="black" stroke="black" points="1171.49,-1936.71 1180.94,-1931.91 1170.56,-1929.77 1171.49,-1936.71"/>
<text text-anchor="middle" x="1108.38" y="-1946.64" font-family="Helvetica,sans-Serif" font-size="10.00">v1.2.0</text>
</g>
<!-- github.com/ldemailly/quartiles -->
<g id="node37" class="node">
<title>github.com/ldemailly/quartiles</title>
<path fill="lightsalmon" stroke="black" d="M1038.25,-1718.28C1038.25,-1718.28 867.75,-1718.28 867.75,-1718.28 861.75,-1718.28 855.75,-1712.28 855.75,-1706.28 855.75,-1706.28 855.75,-1694.28 855.75,-1694.28 855.75,-1688.28 861.75,-1682.28 867.75,-1682.28 867.75,-1682.28 1038.25,-1682.28 1038.25,-1682.28 1044.25,-1682.28 1050.25,-1688.28 1050.25,-1694.28 1050.25,-1694.28 1050.25,-1706.28 1050.25,-1706.28 1050.25,-1712.28 1044.25,-1718.28 1038.25,-1718.28"/>
<text text-anchor="middle" x="953" y="-1694.48" font-family="Helvetica,sans-Serif" font-size="14.00">github.com/ldemailly/quartiles</text>
</g>
<!-- github.com/ldemailly/quartiles&#45;&gt;fortio.org/cli -->
<g id="edge88" class="edge">
<title>github.com/ldemailly/quartiles&#45;&gt;fortio.org/cli</title>
<path fill="none" stroke="black" d="M1042.97,-1681.89C1048.56,-1678.14 1053.6,-1673.65 1057.75,-1668.28 1084.46,-1633.78 1049.67,-1311.01 1075.75,-1276.03 1094.11,-1251.41 1122.38,-1277.71 1141,-1253.28 1177.18,-1205.81 1135.15,-1040 1159,-985.28 1167.47,-965.85 1183.14,-948.3 1197.65,-934.97"/>
<polygon fill="black" stroke="black" points="1199.67,-937.86 1204.87,-928.63 1195.05,-932.61 1199.67,-937.86"/>
<text text-anchor="middle" x="1108.38" y="-1277.78" font-family="Helvetica,sans-Serif" font-size="10.00">v1.10.0</text>
</g>
<!-- github.com/ldemailly/quartiles&#45;&gt;fortio.org/log -->
<g id="edge89" class="edge">
<title>github.com/ldemailly/quartiles&#45;&gt;fortio.org/log</title>
<path fill="none" stroke="black" d="M1050.33,-1704.47C1154.42,-1706.84 1311.2,-1703.41 1354.25,-1664.28 1409.34,-1614.21 1424.67,-1376.46 1428.41,-1292.08"/>
<polygon fill="black" stroke="black" points="1431.9,-1292.43 1428.82,-1282.29 1424.91,-1292.14 1431.9,-1292.43"/>
<text text-anchor="middle" x="1231.5" y="-1705.76" font-family="Helvetica,sans-Serif" font-size="10.00">v1.17.2</text>
</g>
<!-- github.com/ldemailly/quartiles&#45;&gt;fortio.org/sets -->
<g id="edge90" class="edge">
<title>github.com/ldemailly/quartiles&#45;&gt;fortio.org/sets</title>
<path fill="none" stroke="black" d="M1023.71,-1718.71C1035.3,-1722.64 1047.03,-1727.17 1057.75,-1732.28 1062.78,-1734.68 1137.09,-1784.07 1141,-1788.03 1173.58,-1821.02 1200.95,-1867.63 1216.54,-1897.15"/>
<polygon fill="black" stroke="black" points="1213.34,-1898.58 1221.05,-1905.86 1219.56,-1895.37 1213.34,-1898.58"/>
<text text-anchor="middle" x="1108.38" y="-1789.78" font-family="Helvetica,sans-Serif" font-size="10.00">v1.3.0</text>
</g>
<!-- github.com/ldemailly/rate -->
<g id="node38" class="node">
<title>github.com/ldemailly/rate</title>
<path fill="lightsalmon" stroke="black" d="M1024.38,-1108.28C1024.38,-1108.28 881.62,-1108.28 881.62,-1108.28 875.62,-1108.28 869.62,-1102.28 869.62,-1096.28 869.62,-1096.28 869.62,-1084.28 869.62,-1084.28 869.62,-1078.28 875.62,-1072.28 881.62,-1072.28 881.62,-1072.28 1024.38,-1072.28 1024.38,-1072.28 1030.38,-1072.28 1036.38,-1078.28 1036.38,-1084.28 1036.38,-1084.28 1036.38,-1096.28 1036.38,-1096.28 1036.38,-1102.28 1030.38,-1108.28 1024.38,-1108.28"/>
<text text-anchor="middle" x="953" y="-1084.48" font-family="Helvetica,sans-Serif" font-size="14.00">github.com/ldemailly/rate</text>
</g>
<!-- github.com/ldemailly/rate&#45;&gt;fortio.org/cli -->
<g id="edge91" class="edge">
<title>github.com/ldemailly/rate&#45;&gt;fortio.org/cli</title>
<path fill="none" stroke="black" d="M1036.84,-1072.92C1044.5,-1069 1051.66,-1064.18 1057.75,-1058.28 1075.4,-1041.2 1058.41,-1023.43 1075.75,-1006.03 1097.43,-984.28 1114.24,-998.36 1141,-983.28 1164.18,-970.22 1187.25,-950.95 1204.16,-935.35"/>
<polygon fill="black" stroke="black" points="1206.43,-938.03 1211.31,-928.62 1201.63,-932.93 1206.43,-938.03"/>
<text text-anchor="middle" x="1108.38" y="-1007.78" font-family="Helvetica,sans-Serif" font-size="10.00">v1.2.0</text>
</g>
<!-- github.com/ldemailly/rate&#45;&gt;fortio.org/log -->
<g id="edge92" class="edge">
<title>github.com/ldemailly/rate&#45;&gt;fortio.org/log</title>
<path fill="none" stroke="black" d="M1024.97,-1071.79C1036.18,-1067.91 1047.46,-1063.41 1057.75,-1058.28 1066.58,-1053.88 1066.36,-1048.32 1075.75,-1045.28 1103.34,-1036.36 1112.52,-1039.83 1141,-1045.28 1241.7,-1064.55 1278.4,-1064.3 1354.25,-1133.28 1385.07,-1161.31 1406.84,-1204.97 1418.79,-1233.6"/>
<polygon fill="black" stroke="black" points="1415.48,-1234.76 1422.46,-1242.73 1421.98,-1232.15 1415.48,-1234.76"/>
<text text-anchor="middle" x="1231.5" y="-1094.23" font-family="Helvetica,sans-Serif" font-size="10.00">v1.6.0</text>
</g>
<!-- gitlab.com/ldemailly/go&#45;flag&#45;bug -->
<g id="node41" class="node">
<title>gitlab.com/ldemailly/go&#45;flag&#45;bug</title>
<path fill="lightsalmon" stroke="black" d="M211.38,-2380.28C211.38,-2380.28 28.13,-2380.28 28.13,-2380.28 22.13,-2380.28 16.12,-2374.28 16.12,-2368.28 16.12,-2368.28 16.12,-2356.28 16.12,-2356.28 16.12,-2350.28 22.12,-2344.28 28.12,-2344.28 28.12,-2344.28 211.37,-2344.28 211.37,-2344.28 217.37,-2344.28 223.38,-2350.28 223.38,-2356.28 223.38,-2356.28 223.38,-2368.28 223.38,-2368.28 223.38,-2374.28 217.38,-2380.28 211.38,-2380.28"/>
<text text-anchor="middle" x="119.75" y="-2356.48" font-family="Helvetica,sans-Serif" font-size="14.00">gitlab.com/ldemailly/go&#45;flag&#45;bug</text>
</g>
<!-- grol.io/grol&#45;&gt;fortio.org/cli -->
<g id="edge93" class="edge">
<title>grol.io/grol&#45;&gt;fortio.org/cli</title>
<path fill="none" stroke="black" d="M717.48,-577.27C823.2,-588.41 1109.52,-620.93 1141,-649.28 1208.93,-710.47 1225.31,-825.62 1229.26,-879.75"/>
<polygon fill="black" stroke="black" points="1225.74,-879.66 1229.86,-889.42 1232.73,-879.23 1225.74,-879.66"/>
<text text-anchor="middle" x="953" y="-625.04" font-family="Helvetica,sans-Serif" font-size="10.00">v1.10.0</text>
</g>
<!-- grol.io/grol&#45;&gt;fortio.org/log -->
<g id="edge94" class="edge">
<title>grol.io/grol&#45;&gt;fortio.org/log</title>
<path fill="none" stroke="black" d="M717.38,-571.42C816.49,-567.46 1075.39,-562.35 1141,-613.03 1352.74,-776.58 1412.78,-1129.1 1426.19,-1232.93"/>
<polygon fill="black" stroke="black" points="1422.68,-1233.08 1427.38,-1242.57 1429.62,-1232.22 1422.68,-1233.08"/>
<text text-anchor="middle" x="1108.38" y="-614.78" font-family="Helvetica,sans-Serif" font-size="10.00">v1.17.2</text>
</g>
<!-- grol.io/grol&#45;&gt;fortio.org/safecast -->
<g id="edge95" class="edge">
<title>grol.io/grol&#45;&gt;fortio.org/safecast</title>
<path fill="none" stroke="black" d="M717.46,-564.67C736.95,-559.46 760.47,-551.77 780,-541.28 814.38,-522.81 812.62,-501.96 848.25,-486.03 876.02,-473.62 1055.54,-447.9 1158.39,-433.89"/>
<polygon fill="black" stroke="black" points="1158.68,-437.38 1168.12,-432.57 1157.74,-430.44 1158.68,-437.38"/>
<text text-anchor="middle" x="953" y="-487.78" font-family="Helvetica,sans-Serif" font-size="10.00">v1.0.0</text>
</g>
<!-- grol.io/grol&#45;&gt;fortio.org/sets -->
<g id="edge96" class="edge">
<title>grol.io/grol&#45;&gt;fortio.org/sets</title>
<path fill="none" stroke="black" d="M713.83,-591.73C737.1,-605.96 765.81,-628 780,-656.28 799.96,-696.04 794.46,-1011.93 798,-1056.28 808,-1181.59 820.46,-1211.96 830.25,-1337.28 832.12,-1361.23 832.8,-1750.89 848.25,-1769.28 909.55,-1842.25 966.78,-1786.63 1057.75,-1815.03 1095.94,-1826.96 1106.83,-1828.47 1141,-1849.28 1163.98,-1863.28 1187.05,-1883.05 1204.02,-1898.91"/>
<polygon fill="black" stroke="black" points="1201.55,-1901.4 1211.2,-1905.76 1206.38,-1896.33 1201.55,-1901.4"/>
<text text-anchor="middle" x="953" y="-1816.78" font-family="Helvetica,sans-Serif" font-size="10.00">v1.3.0</text>
</g>
<!-- grol.io/grol&#45;&gt;fortio.org/struct2env -->
<g id="edge97" class="edge">
<title>grol.io/grol&#45;&gt;fortio.org/struct2env</title>
<path fill="none" stroke="black" d="M693.67,-554.86C725.73,-514.69 799.91,-414.98 830.25,-317.28 839.1,-288.78 827.83,-71.04 848.25,-49.28 927.74,35.41 991.22,-15.28 1107.38,-15.28 1107.38,-15.28 1107.38,-15.28 1431.5,-15.28 1467.34,-15.28 1506.9,-18.24 1540.36,-21.61"/>
<polygon fill="black" stroke="black" points="1539.65,-25.06 1549.96,-22.61 1540.37,-18.09 1539.65,-25.06"/>
<text text-anchor="middle" x="1231.5" y="-17.03" font-family="Helvetica,sans-Serif" font-size="10.00">v0.4.2</text>
</g>
<!-- grol.io/grol&#45;&gt;fortio.org/terminal -->
<g id="edge98" class="edge">
<title>grol.io/grol&#45;&gt;fortio.org/terminal</title>
<path fill="none" stroke="black" d="M717.31,-563.09C740.59,-557.23 770.85,-550.06 798,-545.03 824.8,-540.07 854.44,-535.79 880.5,-532.43"/>
<polygon fill="black" stroke="black" points="880.83,-535.92 890.31,-531.19 879.95,-528.97 880.83,-535.92"/>
<text text-anchor="middle" x="814.12" y="-546.78" font-family="Helvetica,sans-Serif" font-size="10.00">v0.29.1</text>
</g>
<!-- grol.io/grol&#45;&gt;fortio.org/testscript -->
<g id="edge99" class="edge">
<title>grol.io/grol&#45;&gt;fortio.org/testscript</title>
<path fill="none" stroke="black" d="M717.31,-577.09C753.23,-582.89 804.81,-597.5 830.25,-634.28 856.52,-672.26 818.5,-1429.97 848.25,-1465.28 909.37,-1537.82 973.53,-1462.39 1057.75,-1506.03 1067.59,-1511.13 1065.67,-1518.69 1075.75,-1523.28 1100.67,-1534.63 1130.16,-1539.18 1156.67,-1540.53"/>
<polygon fill="black" stroke="black" points="1156.2,-1544.02 1166.32,-1540.88 1156.45,-1537.02 1156.2,-1544.02"/>
<text text-anchor="middle" x="953" y="-1507.78" font-family="Helvetica,sans-Serif" font-size="10.00">v0.3.2</text>
</g>
<!-- grol.io/grol&#45;&gt;fortio.org/version -->
<g id="edge100" class="edge">
<title>grol.io/grol&#45;&gt;fortio.org/version</title>
<path fill="none" stroke="black" d="M717.37,-555.67C739.06,-543.87 764.71,-526.28 780,-503.28 801.62,-470.76 769.67,-444.16 798,-417.28 808.2,-407.6 1198.86,-351.71 1360.53,-328.94"/>
<polygon fill="black" stroke="black" points="1360.86,-332.43 1370.27,-327.57 1359.88,-325.5 1360.86,-332.43"/>
<text text-anchor="middle" x="1108.38" y="-370.77" font-family="Helvetica,sans-Serif" font-size="10.00">v1.0.4</text>
</g>
<!-- grol.io/grol&#45;discord&#45;bot -->
<g id="node45" class="node">
<title>grol.io/grol&#45;discord&#45;bot</title>
<path fill="lightgreen" stroke="black" d="M470.38,-526.28C470.38,-526.28 344.12,-526.28 344.12,-526.28 338.12,-526.28 332.12,-520.28 332.12,-514.28 332.12,-514.28 332.12,-502.28 332.12,-502.28 332.12,-496.28 338.12,-490.28 344.12,-490.28 344.12,-490.28 470.38,-490.28 470.38,-490.28 476.38,-490.28 482.38,-496.28 482.38,-502.28 482.38,-502.28 482.38,-514.28 482.38,-514.28 482.38,-520.28 476.38,-526.28 470.38,-526.28"/>
<text text-anchor="middle" x="407.25" y="-502.48" font-family="Helvetica,sans-Serif" font-size="14.00">grol.io/grol&#45;discord&#45;bot</text>
</g>
<!-- grol.io/grol&#45;discord&#45;bot&#45;&gt;fortio.org/cli -->
<g id="edge101" class="edge">
<title>grol.io/grol&#45;discord&#45;bot&#45;&gt;fortio.org/cli</title>
<path fill="none" stroke="black" d="M436.73,-526.75C469.13,-547.09 524.14,-579.65 575,-600.28 816.68,-698.34 934.32,-596.2 1141,-755.28 1183.01,-787.62 1208.89,-845.71 1221.41,-880.56"/>
<polygon fill="black" stroke="black" points="1217.94,-881.25 1224.51,-889.57 1224.56,-878.97 1217.94,-881.25"/>
<text text-anchor="middle" x="814.12" y="-653.67" font-family="Helvetica,sans-Serif" font-size="10.00">v1.10.0</text>
</g>
<!-- grol.io/grol&#45;discord&#45;bot&#45;&gt;fortio.org/log -->
<g id="edge102" class="edge">
<title>grol.io/grol&#45;discord&#45;bot&#45;&gt;fortio.org/log</title>
<path fill="none" stroke="black" d="M475.34,-489.85C505.66,-481.82 542.02,-472.58 575,-465.28 665.47,-445.26 707.88,-485.46 780,-427.28 796.13,-414.27 784.1,-399.65 798,-384.28 815.04,-365.44 823.66,-363.43 848.25,-357.03 981.92,-322.26 1020.88,-354.12 1159,-353.28 1223.44,-352.89 1246.96,-323.3 1304,-353.28 1338.86,-371.61 1340.88,-389.23 1354.25,-426.28 1409.54,-579.49 1425.65,-1102.57 1428.84,-1232.76"/>
<polygon fill="black" stroke="black" points="1425.34,-1232.68 1429.08,-1242.59 1432.34,-1232.51 1425.34,-1232.68"/>
<text text-anchor="middle" x="953" y="-358.78" font-family="Helvetica,sans-Serif" font-size="10.00">v1.17.2</text>
</g>
<!-- grol.io/grol&#45;discord&#45;bot&#45;&gt;fortio.org/scli -->
<g id="edge103" class="edge">
<title>grol.io/grol&#45;discord&#45;bot&#45;&gt;fortio.org/scli</title>
<path fill="none" stroke="black" d="M431.66,-526.62C465.78,-554.85 528.22,-612.47 557,-677.03 585.1,-740.07 557.53,-764.51 575,-831.28 596.17,-912.19 638.91,-1001.54 661.58,-1045.96"/>
<polygon fill="black" stroke="black" points="658.37,-1047.37 666.07,-1054.66 664.59,-1044.16 658.37,-1047.37"/>
<text text-anchor="middle" x="540.88" y="-678.78" font-family="Helvetica,sans-Serif" font-size="10.00">v1.16.1</text>
</g>
<!-- grol.io/grol&#45;discord&#45;bot&#45;&gt;fortio.org/version -->
<g id="edge104" class="edge">
<title>grol.io/grol&#45;discord&#45;bot&#45;&gt;fortio.org/version</title>
<path fill="none" stroke="black" d="M412.35,-489.97C425.64,-434.73 472.77,-268.11 575,-179.28 673.12,-94.03 720.42,-98.59 848.25,-75.03 958.91,-54.64 1265.11,-25.61 1354.25,-94.28 1415.31,-141.33 1427.31,-239.83 1429.35,-289.41"/>
<polygon fill="black" stroke="black" points="1425.85,-289.5 1429.63,-299.39 1432.85,-289.3 1425.85,-289.5"/>
<text text-anchor="middle" x="953" y="-76.78" font-family="Helvetica,sans-Serif" font-size="10.00">v1.0.4</text>
</g>
<!-- grol.io/grol&#45;discord&#45;bot&#45;&gt;github.com/bwmarrin/discordgo -->
<g id="edge105" class="edge">
<title>grol.io/grol&#45;discord&#45;bot&#45;&gt;github.com/bwmarrin/discordgo</title>
<path fill="none" stroke="black" d="M423.92,-490.23C451.51,-459.51 511.82,-396.95 575,-361.28 581.07,-357.85 587.56,-354.74 594.21,-351.93"/>
<polygon fill="black" stroke="black" points="595.34,-355.24 603.34,-348.3 592.76,-348.74 595.34,-355.24"/>
<text text-anchor="middle" x="540.88" y="-393.24" font-family="Helvetica,sans-Serif" font-size="10.00">v0.28.1</text>
</g>
<!-- grol.io/grol&#45;discord&#45;bot&#45;&gt;grol.io/grol -->
<g id="edge106" class="edge">
<title>grol.io/grol&#45;discord&#45;bot&#45;&gt;grol.io/grol</title>
<path fill="none" stroke="black" d="M482.62,-526.3C528.54,-537.43 586.2,-551.4 626.66,-561.21"/>
<polygon fill="black" stroke="black" points="625.58,-564.55 636.12,-563.5 627.23,-557.74 625.58,-564.55"/>
<text text-anchor="middle" x="540.88" y="-544.48" font-family="Helvetica,sans-Serif" font-size="10.00">v0.80.3</text>
</g>
</g>
</svg>
