<?xml version="1.0" encoding="UTF-8" standalone="no"?>
<!DOCTYPE svg PUBLIC "-//W3C//DTD SVG 1.1//EN"
 "http://www.w3.org/Graphics/SVG/1.1/DTD/svg11.dtd">
<!-- Generated by graphviz version 12.2.1 (20241206.2353)
 -->
<!-- Title: dependencies Pages: 1 -->
<svg width="2594pt" height="1771pt"
 viewBox="0.00 0.00 2593.75 1771.29" xmlns="http://www.w3.org/2000/svg" xmlns:xlink="http://www.w3.org/1999/xlink">
<g id="graph0" class="graph" transform="scale(1 1) rotate(0) translate(4 1767.29)">
<title>dependencies</title>
<polygon fill="white" stroke="none" points="-4,4 -4,-1767.29 2589.75,-1767.29 2589.75,4 -4,4"/>
<!-- github.com/golang/geo -->
<g id="node1" class="node">
<title>github.com/golang/geo</title>
<path fill="lightblue" stroke="black" d="M145,-534.04C145,-534.04 15.75,-534.04 15.75,-534.04 9.75,-534.04 3.75,-528.04 3.75,-522.04 3.75,-522.04 3.75,-510.04 3.75,-510.04 3.75,-504.04 9.75,-498.04 15.75,-498.04 15.75,-498.04 145,-498.04 145,-498.04 151,-498.04 157,-504.04 157,-510.04 157,-510.04 157,-522.04 157,-522.04 157,-528.04 151,-534.04 145,-534.04"/>
<text text-anchor="middle" x="80.38" y="-510.24" font-family="Helvetica,sans-Serif" font-size="14.00">github.com/golang/geo</text>
</g>
<!-- github.com/golang/glog -->
<g id="node2" class="node">
<title>github.com/golang/glog</title>
<path fill="lightblue" stroke="black" d="M930,-1724.04C930,-1724.04 797.75,-1724.04 797.75,-1724.04 791.75,-1724.04 785.75,-1718.04 785.75,-1712.04 785.75,-1712.04 785.75,-1700.04 785.75,-1700.04 785.75,-1694.04 791.75,-1688.04 797.75,-1688.04 797.75,-1688.04 930,-1688.04 930,-1688.04 936,-1688.04 942,-1694.04 942,-1700.04 942,-1700.04 942,-1712.04 942,-1712.04 942,-1718.04 936,-1724.04 930,-1724.04"/>
<text text-anchor="middle" x="863.88" y="-1700.24" font-family="Helvetica,sans-Serif" font-size="14.00">github.com/golang/glog</text>
</g>
<!-- github.com/golang/groupcache -->
<g id="node3" class="node">
<title>github.com/golang/groupcache</title>
<path fill="lightblue" stroke="black" d="M1205.5,-572.04C1205.5,-572.04 1028.25,-572.04 1028.25,-572.04 1022.25,-572.04 1016.25,-566.04 1016.25,-560.04 1016.25,-560.04 1016.25,-548.04 1016.25,-548.04 1016.25,-542.04 1022.25,-536.04 1028.25,-536.04 1028.25,-536.04 1205.5,-536.04 1205.5,-536.04 1211.5,-536.04 1217.5,-542.04 1217.5,-548.04 1217.5,-548.04 1217.5,-560.04 1217.5,-560.04 1217.5,-566.04 1211.5,-572.04 1205.5,-572.04"/>
<text text-anchor="middle" x="1116.88" y="-548.24" font-family="Helvetica,sans-Serif" font-size="14.00">github.com/golang/groupcache</text>
</g>
<!-- github.com/golang/protobuf -->
<g id="node4" class="node">
<title>github.com/golang/protobuf</title>
<path fill="lightblue" stroke="black" d="M1597.62,-562.04C1597.62,-562.04 1441.38,-562.04 1441.38,-562.04 1435.38,-562.04 1429.38,-556.04 1429.38,-550.04 1429.38,-550.04 1429.38,-538.04 1429.38,-538.04 1429.38,-532.04 1435.38,-526.04 1441.38,-526.04 1441.38,-526.04 1597.62,-526.04 1597.62,-526.04 1603.62,-526.04 1609.62,-532.04 1609.62,-538.04 1609.62,-538.04 1609.62,-550.04 1609.62,-550.04 1609.62,-556.04 1603.62,-562.04 1597.62,-562.04"/>
<text text-anchor="middle" x="1519.5" y="-538.24" font-family="Helvetica,sans-Serif" font-size="14.00">github.com/golang/protobuf</text>
</g>
<!-- github.com/golang/groupcache&#45;&gt;github.com/golang/protobuf -->
<g id="edge1" class="edge">
<title>github.com/golang/groupcache&#45;&gt;github.com/golang/protobuf</title>
<path fill="none" stroke="black" d="M1217.94,-551.54C1278.92,-550.02 1356.6,-548.08 1417.72,-546.55"/>
<polygon fill="black" stroke="black" points="1417.5,-550.06 1427.41,-546.31 1417.33,-543.06 1417.5,-550.06"/>
<text text-anchor="middle" x="1320.25" y="-552.83" font-family="Helvetica,sans-Serif" font-size="10.00">v1.5.4</text>
</g>
<!-- github.com/golang/vscode&#45;go -->
<g id="node5" class="node">
<title>github.com/golang/vscode&#45;go</title>
<path fill="lightblue" stroke="black" d="M1604,-1594.04C1604,-1594.04 1435,-1594.04 1435,-1594.04 1429,-1594.04 1423,-1588.04 1423,-1582.04 1423,-1582.04 1423,-1570.04 1423,-1570.04 1423,-1564.04 1429,-1558.04 1435,-1558.04 1435,-1558.04 1604,-1558.04 1604,-1558.04 1610,-1558.04 1616,-1564.04 1616,-1570.04 1616,-1570.04 1616,-1582.04 1616,-1582.04 1616,-1588.04 1610,-1594.04 1604,-1594.04"/>
<text text-anchor="middle" x="1519.5" y="-1570.24" font-family="Helvetica,sans-Serif" font-size="14.00">github.com/golang/vscode&#45;go</text>
</g>
<!-- golang.org/x/telemetry -->
<g id="node27" class="node">
<title>golang.org/x/telemetry</title>
<path fill="lightblue" stroke="red" stroke-width="2" d="M1976.12,-1555.04C1976.12,-1555.04 1849.88,-1555.04 1849.88,-1555.04 1843.88,-1555.04 1837.88,-1549.04 1837.88,-1543.04 1837.88,-1543.04 1837.88,-1531.04 1837.88,-1531.04 1837.88,-1525.04 1843.88,-1519.04 1849.88,-1519.04 1849.88,-1519.04 1976.12,-1519.04 1976.12,-1519.04 1982.12,-1519.04 1988.12,-1525.04 1988.12,-1531.04 1988.12,-1531.04 1988.12,-1543.04 1988.12,-1543.04 1988.12,-1549.04 1982.12,-1555.04 1976.12,-1555.04"/>
<text text-anchor="middle" x="1913" y="-1531.24" font-family="Helvetica,sans-Serif" font-size="14.00">golang.org/x/telemetry</text>
</g>
<!-- github.com/golang/vscode&#45;go&#45;&gt;golang.org/x/telemetry -->
<g id="edge2" class="edge">
<title>github.com/golang/vscode&#45;go&#45;&gt;golang.org/x/telemetry</title>
<path fill="none" stroke="black" d="M1616.27,-1566.5C1680.31,-1560.12 1763.86,-1551.79 1825.82,-1545.62"/>
<polygon fill="black" stroke="black" points="1826.02,-1549.12 1835.62,-1544.65 1825.32,-1542.15 1826.02,-1549.12"/>
<text text-anchor="middle" x="1718.75" y="-1566.26" font-family="Helvetica,sans-Serif" font-size="10.00">v0.0.0&#45;20241004145657&#45;5eebfecbdf1f</text>
</g>
<!-- golang.org/dl -->
<g id="node6" class="node">
<title>golang.org/dl</title>
<path fill="lightblue" stroke="black" d="M115.38,-1027.04C115.38,-1027.04 45.38,-1027.04 45.38,-1027.04 39.38,-1027.04 33.37,-1021.04 33.37,-1015.04 33.37,-1015.04 33.37,-1003.04 33.37,-1003.04 33.37,-997.04 39.37,-991.04 45.37,-991.04 45.37,-991.04 115.38,-991.04 115.38,-991.04 121.38,-991.04 127.38,-997.04 127.38,-1003.04 127.38,-1003.04 127.38,-1015.04 127.38,-1015.04 127.38,-1021.04 121.38,-1027.04 115.38,-1027.04"/>
<text text-anchor="middle" x="80.38" y="-1003.24" font-family="Helvetica,sans-Serif" font-size="14.00">golang.org/dl</text>
</g>
<!-- golang.org/x/arch -->
<g id="node7" class="node">
<title>golang.org/x/arch</title>
<path fill="lightblue" stroke="black" d="M128.5,-1081.04C128.5,-1081.04 32.25,-1081.04 32.25,-1081.04 26.25,-1081.04 20.25,-1075.04 20.25,-1069.04 20.25,-1069.04 20.25,-1057.04 20.25,-1057.04 20.25,-1051.04 26.25,-1045.04 32.25,-1045.04 32.25,-1045.04 128.5,-1045.04 128.5,-1045.04 134.5,-1045.04 140.5,-1051.04 140.5,-1057.04 140.5,-1057.04 140.5,-1069.04 140.5,-1069.04 140.5,-1075.04 134.5,-1081.04 128.5,-1081.04"/>
<text text-anchor="middle" x="80.38" y="-1057.24" font-family="Helvetica,sans-Serif" font-size="14.00">golang.org/x/arch</text>
</g>
<!-- golang.org/x/benchmarks -->
<g id="node8" class="node">
<title>golang.org/x/benchmarks</title>
<path fill="lightblue" stroke="black" d="M936,-333.04C936,-333.04 791.75,-333.04 791.75,-333.04 785.75,-333.04 779.75,-327.04 779.75,-321.04 779.75,-321.04 779.75,-309.04 779.75,-309.04 779.75,-303.04 785.75,-297.04 791.75,-297.04 791.75,-297.04 936,-297.04 936,-297.04 942,-297.04 948,-303.04 948,-309.04 948,-309.04 948,-321.04 948,-321.04 948,-327.04 942,-333.04 936,-333.04"/>
<text text-anchor="middle" x="863.88" y="-309.24" font-family="Helvetica,sans-Serif" font-size="14.00">golang.org/x/benchmarks</text>
</g>
<!-- golang.org/x/oauth2 -->
<g id="node18" class="node">
<title>golang.org/x/oauth2</title>
<path fill="lightblue" stroke="black" d="M1172.5,-341.04C1172.5,-341.04 1061.25,-341.04 1061.25,-341.04 1055.25,-341.04 1049.25,-335.04 1049.25,-329.04 1049.25,-329.04 1049.25,-317.04 1049.25,-317.04 1049.25,-311.04 1055.25,-305.04 1061.25,-305.04 1061.25,-305.04 1172.5,-305.04 1172.5,-305.04 1178.5,-305.04 1184.5,-311.04 1184.5,-317.04 1184.5,-317.04 1184.5,-329.04 1184.5,-329.04 1184.5,-335.04 1178.5,-341.04 1172.5,-341.04"/>
<text text-anchor="middle" x="1116.88" y="-317.24" font-family="Helvetica,sans-Serif" font-size="14.00">golang.org/x/oauth2</text>
</g>
<!-- golang.org/x/benchmarks&#45;&gt;golang.org/x/oauth2 -->
<g id="edge3" class="edge">
<title>golang.org/x/benchmarks&#45;&gt;golang.org/x/oauth2</title>
<path fill="none" stroke="black" d="M948.45,-317.7C977.16,-318.62 1009.17,-319.64 1037.44,-320.54"/>
<polygon fill="black" stroke="black" points="1037.28,-324.03 1047.39,-320.85 1037.51,-317.04 1037.28,-324.03"/>
<text text-anchor="middle" x="982.12" y="-321.03" font-family="Helvetica,sans-Serif" font-size="10.00">v0.29.0</text>
</g>
<!-- golang.org/x/sync -->
<g id="node25" class="node">
<title>golang.org/x/sync</title>
<path fill="lightblue" stroke="black" d="M2187,-1420.04C2187,-1420.04 2089.25,-1420.04 2089.25,-1420.04 2083.25,-1420.04 2077.25,-1414.04 2077.25,-1408.04 2077.25,-1408.04 2077.25,-1396.04 2077.25,-1396.04 2077.25,-1390.04 2083.25,-1384.04 2089.25,-1384.04 2089.25,-1384.04 2187,-1384.04 2187,-1384.04 2193,-1384.04 2199,-1390.04 2199,-1396.04 2199,-1396.04 2199,-1408.04 2199,-1408.04 2199,-1414.04 2193,-1420.04 2187,-1420.04"/>
<text text-anchor="middle" x="2138.12" y="-1396.24" font-family="Helvetica,sans-Serif" font-size="14.00">golang.org/x/sync</text>
</g>
<!-- golang.org/x/benchmarks&#45;&gt;golang.org/x/sync -->
<g id="edge4" class="edge">
<title>golang.org/x/benchmarks&#45;&gt;golang.org/x/sync</title>
<path fill="none" stroke="black" d="M939.83,-333.28C942.81,-335.57 945.56,-338.15 948,-341.04 967.5,-364.18 957.36,-447.03 966,-476.04 967.85,-482.23 1010.85,-577.48 1016.25,-581.04 1162.52,-677.26 1636.96,-558.01 1803.5,-612.04 1933.19,-654.11 1988.91,-668.65 2054.75,-788.04 2111.39,-890.74 2131.31,-1264.08 2135.97,-1372.39"/>
<polygon fill="black" stroke="black" points="2132.46,-1372.35 2136.38,-1382.19 2139.46,-1372.06 2132.46,-1372.35"/>
<text text-anchor="middle" x="1519.5" y="-612.53" font-family="Helvetica,sans-Serif" font-size="10.00">v0.13.0</text>
</g>
<!-- golang.org/x/sys -->
<g id="node26" class="node">
<title>golang.org/x/sys</title>
<path fill="lightblue" stroke="black" d="M2573.75,-189.04C2573.75,-189.04 2483.5,-189.04 2483.5,-189.04 2477.5,-189.04 2471.5,-183.04 2471.5,-177.04 2471.5,-177.04 2471.5,-165.04 2471.5,-165.04 2471.5,-159.04 2477.5,-153.04 2483.5,-153.04 2483.5,-153.04 2573.75,-153.04 2573.75,-153.04 2579.75,-153.04 2585.75,-159.04 2585.75,-165.04 2585.75,-165.04 2585.75,-177.04 2585.75,-177.04 2585.75,-183.04 2579.75,-189.04 2573.75,-189.04"/>
<text text-anchor="middle" x="2528.62" y="-165.24" font-family="Helvetica,sans-Serif" font-size="14.00">golang.org/x/sys</text>
</g>
<!-- golang.org/x/benchmarks&#45;&gt;golang.org/x/sys -->
<g id="edge5" class="edge">
<title>golang.org/x/benchmarks&#45;&gt;golang.org/x/sys</title>
<path fill="none" stroke="black" d="M889.94,-296.59C918.84,-276.31 968.52,-244.44 1016.25,-228.04 1181.27,-171.31 1232.33,-198.22 1405,-173.04 1686.34,-132.01 1753.31,-78.04 2037.62,-78.04 2037.62,-78.04 2037.62,-78.04 2338.5,-78.04 2399.97,-78.04 2462.2,-118.08 2497.73,-145.62"/>
<polygon fill="black" stroke="black" points="2495.4,-148.24 2505.41,-151.72 2499.76,-142.76 2495.4,-148.24"/>
<text text-anchor="middle" x="1913" y="-93.08" font-family="Helvetica,sans-Serif" font-size="10.00">v0.32.0</text>
</g>
<!-- golang.org/x/build -->
<g id="node9" class="node">
<title>golang.org/x/build</title>
<path fill="lightblue" stroke="black" d="M518.38,-588.04C518.38,-588.04 419.88,-588.04 419.88,-588.04 413.88,-588.04 407.88,-582.04 407.88,-576.04 407.88,-576.04 407.88,-564.04 407.88,-564.04 407.88,-558.04 413.88,-552.04 419.88,-552.04 419.88,-552.04 518.38,-552.04 518.38,-552.04 524.38,-552.04 530.38,-558.04 530.38,-564.04 530.38,-564.04 530.38,-576.04 530.38,-576.04 530.38,-582.04 524.38,-588.04 518.38,-588.04"/>
<text text-anchor="middle" x="469.12" y="-564.24" font-family="Helvetica,sans-Serif" font-size="14.00">golang.org/x/build</text>
</g>
<!-- golang.org/x/crypto -->
<g id="node10" class="node">
<title>golang.org/x/crypto</title>
<path fill="lightblue" stroke="red" stroke-width="2" d="M2191.5,-206.04C2191.5,-206.04 2084.75,-206.04 2084.75,-206.04 2078.75,-206.04 2072.75,-200.04 2072.75,-194.04 2072.75,-194.04 2072.75,-182.04 2072.75,-182.04 2072.75,-176.04 2078.75,-170.04 2084.75,-170.04 2084.75,-170.04 2191.5,-170.04 2191.5,-170.04 2197.5,-170.04 2203.5,-176.04 2203.5,-182.04 2203.5,-182.04 2203.5,-194.04 2203.5,-194.04 2203.5,-200.04 2197.5,-206.04 2191.5,-206.04"/>
<text text-anchor="middle" x="2138.12" y="-182.24" font-family="Helvetica,sans-Serif" font-size="14.00">golang.org/x/crypto</text>
</g>
<!-- golang.org/x/build&#45;&gt;golang.org/x/crypto -->
<g id="edge6" class="edge">
<title>golang.org/x/build&#45;&gt;golang.org/x/crypto</title>
<path fill="none" stroke="black" d="M530.86,-567.06C547.26,-563.21 563.44,-556.03 574.25,-543.04 610.44,-499.54 556.11,-332.58 592.25,-289.04 716.66,-139.14 823.05,-202.91 1016.25,-178.04 1406.21,-127.84 1878.81,-163.1 2060.7,-180.2"/>
<polygon fill="black" stroke="black" points="2060.21,-183.67 2070.49,-181.13 2060.87,-176.7 2060.21,-183.67"/>
<text text-anchor="middle" x="1320.25" y="-159.91" font-family="Helvetica,sans-Serif" font-size="10.00">v0.37.0</text>
</g>
<!-- golang.org/x/exp -->
<g id="node13" class="node">
<title>golang.org/x/exp</title>
<path fill="lightblue" stroke="black" d="M909.75,-1164.04C909.75,-1164.04 818,-1164.04 818,-1164.04 812,-1164.04 806,-1158.04 806,-1152.04 806,-1152.04 806,-1140.04 806,-1140.04 806,-1134.04 812,-1128.04 818,-1128.04 818,-1128.04 909.75,-1128.04 909.75,-1128.04 915.75,-1128.04 921.75,-1134.04 921.75,-1140.04 921.75,-1140.04 921.75,-1152.04 921.75,-1152.04 921.75,-1158.04 915.75,-1164.04 909.75,-1164.04"/>
<text text-anchor="middle" x="863.88" y="-1140.24" font-family="Helvetica,sans-Serif" font-size="14.00">golang.org/x/exp</text>
</g>
<!-- golang.org/x/build&#45;&gt;golang.org/x/exp -->
<g id="edge7" class="edge">
<title>golang.org/x/build&#45;&gt;golang.org/x/exp</title>
<path fill="none" stroke="black" d="M470.7,-588.46C473.57,-649.21 490.65,-845.68 592.25,-958.04 647.23,-1018.84 704.56,-972.05 761.75,-1030.79 776.85,-1046.3 767.09,-1058.48 779.75,-1076.04 792.2,-1093.31 809.83,-1108.95 825.65,-1121.05"/>
<polygon fill="black" stroke="black" points="823.37,-1123.72 833.49,-1126.85 827.53,-1118.09 823.37,-1123.72"/>
<text text-anchor="middle" x="677" y="-1032.54" font-family="Helvetica,sans-Serif" font-size="10.00">v0.0.0&#45;20230809094429&#45;853ea248256d</text>
</g>
<!-- golang.org/x/image -->
<g id="node14" class="node">
<title>golang.org/x/image</title>
<path fill="lightblue" stroke="black" d="M1170.62,-740.04C1170.62,-740.04 1063.12,-740.04 1063.12,-740.04 1057.12,-740.04 1051.12,-734.04 1051.12,-728.04 1051.12,-728.04 1051.12,-716.04 1051.12,-716.04 1051.12,-710.04 1057.12,-704.04 1063.12,-704.04 1063.12,-704.04 1170.62,-704.04 1170.62,-704.04 1176.62,-704.04 1182.62,-710.04 1182.62,-716.04 1182.62,-716.04 1182.62,-728.04 1182.62,-728.04 1182.62,-734.04 1176.62,-740.04 1170.62,-740.04"/>
<text text-anchor="middle" x="1116.88" y="-716.24" font-family="Helvetica,sans-Serif" font-size="14.00">golang.org/x/image</text>
</g>
<!-- golang.org/x/build&#45;&gt;golang.org/x/image -->
<g id="edge8" class="edge">
<title>golang.org/x/build&#45;&gt;golang.org/x/image</title>
<path fill="none" stroke="black" d="M530.79,-556.84C643.53,-533.71 880.09,-492.18 948,-534.79 963.58,-544.56 955.35,-557.05 966,-572.04 1000.68,-620.87 1051.82,-668.22 1084.49,-696.25"/>
<polygon fill="black" stroke="black" points="1082.14,-698.85 1092.03,-702.65 1086.67,-693.51 1082.14,-698.85"/>
<text text-anchor="middle" x="863.88" y="-536.54" font-family="Helvetica,sans-Serif" font-size="10.00">v0.26.0</text>
</g>
<!-- golang.org/x/mod -->
<g id="node16" class="node">
<title>golang.org/x/mod</title>
<path fill="lightblue" stroke="red" stroke-width="2" d="M1165.38,-1132.04C1165.38,-1132.04 1068.38,-1132.04 1068.38,-1132.04 1062.38,-1132.04 1056.38,-1126.04 1056.38,-1120.04 1056.38,-1120.04 1056.38,-1108.04 1056.38,-1108.04 1056.38,-1102.04 1062.38,-1096.04 1068.38,-1096.04 1068.38,-1096.04 1165.38,-1096.04 1165.38,-1096.04 1171.38,-1096.04 1177.38,-1102.04 1177.38,-1108.04 1177.38,-1108.04 1177.38,-1120.04 1177.38,-1120.04 1177.38,-1126.04 1171.38,-1132.04 1165.38,-1132.04"/>
<text text-anchor="middle" x="1116.88" y="-1108.24" font-family="Helvetica,sans-Serif" font-size="14.00">golang.org/x/mod</text>
</g>
<!-- golang.org/x/build&#45;&gt;golang.org/x/mod -->
<g id="edge9" class="edge">
<title>golang.org/x/build&#45;&gt;golang.org/x/mod</title>
<path fill="none" stroke="black" d="M475.91,-588.29C489.35,-627.47 526.64,-719.56 592.25,-763.04 655.9,-805.21 709.13,-735.71 761.75,-791.04 810.45,-842.25 736.5,-893.13 779.75,-949.04 828.78,-1012.41 881.6,-968.94 948,-1013.79 950.3,-1015.34 1013.87,-1085.6 1016.25,-1087.04 1024.98,-1092.3 1034.76,-1096.56 1044.68,-1100"/>
<polygon fill="black" stroke="black" points="1043.43,-1103.28 1054.02,-1102.97 1045.54,-1096.61 1043.43,-1103.28"/>
<text text-anchor="middle" x="863.88" y="-1015.54" font-family="Helvetica,sans-Serif" font-size="10.00">v0.24.0</text>
</g>
<!-- golang.org/x/net -->
<g id="node17" class="node">
<title>golang.org/x/net</title>
<path fill="lightblue" stroke="red" stroke-width="2" d="M1957.38,-300.04C1957.38,-300.04 1868.62,-300.04 1868.62,-300.04 1862.62,-300.04 1856.62,-294.04 1856.62,-288.04 1856.62,-288.04 1856.62,-276.04 1856.62,-276.04 1856.62,-270.04 1862.62,-264.04 1868.62,-264.04 1868.62,-264.04 1957.38,-264.04 1957.38,-264.04 1963.38,-264.04 1969.38,-270.04 1969.38,-276.04 1969.38,-276.04 1969.38,-288.04 1969.38,-288.04 1969.38,-294.04 1963.38,-300.04 1957.38,-300.04"/>
<text text-anchor="middle" x="1913" y="-276.24" font-family="Helvetica,sans-Serif" font-size="14.00">golang.org/x/net</text>
</g>
<!-- golang.org/x/build&#45;&gt;golang.org/x/net -->
<g id="edge10" class="edge">
<title>golang.org/x/build&#45;&gt;golang.org/x/net</title>
<path fill="none" stroke="black" d="M530.86,-566.77C547.17,-562.9 563.29,-555.78 574.25,-543.04 624.66,-484.43 546.64,-432.45 592.25,-370.04 645.92,-296.6 692.19,-312.64 779.75,-288.04 1137.82,-187.43 1244.07,-252.94 1616,-256.04 1699.34,-256.73 1720.68,-249.69 1803.5,-259.04 1816.88,-260.55 1831.04,-262.95 1844.57,-265.64"/>
<polygon fill="black" stroke="black" points="1843.76,-269.05 1854.26,-267.65 1845.18,-262.19 1843.76,-269.05"/>
<text text-anchor="middle" x="1116.88" y="-240.58" font-family="Helvetica,sans-Serif" font-size="10.00">v0.39.0</text>
</g>
<!-- golang.org/x/build&#45;&gt;golang.org/x/oauth2 -->
<g id="edge11" class="edge">
<title>golang.org/x/build&#45;&gt;golang.org/x/oauth2</title>
<path fill="none" stroke="black" d="M530.79,-566.4C546.99,-562.5 563.07,-555.47 574.25,-543.04 610.6,-502.61 555.35,-461.97 592.25,-422.04 622.23,-389.59 898.97,-350.45 1037.56,-332.67"/>
<polygon fill="black" stroke="black" points="1037.93,-336.15 1047.41,-331.41 1037.04,-329.2 1037.93,-336.15"/>
<text text-anchor="middle" x="863.88" y="-371.57" font-family="Helvetica,sans-Serif" font-size="10.00">v0.29.0</text>
</g>
<!-- golang.org/x/perf -->
<g id="node20" class="node">
<title>golang.org/x/perf</title>
<path fill="lightblue" stroke="black" d="M910.5,-435.04C910.5,-435.04 817.25,-435.04 817.25,-435.04 811.25,-435.04 805.25,-429.04 805.25,-423.04 805.25,-423.04 805.25,-411.04 805.25,-411.04 805.25,-405.04 811.25,-399.04 817.25,-399.04 817.25,-399.04 910.5,-399.04 910.5,-399.04 916.5,-399.04 922.5,-405.04 922.5,-411.04 922.5,-411.04 922.5,-423.04 922.5,-423.04 922.5,-429.04 916.5,-435.04 910.5,-435.04"/>
<text text-anchor="middle" x="863.88" y="-411.24" font-family="Helvetica,sans-Serif" font-size="14.00">golang.org/x/perf</text>
</g>
<!-- golang.org/x/build&#45;&gt;golang.org/x/perf -->
<g id="edge12" class="edge">
<title>golang.org/x/build&#45;&gt;golang.org/x/perf</title>
<path fill="none" stroke="black" d="M530.79,-564.37C546.43,-560.39 562.22,-553.81 574.25,-543.04 590.99,-528.05 575.73,-511.02 592.25,-495.79 647.33,-444.99 733.35,-426.78 793.58,-420.36"/>
<polygon fill="black" stroke="black" points="793.77,-423.85 803.39,-419.4 793.09,-416.89 793.77,-423.85"/>
<text text-anchor="middle" x="677" y="-497.54" font-family="Helvetica,sans-Serif" font-size="10.00">v0.0.0&#45;20230717203022&#45;1ba3a21238c9</text>
</g>
<!-- golang.org/x/build&#45;&gt;golang.org/x/sync -->
<g id="edge13" class="edge">
<title>golang.org/x/build&#45;&gt;golang.org/x/sync</title>
<path fill="none" stroke="black" d="M530.82,-566.85C595.52,-566.76 697.32,-576.57 761.75,-632.04 779.02,-646.9 762.37,-665.31 779.75,-680.04 837.89,-729.29 881.71,-675.45 948,-713.04 958.4,-718.94 957.49,-724.64 966,-733.04 987.13,-753.88 989.66,-763.84 1016.25,-777.04 1055.75,-796.64 1363.58,-841.65 1405,-856.79 1689.92,-960.91 1785.11,-973.55 2004.5,-1183.04 2063.62,-1239.49 2106.25,-1327.86 2125.56,-1373.15"/>
<polygon fill="black" stroke="black" points="2122.3,-1374.42 2129.38,-1382.3 2128.76,-1371.72 2122.3,-1374.42"/>
<text text-anchor="middle" x="1320.25" y="-858.54" font-family="Helvetica,sans-Serif" font-size="10.00">v0.13.0</text>
</g>
<!-- golang.org/x/build&#45;&gt;golang.org/x/sys -->
<g id="edge14" class="edge">
<title>golang.org/x/build&#45;&gt;golang.org/x/sys</title>
<path fill="none" stroke="black" d="M530.85,-567.34C547.35,-563.51 563.59,-556.27 574.25,-543.04 606.74,-502.68 555.64,-113.7 592.25,-77.04 636.47,-32.76 1655.17,-32.04 1717.75,-32.04 1717.75,-32.04 1717.75,-32.04 2338.5,-32.04 2413.01,-32.04 2477.56,-102.94 2508.37,-143.47"/>
<polygon fill="black" stroke="black" points="2505.45,-145.41 2514.22,-151.36 2511.08,-141.24 2505.45,-145.41"/>
<text text-anchor="middle" x="1718.75" y="-33.97" font-family="Helvetica,sans-Serif" font-size="10.00">v0.32.0</text>
</g>
<!-- golang.org/x/term -->
<g id="node28" class="node">
<title>golang.org/x/term</title>
<path fill="lightblue" stroke="black" d="M2386.38,-243.04C2386.38,-243.04 2288.62,-243.04 2288.62,-243.04 2282.62,-243.04 2276.62,-237.04 2276.62,-231.04 2276.62,-231.04 2276.62,-219.04 2276.62,-219.04 2276.62,-213.04 2282.62,-207.04 2288.62,-207.04 2288.62,-207.04 2386.38,-207.04 2386.38,-207.04 2392.38,-207.04 2398.38,-213.04 2398.38,-219.04 2398.38,-219.04 2398.38,-231.04 2398.38,-231.04 2398.38,-237.04 2392.38,-243.04 2386.38,-243.04"/>
<text text-anchor="middle" x="2337.5" y="-219.24" font-family="Helvetica,sans-Serif" font-size="14.00">golang.org/x/term</text>
</g>
<!-- golang.org/x/build&#45;&gt;golang.org/x/term -->
<g id="edge15" class="edge">
<title>golang.org/x/build&#45;&gt;golang.org/x/term</title>
<path fill="none" stroke="black" d="M530.76,-567.27C547.26,-563.43 563.52,-556.21 574.25,-543.04 624.56,-481.28 545.82,-249.76 592.25,-185.04 667.64,-79.94 733.54,-78.04 862.88,-78.04 862.88,-78.04 862.88,-78.04 1321.25,-78.04 1419.71,-78.04 2109.3,-132.38 2203.5,-161.04 2236.51,-171.08 2240.62,-183.16 2271.75,-198.04 2274.49,-199.35 2277.31,-200.66 2280.17,-201.95"/>
<polygon fill="black" stroke="black" points="2278.66,-205.12 2289.23,-205.97 2281.5,-198.72 2278.66,-205.12"/>
<text text-anchor="middle" x="1519.5" y="-97.76" font-family="Helvetica,sans-Serif" font-size="10.00">v0.31.0</text>
</g>
<!-- golang.org/x/time -->
<g id="node30" class="node">
<title>golang.org/x/time</title>
<path fill="lightblue" stroke="black" d="M912,-886.04C912,-886.04 815.75,-886.04 815.75,-886.04 809.75,-886.04 803.75,-880.04 803.75,-874.04 803.75,-874.04 803.75,-862.04 803.75,-862.04 803.75,-856.04 809.75,-850.04 815.75,-850.04 815.75,-850.04 912,-850.04 912,-850.04 918,-850.04 924,-856.04 924,-862.04 924,-862.04 924,-874.04 924,-874.04 924,-880.04 918,-886.04 912,-886.04"/>
<text text-anchor="middle" x="863.88" y="-862.24" font-family="Helvetica,sans-Serif" font-size="14.00">golang.org/x/time</text>
</g>
<!-- golang.org/x/build&#45;&gt;golang.org/x/time -->
<g id="edge16" class="edge">
<title>golang.org/x/build&#45;&gt;golang.org/x/time</title>
<path fill="none" stroke="black" d="M495.46,-588.34C519.89,-605.77 558.08,-632.48 592.25,-654.04 665.8,-700.44 710.58,-681.47 761.75,-751.79 784.28,-782.75 754.88,-806.92 779.75,-836.04 783.77,-840.74 788.56,-844.75 793.78,-848.18"/>
<polygon fill="black" stroke="black" points="791.84,-851.1 802.27,-852.99 795.29,-845.01 791.84,-851.1"/>
<text text-anchor="middle" x="677" y="-753.54" font-family="Helvetica,sans-Serif" font-size="10.00">v0.11.0</text>
</g>
<!-- golang.org/x/tools -->
<g id="node31" class="node">
<title>golang.org/x/tools</title>
<path fill="lightblue" stroke="red" stroke-width="2" d="M1568.75,-1136.04C1568.75,-1136.04 1470.25,-1136.04 1470.25,-1136.04 1464.25,-1136.04 1458.25,-1130.04 1458.25,-1124.04 1458.25,-1124.04 1458.25,-1112.04 1458.25,-1112.04 1458.25,-1106.04 1464.25,-1100.04 1470.25,-1100.04 1470.25,-1100.04 1568.75,-1100.04 1568.75,-1100.04 1574.75,-1100.04 1580.75,-1106.04 1580.75,-1112.04 1580.75,-1112.04 1580.75,-1124.04 1580.75,-1124.04 1580.75,-1130.04 1574.75,-1136.04 1568.75,-1136.04"/>
<text text-anchor="middle" x="1519.5" y="-1112.24" font-family="Helvetica,sans-Serif" font-size="14.00">golang.org/x/tools</text>
</g>
<!-- golang.org/x/build&#45;&gt;golang.org/x/tools -->
<g id="edge17" class="edge">
<title>golang.org/x/build&#45;&gt;golang.org/x/tools</title>
<path fill="none" stroke="black" d="M501.74,-588.43C525.81,-601.65 560.15,-618.86 592.25,-629.04 665.04,-652.1 703.93,-607.16 761.75,-657.04 781.55,-674.11 762.82,-693.12 779.75,-713.04 834.15,-777.02 874.35,-758.68 948,-799.04 955.71,-803.26 1008.03,-835.93 1016.25,-839.04 1098.58,-870.18 1333.72,-863.39 1405,-915.04 1464.86,-958.41 1497.15,-1043.56 1510.69,-1088.55"/>
<polygon fill="black" stroke="black" points="1507.24,-1089.25 1513.38,-1097.88 1513.97,-1087.31 1507.24,-1089.25"/>
<text text-anchor="middle" x="982.12" y="-830.84" font-family="Helvetica,sans-Serif" font-size="10.00">v0.32.0</text>
</g>
<!-- golang.org/x/crypto&#45;&gt;golang.org/x/net -->
<g id="edge18" class="edge">
<title>golang.org/x/crypto&#45;&gt;golang.org/x/net</title>
<path fill="none" stroke="red" stroke-width="1.5" d="M2072.04,-205.24C2055.64,-210.26 2038.22,-216.19 2022.5,-222.79 1999.45,-232.45 1974.93,-245.58 1955.03,-257.03"/>
<polygon fill="red" stroke="red" stroke-width="1.5" points="1953.33,-253.97 1946.46,-262.03 1956.86,-260.01 1953.33,-253.97"/>
<text text-anchor="middle" x="2038.62" y="-224.54" font-family="Helvetica,sans-Serif" font-size="10.00">v0.21.0</text>
</g>
<!-- golang.org/x/crypto&#45;&gt;golang.org/x/sys -->
<g id="edge19" class="edge">
<title>golang.org/x/crypto&#45;&gt;golang.org/x/sys</title>
<path fill="none" stroke="black" d="M2173.94,-169.06C2200.01,-155.97 2237.02,-139.73 2271.75,-132.79 2329.06,-121.33 2345.45,-124.1 2403.25,-132.79 2425.12,-136.07 2448.46,-142.44 2468.93,-149.05"/>
<polygon fill="black" stroke="black" points="2467.64,-152.31 2478.24,-152.15 2469.85,-145.67 2467.64,-152.31"/>
<text text-anchor="middle" x="2337.5" y="-134.54" font-family="Helvetica,sans-Serif" font-size="10.00">v0.32.0</text>
</g>
<!-- golang.org/x/crypto&#45;&gt;golang.org/x/term -->
<g id="edge20" class="edge">
<title>golang.org/x/crypto&#45;&gt;golang.org/x/term</title>
<path fill="none" stroke="black" d="M2204.3,-200.25C2223.82,-203.91 2245.33,-207.95 2265.22,-211.67"/>
<polygon fill="black" stroke="black" points="2264.44,-215.09 2274.91,-213.49 2265.73,-208.21 2264.44,-215.09"/>
<text text-anchor="middle" x="2237.62" y="-210.5" font-family="Helvetica,sans-Serif" font-size="10.00">v0.31.0</text>
</g>
<!-- golang.org/x/debug -->
<g id="node11" class="node">
<title>golang.org/x/debug</title>
<path fill="lightblue" stroke="black" d="M2391.25,-189.04C2391.25,-189.04 2283.75,-189.04 2283.75,-189.04 2277.75,-189.04 2271.75,-183.04 2271.75,-177.04 2271.75,-177.04 2271.75,-165.04 2271.75,-165.04 2271.75,-159.04 2277.75,-153.04 2283.75,-153.04 2283.75,-153.04 2391.25,-153.04 2391.25,-153.04 2397.25,-153.04 2403.25,-159.04 2403.25,-165.04 2403.25,-165.04 2403.25,-177.04 2403.25,-177.04 2403.25,-183.04 2397.25,-189.04 2391.25,-189.04"/>
<text text-anchor="middle" x="2337.5" y="-165.24" font-family="Helvetica,sans-Serif" font-size="14.00">golang.org/x/debug</text>
</g>
<!-- golang.org/x/debug&#45;&gt;golang.org/x/sys -->
<g id="edge21" class="edge">
<title>golang.org/x/debug&#45;&gt;golang.org/x/sys</title>
<path fill="none" stroke="black" d="M2403.59,-171.04C2421.73,-171.04 2441.48,-171.04 2459.78,-171.04"/>
<polygon fill="black" stroke="black" points="2459.74,-174.54 2469.74,-171.04 2459.74,-167.54 2459.74,-174.54"/>
<text text-anchor="middle" x="2437.38" y="-172.79" font-family="Helvetica,sans-Serif" font-size="10.00">v0.32.0</text>
</g>
<!-- golang.org/x/example -->
<g id="node12" class="node">
<title>golang.org/x/example</title>
<path fill="lightblue" stroke="black" d="M1177.75,-1078.04C1177.75,-1078.04 1056,-1078.04 1056,-1078.04 1050,-1078.04 1044,-1072.04 1044,-1066.04 1044,-1066.04 1044,-1054.04 1044,-1054.04 1044,-1048.04 1050,-1042.04 1056,-1042.04 1056,-1042.04 1177.75,-1042.04 1177.75,-1042.04 1183.75,-1042.04 1189.75,-1048.04 1189.75,-1054.04 1189.75,-1054.04 1189.75,-1066.04 1189.75,-1066.04 1189.75,-1072.04 1183.75,-1078.04 1177.75,-1078.04"/>
<text text-anchor="middle" x="1116.88" y="-1054.24" font-family="Helvetica,sans-Serif" font-size="14.00">golang.org/x/example</text>
</g>
<!-- golang.org/x/example&#45;&gt;golang.org/x/tools -->
<g id="edge22" class="edge">
<title>golang.org/x/example&#45;&gt;golang.org/x/tools</title>
<path fill="none" stroke="black" d="M1190.21,-1060.38C1248.66,-1061.83 1332.8,-1066.55 1405,-1080.79 1422.95,-1084.32 1442,-1089.85 1459.26,-1095.56"/>
<polygon fill="black" stroke="black" points="1457.73,-1098.74 1468.32,-1098.65 1459.98,-1092.11 1457.73,-1098.74"/>
<text text-anchor="middle" x="1320.25" y="-1082.54" font-family="Helvetica,sans-Serif" font-size="10.00">v0.14.0</text>
</g>
<!-- golang.org/x/exp&#45;&gt;golang.org/x/mod -->
<g id="edge23" class="edge">
<title>golang.org/x/exp&#45;&gt;golang.org/x/mod</title>
<path fill="none" stroke="black" d="M922.13,-1132.6C936.39,-1129.64 951.7,-1126.79 966,-1124.79 991.43,-1121.22 1019.46,-1118.81 1044.33,-1117.19"/>
<polygon fill="black" stroke="black" points="1044.24,-1120.7 1054,-1116.59 1043.81,-1113.71 1044.24,-1120.7"/>
<text text-anchor="middle" x="982.12" y="-1126.54" font-family="Helvetica,sans-Serif" font-size="10.00">v0.24.0</text>
</g>
<!-- golang.org/x/exp&#45;&gt;golang.org/x/tools -->
<g id="edge24" class="edge">
<title>golang.org/x/exp&#45;&gt;golang.org/x/tools</title>
<path fill="none" stroke="black" d="M922.02,-1161.83C931.36,-1166.09 940.44,-1171.41 948,-1178.04 960.57,-1189.05 951.63,-1202.51 966,-1211.04 978.33,-1218.35 983.97,-1212.3 998.25,-1211.04 1159.73,-1196.72 1346.14,-1157.86 1446.14,-1135.16"/>
<polygon fill="black" stroke="black" points="1446.86,-1138.59 1455.83,-1132.95 1445.3,-1131.76 1446.86,-1138.59"/>
<text text-anchor="middle" x="1116.88" y="-1210.54" font-family="Helvetica,sans-Serif" font-size="10.00">v0.32.0</text>
</g>
<!-- golang.org/x/text -->
<g id="node29" class="node">
<title>golang.org/x/text</title>
<path fill="lightblue" stroke="red" stroke-width="2" d="M2184,-701.04C2184,-701.04 2092.25,-701.04 2092.25,-701.04 2086.25,-701.04 2080.25,-695.04 2080.25,-689.04 2080.25,-689.04 2080.25,-677.04 2080.25,-677.04 2080.25,-671.04 2086.25,-665.04 2092.25,-665.04 2092.25,-665.04 2184,-665.04 2184,-665.04 2190,-665.04 2196,-671.04 2196,-677.04 2196,-677.04 2196,-689.04 2196,-689.04 2196,-695.04 2190,-701.04 2184,-701.04"/>
<text text-anchor="middle" x="2138.12" y="-677.24" font-family="Helvetica,sans-Serif" font-size="14.00">golang.org/x/text</text>
</g>
<!-- golang.org/x/image&#45;&gt;golang.org/x/text -->
<g id="edge25" class="edge">
<title>golang.org/x/image&#45;&gt;golang.org/x/text</title>
<path fill="none" stroke="black" d="M1183.1,-723.47C1335.87,-726.12 1728.65,-728.94 2054.75,-697.04 2059.17,-696.6 2063.71,-696.07 2068.29,-695.48"/>
<polygon fill="black" stroke="black" points="2068.74,-698.95 2078.16,-694.08 2067.76,-692.02 2068.74,-698.95"/>
<text text-anchor="middle" x="1718.75" y="-722.94" font-family="Helvetica,sans-Serif" font-size="10.00">v0.24.0</text>
</g>
<!-- golang.org/x/mobile -->
<g id="node15" class="node">
<title>golang.org/x/mobile</title>
<path fill="lightblue" stroke="black" d="M919.12,-1265.04C919.12,-1265.04 808.62,-1265.04 808.62,-1265.04 802.62,-1265.04 796.62,-1259.04 796.62,-1253.04 796.62,-1253.04 796.62,-1241.04 796.62,-1241.04 796.62,-1235.04 802.62,-1229.04 808.62,-1229.04 808.62,-1229.04 919.12,-1229.04 919.12,-1229.04 925.12,-1229.04 931.12,-1235.04 931.12,-1241.04 931.12,-1241.04 931.12,-1253.04 931.12,-1253.04 931.12,-1259.04 925.12,-1265.04 919.12,-1265.04"/>
<text text-anchor="middle" x="863.88" y="-1241.24" font-family="Helvetica,sans-Serif" font-size="14.00">golang.org/x/mobile</text>
</g>
<!-- golang.org/x/mobile&#45;&gt;golang.org/x/image -->
<g id="edge26" class="edge">
<title>golang.org/x/mobile&#45;&gt;golang.org/x/image</title>
<path fill="none" stroke="black" d="M931.61,-1229.82C937.92,-1225.87 943.6,-1221.01 948,-1215.04 983.32,-1167.13 936.85,-999.68 966,-947.79 974.59,-932.49 988.76,-939.79 998.25,-925.04 1021.51,-888.9 996.93,-868.42 1016.25,-830.04 1032.55,-797.65 1061.46,-767.93 1083.95,-747.91"/>
<polygon fill="black" stroke="black" points="1086.13,-750.65 1091.38,-741.45 1081.54,-745.37 1086.13,-750.65"/>
<text text-anchor="middle" x="982.12" y="-949.54" font-family="Helvetica,sans-Serif" font-size="10.00">v0.26.0</text>
</g>
<!-- golang.org/x/mobile&#45;&gt;golang.org/x/mod -->
<g id="edge27" class="edge">
<title>golang.org/x/mobile&#45;&gt;golang.org/x/mod</title>
<path fill="none" stroke="black" d="M922.35,-1228.61C931.25,-1224.72 940.11,-1220.2 948,-1215.04 950.26,-1213.56 1013.95,-1147.45 1016.25,-1146.04 1025.06,-1140.63 1034.88,-1136.04 1044.82,-1132.18"/>
<polygon fill="black" stroke="black" points="1045.98,-1135.48 1054.19,-1128.78 1043.59,-1128.9 1045.98,-1135.48"/>
<text text-anchor="middle" x="982.12" y="-1197.95" font-family="Helvetica,sans-Serif" font-size="10.00">v0.24.0</text>
</g>
<!-- golang.org/x/mobile&#45;&gt;golang.org/x/sync -->
<g id="edge28" class="edge">
<title>golang.org/x/mobile&#45;&gt;golang.org/x/sync</title>
<path fill="none" stroke="black" d="M887.05,-1265.45C905.09,-1281.24 930.36,-1305.3 948,-1330.04 958.62,-1344.93 954.02,-1353.22 966,-1367.04 983.67,-1387.41 990.47,-1393.13 1016.25,-1401.04 1190.02,-1454.3 1242.18,-1377.18 1423,-1358.79 1508.34,-1350.11 1530.3,-1355.24 1616,-1358.79 1777.14,-1365.46 1965.6,-1383.7 2065.85,-1394.24"/>
<polygon fill="black" stroke="black" points="2065.23,-1397.69 2075.54,-1395.26 2065.96,-1390.73 2065.23,-1397.69"/>
<text text-anchor="middle" x="1519.5" y="-1360.54" font-family="Helvetica,sans-Serif" font-size="10.00">v0.13.0</text>
</g>
<!-- golang.org/x/mobile&#45;&gt;golang.org/x/tools -->
<g id="edge29" class="edge">
<title>golang.org/x/mobile&#45;&gt;golang.org/x/tools</title>
<path fill="none" stroke="black" d="M931.59,-1246.46C1002.82,-1244.96 1118.78,-1240.01 1217.5,-1224.04 1302.53,-1210.28 1324.4,-1205.42 1405,-1175.04 1429,-1165.99 1454.63,-1153.39 1475.45,-1142.34"/>
<polygon fill="black" stroke="black" points="1477.08,-1145.44 1484.23,-1137.61 1473.76,-1139.27 1477.08,-1145.44"/>
<text text-anchor="middle" x="1116.88" y="-1245.23" font-family="Helvetica,sans-Serif" font-size="10.00">v0.32.0</text>
</g>
<!-- golang.org/x/mod&#45;&gt;golang.org/x/tools -->
<g id="edge30" class="edge">
<title>golang.org/x/mod&#45;&gt;golang.org/x/tools</title>
<path fill="none" stroke="red" stroke-width="1.5" d="M1178.29,-1114.64C1249.77,-1115.35 1368.72,-1116.54 1445.35,-1117.31"/>
<polygon fill="red" stroke="red" stroke-width="1.5" points="1444.96,-1120.8 1455,-1117.4 1445.03,-1113.8 1444.96,-1120.8"/>
<text text-anchor="middle" x="1320.25" y="-1118.6" font-family="Helvetica,sans-Serif" font-size="10.00">v0.13.0</text>
</g>
<!-- golang.org/x/net&#45;&gt;golang.org/x/crypto -->
<g id="edge31" class="edge">
<title>golang.org/x/net&#45;&gt;golang.org/x/crypto</title>
<path fill="none" stroke="red" stroke-width="1.5" d="M1930.64,-263.27C1950.27,-242.58 1985.03,-210.3 2022.5,-195.79 2034.2,-191.26 2047.07,-188.48 2059.83,-186.88"/>
<polygon fill="red" stroke="red" stroke-width="1.5" points="2060.12,-190.37 2069.72,-185.9 2059.43,-183.4 2060.12,-190.37"/>
<text text-anchor="middle" x="2038.62" y="-197.54" font-family="Helvetica,sans-Serif" font-size="10.00">v0.37.0</text>
</g>
<!-- golang.org/x/net&#45;&gt;golang.org/x/sys -->
<g id="edge32" class="edge">
<title>golang.org/x/net&#45;&gt;golang.org/x/sys</title>
<path fill="none" stroke="black" d="M1970.28,-288.41C2063.4,-296.82 2254.08,-304.97 2403.25,-252.04 2438.41,-239.56 2473.58,-215.29 2497.51,-196.55"/>
<polygon fill="black" stroke="black" points="2499.61,-199.35 2505.23,-190.37 2495.24,-193.89 2499.61,-199.35"/>
<text text-anchor="middle" x="2237.62" y="-291.06" font-family="Helvetica,sans-Serif" font-size="10.00">v0.32.0</text>
</g>
<!-- golang.org/x/net&#45;&gt;golang.org/x/term -->
<g id="edge33" class="edge">
<title>golang.org/x/net&#45;&gt;golang.org/x/term</title>
<path fill="none" stroke="black" d="M1970.1,-274.47C2046.1,-264.21 2181.81,-245.91 2265.03,-234.68"/>
<polygon fill="black" stroke="black" points="2265.46,-238.15 2274.91,-233.35 2264.53,-231.21 2265.46,-238.15"/>
<text text-anchor="middle" x="2138.12" y="-261.88" font-family="Helvetica,sans-Serif" font-size="10.00">v0.31.0</text>
</g>
<!-- golang.org/x/net&#45;&gt;golang.org/x/text -->
<g id="edge34" class="edge">
<title>golang.org/x/net&#45;&gt;golang.org/x/text</title>
<path fill="none" stroke="red" stroke-width="1.5" d="M1926.56,-300.91C1952.05,-339.54 2011.14,-430.74 2054.75,-510.79 2081.39,-559.69 2108.54,-618.59 2124.06,-653.31"/>
<polygon fill="red" stroke="red" stroke-width="1.5" points="2120.68,-654.31 2127.94,-662.03 2127.08,-651.47 2120.68,-654.31"/>
<text text-anchor="middle" x="2038.62" y="-512.54" font-family="Helvetica,sans-Serif" font-size="10.00">v0.24.0</text>
</g>
<!-- golang.org/x/oscar -->
<g id="node19" class="node">
<title>golang.org/x/oscar</title>
<path fill="lightblue" stroke="black" d="M915.38,-671.04C915.38,-671.04 812.38,-671.04 812.38,-671.04 806.38,-671.04 800.38,-665.04 800.38,-659.04 800.38,-659.04 800.38,-647.04 800.38,-647.04 800.38,-641.04 806.38,-635.04 812.38,-635.04 812.38,-635.04 915.38,-635.04 915.38,-635.04 921.38,-635.04 927.38,-641.04 927.38,-647.04 927.38,-647.04 927.38,-659.04 927.38,-659.04 927.38,-665.04 921.38,-671.04 915.38,-671.04"/>
<text text-anchor="middle" x="863.88" y="-647.24" font-family="Helvetica,sans-Serif" font-size="14.00">golang.org/x/oscar</text>
</g>
<!-- golang.org/x/oscar&#45;&gt;golang.org/x/mod -->
<g id="edge35" class="edge">
<title>golang.org/x/oscar&#45;&gt;golang.org/x/mod</title>
<path fill="none" stroke="black" d="M876.48,-671.49C893.37,-698.77 925.21,-751.74 948,-799.04 957.35,-818.44 957.48,-824.25 966,-844.04 979.51,-875.4 989.2,-880.86 998.25,-913.79 1008.51,-951.11 991.17,-1057.55 1016.25,-1087.04 1023.77,-1095.88 1033.87,-1101.98 1044.75,-1106.15"/>
<polygon fill="black" stroke="black" points="1043.34,-1109.37 1053.94,-1109.12 1045.5,-1102.71 1043.34,-1109.37"/>
<text text-anchor="middle" x="982.12" y="-915.54" font-family="Helvetica,sans-Serif" font-size="10.00">v0.24.0</text>
</g>
<!-- golang.org/x/oscar&#45;&gt;golang.org/x/net -->
<g id="edge36" class="edge">
<title>golang.org/x/oscar&#45;&gt;golang.org/x/net</title>
<path fill="none" stroke="black" d="M922.63,-634.57C951.37,-621.98 983.13,-602.04 998.25,-572.04 1011.57,-545.6 994.56,-460.19 1016.25,-440.04 1080.45,-380.38 1723.65,-427.17 1803.5,-391.04 1842.06,-373.59 1874.47,-335.95 1893.56,-309.82"/>
<polygon fill="black" stroke="black" points="1896.17,-312.19 1899.1,-302.01 1890.46,-308.14 1896.17,-312.19"/>
<text text-anchor="middle" x="1320.25" y="-410.45" font-family="Helvetica,sans-Serif" font-size="10.00">v0.39.0</text>
</g>
<!-- golang.org/x/oscar&#45;&gt;golang.org/x/oauth2 -->
<g id="edge37" class="edge">
<title>golang.org/x/oscar&#45;&gt;golang.org/x/oauth2</title>
<path fill="none" stroke="black" d="M892.24,-634.73C909.89,-621.87 932.37,-603.39 948,-583.04 980,-541.37 983.06,-526.33 998.25,-476.04 1013.97,-423.99 981.06,-396.49 1016.25,-355.04 1022.31,-347.9 1029.97,-342.34 1038.33,-338.01"/>
<polygon fill="black" stroke="black" points="1039.75,-341.21 1047.45,-333.93 1036.89,-334.82 1039.75,-341.21"/>
<text text-anchor="middle" x="982.12" y="-558.53" font-family="Helvetica,sans-Serif" font-size="10.00">v0.29.0</text>
</g>
<!-- golang.org/x/oscar&#45;&gt;golang.org/x/sync -->
<g id="edge38" class="edge">
<title>golang.org/x/oscar&#45;&gt;golang.org/x/sync</title>
<path fill="none" stroke="black" d="M921.74,-671.54C930.82,-675.44 939.88,-679.94 948,-685.04 983.22,-707.14 977.84,-733.1 1016.25,-749.04 1219.2,-833.25 1805.77,-688.28 2004.5,-782.04 2035.04,-796.45 2040.55,-808.39 2054.75,-839.04 2099.65,-935.93 2127.46,-1270.75 2135.03,-1372.49"/>
<polygon fill="black" stroke="black" points="2131.52,-1372.48 2135.74,-1382.2 2138.5,-1371.97 2131.52,-1372.48"/>
<text text-anchor="middle" x="1519.5" y="-769.54" font-family="Helvetica,sans-Serif" font-size="10.00">v0.13.0</text>
</g>
<!-- golang.org/x/oscar&#45;&gt;golang.org/x/term -->
<g id="edge39" class="edge">
<title>golang.org/x/oscar&#45;&gt;golang.org/x/term</title>
<path fill="none" stroke="black" d="M927.54,-644.9C953.21,-638.33 980.91,-626.46 998.25,-605.04 1035.5,-559.01 972.88,-513.35 1016.25,-473.04 1065.66,-427.1 1251.78,-454.04 1319.25,-454.04 1319.25,-454.04 1319.25,-454.04 2139.12,-454.04 2243.63,-454.04 2304.97,-315.51 2327.07,-253.94"/>
<polygon fill="black" stroke="black" points="2330.27,-255.41 2330.25,-244.82 2323.65,-253.11 2330.27,-255.41"/>
<text text-anchor="middle" x="1718.75" y="-455.79" font-family="Helvetica,sans-Serif" font-size="10.00">v0.31.0</text>
</g>
<!-- golang.org/x/oscar&#45;&gt;golang.org/x/tools -->
<g id="edge40" class="edge">
<title>golang.org/x/oscar&#45;&gt;golang.org/x/tools</title>
<path fill="none" stroke="black" d="M881.06,-671.5C906.81,-699.71 959.99,-753.27 1016.25,-782.04 1095.43,-822.53 1336.14,-820.76 1405,-877.04 1472.47,-932.17 1502.1,-1036.68 1513.05,-1088.03"/>
<polygon fill="black" stroke="black" points="1509.62,-1088.71 1515.03,-1097.82 1516.48,-1087.32 1509.62,-1088.71"/>
<text text-anchor="middle" x="1116.88" y="-825.37" font-family="Helvetica,sans-Serif" font-size="10.00">v0.32.0</text>
</g>
<!-- golang.org/x/perf&#45;&gt;golang.org/x/net -->
<g id="edge41" class="edge">
<title>golang.org/x/perf&#45;&gt;golang.org/x/net</title>
<path fill="none" stroke="black" d="M922.65,-403.14C932.15,-398.67 941.12,-392.79 948,-385.04 969.61,-360.69 944.11,-338.13 966,-314.04 981.95,-296.48 992.91,-300.28 1016.25,-296.04 1321.24,-240.6 1694.28,-263 1844.54,-275.64"/>
<polygon fill="black" stroke="black" points="1844.06,-279.11 1854.32,-276.47 1844.65,-272.13 1844.06,-279.11"/>
<text text-anchor="middle" x="1320.25" y="-270.31" font-family="Helvetica,sans-Serif" font-size="10.00">v0.39.0</text>
</g>
<!-- golang.org/x/perf&#45;&gt;golang.org/x/oauth2 -->
<g id="edge42" class="edge">
<title>golang.org/x/perf&#45;&gt;golang.org/x/oauth2</title>
<path fill="none" stroke="black" d="M922.71,-409.76C947.63,-404.51 976.07,-395.49 998.25,-380.04 1009.48,-372.21 1005.18,-363.09 1016.25,-355.04 1023.04,-350.1 1030.63,-345.9 1038.51,-342.33"/>
<polygon fill="black" stroke="black" points="1039.68,-345.63 1047.59,-338.58 1037.01,-339.16 1039.68,-345.63"/>
<text text-anchor="middle" x="982.12" y="-397.72" font-family="Helvetica,sans-Serif" font-size="10.00">v0.29.0</text>
</g>
<!-- google.golang.org/appengine -->
<g id="node38" class="node">
<title>google.golang.org/appengine</title>
<path fill="lightblue" stroke="black" d="M1200.25,-518.04C1200.25,-518.04 1033.5,-518.04 1033.5,-518.04 1027.5,-518.04 1021.5,-512.04 1021.5,-506.04 1021.5,-506.04 1021.5,-494.04 1021.5,-494.04 1021.5,-488.04 1027.5,-482.04 1033.5,-482.04 1033.5,-482.04 1200.25,-482.04 1200.25,-482.04 1206.25,-482.04 1212.25,-488.04 1212.25,-494.04 1212.25,-494.04 1212.25,-506.04 1212.25,-506.04 1212.25,-512.04 1206.25,-518.04 1200.25,-518.04"/>
<text text-anchor="middle" x="1116.88" y="-494.24" font-family="Helvetica,sans-Serif" font-size="14.00">google.golang.org/appengine</text>
</g>
<!-- golang.org/x/perf&#45;&gt;google.golang.org/appengine -->
<g id="edge43" class="edge">
<title>golang.org/x/perf&#45;&gt;google.golang.org/appengine</title>
<path fill="none" stroke="black" d="M920.58,-435.46C958.68,-448.06 1009.37,-464.82 1049.55,-478.11"/>
<polygon fill="black" stroke="black" points="1048.3,-481.38 1058.89,-481.19 1050.49,-474.73 1048.3,-481.38"/>
<text text-anchor="middle" x="982.12" y="-462.78" font-family="Helvetica,sans-Serif" font-size="10.00">v1.6.7</text>
</g>
<!-- golang.org/x/pkgsite -->
<g id="node21" class="node">
<title>golang.org/x/pkgsite</title>
<path fill="lightblue" stroke="black" d="M920.25,-940.04C920.25,-940.04 807.5,-940.04 807.5,-940.04 801.5,-940.04 795.5,-934.04 795.5,-928.04 795.5,-928.04 795.5,-916.04 795.5,-916.04 795.5,-910.04 801.5,-904.04 807.5,-904.04 807.5,-904.04 920.25,-904.04 920.25,-904.04 926.25,-904.04 932.25,-910.04 932.25,-916.04 932.25,-916.04 932.25,-928.04 932.25,-928.04 932.25,-934.04 926.25,-940.04 920.25,-940.04"/>
<text text-anchor="middle" x="863.88" y="-916.24" font-family="Helvetica,sans-Serif" font-size="14.00">golang.org/x/pkgsite</text>
</g>
<!-- golang.org/x/pkgsite&#45;&gt;golang.org/x/mod -->
<g id="edge44" class="edge">
<title>golang.org/x/pkgsite&#45;&gt;golang.org/x/mod</title>
<path fill="none" stroke="black" d="M891.2,-940.52C930.03,-967.79 998.14,-1015.62 998.25,-1015.79 1016.77,-1042.69 993.35,-1063.74 1016.25,-1087.04 1024.12,-1095.04 1034.1,-1100.74 1044.68,-1104.79"/>
<polygon fill="black" stroke="black" points="1043.39,-1108.05 1053.98,-1107.84 1045.57,-1101.4 1043.39,-1108.05"/>
<text text-anchor="middle" x="982.12" y="-1017.54" font-family="Helvetica,sans-Serif" font-size="10.00">v0.24.0</text>
</g>
<!-- golang.org/x/pkgsite&#45;&gt;golang.org/x/net -->
<g id="edge45" class="edge">
<title>golang.org/x/pkgsite&#45;&gt;golang.org/x/net</title>
<path fill="none" stroke="black" d="M932.7,-907.72C938.48,-904.34 943.73,-900.17 948,-895.04 967.76,-871.25 956.62,-786.51 966,-757.04 967.81,-751.35 1011.27,-665.32 1016.25,-662.04 1127.89,-588.43 1516.67,-702.56 1616,-613.04 1648.25,-583.98 1604.73,-549.09 1634,-517.04 1686.8,-459.22 1741.67,-517.07 1803.5,-469.04 1856.47,-427.89 1888.36,-353.07 1902.78,-311.63"/>
<polygon fill="black" stroke="black" points="1906.05,-312.92 1905.91,-302.32 1899.41,-310.69 1906.05,-312.92"/>
<text text-anchor="middle" x="1320.25" y="-649.75" font-family="Helvetica,sans-Serif" font-size="10.00">v0.39.0</text>
</g>
<!-- golang.org/x/pkgsite&#45;&gt;golang.org/x/sync -->
<g id="edge46" class="edge">
<title>golang.org/x/pkgsite&#45;&gt;golang.org/x/sync</title>
<path fill="none" stroke="black" d="M932.39,-932.62C938.31,-935.81 943.68,-939.87 948,-945.04 975.92,-978.42 948.04,-1100.4 966,-1140.04 979.4,-1169.6 987.39,-1178.19 1016.25,-1193.04 1096.55,-1234.35 1128.37,-1206.52 1217.5,-1221.04 1239.45,-1224.61 1982.79,-1363.23 2004.5,-1368.04 2024.48,-1372.46 2046.02,-1377.75 2065.81,-1382.83"/>
<polygon fill="black" stroke="black" points="2064.89,-1386.21 2075.45,-1385.32 2066.65,-1379.43 2064.89,-1386.21"/>
<text text-anchor="middle" x="1519.5" y="-1295.83" font-family="Helvetica,sans-Serif" font-size="10.00">v0.13.0</text>
</g>
<!-- golang.org/x/pkgsite&#45;&gt;golang.org/x/text -->
<g id="edge47" class="edge">
<title>golang.org/x/pkgsite&#45;&gt;golang.org/x/text</title>
<path fill="none" stroke="black" d="M932.73,-907.18C938.43,-903.9 943.66,-899.91 948,-895.04 974.86,-864.91 953.15,-844.29 966,-806.04 976.52,-774.71 984.82,-769.23 998.25,-739.04 1006.84,-719.73 998.77,-706.91 1016.25,-695.04 1059.81,-665.45 1831.04,-677.32 2068.27,-681.69"/>
<polygon fill="black" stroke="black" points="2067.91,-685.18 2077.98,-681.87 2068.04,-678.18 2067.91,-685.18"/>
<text text-anchor="middle" x="1519.5" y="-677.77" font-family="Helvetica,sans-Serif" font-size="10.00">v0.24.0</text>
</g>
<!-- golang.org/x/pkgsite&#45;&gt;golang.org/x/tools -->
<g id="edge48" class="edge">
<title>golang.org/x/pkgsite&#45;&gt;golang.org/x/tools</title>
<path fill="none" stroke="black" d="M921.01,-903.6C935.5,-899.64 951.2,-896.05 966,-894.04 980.2,-892.11 986.5,-885.83 998.25,-894.04 1017.27,-907.32 998.24,-928.41 1016.25,-943.04 1084.02,-998.09 1327.36,-960.09 1405,-1000.04 1445.7,-1020.98 1480.1,-1062.26 1500.03,-1090.01"/>
<polygon fill="black" stroke="black" points="1496.99,-1091.77 1505.59,-1097.96 1502.73,-1087.76 1496.99,-1091.77"/>
<text text-anchor="middle" x="1116.88" y="-979.26" font-family="Helvetica,sans-Serif" font-size="10.00">v0.32.0</text>
</g>
<!-- golang.org/x/pkgsite&#45;metrics -->
<g id="node22" class="node">
<title>golang.org/x/pkgsite&#45;metrics</title>
<path fill="lightblue" stroke="black" d="M549.88,-1218.04C549.88,-1218.04 388.38,-1218.04 388.38,-1218.04 382.38,-1218.04 376.38,-1212.04 376.38,-1206.04 376.38,-1206.04 376.38,-1194.04 376.38,-1194.04 376.38,-1188.04 382.38,-1182.04 388.38,-1182.04 388.38,-1182.04 549.88,-1182.04 549.88,-1182.04 555.88,-1182.04 561.88,-1188.04 561.88,-1194.04 561.88,-1194.04 561.88,-1206.04 561.88,-1206.04 561.88,-1212.04 555.88,-1218.04 549.88,-1218.04"/>
<text text-anchor="middle" x="469.12" y="-1194.24" font-family="Helvetica,sans-Serif" font-size="14.00">golang.org/x/pkgsite&#45;metrics</text>
</g>
<!-- golang.org/x/pkgsite&#45;metrics&#45;&gt;golang.org/x/exp -->
<g id="edge49" class="edge">
<title>golang.org/x/pkgsite&#45;metrics&#45;&gt;golang.org/x/exp</title>
<path fill="none" stroke="black" d="M554.02,-1181.56C566.79,-1179.08 579.84,-1176.72 592.25,-1174.79 660.67,-1164.11 739.46,-1156.23 794.31,-1151.45"/>
<polygon fill="black" stroke="black" points="794.47,-1154.95 804.14,-1150.61 793.87,-1147.97 794.47,-1154.95"/>
<text text-anchor="middle" x="677" y="-1176.54" font-family="Helvetica,sans-Serif" font-size="10.00">v0.0.0&#45;20230224173230&#45;c95f2b4c22f2</text>
</g>
<!-- golang.org/x/pkgsite&#45;metrics&#45;&gt;golang.org/x/mod -->
<g id="edge50" class="edge">
<title>golang.org/x/pkgsite&#45;metrics&#45;&gt;golang.org/x/mod</title>
<path fill="none" stroke="black" d="M562.22,-1206.09C659.82,-1209.91 817.54,-1208.67 948,-1173.04 956.63,-1170.68 957.74,-1167.46 966,-1164.04 991.27,-1153.56 1019.61,-1143.66 1044.77,-1135.48"/>
<polygon fill="black" stroke="black" points="1045.83,-1138.81 1054.28,-1132.42 1043.69,-1132.15 1045.83,-1138.81"/>
<text text-anchor="middle" x="863.88" y="-1202.99" font-family="Helvetica,sans-Serif" font-size="10.00">v0.24.0</text>
</g>
<!-- golang.org/x/pkgsite&#45;metrics&#45;&gt;golang.org/x/net -->
<g id="edge51" class="edge">
<title>golang.org/x/pkgsite&#45;metrics&#45;&gt;golang.org/x/net</title>
<path fill="none" stroke="black" d="M483.13,-1181.76C505.62,-1149.16 551.56,-1078.11 574.25,-1011.04 591.53,-959.95 558.91,-933.42 592.25,-891.04 642.54,-827.11 713.31,-887.38 761.75,-822.04 787.8,-786.9 750.44,-658.5 779.75,-626.04 830.81,-569.47 892.3,-645.04 948,-593.04 970.54,-572 953.49,-554.22 966,-526.04 976.73,-501.87 988.09,-500.45 998.25,-476.04 1012.62,-441.49 988.61,-419.01 1016.25,-393.79 1046.93,-365.79 1641.14,-307.52 1844.46,-288.32"/>
<polygon fill="black" stroke="black" points="1844.71,-291.81 1854.34,-287.39 1844.06,-284.84 1844.71,-291.81"/>
<text text-anchor="middle" x="1116.88" y="-395.54" font-family="Helvetica,sans-Serif" font-size="10.00">v0.39.0</text>
</g>
<!-- golang.org/x/pkgsite&#45;metrics&#45;&gt;golang.org/x/oauth2 -->
<g id="edge52" class="edge">
<title>golang.org/x/pkgsite&#45;metrics&#45;&gt;golang.org/x/oauth2</title>
<path fill="none" stroke="black" d="M483.78,-1181.65C507.07,-1149.17 553.92,-1078.66 574.25,-1011.04 588.56,-963.43 562.05,-827.53 592.25,-788.04 640.89,-724.44 711.76,-789.58 761.75,-727.04 802.36,-676.22 735.77,-629.72 779.75,-581.79 831.43,-525.45 893.55,-599.7 948,-546.04 973.65,-520.76 948.02,-498.24 966,-467.04 975.77,-450.08 988.54,-454.04 998.25,-437.04 1016.75,-404.63 991.14,-382.64 1016.25,-355.04 1022.46,-348.21 1030.14,-342.83 1038.45,-338.59"/>
<polygon fill="black" stroke="black" points="1039.74,-341.84 1047.46,-334.58 1036.9,-335.45 1039.74,-341.84"/>
<text text-anchor="middle" x="863.88" y="-583.54" font-family="Helvetica,sans-Serif" font-size="10.00">v0.29.0</text>
</g>
<!-- golang.org/x/pkgsite&#45;metrics&#45;&gt;golang.org/x/sync -->
<g id="edge53" class="edge">
<title>golang.org/x/pkgsite&#45;metrics&#45;&gt;golang.org/x/sync</title>
<path fill="none" stroke="black" d="M476.59,-1218.44C506.42,-1299.66 638.94,-1622.04 862.88,-1622.04 862.88,-1622.04 862.88,-1622.04 1914,-1622.04 2021.8,-1622.04 2096.41,-1490.21 2124.61,-1430.65"/>
<polygon fill="black" stroke="black" points="2127.69,-1432.34 2128.7,-1421.79 2121.33,-1429.4 2127.69,-1432.34"/>
<text text-anchor="middle" x="1320.25" y="-1623.79" font-family="Helvetica,sans-Serif" font-size="10.00">v0.13.0</text>
</g>
<!-- golang.org/x/pkgsite&#45;metrics&#45;&gt;golang.org/x/tools -->
<g id="edge54" class="edge">
<title>golang.org/x/pkgsite&#45;metrics&#45;&gt;golang.org/x/tools</title>
<path fill="none" stroke="black" d="M529.03,-1218.49C590.77,-1236.79 690.97,-1263.57 779.75,-1274.04 973.08,-1296.82 1025.03,-1288.24 1217.5,-1259.04 1302.44,-1246.15 1328.35,-1250.84 1405,-1212.04 1438.85,-1194.9 1471.58,-1166.07 1493.12,-1144.84"/>
<polygon fill="black" stroke="black" points="1495.44,-1147.47 1500.01,-1137.91 1490.48,-1142.53 1495.44,-1147.47"/>
<text text-anchor="middle" x="982.12" y="-1288.71" font-family="Helvetica,sans-Serif" font-size="10.00">v0.32.0</text>
</g>
<!-- golang.org/x/vuln -->
<g id="node34" class="node">
<title>golang.org/x/vuln</title>
<path fill="lightblue" stroke="black" d="M911.25,-1455.04C911.25,-1455.04 816.5,-1455.04 816.5,-1455.04 810.5,-1455.04 804.5,-1449.04 804.5,-1443.04 804.5,-1443.04 804.5,-1431.04 804.5,-1431.04 804.5,-1425.04 810.5,-1419.04 816.5,-1419.04 816.5,-1419.04 911.25,-1419.04 911.25,-1419.04 917.25,-1419.04 923.25,-1425.04 923.25,-1431.04 923.25,-1431.04 923.25,-1443.04 923.25,-1443.04 923.25,-1449.04 917.25,-1455.04 911.25,-1455.04"/>
<text text-anchor="middle" x="863.88" y="-1431.24" font-family="Helvetica,sans-Serif" font-size="14.00">golang.org/x/vuln</text>
</g>
<!-- golang.org/x/pkgsite&#45;metrics&#45;&gt;golang.org/x/vuln -->
<g id="edge55" class="edge">
<title>golang.org/x/pkgsite&#45;metrics&#45;&gt;golang.org/x/vuln</title>
<path fill="none" stroke="black" d="M481.37,-1218.28C500.57,-1248.03 542.5,-1307.08 592.25,-1341.04 653.72,-1383 735.54,-1408.67 793.06,-1422.78"/>
<polygon fill="black" stroke="black" points="792.22,-1426.17 802.76,-1425.09 793.84,-1419.36 792.22,-1426.17"/>
<text text-anchor="middle" x="677" y="-1415.92" font-family="Helvetica,sans-Serif" font-size="10.00">v1.1.4</text>
</g>
<!-- golang.org/x/playground -->
<g id="node23" class="node">
<title>golang.org/x/playground</title>
<path fill="lightblue" stroke="black" d="M148.75,-973.04C148.75,-973.04 12,-973.04 12,-973.04 6,-973.04 0,-967.04 0,-961.04 0,-961.04 0,-949.04 0,-949.04 0,-943.04 6,-937.04 12,-937.04 12,-937.04 148.75,-937.04 148.75,-937.04 154.75,-937.04 160.75,-943.04 160.75,-949.04 160.75,-949.04 160.75,-961.04 160.75,-961.04 160.75,-967.04 154.75,-973.04 148.75,-973.04"/>
<text text-anchor="middle" x="80.38" y="-949.24" font-family="Helvetica,sans-Serif" font-size="14.00">golang.org/x/playground</text>
</g>
<!-- golang.org/x/playground&#45;&gt;golang.org/x/build -->
<g id="edge56" class="edge">
<title>golang.org/x/playground&#45;&gt;golang.org/x/build</title>
<path fill="none" stroke="black" d="M88.89,-936.57C102.97,-903.52 135.8,-833.17 178.75,-784.79 253.1,-701.02 364.99,-629.39 425.55,-593.88"/>
<polygon fill="black" stroke="black" points="426.97,-597.1 433.86,-589.06 423.45,-591.05 426.97,-597.1"/>
<text text-anchor="middle" x="262.38" y="-786.54" font-family="Helvetica,sans-Serif" font-size="10.00">v0.0.0&#45;20230807163047&#45;4fe8fe2fae7c</text>
</g>
<!-- golang.org/x/playground&#45;&gt;golang.org/x/mod -->
<g id="edge57" class="edge">
<title>golang.org/x/playground&#45;&gt;golang.org/x/mod</title>
<path fill="none" stroke="black" d="M143.23,-973.49C238.64,-1001.15 427.92,-1052.79 592.25,-1078.04 752.47,-1102.65 942.87,-1110.44 1044.13,-1112.9"/>
<polygon fill="black" stroke="black" points="1043.85,-1116.4 1053.92,-1113.13 1044.01,-1109.4 1043.85,-1116.4"/>
<text text-anchor="middle" x="677" y="-1099.17" font-family="Helvetica,sans-Serif" font-size="10.00">v0.24.0</text>
</g>
<!-- golang.org/x/playground&#45;&gt;golang.org/x/tools -->
<g id="edge58" class="edge">
<title>golang.org/x/playground&#45;&gt;golang.org/x/tools</title>
<path fill="none" stroke="black" d="M148.55,-973.35C152.91,-975.88 157.04,-978.76 160.75,-982.04 174.46,-994.14 168.57,-1003.84 178.75,-1019.04 307.92,-1211.88 366.06,-1285.95 592.25,-1338.04 769.33,-1378.81 1248.71,-1340.75 1405,-1248.04 1447.37,-1222.9 1482.13,-1176.43 1501.58,-1146.4"/>
<polygon fill="black" stroke="black" points="1504.39,-1148.5 1506.77,-1138.18 1498.47,-1144.76 1504.39,-1148.5"/>
<text text-anchor="middle" x="863.88" y="-1356.05" font-family="Helvetica,sans-Serif" font-size="10.00">v0.32.0</text>
</g>
<!-- golang.org/x/playground&#45;&gt;google.golang.org/appengine -->
<g id="edge59" class="edge">
<title>golang.org/x/playground&#45;&gt;google.golang.org/appengine</title>
<path fill="none" stroke="black" d="M161.24,-941.41C365.01,-904.88 895.43,-798.08 998.25,-660.04 1033.88,-612.2 976.9,-571.87 1016.25,-527.04 1016.6,-526.63 1016.96,-526.23 1017.33,-525.84"/>
<polygon fill="black" stroke="black" points="1019.42,-528.67 1024.57,-519.41 1014.77,-523.43 1019.42,-528.67"/>
<text text-anchor="middle" x="677" y="-845.31" font-family="Helvetica,sans-Serif" font-size="10.00">v1.6.7</text>
</g>
<!-- golang.org/x/review -->
<g id="node24" class="node">
<title>golang.org/x/review</title>
<path fill="lightblue" stroke="black" d="M134.88,-1135.04C134.88,-1135.04 25.88,-1135.04 25.88,-1135.04 19.88,-1135.04 13.88,-1129.04 13.88,-1123.04 13.88,-1123.04 13.88,-1111.04 13.88,-1111.04 13.88,-1105.04 19.88,-1099.04 25.88,-1099.04 25.88,-1099.04 134.88,-1099.04 134.88,-1099.04 140.88,-1099.04 146.88,-1105.04 146.88,-1111.04 146.88,-1111.04 146.88,-1123.04 146.88,-1123.04 146.88,-1129.04 140.88,-1135.04 134.88,-1135.04"/>
<text text-anchor="middle" x="80.38" y="-1111.24" font-family="Helvetica,sans-Serif" font-size="14.00">golang.org/x/review</text>
</g>
<!-- golang.org/x/telemetry&#45;&gt;golang.org/x/mod -->
<g id="edge60" class="edge">
<title>golang.org/x/telemetry&#45;&gt;golang.org/x/mod</title>
<path fill="none" stroke="red" stroke-width="1.5" d="M1843.01,-1518.09C1726.23,-1485.35 1495.27,-1417.53 1423,-1374.04 1314.86,-1308.96 1316.71,-1256.06 1217.5,-1178.04 1199.8,-1164.12 1179.02,-1150.4 1161.02,-1139.25"/>
<polygon fill="red" stroke="red" stroke-width="1.5" points="1163.09,-1136.41 1152.73,-1134.19 1159.44,-1142.39 1163.09,-1136.41"/>
<text text-anchor="middle" x="1519.5" y="-1451.52" font-family="Helvetica,sans-Serif" font-size="10.00">v0.24.0</text>
</g>
<!-- golang.org/x/telemetry&#45;&gt;golang.org/x/sync -->
<g id="edge61" class="edge">
<title>golang.org/x/telemetry&#45;&gt;golang.org/x/sync</title>
<path fill="none" stroke="black" d="M1988.87,-1529.62C2011.29,-1524.94 2035.11,-1517.35 2054.75,-1505.04 2084.16,-1486.61 2107.62,-1453.89 2121.87,-1430.27"/>
<polygon fill="black" stroke="black" points="2124.81,-1432.17 2126.81,-1421.77 2118.76,-1428.65 2124.81,-1432.17"/>
<text text-anchor="middle" x="2038.62" y="-1521.89" font-family="Helvetica,sans-Serif" font-size="10.00">v0.13.0</text>
</g>
<!-- golang.org/x/telemetry&#45;&gt;golang.org/x/sys -->
<g id="edge62" class="edge">
<title>golang.org/x/telemetry&#45;&gt;golang.org/x/sys</title>
<path fill="none" stroke="black" d="M1988.79,-1544.24C2010.51,-1544.14 2033.97,-1541.85 2054.75,-1535.04 2131.89,-1509.76 2157.53,-1495.95 2203.5,-1429.04 2492.91,-1007.74 2523.93,-346.47 2527.23,-200.28"/>
<polygon fill="black" stroke="black" points="2530.72,-200.77 2527.42,-190.7 2523.73,-200.63 2530.72,-200.77"/>
<text text-anchor="middle" x="2237.62" y="-1397.36" font-family="Helvetica,sans-Serif" font-size="10.00">v0.32.0</text>
</g>
<!-- golang.org/x/term&#45;&gt;golang.org/x/sys -->
<g id="edge63" class="edge">
<title>golang.org/x/term&#45;&gt;golang.org/x/sys</title>
<path fill="none" stroke="black" d="M2398.86,-207.8C2418.38,-202.23 2440.15,-196.01 2460.15,-190.3"/>
<polygon fill="black" stroke="black" points="2460.94,-193.72 2469.6,-187.61 2459.02,-186.99 2460.94,-193.72"/>
<text text-anchor="middle" x="2437.38" y="-203.02" font-family="Helvetica,sans-Serif" font-size="10.00">v0.32.0</text>
</g>
<!-- golang.org/x/text&#45;&gt;golang.org/x/tools -->
<g id="edge64" class="edge">
<title>golang.org/x/text&#45;&gt;golang.org/x/tools</title>
<path fill="none" stroke="red" stroke-width="1.5" d="M2110.44,-701.86C2012.21,-771.16 1670.6,-1012.15 1557.32,-1092.06"/>
<polygon fill="red" stroke="red" stroke-width="1.5" points="1555.4,-1089.13 1549.25,-1097.76 1559.44,-1094.85 1555.4,-1089.13"/>
<text text-anchor="middle" x="1913" y="-902.29" font-family="Helvetica,sans-Serif" font-size="10.00">v0.21.1&#45;0.20240508182429&#45;e35e4ccd0d2d</text>
</g>
<!-- golang.org/x/tools&#45;&gt;golang.org/x/mod -->
<g id="edge65" class="edge">
<title>golang.org/x/tools&#45;&gt;golang.org/x/mod</title>
<path fill="none" stroke="red" stroke-width="1.5" d="M1457.46,-1106.39C1440.53,-1103.66 1422.11,-1101.15 1405,-1099.79 1329.91,-1093.79 1310.7,-1095.25 1235.5,-1099.79 1220.76,-1100.68 1205.03,-1102.19 1190.03,-1103.9"/>
<polygon fill="red" stroke="red" stroke-width="1.5" points="1189.96,-1100.39 1180.45,-1105.05 1190.79,-1107.34 1189.96,-1100.39"/>
<text text-anchor="middle" x="1320.25" y="-1101.54" font-family="Helvetica,sans-Serif" font-size="10.00">v0.24.0</text>
</g>
<!-- golang.org/x/tools&#45;&gt;golang.org/x/net -->
<g id="edge66" class="edge">
<title>golang.org/x/tools&#45;&gt;golang.org/x/net</title>
<path fill="none" stroke="red" stroke-width="1.5" d="M1526.48,-1099.3C1542.48,-1048.69 1587.07,-904.83 1616,-783.04 1625.86,-741.55 1612.13,-725.4 1634,-688.79 1683.79,-605.45 1745.85,-629.14 1803.5,-551.04 1859.72,-474.87 1891.88,-365.5 1905,-312.77"/>
<polygon fill="red" stroke="red" stroke-width="1.5" points="1908.38,-313.68 1907.33,-303.14 1901.58,-312.04 1908.38,-313.68"/>
<text text-anchor="middle" x="1718.75" y="-690.54" font-family="Helvetica,sans-Serif" font-size="10.00">v0.39.0</text>
</g>
<!-- golang.org/x/tools&#45;&gt;golang.org/x/sync -->
<g id="edge67" class="edge">
<title>golang.org/x/tools&#45;&gt;golang.org/x/sync</title>
<path fill="none" stroke="black" d="M1581.7,-1126.98C1686.67,-1144.73 1904.24,-1192.18 2054.75,-1298.04 2083.14,-1318.01 2106.65,-1350.5 2121.19,-1373.86"/>
<polygon fill="black" stroke="black" points="2118.1,-1375.51 2126.26,-1382.26 2124.09,-1371.89 2118.1,-1375.51"/>
<text text-anchor="middle" x="1913" y="-1263.87" font-family="Helvetica,sans-Serif" font-size="10.00">v0.13.0</text>
</g>
<!-- golang.org/x/tools&#45;&gt;golang.org/x/telemetry -->
<g id="edge68" class="edge">
<title>golang.org/x/tools&#45;&gt;golang.org/x/telemetry</title>
<path fill="none" stroke="red" stroke-width="1.5" d="M1544.1,-1136.95C1594.78,-1178.18 1716.5,-1280.53 1803.5,-1380.79 1839.48,-1422.25 1874.47,-1475.73 1894.6,-1508.16"/>
<polygon fill="red" stroke="red" stroke-width="1.5" points="1891.42,-1509.68 1899.64,-1516.36 1897.39,-1506.01 1891.42,-1509.68"/>
<text text-anchor="middle" x="1718.75" y="-1382.54" font-family="Helvetica,sans-Serif" font-size="10.00">v0.0.0&#45;20240521205824&#45;bda55230c457</text>
</g>
<!-- golang.org/x/tour -->
<g id="node32" class="node">
<title>golang.org/x/tour</title>
<path fill="lightblue" stroke="black" d="M515.75,-534.04C515.75,-534.04 422.5,-534.04 422.5,-534.04 416.5,-534.04 410.5,-528.04 410.5,-522.04 410.5,-522.04 410.5,-510.04 410.5,-510.04 410.5,-504.04 416.5,-498.04 422.5,-498.04 422.5,-498.04 515.75,-498.04 515.75,-498.04 521.75,-498.04 527.75,-504.04 527.75,-510.04 527.75,-510.04 527.75,-522.04 527.75,-522.04 527.75,-528.04 521.75,-534.04 515.75,-534.04"/>
<text text-anchor="middle" x="469.12" y="-510.24" font-family="Helvetica,sans-Serif" font-size="14.00">golang.org/x/tour</text>
</g>
<!-- golang.org/x/vgo -->
<g id="node33" class="node">
<title>golang.org/x/vgo</title>
<path fill="lightblue" stroke="black" d="M126.25,-1189.04C126.25,-1189.04 34.5,-1189.04 34.5,-1189.04 28.5,-1189.04 22.5,-1183.04 22.5,-1177.04 22.5,-1177.04 22.5,-1165.04 22.5,-1165.04 22.5,-1159.04 28.5,-1153.04 34.5,-1153.04 34.5,-1153.04 126.25,-1153.04 126.25,-1153.04 132.25,-1153.04 138.25,-1159.04 138.25,-1165.04 138.25,-1165.04 138.25,-1177.04 138.25,-1177.04 138.25,-1183.04 132.25,-1189.04 126.25,-1189.04"/>
<text text-anchor="middle" x="80.38" y="-1165.24" font-family="Helvetica,sans-Serif" font-size="14.00">golang.org/x/vgo</text>
</g>
<!-- golang.org/x/vuln&#45;&gt;golang.org/x/mod -->
<g id="edge69" class="edge">
<title>golang.org/x/vuln&#45;&gt;golang.org/x/mod</title>
<path fill="none" stroke="black" d="M893.86,-1418.68C926.33,-1396.2 977.19,-1354.78 998.25,-1304.04 1011.79,-1271.4 993.85,-1173.36 1016.25,-1146.04 1023.76,-1136.88 1033.9,-1130.31 1044.85,-1125.61"/>
<polygon fill="black" stroke="black" points="1045.95,-1128.93 1054.11,-1122.17 1043.52,-1122.37 1045.95,-1128.93"/>
<text text-anchor="middle" x="982.12" y="-1353.31" font-family="Helvetica,sans-Serif" font-size="10.00">v0.24.0</text>
</g>
<!-- golang.org/x/vuln&#45;&gt;golang.org/x/sync -->
<g id="edge70" class="edge">
<title>golang.org/x/vuln&#45;&gt;golang.org/x/sync</title>
<path fill="none" stroke="black" d="M918.51,-1455.47C968.85,-1471.11 1046.56,-1491.04 1115.88,-1491.04 1115.88,-1491.04 1115.88,-1491.04 1914,-1491.04 1978.15,-1491.04 2003.82,-1498.05 2054.75,-1459.04 2065.88,-1450.51 2062.16,-1440.62 2070.91,-1428.65"/>
<polygon fill="black" stroke="black" points="2073.31,-1431.21 2077.7,-1421.57 2068.25,-1426.37 2073.31,-1431.21"/>
<text text-anchor="middle" x="1519.5" y="-1492.79" font-family="Helvetica,sans-Serif" font-size="10.00">v0.13.0</text>
</g>
<!-- golang.org/x/vuln&#45;&gt;golang.org/x/telemetry -->
<g id="edge71" class="edge">
<title>golang.org/x/vuln&#45;&gt;golang.org/x/telemetry</title>
<path fill="none" stroke="black" d="M884.74,-1455.41C903.92,-1471.85 934.6,-1494.88 966,-1505.04 1124.17,-1556.21 1623.21,-1546.48 1825.53,-1540.16"/>
<polygon fill="black" stroke="black" points="1825.58,-1543.66 1835.46,-1539.84 1825.35,-1536.66 1825.58,-1543.66"/>
<text text-anchor="middle" x="1320.25" y="-1546.19" font-family="Helvetica,sans-Serif" font-size="10.00">v0.0.0&#45;20240522233618&#45;39ace7a40ae7</text>
</g>
<!-- golang.org/x/vuln&#45;&gt;golang.org/x/tools -->
<g id="edge72" class="edge">
<title>golang.org/x/vuln&#45;&gt;golang.org/x/tools</title>
<path fill="none" stroke="black" d="M923.67,-1435.38C1048.46,-1430.69 1334.2,-1413.24 1405,-1351.04 1426.23,-1332.38 1412.07,-1316.11 1423,-1290.04 1445.14,-1237.22 1479.24,-1179.82 1500.14,-1146.48"/>
<polygon fill="black" stroke="black" points="1502.98,-1148.54 1505.36,-1138.22 1497.06,-1144.8 1502.98,-1148.54"/>
<text text-anchor="middle" x="1116.88" y="-1432.13" font-family="Helvetica,sans-Serif" font-size="10.00">v0.32.0</text>
</g>
<!-- golang.org/x/vulndb -->
<g id="node35" class="node">
<title>golang.org/x/vulndb</title>
<path fill="lightblue" stroke="black" d="M524,-1002.04C524,-1002.04 414.25,-1002.04 414.25,-1002.04 408.25,-1002.04 402.25,-996.04 402.25,-990.04 402.25,-990.04 402.25,-978.04 402.25,-978.04 402.25,-972.04 408.25,-966.04 414.25,-966.04 414.25,-966.04 524,-966.04 524,-966.04 530,-966.04 536,-972.04 536,-978.04 536,-978.04 536,-990.04 536,-990.04 536,-996.04 530,-1002.04 524,-1002.04"/>
<text text-anchor="middle" x="469.12" y="-978.24" font-family="Helvetica,sans-Serif" font-size="14.00">golang.org/x/vulndb</text>
</g>
<!-- golang.org/x/vulndb&#45;&gt;golang.org/x/exp -->
<g id="edge73" class="edge">
<title>golang.org/x/vulndb&#45;&gt;golang.org/x/exp</title>
<path fill="none" stroke="black" d="M500.61,-1002.48C524.65,-1016.15 559.48,-1034.08 592.25,-1044.04 664.97,-1066.14 691.71,-1037.25 761.75,-1066.79 777.31,-1073.35 809.84,-1099.87 833.82,-1120.45"/>
<polygon fill="black" stroke="black" points="831.22,-1122.83 841.08,-1126.72 835.8,-1117.53 831.22,-1122.83"/>
<text text-anchor="middle" x="677" y="-1068.54" font-family="Helvetica,sans-Serif" font-size="10.00">v0.0.0&#45;20240719175910&#45;8a7402abbf56</text>
</g>
<!-- golang.org/x/vulndb&#45;&gt;golang.org/x/mod -->
<g id="edge74" class="edge">
<title>golang.org/x/vulndb&#45;&gt;golang.org/x/mod</title>
<path fill="none" stroke="black" d="M536.26,-985.89C609.58,-988.78 722.66,-995.91 761.75,-1013.04 771.55,-1017.33 770.25,-1024.11 779.75,-1029.04 868.3,-1074.91 902.99,-1050.56 998.25,-1080.04 1006.45,-1082.57 1008.1,-1084.35 1016.25,-1087.04 1025.4,-1090.05 1035.1,-1092.98 1044.72,-1095.75"/>
<polygon fill="black" stroke="black" points="1043.48,-1099.03 1054.05,-1098.37 1045.38,-1092.29 1043.48,-1099.03"/>
<text text-anchor="middle" x="863.88" y="-1069.57" font-family="Helvetica,sans-Serif" font-size="10.00">v0.24.0</text>
</g>
<!-- golang.org/x/vulndb&#45;&gt;golang.org/x/oauth2 -->
<g id="edge75" class="edge">
<title>golang.org/x/vulndb&#45;&gt;golang.org/x/oauth2</title>
<path fill="none" stroke="black" d="M473.9,-965.79C484.27,-920.24 517.57,-800.74 592.25,-738.04 652.4,-687.53 711.76,-748.62 761.75,-688.04 814.96,-623.55 727.79,-566.28 779.75,-500.79 828.8,-438.96 877.05,-478.59 948,-444.04 972.02,-432.34 982.07,-432.3 998.25,-411.04 1014.08,-390.23 997.76,-373.52 1016.25,-355.04 1022.57,-348.72 1030.15,-343.64 1038.26,-339.57"/>
<polygon fill="black" stroke="black" points="1039.65,-342.78 1047.38,-335.54 1036.82,-336.38 1039.65,-342.78"/>
<text text-anchor="middle" x="863.88" y="-502.54" font-family="Helvetica,sans-Serif" font-size="10.00">v0.29.0</text>
</g>
<!-- golang.org/x/vulndb&#45;&gt;golang.org/x/sync -->
<g id="edge76" class="edge">
<title>golang.org/x/vulndb&#45;&gt;golang.org/x/sync</title>
<path fill="none" stroke="black" d="M477.08,-1002.47C492.53,-1041.4 533.1,-1133.08 592.25,-1190.04 654,-1249.49 710.72,-1213.16 761.75,-1282.04 785.51,-1314.11 751.84,-1341.49 779.75,-1370.04 784.46,-1374.86 1009.56,-1423.22 1016.25,-1424.04 1280.88,-1456.17 1349.53,-1438.45 1616,-1431.04 1776.91,-1426.56 1965.46,-1414.33 2065.79,-1407.27"/>
<polygon fill="black" stroke="black" points="2065.75,-1410.78 2075.48,-1406.58 2065.26,-1403.79 2065.75,-1410.78"/>
<text text-anchor="middle" x="1320.25" y="-1444.37" font-family="Helvetica,sans-Serif" font-size="10.00">v0.13.0</text>
</g>
<!-- golang.org/x/vulndb&#45;&gt;golang.org/x/time -->
<g id="edge77" class="edge">
<title>golang.org/x/vulndb&#45;&gt;golang.org/x/time</title>
<path fill="none" stroke="black" d="M522.51,-965.62C544.03,-958.25 569.25,-949.84 592.25,-942.79 659.82,-922.06 737.68,-900.83 792.48,-886.32"/>
<polygon fill="black" stroke="black" points="793.23,-889.74 802.01,-883.8 791.44,-882.97 793.23,-889.74"/>
<text text-anchor="middle" x="677" y="-944.54" font-family="Helvetica,sans-Serif" font-size="10.00">v0.11.0</text>
</g>
<!-- golang.org/x/vulndb&#45;&gt;golang.org/x/tools -->
<g id="edge78" class="edge">
<title>golang.org/x/vulndb&#45;&gt;golang.org/x/tools</title>
<path fill="none" stroke="black" d="M536.3,-983.29C631.37,-982.26 812.11,-980.45 966,-979.79 980.33,-979.73 984.63,-975.32 998.25,-979.79 1007.69,-982.89 1007.1,-989.17 1016.25,-993.04 1177.59,-1061.27 1239.05,-1001.94 1405,-1058.04 1431.07,-1066.85 1458.39,-1081.11 1479.69,-1093.52"/>
<polygon fill="black" stroke="black" points="1477.64,-1096.38 1488.03,-1098.48 1481.22,-1090.36 1477.64,-1096.38"/>
<text text-anchor="middle" x="982.12" y="-981.54" font-family="Helvetica,sans-Serif" font-size="10.00">v0.32.0</text>
</g>
<!-- golang.org/x/website -->
<g id="node36" class="node">
<title>golang.org/x/website</title>
<path fill="lightblue" stroke="black" d="M138.25,-588.04C138.25,-588.04 22.5,-588.04 22.5,-588.04 16.5,-588.04 10.5,-582.04 10.5,-576.04 10.5,-576.04 10.5,-564.04 10.5,-564.04 10.5,-558.04 16.5,-552.04 22.5,-552.04 22.5,-552.04 138.25,-552.04 138.25,-552.04 144.25,-552.04 150.25,-558.04 150.25,-564.04 150.25,-564.04 150.25,-576.04 150.25,-576.04 150.25,-582.04 144.25,-588.04 138.25,-588.04"/>
<text text-anchor="middle" x="80.38" y="-564.24" font-family="Helvetica,sans-Serif" font-size="14.00">golang.org/x/website</text>
</g>
<!-- golang.org/x/website&#45;&gt;golang.org/x/build -->
<g id="edge79" class="edge">
<title>golang.org/x/website&#45;&gt;golang.org/x/build</title>
<path fill="none" stroke="black" d="M150.52,-570.04C219.77,-570.04 325.9,-570.04 396.14,-570.04"/>
<polygon fill="black" stroke="black" points="396.01,-573.54 406.01,-570.04 396.01,-566.54 396.01,-573.54"/>
<text text-anchor="middle" x="262.38" y="-571.79" font-family="Helvetica,sans-Serif" font-size="10.00">v0.0.0&#45;20241216151400&#45;8a21a58f0cc0</text>
</g>
<!-- golang.org/x/website&#45;&gt;golang.org/x/net -->
<g id="edge80" class="edge">
<title>golang.org/x/website&#45;&gt;golang.org/x/net</title>
<path fill="none" stroke="black" d="M145.7,-551.65C150.97,-549.11 156.07,-546.25 160.75,-543.04 222.44,-500.69 524.48,-57.75 592.25,-26.04 822.45,81.68 1616.18,-179.17 1847.97,-259.43"/>
<polygon fill="black" stroke="black" points="1846.55,-262.65 1857.15,-262.62 1848.85,-256.03 1846.55,-262.65"/>
<text text-anchor="middle" x="982.12" y="-27.25" font-family="Helvetica,sans-Serif" font-size="10.00">v0.39.0</text>
</g>
<!-- golang.org/x/website&#45;&gt;golang.org/x/sync -->
<g id="edge81" class="edge">
<title>golang.org/x/website&#45;&gt;golang.org/x/sync</title>
<path fill="none" stroke="black" d="M85.52,-588.21C116.1,-721.87 307.07,-1550.4 364,-1649.04 396.54,-1705.41 403.03,-1752.04 468.12,-1752.04 468.12,-1752.04 468.12,-1752.04 1914,-1752.04 2065.45,-1752.04 2118.61,-1516.15 2132.79,-1431.68"/>
<polygon fill="black" stroke="black" points="2136.24,-1432.28 2134.37,-1421.86 2129.33,-1431.17 2136.24,-1432.28"/>
<text text-anchor="middle" x="1116.88" y="-1753.79" font-family="Helvetica,sans-Serif" font-size="10.00">v0.13.0</text>
</g>
<!-- golang.org/x/website&#45;&gt;golang.org/x/tools -->
<g id="edge82" class="edge">
<title>golang.org/x/website&#45;&gt;golang.org/x/tools</title>
<path fill="none" stroke="black" d="M146.64,-588.51C335.29,-642.05 872.69,-795.71 948,-829.79 956.6,-833.68 957.84,-836.3 966,-841.04 987.93,-853.76 992.7,-858.64 1016.25,-868.04 1182.59,-934.4 1255.67,-875.18 1405,-974.04 1449.79,-1003.69 1484.84,-1056.81 1503.54,-1089.58"/>
<polygon fill="black" stroke="black" points="1500.37,-1091.09 1508.29,-1098.13 1506.49,-1087.69 1500.37,-1091.09"/>
<text text-anchor="middle" x="863.88" y="-831.54" font-family="Helvetica,sans-Serif" font-size="10.00">v0.32.0</text>
</g>
<!-- golang.org/x/website&#45;&gt;golang.org/x/tour -->
<g id="edge83" class="edge">
<title>golang.org/x/website&#45;&gt;golang.org/x/tour</title>
<path fill="none" stroke="black" d="M150.5,-559.02C159.99,-557.56 169.61,-556.11 178.75,-554.79 253.87,-543.88 340.14,-532.47 398.8,-524.88"/>
<polygon fill="black" stroke="black" points="399.18,-528.36 408.65,-523.61 398.28,-521.42 399.18,-528.36"/>
<text text-anchor="middle" x="262.38" y="-556.54" font-family="Helvetica,sans-Serif" font-size="10.00">v0.1.0</text>
</g>
<!-- golang.org/x/xerrors -->
<g id="node37" class="node">
<title>golang.org/x/xerrors</title>
<path fill="lightblue" stroke="black" d="M136.38,-1243.04C136.38,-1243.04 24.38,-1243.04 24.38,-1243.04 18.37,-1243.04 12.38,-1237.04 12.38,-1231.04 12.38,-1231.04 12.38,-1219.04 12.38,-1219.04 12.38,-1213.04 18.38,-1207.04 24.38,-1207.04 24.38,-1207.04 136.38,-1207.04 136.38,-1207.04 142.38,-1207.04 148.38,-1213.04 148.38,-1219.04 148.38,-1219.04 148.38,-1231.04 148.38,-1231.04 148.38,-1237.04 142.38,-1243.04 136.38,-1243.04"/>
<text text-anchor="middle" x="80.38" y="-1219.24" font-family="Helvetica,sans-Serif" font-size="14.00">golang.org/x/xerrors</text>
</g>
<!-- google.golang.org/appengine&#45;&gt;github.com/golang/protobuf -->
<g id="edge84" class="edge">
<title>google.golang.org/appengine&#45;&gt;github.com/golang/protobuf</title>
<path fill="none" stroke="black" d="M1212.56,-510.44C1274.33,-517.22 1354.86,-526.06 1417.8,-532.98"/>
<polygon fill="black" stroke="black" points="1417.11,-536.42 1427.43,-534.03 1417.87,-529.46 1417.11,-536.42"/>
<text text-anchor="middle" x="1320.25" y="-532.79" font-family="Helvetica,sans-Serif" font-size="10.00">v1.5.2</text>
</g>
<!-- google.golang.org/appengine&#45;&gt;golang.org/x/text -->
<g id="edge85" class="edge">
<title>google.golang.org/appengine&#45;&gt;golang.org/x/text</title>
<path fill="none" stroke="black" d="M1212.73,-498.81C1421.33,-497.64 1912.65,-503.77 2054.75,-584.04 2083.92,-600.51 2107.16,-631.61 2121.42,-654.58"/>
<polygon fill="black" stroke="black" points="2118.24,-656.08 2126.38,-662.87 2124.25,-652.49 2118.24,-656.08"/>
<text text-anchor="middle" x="1718.75" y="-525.38" font-family="Helvetica,sans-Serif" font-size="10.00">v0.3.8</text>
</g>
<!-- google.golang.org/open2opaque -->
<g id="node39" class="node">
<title>google.golang.org/open2opaque</title>
<path fill="lightblue" stroke="black" d="M562.25,-1640.04C562.25,-1640.04 376,-1640.04 376,-1640.04 370,-1640.04 364,-1634.04 364,-1628.04 364,-1628.04 364,-1616.04 364,-1616.04 364,-1610.04 370,-1604.04 376,-1604.04 376,-1604.04 562.25,-1604.04 562.25,-1604.04 568.25,-1604.04 574.25,-1610.04 574.25,-1616.04 574.25,-1616.04 574.25,-1628.04 574.25,-1628.04 574.25,-1634.04 568.25,-1640.04 562.25,-1640.04"/>
<text text-anchor="middle" x="469.12" y="-1616.24" font-family="Helvetica,sans-Serif" font-size="14.00">google.golang.org/open2opaque</text>
</g>
<!-- google.golang.org/open2opaque&#45;&gt;github.com/golang/glog -->
<g id="edge86" class="edge">
<title>google.golang.org/open2opaque&#45;&gt;github.com/golang/glog</title>
<path fill="none" stroke="black" d="M505.77,-1640.42C529.63,-1651.91 562.08,-1666.01 592.25,-1674.04 651.79,-1689.88 720.79,-1697.89 774.22,-1701.93"/>
<polygon fill="black" stroke="black" points="773.64,-1705.4 783.86,-1702.62 774.14,-1698.42 773.64,-1705.4"/>
<text text-anchor="middle" x="677" y="-1702.41" font-family="Helvetica,sans-Serif" font-size="10.00">v1.2.2</text>
</g>
<!-- google.golang.org/open2opaque&#45;&gt;golang.org/x/exp -->
<g id="edge87" class="edge">
<title>google.golang.org/open2opaque&#45;&gt;golang.org/x/exp</title>
<path fill="none" stroke="black" d="M474.2,-1603.73C485.82,-1554.65 522.81,-1417.65 592.25,-1325.79 608.24,-1304.63 756.7,-1191.16 779.75,-1178.04 785.43,-1174.8 791.51,-1171.76 797.68,-1168.94"/>
<polygon fill="black" stroke="black" points="798.97,-1172.2 806.75,-1165.01 796.18,-1165.78 798.97,-1172.2"/>
<text text-anchor="middle" x="677" y="-1327.54" font-family="Helvetica,sans-Serif" font-size="10.00">v0.0.0&#45;20240909161429&#45;701f63a606c0</text>
</g>
<!-- google.golang.org/open2opaque&#45;&gt;golang.org/x/sync -->
<g id="edge88" class="edge">
<title>google.golang.org/open2opaque&#45;&gt;golang.org/x/sync</title>
<path fill="none" stroke="black" d="M574.47,-1637.66C653.46,-1648.14 764.74,-1660.04 862.88,-1660.04 862.88,-1660.04 862.88,-1660.04 1914,-1660.04 1955.61,-1660.04 1969.57,-1658.65 2004.5,-1636.04 2078.87,-1587.9 2115.85,-1482.59 2130.01,-1431.29"/>
<polygon fill="black" stroke="black" points="2133.35,-1432.36 2132.53,-1421.8 2126.58,-1430.57 2133.35,-1432.36"/>
<text text-anchor="middle" x="1320.25" y="-1661.79" font-family="Helvetica,sans-Serif" font-size="10.00">v0.8.0</text>
</g>
<!-- google.golang.org/open2opaque&#45;&gt;golang.org/x/tools -->
<g id="edge89" class="edge">
<title>google.golang.org/open2opaque&#45;&gt;golang.org/x/tools</title>
<path fill="none" stroke="black" d="M574.5,-1611.51C806.4,-1587.13 1348.53,-1524.26 1405,-1464.04 1431.59,-1435.68 1411.33,-1327.12 1423,-1290.04 1440.1,-1235.71 1475.44,-1179.18 1498.01,-1146.37"/>
<polygon fill="black" stroke="black" points="1500.84,-1148.42 1503.7,-1138.22 1495.1,-1144.41 1500.84,-1148.42"/>
<text text-anchor="middle" x="982.12" y="-1565.09" font-family="Helvetica,sans-Serif" font-size="10.00">v0.25.0</text>
</g>
</g>
</svg>
